<svg width="393" height="852" viewBox="0 0 393 852" fill="none" xmlns="http://www.w3.org/2000/svg">
<g clip-path="url(#clip0_2212_3243)">
<rect width="393" height="852" fill="#2D2D2D"/>
<path d="M28.5312 145.641V147.203H25.6562C25.7031 148.633 26.7188 150.062 28.9844 150.672L28.0781 152.203C26.4531 151.781 25.3281 150.883 24.6875 149.734C24.0625 151 22.9297 151.992 21.25 152.453L20.3125 150.922C22.5781 150.297 23.6406 148.773 23.6719 147.203H20.8125V145.641H23.6719V144.156H25.6875V145.641H28.5312ZM22.4062 158.281V153.141H31.7031V158.281H22.4062ZM24.375 156.688H29.7344V154.719H24.375V156.688ZM29.7031 152.547V144.219H31.7031V147.562H33.625V149.188H31.7031V152.547H29.7031ZM38.1719 145.219C39.4531 145.219 40.5156 145.914 41.1641 147.141H44.2812V144.219H46.25V158.469H44.2812V153.141H41.3125C40.6797 154.547 39.5469 155.359 38.1719 155.359C36.0156 155.359 34.4688 153.406 34.4844 150.281C34.4688 147.18 36.0156 145.219 38.1719 145.219ZM36.3906 150.281C36.3828 152.398 37.1094 153.555 38.1719 153.547C39.2422 153.555 39.9531 152.398 39.9531 150.281C39.9531 148.172 39.2422 147.016 38.1719 147.016C37.1094 147.016 36.3828 148.172 36.3906 150.281ZM41.7188 148.75C41.8125 149.219 41.8594 149.734 41.8594 150.281C41.8594 150.727 41.8281 151.148 41.7656 151.547H44.2812V148.75H41.7188ZM61.0469 150.672V152.281H55.5469V153.336C58.0156 153.516 59.4844 154.406 59.5 155.875C59.4844 157.523 57.6172 158.445 54.5469 158.438C51.4297 158.445 49.5625 157.523 49.5625 155.875C49.5625 154.398 51.0391 153.508 53.5625 153.328V152.281H48.0781V150.672H61.0469ZM48.6562 148.578C51.2891 148.344 52.7422 147.375 53.1016 146.391H49.2656V144.828H59.875V146.391H56.0078C56.3516 147.383 57.7969 148.344 60.5 148.578L59.7969 150.141C57.1094 149.883 55.3047 148.875 54.5469 147.492C53.7969 148.867 52.0078 149.891 49.3125 150.141L48.6562 148.578ZM51.5938 155.875C51.5859 156.562 52.5781 156.938 54.5469 156.938C56.4766 156.938 57.4922 156.562 57.5 155.875C57.4922 155.156 56.4766 154.812 54.5469 154.797C52.5781 154.812 51.5859 155.156 51.5938 155.875ZM73.8125 144.234V154.453H71.8125V144.234H73.8125ZM62.125 148.719C62.125 146.633 63.8281 145.133 66.0156 145.141C68.1953 145.133 69.8984 146.633 69.9062 148.719C69.8984 150.836 68.1953 152.328 66.0156 152.328C63.8281 152.328 62.125 150.836 62.125 148.719ZM64.0781 148.719C64.0625 149.906 64.8984 150.594 66.0156 150.594C67.0938 150.594 67.9297 149.906 67.9375 148.719C67.9297 147.562 67.0938 146.867 66.0156 146.875C64.8984 146.867 64.0625 147.562 64.0781 148.719ZM64.2812 158.188V153.422H66.2969V156.594H74.1875V158.188H64.2812ZM83.8594 148.516C83.8594 150.656 84.6172 152.836 86.6719 153.906L85.5625 155.375C84.2812 154.719 83.4297 153.57 82.9297 152.188C82.4375 153.688 81.5859 154.969 80.2969 155.703L79.1719 154.203C81.1953 153.047 81.9688 150.727 81.9844 148.516V148.25H79.625V146.625H81.9844V144.703H83.8438V146.625H86.1875V148.25H83.8594V148.516ZM86.8281 157.781V144.422H88.7188V149.688H89.9219V144.219H91.8281V158.438H89.9219V151.312H88.7188V157.781H86.8281ZM100.922 145.203V146.797H96.0312V147.906H100.5V149.453H96.0312V150.594C98.5391 150.594 100.125 150.562 101.922 150.266L102.125 151.828C100.102 152.156 98.2891 152.203 95.25 152.188H94.0312V145.203H100.922ZM95.4219 155.734C95.4219 154.031 97.2734 153.039 100.312 153.031C103.32 153.039 105.219 154.031 105.234 155.734C105.219 157.453 103.32 158.445 100.312 158.438C97.2734 158.445 95.4219 157.453 95.4219 155.734ZM97.4062 155.734C97.4062 156.523 98.4062 156.922 100.312 156.922C102.195 156.922 103.234 156.523 103.234 155.734C103.234 154.977 102.195 154.57 100.312 154.578C98.4062 154.57 97.4062 154.977 97.4062 155.734ZM103.156 152.844V144.234H105.156V152.844H103.156Z" fill="white"/>
<path d="M32.4062 396.234V406.609H30.4219V401.516H28.0938V399.906H30.4219V396.234H32.4062ZM20.3438 403.406C22.6953 402.672 23.7578 400.82 23.7656 399V398.781H20.9062V397.188H28.625V398.781H25.7969V399.016C25.7891 400.664 26.8047 402.422 29.0625 403.156L28.0781 404.734C26.5078 404.219 25.4219 403.188 24.8047 401.914C24.1719 403.328 23.0391 404.477 21.3594 405.031L20.3438 403.406ZM22.9688 410.188V405.703H24.9688V408.594H32.75V410.188H22.9688ZM38.6875 400.547C38.6875 402.703 39.4609 404.867 41.4844 405.953L40.3906 407.406C39.1094 406.75 38.2578 405.602 37.7578 404.219C37.2656 405.727 36.4141 407 35.125 407.75L33.9844 406.25C36.0391 405.062 36.7969 402.742 36.8125 400.547V400.219H34.5156V398.625H36.8125V396.703H38.6719V398.625H40.9219V400.219H38.6875V400.547ZM40.0938 403.234V401.609H41.7656V396.453H43.6406V409.781H41.7656V403.234H40.0938ZM44.6562 410.438V396.219H46.5469V410.438H44.6562ZM56.2031 400.516C56.2031 402.656 56.9609 404.836 59.0156 405.906L57.9062 407.375C56.625 406.719 55.7734 405.57 55.2734 404.188C54.7812 405.688 53.9297 406.969 52.6406 407.703L51.5156 406.203C53.5391 405.047 54.3125 402.727 54.3281 400.516V400.25H51.9688V398.625H54.3281V396.703H56.1875V398.625H58.5312V400.25H56.2031V400.516ZM59.1719 409.781V396.422H61.0625V401.688H62.2656V396.219H64.1719V410.438H62.2656V403.312H61.0625V409.781H59.1719ZM73.2656 397.203V398.797H68.375V399.906H72.8438V401.453H68.375V402.594C70.8828 402.594 72.4688 402.562 74.2656 402.266L74.4688 403.828C72.4453 404.156 70.6328 404.203 67.5938 404.188H66.375V397.203H73.2656ZM67.7656 407.734C67.7656 406.031 69.6172 405.039 72.6562 405.031C75.6641 405.039 77.5625 406.031 77.5781 407.734C77.5625 409.453 75.6641 410.445 72.6562 410.438C69.6172 410.445 67.7656 409.453 67.7656 407.734ZM69.75 407.734C69.75 408.523 70.75 408.922 72.6562 408.922C74.5391 408.922 75.5781 408.523 75.5781 407.734C75.5781 406.977 74.5391 406.57 72.6562 406.578C70.75 406.57 69.75 406.977 69.75 407.734ZM75.5 404.844V396.234H77.5V404.844H75.5ZM86.0469 404.922C89.0078 404.922 90.8359 405.938 90.8438 407.672C90.8359 409.43 89.0078 410.453 86.0469 410.453C83.0391 410.453 81.1641 409.43 81.1719 407.672C81.1641 405.938 83.0391 404.922 86.0469 404.922ZM79.8438 403.797V397.109H81.8281V398.906H84.7344V397.109H86.7344V403.797H79.8438ZM81.8281 402.219H84.7344V400.453H81.8281V402.219ZM83.1719 407.672C83.1562 408.484 84.1797 408.906 86.0469 408.906C87.8906 408.906 88.875 408.484 88.875 407.672C88.875 406.859 87.8906 406.477 86.0469 406.469C84.1797 406.477 83.1562 406.859 83.1719 407.672ZM88.7031 404.609V396.219H90.7031V399.516H92.625V401.188H90.7031V404.609H88.7031Z" fill="white"/>
<rect x="20" y="182" width="353" height="44" rx="20" fill="#424242"/>
<rect x="20" y="435" width="353" height="44" rx="20" fill="#424242"/>
<rect x="20" y="246" width="353" height="44" rx="20" fill="#424242"/>
<rect x="20" y="499" width="353" height="44" rx="20" fill="#424242"/>
<rect x="20" y="626" width="353" height="44" rx="20" fill="#424242"/>
<rect x="20" y="309" width="353" height="44" rx="20" fill="#424242"/>
<rect x="20" y="562" width="353" height="44" rx="20" fill="#424242"/>
<rect x="20" y="689" width="353" height="44" rx="20" fill="#424242"/>
<path d="M41 200L41 198C41 195.239 43.2386 193 46 193V193C48.7614 193 51 195.239 51 198L51 200" stroke="#929292" stroke-width="2"/>
<rect x="37" y="201" width="18" height="12" rx="4" stroke="#929292" stroke-width="2"/>
<path d="M41 453L41 451C41 448.239 43.2386 446 46 446V446C48.7614 446 51 448.239 51 451L51 453" stroke="#929292" stroke-width="2"/>
<rect x="37" y="454" width="18" height="12" rx="4" stroke="#929292" stroke-width="2"/>
<path d="M41 327L41 325C41 322.239 43.2386 320 46 320V320C48.7614 320 51 322.239 51 325L51 327" stroke="#929292" stroke-width="2"/>
<rect x="37" y="328" width="18" height="12" rx="4" stroke="#929292" stroke-width="2"/>
<path d="M41 580L41 578C41 575.239 43.2386 573 46 573V573C48.7614 573 51 575.239 51 578L51 580" stroke="#929292" stroke-width="2"/>
<rect x="37" y="581" width="18" height="12" rx="4" stroke="#929292" stroke-width="2"/>
<path d="M41 707L41 705C41 702.239 43.2386 700 46 700V700C48.7614 700 51 702.239 51 705L51 707" stroke="#929292" stroke-width="2"/>
<rect x="37" y="708" width="18" height="12" rx="4" stroke="#929292" stroke-width="2"/>
<path d="M75.7734 198.828C76.8945 198.835 77.8105 199.471 78.3506 200.578H81.3789V197.912H82.6641V210.189H81.3789V205.486H78.4395C77.9131 206.717 76.9561 207.435 75.7734 207.428C73.9482 207.435 72.6562 205.767 72.6699 203.121C72.6562 200.503 73.9482 198.835 75.7734 198.828ZM73.9004 203.121C73.9072 205.069 74.666 206.266 75.7734 206.266C76.8809 206.266 77.6396 205.069 77.6465 203.121C77.6396 201.2 76.8809 199.997 75.7734 199.99C74.666 199.997 73.9072 201.2 73.9004 203.121ZM78.7197 201.645C78.8154 202.096 78.877 202.588 78.877 203.121C78.877 203.586 78.8359 204.017 78.7539 204.42H81.3789V201.645H78.7197ZM94.7363 197.912V210.162H93.4238V197.912H94.7363ZM84.6738 206.881C87.9277 205.329 89.5205 203.121 89.7734 200.264H85.2617V199.225H91.0859C91.0859 202.813 89.5615 205.917 85.3574 207.934L84.6738 206.881ZM107.861 207.605V208.699H96.6504V207.605H101.586V205.459H98.0176V201.562H105.209V199.84H97.9902V198.773H106.494V202.602H99.3027V204.393H106.781V205.459H102.871V207.605H107.861ZM123.352 202.93V203.969H112.168V202.93H123.352ZM113.508 205.938V204.939H121.93V207.906H114.793V209H122.271V210.025H113.521V206.949H120.645V205.938H113.508ZM113.631 202.041V198.268H121.902V199.32H114.93V201.002H122.025V202.041H113.631ZM127.59 198.828C129.258 198.835 130.468 200.243 130.666 202.506H133.195V197.912H134.48V210.189H133.195V203.559H130.68C130.536 205.951 129.299 207.435 127.59 207.428C125.765 207.435 124.473 205.767 124.486 203.121C124.473 200.503 125.765 198.835 127.59 198.828ZM125.717 203.121C125.724 205.069 126.482 206.266 127.59 206.266C128.697 206.266 129.456 205.069 129.463 203.121C129.456 201.2 128.697 199.997 127.59 199.99C126.482 199.997 125.724 201.2 125.717 203.121ZM141.945 198.65C144.563 198.657 146.471 199.949 146.471 201.904C146.471 203.736 144.871 204.96 142.588 205.145V207.551H147.578V208.631H136.367V207.551H141.303V205.145C139.033 204.96 137.427 203.736 137.434 201.904C137.427 199.949 139.341 198.657 141.945 198.65ZM138.691 201.904C138.691 203.278 140.059 204.133 141.945 204.146C143.846 204.133 145.206 203.278 145.213 201.904C145.206 200.578 143.846 199.703 141.945 199.717C140.059 199.703 138.691 200.578 138.691 201.904ZM152.199 201.262C152.199 203.217 153.02 205.302 154.66 206.307L153.936 207.305C152.787 206.614 152.015 205.391 151.591 203.976C151.146 205.527 150.299 206.854 149.109 207.578L148.303 206.607C150.032 205.568 150.948 203.401 150.941 201.316V199.033H152.199V201.262ZM153.334 203.299V202.219H155.234V198.145H156.465V209.561H155.234V203.299H153.334ZM157.764 210.162V197.912H159.008V210.162H157.764ZM171.777 207.551V208.631H160.566V207.551H163.246V204.352C162.241 203.798 161.626 202.923 161.633 201.822C161.626 199.895 163.52 198.63 166.145 198.623C168.776 198.63 170.67 199.895 170.67 201.822C170.67 202.902 170.082 203.771 169.098 204.324V207.551H171.777ZM162.891 201.822C162.891 203.135 164.224 203.989 166.145 203.996C168.052 203.989 169.405 203.135 169.412 201.822C169.405 200.503 168.052 199.662 166.145 199.662C164.224 199.662 162.891 200.503 162.891 201.822ZM164.531 207.551H167.785V204.83C167.286 204.946 166.732 205.008 166.145 205.008C165.57 205.008 165.023 204.946 164.531 204.83V207.551ZM173.527 204.83C173.985 204.324 174.539 204.064 175.154 204.064C176.221 204.064 177.164 204.844 178.203 204.844C178.825 204.844 179.372 204.563 179.803 204.023V205.336C179.345 205.842 178.791 206.102 178.176 206.102C177.109 206.102 176.159 205.322 175.113 205.322C174.505 205.322 173.958 205.603 173.527 206.143V204.83ZM187.309 209V210.23H181.02V209H187.309ZM188.512 204.83C188.97 204.324 189.523 204.064 190.139 204.064C191.205 204.064 192.148 204.844 193.188 204.844C193.81 204.844 194.356 204.563 194.787 204.023V205.336C194.329 205.842 193.775 206.102 193.16 206.102C192.094 206.102 191.144 205.322 190.098 205.322C189.489 205.322 188.942 205.603 188.512 206.143V204.83Z" fill="white"/>
<path d="M75.7734 451.828C76.8945 451.835 77.8105 452.471 78.3506 453.578H81.3789V450.912H82.6641V463.189H81.3789V458.486H78.4395C77.9131 459.717 76.9561 460.435 75.7734 460.428C73.9482 460.435 72.6562 458.767 72.6699 456.121C72.6562 453.503 73.9482 451.835 75.7734 451.828ZM73.9004 456.121C73.9072 458.069 74.666 459.266 75.7734 459.266C76.8809 459.266 77.6396 458.069 77.6465 456.121C77.6396 454.2 76.8809 452.997 75.7734 452.99C74.666 452.997 73.9072 454.2 73.9004 456.121ZM78.7197 454.645C78.8154 455.096 78.877 455.588 78.877 456.121C78.877 456.586 78.8359 457.017 78.7539 457.42H81.3789V454.645H78.7197ZM94.7363 450.912V463.162H93.4238V450.912H94.7363ZM84.6738 459.881C87.9277 458.329 89.5205 456.121 89.7734 453.264H85.2617V452.225H91.0859C91.0859 455.813 89.5615 458.917 85.3574 460.934L84.6738 459.881ZM107.861 460.605V461.699H96.6504V460.605H101.586V458.459H98.0176V454.562H105.209V452.84H97.9902V451.773H106.494V455.602H99.3027V457.393H106.781V458.459H102.871V460.605H107.861ZM123.352 455.93V456.969H112.168V455.93H123.352ZM113.508 458.938V457.939H121.93V460.906H114.793V462H122.271V463.025H113.521V459.949H120.645V458.938H113.508ZM113.631 455.041V451.268H121.902V452.32H114.93V454.002H122.025V455.041H113.631ZM127.59 451.828C129.258 451.835 130.468 453.243 130.666 455.506H133.195V450.912H134.48V463.189H133.195V456.559H130.68C130.536 458.951 129.299 460.435 127.59 460.428C125.765 460.435 124.473 458.767 124.486 456.121C124.473 453.503 125.765 451.835 127.59 451.828ZM125.717 456.121C125.724 458.069 126.482 459.266 127.59 459.266C128.697 459.266 129.456 458.069 129.463 456.121C129.456 454.2 128.697 452.997 127.59 452.99C126.482 452.997 125.724 454.2 125.717 456.121ZM141.945 451.65C144.563 451.657 146.471 452.949 146.471 454.904C146.471 456.736 144.871 457.96 142.588 458.145V460.551H147.578V461.631H136.367V460.551H141.303V458.145C139.033 457.96 137.427 456.736 137.434 454.904C137.427 452.949 139.341 451.657 141.945 451.65ZM138.691 454.904C138.691 456.278 140.059 457.133 141.945 457.146C143.846 457.133 145.206 456.278 145.213 454.904C145.206 453.578 143.846 452.703 141.945 452.717C140.059 452.703 138.691 453.578 138.691 454.904ZM152.199 454.262C152.199 456.217 153.02 458.302 154.66 459.307L153.936 460.305C152.787 459.614 152.015 458.391 151.591 456.976C151.146 458.527 150.299 459.854 149.109 460.578L148.303 459.607C150.032 458.568 150.948 456.401 150.941 454.316V452.033H152.199V454.262ZM153.334 456.299V455.219H155.234V451.145H156.465V462.561H155.234V456.299H153.334ZM157.764 463.162V450.912H159.008V463.162H157.764ZM171.777 460.551V461.631H160.566V460.551H163.246V457.352C162.241 456.798 161.626 455.923 161.633 454.822C161.626 452.895 163.52 451.63 166.145 451.623C168.776 451.63 170.67 452.895 170.67 454.822C170.67 455.902 170.082 456.771 169.098 457.324V460.551H171.777ZM162.891 454.822C162.891 456.135 164.224 456.989 166.145 456.996C168.052 456.989 169.405 456.135 169.412 454.822C169.405 453.503 168.052 452.662 166.145 452.662C164.224 452.662 162.891 453.503 162.891 454.822ZM164.531 460.551H167.785V457.83C167.286 457.946 166.732 458.008 166.145 458.008C165.57 458.008 165.023 457.946 164.531 457.83V460.551ZM173.527 457.83C173.985 457.324 174.539 457.064 175.154 457.064C176.221 457.064 177.164 457.844 178.203 457.844C178.825 457.844 179.372 457.563 179.803 457.023V458.336C179.345 458.842 178.791 459.102 178.176 459.102C177.109 459.102 176.159 458.322 175.113 458.322C174.505 458.322 173.958 458.603 173.527 459.143V457.83ZM187.309 462V463.23H181.02V462H187.309ZM188.512 457.83C188.97 457.324 189.523 457.064 190.139 457.064C191.205 457.064 192.148 457.844 193.188 457.844C193.81 457.844 194.356 457.563 194.787 457.023V458.336C194.329 458.842 193.775 459.102 193.16 459.102C192.094 459.102 191.144 458.322 190.098 458.322C189.489 458.322 188.942 458.603 188.512 459.143V457.83Z" fill="white"/>
<path d="M74.9668 273L72.2188 263.102H73.8047L75.7324 270.758H75.8145L77.8242 263.102H79.3828L81.3926 270.758H81.4746L83.4023 263.102H84.9883L82.2402 273H80.7227L78.6445 265.604H78.5625L76.4844 273H74.9668ZM94.3125 268.051C94.3125 271.216 92.4121 273.137 89.8555 273.137C87.2783 273.137 85.3848 271.209 85.3848 268.051C85.3848 264.886 87.2783 262.965 89.8555 262.965C92.4121 262.965 94.3125 264.886 94.3125 268.051ZM86.875 268.051C86.8818 270.457 88.1465 271.763 89.8555 271.756C91.5508 271.763 92.8154 270.457 92.8223 268.051C92.8154 265.645 91.5508 264.339 89.8555 264.346C88.1465 264.339 86.8818 265.645 86.875 268.051ZM103.992 263.102V273H102.611L97.5938 265.768H97.5117V273H96.0078V263.102H97.4023L102.42 270.348H102.516V263.102H103.992ZM106.016 273V263.102H107.52V271.701H111.99V273H106.016ZM115.039 263.102V273H113.535V263.102H115.039ZM117.049 263.102H118.881L122.012 270.771H122.135L125.266 263.102H127.098V273H125.662V265.85H125.566L122.668 272.986H121.479L118.566 265.836H118.484V273H117.049V263.102Z" fill="white"/>
<path d="M75.7324 515.828C77.5645 515.835 78.8701 517.503 78.877 520.121C78.8701 522.767 77.5645 524.435 75.7324 524.428C73.9004 524.435 72.5947 522.767 72.6016 520.121C72.5947 517.503 73.9004 515.835 75.7324 515.828ZM73.8457 520.121C73.8389 522.069 74.6182 523.266 75.7324 523.266C76.8672 523.266 77.6328 522.069 77.6328 520.121C77.6328 518.2 76.8672 516.997 75.7324 516.99C74.6182 516.997 73.8389 518.2 73.8457 520.121ZM80.6953 527.162V514.912H81.9941V519.711H83.9629V520.805H81.9941V527.162H80.6953ZM95.748 521.939V522.992H90.7441V527.148H89.4727V522.992H84.5371V521.939H95.748ZM85.9453 520.381V515.568H94.3398V520.381H85.9453ZM87.2168 519.369H93.041V516.607H87.2168V519.369ZM108.094 519.725V520.791H106.193V527.148H104.895V514.912H106.193V519.725H108.094ZM97.1152 524.072V516.102H98.4004V522.992C100.109 522.985 101.894 522.842 103.842 522.445L103.992 523.539C101.894 523.956 99.9658 524.079 98.127 524.072H97.1152ZM123.352 519.93V520.969H112.168V519.93H123.352ZM113.508 522.938V521.939H121.93V524.906H114.793V526H122.271V527.025H113.521V523.949H120.645V522.938H113.508ZM113.631 519.041V515.268H121.902V516.32H114.93V518.002H122.025V519.041H113.631ZM127.59 515.828C129.258 515.835 130.468 517.243 130.666 519.506H133.195V514.912H134.48V527.189H133.195V520.559H130.68C130.536 522.951 129.299 524.435 127.59 524.428C125.765 524.435 124.473 522.767 124.486 520.121C124.473 517.503 125.765 515.835 127.59 515.828ZM125.717 520.121C125.724 522.069 126.482 523.266 127.59 523.266C128.697 523.266 129.456 522.069 129.463 520.121C129.456 518.2 128.697 516.997 127.59 516.99C126.482 516.997 125.724 518.2 125.717 520.121ZM141.945 515.65C144.563 515.657 146.471 516.949 146.471 518.904C146.471 520.736 144.871 521.96 142.588 522.145V524.551H147.578V525.631H136.367V524.551H141.303V522.145C139.033 521.96 137.427 520.736 137.434 518.904C137.427 516.949 139.341 515.657 141.945 515.65ZM138.691 518.904C138.691 520.278 140.059 521.133 141.945 521.146C143.846 521.133 145.206 520.278 145.213 518.904C145.206 517.578 143.846 516.703 141.945 516.717C140.059 516.703 138.691 517.578 138.691 518.904ZM152.199 518.262C152.199 520.217 153.02 522.302 154.66 523.307L153.936 524.305C152.787 523.614 152.015 522.391 151.591 520.976C151.146 522.527 150.299 523.854 149.109 524.578L148.303 523.607C150.032 522.568 150.948 520.401 150.941 518.316V516.033H152.199V518.262ZM153.334 520.299V519.219H155.234V515.145H156.465V526.561H155.234V520.299H153.334ZM157.764 527.162V514.912H159.008V527.162H157.764ZM171.777 524.551V525.631H160.566V524.551H163.246V521.352C162.241 520.798 161.626 519.923 161.633 518.822C161.626 516.895 163.52 515.63 166.145 515.623C168.776 515.63 170.67 516.895 170.67 518.822C170.67 519.902 170.082 520.771 169.098 521.324V524.551H171.777ZM162.891 518.822C162.891 520.135 164.224 520.989 166.145 520.996C168.052 520.989 169.405 520.135 169.412 518.822C169.405 517.503 168.052 516.662 166.145 516.662C164.224 516.662 162.891 517.503 162.891 518.822ZM164.531 524.551H167.785V521.83C167.286 521.946 166.732 522.008 166.145 522.008C165.57 522.008 165.023 521.946 164.531 521.83V524.551ZM172.215 526.98H186.215V512.98H172.215V526.98Z" fill="white"/>
<path d="M75.7324 642.828C77.5645 642.835 78.8701 644.503 78.877 647.121C78.8701 649.767 77.5645 651.435 75.7324 651.428C73.9004 651.435 72.5947 649.767 72.6016 647.121C72.5947 644.503 73.9004 642.835 75.7324 642.828ZM73.8457 647.121C73.8389 649.069 74.6182 650.266 75.7324 650.266C76.8672 650.266 77.6328 649.069 77.6328 647.121C77.6328 645.2 76.8672 643.997 75.7324 643.99C74.6182 643.997 73.8389 645.2 73.8457 647.121ZM80.6953 654.162V641.912H81.9941V646.711H83.9629V647.805H81.9941V654.162H80.6953ZM95.748 648.939V649.992H90.7441V654.148H89.4727V649.992H84.5371V648.939H95.748ZM85.9453 647.381V642.568H94.3398V647.381H85.9453ZM87.2168 646.369H93.041V643.607H87.2168V646.369ZM108.094 646.725V647.791H106.193V654.148H104.895V641.912H106.193V646.725H108.094ZM97.1152 651.072V643.102H98.4004V649.992C100.109 649.985 101.894 649.842 103.842 649.445L103.992 650.539C101.894 650.956 99.9658 651.079 98.127 651.072H97.1152ZM123.352 646.93V647.969H112.168V646.93H123.352ZM113.508 649.938V648.939H121.93V651.906H114.793V653H122.271V654.025H113.521V650.949H120.645V649.938H113.508ZM113.631 646.041V642.268H121.902V643.32H114.93V645.002H122.025V646.041H113.631ZM127.59 642.828C129.258 642.835 130.468 644.243 130.666 646.506H133.195V641.912H134.48V654.189H133.195V647.559H130.68C130.536 649.951 129.299 651.435 127.59 651.428C125.765 651.435 124.473 649.767 124.486 647.121C124.473 644.503 125.765 642.835 127.59 642.828ZM125.717 647.121C125.724 649.069 126.482 650.266 127.59 650.266C128.697 650.266 129.456 649.069 129.463 647.121C129.456 645.2 128.697 643.997 127.59 643.99C126.482 643.997 125.724 645.2 125.717 647.121ZM141.945 642.65C144.563 642.657 146.471 643.949 146.471 645.904C146.471 647.736 144.871 648.96 142.588 649.145V651.551H147.578V652.631H136.367V651.551H141.303V649.145C139.033 648.96 137.427 647.736 137.434 645.904C137.427 643.949 139.341 642.657 141.945 642.65ZM138.691 645.904C138.691 647.278 140.059 648.133 141.945 648.146C143.846 648.133 145.206 647.278 145.213 645.904C145.206 644.578 143.846 643.703 141.945 643.717C140.059 643.703 138.691 644.578 138.691 645.904ZM152.199 645.262C152.199 647.217 153.02 649.302 154.66 650.307L153.936 651.305C152.787 650.614 152.015 649.391 151.591 647.976C151.146 649.527 150.299 650.854 149.109 651.578L148.303 650.607C150.032 649.568 150.948 647.401 150.941 645.316V643.033H152.199V645.262ZM153.334 647.299V646.219H155.234V642.145H156.465V653.561H155.234V647.299H153.334ZM157.764 654.162V641.912H159.008V654.162H157.764ZM171.777 651.551V652.631H160.566V651.551H163.246V648.352C162.241 647.798 161.626 646.923 161.633 645.822C161.626 643.895 163.52 642.63 166.145 642.623C168.776 642.63 170.67 643.895 170.67 645.822C170.67 646.902 170.082 647.771 169.098 648.324V651.551H171.777ZM162.891 645.822C162.891 647.135 164.224 647.989 166.145 647.996C168.052 647.989 169.405 647.135 169.412 645.822C169.405 644.503 168.052 643.662 166.145 643.662C164.224 643.662 162.891 644.503 162.891 645.822ZM164.531 651.551H167.785V648.83C167.286 648.946 166.732 649.008 166.145 649.008C165.57 649.008 165.023 648.946 164.531 648.83V651.551ZM172.215 653.98H186.215V639.98H172.215V653.98Z" fill="white"/>
<path d="M76.1152 328.658C76.1152 330.565 77.0039 332.534 78.7129 333.43L77.9746 334.4C76.7852 333.771 75.958 332.603 75.5137 331.222C75.083 332.698 74.2627 333.977 73.0801 334.66L72.3145 333.703C74.0029 332.719 74.8848 330.634 74.8984 328.658V328.207H72.6289V327.127H74.8984V325.35H76.1152V327.127H78.3438V328.207H76.1152V328.658ZM79.0957 336.561V325.145H80.3262V329.779H81.7891V324.912H83.0332V337.162H81.7891V330.873H80.3262V336.561H79.0957ZM91.1406 325.801V326.84H86.5605V328.193H90.7988V329.219H86.5605V330.613C89.0078 330.627 90.4365 330.586 92.0977 330.299L92.2344 331.352C90.4639 331.639 88.9395 331.687 86.2598 331.68H85.248V325.801H91.1406ZM86.4375 334.879C86.4375 333.45 88.0029 332.623 90.6074 332.623C93.1709 332.623 94.7705 333.45 94.7773 334.879C94.7705 336.321 93.1709 337.142 90.6074 337.135C88.0029 337.142 86.4375 336.321 86.4375 334.879ZM87.7363 334.879C87.7295 335.679 88.7822 336.13 90.6074 336.137C92.3984 336.13 93.4854 335.679 93.4785 334.879C93.4854 334.1 92.3984 333.642 90.6074 333.648C88.7822 333.642 87.7295 334.1 87.7363 334.879ZM93.4102 332.459V324.926H94.709V332.459H93.4102ZM102.324 332.541C104.847 332.541 106.385 333.389 106.385 334.838C106.385 336.308 104.847 337.155 102.324 337.162C99.7744 337.155 98.209 336.308 98.209 334.838C98.209 333.389 99.7744 332.541 102.324 332.541ZM97.1289 331.365V325.678H98.4004V327.441H101.613V325.678H102.898V331.365H97.1289ZM98.4004 330.326H101.613V328.467H98.4004V330.326ZM99.5078 334.838C99.501 335.658 100.554 336.123 102.324 336.123C104.081 336.123 105.12 335.658 105.113 334.838C105.12 334.024 104.081 333.566 102.324 333.566C100.554 333.566 99.501 334.024 99.5078 334.838ZM104.977 332.227V324.912H106.275V327.906H108.053V329.014H106.275V332.227H104.977ZM122.312 324.912V337.189H121.014V324.912H122.312ZM112.592 330.121C112.592 327.503 113.911 325.835 115.764 325.828C117.582 325.835 118.922 327.503 118.922 330.121C118.922 332.767 117.582 334.435 115.764 334.428C113.911 334.435 112.592 332.767 112.592 330.121ZM113.85 330.121C113.843 332.069 114.622 333.266 115.764 333.266C116.885 333.266 117.664 332.069 117.664 330.121C117.664 328.2 116.885 326.997 115.764 326.99C114.622 326.997 113.843 328.2 113.85 330.121ZM135.465 331.188V332.227H124.254V331.188H135.465ZM125.662 326.211V325.186H134.057V328.207H126.975V329.26H134.303V330.258H125.689V327.25H132.758V326.211H125.662ZM125.744 337.012V333.225H134.07V337.012H125.744ZM127.029 335.959H132.785V334.264H127.029V335.959Z" fill="white"/>
<path d="M76.1152 581.658C76.1152 583.565 77.0039 585.534 78.7129 586.43L77.9746 587.4C76.7852 586.771 75.958 585.603 75.5137 584.222C75.083 585.698 74.2627 586.977 73.0801 587.66L72.3145 586.703C74.0029 585.719 74.8848 583.634 74.8984 581.658V581.207H72.6289V580.127H74.8984V578.35H76.1152V580.127H78.3438V581.207H76.1152V581.658ZM79.0957 589.561V578.145H80.3262V582.779H81.7891V577.912H83.0332V590.162H81.7891V583.873H80.3262V589.561H79.0957ZM91.1406 578.801V579.84H86.5605V581.193H90.7988V582.219H86.5605V583.613C89.0078 583.627 90.4365 583.586 92.0977 583.299L92.2344 584.352C90.4639 584.639 88.9395 584.687 86.2598 584.68H85.248V578.801H91.1406ZM86.4375 587.879C86.4375 586.45 88.0029 585.623 90.6074 585.623C93.1709 585.623 94.7705 586.45 94.7773 587.879C94.7705 589.321 93.1709 590.142 90.6074 590.135C88.0029 590.142 86.4375 589.321 86.4375 587.879ZM87.7363 587.879C87.7295 588.679 88.7822 589.13 90.6074 589.137C92.3984 589.13 93.4854 588.679 93.4785 587.879C93.4854 587.1 92.3984 586.642 90.6074 586.648C88.7822 586.642 87.7295 587.1 87.7363 587.879ZM93.4102 585.459V577.926H94.709V585.459H93.4102ZM102.324 585.541C104.847 585.541 106.385 586.389 106.385 587.838C106.385 589.308 104.847 590.155 102.324 590.162C99.7744 590.155 98.209 589.308 98.209 587.838C98.209 586.389 99.7744 585.541 102.324 585.541ZM97.1289 584.365V578.678H98.4004V580.441H101.613V578.678H102.898V584.365H97.1289ZM98.4004 583.326H101.613V581.467H98.4004V583.326ZM99.5078 587.838C99.501 588.658 100.554 589.123 102.324 589.123C104.081 589.123 105.12 588.658 105.113 587.838C105.12 587.024 104.081 586.566 102.324 586.566C100.554 586.566 99.501 587.024 99.5078 587.838ZM104.977 585.227V577.912H106.275V580.906H108.053V582.014H106.275V585.227H104.977ZM122.312 577.912V590.189H121.014V577.912H122.312ZM112.592 583.121C112.592 580.503 113.911 578.835 115.764 578.828C117.582 578.835 118.922 580.503 118.922 583.121C118.922 585.767 117.582 587.435 115.764 587.428C113.911 587.435 112.592 585.767 112.592 583.121ZM113.85 583.121C113.843 585.069 114.622 586.266 115.764 586.266C116.885 586.266 117.664 585.069 117.664 583.121C117.664 581.2 116.885 579.997 115.764 579.99C114.622 579.997 113.843 581.2 113.85 583.121ZM135.465 584.188V585.227H124.254V584.188H135.465ZM125.662 579.211V578.186H134.057V581.207H126.975V582.26H134.303V583.258H125.689V580.25H132.758V579.211H125.662ZM125.744 590.012V586.225H134.07V590.012H125.744ZM127.029 588.959H132.785V587.264H127.029V588.959Z" fill="white"/>
<path d="M76.1152 708.658C76.1152 710.565 77.0039 712.534 78.7129 713.43L77.9746 714.4C76.7852 713.771 75.958 712.603 75.5137 711.222C75.083 712.698 74.2627 713.977 73.0801 714.66L72.3145 713.703C74.0029 712.719 74.8848 710.634 74.8984 708.658V708.207H72.6289V707.127H74.8984V705.35H76.1152V707.127H78.3438V708.207H76.1152V708.658ZM79.0957 716.561V705.145H80.3262V709.779H81.7891V704.912H83.0332V717.162H81.7891V710.873H80.3262V716.561H79.0957ZM91.1406 705.801V706.84H86.5605V708.193H90.7988V709.219H86.5605V710.613C89.0078 710.627 90.4365 710.586 92.0977 710.299L92.2344 711.352C90.4639 711.639 88.9395 711.687 86.2598 711.68H85.248V705.801H91.1406ZM86.4375 714.879C86.4375 713.45 88.0029 712.623 90.6074 712.623C93.1709 712.623 94.7705 713.45 94.7773 714.879C94.7705 716.321 93.1709 717.142 90.6074 717.135C88.0029 717.142 86.4375 716.321 86.4375 714.879ZM87.7363 714.879C87.7295 715.679 88.7822 716.13 90.6074 716.137C92.3984 716.13 93.4854 715.679 93.4785 714.879C93.4854 714.1 92.3984 713.642 90.6074 713.648C88.7822 713.642 87.7295 714.1 87.7363 714.879ZM93.4102 712.459V704.926H94.709V712.459H93.4102ZM102.324 712.541C104.847 712.541 106.385 713.389 106.385 714.838C106.385 716.308 104.847 717.155 102.324 717.162C99.7744 717.155 98.209 716.308 98.209 714.838C98.209 713.389 99.7744 712.541 102.324 712.541ZM97.1289 711.365V705.678H98.4004V707.441H101.613V705.678H102.898V711.365H97.1289ZM98.4004 710.326H101.613V708.467H98.4004V710.326ZM99.5078 714.838C99.501 715.658 100.554 716.123 102.324 716.123C104.081 716.123 105.12 715.658 105.113 714.838C105.12 714.024 104.081 713.566 102.324 713.566C100.554 713.566 99.501 714.024 99.5078 714.838ZM104.977 712.227V704.912H106.275V707.906H108.053V709.014H106.275V712.227H104.977ZM122.312 704.912V717.189H121.014V704.912H122.312ZM112.592 710.121C112.592 707.503 113.911 705.835 115.764 705.828C117.582 705.835 118.922 707.503 118.922 710.121C118.922 712.767 117.582 714.435 115.764 714.428C113.911 714.435 112.592 712.767 112.592 710.121ZM113.85 710.121C113.843 712.069 114.622 713.266 115.764 713.266C116.885 713.266 117.664 712.069 117.664 710.121C117.664 708.2 116.885 706.997 115.764 706.99C114.622 706.997 113.843 708.2 113.85 710.121ZM135.465 711.188V712.227H124.254V711.188H135.465ZM125.662 706.211V705.186H134.057V708.207H126.975V709.26H134.303V710.258H125.689V707.25H132.758V706.211H125.662ZM125.744 717.012V713.225H134.07V717.012H125.744ZM127.029 715.959H132.785V714.264H127.029V715.959Z" fill="white"/>
<path d="M334.973 199.516V208H333.672V200.805H333.625L331.598 202.129V200.898L333.707 199.516H334.973ZM343.305 199.117L340.574 209.277H339.461L342.191 199.117H343.305ZM350.16 208.117C348.402 208.117 347.154 207.174 347.102 205.785H348.414C348.461 206.529 349.199 207.004 350.148 207.004C351.174 207.004 351.918 206.447 351.918 205.621C351.918 204.783 351.221 204.186 350.008 204.18H349.281V203.125H350.008C350.975 203.131 351.648 202.592 351.648 201.777C351.648 201.004 351.068 200.477 350.172 200.477C349.322 200.477 348.561 200.951 348.531 201.719H347.289C347.324 200.336 348.602 199.398 350.184 199.398C351.854 199.398 352.902 200.453 352.891 201.707C352.902 202.674 352.305 203.365 351.391 203.594V203.652C352.551 203.816 353.225 204.596 353.219 205.668C353.225 207.08 351.918 208.117 350.16 208.117Z" fill="#939393"/>
<path d="M334.973 452.516V461H333.672V453.805H333.625L331.598 455.129V453.898L333.707 452.516H334.973ZM343.305 452.117L340.574 462.277H339.461L342.191 452.117H343.305ZM350.16 461.117C348.402 461.117 347.154 460.174 347.102 458.785H348.414C348.461 459.529 349.199 460.004 350.148 460.004C351.174 460.004 351.918 459.447 351.918 458.621C351.918 457.783 351.221 457.186 350.008 457.18H349.281V456.125H350.008C350.975 456.131 351.648 455.592 351.648 454.777C351.648 454.004 351.068 453.477 350.172 453.477C349.322 453.477 348.561 453.951 348.531 454.719H347.289C347.324 453.336 348.602 452.398 350.184 452.398C351.854 452.398 352.902 453.453 352.891 454.707C352.902 455.674 352.305 456.365 351.391 456.594V456.652C352.551 456.816 353.225 457.596 353.219 458.668C353.225 460.08 351.918 461.117 350.16 461.117Z" fill="#939393"/>
<path d="M334.973 516.516V525H333.672V517.805H333.625L331.598 519.129V517.898L333.707 516.516H334.973ZM343.305 516.117L340.574 526.277H339.461L342.191 516.117H343.305ZM350.16 525.117C348.402 525.117 347.154 524.174 347.102 522.785H348.414C348.461 523.529 349.199 524.004 350.148 524.004C351.174 524.004 351.918 523.447 351.918 522.621C351.918 521.783 351.221 521.186 350.008 521.18H349.281V520.125H350.008C350.975 520.131 351.648 519.592 351.648 518.777C351.648 518.004 351.068 517.477 350.172 517.477C349.322 517.477 348.561 517.951 348.531 518.719H347.289C347.324 517.336 348.602 516.398 350.184 516.398C351.854 516.398 352.902 517.453 352.891 518.707C352.902 519.674 352.305 520.365 351.391 520.594V520.652C352.551 520.816 353.225 521.596 353.219 522.668C353.225 524.08 351.918 525.117 350.16 525.117Z" fill="#939393"/>
<path d="M334.973 643.516V652H333.672V644.805H333.625L331.598 646.129V644.898L333.707 643.516H334.973ZM343.305 643.117L340.574 653.277H339.461L342.191 643.117H343.305ZM350.16 652.117C348.402 652.117 347.154 651.174 347.102 649.785H348.414C348.461 650.529 349.199 651.004 350.148 651.004C351.174 651.004 351.918 650.447 351.918 649.621C351.918 648.783 351.221 648.186 350.008 648.18H349.281V647.125H350.008C350.975 647.131 351.648 646.592 351.648 645.777C351.648 645.004 351.068 644.477 350.172 644.477C349.322 644.477 348.561 644.951 348.531 645.719H347.289C347.324 644.336 348.602 643.398 350.184 643.398C351.854 643.398 352.902 644.453 352.891 645.707C352.902 646.674 352.305 647.365 351.391 647.594V647.652C352.551 647.816 353.225 648.596 353.219 649.668C353.225 651.08 351.918 652.117 350.16 652.117Z" fill="#939393"/>
<path d="M334.973 326.516V335H333.672V327.805H333.625L331.598 329.129V327.898L333.707 326.516H334.973ZM343.305 326.117L340.574 336.277H339.461L342.191 326.117H343.305ZM350.16 335.117C348.402 335.117 347.154 334.174 347.102 332.785H348.414C348.461 333.529 349.199 334.004 350.148 334.004C351.174 334.004 351.918 333.447 351.918 332.621C351.918 331.783 351.221 331.186 350.008 331.18H349.281V330.125H350.008C350.975 330.131 351.648 329.592 351.648 328.777C351.648 328.004 351.068 327.477 350.172 327.477C349.322 327.477 348.561 327.951 348.531 328.719H347.289C347.324 327.336 348.602 326.398 350.184 326.398C351.854 326.398 352.902 327.453 352.891 328.707C352.902 329.674 352.305 330.365 351.391 330.594V330.652C352.551 330.816 353.225 331.596 353.219 332.668C353.225 334.08 351.918 335.117 350.16 335.117Z" fill="#939393"/>
<path d="M334.973 579.516V588H333.672V580.805H333.625L331.598 582.129V580.898L333.707 579.516H334.973ZM343.305 579.117L340.574 589.277H339.461L342.191 579.117H343.305ZM350.16 588.117C348.402 588.117 347.154 587.174 347.102 585.785H348.414C348.461 586.529 349.199 587.004 350.148 587.004C351.174 587.004 351.918 586.447 351.918 585.621C351.918 584.783 351.221 584.186 350.008 584.18H349.281V583.125H350.008C350.975 583.131 351.648 582.592 351.648 581.777C351.648 581.004 351.068 580.477 350.172 580.477C349.322 580.477 348.561 580.951 348.531 581.719H347.289C347.324 580.336 348.602 579.398 350.184 579.398C351.854 579.398 352.902 580.453 352.891 581.707C352.902 582.674 352.305 583.365 351.391 583.594V583.652C352.551 583.816 353.225 584.596 353.219 585.668C353.225 587.08 351.918 588.117 350.16 588.117Z" fill="#939393"/>
<path d="M334.973 706.516V715H333.672V707.805H333.625L331.598 709.129V707.898L333.707 706.516H334.973ZM343.305 706.117L340.574 716.277H339.461L342.191 706.117H343.305ZM350.16 715.117C348.402 715.117 347.154 714.174 347.102 712.785H348.414C348.461 713.529 349.199 714.004 350.148 714.004C351.174 714.004 351.918 713.447 351.918 712.621C351.918 711.783 351.221 711.186 350.008 711.18H349.281V710.125H350.008C350.975 710.131 351.648 709.592 351.648 708.777C351.648 708.004 351.068 707.477 350.172 707.477C349.322 707.477 348.561 707.951 348.531 708.719H347.289C347.324 707.336 348.602 706.398 350.184 706.398C351.854 706.398 352.902 707.453 352.891 708.707C352.902 709.674 352.305 710.365 351.391 710.594V710.652C352.551 710.816 353.225 711.596 353.219 712.668C353.225 714.08 351.918 715.117 350.16 715.117Z" fill="#939393"/>
<path d="M367 411L373 405L367 399" stroke="white" stroke-width="2" stroke-linecap="round" stroke-linejoin="round"/>
<path d="M367 158L373 152L367 146" stroke="white" stroke-width="2" stroke-linecap="round" stroke-linejoin="round"/>
<path d="M37.755 264.942L36.18 265.767V263.637L38.94 262.1H39.9975V272H37.755V264.942ZM45.8145 272.18C45.4445 272.18 45.1245 272.047 44.8545 271.782C44.5895 271.512 44.457 271.192 44.457 270.822C44.457 270.442 44.5895 270.12 44.8545 269.855C45.1245 269.585 45.4445 269.45 45.8145 269.45C46.1945 269.45 46.517 269.585 46.782 269.855C47.047 270.12 47.1795 270.442 47.1795 270.822C47.1795 271.192 47.047 271.512 46.782 271.782C46.517 272.047 46.1945 272.18 45.8145 272.18ZM45.8145 267.822C45.4445 267.822 45.1245 267.69 44.8545 267.425C44.5895 267.155 44.457 266.835 44.457 266.465C44.457 266.085 44.5895 265.762 44.8545 265.497C45.1245 265.227 45.4445 265.092 45.8145 265.092C46.1945 265.092 46.517 265.227 46.782 265.497C47.047 265.762 47.1795 266.085 47.1795 266.465C47.1795 266.835 47.047 267.155 46.782 267.425C46.517 267.69 46.1945 267.822 45.8145 267.822ZM52.4644 264.942L50.8894 265.767V263.637L53.6494 262.1H54.7069V272H52.4644V264.942Z" fill="#929292"/>
<path d="M45 522V518M50 522V518M55 513H37V529H42V533L46 529H51L55 525V513Z" stroke="#929292" stroke-width="2" stroke-linecap="round" stroke-linejoin="round"/>
<path d="M45 649V645M50 649V645M55 640H37V656H42V660L46 656H51L55 652V640Z" stroke="#929292" stroke-width="2" stroke-linecap="round" stroke-linejoin="round"/>
<rect y="768" width="393" height="83" fill="#3F3F3F"/>
<path d="M40 793L49 786L58 793V804C58 804.53 57.7893 805.039 57.4142 805.414C57.0391 805.789 56.5304 806 56 806H42C41.4696 806 40.9609 805.789 40.5858 805.414C40.2107 805.039 40 804.53 40 804V793Z" stroke="white" stroke-width="2" stroke-linecap="round" stroke-linejoin="round"/>
<path d="M46 806V796H52V806" stroke="white" stroke-width="2" stroke-linecap="round" stroke-linejoin="round"/>
<path d="M127 805V803C127 801.939 126.579 800.922 125.828 800.172C125.078 799.421 124.061 799 123 799H115C113.939 799 112.922 799.421 112.172 800.172C111.421 800.922 111 801.939 111 803V805" stroke="white" stroke-width="2" stroke-linecap="round" stroke-linejoin="round"/>
<path d="M119 795C121.209 795 123 793.209 123 791C123 788.791 121.209 787 119 787C116.791 787 115 788.791 115 791C115 793.209 116.791 795 119 795Z" stroke="white" stroke-width="2" stroke-linecap="round" stroke-linejoin="round"/>
<path d="M133 805V803C132.999 802.114 132.704 801.253 132.161 800.552C131.618 799.852 130.858 799.352 130 799.13" stroke="white" stroke-width="2" stroke-linecap="round" stroke-linejoin="round"/>
<path d="M126 787.13C126.86 787.35 127.623 787.851 128.168 788.552C128.712 789.254 129.008 790.117 129.008 791.005C129.008 791.893 128.712 792.756 128.168 793.458C127.623 794.159 126.86 794.66 126 794.88" stroke="white" stroke-width="2" stroke-linecap="round" stroke-linejoin="round"/>
<path d="M204 795.5C204.003 796.82 203.695 798.122 203.1 799.3C202.394 800.712 201.31 801.899 199.967 802.729C198.625 803.559 197.078 803.999 195.5 804C194.18 804.003 192.878 803.695 191.7 803.1L186 805L187.9 799.3C187.305 798.122 186.997 796.82 187 795.5C187.001 793.922 187.441 792.375 188.271 791.033C189.101 789.69 190.288 788.606 191.7 787.9C192.878 787.305 194.18 786.997 195.5 787H196C198.084 787.115 200.053 787.995 201.529 789.471C203.005 790.947 203.885 792.916 204 795V795.5Z" fill="white" stroke="white" stroke-width="2" stroke-linecap="round" stroke-linejoin="round"/>
<path d="M268 795V791M273 795V791M278 786H260V802H265V806L269 802H274L278 798V786Z" stroke="white" stroke-width="2" stroke-linecap="round" stroke-linejoin="round"/>
<path d="M349 792C349 790.409 348.368 788.883 347.243 787.757C346.117 786.632 344.591 786 343 786C341.409 786 339.883 786.632 338.757 787.757C337.632 788.883 337 790.409 337 792C337 799 334 801 334 801H352C352 801 349 799 349 792Z" stroke="white" stroke-width="2" stroke-linecap="round" stroke-linejoin="round"/>
<path d="M344.73 805C344.554 805.303 344.302 805.555 343.998 805.73C343.695 805.904 343.35 805.996 343 805.996C342.65 805.996 342.305 805.904 342.002 805.73C341.698 805.555 341.446 805.303 341.27 805" stroke="white" stroke-width="2" stroke-linecap="round" stroke-linejoin="round"/>
<path d="M360 89.5C360.003 90.8199 359.695 92.1219 359.1 93.3C358.394 94.7118 357.31 95.8992 355.967 96.7293C354.625 97.5594 353.078 97.9994 351.5 98C350.18 98.0035 348.878 97.6951 347.7 97.1L342 99L343.9 93.3C343.305 92.1219 342.997 90.8199 343 89.5C343.001 87.9218 343.441 86.3749 344.271 85.0326C345.101 83.6903 346.288 82.6056 347.7 81.9C348.878 81.305 350.18 80.9966 351.5 81H352C354.084 81.115 356.053 81.9948 357.529 83.4709C359.005 84.947 359.885 86.9157 360 89V89.5Z" stroke="white" stroke-width="2" stroke-linecap="round" stroke-linejoin="round"/>
<path d="M366.5 80.6091V87.6091" stroke="white" stroke-width="2" stroke-linecap="round" stroke-linejoin="round"/>
<path d="M363 84.1091H370" stroke="white" stroke-width="2" stroke-linecap="round" stroke-linejoin="round"/>
<path d="M0 0H393V852H0V0Z" fill="black" fill-opacity="0.56"/>
<rect x="20" y="301" width="353" height="250" rx="20" fill="#404040"/>
<path d="M158.555 350.477C158.555 351.3 158.651 352.084 158.844 352.828C159.042 353.573 159.346 354.243 159.758 354.836C160.169 355.425 160.69 355.888 161.32 356.227L160.289 357.602C159.669 357.258 159.143 356.792 158.711 356.203C158.284 355.615 157.948 354.933 157.703 354.157C157.438 355.011 157.073 355.769 156.609 356.43C156.151 357.086 155.602 357.607 154.961 357.993L153.852 356.727C154.518 356.336 155.078 355.815 155.531 355.164C155.984 354.513 156.32 353.795 156.539 353.008C156.758 352.222 156.867 351.414 156.867 350.586V348.055H158.555V350.477ZM166.273 360.93H164.602V353.774H163.148V360.243H161.508V347.055H163.148V352.368H164.602V346.805H166.273V360.93ZM180.82 359.289H167.914V357.852H173.477V355.555H169.445V350.93H177.57V349.18H169.414V347.774H179.289V352.305H171.18V354.133H179.617V355.555H175.195V357.852H180.82V359.289ZM194.633 355.18H189.18V357.774H187.414V355.18H181.727V353.789H194.633V355.18ZM193.211 360.649H183.305V356.461H185.055V359.227H193.211V360.649ZM188.164 347.118C189.174 347.118 190.06 347.235 190.82 347.469C191.586 347.703 192.177 348.039 192.594 348.477C193.016 348.909 193.227 349.42 193.227 350.008C193.227 350.597 193.016 351.107 192.594 351.539C192.177 351.972 191.586 352.305 190.82 352.539C190.06 352.769 189.174 352.883 188.164 352.883C187.154 352.883 186.266 352.769 185.5 352.539C184.74 352.305 184.148 351.972 183.727 351.539C183.31 351.107 183.102 350.597 183.102 350.008C183.102 349.42 183.31 348.909 183.727 348.477C184.148 348.039 184.74 347.703 185.5 347.469C186.266 347.235 187.154 347.118 188.164 347.118ZM188.164 348.493C187.518 348.493 186.953 348.552 186.469 348.672C185.99 348.792 185.62 348.967 185.359 349.196C185.099 349.42 184.971 349.69 184.977 350.008C184.971 350.315 185.099 350.581 185.359 350.805C185.62 351.029 185.99 351.201 186.469 351.321C186.953 351.435 187.518 351.493 188.164 351.493C188.815 351.493 189.38 351.435 189.859 351.321C190.344 351.201 190.716 351.029 190.977 350.805C191.237 350.581 191.367 350.315 191.367 350.008C191.367 349.69 191.237 349.42 190.977 349.196C190.716 348.967 190.344 348.792 189.859 348.672C189.38 348.552 188.815 348.493 188.164 348.493ZM203.68 351.102C203.68 351.847 203.784 352.568 203.992 353.266C204.201 353.964 204.521 354.597 204.953 355.164C205.391 355.732 205.93 356.185 206.57 356.524L205.586 357.805C204.945 357.472 204.398 357.013 203.945 356.43C203.497 355.847 203.141 355.17 202.875 354.399C202.62 355.227 202.263 355.964 201.805 356.61C201.352 357.25 200.805 357.753 200.164 358.118L199.164 356.836C199.799 356.467 200.331 355.977 200.758 355.368C201.19 354.758 201.51 354.086 201.719 353.352C201.932 352.618 202.039 351.868 202.039 351.102V350.711H199.57V349.289H202.039V347.305H203.68V349.289H206.117V350.711H203.68V351.102ZM211.617 360.93H209.961V353.774H208.508V360.243H206.867V347.055H208.508V352.336H209.961V346.805H211.617V360.93ZM220.805 349.196H215.742V350.539H220.398V351.899H215.742V353.258H216.617C217.758 353.258 218.719 353.235 219.5 353.188C220.286 353.141 221.07 353.05 221.852 352.914L222.023 354.289C221.133 354.435 220.237 354.534 219.336 354.586C218.435 354.638 217.315 354.664 215.977 354.664H215.18H213.977V347.821H220.805V349.196ZM224.961 355.43H223.211V346.821H224.961V355.43ZM220.195 355.633C221.185 355.633 222.042 355.737 222.766 355.946C223.49 356.154 224.047 356.456 224.438 356.852C224.828 357.248 225.023 357.722 225.023 358.274C225.023 358.826 224.828 359.3 224.438 359.696C224.047 360.092 223.49 360.394 222.766 360.602C222.042 360.81 221.185 360.914 220.195 360.914C219.195 360.914 218.331 360.81 217.602 360.602C216.878 360.394 216.323 360.092 215.938 359.696C215.552 359.3 215.362 358.826 215.367 358.274C215.362 357.722 215.552 357.248 215.938 356.852C216.323 356.456 216.878 356.154 217.602 355.946C218.331 355.737 219.195 355.633 220.195 355.633ZM220.195 356.977C219.195 356.977 218.427 357.089 217.891 357.313C217.354 357.537 217.091 357.857 217.102 358.274C217.096 358.696 217.359 359.019 217.891 359.243C218.422 359.461 219.19 359.571 220.195 359.571C221.18 359.571 221.94 359.459 222.477 359.235C223.018 359.011 223.289 358.69 223.289 358.274C223.289 357.862 223.018 357.545 222.477 357.321C221.935 357.092 221.174 356.977 220.195 356.977ZM233.57 355.524C234.539 355.524 235.378 355.631 236.086 355.844C236.799 356.052 237.346 356.36 237.727 356.766C238.107 357.167 238.299 357.649 238.305 358.211C238.299 358.779 238.107 359.266 237.727 359.672C237.346 360.084 236.799 360.396 236.086 360.61C235.378 360.823 234.539 360.93 233.57 360.93C232.591 360.93 231.742 360.823 231.023 360.61C230.305 360.396 229.753 360.084 229.367 359.672C228.982 359.266 228.789 358.779 228.789 358.211C228.789 357.649 228.982 357.167 229.367 356.766C229.753 356.36 230.302 356.052 231.016 355.844C231.734 355.631 232.586 355.524 233.57 355.524ZM233.57 356.883C232.591 356.883 231.839 356.998 231.312 357.227C230.786 357.451 230.523 357.779 230.523 358.211C230.523 358.649 230.786 358.982 231.312 359.211C231.844 359.44 232.596 359.555 233.57 359.555C234.544 359.555 235.289 359.44 235.805 359.211C236.326 358.982 236.586 358.649 236.586 358.211C236.586 357.779 236.326 357.451 235.805 357.227C235.289 356.998 234.544 356.883 233.57 356.883ZM238.164 350.18H240.133V351.633H238.164V355.18H236.43V346.805H238.164V350.18ZM229.227 349.602H232.523V347.696H234.242V354.289H227.508V347.696H229.227V349.602ZM232.523 352.914V350.961H229.227V352.914H232.523Z" fill="white"/>
<rect x="45.5" y="390.5" width="143" height="55" rx="19.5" stroke="white"/>
<rect x="204.5" y="390.5" width="143" height="55" rx="19.5" stroke="white"/>
<path d="M80 415L80 413C80 410.239 82.2386 408 85 408V408C87.7614 408 90 410.239 90 413L90 415" stroke="white" stroke-width="2"/>
<rect x="76" y="416" width="18" height="12" rx="4" stroke="white" stroke-width="2"/>
<path d="M239 419V415M244 419V415M249 410H231V426H236V430L240 426H245L249 422V410Z" stroke="white" stroke-width="2" stroke-linecap="round" stroke-linejoin="round"/>
<path d="M116.219 411.266V425.406H114.469V411.266H116.219ZM105.219 422.078V412.422H106.953V415.953H110.375V412.422H112.094V422.078H105.219ZM106.953 420.656H110.375V417.312H106.953V420.656ZM125.828 412V417.891H119.016V412H125.828ZM120.688 420.453V419.094H130.031V422.75H122.422V423.891H130.453V425.266H120.703V421.5H128.344V420.453H120.688ZM120.734 416.531H124.109V413.391H120.734V416.531ZM128.312 418.453V411.266H130.031V418.453H128.312ZM136.438 415.562C136.438 417.719 137.32 419.938 139.328 420.984L138.344 422.266C137.031 421.578 136.141 420.344 135.633 418.867C135.133 420.461 134.242 421.828 132.922 422.578L131.922 421.297C133.898 420.148 134.789 417.797 134.797 415.562V415.172H132.328V413.75H134.797V411.766H136.438V413.75H138.875V415.172H136.438V415.562ZM139.625 424.703V411.516H141.266V416.797H142.719V411.266H144.375V425.391H142.719V418.234H141.266V424.703H139.625ZM153.562 412.281V413.656H148.5V415H153.156V416.359H148.5V417.719C151.141 417.727 152.75 417.688 154.609 417.375L154.781 418.75C152.758 419.086 150.984 419.133 147.938 419.125H146.734V412.281H153.562ZM148.125 422.734C148.117 421.062 149.938 420.086 152.953 420.094C155.914 420.086 157.781 421.062 157.781 422.734C157.781 424.406 155.914 425.375 152.953 425.375C149.938 425.375 148.117 424.406 148.125 422.734ZM149.859 422.734C149.844 423.578 150.945 424.031 152.953 424.031C154.914 424.031 156.047 423.578 156.047 422.734C156.047 421.898 154.914 421.438 152.953 421.438C150.945 421.438 149.844 421.898 149.859 422.734ZM155.969 419.891V411.281H157.719V419.891H155.969Z" fill="white"/>
<path d="M269.891 412.062C272.922 412.07 275.164 413.578 275.156 415.875C275.164 417.992 273.344 419.406 270.75 419.664V422.25H276.375V423.672H263.469V422.25H269.031V419.664C266.469 419.406 264.648 417.992 264.656 415.875C264.648 413.578 266.883 412.07 269.891 412.062ZM266.359 415.875C266.352 417.398 267.828 418.312 269.891 418.312C271.984 418.312 273.453 417.398 273.453 415.875C273.453 414.398 271.984 413.461 269.891 413.469C267.828 413.461 266.352 414.398 266.359 415.875ZM288.984 411.906V413.281H287.047V416H288.906V417.375H278.531V416H280.391V413.281H278.453V411.906H288.984ZM277.297 420.031V418.641H290.172V420.031H277.297ZM278.891 425.109V421.094H280.625V423.703H288.719V425.109H278.891ZM282.125 416H285.297V413.281H282.125V416ZM295.438 415.562C295.438 417.719 296.32 419.938 298.328 420.984L297.344 422.266C296.031 421.578 295.141 420.344 294.633 418.867C294.133 420.461 293.242 421.828 291.922 422.578L290.922 421.297C292.898 420.148 293.789 417.797 293.797 415.562V415.172H291.328V413.75H293.797V411.766H295.438V413.75H297.875V415.172H295.438V415.562ZM298.625 424.703V411.516H300.266V416.797H301.719V411.266H303.375V425.391H301.719V418.234H300.266V424.703H298.625ZM312.562 412.281V413.656H307.5V415H312.156V416.359H307.5V417.719C310.141 417.727 311.75 417.688 313.609 417.375L313.781 418.75C311.758 419.086 309.984 419.133 306.938 419.125H305.734V412.281H312.562ZM307.125 422.734C307.117 421.062 308.938 420.086 311.953 420.094C314.914 420.086 316.781 421.062 316.781 422.734C316.781 424.406 314.914 425.375 311.953 425.375C308.938 425.375 307.117 424.406 307.125 422.734ZM308.859 422.734C308.844 423.578 309.945 424.031 311.953 424.031C313.914 424.031 315.047 423.578 315.047 422.734C315.047 421.898 313.914 421.438 311.953 421.438C309.945 421.438 308.844 421.898 308.859 422.734ZM314.969 419.891V411.281H316.719V419.891H314.969Z" fill="white"/>
<rect x="39" y="484" width="315" height="42" rx="20" fill="white"/>
<path d="M194.656 498.281V502.391H196.562V503.828H194.656V507.828H192.922V498.281H194.656ZM183.344 506.141C184.406 506.141 185.633 506.133 186.906 506.102V505.234C185.336 505.039 184.336 504.281 184.344 503.172C184.336 501.867 185.703 501.07 187.75 501.078C189.805 501.07 191.156 501.867 191.156 503.172C191.156 504.273 190.188 505.023 188.641 505.227V506.039C189.844 505.977 191.055 505.883 192.188 505.734L192.328 506.938C189.32 507.469 186.016 507.5 183.531 507.5L183.344 506.141ZM183.703 500.672V499.391H186.906V498.156H188.641V499.391H191.812V500.672H183.703ZM185.125 509.797V508.438H194.656V512.391H192.922V509.797H185.125ZM186.016 503.172C186 503.758 186.656 504.125 187.75 504.109C188.844 504.125 189.5 503.758 189.5 503.172C189.5 502.555 188.844 502.242 187.75 502.25C186.656 502.242 186 502.555 186.016 503.172ZM209.062 498.281V508.484H207.312V498.281H209.062ZM197.547 502.734C197.547 500.68 199.211 499.211 201.359 499.203C203.508 499.211 205.164 500.68 205.156 502.734C205.164 504.82 203.508 506.281 201.359 506.281C199.211 506.281 197.547 504.82 197.547 502.734ZM199.25 502.734C199.242 503.984 200.148 504.766 201.359 504.766C202.539 504.766 203.453 503.984 203.453 502.734C203.453 501.516 202.539 500.719 201.359 500.719C200.148 500.719 199.242 501.516 199.25 502.734ZM199.719 512.109V507.453H201.469V510.703H209.453V512.109H199.719Z" fill="#404040"/>
<path d="M352 326L340 338" stroke="white" stroke-width="2" stroke-linecap="round" stroke-linejoin="round"/>
<path d="M340 326L352 338" stroke="white" stroke-width="2" stroke-linecap="round" stroke-linejoin="round"/>
</g>
<defs>
<clipPath id="clip0_2212_3243">
<rect width="393" height="852" fill="white"/>
</clipPath>
</defs>
</svg>
