<svg width="393" height="852" viewBox="0 0 393 852" fill="none" xmlns="http://www.w3.org/2000/svg">
<g clip-path="url(#clip0_2076_3551)">
<rect width="393" height="852" fill="#2D2D2D"/>
<path d="M285 86C285 84.4087 284.368 82.8826 283.243 81.7574C282.117 80.6321 280.591 80 279 80C277.409 80 275.883 80.6321 274.757 81.7574C273.632 82.8826 273 84.4087 273 86C273 93 270 95 270 95H288C288 95 285 93 285 86Z" stroke="white" stroke-width="2" stroke-linecap="round" stroke-linejoin="round"/>
<path d="M280.73 99C280.554 99.3031 280.302 99.5547 279.998 99.7295C279.695 99.9044 279.35 99.9965 279 99.9965C278.65 99.9965 278.305 99.9044 278.002 99.7295C277.698 99.5547 277.446 99.3031 277.27 99" stroke="white" stroke-width="2" stroke-linecap="round" stroke-linejoin="round"/>
<path d="M328 89.8911C328.003 91.211 327.695 92.513 327.1 93.6911C326.394 95.1029 325.31 96.2903 323.967 97.1204C322.625 97.9505 321.078 98.3905 319.5 98.3911C318.18 98.3946 316.878 98.0862 315.7 97.4911L310 99.3911L311.9 93.6911C311.305 92.513 310.997 91.211 311 89.8911C311.001 88.3129 311.441 86.766 312.271 85.4237C313.101 84.0814 314.288 82.9967 315.7 82.2911C316.878 81.6961 318.18 81.3877 319.5 81.3911H320C322.084 81.5061 324.053 82.3859 325.529 83.862C327.005 85.3381 327.885 87.3068 328 89.3911V89.8911Z" stroke="white" stroke-width="2" stroke-linecap="round" stroke-linejoin="round"/>
<path d="M367 99.3911V97.3911C367 96.3302 366.579 95.3128 365.828 94.5627C365.078 93.8125 364.061 93.3911 363 93.3911H355C353.939 93.3911 352.922 93.8125 352.172 94.5627C351.421 95.3128 351 96.3302 351 97.3911V99.3911" stroke="white" stroke-width="2" stroke-linecap="round" stroke-linejoin="round"/>
<path d="M359 89.3911C361.209 89.3911 363 87.6003 363 85.3911C363 83.182 361.209 81.3911 359 81.3911C356.791 81.3911 355 83.182 355 85.3911C355 87.6003 356.791 89.3911 359 89.3911Z" stroke="white" stroke-width="2" stroke-linecap="round" stroke-linejoin="round"/>
<path d="M30.56 462.16H33.56V471.928C33.56 473.232 33.3 474.36 32.78 475.312C32.268 476.264 31.544 477 30.608 477.52C29.68 478.032 28.584 478.288 27.32 478.288C26.048 478.288 24.94 478.032 23.996 477.52C23.06 477 22.332 476.264 21.812 475.312C21.3 474.36 21.044 473.232 21.044 471.928V462.16H24.032V471.772C24.032 472.572 24.168 473.256 24.44 473.824C24.72 474.384 25.108 474.812 25.604 475.108C26.1 475.396 26.672 475.54 27.32 475.54C27.96 475.54 28.524 475.396 29.012 475.108C29.5 474.812 29.88 474.384 30.152 473.824C30.424 473.256 30.56 472.572 30.56 471.772V462.16ZM40.3846 467.86C40.9766 467.86 41.5246 467.916 42.0286 468.028C42.5326 468.132 42.9566 468.252 43.3006 468.388C43.6526 468.524 43.8846 468.64 43.9966 468.736L42.9526 470.572C42.7926 470.444 42.5046 470.292 42.0886 470.116C41.6806 469.94 41.2246 469.852 40.7206 469.852C40.2646 469.852 39.8806 469.932 39.5686 470.092C39.2566 470.244 39.1006 470.476 39.1006 470.788C39.1006 471.1 39.2686 471.348 39.6046 471.532C39.9406 471.716 40.4086 471.876 41.0086 472.012C41.5126 472.116 42.0086 472.276 42.4966 472.492C42.9846 472.7 43.3886 473.004 43.7086 473.404C44.0286 473.796 44.1886 474.32 44.1886 474.976C44.1886 475.624 44.0486 476.164 43.7686 476.596C43.4966 477.02 43.1326 477.356 42.6766 477.604C42.2206 477.852 41.7206 478.028 41.1766 478.132C40.6326 478.236 40.0926 478.288 39.5566 478.288C38.8606 478.288 38.2486 478.22 37.7206 478.084C37.1926 477.956 36.7566 477.808 36.4126 477.64C36.0766 477.464 35.8366 477.316 35.6926 477.196L36.7366 475.156C36.9446 475.34 37.2846 475.544 37.7566 475.768C38.2366 475.984 38.7526 476.092 39.3046 476.092C39.8806 476.092 40.3326 475.992 40.6606 475.792C40.9966 475.592 41.1646 475.324 41.1646 474.988C41.1646 474.74 41.0846 474.54 40.9246 474.388C40.7646 474.228 40.5446 474.096 40.2646 473.992C39.9846 473.888 39.6566 473.796 39.2806 473.716C38.9366 473.644 38.5846 473.54 38.2246 473.404C37.8646 473.26 37.5286 473.072 37.2166 472.84C36.9046 472.608 36.6526 472.32 36.4606 471.976C36.2686 471.624 36.1726 471.204 36.1726 470.716C36.1726 470.092 36.3726 469.572 36.7726 469.156C37.1726 468.732 37.6926 468.412 38.3326 468.196C38.9726 467.972 39.6566 467.86 40.3846 467.86ZM48.5908 473.752C48.6148 474.2 48.7348 474.6 48.9508 474.952C49.1668 475.304 49.4788 475.58 49.8868 475.78C50.3028 475.98 50.7988 476.08 51.3748 476.08C51.8948 476.08 52.3508 476.016 52.7428 475.888C53.1428 475.76 53.4788 475.604 53.7508 475.42C54.0308 475.228 54.2388 475.044 54.3748 474.868L55.6348 476.74C55.4108 477.02 55.1108 477.28 54.7348 477.52C54.3668 477.752 53.8948 477.936 53.3188 478.072C52.7508 478.216 52.0388 478.288 51.1828 478.288C50.1028 478.288 49.1548 478.076 48.3388 477.652C47.5228 477.228 46.8868 476.616 46.4308 475.816C45.9748 475.016 45.7468 474.064 45.7468 472.96C45.7468 472 45.9508 471.136 46.3588 470.368C46.7668 469.592 47.3588 468.98 48.1348 468.532C48.9188 468.084 49.8588 467.86 50.9548 467.86C51.9868 467.86 52.8788 468.06 53.6308 468.46C54.3908 468.852 54.9788 469.428 55.3948 470.188C55.8108 470.948 56.0188 471.876 56.0188 472.972C56.0188 473.036 56.0148 473.168 56.0068 473.368C56.0068 473.56 55.9988 473.688 55.9828 473.752H48.5908ZM53.1628 471.868C53.1548 471.612 53.0748 471.336 52.9228 471.04C52.7788 470.744 52.5508 470.492 52.2388 470.284C51.9268 470.076 51.5108 469.972 50.9908 469.972C50.4708 469.972 50.0428 470.072 49.7068 470.272C49.3788 470.472 49.1308 470.72 48.9628 471.016C48.7948 471.304 48.6988 471.588 48.6748 471.868H53.1628ZM60.9089 478H57.8609V468.148H60.9089V469.744H60.8489C60.9049 469.552 61.0569 469.308 61.3049 469.012C61.5609 468.716 61.9129 468.452 62.3609 468.22C62.8089 467.98 63.3489 467.86 63.9809 467.86C64.4369 467.86 64.8489 467.928 65.2169 468.064C65.5929 468.192 65.8609 468.32 66.0209 468.448L64.8209 470.944C64.7169 470.816 64.5209 470.684 64.2329 470.548C63.9529 470.412 63.6009 470.344 63.1769 470.344C62.6729 470.344 62.2529 470.484 61.9169 470.764C61.5809 471.036 61.3289 471.372 61.1609 471.772C60.9929 472.164 60.9089 472.532 60.9089 472.876V478ZM73.3456 462.16H79.4416C80.3376 462.16 81.1416 462.348 81.8536 462.724C82.5656 463.092 83.1296 463.632 83.5456 464.344C83.9696 465.048 84.1816 465.9 84.1816 466.9C84.1816 467.892 83.9976 468.708 83.6296 469.348C83.2616 469.98 82.8176 470.456 82.2976 470.776C81.7856 471.096 81.3096 471.28 80.8696 471.328L84.7576 478H81.3736L77.8576 471.556H76.3336V478H73.3456V462.16ZM76.3336 469.444H78.3736C79.1336 469.444 79.7776 469.256 80.3056 468.88C80.8416 468.504 81.1096 467.872 81.1096 466.984C81.1096 466.096 80.8456 465.472 80.3176 465.112C79.7896 464.744 79.1496 464.56 78.3976 464.56H76.3336V469.444ZM94.9732 478V476.284C94.9012 476.46 94.7172 476.708 94.4212 477.028C94.1252 477.348 93.7252 477.64 93.2212 477.904C92.7252 478.16 92.1412 478.288 91.4692 478.288C90.5252 478.288 89.6892 478.064 88.9612 477.616C88.2332 477.16 87.6612 476.54 87.2452 475.756C86.8372 474.964 86.6332 474.072 86.6332 473.08C86.6332 472.088 86.8372 471.2 87.2452 470.416C87.6612 469.624 88.2332 469 88.9612 468.544C89.6892 468.088 90.5252 467.86 91.4692 467.86C92.1252 467.86 92.6932 467.972 93.1732 468.196C93.6612 468.412 94.0532 468.668 94.3492 468.964C94.6532 469.252 94.8492 469.512 94.9372 469.744V468.148H97.9612V478H94.9732ZM89.6212 473.08C89.6212 473.632 89.7452 474.12 89.9932 474.544C90.2412 474.96 90.5692 475.284 90.9772 475.516C91.3852 475.748 91.8292 475.864 92.3092 475.864C92.8132 475.864 93.2612 475.748 93.6532 475.516C94.0452 475.276 94.3532 474.948 94.5772 474.532C94.8092 474.108 94.9252 473.624 94.9252 473.08C94.9252 472.536 94.8092 472.056 94.5772 471.64C94.3532 471.216 94.0452 470.884 93.6532 470.644C93.2612 470.404 92.8132 470.284 92.3092 470.284C91.8292 470.284 91.3852 470.404 90.9772 470.644C90.5692 470.876 90.2412 471.204 89.9932 471.628C89.7452 472.044 89.6212 472.528 89.6212 473.08ZM106.751 467.86C107.423 467.86 108.079 468 108.719 468.28C109.359 468.552 109.883 468.988 110.291 469.588C110.707 470.188 110.915 470.972 110.915 471.94V478H107.855V472.468C107.855 471.66 107.663 471.06 107.279 470.668C106.903 470.276 106.407 470.08 105.791 470.08C105.391 470.08 105.007 470.192 104.639 470.416C104.279 470.632 103.983 470.936 103.751 471.328C103.527 471.712 103.415 472.152 103.415 472.648V478H100.367V468.148H103.415V469.72C103.503 469.448 103.703 469.168 104.015 468.88C104.327 468.592 104.723 468.352 105.203 468.16C105.683 467.96 106.199 467.86 106.751 467.86ZM119.74 468.148H123.244L118.432 472.852L123.676 478H120.088L115.996 473.884V478H112.948V461.488H115.996V471.76L119.74 468.148ZM125.006 478V468.148H128.042V478H125.006ZM126.566 465.604C126.062 465.604 125.634 465.428 125.282 465.076C124.938 464.724 124.766 464.304 124.766 463.816C124.766 463.328 124.942 462.904 125.294 462.544C125.646 462.184 126.07 462.004 126.566 462.004C126.894 462.004 127.194 462.088 127.466 462.256C127.738 462.416 127.958 462.632 128.126 462.904C128.294 463.176 128.378 463.48 128.378 463.816C128.378 464.304 128.198 464.724 127.838 465.076C127.486 465.428 127.062 465.604 126.566 465.604ZM137.103 467.86C137.775 467.86 138.431 468 139.071 468.28C139.711 468.552 140.235 468.988 140.643 469.588C141.059 470.188 141.267 470.972 141.267 471.94V478H138.207V472.468C138.207 471.66 138.015 471.06 137.631 470.668C137.255 470.276 136.759 470.08 136.143 470.08C135.743 470.08 135.359 470.192 134.991 470.416C134.631 470.632 134.335 470.936 134.103 471.328C133.879 471.712 133.767 472.152 133.767 472.648V478H130.719V468.148H133.767V469.72C133.855 469.448 134.055 469.168 134.367 468.88C134.679 468.592 135.075 468.352 135.555 468.16C136.035 467.96 136.551 467.86 137.103 467.86ZM148.627 483.268C147.907 483.268 147.215 483.2 146.551 483.064C145.895 482.928 145.299 482.716 144.763 482.428C144.227 482.14 143.779 481.764 143.419 481.3L145.267 479.428C145.435 479.644 145.651 479.86 145.915 480.076C146.187 480.3 146.531 480.484 146.947 480.628C147.363 480.78 147.883 480.856 148.507 480.856C149.099 480.856 149.607 480.74 150.031 480.508C150.463 480.284 150.795 479.964 151.027 479.548C151.267 479.132 151.387 478.648 151.387 478.096V477.82H154.375V478.276C154.375 479.364 154.119 480.28 153.607 481.024C153.095 481.768 152.407 482.328 151.543 482.704C150.679 483.08 149.707 483.268 148.627 483.268ZM151.387 478V476.284C151.315 476.46 151.131 476.708 150.835 477.028C150.539 477.348 150.139 477.64 149.635 477.904C149.139 478.16 148.555 478.288 147.883 478.288C146.939 478.288 146.103 478.064 145.375 477.616C144.647 477.16 144.075 476.54 143.659 475.756C143.251 474.964 143.047 474.072 143.047 473.08C143.047 472.088 143.251 471.2 143.659 470.416C144.075 469.624 144.647 469 145.375 468.544C146.103 468.088 146.939 467.86 147.883 467.86C148.539 467.86 149.107 467.972 149.587 468.196C150.075 468.412 150.467 468.668 150.763 468.964C151.067 469.252 151.263 469.512 151.351 469.744V468.148H154.375V478H151.387ZM146.035 473.08C146.035 473.632 146.159 474.12 146.407 474.544C146.655 474.96 146.983 475.284 147.391 475.516C147.799 475.748 148.243 475.864 148.723 475.864C149.227 475.864 149.675 475.748 150.067 475.516C150.459 475.276 150.767 474.948 150.991 474.532C151.223 474.108 151.339 473.624 151.339 473.08C151.339 472.536 151.223 472.056 150.991 471.64C150.767 471.216 150.459 470.884 150.067 470.644C149.675 470.404 149.227 470.284 148.723 470.284C148.243 470.284 147.799 470.404 147.391 470.644C146.983 470.876 146.655 471.204 146.407 471.628C146.159 472.044 146.035 472.528 146.035 473.08Z" fill="white"/>
<g filter="url(#filter0_d_2076_3551)">
<rect x="20" y="504" width="353" height="42" rx="16" fill="white" fill-opacity="0.1" shape-rendering="crispEdges"/>
<rect x="20.5" y="504.5" width="352" height="41" rx="15.5" stroke="white" shape-rendering="crispEdges"/>
</g>
<path d="M39.574 519.649L37.264 520.859V517.735L41.312 515.48H42.863V530H39.574V519.649Z" fill="#6DFCAF"/>
<path d="M67.2656 519.375C69.3594 519.383 70.8516 521.289 70.8594 524.281C70.8516 527.305 69.3594 529.211 67.2656 529.203C65.1719 529.211 63.6797 527.305 63.6875 524.281C63.6797 521.289 65.1719 519.383 67.2656 519.375ZM65.1094 524.281C65.1016 526.508 65.9922 527.875 67.2656 527.875C68.5625 527.875 69.4375 526.508 69.4375 524.281C69.4375 522.086 68.5625 520.711 67.2656 520.703C65.9922 520.711 65.1016 522.086 65.1094 524.281ZM72.9375 532.328V518.328H74.4219V523.812H76.6719V525.062H74.4219V532.328H72.9375ZM89.3906 518.328V532.328H87.9688V518.328H89.3906ZM77.5 524.375C77.5 521.344 78.6875 519.445 80.5156 519.453C82.2188 519.445 83.3672 521.062 83.5391 523.688H85.125V518.594H86.5469V531.641H85.125V524.891H83.5469C83.4141 527.625 82.25 529.32 80.5156 529.312C78.6875 529.32 77.5 527.414 77.5 524.375ZM78.875 524.375C78.875 526.602 79.5078 527.914 80.5156 527.906C81.5469 527.914 82.1875 526.602 82.1875 524.375C82.1875 522.141 81.5469 520.836 80.5156 520.844C79.5078 520.836 78.875 522.141 78.875 524.375ZM102.766 518.328V532.359H101.281V518.328H102.766ZM91.6562 524.281C91.6562 521.289 93.1641 519.383 95.2812 519.375C97.3594 519.383 98.8906 521.289 98.8906 524.281C98.8906 527.305 97.3594 529.211 95.2812 529.203C93.1641 529.211 91.6562 527.305 91.6562 524.281ZM93.0938 524.281C93.0859 526.508 93.9766 527.875 95.2812 527.875C96.5625 527.875 97.4531 526.508 97.4531 524.281C97.4531 522.086 96.5625 520.711 95.2812 520.703C93.9766 520.711 93.0859 522.086 93.0938 524.281ZM111.375 519.172C114.367 519.18 116.547 520.656 116.547 522.891C116.547 524.984 114.719 526.383 112.109 526.594V529.344H117.812V530.578H105V529.344H110.641V526.594C108.047 526.383 106.211 524.984 106.219 522.891C106.211 520.656 108.398 519.18 111.375 519.172ZM107.656 522.891C107.656 524.461 109.219 525.438 111.375 525.453C113.547 525.438 115.102 524.461 115.109 522.891C115.102 521.375 113.547 520.375 111.375 520.391C109.219 520.375 107.656 521.375 107.656 522.891ZM131.625 526.281V527.516H125.906V532.328H124.453V527.516H118.812V526.281H131.625ZM120.203 521.969C120.211 520.062 122.227 518.859 125.188 518.859C128.148 518.859 130.18 520.062 130.172 521.969C130.18 523.852 128.148 525.047 125.188 525.047C122.227 525.047 120.211 523.852 120.203 521.969ZM121.734 521.969C121.727 523.133 123.109 523.859 125.188 523.859C127.273 523.859 128.648 523.133 128.656 521.969C128.648 520.789 127.273 520.055 125.188 520.047C123.109 520.055 121.727 520.789 121.734 521.969Z" fill="white"/>
<rect x="20" y="558" width="353" height="42" rx="16" fill="white" fill-opacity="0.1"/>
<path d="M40.149 572.01C39.665 572.01 39.236 572.127 38.862 572.362C38.4953 572.589 38.1837 572.857 37.927 573.165C37.6777 573.473 37.487 573.755 37.355 574.012C37.223 574.261 37.1497 574.408 37.135 574.452L34.319 573.165C34.3337 573.07 34.4033 572.879 34.528 572.593C34.6527 572.3 34.8507 571.962 35.122 571.581C35.3933 571.2 35.749 570.829 36.189 570.47C36.6363 570.111 37.1863 569.814 37.839 569.579C38.4917 569.337 39.2617 569.216 40.149 569.216C41.1757 569.216 42.0263 569.363 42.701 569.656C43.383 569.949 43.9183 570.334 44.307 570.811C44.703 571.28 44.9853 571.79 45.154 572.34C45.3227 572.89 45.407 573.418 45.407 573.924C45.407 574.555 45.2787 575.167 45.022 575.761C44.7727 576.348 44.4463 576.905 44.043 577.433C43.6397 577.954 43.207 578.434 42.745 578.874C42.283 579.307 41.8393 579.688 41.414 580.018C40.996 580.341 40.6403 580.597 40.347 580.788C40.0537 580.979 39.8777 581.096 39.819 581.14H45.286V584H34.869V581.393C34.979 581.312 35.2283 581.133 35.617 580.854C36.0057 580.575 36.4713 580.227 37.014 579.809C37.564 579.391 38.1323 578.933 38.719 578.434C39.313 577.928 39.863 577.407 40.369 576.872C40.8823 576.337 41.3003 575.812 41.623 575.299C41.9457 574.786 42.107 574.313 42.107 573.88C42.107 573.198 41.9347 572.718 41.59 572.439C41.2527 572.153 40.7723 572.01 40.149 572.01Z" fill="#6DFCAF"/>
<path d="M70.3125 576.672C70.2031 575.617 69.2812 575.016 67.9844 575.016C66.6016 575.016 65.7266 575.727 65.7188 576.688C65.7188 577.758 66.8828 578.18 67.7812 578.391L68.875 578.688C70.3203 579.039 72.1328 579.828 72.1406 581.875C72.1328 583.789 70.6094 585.188 67.9375 585.188C65.4062 585.188 63.8125 583.922 63.7031 581.859H65.4219C65.5234 583.094 66.6172 583.68 67.9375 583.688C69.3828 583.68 70.4297 582.953 70.4375 581.844C70.4297 580.859 69.4922 580.461 68.2969 580.141L66.9531 579.781C65.1328 579.281 64.0078 578.359 64 576.781C64.0078 574.828 65.7422 573.531 68.0312 573.531C70.3281 573.531 71.9297 574.844 71.9844 576.672H70.3125ZM77.4375 585.172C75.0312 585.172 73.4609 583.422 73.4688 580.797C73.4609 578.156 75.0312 576.406 77.4375 576.406C79.8281 576.406 81.3906 578.156 81.3906 580.797C81.3906 583.422 79.8281 585.172 77.4375 585.172ZM75.1406 580.797C75.1406 582.414 75.8828 583.781 77.4375 583.781C78.9688 583.781 79.7031 582.414 79.7031 580.797C79.7031 579.172 78.9688 577.789 77.4375 577.781C75.8828 577.789 75.1406 579.172 75.1406 580.797ZM86.625 585.172C84.2188 585.172 82.6484 583.422 82.6562 580.797C82.6484 578.156 84.2188 576.406 86.625 576.406C89.0156 576.406 90.5781 578.156 90.5781 580.797C90.5781 583.422 89.0156 585.172 86.625 585.172ZM84.3281 580.797C84.3281 582.414 85.0703 583.781 86.625 583.781C88.1562 583.781 88.8906 582.414 88.8906 580.797C88.8906 579.172 88.1562 577.789 86.625 577.781C85.0703 577.789 84.3281 579.172 84.3281 580.797ZM92.9531 588.188C92.6094 588.18 92.2734 588.172 92.0625 588.141V586.75C92.25 586.766 92.5781 586.773 92.8125 586.781C93.3281 586.773 93.7578 586.742 94.1562 585.672L94.3594 585.109L91.25 576.516H93.0312L95.1719 583.094H95.2656L97.4062 576.516H99.2031L95.7031 586.125C95.2109 587.469 94.3516 588.18 92.9531 588.188ZM99.9062 582.609C99.8984 580.672 101.547 580.172 103.078 580.062C103.641 580.031 104.914 579.961 105.305 579.945L105.297 579.266C105.305 578.305 104.711 577.75 103.578 577.75C102.594 577.75 102 578.203 101.828 578.828H100.172C100.32 577.422 101.633 576.406 103.641 576.406C104.992 576.406 106.961 576.898 106.969 579.359V585H105.344V583.844H105.281C104.953 584.477 104.172 585.188 102.766 585.188C101.156 585.188 99.8984 584.266 99.9062 582.609ZM101.531 582.625C101.531 583.438 102.203 583.852 103.141 583.859C104.5 583.852 105.312 582.945 105.312 581.938L105.305 581.164C104.922 581.188 103.711 581.273 103.312 581.297C102.219 581.375 101.531 581.789 101.531 582.625ZM110.656 579.969V585H108.984V576.516H110.594V577.906H110.688C111.086 576.992 111.922 576.406 113.188 576.406C114.93 576.406 116.086 577.508 116.078 579.609V585H114.422V579.812C114.414 578.578 113.75 577.844 112.625 577.844C111.477 577.844 110.656 578.617 110.656 579.969ZM121.672 588.359C119.531 588.359 118.117 587.414 117.969 585.828H119.672C119.836 586.633 120.586 587.023 121.688 587.016C123.016 587.023 123.852 586.445 123.859 585.125V583.453H123.75C123.453 584 122.844 584.875 121.281 584.875C119.281 584.875 117.734 583.383 117.734 580.672C117.734 577.961 119.258 576.406 121.297 576.406C122.875 576.406 123.453 577.359 123.766 577.891H123.875V576.516H125.5V585.188C125.508 587.367 123.859 588.359 121.672 588.359ZM119.438 580.703C119.43 582.367 120.195 583.492 121.656 583.5C123.078 583.492 123.875 582.453 123.875 580.703C123.875 578.984 123.094 577.82 121.656 577.828C120.18 577.82 119.43 579.078 119.438 580.703Z" fill="white"/>
<rect x="20" y="612" width="353" height="42" rx="16" fill="white" fill-opacity="0.1"/>
<path d="M34.737 626.384C34.8177 626.091 34.9753 625.761 35.21 625.394C35.4447 625.027 35.7637 624.679 36.167 624.349C36.5777 624.019 37.0763 623.748 37.663 623.535C38.257 623.322 38.9427 623.216 39.72 623.216C40.644 623.216 41.4617 623.388 42.173 623.733C42.8917 624.07 43.4563 624.543 43.867 625.152C44.2777 625.761 44.483 626.472 44.483 627.286C44.483 627.777 44.395 628.228 44.219 628.639C44.043 629.042 43.8157 629.38 43.537 629.651C43.2583 629.922 42.965 630.098 42.657 630.179C43.0163 630.223 43.3757 630.388 43.735 630.674C44.1017 630.96 44.4097 631.341 44.659 631.818C44.9157 632.295 45.044 632.856 45.044 633.501C45.044 634.425 44.8093 635.246 44.34 635.965C43.878 636.676 43.2437 637.237 42.437 637.648C41.6303 638.059 40.7063 638.264 39.665 638.264C38.587 638.264 37.6703 638.073 36.915 637.692C36.167 637.311 35.5693 636.845 35.122 636.295C34.682 635.745 34.3887 635.213 34.242 634.7L37.256 633.204C37.344 633.519 37.4907 633.849 37.696 634.194C37.9087 634.539 38.18 634.832 38.51 635.074C38.84 635.309 39.2213 635.426 39.654 635.426C40.1013 635.426 40.4827 635.338 40.798 635.162C41.1133 634.986 41.3553 634.748 41.524 634.447C41.7 634.139 41.788 633.787 41.788 633.391C41.788 632.98 41.689 632.639 41.491 632.368C41.3003 632.097 41.0437 631.895 40.721 631.763C40.3983 631.631 40.0427 631.565 39.654 631.565H39.368V629.211H39.742C40.0793 629.211 40.3837 629.145 40.655 629.013C40.9263 628.874 41.139 628.679 41.293 628.43C41.4543 628.173 41.535 627.873 41.535 627.528C41.535 627.066 41.3773 626.674 41.062 626.351C40.7467 626.021 40.2883 625.856 39.687 625.856C39.3203 625.856 38.9977 625.922 38.719 626.054C38.4477 626.179 38.2203 626.34 38.037 626.538C37.8537 626.729 37.707 626.927 37.597 627.132C37.4943 627.33 37.4283 627.502 37.399 627.649L34.737 626.384Z" fill="#6DFCAF"/>
<path d="M64.1562 639V627.688H65.875V632.594H71.5V627.688H73.2188V639H71.5V634.062H65.875V639H64.1562ZM75.3906 639V630.516H77.0625V639H75.3906ZM75.1719 628.219C75.1797 627.672 75.6562 627.234 76.2344 627.234C76.8047 627.234 77.2812 627.672 77.2812 628.219C77.2812 628.766 76.8047 629.211 76.2344 629.203C75.6562 629.211 75.1797 628.766 75.1719 628.219ZM79.0938 639V630.516H80.7031V631.906H80.7969C81.1562 630.961 81.9922 630.406 83.1094 630.406C84.2422 630.406 85.0312 630.961 85.3906 631.906H85.4844C85.8828 630.992 86.8047 630.406 88.0312 630.406C89.5625 630.406 90.6484 631.367 90.6562 633.312V639H88.9844V633.469C88.9844 632.32 88.2656 631.844 87.3906 631.844C86.3203 631.844 85.7031 632.578 85.7031 633.594V639H84.0469V633.375C84.0469 632.445 83.4141 631.844 82.5 631.844C81.5625 631.844 80.7656 632.625 80.7656 633.766V639H79.0938Z" fill="white"/>
<rect x="20" y="666" width="353" height="42" rx="16" fill="white" fill-opacity="0.1"/>
<path d="M43.339 677.48V686.071H45.022V688.942H43.339V692H40.061V688.942H34.077V686.335L39.566 677.48H43.339ZM40.061 686.071V681.693H40.039L37.388 686.071H40.061Z" fill="white"/>
<path d="M66.3906 693L63.25 681.688H65.0625L67.2656 690.438H67.3594L69.6562 681.688H71.4375L73.7344 690.438H73.8281L76.0312 681.688H77.8438L74.7031 693H72.9688L70.5938 684.547H70.5L68.125 693H66.3906ZM88.5 687.344C88.5 690.961 86.3281 693.156 83.4062 693.156C80.4609 693.156 78.2969 690.953 78.2969 687.344C78.2969 683.727 80.4609 681.531 83.4062 681.531C86.3281 681.531 88.5 683.727 88.5 687.344ZM80 687.344C80.0078 690.094 81.4531 691.586 83.4062 691.578C85.3438 691.586 86.7891 690.094 86.7969 687.344C86.7891 684.594 85.3438 683.102 83.4062 683.109C81.4531 683.102 80.0078 684.594 80 687.344ZM99.5625 681.688V693H97.9844L92.25 684.734H92.1562V693H90.4375V681.688H92.0312L97.7656 689.969H97.875V681.688H99.5625ZM101.875 693V681.688H103.594V691.516H108.703V693H101.875ZM112.188 681.688V693H110.469V681.688H112.188ZM114.484 681.688H116.578L120.156 690.453H120.297L123.875 681.688H125.969V693H124.328V684.828H124.219L120.906 692.984H119.547L116.219 684.812H116.125V693H114.484V681.688Z" fill="white"/>
<rect x="20" y="720" width="353" height="42" rx="16" fill="white" fill-opacity="0.1"/>
<path d="M37.278 741.908C37.344 742.113 37.4357 742.311 37.553 742.502C37.6703 742.693 37.817 742.865 37.993 743.019C38.169 743.173 38.3817 743.294 38.631 743.382C38.8803 743.47 39.1737 743.514 39.511 743.514C40.193 743.514 40.721 743.298 41.095 742.865C41.4763 742.425 41.6633 741.857 41.656 741.16C41.6487 740.493 41.4653 739.968 41.106 739.587C40.754 739.206 40.27 739.015 39.654 739.015C39.258 739.015 38.917 739.085 38.631 739.224C38.345 739.363 38.1103 739.525 37.927 739.708C37.751 739.891 37.6263 740.06 37.553 740.214L34.836 739.224L36.123 731.48H44.285V734.34H38.884L38.433 737.079C38.4697 737.028 38.5833 736.947 38.774 736.837C38.972 736.727 39.2287 736.628 39.544 736.54C39.8667 736.445 40.2297 736.397 40.633 736.397C41.3517 736.397 42.041 736.555 42.701 736.87C43.361 737.185 43.9037 737.68 44.329 738.355C44.7543 739.03 44.967 739.902 44.967 740.973C44.967 742.044 44.736 742.979 44.274 743.778C43.8193 744.57 43.1923 745.182 42.393 745.615C41.5937 746.048 40.677 746.264 39.643 746.264C38.8583 746.264 38.169 746.172 37.575 745.989C36.9883 745.798 36.486 745.549 36.068 745.241C35.65 744.933 35.309 744.599 35.045 744.24C34.7883 743.873 34.594 743.514 34.462 743.162L37.278 741.908Z" fill="white"/>
<path d="M71.4219 735.688H73.1406V743.125C73.1484 745.5 71.3594 747.188 68.6562 747.188C65.9297 747.188 64.1484 745.5 64.1562 743.125V735.688H65.875V742.984C65.8672 744.516 66.9375 745.617 68.6562 745.625C70.3672 745.617 71.4219 744.516 71.4219 742.984V735.688ZM75.3125 747V738.516H76.9844V747H75.3125ZM75.0938 736.219C75.1016 735.672 75.5781 735.234 76.1562 735.234C76.7266 735.234 77.2031 735.672 77.2031 736.219C77.2031 736.766 76.7266 737.211 76.1562 737.203C75.5781 737.211 75.1016 736.766 75.0938 736.219ZM80.0469 750.188C79.7031 750.18 79.3672 750.172 79.1562 750.141V748.75C79.3438 748.766 79.6719 748.773 79.9062 748.781C80.4219 748.773 80.8516 748.742 81.25 747.672L81.4531 747.109L78.3438 738.516H80.125L82.2656 745.094H82.3594L84.5 738.516H86.2969L82.7969 748.125C82.3047 749.469 81.4453 750.18 80.0469 750.188ZM91.0156 747.172C88.5156 747.172 86.9766 745.445 86.9844 742.812C86.9766 740.203 88.5391 738.406 90.9062 738.406C92.8359 738.406 94.6719 739.602 94.6719 742.672V743.266H88.6406C88.6875 744.883 89.6406 745.797 91.0312 745.797C91.9766 745.797 92.5938 745.391 92.875 744.875H94.5625C94.1875 746.25 92.8828 747.172 91.0156 747.172ZM88.6484 742.016H93.0312C93.0312 740.727 92.1953 739.773 90.9219 739.781C89.5859 739.773 88.7188 740.82 88.6484 742.016ZM99.9219 747.172C97.5156 747.172 95.9453 745.422 95.9531 742.797C95.9453 740.156 97.5156 738.406 99.9219 738.406C102.312 738.406 103.875 740.156 103.875 742.797C103.875 745.422 102.312 747.172 99.9219 747.172ZM97.625 742.797C97.625 744.414 98.3672 745.781 99.9219 745.781C101.453 745.781 102.188 744.414 102.188 742.797C102.188 741.172 101.453 739.789 99.9219 739.781C98.3672 739.789 97.625 741.172 97.625 742.797ZM107.188 741.969V747H105.516V738.516H107.125V739.906H107.219C107.617 738.992 108.453 738.406 109.719 738.406C111.461 738.406 112.617 739.508 112.609 741.609V747H110.953V741.812C110.945 740.578 110.281 739.844 109.156 739.844C108.008 739.844 107.188 740.617 107.188 741.969Z" fill="white"/>
<circle cx="196.5" cy="782.5" r="3.5" fill="#D9D9D9"/>
<circle cx="211.5" cy="782.5" r="3.5" fill="#D9D9D9"/>
<circle cx="181.5" cy="782.5" r="3.5" fill="#6DFCAF"/>
<rect x="65" y="285" width="264" height="28" rx="14" fill="#424242"/>
<path d="M367 478L373 472L367 466" stroke="white" stroke-width="2" stroke-linecap="round" stroke-linejoin="round"/>
<rect x="196" y="285" width="132" height="28" rx="14" fill="white"/>
<path d="M104.882 293.12H107.132V303.011H111.587V305H104.882V293.12ZM119.238 305V303.713C119.184 303.845 119.046 304.031 118.824 304.271C118.602 304.511 118.302 304.73 117.924 304.928C117.552 305.12 117.114 305.216 116.61 305.216C115.902 305.216 115.275 305.048 114.729 304.712C114.183 304.37 113.754 303.905 113.442 303.317C113.136 302.723 112.983 302.054 112.983 301.31C112.983 300.566 113.136 299.9 113.442 299.312C113.754 298.718 114.183 298.25 114.729 297.908C115.275 297.566 115.902 297.395 116.61 297.395C117.102 297.395 117.528 297.479 117.888 297.647C118.254 297.809 118.548 298.001 118.77 298.223C118.998 298.439 119.145 298.634 119.211 298.808V297.611H121.479V305H119.238ZM115.224 301.31C115.224 301.724 115.317 302.09 115.503 302.408C115.689 302.72 115.935 302.963 116.241 303.137C116.547 303.311 116.88 303.398 117.24 303.398C117.618 303.398 117.954 303.311 118.248 303.137C118.542 302.957 118.773 302.711 118.941 302.399C119.115 302.081 119.202 301.718 119.202 301.31C119.202 300.902 119.115 300.542 118.941 300.23C118.773 299.912 118.542 299.663 118.248 299.483C117.954 299.303 117.618 299.213 117.24 299.213C116.88 299.213 116.547 299.303 116.241 299.483C115.935 299.657 115.689 299.903 115.503 300.221C115.317 300.533 115.224 300.896 115.224 301.31ZM126.559 305.216C125.857 305.216 125.239 305.048 124.705 304.712C124.177 304.37 123.763 303.905 123.463 303.317C123.169 302.723 123.022 302.054 123.022 301.31C123.022 300.566 123.169 299.9 123.463 299.312C123.763 298.718 124.177 298.25 124.705 297.908C125.239 297.566 125.857 297.395 126.559 297.395C127.057 297.395 127.498 297.476 127.882 297.638C128.272 297.8 128.584 297.992 128.818 298.214C129.052 298.436 129.19 298.634 129.232 298.808V292.616H131.527V305H129.259V303.713C129.163 303.923 128.986 304.145 128.728 304.379C128.47 304.613 128.155 304.811 127.783 304.973C127.411 305.135 127.003 305.216 126.559 305.216ZM127.207 303.398C127.591 303.398 127.936 303.311 128.242 303.137C128.548 302.957 128.788 302.711 128.962 302.399C129.142 302.081 129.232 301.718 129.232 301.31C129.232 300.902 129.142 300.542 128.962 300.23C128.788 299.912 128.548 299.663 128.242 299.483C127.936 299.303 127.591 299.213 127.207 299.213C126.853 299.213 126.529 299.303 126.235 299.483C125.941 299.657 125.704 299.903 125.524 300.221C125.35 300.533 125.263 300.896 125.263 301.31C125.263 301.724 125.35 302.09 125.524 302.408C125.704 302.72 125.941 302.963 126.235 303.137C126.529 303.311 126.853 303.398 127.207 303.398ZM136.368 305.216C135.666 305.216 135.048 305.048 134.514 304.712C133.986 304.37 133.572 303.905 133.272 303.317C132.978 302.723 132.831 302.054 132.831 301.31C132.831 300.566 132.978 299.9 133.272 299.312C133.572 298.718 133.986 298.25 134.514 297.908C135.048 297.566 135.666 297.395 136.368 297.395C136.866 297.395 137.307 297.476 137.691 297.638C138.081 297.8 138.393 297.992 138.627 298.214C138.861 298.436 138.999 298.634 139.041 298.808V292.616H141.336V305H139.068V303.713C138.972 303.923 138.795 304.145 138.537 304.379C138.279 304.613 137.964 304.811 137.592 304.973C137.22 305.135 136.812 305.216 136.368 305.216ZM137.016 303.398C137.4 303.398 137.745 303.311 138.051 303.137C138.357 302.957 138.597 302.711 138.771 302.399C138.951 302.081 139.041 301.718 139.041 301.31C139.041 300.902 138.951 300.542 138.771 300.23C138.597 299.912 138.357 299.663 138.051 299.483C137.745 299.303 137.4 299.213 137.016 299.213C136.662 299.213 136.338 299.303 136.044 299.483C135.75 299.657 135.513 299.903 135.333 300.221C135.159 300.533 135.072 300.896 135.072 301.31C135.072 301.724 135.159 302.09 135.333 302.408C135.513 302.72 135.75 302.963 136.044 303.137C136.338 303.311 136.662 303.398 137.016 303.398ZM144.674 301.814C144.692 302.15 144.782 302.45 144.944 302.714C145.106 302.978 145.34 303.185 145.646 303.335C145.958 303.485 146.33 303.56 146.762 303.56C147.152 303.56 147.494 303.512 147.788 303.416C148.088 303.32 148.34 303.203 148.544 303.065C148.754 302.921 148.91 302.783 149.012 302.651L149.957 304.055C149.789 304.265 149.564 304.46 149.282 304.64C149.006 304.814 148.652 304.952 148.22 305.054C147.794 305.162 147.26 305.216 146.618 305.216C145.808 305.216 145.097 305.057 144.485 304.739C143.873 304.421 143.396 303.962 143.054 303.362C142.712 302.762 142.541 302.048 142.541 301.22C142.541 300.5 142.694 299.852 143 299.276C143.306 298.694 143.75 298.235 144.332 297.899C144.92 297.563 145.625 297.395 146.447 297.395C147.221 297.395 147.89 297.545 148.454 297.845C149.024 298.139 149.465 298.571 149.777 299.141C150.089 299.711 150.245 300.407 150.245 301.229C150.245 301.277 150.242 301.376 150.236 301.526C150.236 301.67 150.23 301.766 150.218 301.814H144.674ZM148.103 300.401C148.097 300.209 148.037 300.002 147.923 299.78C147.815 299.558 147.644 299.369 147.41 299.213C147.176 299.057 146.864 298.979 146.474 298.979C146.084 298.979 145.763 299.054 145.511 299.204C145.265 299.354 145.079 299.54 144.953 299.762C144.827 299.978 144.755 300.191 144.737 300.401H148.103ZM153.912 305H151.626V297.611H153.912V298.808H153.867C153.909 298.664 154.023 298.481 154.209 298.259C154.401 298.037 154.665 297.839 155.001 297.665C155.337 297.485 155.742 297.395 156.216 297.395C156.558 297.395 156.867 297.446 157.143 297.548C157.425 297.644 157.626 297.74 157.746 297.836L156.846 299.708C156.768 299.612 156.621 299.513 156.405 299.411C156.195 299.309 155.931 299.258 155.613 299.258C155.235 299.258 154.92 299.363 154.668 299.573C154.416 299.777 154.227 300.029 154.101 300.329C153.975 300.623 153.912 300.899 153.912 301.157V305Z" fill="white"/>
<path d="M236.934 295.199L237.087 295.226V305H234.846V293.12H237.942L243.27 302.876L243.117 302.912V293.12H245.358V305H242.244L236.934 295.199ZM251.146 305.216C250.36 305.216 249.658 305.048 249.04 304.712C248.428 304.376 247.948 303.917 247.6 303.335C247.252 302.747 247.078 302.078 247.078 301.328C247.078 300.578 247.252 299.909 247.6 299.321C247.948 298.727 248.428 298.259 249.04 297.917C249.658 297.569 250.36 297.395 251.146 297.395C251.938 297.395 252.637 297.569 253.243 297.917C253.849 298.259 254.323 298.727 254.665 299.321C255.007 299.909 255.178 300.578 255.178 301.328C255.178 302.078 255.007 302.747 254.665 303.335C254.323 303.917 253.849 304.376 253.243 304.712C252.637 305.048 251.938 305.216 251.146 305.216ZM251.146 303.317C251.524 303.317 251.851 303.233 252.127 303.065C252.409 302.891 252.625 302.654 252.775 302.354C252.931 302.048 253.009 301.703 253.009 301.319C253.009 300.935 252.931 300.59 252.775 300.284C252.625 299.978 252.409 299.738 252.127 299.564C251.851 299.384 251.524 299.294 251.146 299.294C250.768 299.294 250.438 299.384 250.156 299.564C249.88 299.738 249.664 299.978 249.508 300.284C249.352 300.59 249.274 300.935 249.274 301.319C249.274 301.703 249.352 302.048 249.508 302.354C249.664 302.654 249.88 302.891 250.156 303.065C250.438 303.233 250.768 303.317 251.146 303.317ZM258.846 305H256.56V297.611H258.846V298.808H258.801C258.843 298.664 258.957 298.481 259.143 298.259C259.335 298.037 259.599 297.839 259.935 297.665C260.271 297.485 260.676 297.395 261.15 297.395C261.492 297.395 261.801 297.446 262.077 297.548C262.359 297.644 262.56 297.74 262.68 297.836L261.78 299.708C261.702 299.612 261.555 299.513 261.339 299.411C261.129 299.309 260.865 299.258 260.547 299.258C260.169 299.258 259.854 299.363 259.602 299.573C259.35 299.777 259.161 300.029 259.035 300.329C258.909 300.623 258.846 300.899 258.846 301.157V305ZM273.199 297.395C273.751 297.395 274.231 297.512 274.639 297.746C275.053 297.98 275.374 298.34 275.602 298.826C275.836 299.306 275.953 299.924 275.953 300.68V305H273.703V301.049C273.703 300.425 273.61 299.939 273.424 299.591C273.244 299.243 272.899 299.069 272.389 299.069C272.101 299.069 271.837 299.147 271.597 299.303C271.357 299.453 271.165 299.675 271.021 299.969C270.883 300.263 270.814 300.623 270.814 301.049V305H268.708V301.049C268.708 300.425 268.603 299.939 268.393 299.591C268.183 299.243 267.85 299.069 267.394 299.069C267.1 299.069 266.833 299.144 266.593 299.294C266.359 299.444 266.173 299.666 266.035 299.96C265.903 300.248 265.837 300.611 265.837 301.049V305H263.569V297.611H265.837V298.691C265.903 298.505 266.053 298.313 266.287 298.115C266.527 297.917 266.824 297.749 267.178 297.611C267.532 297.467 267.913 297.395 268.321 297.395C268.765 297.395 269.134 297.47 269.428 297.62C269.722 297.77 269.959 297.962 270.139 298.196C270.325 298.424 270.466 298.664 270.562 298.916C270.646 298.682 270.811 298.448 271.057 298.214C271.303 297.98 271.612 297.785 271.984 297.629C272.356 297.473 272.761 297.395 273.199 297.395ZM283.568 305V303.713C283.514 303.845 283.376 304.031 283.154 304.271C282.932 304.511 282.632 304.73 282.254 304.928C281.882 305.12 281.444 305.216 280.94 305.216C280.232 305.216 279.605 305.048 279.059 304.712C278.513 304.37 278.084 303.905 277.772 303.317C277.466 302.723 277.313 302.054 277.313 301.31C277.313 300.566 277.466 299.9 277.772 299.312C278.084 298.718 278.513 298.25 279.059 297.908C279.605 297.566 280.232 297.395 280.94 297.395C281.432 297.395 281.858 297.479 282.218 297.647C282.584 297.809 282.878 298.001 283.1 298.223C283.328 298.439 283.475 298.634 283.541 298.808V297.611H285.809V305H283.568ZM279.554 301.31C279.554 301.724 279.647 302.09 279.833 302.408C280.019 302.72 280.265 302.963 280.571 303.137C280.877 303.311 281.21 303.398 281.57 303.398C281.948 303.398 282.284 303.311 282.578 303.137C282.872 302.957 283.103 302.711 283.271 302.399C283.445 302.081 283.532 301.718 283.532 301.31C283.532 300.902 283.445 300.542 283.271 300.23C283.103 299.912 282.872 299.663 282.578 299.483C282.284 299.303 281.948 299.213 281.57 299.213C281.21 299.213 280.877 299.303 280.571 299.483C280.265 299.657 280.019 299.903 279.833 300.221C279.647 300.533 279.554 300.896 279.554 301.31ZM289.998 305H287.703V292.616H289.998V305Z" fill="#2D2D2D"/>
<rect x="165" y="144" width="69" height="69" rx="30" fill="#D9D9D9" fill-opacity="0.2"/>
<path d="M213.683 194.416V190.948C213.683 189.109 212.952 187.344 211.651 186.043C210.35 184.743 208.586 184.012 206.746 184.012H192.873C191.033 184.012 189.269 184.743 187.968 186.043C186.667 187.344 185.937 189.109 185.937 190.948V194.416" stroke="black" stroke-width="2" stroke-linecap="round" stroke-linejoin="round"/>
<path d="M199.81 177.075C203.64 177.075 206.746 173.97 206.746 170.139C206.746 166.308 203.64 163.202 199.81 163.202C195.979 163.202 192.873 166.308 192.873 170.139C192.873 173.97 195.979 177.075 199.81 177.075Z" stroke="black" stroke-width="2" stroke-linecap="round" stroke-linejoin="round"/>
<path d="M213.683 194.416V190.948C213.683 189.109 212.952 187.344 211.651 186.043C210.35 184.743 208.586 184.012 206.746 184.012H192.873C191.033 184.012 189.269 184.743 187.968 186.043C186.667 187.344 185.937 189.109 185.937 190.948V194.416" stroke="white" stroke-opacity="0.7" stroke-width="2" stroke-linecap="round" stroke-linejoin="round"/>
<path d="M199.81 177.075C203.64 177.075 206.746 173.97 206.746 170.139C206.746 166.308 203.64 163.202 199.81 163.202C195.979 163.202 192.873 166.308 192.873 170.139C192.873 173.97 195.979 177.075 199.81 177.075Z" stroke="white" stroke-opacity="0.7" stroke-width="2" stroke-linecap="round" stroke-linejoin="round"/>
<path d="M175.422 227.688H177.141V235.125C177.148 237.5 175.359 239.188 172.656 239.188C169.93 239.188 168.148 237.5 168.156 235.125V227.688H169.875V234.984C169.867 236.516 170.938 237.617 172.656 237.625C174.367 237.617 175.422 236.516 175.422 234.984V227.688ZM181.172 227.688V239H179.453V227.688H181.172ZM182.594 227.688H184.547L187.484 232.812H187.609L190.562 227.688H192.516L188.406 234.562V239H186.688V234.562L182.594 227.688ZM193.938 239V227.688H201.031V229.172H195.656V232.594H200.656V234.062H195.656V237.516H201.094V239H193.938ZM212.969 233.344C212.969 236.961 210.797 239.156 207.875 239.156C204.93 239.156 202.766 236.953 202.766 233.344C202.766 229.727 204.93 227.531 207.875 227.531C210.797 227.531 212.969 229.727 212.969 233.344ZM204.469 233.344C204.477 236.094 205.922 237.586 207.875 237.578C209.812 237.586 211.258 236.094 211.266 233.344C211.258 230.594 209.812 229.102 207.875 229.109C205.922 229.102 204.477 230.594 204.469 233.344ZM224.031 227.688V239H222.453L216.719 230.734H216.625V239H214.906V227.688H216.5L222.234 235.969H222.344V227.688H224.031Z" fill="white"/>
<rect x="33" y="331" width="160" height="64" rx="20" fill="#6DFCAF"/>
<path d="M88.18 355.8V369H85.69V360.55L85.81 358.63L85.36 360.81L82.77 368.06H80.31L77.73 360.81L77.29 358.63L77.4 360.55V369H74.9V355.8H78.36L81.38 365.21L81.54 366.11L81.7 365.21L84.73 355.8H88.18ZM97.1613 369V367.57C97.1013 367.717 96.9479 367.923 96.7013 368.19C96.4546 368.457 96.1213 368.7 95.7013 368.92C95.2879 369.133 94.8013 369.24 94.2413 369.24C93.4546 369.24 92.7579 369.053 92.1513 368.68C91.5446 368.3 91.0679 367.783 90.7213 367.13C90.3813 366.47 90.2113 365.727 90.2113 364.9C90.2113 364.073 90.3813 363.333 90.7213 362.68C91.0679 362.02 91.5446 361.5 92.1513 361.12C92.7579 360.74 93.4546 360.55 94.2413 360.55C94.7879 360.55 95.2612 360.643 95.6612 360.83C96.0679 361.01 96.3946 361.223 96.6413 361.47C96.8946 361.71 97.0579 361.927 97.1313 362.12V360.79H99.6513V369H97.1613ZM92.7013 364.9C92.7013 365.36 92.8046 365.767 93.0113 366.12C93.2179 366.467 93.4913 366.737 93.8313 366.93C94.1713 367.123 94.5413 367.22 94.9413 367.22C95.3613 367.22 95.7346 367.123 96.0613 366.93C96.3879 366.73 96.6446 366.457 96.8313 366.11C97.0246 365.757 97.1213 365.353 97.1213 364.9C97.1213 364.447 97.0246 364.047 96.8313 363.7C96.6446 363.347 96.3879 363.07 96.0613 362.87C95.7346 362.67 95.3613 362.57 94.9413 362.57C94.5413 362.57 94.1713 362.67 93.8313 362.87C93.4913 363.063 93.2179 363.337 93.0113 363.69C92.8046 364.037 92.7013 364.44 92.7013 364.9ZM101.036 360.79H102.516V357.42H105.036V360.79H106.976V362.9H105.036V365.87C105.036 366.263 105.1 366.57 105.226 366.79C105.353 367.003 105.553 367.11 105.826 367.11C106.033 367.11 106.203 367.07 106.336 366.99C106.47 366.903 106.55 366.843 106.576 366.81L107.476 368.63C107.436 368.67 107.306 368.74 107.086 368.84C106.873 368.94 106.596 369.03 106.256 369.11C105.923 369.197 105.546 369.24 105.126 369.24C104.373 369.24 103.75 369.023 103.256 368.59C102.763 368.15 102.516 367.47 102.516 366.55V362.9H101.036V360.79ZM112.978 367.22C113.411 367.22 113.765 367.147 114.038 367C114.311 366.853 114.491 366.743 114.578 366.67L115.758 368.42C115.665 368.493 115.491 368.597 115.238 368.73C114.985 368.863 114.661 368.98 114.268 369.08C113.881 369.187 113.438 369.24 112.938 369.24C112.071 369.24 111.295 369.067 110.608 368.72C109.921 368.367 109.378 367.867 108.978 367.22C108.585 366.567 108.388 365.79 108.388 364.89C108.388 363.983 108.585 363.207 108.978 362.56C109.378 361.913 109.921 361.417 110.608 361.07C111.295 360.723 112.071 360.55 112.938 360.55C113.431 360.55 113.868 360.603 114.248 360.71C114.635 360.817 114.958 360.94 115.218 361.08C115.478 361.213 115.658 361.323 115.758 361.41L114.548 363.17C114.501 363.117 114.411 363.043 114.278 362.95C114.145 362.857 113.968 362.77 113.748 362.69C113.535 362.61 113.278 362.57 112.978 362.57C112.611 362.57 112.261 362.667 111.928 362.86C111.601 363.053 111.335 363.323 111.128 363.67C110.921 364.017 110.818 364.423 110.818 364.89C110.818 365.357 110.921 365.767 111.128 366.12C111.335 366.467 111.601 366.737 111.928 366.93C112.261 367.123 112.611 367.22 112.978 367.22ZM122.496 360.55C123.056 360.55 123.602 360.667 124.136 360.9C124.669 361.127 125.106 361.49 125.446 361.99C125.792 362.49 125.966 363.143 125.966 363.95V369H123.416V364.39C123.416 363.717 123.262 363.217 122.956 362.89C122.656 362.563 122.252 362.4 121.746 362.4C121.406 362.4 121.079 362.493 120.766 362.68C120.459 362.86 120.206 363.113 120.006 363.44C119.812 363.76 119.716 364.127 119.716 364.54V369H117.166V355.24H119.716V362.1C119.782 361.873 119.946 361.64 120.206 361.4C120.466 361.16 120.796 360.96 121.196 360.8C121.596 360.633 122.029 360.55 122.496 360.55ZM128.107 369V360.79H130.637V369H128.107ZM129.407 358.67C128.987 358.67 128.63 358.523 128.337 358.23C128.05 357.937 127.907 357.587 127.907 357.18C127.907 356.773 128.054 356.42 128.347 356.12C128.64 355.82 128.994 355.67 129.407 355.67C129.68 355.67 129.93 355.74 130.157 355.88C130.384 356.013 130.567 356.193 130.707 356.42C130.847 356.647 130.917 356.9 130.917 357.18C130.917 357.587 130.767 357.937 130.467 358.23C130.174 358.523 129.82 358.67 129.407 358.67ZM138.187 360.55C138.747 360.55 139.294 360.667 139.827 360.9C140.361 361.127 140.797 361.49 141.137 361.99C141.484 362.49 141.657 363.143 141.657 363.95V369H139.107V364.39C139.107 363.717 138.947 363.217 138.627 362.89C138.314 362.563 137.901 362.4 137.387 362.4C137.054 362.4 136.734 362.493 136.427 362.68C136.127 362.86 135.881 363.113 135.687 363.44C135.501 363.76 135.407 364.127 135.407 364.54V369H132.867V360.79H135.407V362.1C135.481 361.873 135.647 361.64 135.907 361.4C136.167 361.16 136.497 360.96 136.897 360.8C137.297 360.633 137.727 360.55 138.187 360.55ZM147.791 373.39C147.191 373.39 146.614 373.333 146.061 373.22C145.514 373.107 145.018 372.93 144.571 372.69C144.124 372.45 143.751 372.137 143.451 371.75L144.991 370.19C145.131 370.37 145.311 370.55 145.531 370.73C145.758 370.917 146.044 371.07 146.391 371.19C146.738 371.317 147.171 371.38 147.691 371.38C148.184 371.38 148.608 371.283 148.961 371.09C149.321 370.903 149.598 370.637 149.791 370.29C149.991 369.943 150.091 369.54 150.091 369.08V368.85H152.581V369.23C152.581 370.137 152.368 370.9 151.941 371.52C151.514 372.14 150.941 372.607 150.221 372.92C149.501 373.233 148.691 373.39 147.791 373.39ZM150.091 369V367.57C150.031 367.717 149.878 367.923 149.631 368.19C149.384 368.457 149.051 368.7 148.631 368.92C148.218 369.133 147.731 369.24 147.171 369.24C146.384 369.24 145.688 369.053 145.081 368.68C144.474 368.3 143.998 367.783 143.651 367.13C143.311 366.47 143.141 365.727 143.141 364.9C143.141 364.073 143.311 363.333 143.651 362.68C143.998 362.02 144.474 361.5 145.081 361.12C145.688 360.74 146.384 360.55 147.171 360.55C147.718 360.55 148.191 360.643 148.591 360.83C148.998 361.01 149.324 361.223 149.571 361.47C149.824 361.71 149.988 361.927 150.061 362.12V360.79H152.581V369H150.091ZM145.631 364.9C145.631 365.36 145.734 365.767 145.941 366.12C146.148 366.467 146.421 366.737 146.761 366.93C147.101 367.123 147.471 367.22 147.871 367.22C148.291 367.22 148.664 367.123 148.991 366.93C149.318 366.73 149.574 366.457 149.761 366.11C149.954 365.757 150.051 365.353 150.051 364.9C150.051 364.447 149.954 364.047 149.761 363.7C149.574 363.347 149.318 363.07 148.991 362.87C148.664 362.67 148.291 362.57 147.871 362.57C147.471 362.57 147.101 362.67 146.761 362.87C146.421 363.063 146.148 363.337 145.941 363.69C145.734 364.037 145.631 364.44 145.631 364.9Z" fill="#2D2D2D"/>
<rect x="201" y="331" width="160" height="64" rx="20" fill="#6DFCAF"/>
<path d="M170.28 414.248C170.899 414.248 171.435 414.32 171.888 414.464C172.347 414.603 172.709 414.752 172.976 414.912C173.243 415.067 173.403 415.168 173.456 415.216L172.616 416.584C172.536 416.515 172.392 416.419 172.184 416.296C171.981 416.168 171.731 416.053 171.432 415.952C171.139 415.851 170.811 415.8 170.448 415.8C169.904 415.8 169.472 415.907 169.152 416.12C168.832 416.328 168.672 416.632 168.672 417.032C168.672 417.299 168.757 417.533 168.928 417.736C169.099 417.939 169.341 418.128 169.656 418.304C169.976 418.48 170.357 418.659 170.8 418.84C171.173 418.995 171.536 419.171 171.888 419.368C172.245 419.565 172.565 419.797 172.848 420.064C173.131 420.331 173.355 420.64 173.52 420.992C173.691 421.344 173.776 421.749 173.776 422.208C173.776 422.688 173.677 423.115 173.48 423.488C173.283 423.856 173.011 424.168 172.664 424.424C172.317 424.675 171.917 424.867 171.464 425C171.016 425.128 170.536 425.192 170.024 425.192C169.352 425.192 168.747 425.112 168.208 424.952C167.675 424.787 167.243 424.616 166.912 424.44C166.581 424.259 166.389 424.141 166.336 424.088L167.224 422.656C167.288 422.709 167.405 422.789 167.576 422.896C167.752 422.997 167.968 423.107 168.224 423.224C168.48 423.336 168.763 423.432 169.072 423.512C169.387 423.587 169.712 423.624 170.048 423.624C170.693 423.624 171.181 423.485 171.512 423.208C171.843 422.925 172.008 422.563 172.008 422.12C172.008 421.784 171.901 421.493 171.688 421.248C171.48 420.997 171.192 420.771 170.824 420.568C170.461 420.365 170.048 420.165 169.584 419.968C169.109 419.76 168.669 419.525 168.264 419.264C167.864 419.003 167.541 418.685 167.296 418.312C167.051 417.933 166.928 417.475 166.928 416.936C166.928 416.397 167.08 415.928 167.384 415.528C167.693 415.123 168.101 414.808 168.608 414.584C169.115 414.36 169.672 414.248 170.28 414.248ZM177.105 428.328H175.409V418.432H177.129V419.576C177.188 419.416 177.324 419.232 177.537 419.024C177.756 418.816 178.044 418.635 178.401 418.48C178.759 418.32 179.167 418.24 179.625 418.24C180.244 418.24 180.785 418.389 181.249 418.688C181.719 418.981 182.084 419.389 182.345 419.912C182.612 420.435 182.745 421.037 182.745 421.72C182.745 422.403 182.609 423.005 182.337 423.528C182.065 424.051 181.689 424.459 181.209 424.752C180.735 425.045 180.188 425.192 179.569 425.192C179.084 425.192 178.663 425.104 178.305 424.928C177.948 424.747 177.668 424.544 177.465 424.32C177.263 424.096 177.143 423.917 177.105 423.784V428.328ZM181.057 421.72C181.057 421.299 180.969 420.931 180.793 420.616C180.617 420.301 180.383 420.059 180.089 419.888C179.801 419.712 179.484 419.624 179.137 419.624C178.764 419.624 178.425 419.715 178.121 419.896C177.817 420.072 177.575 420.317 177.393 420.632C177.217 420.941 177.129 421.304 177.129 421.72C177.129 422.136 177.217 422.501 177.393 422.816C177.575 423.125 177.817 423.368 178.121 423.544C178.425 423.72 178.764 423.808 179.137 423.808C179.484 423.808 179.801 423.723 180.089 423.552C180.383 423.381 180.617 423.139 180.793 422.824C180.969 422.509 181.057 422.141 181.057 421.72ZM185.312 422.12C185.322 422.467 185.405 422.779 185.56 423.056C185.714 423.333 185.941 423.552 186.24 423.712C186.544 423.867 186.914 423.944 187.352 423.944C187.73 423.944 188.056 423.893 188.328 423.792C188.605 423.685 188.834 423.56 189.016 423.416C189.197 423.267 189.33 423.128 189.416 423L190.176 424.032C190.01 424.256 189.802 424.456 189.552 424.632C189.301 424.808 188.989 424.944 188.616 425.04C188.248 425.141 187.792 425.192 187.248 425.192C186.533 425.192 185.912 425.045 185.384 424.752C184.856 424.459 184.445 424.045 184.152 423.512C183.864 422.979 183.72 422.355 183.72 421.64C183.72 421 183.853 420.424 184.12 419.912C184.386 419.395 184.773 418.987 185.28 418.688C185.792 418.389 186.405 418.24 187.12 418.24C187.786 418.24 188.365 418.373 188.856 418.64C189.346 418.907 189.725 419.291 189.992 419.792C190.264 420.288 190.4 420.888 190.4 421.592C190.4 421.635 190.397 421.723 190.392 421.856C190.392 421.989 190.386 422.077 190.376 422.12H185.312ZM188.8 420.872C188.794 420.701 188.736 420.507 188.624 420.288C188.517 420.069 188.344 419.88 188.104 419.72C187.864 419.555 187.544 419.472 187.144 419.472C186.733 419.472 186.4 419.552 186.144 419.712C185.888 419.867 185.698 420.053 185.576 420.272C185.453 420.485 185.381 420.685 185.36 420.872H188.8ZM195.095 423.808C195.473 423.808 195.78 423.747 196.015 423.624C196.255 423.496 196.409 423.403 196.479 423.344L197.287 424.544C197.223 424.597 197.089 424.677 196.887 424.784C196.684 424.885 196.425 424.979 196.111 425.064C195.801 425.149 195.449 425.192 195.055 425.192C194.404 425.192 193.812 425.056 193.279 424.784C192.751 424.507 192.327 424.109 192.007 423.592C191.692 423.069 191.535 422.443 191.535 421.712C191.535 420.976 191.692 420.349 192.007 419.832C192.327 419.315 192.751 418.92 193.279 418.648C193.812 418.376 194.404 418.24 195.055 418.24C195.444 418.24 195.791 418.285 196.095 418.376C196.404 418.461 196.66 418.56 196.863 418.672C197.065 418.784 197.201 418.872 197.271 418.936L196.447 420.136C196.409 420.099 196.332 420.04 196.215 419.96C196.103 419.875 195.953 419.797 195.766 419.728C195.58 419.659 195.356 419.624 195.095 419.624C194.775 419.624 194.468 419.709 194.175 419.88C193.881 420.051 193.641 420.293 193.455 420.608C193.268 420.917 193.174 421.285 193.174 421.712C193.174 422.139 193.268 422.509 193.455 422.824C193.641 423.139 193.881 423.381 194.175 423.552C194.468 423.723 194.775 423.808 195.095 423.808ZM198.639 425V418.432H200.343V425H198.639ZM199.511 416.464C199.223 416.464 198.975 416.36 198.767 416.152C198.564 415.944 198.463 415.696 198.463 415.408C198.463 415.12 198.564 414.872 198.767 414.664C198.975 414.451 199.223 414.344 199.511 414.344C199.703 414.344 199.879 414.395 200.039 414.496C200.204 414.592 200.335 414.72 200.431 414.88C200.532 415.035 200.583 415.211 200.583 415.408C200.583 415.696 200.479 415.944 200.271 416.152C200.063 416.36 199.809 416.464 199.511 416.464ZM207.555 425V423.784C207.512 423.912 207.39 424.088 207.187 424.312C206.99 424.536 206.718 424.739 206.371 424.92C206.03 425.101 205.624 425.192 205.155 425.192C204.542 425.192 203.99 425.045 203.499 424.752C203.008 424.459 202.622 424.051 202.339 423.528C202.056 423.005 201.915 422.403 201.915 421.72C201.915 421.037 202.056 420.435 202.339 419.912C202.622 419.389 203.008 418.981 203.499 418.688C203.99 418.389 204.542 418.24 205.155 418.24C205.614 418.24 206.011 418.32 206.347 418.48C206.683 418.64 206.952 418.824 207.155 419.032C207.363 419.24 207.491 419.421 207.539 419.576V418.432H209.235V425H207.555ZM203.603 421.72C203.603 422.141 203.696 422.509 203.883 422.824C204.07 423.139 204.312 423.381 204.611 423.552C204.915 423.723 205.24 423.808 205.587 423.808C205.96 423.808 206.291 423.72 206.579 423.544C206.872 423.368 207.102 423.125 207.267 422.816C207.438 422.501 207.523 422.136 207.523 421.72C207.523 421.304 207.438 420.941 207.267 420.632C207.102 420.317 206.872 420.072 206.579 419.896C206.291 419.715 205.96 419.624 205.587 419.624C205.24 419.624 204.915 419.712 204.611 419.888C204.312 420.059 204.07 420.301 203.883 420.616C203.696 420.931 203.603 421.299 203.603 421.72ZM212.739 425H211.019V413.992H212.739V425ZM226.899 418.24C227.39 418.24 227.811 418.344 228.163 418.552C228.52 418.76 228.795 419.08 228.987 419.512C229.184 419.944 229.283 420.496 229.283 421.168V425H227.595V421.472C227.595 420.837 227.504 420.355 227.323 420.024C227.147 419.693 226.814 419.528 226.323 419.528C226.056 419.528 225.806 419.6 225.571 419.744C225.336 419.888 225.147 420.104 225.003 420.392C224.864 420.675 224.795 421.035 224.795 421.472V425H223.211V421.472C223.211 420.837 223.102 420.355 222.883 420.024C222.67 419.693 222.35 419.528 221.923 419.528C221.651 419.528 221.4 419.597 221.171 419.736C220.942 419.875 220.758 420.088 220.619 420.376C220.48 420.664 220.411 421.029 220.411 421.472V425H218.715V418.432H220.411V419.416C220.47 419.251 220.6 419.077 220.803 418.896C221.011 418.715 221.27 418.56 221.579 418.432C221.888 418.304 222.227 418.24 222.595 418.24C222.995 418.24 223.326 418.315 223.587 418.464C223.854 418.608 224.064 418.789 224.219 419.008C224.379 419.227 224.496 419.445 224.571 419.664C224.646 419.445 224.79 419.227 225.003 419.008C225.222 418.789 225.494 418.608 225.819 418.464C226.144 418.315 226.504 418.24 226.899 418.24ZM234.186 425.192C233.498 425.192 232.884 425.043 232.346 424.744C231.812 424.44 231.394 424.029 231.09 423.512C230.786 422.989 230.634 422.397 230.634 421.736C230.634 421.075 230.786 420.48 231.09 419.952C231.394 419.424 231.812 419.008 232.346 418.704C232.884 418.395 233.498 418.24 234.186 418.24C234.874 418.24 235.482 418.395 236.01 418.704C236.538 419.008 236.951 419.424 237.25 419.952C237.554 420.48 237.706 421.075 237.706 421.736C237.706 422.397 237.554 422.989 237.25 423.512C236.951 424.029 236.538 424.44 236.01 424.744C235.482 425.043 234.874 425.192 234.186 425.192ZM234.186 423.752C234.57 423.752 234.903 423.664 235.186 423.488C235.468 423.312 235.687 423.072 235.842 422.768C235.996 422.464 236.074 422.117 236.074 421.728C236.074 421.339 235.996 420.992 235.842 420.688C235.687 420.379 235.468 420.133 235.186 419.952C234.903 419.771 234.57 419.68 234.186 419.68C233.802 419.68 233.466 419.771 233.178 419.952C232.895 420.133 232.674 420.379 232.514 420.688C232.359 420.992 232.282 421.339 232.282 421.728C232.282 422.117 232.359 422.464 232.514 422.768C232.674 423.072 232.895 423.312 233.178 423.488C233.466 423.664 233.802 423.752 234.186 423.752ZM242.023 425.192C241.405 425.192 240.858 425.045 240.383 424.752C239.909 424.459 239.535 424.051 239.263 423.528C238.997 423.005 238.863 422.403 238.863 421.72C238.863 421.037 238.997 420.435 239.263 419.912C239.535 419.389 239.909 418.981 240.383 418.688C240.858 418.389 241.405 418.24 242.023 418.24C242.482 418.24 242.89 418.32 243.247 418.48C243.605 418.635 243.89 418.816 244.103 419.024C244.317 419.232 244.442 419.416 244.479 419.576V413.992H246.191V425H244.503V423.784C244.429 423.971 244.277 424.173 244.047 424.392C243.818 424.611 243.527 424.8 243.175 424.96C242.829 425.115 242.445 425.192 242.023 425.192ZM242.463 423.808C242.837 423.808 243.175 423.72 243.479 423.544C243.783 423.368 244.026 423.125 244.207 422.816C244.389 422.501 244.479 422.136 244.479 421.72C244.479 421.304 244.389 420.941 244.207 420.632C244.026 420.317 243.783 420.072 243.479 419.896C243.175 419.715 242.837 419.624 242.463 419.624C242.122 419.624 241.805 419.712 241.511 419.888C241.223 420.059 240.991 420.301 240.815 420.616C240.639 420.931 240.551 421.299 240.551 421.72C240.551 422.141 240.639 422.509 240.815 422.824C240.991 423.139 241.223 423.381 241.511 423.552C241.805 423.723 242.122 423.808 242.463 423.808ZM248.874 422.12C248.885 422.467 248.968 422.779 249.122 423.056C249.277 423.333 249.504 423.552 249.802 423.712C250.106 423.867 250.477 423.944 250.914 423.944C251.293 423.944 251.618 423.893 251.89 423.792C252.168 423.685 252.397 423.56 252.578 423.416C252.76 423.267 252.893 423.128 252.978 423L253.738 424.032C253.573 424.256 253.365 424.456 253.114 424.632C252.864 424.808 252.552 424.944 252.178 425.04C251.81 425.141 251.354 425.192 250.81 425.192C250.096 425.192 249.474 425.045 248.946 424.752C248.418 424.459 248.008 424.045 247.714 423.512C247.426 422.979 247.282 422.355 247.282 421.64C247.282 421 247.416 420.424 247.682 419.912C247.949 419.395 248.336 418.987 248.842 418.688C249.354 418.389 249.968 418.24 250.682 418.24C251.349 418.24 251.928 418.373 252.418 418.64C252.909 418.907 253.288 419.291 253.554 419.792C253.826 420.288 253.962 420.888 253.962 421.592C253.962 421.635 253.96 421.723 253.954 421.856C253.954 421.989 253.949 422.077 253.938 422.12H248.874ZM252.362 420.872C252.357 420.701 252.298 420.507 252.186 420.288C252.08 420.069 251.906 419.88 251.666 419.72C251.426 419.555 251.106 419.472 250.706 419.472C250.296 419.472 249.962 419.552 249.706 419.712C249.45 419.867 249.261 420.053 249.138 420.272C249.016 420.485 248.944 420.685 248.922 420.872H252.362Z" fill="white"/>
<rect x="138.5" y="411.5" width="17" height="17" rx="8.5" fill="white" stroke="#818181"/>
<path d="M248.06 355.8H250.56V369H248.06V355.8ZM258.297 360.55C258.857 360.55 259.403 360.667 259.937 360.9C260.47 361.127 260.907 361.49 261.247 361.99C261.593 362.49 261.767 363.143 261.767 363.95V369H259.217V364.39C259.217 363.717 259.057 363.217 258.737 362.89C258.423 362.563 258.01 362.4 257.497 362.4C257.163 362.4 256.843 362.493 256.537 362.68C256.237 362.86 255.99 363.113 255.797 363.44C255.61 363.76 255.517 364.127 255.517 364.54V369H252.977V360.79H255.517V362.1C255.59 361.873 255.757 361.64 256.017 361.4C256.277 361.16 256.607 360.96 257.007 360.8C257.407 360.633 257.837 360.55 258.297 360.55ZM262.97 360.79H265.69L267.94 366.68L270.19 360.79H272.9L269.43 369H266.45L262.97 360.79ZM274.427 369V360.79H276.957V369H274.427ZM275.727 358.67C275.307 358.67 274.951 358.523 274.657 358.23C274.371 357.937 274.227 357.587 274.227 357.18C274.227 356.773 274.374 356.42 274.667 356.12C274.961 355.82 275.314 355.67 275.727 355.67C276.001 355.67 276.251 355.74 276.477 355.88C276.704 356.013 276.887 356.193 277.027 356.42C277.167 356.647 277.237 356.9 277.237 357.18C277.237 357.587 277.087 357.937 276.787 358.23C276.494 358.523 276.141 358.67 275.727 358.67ZM278.568 360.79H280.048V357.42H282.568V360.79H284.508V362.9H282.568V365.87C282.568 366.263 282.631 366.57 282.758 366.79C282.884 367.003 283.084 367.11 283.358 367.11C283.564 367.11 283.734 367.07 283.868 366.99C284.001 366.903 284.081 366.843 284.108 366.81L285.008 368.63C284.968 368.67 284.838 368.74 284.618 368.84C284.404 368.94 284.128 369.03 283.788 369.11C283.454 369.197 283.078 369.24 282.658 369.24C281.904 369.24 281.281 369.023 280.788 368.59C280.294 368.15 280.048 367.47 280.048 366.55V362.9H278.568V360.79ZM286.419 369V360.79H288.949V369H286.419ZM287.719 358.67C287.299 358.67 286.943 358.523 286.649 358.23C286.363 357.937 286.219 357.587 286.219 357.18C286.219 356.773 286.366 356.42 286.659 356.12C286.953 355.82 287.306 355.67 287.719 355.67C287.993 355.67 288.243 355.74 288.469 355.88C288.696 356.013 288.879 356.193 289.019 356.42C289.159 356.647 289.229 356.9 289.229 357.18C289.229 357.587 289.079 357.937 288.779 358.23C288.486 358.523 288.133 358.67 287.719 358.67ZM296.5 360.55C297.06 360.55 297.607 360.667 298.14 360.9C298.673 361.127 299.11 361.49 299.45 361.99C299.797 362.49 299.97 363.143 299.97 363.95V369H297.42V364.39C297.42 363.717 297.26 363.217 296.94 362.89C296.627 362.563 296.213 362.4 295.7 362.4C295.367 362.4 295.047 362.493 294.74 362.68C294.44 362.86 294.193 363.113 294 363.44C293.813 363.76 293.72 364.127 293.72 364.54V369H291.18V360.79H293.72V362.1C293.793 361.873 293.96 361.64 294.22 361.4C294.48 361.16 294.81 360.96 295.21 360.8C295.61 360.633 296.04 360.55 296.5 360.55ZM306.103 373.39C305.503 373.39 304.927 373.333 304.373 373.22C303.827 373.107 303.33 372.93 302.883 372.69C302.437 372.45 302.063 372.137 301.763 371.75L303.303 370.19C303.443 370.37 303.623 370.55 303.843 370.73C304.07 370.917 304.357 371.07 304.703 371.19C305.05 371.317 305.483 371.38 306.003 371.38C306.497 371.38 306.92 371.283 307.273 371.09C307.633 370.903 307.91 370.637 308.103 370.29C308.303 369.943 308.403 369.54 308.403 369.08V368.85H310.893V369.23C310.893 370.137 310.68 370.9 310.253 371.52C309.827 372.14 309.253 372.607 308.533 372.92C307.813 373.233 307.003 373.39 306.103 373.39ZM308.403 369V367.57C308.343 367.717 308.19 367.923 307.943 368.19C307.697 368.457 307.363 368.7 306.943 368.92C306.53 369.133 306.043 369.24 305.483 369.24C304.697 369.24 304 369.053 303.393 368.68C302.787 368.3 302.31 367.783 301.963 367.13C301.623 366.47 301.453 365.727 301.453 364.9C301.453 364.073 301.623 363.333 301.963 362.68C302.31 362.02 302.787 361.5 303.393 361.12C304 360.74 304.697 360.55 305.483 360.55C306.03 360.55 306.503 360.643 306.903 360.83C307.31 361.01 307.637 361.223 307.883 361.47C308.137 361.71 308.3 361.927 308.373 362.12V360.79H310.893V369H308.403ZM303.943 364.9C303.943 365.36 304.047 365.767 304.253 366.12C304.46 366.467 304.733 366.737 305.073 366.93C305.413 367.123 305.783 367.22 306.183 367.22C306.603 367.22 306.977 367.123 307.303 366.93C307.63 366.73 307.887 366.457 308.073 366.11C308.267 365.757 308.363 365.353 308.363 364.9C308.363 364.447 308.267 364.047 308.073 363.7C307.887 363.347 307.63 363.07 307.303 362.87C306.977 362.67 306.603 362.57 306.183 362.57C305.783 362.57 305.413 362.67 305.073 362.87C304.733 363.063 304.46 363.337 304.253 363.69C304.047 364.037 303.943 364.44 303.943 364.9Z" fill="#2D2D2D"/>
<rect width="393" height="852" fill="black" fill-opacity="0.56"/>
<path d="M182.375 576.297V577.719H169.469V576.297H175.047V573.375H176.766V576.297H182.375ZM170 572.5C173.062 572.102 174.898 570.477 175.023 568.719H170.609V567.312H175.047V565.484H176.766V567.312H181.219V568.719H176.805C176.922 570.477 178.758 572.102 181.812 572.5L181.172 573.859C178.734 573.516 176.844 572.43 175.906 570.891C174.977 572.43 173.102 573.516 170.656 573.859L170 572.5ZM195.453 565.266V579.391H193.797V572.188H192.203V578.672H190.609V565.531H192.203V570.797H193.797V565.266H195.453ZM183.734 576.094V566.938H189.016V568.344H185.484V574.625C187.016 574.609 188.281 574.531 189.719 574.266L189.844 575.688C188.133 576.031 186.656 576.078 184.688 576.094H183.734ZM208.188 565.266V570.891H210.359V572.328H208.188V579.391H206.469V565.266H208.188ZM197.047 568.828V567.438H200.391V565.469H202.125V567.438H205.375V568.828H197.047ZM197.703 573.078C197.688 571.125 199.203 569.742 201.266 569.75C203.297 569.742 204.805 571.125 204.812 573.078C204.805 575.023 203.297 576.391 201.266 576.391C199.203 576.391 197.688 575.023 197.703 573.078ZM199.359 573.078C199.352 574.227 200.156 574.961 201.266 574.953C202.352 574.961 203.141 574.227 203.156 573.078C203.141 571.93 202.352 571.172 201.266 571.172C200.156 571.172 199.352 571.93 199.359 573.078ZM222.75 565.266V579.391H221V565.266H222.75ZM211.047 575.5C214.75 573.742 216.453 571.352 216.766 568.141H211.766V566.766H218.531C218.531 570.969 216.898 574.539 211.953 576.891L211.047 575.5Z" fill="#404040"/>
<rect x="20" y="334" width="353" height="185" rx="20" fill="#404040"/>
<path d="M108.305 384.594V390.078H104.82V392.625C106.172 392.609 107.453 392.555 108.914 392.328L109.055 393.922C107.195 394.234 105.656 394.281 103.898 394.281H102.914V388.484H106.383V386.203H102.898V384.594H108.305ZM109.711 396.75V383.453H111.539V388.594H112.914V383.219H114.805V397.438H112.914V390.203H111.539V396.75H109.711ZM123.492 384.469V386.094H119.023V392.406C121.094 392.383 122.586 392.289 124.258 391.984L124.461 393.594C122.508 393.969 120.789 394.047 118.164 394.031H117.008V384.469H123.492ZM122.789 389.766V388.141H126.367V383.219H128.352V397.469H126.367V389.766H122.789ZM142.492 383.219V397.438H140.617V383.219H142.492ZM129.992 393.078C132.867 391.375 134.133 389.305 134.406 386.516H130.773V384.906H136.383C136.383 386.266 136.234 387.531 135.891 388.703H137.602V383.531H139.461V396.812H137.602V390.281H135.273C134.461 391.906 133.141 393.312 131.117 394.484L129.992 393.078ZM155.898 383.234V391.266H153.898V383.234H155.898ZM144.211 387.312C144.211 385.281 145.883 383.875 148.102 383.875C150.312 383.875 151.984 385.281 151.992 387.312C151.984 389.266 150.312 390.703 148.102 390.703C145.883 390.703 144.211 389.266 144.211 387.312ZM146.164 387.312C146.148 388.367 146.961 389.031 148.102 389.031C149.211 389.031 150.016 388.367 150.023 387.312C150.016 386.195 149.211 385.547 148.102 385.547C146.961 385.547 146.148 386.195 146.164 387.312ZM146.367 397.281V391.906H155.898V397.281H146.367ZM148.336 395.688H153.945V393.484H148.336V395.688ZM166.695 385.453C166.688 387.18 167.695 388.836 169.945 389.531L168.883 391.078C167.375 390.578 166.32 389.609 165.711 388.367C165.094 389.797 163.992 390.922 162.367 391.469L161.289 389.906C163.664 389.117 164.68 387.227 164.695 385.266V383.969H166.695V385.453ZM163.258 394.688C163.25 392.961 165.133 391.938 168.133 391.938C171.078 391.938 172.922 392.961 172.93 394.688C172.922 396.43 171.078 397.445 168.133 397.438C165.133 397.445 163.25 396.43 163.258 394.688ZM165.258 394.688C165.242 395.492 166.266 395.875 168.133 395.875C169.977 395.875 170.961 395.492 170.961 394.688C170.961 393.914 169.977 393.5 168.133 393.5C166.266 393.5 165.242 393.914 165.258 394.688ZM170.789 391.656V383.219H172.789V386.547H174.711V388.203H172.789V391.656H170.789ZM187.633 383.219V397.438H185.742V390.297H184.367V396.75H182.539V383.453H184.367V388.703H185.742V383.219H187.633ZM175.742 394.219V384.859H181.039V386.469H177.742V392.547C179.117 392.523 180.336 392.445 181.711 392.203L181.852 393.828C180.117 394.156 178.602 394.211 176.727 394.219H175.742ZM202.164 389.594V391.078H189.148V389.594H202.164ZM190.633 393.156V391.781H200.602V395.141H192.633V395.953H201.023V397.312H190.648V393.875H198.633V393.156H190.633ZM190.742 384.828V383.469H200.586V386.812H192.758V387.578H200.836V388.922H190.773V385.547H198.586V384.828H190.742ZM214.789 384.594V386.172H211.914C211.953 387.578 212.969 389 215.242 389.578L214.367 391.109C212.719 390.695 211.586 389.805 210.945 388.664C210.312 389.922 209.172 390.906 207.508 391.375L206.57 389.797C208.844 389.211 209.898 387.703 209.93 386.172H207.07V384.594H209.93V383.156H211.945V384.594H214.789ZM207.945 395.859C210.438 395.555 211.828 394.57 212.195 393.5H208.555V391.938H218.133V393.5H214.508C214.875 394.547 216.281 395.562 218.758 395.891L218.055 397.406C215.766 397.102 214.164 396.195 213.336 394.977C212.523 396.188 210.93 397.078 208.664 397.375L207.945 395.859ZM215.961 391.328V383.219H217.961V386.406H219.883V388.047H217.961V391.328H215.961ZM232.055 387.094V388.656H222.117V383.719H224.102V387.094H232.055ZM220.492 391.75V390.188H233.508V391.75H220.492ZM221.992 397.125V392.906H223.992V395.531H232.148V397.125H221.992ZM250.992 389.672V391.281H245.492V392.336C247.961 392.516 249.43 393.406 249.445 394.875C249.43 396.523 247.562 397.445 244.492 397.438C241.375 397.445 239.508 396.523 239.508 394.875C239.508 393.398 240.984 392.508 243.508 392.328V391.281H238.023V389.672H250.992ZM238.602 387.578C241.234 387.344 242.688 386.375 243.047 385.391H239.211V383.828H249.82V385.391H245.953C246.297 386.383 247.742 387.344 250.445 387.578L249.742 389.141C247.055 388.883 245.25 387.875 244.492 386.492C243.742 387.867 241.953 388.891 239.258 389.141L238.602 387.578ZM241.539 394.875C241.531 395.562 242.523 395.938 244.492 395.938C246.422 395.938 247.438 395.562 247.445 394.875C247.438 394.156 246.422 393.812 244.492 393.797C242.523 393.812 241.531 394.156 241.539 394.875ZM263.758 383.219V397.469H261.742V383.219H263.758ZM252.273 389.281C252.266 386.18 253.852 384.219 256.039 384.219C258.18 384.219 259.773 386.18 259.773 389.281C259.773 392.406 258.18 394.359 256.039 394.359C253.852 394.359 252.266 392.406 252.273 389.281ZM254.195 389.281C254.188 391.398 254.93 392.555 256.039 392.547C257.117 392.555 257.844 391.398 257.852 389.281C257.844 387.172 257.117 386.016 256.039 386.016C254.93 386.016 254.188 387.172 254.195 389.281ZM278.008 383.219V397.438H276.102V383.219H278.008ZM265.805 389.375C265.805 386.195 267.016 384.227 268.898 384.234C270.609 384.227 271.781 385.828 272 388.484H273.164V383.422H275.039V396.781H273.164V390.062H272.016C271.844 392.852 270.648 394.547 268.898 394.547C267.016 394.547 265.805 392.57 265.805 389.375ZM267.648 389.375C267.633 391.562 268.102 392.641 268.898 392.625C269.719 392.641 270.203 391.562 270.195 389.375C270.203 387.195 269.719 386.109 268.898 386.109C268.102 386.109 267.633 387.195 267.648 389.375ZM292.523 394.141V395.781H279.508V394.141H282.414V390.656C281.312 389.992 280.648 388.984 280.648 387.734C280.648 385.43 282.898 383.914 285.992 383.906C289.07 383.914 291.344 385.43 291.352 387.734C291.344 388.961 290.703 389.953 289.633 390.617V394.141H292.523ZM282.617 387.734C282.617 389.125 283.953 389.984 285.992 389.984C288 389.984 289.375 389.125 289.383 387.734C289.375 386.305 288 385.477 285.992 385.484C283.953 385.477 282.617 386.305 282.617 387.734ZM284.383 394.141H287.617V391.375C287.109 391.477 286.562 391.531 285.992 391.531C285.422 391.531 284.883 391.477 284.383 391.383V394.141Z" fill="white"/>
<path d="M216 446.5C216 457.27 207.27 466 196.5 466C185.73 466 177 457.27 177 446.5C177 435.73 185.73 427 196.5 427C207.27 427 216 435.73 216 446.5Z" stroke="#6DFCAF" stroke-width="2"/>
</g>
<defs>
<filter id="filter0_d_2076_3551" x="16" y="504" width="361" height="50" filterUnits="userSpaceOnUse" color-interpolation-filters="sRGB">
<feFlood flood-opacity="0" result="BackgroundImageFix"/>
<feColorMatrix in="SourceAlpha" type="matrix" values="0 0 0 0 0 0 0 0 0 0 0 0 0 0 0 0 0 0 127 0" result="hardAlpha"/>
<feOffset dy="4"/>
<feGaussianBlur stdDeviation="2"/>
<feComposite in2="hardAlpha" operator="out"/>
<feColorMatrix type="matrix" values="0 0 0 0 0 0 0 0 0 0 0 0 0 0 0 0 0 0 0.25 0"/>
<feBlend mode="normal" in2="BackgroundImageFix" result="effect1_dropShadow_2076_3551"/>
<feBlend mode="normal" in="SourceGraphic" in2="effect1_dropShadow_2076_3551" result="shape"/>
</filter>
<clipPath id="clip0_2076_3551">
<rect width="393" height="852" fill="white"/>
</clipPath>
</defs>
</svg>
