<svg width="393" height="852" viewBox="0 0 393 852" fill="none" xmlns="http://www.w3.org/2000/svg">
<rect width="393" height="852" fill="#2D2D2D"/>
<path d="M30.56 402.16H33.56V411.928C33.56 413.232 33.3 414.36 32.78 415.312C32.268 416.264 31.544 417 30.608 417.52C29.68 418.032 28.584 418.288 27.32 418.288C26.048 418.288 24.94 418.032 23.996 417.52C23.06 417 22.332 416.264 21.812 415.312C21.3 414.36 21.044 413.232 21.044 411.928V402.16H24.032V411.772C24.032 412.572 24.168 413.256 24.44 413.824C24.72 414.384 25.108 414.812 25.604 415.108C26.1 415.396 26.672 415.54 27.32 415.54C27.96 415.54 28.524 415.396 29.012 415.108C29.5 414.812 29.88 414.384 30.152 413.824C30.424 413.256 30.56 412.572 30.56 411.772V402.16ZM40.3846 407.86C40.9766 407.86 41.5246 407.916 42.0286 408.028C42.5326 408.132 42.9566 408.252 43.3006 408.388C43.6526 408.524 43.8846 408.64 43.9966 408.736L42.9526 410.572C42.7926 410.444 42.5046 410.292 42.0886 410.116C41.6806 409.94 41.2246 409.852 40.7206 409.852C40.2646 409.852 39.8806 409.932 39.5686 410.092C39.2566 410.244 39.1006 410.476 39.1006 410.788C39.1006 411.1 39.2686 411.348 39.6046 411.532C39.9406 411.716 40.4086 411.876 41.0086 412.012C41.5126 412.116 42.0086 412.276 42.4966 412.492C42.9846 412.7 43.3886 413.004 43.7086 413.404C44.0286 413.796 44.1886 414.32 44.1886 414.976C44.1886 415.624 44.0486 416.164 43.7686 416.596C43.4966 417.02 43.1326 417.356 42.6766 417.604C42.2206 417.852 41.7206 418.028 41.1766 418.132C40.6326 418.236 40.0926 418.288 39.5566 418.288C38.8606 418.288 38.2486 418.22 37.7206 418.084C37.1926 417.956 36.7566 417.808 36.4126 417.64C36.0766 417.464 35.8366 417.316 35.6926 417.196L36.7366 415.156C36.9446 415.34 37.2846 415.544 37.7566 415.768C38.2366 415.984 38.7526 416.092 39.3046 416.092C39.8806 416.092 40.3326 415.992 40.6606 415.792C40.9966 415.592 41.1646 415.324 41.1646 414.988C41.1646 414.74 41.0846 414.54 40.9246 414.388C40.7646 414.228 40.5446 414.096 40.2646 413.992C39.9846 413.888 39.6566 413.796 39.2806 413.716C38.9366 413.644 38.5846 413.54 38.2246 413.404C37.8646 413.26 37.5286 413.072 37.2166 412.84C36.9046 412.608 36.6526 412.32 36.4606 411.976C36.2686 411.624 36.1726 411.204 36.1726 410.716C36.1726 410.092 36.3726 409.572 36.7726 409.156C37.1726 408.732 37.6926 408.412 38.3326 408.196C38.9726 407.972 39.6566 407.86 40.3846 407.86ZM48.5908 413.752C48.6148 414.2 48.7348 414.6 48.9508 414.952C49.1668 415.304 49.4788 415.58 49.8868 415.78C50.3028 415.98 50.7988 416.08 51.3748 416.08C51.8948 416.08 52.3508 416.016 52.7428 415.888C53.1428 415.76 53.4788 415.604 53.7508 415.42C54.0308 415.228 54.2388 415.044 54.3748 414.868L55.6348 416.74C55.4108 417.02 55.1108 417.28 54.7348 417.52C54.3668 417.752 53.8948 417.936 53.3188 418.072C52.7508 418.216 52.0388 418.288 51.1828 418.288C50.1028 418.288 49.1548 418.076 48.3388 417.652C47.5228 417.228 46.8868 416.616 46.4308 415.816C45.9748 415.016 45.7468 414.064 45.7468 412.96C45.7468 412 45.9508 411.136 46.3588 410.368C46.7668 409.592 47.3588 408.98 48.1348 408.532C48.9188 408.084 49.8588 407.86 50.9548 407.86C51.9868 407.86 52.8788 408.06 53.6308 408.46C54.3908 408.852 54.9788 409.428 55.3948 410.188C55.8108 410.948 56.0188 411.876 56.0188 412.972C56.0188 413.036 56.0148 413.168 56.0068 413.368C56.0068 413.56 55.9988 413.688 55.9828 413.752H48.5908ZM53.1628 411.868C53.1548 411.612 53.0748 411.336 52.9228 411.04C52.7788 410.744 52.5508 410.492 52.2388 410.284C51.9268 410.076 51.5108 409.972 50.9908 409.972C50.4708 409.972 50.0428 410.072 49.7068 410.272C49.3788 410.472 49.1308 410.72 48.9628 411.016C48.7948 411.304 48.6988 411.588 48.6748 411.868H53.1628ZM60.9089 418H57.8609V408.148H60.9089V409.744H60.8489C60.9049 409.552 61.0569 409.308 61.3049 409.012C61.5609 408.716 61.9129 408.452 62.3609 408.22C62.8089 407.98 63.3489 407.86 63.9809 407.86C64.4369 407.86 64.8489 407.928 65.2169 408.064C65.5929 408.192 65.8609 408.32 66.0209 408.448L64.8209 410.944C64.7169 410.816 64.5209 410.684 64.2329 410.548C63.9529 410.412 63.6009 410.344 63.1769 410.344C62.6729 410.344 62.2529 410.484 61.9169 410.764C61.5809 411.036 61.3289 411.372 61.1609 411.772C60.9929 412.164 60.9089 412.532 60.9089 412.876V418ZM73.3456 402.16H79.4416C80.3376 402.16 81.1416 402.348 81.8536 402.724C82.5656 403.092 83.1296 403.632 83.5456 404.344C83.9696 405.048 84.1816 405.9 84.1816 406.9C84.1816 407.892 83.9976 408.708 83.6296 409.348C83.2616 409.98 82.8176 410.456 82.2976 410.776C81.7856 411.096 81.3096 411.28 80.8696 411.328L84.7576 418H81.3736L77.8576 411.556H76.3336V418H73.3456V402.16ZM76.3336 409.444H78.3736C79.1336 409.444 79.7776 409.256 80.3056 408.88C80.8416 408.504 81.1096 407.872 81.1096 406.984C81.1096 406.096 80.8456 405.472 80.3176 405.112C79.7896 404.744 79.1496 404.56 78.3976 404.56H76.3336V409.444ZM94.9732 418V416.284C94.9012 416.46 94.7172 416.708 94.4212 417.028C94.1252 417.348 93.7252 417.64 93.2212 417.904C92.7252 418.16 92.1412 418.288 91.4692 418.288C90.5252 418.288 89.6892 418.064 88.9612 417.616C88.2332 417.16 87.6612 416.54 87.2452 415.756C86.8372 414.964 86.6332 414.072 86.6332 413.08C86.6332 412.088 86.8372 411.2 87.2452 410.416C87.6612 409.624 88.2332 409 88.9612 408.544C89.6892 408.088 90.5252 407.86 91.4692 407.86C92.1252 407.86 92.6932 407.972 93.1732 408.196C93.6612 408.412 94.0532 408.668 94.3492 408.964C94.6532 409.252 94.8492 409.512 94.9372 409.744V408.148H97.9612V418H94.9732ZM89.6212 413.08C89.6212 413.632 89.7452 414.12 89.9932 414.544C90.2412 414.96 90.5692 415.284 90.9772 415.516C91.3852 415.748 91.8292 415.864 92.3092 415.864C92.8132 415.864 93.2612 415.748 93.6532 415.516C94.0452 415.276 94.3532 414.948 94.5772 414.532C94.8092 414.108 94.9252 413.624 94.9252 413.08C94.9252 412.536 94.8092 412.056 94.5772 411.64C94.3532 411.216 94.0452 410.884 93.6532 410.644C93.2612 410.404 92.8132 410.284 92.3092 410.284C91.8292 410.284 91.3852 410.404 90.9772 410.644C90.5692 410.876 90.2412 411.204 89.9932 411.628C89.7452 412.044 89.6212 412.528 89.6212 413.08ZM106.751 407.86C107.423 407.86 108.079 408 108.719 408.28C109.359 408.552 109.883 408.988 110.291 409.588C110.707 410.188 110.915 410.972 110.915 411.94V418H107.855V412.468C107.855 411.66 107.663 411.06 107.279 410.668C106.903 410.276 106.407 410.08 105.791 410.08C105.391 410.08 105.007 410.192 104.639 410.416C104.279 410.632 103.983 410.936 103.751 411.328C103.527 411.712 103.415 412.152 103.415 412.648V418H100.367V408.148H103.415V409.72C103.503 409.448 103.703 409.168 104.015 408.88C104.327 408.592 104.723 408.352 105.203 408.16C105.683 407.96 106.199 407.86 106.751 407.86ZM119.74 408.148H123.244L118.432 412.852L123.676 418H120.088L115.996 413.884V418H112.948V401.488H115.996V411.76L119.74 408.148ZM125.006 418V408.148H128.042V418H125.006ZM126.566 405.604C126.062 405.604 125.634 405.428 125.282 405.076C124.938 404.724 124.766 404.304 124.766 403.816C124.766 403.328 124.942 402.904 125.294 402.544C125.646 402.184 126.07 402.004 126.566 402.004C126.894 402.004 127.194 402.088 127.466 402.256C127.738 402.416 127.958 402.632 128.126 402.904C128.294 403.176 128.378 403.48 128.378 403.816C128.378 404.304 128.198 404.724 127.838 405.076C127.486 405.428 127.062 405.604 126.566 405.604ZM137.103 407.86C137.775 407.86 138.431 408 139.071 408.28C139.711 408.552 140.235 408.988 140.643 409.588C141.059 410.188 141.267 410.972 141.267 411.94V418H138.207V412.468C138.207 411.66 138.015 411.06 137.631 410.668C137.255 410.276 136.759 410.08 136.143 410.08C135.743 410.08 135.359 410.192 134.991 410.416C134.631 410.632 134.335 410.936 134.103 411.328C133.879 411.712 133.767 412.152 133.767 412.648V418H130.719V408.148H133.767V409.72C133.855 409.448 134.055 409.168 134.367 408.88C134.679 408.592 135.075 408.352 135.555 408.16C136.035 407.96 136.551 407.86 137.103 407.86ZM148.627 423.268C147.907 423.268 147.215 423.2 146.551 423.064C145.895 422.928 145.299 422.716 144.763 422.428C144.227 422.14 143.779 421.764 143.419 421.3L145.267 419.428C145.435 419.644 145.651 419.86 145.915 420.076C146.187 420.3 146.531 420.484 146.947 420.628C147.363 420.78 147.883 420.856 148.507 420.856C149.099 420.856 149.607 420.74 150.031 420.508C150.463 420.284 150.795 419.964 151.027 419.548C151.267 419.132 151.387 418.648 151.387 418.096V417.82H154.375V418.276C154.375 419.364 154.119 420.28 153.607 421.024C153.095 421.768 152.407 422.328 151.543 422.704C150.679 423.08 149.707 423.268 148.627 423.268ZM151.387 418V416.284C151.315 416.46 151.131 416.708 150.835 417.028C150.539 417.348 150.139 417.64 149.635 417.904C149.139 418.16 148.555 418.288 147.883 418.288C146.939 418.288 146.103 418.064 145.375 417.616C144.647 417.16 144.075 416.54 143.659 415.756C143.251 414.964 143.047 414.072 143.047 413.08C143.047 412.088 143.251 411.2 143.659 410.416C144.075 409.624 144.647 409 145.375 408.544C146.103 408.088 146.939 407.86 147.883 407.86C148.539 407.86 149.107 407.972 149.587 408.196C150.075 408.412 150.467 408.668 150.763 408.964C151.067 409.252 151.263 409.512 151.351 409.744V408.148H154.375V418H151.387ZM146.035 413.08C146.035 413.632 146.159 414.12 146.407 414.544C146.655 414.96 146.983 415.284 147.391 415.516C147.799 415.748 148.243 415.864 148.723 415.864C149.227 415.864 149.675 415.748 150.067 415.516C150.459 415.276 150.767 414.948 150.991 414.532C151.223 414.108 151.339 413.624 151.339 413.08C151.339 412.536 151.223 412.056 150.991 411.64C150.767 411.216 150.459 410.884 150.067 410.644C149.675 410.404 149.227 410.284 148.723 410.284C148.243 410.284 147.799 410.404 147.391 410.644C146.983 410.876 146.655 411.204 146.407 411.628C146.159 412.044 146.035 412.528 146.035 413.08Z" fill="white"/>
<g filter="url(#filter0_d_2438_6287)">
<rect x="20" y="444" width="353" height="42" rx="16" fill="white" fill-opacity="0.1" shape-rendering="crispEdges"/>
<rect x="20.5" y="444.5" width="352" height="41" rx="15.5" stroke="white" shape-rendering="crispEdges"/>
</g>
<path d="M39.574 459.649L37.264 460.859V457.735L41.312 455.48H42.863V470H39.574V459.649Z" fill="#6DFCAF"/>
<path d="M67.2656 459.375C69.3594 459.383 70.8516 461.289 70.8594 464.281C70.8516 467.305 69.3594 469.211 67.2656 469.203C65.1719 469.211 63.6797 467.305 63.6875 464.281C63.6797 461.289 65.1719 459.383 67.2656 459.375ZM65.1094 464.281C65.1016 466.508 65.9922 467.875 67.2656 467.875C68.5625 467.875 69.4375 466.508 69.4375 464.281C69.4375 462.086 68.5625 460.711 67.2656 460.703C65.9922 460.711 65.1016 462.086 65.1094 464.281ZM72.9375 472.328V458.328H74.4219V463.812H76.6719V465.062H74.4219V472.328H72.9375ZM89.3906 458.328V472.328H87.9688V458.328H89.3906ZM77.5 464.375C77.5 461.344 78.6875 459.445 80.5156 459.453C82.2188 459.445 83.3672 461.062 83.5391 463.688H85.125V458.594H86.5469V471.641H85.125V464.891H83.5469C83.4141 467.625 82.25 469.32 80.5156 469.312C78.6875 469.32 77.5 467.414 77.5 464.375ZM78.875 464.375C78.875 466.602 79.5078 467.914 80.5156 467.906C81.5469 467.914 82.1875 466.602 82.1875 464.375C82.1875 462.141 81.5469 460.836 80.5156 460.844C79.5078 460.836 78.875 462.141 78.875 464.375ZM102.766 458.328V472.359H101.281V458.328H102.766ZM91.6562 464.281C91.6562 461.289 93.1641 459.383 95.2812 459.375C97.3594 459.383 98.8906 461.289 98.8906 464.281C98.8906 467.305 97.3594 469.211 95.2812 469.203C93.1641 469.211 91.6562 467.305 91.6562 464.281ZM93.0938 464.281C93.0859 466.508 93.9766 467.875 95.2812 467.875C96.5625 467.875 97.4531 466.508 97.4531 464.281C97.4531 462.086 96.5625 460.711 95.2812 460.703C93.9766 460.711 93.0859 462.086 93.0938 464.281ZM111.375 459.172C114.367 459.18 116.547 460.656 116.547 462.891C116.547 464.984 114.719 466.383 112.109 466.594V469.344H117.812V470.578H105V469.344H110.641V466.594C108.047 466.383 106.211 464.984 106.219 462.891C106.211 460.656 108.398 459.18 111.375 459.172ZM107.656 462.891C107.656 464.461 109.219 465.438 111.375 465.453C113.547 465.438 115.102 464.461 115.109 462.891C115.102 461.375 113.547 460.375 111.375 460.391C109.219 460.375 107.656 461.375 107.656 462.891ZM131.625 466.281V467.516H125.906V472.328H124.453V467.516H118.812V466.281H131.625ZM120.203 461.969C120.211 460.062 122.227 458.859 125.188 458.859C128.148 458.859 130.18 460.062 130.172 461.969C130.18 463.852 128.148 465.047 125.188 465.047C122.227 465.047 120.211 463.852 120.203 461.969ZM121.734 461.969C121.727 463.133 123.109 463.859 125.188 463.859C127.273 463.859 128.648 463.133 128.656 461.969C128.648 460.789 127.273 460.055 125.188 460.047C123.109 460.055 121.727 460.789 121.734 461.969Z" fill="white"/>
<rect x="20" y="498" width="353" height="42" rx="16" fill="white" fill-opacity="0.1"/>
<path d="M40.149 512.01C39.665 512.01 39.236 512.127 38.862 512.362C38.4953 512.589 38.1837 512.857 37.927 513.165C37.6777 513.473 37.487 513.755 37.355 514.012C37.223 514.261 37.1497 514.408 37.135 514.452L34.319 513.165C34.3337 513.07 34.4033 512.879 34.528 512.593C34.6527 512.3 34.8507 511.962 35.122 511.581C35.3933 511.2 35.749 510.829 36.189 510.47C36.6363 510.111 37.1863 509.814 37.839 509.579C38.4917 509.337 39.2617 509.216 40.149 509.216C41.1757 509.216 42.0263 509.363 42.701 509.656C43.383 509.949 43.9183 510.334 44.307 510.811C44.703 511.28 44.9853 511.79 45.154 512.34C45.3227 512.89 45.407 513.418 45.407 513.924C45.407 514.555 45.2787 515.167 45.022 515.761C44.7727 516.348 44.4463 516.905 44.043 517.433C43.6397 517.954 43.207 518.434 42.745 518.874C42.283 519.307 41.8393 519.688 41.414 520.018C40.996 520.341 40.6403 520.597 40.347 520.788C40.0537 520.979 39.8777 521.096 39.819 521.14H45.286V524H34.869V521.393C34.979 521.312 35.2283 521.133 35.617 520.854C36.0057 520.575 36.4713 520.227 37.014 519.809C37.564 519.391 38.1323 518.933 38.719 518.434C39.313 517.928 39.863 517.407 40.369 516.872C40.8823 516.337 41.3003 515.812 41.623 515.299C41.9457 514.786 42.107 514.313 42.107 513.88C42.107 513.198 41.9347 512.718 41.59 512.439C41.2527 512.153 40.7723 512.01 40.149 512.01Z" fill="#6DFCAF"/>
<path d="M70.3125 516.672C70.2031 515.617 69.2812 515.016 67.9844 515.016C66.6016 515.016 65.7266 515.727 65.7188 516.688C65.7188 517.758 66.8828 518.18 67.7812 518.391L68.875 518.688C70.3203 519.039 72.1328 519.828 72.1406 521.875C72.1328 523.789 70.6094 525.188 67.9375 525.188C65.4062 525.188 63.8125 523.922 63.7031 521.859H65.4219C65.5234 523.094 66.6172 523.68 67.9375 523.688C69.3828 523.68 70.4297 522.953 70.4375 521.844C70.4297 520.859 69.4922 520.461 68.2969 520.141L66.9531 519.781C65.1328 519.281 64.0078 518.359 64 516.781C64.0078 514.828 65.7422 513.531 68.0312 513.531C70.3281 513.531 71.9297 514.844 71.9844 516.672H70.3125ZM77.4375 525.172C75.0312 525.172 73.4609 523.422 73.4688 520.797C73.4609 518.156 75.0312 516.406 77.4375 516.406C79.8281 516.406 81.3906 518.156 81.3906 520.797C81.3906 523.422 79.8281 525.172 77.4375 525.172ZM75.1406 520.797C75.1406 522.414 75.8828 523.781 77.4375 523.781C78.9688 523.781 79.7031 522.414 79.7031 520.797C79.7031 519.172 78.9688 517.789 77.4375 517.781C75.8828 517.789 75.1406 519.172 75.1406 520.797ZM86.625 525.172C84.2188 525.172 82.6484 523.422 82.6562 520.797C82.6484 518.156 84.2188 516.406 86.625 516.406C89.0156 516.406 90.5781 518.156 90.5781 520.797C90.5781 523.422 89.0156 525.172 86.625 525.172ZM84.3281 520.797C84.3281 522.414 85.0703 523.781 86.625 523.781C88.1562 523.781 88.8906 522.414 88.8906 520.797C88.8906 519.172 88.1562 517.789 86.625 517.781C85.0703 517.789 84.3281 519.172 84.3281 520.797ZM92.9531 528.188C92.6094 528.18 92.2734 528.172 92.0625 528.141V526.75C92.25 526.766 92.5781 526.773 92.8125 526.781C93.3281 526.773 93.7578 526.742 94.1562 525.672L94.3594 525.109L91.25 516.516H93.0312L95.1719 523.094H95.2656L97.4062 516.516H99.2031L95.7031 526.125C95.2109 527.469 94.3516 528.18 92.9531 528.188ZM99.9062 522.609C99.8984 520.672 101.547 520.172 103.078 520.062C103.641 520.031 104.914 519.961 105.305 519.945L105.297 519.266C105.305 518.305 104.711 517.75 103.578 517.75C102.594 517.75 102 518.203 101.828 518.828H100.172C100.32 517.422 101.633 516.406 103.641 516.406C104.992 516.406 106.961 516.898 106.969 519.359V525H105.344V523.844H105.281C104.953 524.477 104.172 525.188 102.766 525.188C101.156 525.188 99.8984 524.266 99.9062 522.609ZM101.531 522.625C101.531 523.438 102.203 523.852 103.141 523.859C104.5 523.852 105.312 522.945 105.312 521.938L105.305 521.164C104.922 521.188 103.711 521.273 103.312 521.297C102.219 521.375 101.531 521.789 101.531 522.625ZM110.656 519.969V525H108.984V516.516H110.594V517.906H110.688C111.086 516.992 111.922 516.406 113.188 516.406C114.93 516.406 116.086 517.508 116.078 519.609V525H114.422V519.812C114.414 518.578 113.75 517.844 112.625 517.844C111.477 517.844 110.656 518.617 110.656 519.969ZM121.672 528.359C119.531 528.359 118.117 527.414 117.969 525.828H119.672C119.836 526.633 120.586 527.023 121.688 527.016C123.016 527.023 123.852 526.445 123.859 525.125V523.453H123.75C123.453 524 122.844 524.875 121.281 524.875C119.281 524.875 117.734 523.383 117.734 520.672C117.734 517.961 119.258 516.406 121.297 516.406C122.875 516.406 123.453 517.359 123.766 517.891H123.875V516.516H125.5V525.188C125.508 527.367 123.859 528.359 121.672 528.359ZM119.438 520.703C119.43 522.367 120.195 523.492 121.656 523.5C123.078 523.492 123.875 522.453 123.875 520.703C123.875 518.984 123.094 517.82 121.656 517.828C120.18 517.82 119.43 519.078 119.438 520.703Z" fill="white"/>
<rect x="20" y="552" width="353" height="42" rx="16" fill="white" fill-opacity="0.1"/>
<path d="M34.737 566.384C34.8177 566.091 34.9753 565.761 35.21 565.394C35.4447 565.027 35.7637 564.679 36.167 564.349C36.5777 564.019 37.0763 563.748 37.663 563.535C38.257 563.322 38.9427 563.216 39.72 563.216C40.644 563.216 41.4617 563.388 42.173 563.733C42.8917 564.07 43.4563 564.543 43.867 565.152C44.2777 565.761 44.483 566.472 44.483 567.286C44.483 567.777 44.395 568.228 44.219 568.639C44.043 569.042 43.8157 569.38 43.537 569.651C43.2583 569.922 42.965 570.098 42.657 570.179C43.0163 570.223 43.3757 570.388 43.735 570.674C44.1017 570.96 44.4097 571.341 44.659 571.818C44.9157 572.295 45.044 572.856 45.044 573.501C45.044 574.425 44.8093 575.246 44.34 575.965C43.878 576.676 43.2437 577.237 42.437 577.648C41.6303 578.059 40.7063 578.264 39.665 578.264C38.587 578.264 37.6703 578.073 36.915 577.692C36.167 577.311 35.5693 576.845 35.122 576.295C34.682 575.745 34.3887 575.213 34.242 574.7L37.256 573.204C37.344 573.519 37.4907 573.849 37.696 574.194C37.9087 574.539 38.18 574.832 38.51 575.074C38.84 575.309 39.2213 575.426 39.654 575.426C40.1013 575.426 40.4827 575.338 40.798 575.162C41.1133 574.986 41.3553 574.748 41.524 574.447C41.7 574.139 41.788 573.787 41.788 573.391C41.788 572.98 41.689 572.639 41.491 572.368C41.3003 572.097 41.0437 571.895 40.721 571.763C40.3983 571.631 40.0427 571.565 39.654 571.565H39.368V569.211H39.742C40.0793 569.211 40.3837 569.145 40.655 569.013C40.9263 568.874 41.139 568.679 41.293 568.43C41.4543 568.173 41.535 567.873 41.535 567.528C41.535 567.066 41.3773 566.674 41.062 566.351C40.7467 566.021 40.2883 565.856 39.687 565.856C39.3203 565.856 38.9977 565.922 38.719 566.054C38.4477 566.179 38.2203 566.34 38.037 566.538C37.8537 566.729 37.707 566.927 37.597 567.132C37.4943 567.33 37.4283 567.502 37.399 567.649L34.737 566.384Z" fill="#6DFCAF"/>
<path d="M64.1562 579V567.688H65.875V572.594H71.5V567.688H73.2188V579H71.5V574.062H65.875V579H64.1562ZM75.3906 579V570.516H77.0625V579H75.3906ZM75.1719 568.219C75.1797 567.672 75.6562 567.234 76.2344 567.234C76.8047 567.234 77.2812 567.672 77.2812 568.219C77.2812 568.766 76.8047 569.211 76.2344 569.203C75.6562 569.211 75.1797 568.766 75.1719 568.219ZM79.0938 579V570.516H80.7031V571.906H80.7969C81.1562 570.961 81.9922 570.406 83.1094 570.406C84.2422 570.406 85.0312 570.961 85.3906 571.906H85.4844C85.8828 570.992 86.8047 570.406 88.0312 570.406C89.5625 570.406 90.6484 571.367 90.6562 573.312V579H88.9844V573.469C88.9844 572.32 88.2656 571.844 87.3906 571.844C86.3203 571.844 85.7031 572.578 85.7031 573.594V579H84.0469V573.375C84.0469 572.445 83.4141 571.844 82.5 571.844C81.5625 571.844 80.7656 572.625 80.7656 573.766V579H79.0938Z" fill="white"/>
<rect x="20" y="606" width="353" height="42" rx="16" fill="white" fill-opacity="0.1"/>
<path d="M43.339 617.48V626.071H45.022V628.942H43.339V632H40.061V628.942H34.077V626.335L39.566 617.48H43.339ZM40.061 626.071V621.693H40.039L37.388 626.071H40.061Z" fill="white"/>
<path d="M66.3906 633L63.25 621.688H65.0625L67.2656 630.438H67.3594L69.6562 621.688H71.4375L73.7344 630.438H73.8281L76.0312 621.688H77.8438L74.7031 633H72.9688L70.5938 624.547H70.5L68.125 633H66.3906ZM88.5 627.344C88.5 630.961 86.3281 633.156 83.4062 633.156C80.4609 633.156 78.2969 630.953 78.2969 627.344C78.2969 623.727 80.4609 621.531 83.4062 621.531C86.3281 621.531 88.5 623.727 88.5 627.344ZM80 627.344C80.0078 630.094 81.4531 631.586 83.4062 631.578C85.3438 631.586 86.7891 630.094 86.7969 627.344C86.7891 624.594 85.3438 623.102 83.4062 623.109C81.4531 623.102 80.0078 624.594 80 627.344ZM99.5625 621.688V633H97.9844L92.25 624.734H92.1562V633H90.4375V621.688H92.0312L97.7656 629.969H97.875V621.688H99.5625ZM101.875 633V621.688H103.594V631.516H108.703V633H101.875ZM112.188 621.688V633H110.469V621.688H112.188ZM114.484 621.688H116.578L120.156 630.453H120.297L123.875 621.688H125.969V633H124.328V624.828H124.219L120.906 632.984H119.547L116.219 624.812H116.125V633H114.484V621.688Z" fill="white"/>
<rect x="20" y="660" width="353" height="42" rx="16" fill="white" fill-opacity="0.1"/>
<path d="M37.278 681.908C37.344 682.113 37.4357 682.311 37.553 682.502C37.6703 682.693 37.817 682.865 37.993 683.019C38.169 683.173 38.3817 683.294 38.631 683.382C38.8803 683.47 39.1737 683.514 39.511 683.514C40.193 683.514 40.721 683.298 41.095 682.865C41.4763 682.425 41.6633 681.857 41.656 681.16C41.6487 680.493 41.4653 679.968 41.106 679.587C40.754 679.206 40.27 679.015 39.654 679.015C39.258 679.015 38.917 679.085 38.631 679.224C38.345 679.363 38.1103 679.525 37.927 679.708C37.751 679.891 37.6263 680.06 37.553 680.214L34.836 679.224L36.123 671.48H44.285V674.34H38.884L38.433 677.079C38.4697 677.028 38.5833 676.947 38.774 676.837C38.972 676.727 39.2287 676.628 39.544 676.54C39.8667 676.445 40.2297 676.397 40.633 676.397C41.3517 676.397 42.041 676.555 42.701 676.87C43.361 677.185 43.9037 677.68 44.329 678.355C44.7543 679.03 44.967 679.902 44.967 680.973C44.967 682.044 44.736 682.979 44.274 683.778C43.8193 684.57 43.1923 685.182 42.393 685.615C41.5937 686.048 40.677 686.264 39.643 686.264C38.8583 686.264 38.169 686.172 37.575 685.989C36.9883 685.798 36.486 685.549 36.068 685.241C35.65 684.933 35.309 684.599 35.045 684.24C34.7883 683.873 34.594 683.514 34.462 683.162L37.278 681.908Z" fill="white"/>
<path d="M71.4219 675.688H73.1406V683.125C73.1484 685.5 71.3594 687.188 68.6562 687.188C65.9297 687.188 64.1484 685.5 64.1562 683.125V675.688H65.875V682.984C65.8672 684.516 66.9375 685.617 68.6562 685.625C70.3672 685.617 71.4219 684.516 71.4219 682.984V675.688ZM75.3125 687V678.516H76.9844V687H75.3125ZM75.0938 676.219C75.1016 675.672 75.5781 675.234 76.1562 675.234C76.7266 675.234 77.2031 675.672 77.2031 676.219C77.2031 676.766 76.7266 677.211 76.1562 677.203C75.5781 677.211 75.1016 676.766 75.0938 676.219ZM80.0469 690.188C79.7031 690.18 79.3672 690.172 79.1562 690.141V688.75C79.3438 688.766 79.6719 688.773 79.9062 688.781C80.4219 688.773 80.8516 688.742 81.25 687.672L81.4531 687.109L78.3438 678.516H80.125L82.2656 685.094H82.3594L84.5 678.516H86.2969L82.7969 688.125C82.3047 689.469 81.4453 690.18 80.0469 690.188ZM91.0156 687.172C88.5156 687.172 86.9766 685.445 86.9844 682.812C86.9766 680.203 88.5391 678.406 90.9062 678.406C92.8359 678.406 94.6719 679.602 94.6719 682.672V683.266H88.6406C88.6875 684.883 89.6406 685.797 91.0312 685.797C91.9766 685.797 92.5938 685.391 92.875 684.875H94.5625C94.1875 686.25 92.8828 687.172 91.0156 687.172ZM88.6484 682.016H93.0312C93.0312 680.727 92.1953 679.773 90.9219 679.781C89.5859 679.773 88.7188 680.82 88.6484 682.016ZM99.9219 687.172C97.5156 687.172 95.9453 685.422 95.9531 682.797C95.9453 680.156 97.5156 678.406 99.9219 678.406C102.312 678.406 103.875 680.156 103.875 682.797C103.875 685.422 102.312 687.172 99.9219 687.172ZM97.625 682.797C97.625 684.414 98.3672 685.781 99.9219 685.781C101.453 685.781 102.188 684.414 102.188 682.797C102.188 681.172 101.453 679.789 99.9219 679.781C98.3672 679.789 97.625 681.172 97.625 682.797ZM107.188 681.969V687H105.516V678.516H107.125V679.906H107.219C107.617 678.992 108.453 678.406 109.719 678.406C111.461 678.406 112.617 679.508 112.609 681.609V687H110.953V681.812C110.945 680.578 110.281 679.844 109.156 679.844C108.008 679.844 107.188 680.617 107.188 681.969Z" fill="white"/>
<circle cx="196.5" cy="722.5" r="3.5" fill="#D9D9D9"/>
<circle cx="211.5" cy="722.5" r="3.5" fill="#D9D9D9"/>
<circle cx="181.5" cy="722.5" r="3.5" fill="#6DFCAF"/>
<rect x="146" y="232" width="183" height="28" rx="14" fill="#424242"/>
<path d="M367 418L373 412L367 406" stroke="white" stroke-width="2" stroke-linecap="round" stroke-linejoin="round"/>
<rect x="65" y="232" width="132" height="28" rx="14" fill="white"/>
<path d="M104.882 240.12H107.132V250.011H111.587V252H104.882V240.12ZM119.238 252V250.713C119.184 250.845 119.046 251.031 118.824 251.271C118.602 251.511 118.302 251.73 117.924 251.928C117.552 252.12 117.114 252.216 116.61 252.216C115.902 252.216 115.275 252.048 114.729 251.712C114.183 251.37 113.754 250.905 113.442 250.317C113.136 249.723 112.983 249.054 112.983 248.31C112.983 247.566 113.136 246.9 113.442 246.312C113.754 245.718 114.183 245.25 114.729 244.908C115.275 244.566 115.902 244.395 116.61 244.395C117.102 244.395 117.528 244.479 117.888 244.647C118.254 244.809 118.548 245.001 118.77 245.223C118.998 245.439 119.145 245.634 119.211 245.808V244.611H121.479V252H119.238ZM115.224 248.31C115.224 248.724 115.317 249.09 115.503 249.408C115.689 249.72 115.935 249.963 116.241 250.137C116.547 250.311 116.88 250.398 117.24 250.398C117.618 250.398 117.954 250.311 118.248 250.137C118.542 249.957 118.773 249.711 118.941 249.399C119.115 249.081 119.202 248.718 119.202 248.31C119.202 247.902 119.115 247.542 118.941 247.23C118.773 246.912 118.542 246.663 118.248 246.483C117.954 246.303 117.618 246.213 117.24 246.213C116.88 246.213 116.547 246.303 116.241 246.483C115.935 246.657 115.689 246.903 115.503 247.221C115.317 247.533 115.224 247.896 115.224 248.31ZM126.559 252.216C125.857 252.216 125.239 252.048 124.705 251.712C124.177 251.37 123.763 250.905 123.463 250.317C123.169 249.723 123.022 249.054 123.022 248.31C123.022 247.566 123.169 246.9 123.463 246.312C123.763 245.718 124.177 245.25 124.705 244.908C125.239 244.566 125.857 244.395 126.559 244.395C127.057 244.395 127.498 244.476 127.882 244.638C128.272 244.8 128.584 244.992 128.818 245.214C129.052 245.436 129.19 245.634 129.232 245.808V239.616H131.527V252H129.259V250.713C129.163 250.923 128.986 251.145 128.728 251.379C128.47 251.613 128.155 251.811 127.783 251.973C127.411 252.135 127.003 252.216 126.559 252.216ZM127.207 250.398C127.591 250.398 127.936 250.311 128.242 250.137C128.548 249.957 128.788 249.711 128.962 249.399C129.142 249.081 129.232 248.718 129.232 248.31C129.232 247.902 129.142 247.542 128.962 247.23C128.788 246.912 128.548 246.663 128.242 246.483C127.936 246.303 127.591 246.213 127.207 246.213C126.853 246.213 126.529 246.303 126.235 246.483C125.941 246.657 125.704 246.903 125.524 247.221C125.35 247.533 125.263 247.896 125.263 248.31C125.263 248.724 125.35 249.09 125.524 249.408C125.704 249.72 125.941 249.963 126.235 250.137C126.529 250.311 126.853 250.398 127.207 250.398ZM136.368 252.216C135.666 252.216 135.048 252.048 134.514 251.712C133.986 251.37 133.572 250.905 133.272 250.317C132.978 249.723 132.831 249.054 132.831 248.31C132.831 247.566 132.978 246.9 133.272 246.312C133.572 245.718 133.986 245.25 134.514 244.908C135.048 244.566 135.666 244.395 136.368 244.395C136.866 244.395 137.307 244.476 137.691 244.638C138.081 244.8 138.393 244.992 138.627 245.214C138.861 245.436 138.999 245.634 139.041 245.808V239.616H141.336V252H139.068V250.713C138.972 250.923 138.795 251.145 138.537 251.379C138.279 251.613 137.964 251.811 137.592 251.973C137.22 252.135 136.812 252.216 136.368 252.216ZM137.016 250.398C137.4 250.398 137.745 250.311 138.051 250.137C138.357 249.957 138.597 249.711 138.771 249.399C138.951 249.081 139.041 248.718 139.041 248.31C139.041 247.902 138.951 247.542 138.771 247.23C138.597 246.912 138.357 246.663 138.051 246.483C137.745 246.303 137.4 246.213 137.016 246.213C136.662 246.213 136.338 246.303 136.044 246.483C135.75 246.657 135.513 246.903 135.333 247.221C135.159 247.533 135.072 247.896 135.072 248.31C135.072 248.724 135.159 249.09 135.333 249.408C135.513 249.72 135.75 249.963 136.044 250.137C136.338 250.311 136.662 250.398 137.016 250.398ZM144.674 248.814C144.692 249.15 144.782 249.45 144.944 249.714C145.106 249.978 145.34 250.185 145.646 250.335C145.958 250.485 146.33 250.56 146.762 250.56C147.152 250.56 147.494 250.512 147.788 250.416C148.088 250.32 148.34 250.203 148.544 250.065C148.754 249.921 148.91 249.783 149.012 249.651L149.957 251.055C149.789 251.265 149.564 251.46 149.282 251.64C149.006 251.814 148.652 251.952 148.22 252.054C147.794 252.162 147.26 252.216 146.618 252.216C145.808 252.216 145.097 252.057 144.485 251.739C143.873 251.421 143.396 250.962 143.054 250.362C142.712 249.762 142.541 249.048 142.541 248.22C142.541 247.5 142.694 246.852 143 246.276C143.306 245.694 143.75 245.235 144.332 244.899C144.92 244.563 145.625 244.395 146.447 244.395C147.221 244.395 147.89 244.545 148.454 244.845C149.024 245.139 149.465 245.571 149.777 246.141C150.089 246.711 150.245 247.407 150.245 248.229C150.245 248.277 150.242 248.376 150.236 248.526C150.236 248.67 150.23 248.766 150.218 248.814H144.674ZM148.103 247.401C148.097 247.209 148.037 247.002 147.923 246.78C147.815 246.558 147.644 246.369 147.41 246.213C147.176 246.057 146.864 245.979 146.474 245.979C146.084 245.979 145.763 246.054 145.511 246.204C145.265 246.354 145.079 246.54 144.953 246.762C144.827 246.978 144.755 247.191 144.737 247.401H148.103ZM153.912 252H151.626V244.611H153.912V245.808H153.867C153.909 245.664 154.023 245.481 154.209 245.259C154.401 245.037 154.665 244.839 155.001 244.665C155.337 244.485 155.742 244.395 156.216 244.395C156.558 244.395 156.867 244.446 157.143 244.548C157.425 244.644 157.626 244.74 157.746 244.836L156.846 246.708C156.768 246.612 156.621 246.513 156.405 246.411C156.195 246.309 155.931 246.258 155.613 246.258C155.235 246.258 154.92 246.363 154.668 246.573C154.416 246.777 154.227 247.029 154.101 247.329C153.975 247.623 153.912 247.899 153.912 248.157V252Z" fill="#2D2D2D"/>
<path d="M236.934 242.199L237.087 242.226V252H234.846V240.12H237.942L243.27 249.876L243.117 249.912V240.12H245.358V252H242.244L236.934 242.199ZM251.146 252.216C250.36 252.216 249.658 252.048 249.04 251.712C248.428 251.376 247.948 250.917 247.6 250.335C247.252 249.747 247.078 249.078 247.078 248.328C247.078 247.578 247.252 246.909 247.6 246.321C247.948 245.727 248.428 245.259 249.04 244.917C249.658 244.569 250.36 244.395 251.146 244.395C251.938 244.395 252.637 244.569 253.243 244.917C253.849 245.259 254.323 245.727 254.665 246.321C255.007 246.909 255.178 247.578 255.178 248.328C255.178 249.078 255.007 249.747 254.665 250.335C254.323 250.917 253.849 251.376 253.243 251.712C252.637 252.048 251.938 252.216 251.146 252.216ZM251.146 250.317C251.524 250.317 251.851 250.233 252.127 250.065C252.409 249.891 252.625 249.654 252.775 249.354C252.931 249.048 253.009 248.703 253.009 248.319C253.009 247.935 252.931 247.59 252.775 247.284C252.625 246.978 252.409 246.738 252.127 246.564C251.851 246.384 251.524 246.294 251.146 246.294C250.768 246.294 250.438 246.384 250.156 246.564C249.88 246.738 249.664 246.978 249.508 247.284C249.352 247.59 249.274 247.935 249.274 248.319C249.274 248.703 249.352 249.048 249.508 249.354C249.664 249.654 249.88 249.891 250.156 250.065C250.438 250.233 250.768 250.317 251.146 250.317ZM258.846 252H256.56V244.611H258.846V245.808H258.801C258.843 245.664 258.957 245.481 259.143 245.259C259.335 245.037 259.599 244.839 259.935 244.665C260.271 244.485 260.676 244.395 261.15 244.395C261.492 244.395 261.801 244.446 262.077 244.548C262.359 244.644 262.56 244.74 262.68 244.836L261.78 246.708C261.702 246.612 261.555 246.513 261.339 246.411C261.129 246.309 260.865 246.258 260.547 246.258C260.169 246.258 259.854 246.363 259.602 246.573C259.35 246.777 259.161 247.029 259.035 247.329C258.909 247.623 258.846 247.899 258.846 248.157V252ZM273.199 244.395C273.751 244.395 274.231 244.512 274.639 244.746C275.053 244.98 275.374 245.34 275.602 245.826C275.836 246.306 275.953 246.924 275.953 247.68V252H273.703V248.049C273.703 247.425 273.61 246.939 273.424 246.591C273.244 246.243 272.899 246.069 272.389 246.069C272.101 246.069 271.837 246.147 271.597 246.303C271.357 246.453 271.165 246.675 271.021 246.969C270.883 247.263 270.814 247.623 270.814 248.049V252H268.708V248.049C268.708 247.425 268.603 246.939 268.393 246.591C268.183 246.243 267.85 246.069 267.394 246.069C267.1 246.069 266.833 246.144 266.593 246.294C266.359 246.444 266.173 246.666 266.035 246.96C265.903 247.248 265.837 247.611 265.837 248.049V252H263.569V244.611H265.837V245.691C265.903 245.505 266.053 245.313 266.287 245.115C266.527 244.917 266.824 244.749 267.178 244.611C267.532 244.467 267.913 244.395 268.321 244.395C268.765 244.395 269.134 244.47 269.428 244.62C269.722 244.77 269.959 244.962 270.139 245.196C270.325 245.424 270.466 245.664 270.562 245.916C270.646 245.682 270.811 245.448 271.057 245.214C271.303 244.98 271.612 244.785 271.984 244.629C272.356 244.473 272.761 244.395 273.199 244.395ZM283.568 252V250.713C283.514 250.845 283.376 251.031 283.154 251.271C282.932 251.511 282.632 251.73 282.254 251.928C281.882 252.12 281.444 252.216 280.94 252.216C280.232 252.216 279.605 252.048 279.059 251.712C278.513 251.37 278.084 250.905 277.772 250.317C277.466 249.723 277.313 249.054 277.313 248.31C277.313 247.566 277.466 246.9 277.772 246.312C278.084 245.718 278.513 245.25 279.059 244.908C279.605 244.566 280.232 244.395 280.94 244.395C281.432 244.395 281.858 244.479 282.218 244.647C282.584 244.809 282.878 245.001 283.1 245.223C283.328 245.439 283.475 245.634 283.541 245.808V244.611H285.809V252H283.568ZM279.554 248.31C279.554 248.724 279.647 249.09 279.833 249.408C280.019 249.72 280.265 249.963 280.571 250.137C280.877 250.311 281.21 250.398 281.57 250.398C281.948 250.398 282.284 250.311 282.578 250.137C282.872 249.957 283.103 249.711 283.271 249.399C283.445 249.081 283.532 248.718 283.532 248.31C283.532 247.902 283.445 247.542 283.271 247.23C283.103 246.912 282.872 246.663 282.578 246.483C282.284 246.303 281.948 246.213 281.57 246.213C281.21 246.213 280.877 246.303 280.571 246.483C280.265 246.657 280.019 246.903 279.833 247.221C279.647 247.533 279.554 247.896 279.554 248.31ZM289.998 252H287.703V239.616H289.998V252Z" fill="white"/>
<rect x="165" y="91" width="69" height="69" rx="30" fill="#D9D9D9" fill-opacity="0.2"/>
<path d="M213.683 141.417V137.948C213.683 136.109 212.952 134.344 211.651 133.044C210.35 131.743 208.586 131.012 206.746 131.012H192.873C191.033 131.012 189.269 131.743 187.968 133.044C186.667 134.344 185.937 136.109 185.937 137.948V141.417" stroke="black" stroke-width="2" stroke-linecap="round" stroke-linejoin="round"/>
<path d="M199.81 124.075C203.64 124.075 206.746 120.97 206.746 117.139C206.746 113.308 203.64 110.202 199.81 110.202C195.979 110.202 192.873 113.308 192.873 117.139C192.873 120.97 195.979 124.075 199.81 124.075Z" stroke="black" stroke-width="2" stroke-linecap="round" stroke-linejoin="round"/>
<path d="M213.683 141.417V137.948C213.683 136.109 212.952 134.344 211.651 133.044C210.35 131.743 208.586 131.012 206.746 131.012H192.873C191.033 131.012 189.269 131.743 187.968 133.044C186.667 134.344 185.937 136.109 185.937 137.948V141.417" stroke="white" stroke-opacity="0.7" stroke-width="2" stroke-linecap="round" stroke-linejoin="round"/>
<path d="M199.81 124.075C203.64 124.075 206.746 120.97 206.746 117.139C206.746 113.308 203.64 110.202 199.81 110.202C195.979 110.202 192.873 113.308 192.873 117.139C192.873 120.97 195.979 124.075 199.81 124.075Z" stroke="white" stroke-opacity="0.7" stroke-width="2" stroke-linecap="round" stroke-linejoin="round"/>
<path d="M178.422 172.688H180.141V180.125C180.148 182.5 178.359 184.188 175.656 184.188C172.93 184.188 171.148 182.5 171.156 180.125V172.688H172.875V179.984C172.867 181.516 173.938 182.617 175.656 182.625C177.367 182.617 178.422 181.516 178.422 179.984V172.688ZM184.172 172.688V184H182.453V172.688H184.172ZM185.594 172.688H187.547L190.484 177.812H190.609L193.562 172.688H195.516L191.406 179.562V184H189.688V179.562L185.594 172.688ZM196.938 184V172.688H204.031V174.172H198.656V177.594H203.656V179.062H198.656V182.516H204.094V184H196.938ZM215.969 178.344C215.969 181.961 213.797 184.156 210.875 184.156C207.93 184.156 205.766 181.953 205.766 178.344C205.766 174.727 207.93 172.531 210.875 172.531C213.797 172.531 215.969 174.727 215.969 178.344ZM207.469 178.344C207.477 181.094 208.922 182.586 210.875 182.578C212.812 182.586 214.258 181.094 214.266 178.344C214.258 175.594 212.812 174.102 210.875 174.109C208.922 174.102 207.477 175.594 207.469 178.344ZM227.031 172.688V184H225.453L219.719 175.734H219.625V184H217.906V172.688H219.5L225.234 180.969H225.344V172.688H227.031Z" fill="white"/>
<rect x="36" y="278" width="320" height="64" rx="20" fill="#6DFCAF"/>
<path d="M144.388 307.24H152.428V308.188C152.428 309.316 152.236 310.372 151.852 311.356C151.476 312.332 150.936 313.192 150.232 313.936C149.528 314.672 148.692 315.248 147.724 315.664C146.764 316.08 145.704 316.288 144.544 316.288C143.352 316.288 142.264 316.076 141.28 315.652C140.296 315.228 139.448 314.64 138.736 313.888C138.024 313.136 137.472 312.264 137.08 311.272C136.696 310.272 136.504 309.204 136.504 308.068C136.504 306.94 136.696 305.88 137.08 304.888C137.472 303.888 138.024 303.016 138.736 302.272C139.448 301.52 140.296 300.932 141.28 300.508C142.264 300.084 143.352 299.872 144.544 299.872C145.464 299.872 146.284 299.972 147.004 300.172C147.724 300.372 148.352 300.644 148.888 300.988C149.432 301.324 149.9 301.7 150.292 302.116C150.692 302.524 151.024 302.936 151.288 303.352L148.48 304.72C148.096 304.16 147.584 303.68 146.944 303.28C146.312 302.88 145.512 302.68 144.544 302.68C143.824 302.68 143.16 302.824 142.552 303.112C141.952 303.392 141.432 303.78 140.992 304.276C140.56 304.772 140.224 305.348 139.984 306.004C139.744 306.652 139.624 307.34 139.624 308.068C139.624 308.804 139.744 309.496 139.984 310.144C140.224 310.792 140.56 311.368 140.992 311.872C141.432 312.368 141.952 312.756 142.552 313.036C143.16 313.316 143.824 313.456 144.544 313.456C145.2 313.456 145.796 313.36 146.332 313.168C146.868 312.976 147.332 312.704 147.724 312.352C148.124 312 148.44 311.588 148.672 311.116C148.904 310.636 149.036 310.12 149.068 309.568H144.388V307.24ZM162.34 316V314.284C162.268 314.46 162.084 314.708 161.788 315.028C161.492 315.348 161.092 315.64 160.588 315.904C160.092 316.16 159.508 316.288 158.836 316.288C157.892 316.288 157.056 316.064 156.328 315.616C155.6 315.16 155.028 314.54 154.612 313.756C154.204 312.964 154 312.072 154 311.08C154 310.088 154.204 309.2 154.612 308.416C155.028 307.624 155.6 307 156.328 306.544C157.056 306.088 157.892 305.86 158.836 305.86C159.492 305.86 160.06 305.972 160.54 306.196C161.028 306.412 161.42 306.668 161.716 306.964C162.02 307.252 162.216 307.512 162.304 307.744V306.148H165.328V316H162.34ZM156.988 311.08C156.988 311.632 157.112 312.12 157.36 312.544C157.608 312.96 157.936 313.284 158.344 313.516C158.752 313.748 159.196 313.864 159.676 313.864C160.18 313.864 160.628 313.748 161.02 313.516C161.412 313.276 161.72 312.948 161.944 312.532C162.176 312.108 162.292 311.624 162.292 311.08C162.292 310.536 162.176 310.056 161.944 309.64C161.72 309.216 161.412 308.884 161.02 308.644C160.628 308.404 160.18 308.284 159.676 308.284C159.196 308.284 158.752 308.404 158.344 308.644C157.936 308.876 157.608 309.204 157.36 309.628C157.112 310.044 156.988 310.528 156.988 311.08ZM180.719 305.86C181.455 305.86 182.095 306.016 182.639 306.328C183.191 306.64 183.619 307.12 183.923 307.768C184.235 308.408 184.391 309.232 184.391 310.24V316H181.391V310.732C181.391 309.9 181.267 309.252 181.019 308.788C180.779 308.324 180.319 308.092 179.639 308.092C179.255 308.092 178.903 308.196 178.583 308.404C178.263 308.604 178.007 308.9 177.815 309.292C177.631 309.684 177.539 310.164 177.539 310.732V316H174.731V310.732C174.731 309.9 174.591 309.252 174.311 308.788C174.031 308.324 173.587 308.092 172.979 308.092C172.587 308.092 172.231 308.192 171.911 308.392C171.599 308.592 171.351 308.888 171.167 309.28C170.991 309.664 170.903 310.148 170.903 310.732V316H167.879V306.148H170.903V307.588C170.991 307.34 171.191 307.084 171.503 306.82C171.823 306.556 172.219 306.332 172.691 306.148C173.163 305.956 173.671 305.86 174.215 305.86C174.807 305.86 175.299 305.96 175.691 306.16C176.083 306.36 176.399 306.616 176.639 306.928C176.887 307.232 177.075 307.552 177.203 307.888C177.315 307.576 177.535 307.264 177.863 306.952C178.191 306.64 178.603 306.38 179.099 306.172C179.595 305.964 180.135 305.86 180.719 305.86ZM189.06 311.752C189.084 312.2 189.204 312.6 189.42 312.952C189.636 313.304 189.948 313.58 190.356 313.78C190.772 313.98 191.268 314.08 191.844 314.08C192.364 314.08 192.82 314.016 193.212 313.888C193.612 313.76 193.948 313.604 194.22 313.42C194.5 313.228 194.708 313.044 194.844 312.868L196.104 314.74C195.88 315.02 195.58 315.28 195.204 315.52C194.836 315.752 194.364 315.936 193.788 316.072C193.22 316.216 192.508 316.288 191.652 316.288C190.572 316.288 189.624 316.076 188.808 315.652C187.992 315.228 187.356 314.616 186.9 313.816C186.444 313.016 186.216 312.064 186.216 310.96C186.216 310 186.42 309.136 186.828 308.368C187.236 307.592 187.828 306.98 188.604 306.532C189.388 306.084 190.328 305.86 191.424 305.86C192.456 305.86 193.348 306.06 194.1 306.46C194.86 306.852 195.448 307.428 195.864 308.188C196.28 308.948 196.488 309.876 196.488 310.972C196.488 311.036 196.484 311.168 196.476 311.368C196.476 311.56 196.468 311.688 196.452 311.752H189.06ZM193.632 309.868C193.624 309.612 193.544 309.336 193.392 309.04C193.248 308.744 193.02 308.492 192.708 308.284C192.396 308.076 191.98 307.972 191.46 307.972C190.94 307.972 190.512 308.072 190.176 308.272C189.848 308.472 189.6 308.72 189.432 309.016C189.264 309.304 189.168 309.588 189.144 309.868H193.632ZM210.217 299.872C211.169 299.872 211.997 299.98 212.701 300.196C213.413 300.404 213.977 300.628 214.393 300.868C214.817 301.108 215.073 301.264 215.161 301.336L213.697 303.772C213.569 303.668 213.349 303.524 213.037 303.34C212.733 303.148 212.365 302.98 211.933 302.836C211.501 302.684 211.033 302.608 210.529 302.608C209.801 302.608 209.217 302.748 208.777 303.028C208.345 303.3 208.129 303.696 208.129 304.216C208.129 304.568 208.245 304.884 208.477 305.164C208.709 305.436 209.049 305.692 209.497 305.932C209.953 306.172 210.509 306.424 211.165 306.688C211.741 306.912 212.289 307.172 212.809 307.468C213.337 307.764 213.805 308.112 214.213 308.512C214.629 308.912 214.957 309.376 215.197 309.904C215.445 310.432 215.569 311.036 215.569 311.716C215.569 312.476 215.413 313.14 215.101 313.708C214.797 314.276 214.373 314.752 213.829 315.136C213.293 315.52 212.677 315.808 211.981 316C211.285 316.192 210.553 316.288 209.785 316.288C208.745 316.288 207.809 316.168 206.977 315.928C206.153 315.68 205.485 315.416 204.973 315.136C204.461 314.856 204.161 314.676 204.073 314.596L205.609 312.064C205.705 312.136 205.885 312.252 206.149 312.412C206.421 312.572 206.749 312.736 207.133 312.904C207.525 313.072 207.949 313.216 208.405 313.336C208.869 313.456 209.341 313.516 209.821 313.516C210.685 313.516 211.337 313.336 211.777 312.976C212.217 312.616 212.437 312.148 212.437 311.572C212.437 311.14 212.297 310.76 212.017 310.432C211.737 310.104 211.341 309.804 210.829 309.532C210.325 309.252 209.721 308.968 209.017 308.68C208.313 308.384 207.657 308.04 207.049 307.648C206.449 307.248 205.965 306.76 205.597 306.184C205.229 305.6 205.045 304.884 205.045 304.036C205.045 303.196 205.281 302.464 205.753 301.84C206.233 301.216 206.865 300.732 207.649 300.388C208.441 300.044 209.297 299.872 210.217 299.872ZM217.053 306.148H218.829V302.104H221.853V306.148H224.181V308.68H221.853V312.244C221.853 312.716 221.929 313.084 222.081 313.348C222.233 313.604 222.473 313.732 222.801 313.732C223.049 313.732 223.253 313.684 223.413 313.588C223.573 313.484 223.669 313.412 223.701 313.372L224.781 315.556C224.733 315.604 224.577 315.688 224.313 315.808C224.057 315.928 223.725 316.036 223.317 316.132C222.917 316.236 222.465 316.288 221.961 316.288C221.057 316.288 220.309 316.028 219.717 315.508C219.125 314.98 218.829 314.164 218.829 313.06V308.68H217.053V306.148ZM234.059 316V314.284C233.987 314.46 233.803 314.708 233.507 315.028C233.211 315.348 232.811 315.64 232.307 315.904C231.811 316.16 231.227 316.288 230.555 316.288C229.611 316.288 228.775 316.064 228.047 315.616C227.319 315.16 226.747 314.54 226.331 313.756C225.923 312.964 225.719 312.072 225.719 311.08C225.719 310.088 225.923 309.2 226.331 308.416C226.747 307.624 227.319 307 228.047 306.544C228.775 306.088 229.611 305.86 230.555 305.86C231.211 305.86 231.779 305.972 232.259 306.196C232.747 306.412 233.139 306.668 233.435 306.964C233.739 307.252 233.935 307.512 234.023 307.744V306.148H237.047V316H234.059ZM228.707 311.08C228.707 311.632 228.831 312.12 229.079 312.544C229.327 312.96 229.655 313.284 230.063 313.516C230.471 313.748 230.915 313.864 231.395 313.864C231.899 313.864 232.347 313.748 232.739 313.516C233.131 313.276 233.439 312.948 233.663 312.532C233.895 312.108 234.011 311.624 234.011 311.08C234.011 310.536 233.895 310.056 233.663 309.64C233.439 309.216 233.131 308.884 232.739 308.644C232.347 308.404 231.899 308.284 231.395 308.284C230.915 308.284 230.471 308.404 230.063 308.644C229.655 308.876 229.327 309.204 229.079 309.628C228.831 310.044 228.707 310.528 228.707 311.08ZM242.393 316H239.345V306.148H242.393V307.744H242.333C242.389 307.552 242.541 307.308 242.789 307.012C243.045 306.716 243.397 306.452 243.845 306.22C244.293 305.98 244.833 305.86 245.465 305.86C245.921 305.86 246.333 305.928 246.701 306.064C247.077 306.192 247.345 306.32 247.505 306.448L246.305 308.944C246.201 308.816 246.005 308.684 245.717 308.548C245.437 308.412 245.085 308.344 244.661 308.344C244.157 308.344 243.737 308.484 243.401 308.764C243.065 309.036 242.813 309.372 242.645 309.772C242.477 310.164 242.393 310.532 242.393 310.876V316ZM248.037 306.148H249.813V302.104H252.837V306.148H255.165V308.68H252.837V312.244C252.837 312.716 252.913 313.084 253.065 313.348C253.217 313.604 253.457 313.732 253.785 313.732C254.033 313.732 254.237 313.684 254.397 313.588C254.557 313.484 254.653 313.412 254.685 313.372L255.765 315.556C255.717 315.604 255.561 315.688 255.297 315.808C255.041 315.928 254.709 316.036 254.301 316.132C253.901 316.236 253.449 316.288 252.945 316.288C252.041 316.288 251.293 316.028 250.701 315.508C250.109 314.98 249.813 314.164 249.813 313.06V308.68H248.037V306.148Z" fill="#2D2D2D"/>
<rect y="769" width="393" height="83" fill="#3F3F3F"/>
<path d="M40 794L49 787L58 794V805C58 805.53 57.7893 806.039 57.4142 806.414C57.0391 806.789 56.5304 807 56 807H42C41.4696 807 40.9609 806.789 40.5858 806.414C40.2107 806.039 40 805.53 40 805V794Z" stroke="white" stroke-width="2" stroke-linecap="round" stroke-linejoin="round"/>
<path d="M46 807V797H52V807" stroke="white" stroke-width="2" stroke-linecap="round" stroke-linejoin="round"/>
<path d="M127 806V804C127 802.939 126.579 801.922 125.828 801.172C125.078 800.421 124.061 800 123 800H115C113.939 800 112.922 800.421 112.172 801.172C111.421 801.922 111 802.939 111 804V806" stroke="white" stroke-width="2" stroke-linecap="round" stroke-linejoin="round"/>
<path d="M119 796C121.209 796 123 794.209 123 792C123 789.791 121.209 788 119 788C116.791 788 115 789.791 115 792C115 794.209 116.791 796 119 796Z" stroke="white" stroke-width="2" stroke-linecap="round" stroke-linejoin="round"/>
<path d="M133 806V804C132.999 803.114 132.704 802.253 132.161 801.552C131.618 800.852 130.858 800.352 130 800.13" stroke="white" stroke-width="2" stroke-linecap="round" stroke-linejoin="round"/>
<path d="M126 788.13C126.86 788.35 127.623 788.851 128.168 789.552C128.712 790.254 129.008 791.117 129.008 792.005C129.008 792.893 128.712 793.756 128.168 794.458C127.623 795.159 126.86 795.66 126 795.88" stroke="white" stroke-width="2" stroke-linecap="round" stroke-linejoin="round"/>
<path d="M204 796.5C204.003 797.82 203.695 799.122 203.1 800.3C202.394 801.712 201.31 802.899 199.967 803.729C198.625 804.559 197.078 804.999 195.5 805C194.18 805.003 192.878 804.695 191.7 804.1L186 806L187.9 800.3C187.305 799.122 186.997 797.82 187 796.5C187.001 794.922 187.441 793.375 188.271 792.033C189.101 790.69 190.288 789.606 191.7 788.9C192.878 788.305 194.18 787.997 195.5 788H196C198.084 788.115 200.053 788.995 201.529 790.471C203.005 791.947 203.885 793.916 204 796V796.5Z" stroke="white" stroke-width="2" stroke-linecap="round" stroke-linejoin="round"/>
<path d="M268 796V792M273 796V792M278 787H260V803H265V807L269 803H274L278 799V787Z" stroke="white" stroke-width="2" stroke-linecap="round" stroke-linejoin="round"/>
<path d="M349 793C349 791.409 348.368 789.883 347.243 788.757C346.117 787.632 344.591 787 343 787C341.409 787 339.883 787.632 338.757 788.757C337.632 789.883 337 791.409 337 793C337 800 334 802 334 802H352C352 802 349 800 349 793Z" stroke="white" stroke-width="2" stroke-linecap="round" stroke-linejoin="round"/>
<path d="M344.73 806C344.554 806.303 344.302 806.555 343.998 806.73C343.695 806.904 343.35 806.996 343 806.996C342.65 806.996 342.305 806.904 342.002 806.73C341.698 806.555 341.446 806.303 341.27 806" stroke="white" stroke-width="2" stroke-linecap="round" stroke-linejoin="round"/>
<defs>
<filter id="filter0_d_2438_6287" x="16" y="444" width="361" height="50" filterUnits="userSpaceOnUse" color-interpolation-filters="sRGB">
<feFlood flood-opacity="0" result="BackgroundImageFix"/>
<feColorMatrix in="SourceAlpha" type="matrix" values="0 0 0 0 0 0 0 0 0 0 0 0 0 0 0 0 0 0 127 0" result="hardAlpha"/>
<feOffset dy="4"/>
<feGaussianBlur stdDeviation="2"/>
<feComposite in2="hardAlpha" operator="out"/>
<feColorMatrix type="matrix" values="0 0 0 0 0 0 0 0 0 0 0 0 0 0 0 0 0 0 0.25 0"/>
<feBlend mode="normal" in2="BackgroundImageFix" result="effect1_dropShadow_2438_6287"/>
<feBlend mode="normal" in="SourceGraphic" in2="effect1_dropShadow_2438_6287" result="shape"/>
</filter>
</defs>
</svg>
