<svg width="393" height="852" viewBox="0 0 393 852" fill="none" xmlns="http://www.w3.org/2000/svg">
<rect width="393" height="852" fill="#2D2D2D"/>
<path d="M72.6094 138.541V143.189H71.3105V139.621H64.3105V138.541H72.6094ZM63.2031 137.092V131.596H64.502V136.012C66.252 135.991 68.0977 135.854 70.0527 135.465L70.2305 136.531C68.0771 136.948 66.1221 137.092 64.2148 137.092H63.2031ZM71.3105 137.967V130.926H72.6094V137.967H71.3105ZM76.4102 132.184V138.992C77.668 138.972 78.8506 138.896 80.2109 138.609L80.3887 139.717C78.7959 140.052 77.4355 140.113 75.918 140.113H75.1113V132.184H76.4102ZM78.543 136.012V134.945H81.2227V131.186H82.4531V142.561H81.2227V136.012H78.543ZM83.8477 143.162V130.912H85.0781V143.162H83.8477ZM96.8086 130.926V137.898H95.5098V130.926H96.8086ZM86.8965 134.439C86.9033 132.71 88.2842 131.534 90.1641 131.541C92.0371 131.534 93.418 132.71 93.418 134.439C93.418 136.121 92.0371 137.311 90.1641 137.311C88.2842 137.311 86.9033 136.121 86.8965 134.439ZM88.168 134.439C88.1611 135.492 89.002 136.217 90.1641 136.217C91.3125 136.217 92.1465 135.492 92.1465 134.439C92.1465 133.353 91.3125 132.628 90.1641 132.635C89.002 132.628 88.1611 133.353 88.168 134.439ZM88.7559 143.012V138.514H96.8086V143.012H88.7559ZM90.041 141.959H95.5371V139.553H90.041V141.959ZM104.328 131.117C107.09 131.11 108.696 131.855 108.703 133.223C108.696 134.597 107.09 135.342 104.328 135.342C101.566 135.342 99.9463 134.597 99.9531 133.223C99.9463 131.855 101.566 131.11 104.328 131.117ZM98.75 137.133V136.094H109.92V137.133H98.75ZM100.09 139.047V138.076H108.512V140.947H101.375V142.041H108.854V143.039H100.104V140.004H107.227V139.047H100.09ZM101.307 133.223C101.3 133.981 102.38 134.371 104.328 134.371C106.29 134.371 107.37 133.981 107.363 133.223C107.37 132.498 106.29 132.074 104.328 132.074C102.38 132.074 101.3 132.498 101.307 133.223ZM124.426 130.912V137.488H123.127V130.912H124.426ZM114.514 134.316C114.521 132.635 115.901 131.466 117.781 131.473C119.654 131.466 121.035 132.635 121.035 134.316C121.035 135.991 119.654 137.16 117.781 137.146C115.901 137.16 114.521 135.991 114.514 134.316ZM115.785 134.316C115.778 135.376 116.619 136.08 117.781 136.08C118.93 136.08 119.764 135.376 119.764 134.316C119.764 133.271 118.93 132.56 117.781 132.566C116.619 132.56 115.778 133.271 115.785 134.316ZM116.414 143.012V138.076H117.686V139.457H123.141V138.076H124.426V143.012H116.414ZM117.686 141.945H123.141V140.482H117.686V141.945ZM132.205 131.65V135.219H128.158V136.914C130.291 136.914 131.453 136.866 132.834 136.613L132.957 137.666C131.46 137.919 130.202 137.96 127.762 137.967H126.873V134.234H130.906V132.689H126.859V131.65H132.205ZM128.268 140.127V139.074H136.58V143.176H135.281V140.127H128.268ZM132.984 136.299V135.26H135.281V133.742H132.984V132.703H135.281V130.926H136.58V138.459H135.281V136.299H132.984ZM144.523 132.936V133.988H138.439V132.936H140.846V131.268H142.131V132.936H144.523ZM138.836 137.543C138.829 135.896 139.95 134.727 141.488 134.727C143.04 134.727 144.147 135.896 144.154 137.543C144.147 139.218 143.04 140.394 141.488 140.387C139.95 140.394 138.829 139.218 138.836 137.543ZM139.984 137.543C139.978 138.582 140.606 139.279 141.488 139.279C142.37 139.279 143.006 138.582 143.006 137.543C143.006 136.524 142.37 135.813 141.488 135.807C140.606 135.813 139.978 136.524 139.984 137.543ZM145.084 142.588V131.186H146.314V136.012H147.723V130.912H148.953V143.162H147.723V137.078H146.314V142.588H145.084ZM161.736 137.816V138.869H156.76V143.148H155.488V138.869H150.566V137.816H161.736ZM151.195 135.861C153.479 135.547 155.379 134.187 155.42 132.676H151.605V131.637H160.684V132.676H156.896C156.917 134.187 158.804 135.547 161.121 135.861L160.643 136.887C158.633 136.572 156.896 135.581 156.151 134.187C155.399 135.581 153.67 136.572 151.688 136.887L151.195 135.861ZM166.398 134.262C166.398 136.217 167.219 138.302 168.859 139.307L168.135 140.305C166.986 139.614 166.214 138.391 165.79 136.976C165.346 138.527 164.498 139.854 163.309 140.578L162.502 139.607C164.231 138.568 165.147 136.401 165.141 134.316V132.033H166.398V134.262ZM167.533 136.299V135.219H169.434V131.145H170.664V142.561H169.434V136.299H167.533ZM171.963 143.162V130.912H173.207V143.162H171.963ZM185.977 140.551V141.631H174.766V140.551H177.445V137.352C176.44 136.798 175.825 135.923 175.832 134.822C175.825 132.895 177.719 131.63 180.344 131.623C182.976 131.63 184.869 132.895 184.869 134.822C184.869 135.902 184.281 136.771 183.297 137.324V140.551H185.977ZM177.09 134.822C177.09 136.135 178.423 136.989 180.344 136.996C182.251 136.989 183.604 136.135 183.611 134.822C183.604 133.503 182.251 132.662 180.344 132.662C178.423 132.662 177.09 133.503 177.09 134.822ZM178.73 140.551H181.984V137.83C181.485 137.946 180.932 138.008 180.344 138.008C179.77 138.008 179.223 137.946 178.73 137.83V140.551Z" fill="white" fill-opacity="0.5"/>
<path d="M32.4062 187.234V197.609H30.4219V192.516H28.0938V190.906H30.4219V187.234H32.4062ZM20.3438 194.406C22.6953 193.672 23.7578 191.82 23.7656 190V189.781H20.9062V188.188H28.625V189.781H25.7969V190.016C25.7891 191.664 26.8047 193.422 29.0625 194.156L28.0781 195.734C26.5078 195.219 25.4219 194.188 24.8047 192.914C24.1719 194.328 23.0391 195.477 21.3594 196.031L20.3438 194.406ZM22.9688 201.188V196.703H24.9688V199.594H32.75V201.188H22.9688ZM38.6875 191.547C38.6875 193.703 39.4609 195.867 41.4844 196.953L40.3906 198.406C39.1094 197.75 38.2578 196.602 37.7578 195.219C37.2656 196.727 36.4141 198 35.125 198.75L33.9844 197.25C36.0391 196.062 36.7969 193.742 36.8125 191.547V191.219H34.5156V189.625H36.8125V187.703H38.6719V189.625H40.9219V191.219H38.6875V191.547ZM40.0938 194.234V192.609H41.7656V187.453H43.6406V200.781H41.7656V194.234H40.0938ZM44.6562 201.438V187.219H46.5469V201.438H44.6562ZM63.6719 187.234V197.625H61.6719V187.234H63.6719ZM51.8906 194.578C54.2422 193.891 55.2891 192.219 55.2812 190.531V190.422H52.375V188.875H55.2812V187.297H57.3125V188.875H60.2031V190.422H57.2969V190.531C57.2812 192.117 58.3594 193.695 60.7031 194.328L59.75 195.891C58.1094 195.438 56.9766 194.492 56.3281 193.281C55.6875 194.602 54.5312 195.648 52.8438 196.125L51.8906 194.578ZM54.1406 201.188V196.703H56.1562V199.594H64.0469V201.188H54.1406ZM77.0469 188.047V189.328C77.0391 190.656 77.0391 192.102 76.6797 194.094H78.5625V195.703H73.0156V201.453H71.0156V195.703H65.5938V194.094H74.6562C75.0234 192.266 75.0547 190.867 75.0625 189.641H67.0781V188.047H77.0469Z" fill="white"/>
<path d="M79.731 237.672C79.6216 236.617 78.6997 236.016 77.4028 236.016C76.02 236.016 75.145 236.727 75.1372 237.688C75.1372 238.758 76.3013 239.18 77.1997 239.391L78.2935 239.688C79.7388 240.039 81.5513 240.828 81.5591 242.875C81.5513 244.789 80.0278 246.188 77.356 246.188C74.8247 246.188 73.231 244.922 73.1216 242.859H74.8403C74.9419 244.094 76.0356 244.68 77.356 244.688C78.8013 244.68 79.8481 243.953 79.856 242.844C79.8481 241.859 78.9106 241.461 77.7153 241.141L76.3716 240.781C74.5513 240.281 73.4263 239.359 73.4185 237.781C73.4263 235.828 75.1606 234.531 77.4497 234.531C79.7466 234.531 81.3481 235.844 81.4028 237.672H79.731ZM86.856 246.172C84.4497 246.172 82.8794 244.422 82.8872 241.797C82.8794 239.156 84.4497 237.406 86.856 237.406C89.2466 237.406 90.8091 239.156 90.8091 241.797C90.8091 244.422 89.2466 246.172 86.856 246.172ZM84.5591 241.797C84.5591 243.414 85.3013 244.781 86.856 244.781C88.3872 244.781 89.1216 243.414 89.1216 241.797C89.1216 240.172 88.3872 238.789 86.856 238.781C85.3013 238.789 84.5591 240.172 84.5591 241.797ZM96.0435 246.172C93.6372 246.172 92.0669 244.422 92.0747 241.797C92.0669 239.156 93.6372 237.406 96.0435 237.406C98.4341 237.406 99.9966 239.156 99.9966 241.797C99.9966 244.422 98.4341 246.172 96.0435 246.172ZM93.7466 241.797C93.7466 243.414 94.4888 244.781 96.0435 244.781C97.5747 244.781 98.3091 243.414 98.3091 241.797C98.3091 240.172 97.5747 238.789 96.0435 238.781C94.4888 238.789 93.7466 240.172 93.7466 241.797ZM102.372 249.188C102.028 249.18 101.692 249.172 101.481 249.141V247.75C101.668 247.766 101.997 247.773 102.231 247.781C102.747 247.773 103.176 247.742 103.575 246.672L103.778 246.109L100.668 237.516H102.45L104.59 244.094H104.684L106.825 237.516H108.622L105.122 247.125C104.629 248.469 103.77 249.18 102.372 249.188ZM109.325 243.609C109.317 241.672 110.965 241.172 112.497 241.062C113.059 241.031 114.333 240.961 114.723 240.945L114.715 240.266C114.723 239.305 114.129 238.75 112.997 238.75C112.012 238.75 111.418 239.203 111.247 239.828H109.59C109.739 238.422 111.051 237.406 113.059 237.406C114.411 237.406 116.379 237.898 116.387 240.359V246H114.762V244.844H114.7C114.372 245.477 113.59 246.188 112.184 246.188C110.575 246.188 109.317 245.266 109.325 243.609ZM110.95 243.625C110.95 244.438 111.622 244.852 112.559 244.859C113.918 244.852 114.731 243.945 114.731 242.938L114.723 242.164C114.34 242.188 113.129 242.273 112.731 242.297C111.637 242.375 110.95 242.789 110.95 243.625ZM120.075 240.969V246H118.403V237.516H120.012V238.906H120.106C120.504 237.992 121.34 237.406 122.606 237.406C124.348 237.406 125.504 238.508 125.497 240.609V246H123.84V240.812C123.833 239.578 123.168 238.844 122.043 238.844C120.895 238.844 120.075 239.617 120.075 240.969ZM131.09 249.359C128.95 249.359 127.536 248.414 127.387 246.828H129.09C129.254 247.633 130.004 248.023 131.106 248.016C132.434 248.023 133.27 247.445 133.278 246.125V244.453H133.168C132.872 245 132.262 245.875 130.7 245.875C128.7 245.875 127.153 244.383 127.153 241.672C127.153 238.961 128.676 237.406 130.715 237.406C132.293 237.406 132.872 238.359 133.184 238.891H133.293V237.516H134.918V246.188C134.926 248.367 133.278 249.359 131.09 249.359ZM128.856 241.703C128.848 243.367 129.614 244.492 131.075 244.5C132.497 244.492 133.293 243.453 133.293 241.703C133.293 239.984 132.512 238.82 131.075 238.828C129.598 238.82 128.848 240.078 128.856 241.703Z" fill="white"/>
<path d="M79.731 304.672C79.6216 303.617 78.6997 303.016 77.4028 303.016C76.02 303.016 75.145 303.727 75.1372 304.688C75.1372 305.758 76.3013 306.18 77.1997 306.391L78.2935 306.688C79.7388 307.039 81.5513 307.828 81.5591 309.875C81.5513 311.789 80.0278 313.188 77.356 313.188C74.8247 313.188 73.231 311.922 73.1216 309.859H74.8403C74.9419 311.094 76.0356 311.68 77.356 311.688C78.8013 311.68 79.8481 310.953 79.856 309.844C79.8481 308.859 78.9106 308.461 77.7153 308.141L76.3716 307.781C74.5513 307.281 73.4263 306.359 73.4185 304.781C73.4263 302.828 75.1606 301.531 77.4497 301.531C79.7466 301.531 81.3481 302.844 81.4028 304.672H79.731ZM86.856 313.172C84.4497 313.172 82.8794 311.422 82.8872 308.797C82.8794 306.156 84.4497 304.406 86.856 304.406C89.2466 304.406 90.8091 306.156 90.8091 308.797C90.8091 311.422 89.2466 313.172 86.856 313.172ZM84.5591 308.797C84.5591 310.414 85.3013 311.781 86.856 311.781C88.3872 311.781 89.1216 310.414 89.1216 308.797C89.1216 307.172 88.3872 305.789 86.856 305.781C85.3013 305.789 84.5591 307.172 84.5591 308.797ZM96.0435 313.172C93.6372 313.172 92.0669 311.422 92.0747 308.797C92.0669 306.156 93.6372 304.406 96.0435 304.406C98.4341 304.406 99.9966 306.156 99.9966 308.797C99.9966 311.422 98.4341 313.172 96.0435 313.172ZM93.7466 308.797C93.7466 310.414 94.4888 311.781 96.0435 311.781C97.5747 311.781 98.3091 310.414 98.3091 308.797C98.3091 307.172 97.5747 305.789 96.0435 305.781C94.4888 305.789 93.7466 307.172 93.7466 308.797ZM102.372 316.188C102.028 316.18 101.692 316.172 101.481 316.141V314.75C101.668 314.766 101.997 314.773 102.231 314.781C102.747 314.773 103.176 314.742 103.575 313.672L103.778 313.109L100.668 304.516H102.45L104.59 311.094H104.684L106.825 304.516H108.622L105.122 314.125C104.629 315.469 103.77 316.18 102.372 316.188ZM109.325 310.609C109.317 308.672 110.965 308.172 112.497 308.062C113.059 308.031 114.333 307.961 114.723 307.945L114.715 307.266C114.723 306.305 114.129 305.75 112.997 305.75C112.012 305.75 111.418 306.203 111.247 306.828H109.59C109.739 305.422 111.051 304.406 113.059 304.406C114.411 304.406 116.379 304.898 116.387 307.359V313H114.762V311.844H114.7C114.372 312.477 113.59 313.188 112.184 313.188C110.575 313.188 109.317 312.266 109.325 310.609ZM110.95 310.625C110.95 311.438 111.622 311.852 112.559 311.859C113.918 311.852 114.731 310.945 114.731 309.938L114.723 309.164C114.34 309.188 113.129 309.273 112.731 309.297C111.637 309.375 110.95 309.789 110.95 310.625ZM120.075 307.969V313H118.403V304.516H120.012V305.906H120.106C120.504 304.992 121.34 304.406 122.606 304.406C124.348 304.406 125.504 305.508 125.497 307.609V313H123.84V307.812C123.833 306.578 123.168 305.844 122.043 305.844C120.895 305.844 120.075 306.617 120.075 307.969ZM131.09 316.359C128.95 316.359 127.536 315.414 127.387 313.828H129.09C129.254 314.633 130.004 315.023 131.106 315.016C132.434 315.023 133.27 314.445 133.278 313.125V311.453H133.168C132.872 312 132.262 312.875 130.7 312.875C128.7 312.875 127.153 311.383 127.153 308.672C127.153 305.961 128.676 304.406 130.715 304.406C132.293 304.406 132.872 305.359 133.184 305.891H133.293V304.516H134.918V313.188C134.926 315.367 133.278 316.359 131.09 316.359ZM128.856 308.703C128.848 310.367 129.614 311.492 131.075 311.5C132.497 311.492 133.293 310.453 133.293 308.703C133.293 306.984 132.512 305.82 131.075 305.828C129.598 305.82 128.848 307.078 128.856 308.703Z" fill="white"/>
<path d="M79.731 371.672C79.6216 370.617 78.6997 370.016 77.4028 370.016C76.02 370.016 75.145 370.727 75.1372 371.688C75.1372 372.758 76.3013 373.18 77.1997 373.391L78.2935 373.688C79.7388 374.039 81.5513 374.828 81.5591 376.875C81.5513 378.789 80.0278 380.188 77.356 380.188C74.8247 380.188 73.231 378.922 73.1216 376.859H74.8403C74.9419 378.094 76.0356 378.68 77.356 378.688C78.8013 378.68 79.8481 377.953 79.856 376.844C79.8481 375.859 78.9106 375.461 77.7153 375.141L76.3716 374.781C74.5513 374.281 73.4263 373.359 73.4185 371.781C73.4263 369.828 75.1606 368.531 77.4497 368.531C79.7466 368.531 81.3481 369.844 81.4028 371.672H79.731ZM86.856 380.172C84.4497 380.172 82.8794 378.422 82.8872 375.797C82.8794 373.156 84.4497 371.406 86.856 371.406C89.2466 371.406 90.8091 373.156 90.8091 375.797C90.8091 378.422 89.2466 380.172 86.856 380.172ZM84.5591 375.797C84.5591 377.414 85.3013 378.781 86.856 378.781C88.3872 378.781 89.1216 377.414 89.1216 375.797C89.1216 374.172 88.3872 372.789 86.856 372.781C85.3013 372.789 84.5591 374.172 84.5591 375.797ZM96.0435 380.172C93.6372 380.172 92.0669 378.422 92.0747 375.797C92.0669 373.156 93.6372 371.406 96.0435 371.406C98.4341 371.406 99.9966 373.156 99.9966 375.797C99.9966 378.422 98.4341 380.172 96.0435 380.172ZM93.7466 375.797C93.7466 377.414 94.4888 378.781 96.0435 378.781C97.5747 378.781 98.3091 377.414 98.3091 375.797C98.3091 374.172 97.5747 372.789 96.0435 372.781C94.4888 372.789 93.7466 374.172 93.7466 375.797ZM102.372 383.188C102.028 383.18 101.692 383.172 101.481 383.141V381.75C101.668 381.766 101.997 381.773 102.231 381.781C102.747 381.773 103.176 381.742 103.575 380.672L103.778 380.109L100.668 371.516H102.45L104.59 378.094H104.684L106.825 371.516H108.622L105.122 381.125C104.629 382.469 103.77 383.18 102.372 383.188ZM109.325 377.609C109.317 375.672 110.965 375.172 112.497 375.062C113.059 375.031 114.333 374.961 114.723 374.945L114.715 374.266C114.723 373.305 114.129 372.75 112.997 372.75C112.012 372.75 111.418 373.203 111.247 373.828H109.59C109.739 372.422 111.051 371.406 113.059 371.406C114.411 371.406 116.379 371.898 116.387 374.359V380H114.762V378.844H114.7C114.372 379.477 113.59 380.188 112.184 380.188C110.575 380.188 109.317 379.266 109.325 377.609ZM110.95 377.625C110.95 378.438 111.622 378.852 112.559 378.859C113.918 378.852 114.731 377.945 114.731 376.938L114.723 376.164C114.34 376.188 113.129 376.273 112.731 376.297C111.637 376.375 110.95 376.789 110.95 377.625ZM120.075 374.969V380H118.403V371.516H120.012V372.906H120.106C120.504 371.992 121.34 371.406 122.606 371.406C124.348 371.406 125.504 372.508 125.497 374.609V380H123.84V374.812C123.833 373.578 123.168 372.844 122.043 372.844C120.895 372.844 120.075 373.617 120.075 374.969ZM131.09 383.359C128.95 383.359 127.536 382.414 127.387 380.828H129.09C129.254 381.633 130.004 382.023 131.106 382.016C132.434 382.023 133.27 381.445 133.278 380.125V378.453H133.168C132.872 379 132.262 379.875 130.7 379.875C128.7 379.875 127.153 378.383 127.153 375.672C127.153 372.961 128.676 371.406 130.715 371.406C132.293 371.406 132.872 372.359 133.184 372.891H133.293V371.516H134.918V380.188C134.926 382.367 133.278 383.359 131.09 383.359ZM128.856 375.703C128.848 377.367 129.614 378.492 131.075 378.5C132.497 378.492 133.293 377.453 133.293 375.703C133.293 373.984 132.512 372.82 131.075 372.828C129.598 372.82 128.848 374.078 128.856 375.703Z" fill="white"/>
<rect x="20" y="220" width="40.4185" height="40.4185" rx="20.2092" fill="#D9D9D9" fill-opacity="0.2"/>
<path d="M48.5171 249.533V247.501C48.5171 246.424 48.089 245.39 47.327 244.628C46.565 243.866 45.5315 243.438 44.4539 243.438H36.3274C35.2498 243.438 34.2163 243.866 33.4543 244.628C32.6922 245.39 32.2642 246.424 32.2642 247.501V249.533" stroke="black" stroke-width="2" stroke-linecap="round" stroke-linejoin="round"/>
<path d="M40.3906 239.375C42.6347 239.375 44.4539 237.556 44.4539 235.312C44.4539 233.067 42.6347 231.248 40.3906 231.248C38.1466 231.248 36.3274 233.067 36.3274 235.312C36.3274 237.556 38.1466 239.375 40.3906 239.375Z" stroke="black" stroke-width="2" stroke-linecap="round" stroke-linejoin="round"/>
<path d="M48.5171 249.533V247.501C48.5171 246.424 48.089 245.39 47.327 244.628C46.565 243.866 45.5315 243.438 44.4539 243.438H36.3274C35.2498 243.438 34.2163 243.866 33.4543 244.628C32.6922 245.39 32.2642 246.424 32.2642 247.501V249.533" stroke="white" stroke-opacity="0.7" stroke-width="2" stroke-linecap="round" stroke-linejoin="round"/>
<path d="M40.3906 239.375C42.6347 239.375 44.4539 237.556 44.4539 235.312C44.4539 233.067 42.6347 231.248 40.3906 231.248C38.1466 231.248 36.3274 233.067 36.3274 235.312C36.3274 237.556 38.1466 239.375 40.3906 239.375Z" stroke="white" stroke-opacity="0.7" stroke-width="2" stroke-linecap="round" stroke-linejoin="round"/>
<rect x="20" y="287" width="40.4185" height="40.4185" rx="20.2092" fill="#D9D9D9" fill-opacity="0.2"/>
<path d="M48.5171 316.533V314.501C48.5171 313.424 48.089 312.39 47.327 311.628C46.565 310.866 45.5315 310.438 44.4539 310.438H36.3274C35.2498 310.438 34.2163 310.866 33.4543 311.628C32.6922 312.39 32.2642 313.424 32.2642 314.501V316.533" stroke="black" stroke-width="2" stroke-linecap="round" stroke-linejoin="round"/>
<path d="M40.3906 306.375C42.6347 306.375 44.4539 304.556 44.4539 302.312C44.4539 300.067 42.6347 298.248 40.3906 298.248C38.1466 298.248 36.3274 300.067 36.3274 302.312C36.3274 304.556 38.1466 306.375 40.3906 306.375Z" stroke="black" stroke-width="2" stroke-linecap="round" stroke-linejoin="round"/>
<path d="M48.5171 316.533V314.501C48.5171 313.424 48.089 312.39 47.327 311.628C46.565 310.866 45.5315 310.438 44.4539 310.438H36.3274C35.2498 310.438 34.2163 310.866 33.4543 311.628C32.6922 312.39 32.2642 313.424 32.2642 314.501V316.533" stroke="white" stroke-opacity="0.7" stroke-width="2" stroke-linecap="round" stroke-linejoin="round"/>
<path d="M40.3906 306.375C42.6347 306.375 44.4539 304.556 44.4539 302.312C44.4539 300.067 42.6347 298.248 40.3906 298.248C38.1466 298.248 36.3274 300.067 36.3274 302.312C36.3274 304.556 38.1466 306.375 40.3906 306.375Z" stroke="white" stroke-opacity="0.7" stroke-width="2" stroke-linecap="round" stroke-linejoin="round"/>
<rect x="20" y="354" width="40.4185" height="40.4185" rx="20.2092" fill="#D9D9D9" fill-opacity="0.2"/>
<path d="M48.5171 383.533V381.501C48.5171 380.423 48.089 379.39 47.327 378.628C46.565 377.866 45.5315 377.438 44.4539 377.438H36.3274C35.2498 377.438 34.2163 377.866 33.4543 378.628C32.6922 379.39 32.2642 380.423 32.2642 381.501V383.533" stroke="black" stroke-width="2" stroke-linecap="round" stroke-linejoin="round"/>
<path d="M40.3906 373.375C42.6347 373.375 44.4539 371.555 44.4539 369.311C44.4539 367.067 42.6347 365.248 40.3906 365.248C38.1466 365.248 36.3274 367.067 36.3274 369.311C36.3274 371.555 38.1466 373.375 40.3906 373.375Z" stroke="black" stroke-width="2" stroke-linecap="round" stroke-linejoin="round"/>
<path d="M48.5171 383.533V381.501C48.5171 380.423 48.089 379.39 47.327 378.628C46.565 377.866 45.5315 377.438 44.4539 377.438H36.3274C35.2498 377.438 34.2163 377.866 33.4543 378.628C32.6922 379.39 32.2642 380.423 32.2642 381.501V383.533" stroke="white" stroke-opacity="0.7" stroke-width="2" stroke-linecap="round" stroke-linejoin="round"/>
<path d="M40.3906 373.375C42.6347 373.375 44.4539 371.555 44.4539 369.311C44.4539 367.067 42.6347 365.248 40.3906 365.248C38.1466 365.248 36.3274 367.067 36.3274 369.311C36.3274 371.555 38.1466 373.375 40.3906 373.375Z" stroke="white" stroke-opacity="0.7" stroke-width="2" stroke-linecap="round" stroke-linejoin="round"/>
<rect x="20" y="116" width="353" height="42" rx="16" fill="white" fill-opacity="0.1"/>
<path d="M42.6667 143.333C46.3486 143.333 49.3333 140.349 49.3333 136.667C49.3333 132.985 46.3486 130 42.6667 130C38.9848 130 36 132.985 36 136.667C36 140.349 38.9848 143.333 42.6667 143.333Z" stroke="#A0A0A0" stroke-width="2" stroke-linecap="round" stroke-linejoin="round"/>
<path d="M51 145L47.375 141.375" stroke="#A0A0A0" stroke-width="2" stroke-linecap="round" stroke-linejoin="round"/>
<path d="M42.6667 143.333C46.3486 143.333 49.3333 140.349 49.3333 136.667C49.3333 132.985 46.3486 130 42.6667 130C38.9848 130 36 132.985 36 136.667C36 140.349 38.9848 143.333 42.6667 143.333Z" stroke="#A0A0A0" stroke-width="2" stroke-linecap="round" stroke-linejoin="round"/>
<path d="M51 145L47.375 141.375" stroke="#A0A0A0" stroke-width="2" stroke-linecap="round" stroke-linejoin="round"/>
<circle cx="367.5" cy="235.5" r="1.5" fill="#D9D9D9"/>
<circle cx="367.5" cy="242.5" r="1.5" fill="#D9D9D9"/>
<circle cx="367.5" cy="249.5" r="1.5" fill="#D9D9D9"/>
<circle cx="367.5" cy="300.5" r="1.5" fill="#D9D9D9"/>
<circle cx="367.5" cy="307.5" r="1.5" fill="#D9D9D9"/>
<circle cx="367.5" cy="314.5" r="1.5" fill="#D9D9D9"/>
<circle cx="367.5" cy="367.5" r="1.5" fill="#D9D9D9"/>
<circle cx="367.5" cy="374.5" r="1.5" fill="#D9D9D9"/>
<circle cx="367.5" cy="381.5" r="1.5" fill="#D9D9D9"/>
<path d="M330.984 192.871C330.984 194.488 331.975 196.199 333.539 196.949L332.906 197.793C331.764 197.254 330.902 196.158 330.457 194.875C329.994 196.264 329.08 197.424 327.879 197.98L327.258 197.125C328.857 196.393 329.889 194.6 329.895 192.871V192.18H327.574V191.289H329.883V189.707H331.008V191.289H333.293V192.18H330.984V192.871ZM334.453 199.996V189.496H335.566V193.727H337.254V194.664H335.566V199.996H334.453ZM346.008 189.484V192.531H347.543V193.457H346.008V197.09H344.895V189.484H346.008ZM338.227 195.273V190.387H342.914V191.289H339.328V194.348C341.373 194.354 342.521 194.289 343.84 194.02L343.969 194.922C342.551 195.203 341.309 195.273 339.059 195.273H338.227ZM339.352 199.773V196.305H340.465V198.871H346.453V199.773H339.352ZM359.766 189.508V197.242H358.652V189.508H359.766ZM351.234 195.145C352.857 194.635 353.854 193.34 353.848 191.945V191.734H351.516V190.844H353.848V189.543H354.973V190.844H357.281V191.734H354.961V191.945C354.955 193.264 355.975 194.471 357.598 194.957L357.059 195.836C355.822 195.455 354.902 194.664 354.428 193.65C353.959 194.746 353.039 195.613 351.785 196.012L351.234 195.145ZM352.898 199.773V196.527H354.023V198.871H360.082V199.773H352.898ZM369.785 190.152V191.078C369.785 192.074 369.785 193.158 369.492 194.652H371.004V195.566H366.75V200.008H365.625V195.566H361.43V194.652H368.367C368.678 193.152 368.678 192.057 368.684 191.078V191.066H362.602V190.152H369.785Z" fill="#939393"/>
<path d="M320 199.5V198.5C320 197.97 319.789 197.461 319.414 197.086C319.039 196.711 318.53 196.5 318 196.5H314.5C313.97 196.5 313.461 196.711 313.086 197.086C312.711 197.461 312.5 197.97 312.5 198.5V199.5" stroke="#939393" stroke-linecap="round" stroke-linejoin="round"/>
<path d="M316.25 194.5C317.355 194.5 318.25 193.605 318.25 192.5C318.25 191.395 317.355 190.5 316.25 190.5C315.145 190.5 314.25 191.395 314.25 192.5C314.25 193.605 315.145 194.5 316.25 194.5Z" stroke="#939393" stroke-linecap="round" stroke-linejoin="round"/>
<path d="M323.5 194.5H320.5" stroke="#939393" stroke-linecap="round" stroke-linejoin="round"/>
<g filter="url(#filter0_d_2127_3093)">
<rect x="274" y="232" width="99" height="111" rx="10" fill="#EAEAEA"/>
</g>
<path d="M317.094 244.508V252.242H315.98V244.508H317.094ZM308.562 250.145C310.186 249.635 311.182 248.34 311.176 246.945V246.734H308.844V245.844H311.176V244.543H312.301V245.844H314.609V246.734H312.289V246.945C312.283 248.264 313.303 249.471 314.926 249.957L314.387 250.836C313.15 250.455 312.23 249.664 311.756 248.65C311.287 249.746 310.367 250.613 309.113 251.012L308.562 250.145ZM310.227 254.773V251.527H311.352V253.871H317.41V254.773H310.227ZM327.113 245.152V246.078C327.113 247.074 327.113 248.158 326.82 249.652H328.332V250.566H324.078V255.008H322.953V250.566H318.758V249.652H325.695C326.006 248.152 326.006 247.057 326.012 246.078V246.066H319.93V245.152H327.113ZM332.727 247.871C332.727 249.488 333.717 251.199 335.281 251.949L334.648 252.793C333.506 252.254 332.645 251.158 332.199 249.875C331.736 251.264 330.822 252.424 329.621 252.98L329 252.125C330.6 251.393 331.631 249.6 331.637 247.871V247.18H329.316V246.289H331.625V244.707H332.75V246.289H335.035V247.18H332.727V247.871ZM336.195 254.996V244.496H337.309V248.727H338.996V249.664H337.309V254.996H336.195ZM347.75 244.484V247.531H349.285V248.457H347.75V252.09H346.637V244.484H347.75ZM339.969 250.273V245.387H344.656V246.289H341.07V249.348C343.115 249.354 344.264 249.289 345.582 249.02L345.711 249.922C344.293 250.203 343.051 250.273 340.801 250.273H339.969ZM341.094 254.773V251.305H342.207V253.871H348.195V254.773H341.094Z" fill="#6D6D6D"/>
<path d="M317.094 269.508V277.242H315.98V269.508H317.094ZM308.562 275.145C310.186 274.635 311.182 273.34 311.176 271.945V271.734H308.844V270.844H311.176V269.543H312.301V270.844H314.609V271.734H312.289V271.945C312.283 273.264 313.303 274.471 314.926 274.957L314.387 275.836C313.15 275.455 312.23 274.664 311.756 273.65C311.287 274.746 310.367 275.613 309.113 276.012L308.562 275.145ZM310.227 279.773V276.527H311.352V278.871H317.41V279.773H310.227ZM327.113 270.152V271.078C327.113 272.074 327.113 273.158 326.82 274.652H328.332V275.566H324.078V280.008H322.953V275.566H318.758V274.652H325.695C326.006 273.152 326.006 272.057 326.012 271.078V271.066H319.93V270.152H327.113ZM334.32 271.23V272.133H329.105V271.23H331.168V269.801H332.27V271.23H334.32ZM329.445 275.18C329.439 273.768 330.4 272.766 331.719 272.766C333.049 272.766 333.998 273.768 334.004 275.18C333.998 276.615 333.049 277.623 331.719 277.617C330.4 277.623 329.439 276.615 329.445 275.18ZM330.43 275.18C330.424 276.07 330.963 276.668 331.719 276.668C332.475 276.668 333.02 276.07 333.02 275.18C333.02 274.307 332.475 273.697 331.719 273.691C330.963 273.697 330.424 274.307 330.43 275.18ZM334.801 279.504V269.73H335.855V273.867H337.062V269.496H338.117V279.996H337.062V274.781H335.855V279.504H334.801ZM348.512 269.496V279.996H347.445V269.496H348.512ZM339.348 277.102C340.836 276.205 341.592 274.295 341.598 272.426V271.582H339.664V270.68H344.469V271.582H342.664V272.426C342.664 274.219 343.391 276.018 344.867 276.867L344.199 277.688C343.197 277.09 342.512 276.018 342.143 274.752C341.768 276.123 341.053 277.295 340.027 277.934L339.348 277.102ZM343.695 274.125V273.211H345.324V269.719H346.379V279.469H345.324V274.125H343.695Z" fill="#6D6D6D"/>
<path d="M317.41 294.496V304.996H316.355V294.496H317.41ZM308.352 301.961C310.578 300.637 311.645 298.873 311.838 296.711H308.844V295.797H312.945C312.939 296.822 312.799 297.801 312.477 298.715H314.141V294.766H315.195V304.48H314.141V299.605H312.09C311.469 300.824 310.467 301.891 308.984 302.758L308.352 301.961ZM327.465 294.508V300.484H326.352V294.508H327.465ZM318.969 297.52C318.975 296.037 320.158 295.029 321.77 295.035C323.375 295.029 324.559 296.037 324.559 297.52C324.559 298.961 323.375 299.98 321.77 299.98C320.158 299.98 318.975 298.961 318.969 297.52ZM320.059 297.52C320.053 298.422 320.773 299.043 321.77 299.043C322.754 299.043 323.469 298.422 323.469 297.52C323.469 296.588 322.754 295.967 321.77 295.973C320.773 295.967 320.053 296.588 320.059 297.52ZM320.562 304.867V301.012H327.465V304.867H320.562ZM321.664 303.965H326.375V301.902H321.664V303.965ZM338.738 302.793V303.707H329.129V302.793H333.371V300.508H334.473V302.793H338.738ZM329.598 300.004C331.754 299.688 333.307 298.469 333.359 296.992H329.996V296.09H333.371V294.684H334.473V296.09H337.848V296.992H334.484C334.537 298.469 336.09 299.688 338.246 300.004L337.824 300.871C336.066 300.596 334.602 299.764 333.916 298.539C333.236 299.764 331.777 300.596 330.02 300.871L329.598 300.004ZM348.512 294.496V304.996H347.445V299.57H346.086V304.457H345.066V294.707H346.086V298.656H347.445V294.496H348.512ZM339.852 302.477V295.762H343.789V296.664H340.965V301.527C342.254 301.521 343.227 301.463 344.352 301.246L344.434 302.16C343.174 302.424 342.084 302.465 340.555 302.477H339.852Z" fill="#6D6D6D"/>
<path d="M311.973 320.516V329H310.672V321.805H310.625L308.598 323.129V321.898L310.707 320.516H311.973ZM314.961 329.082C314.504 329.076 314.123 328.707 314.129 328.25C314.123 327.793 314.504 327.418 314.961 327.418C315.412 327.418 315.787 327.793 315.793 328.25C315.787 328.707 315.412 329.076 314.961 329.082ZM314.129 323.621C314.123 323.164 314.504 322.789 314.961 322.789C315.412 322.789 315.787 323.164 315.793 323.621C315.787 324.078 315.412 324.447 314.961 324.453C314.504 324.447 314.123 324.078 314.129 323.621ZM320.516 320.516V329H319.215V321.805H319.168L317.141 323.129V321.898L319.25 320.516H320.516ZM329.668 320.68V323.41H331.074V319.695H332.141V329.48H331.074V324.324H329.668V327.23H325.59V320.68H329.668ZM326.645 326.34H328.625V321.559H326.645V326.34ZM333.207 329.996V319.496H334.273V329.996H333.207ZM339.465 322.168C339.453 324.084 340.613 326.018 342.242 326.738L341.574 327.617C340.367 327.043 339.412 325.865 338.92 324.43C338.434 325.971 337.467 327.236 336.207 327.852L335.527 326.914C337.18 326.182 338.34 324.172 338.34 322.168V320.375H339.465V322.168ZM343.191 330.02V319.496H344.305V330.02H343.191ZM349.848 322.59C349.842 324.348 350.996 326.164 352.613 326.855L352.004 327.723C350.768 327.178 349.783 326.018 349.297 324.617C348.811 326.117 347.826 327.395 346.602 327.992L345.957 327.113C347.539 326.369 348.711 324.4 348.723 322.59V321.477H346.32V320.551H352.238V321.477H349.848V322.59ZM353.562 329.996V319.496H354.676V329.996H353.562Z" fill="#6D6D6D"/>
<g clip-path="url(#clip0_2127_3093)">
<path d="M295.76 255.123V253.778C295.76 253.064 295.477 252.38 294.972 251.876C294.468 251.371 293.784 251.088 293.07 251.088H288.363C287.649 251.088 286.965 251.371 286.461 251.876C285.956 252.38 285.673 253.064 285.673 253.778V255.123" stroke="#6D6D6D" stroke-width="1.2" stroke-linecap="round" stroke-linejoin="round"/>
<path d="M290.716 248.398C292.202 248.398 293.406 247.193 293.406 245.708C293.406 244.222 292.202 243.018 290.716 243.018C289.231 243.018 288.026 244.222 288.026 245.708C288.026 247.193 289.231 248.398 290.716 248.398Z" stroke="#6D6D6D" stroke-width="1.2" stroke-linecap="round" stroke-linejoin="round"/>
<path d="M297.105 246.38L300.468 249.743" stroke="#6D6D6D" stroke-width="1.2" stroke-linecap="round" stroke-linejoin="round"/>
<path d="M300.468 246.38L297.105 249.743" stroke="#6D6D6D" stroke-width="1.2" stroke-linecap="round" stroke-linejoin="round"/>
</g>
<path d="M298 294L291.4 300.6" stroke="#6D6D6D" stroke-width="1.2" stroke-linecap="round" stroke-linejoin="round"/>
<path d="M298 294L293.8 306L291.4 300.6L286 298.2L298 294Z" stroke="#6D6D6D" stroke-width="1.2" stroke-linecap="round" stroke-linejoin="round"/>
<path d="M298 324.667C298.002 325.547 297.797 326.415 297.4 327.2C296.93 328.141 296.207 328.933 295.312 329.486C294.417 330.04 293.385 330.333 292.333 330.333C291.453 330.336 290.585 330.13 289.8 329.733L286 331L287.267 327.2C286.87 326.415 286.664 325.547 286.667 324.667C286.667 323.615 286.96 322.583 287.514 321.688C288.067 320.794 288.859 320.07 289.8 319.6C290.585 319.203 291.453 318.998 292.333 319H292.667C294.056 319.077 295.369 319.663 296.353 320.647C297.337 321.631 297.923 322.944 298 324.333V324.667Z" stroke="#6D6D6D" stroke-width="1.2" stroke-linecap="round" stroke-linejoin="round"/>
<path d="M177.328 80.2344V90.625H175.328V80.2344H177.328ZM165.547 87.5781C167.898 86.8906 168.945 85.2188 168.938 83.5312V83.4219H166.031V81.875H168.938V80.2969H170.969V81.875H173.859V83.4219H170.953V83.5312C170.938 85.1172 172.016 86.6953 174.359 87.3281L173.406 88.8906C171.766 88.4375 170.633 87.4922 169.984 86.2812C169.344 87.6016 168.188 88.6484 166.5 89.125L165.547 87.5781ZM167.797 94.1875V89.7031H169.812V92.5938H177.703V94.1875H167.797ZM190.703 81.0469V82.3281C190.695 83.6562 190.695 85.1016 190.336 87.0938H192.219V88.7031H186.672V94.4531H184.672V88.7031H179.25V87.0938H188.312C188.68 85.2656 188.711 83.8672 188.719 82.6406H180.734V81.0469H190.703ZM204.141 81.0469C204.141 84.7656 201.789 87.3438 197.625 88.5L196.844 86.9531C199.914 86.1172 201.68 84.5547 202.008 82.6406H197.609V81.0469H204.141ZM199.328 94.2656V88.75H208.75V94.2656H199.328ZM201.281 92.7031H206.781V90.3125H201.281V92.7031ZM204.234 85.2344V83.6094H206.766V80.2344H208.75V88.1875H206.766V85.2344H204.234ZM215.141 82.6875C215.141 84.2734 215.922 85.8125 217.812 86.5625L216.734 88.0938C215.531 87.6094 214.695 86.7422 214.188 85.6719C213.672 86.8906 212.773 87.9141 211.453 88.4688L210.391 86.9219C212.398 86.0625 213.203 84.2969 213.203 82.6875V81.0469H215.141V82.6875ZM212.984 91.0625V89.4688H222.812V94.4375H220.828V91.0625H212.984ZM217.875 88.7656V80.4531H219.734V83.6875H220.922V80.2344H222.812V88.8438H220.922V85.3125H219.734V88.7656H217.875Z" fill="white"/>
<g clip-path="url(#clip1_2127_3093)">
<path d="M295.76 280.123V278.778C295.76 278.064 295.477 277.38 294.972 276.876C294.468 276.371 293.784 276.088 293.07 276.088H288.363C287.649 276.088 286.965 276.371 286.461 276.876C285.956 277.38 285.673 278.064 285.673 278.778V280.123" stroke="#6D6D6D" stroke-width="1.2" stroke-linecap="round" stroke-linejoin="round"/>
<path d="M290.716 273.398C292.202 273.398 293.406 272.193 293.406 270.708C293.406 269.222 292.202 268.018 290.716 268.018C289.231 268.018 288.026 269.222 288.026 270.708C288.026 272.193 289.231 273.398 290.716 273.398Z" stroke="#6D6D6D" stroke-width="1.2" stroke-linecap="round" stroke-linejoin="round"/>
<path d="M300.468 273.398H296.433" stroke="#6D6D6D" stroke-width="1.2" stroke-linecap="round" stroke-linejoin="round"/>
</g>
<g filter="url(#filter1_d_2127_3093)">
<rect x="274" y="232" width="99" height="111" rx="10" fill="#EAEAEA"/>
</g>
<path d="M317.094 244.508V252.242H315.98V244.508H317.094ZM308.562 250.145C310.186 249.635 311.182 248.34 311.176 246.945V246.734H308.844V245.844H311.176V244.543H312.301V245.844H314.609V246.734H312.289V246.945C312.283 248.264 313.303 249.471 314.926 249.957L314.387 250.836C313.15 250.455 312.23 249.664 311.756 248.65C311.287 249.746 310.367 250.613 309.113 251.012L308.562 250.145ZM310.227 254.773V251.527H311.352V253.871H317.41V254.773H310.227ZM327.113 245.152V246.078C327.113 247.074 327.113 248.158 326.82 249.652H328.332V250.566H324.078V255.008H322.953V250.566H318.758V249.652H325.695C326.006 248.152 326.006 247.057 326.012 246.078V246.066H319.93V245.152H327.113ZM332.727 247.871C332.727 249.488 333.717 251.199 335.281 251.949L334.648 252.793C333.506 252.254 332.645 251.158 332.199 249.875C331.736 251.264 330.822 252.424 329.621 252.98L329 252.125C330.6 251.393 331.631 249.6 331.637 247.871V247.18H329.316V246.289H331.625V244.707H332.75V246.289H335.035V247.18H332.727V247.871ZM336.195 254.996V244.496H337.309V248.727H338.996V249.664H337.309V254.996H336.195ZM347.75 244.484V247.531H349.285V248.457H347.75V252.09H346.637V244.484H347.75ZM339.969 250.273V245.387H344.656V246.289H341.07V249.348C343.115 249.354 344.264 249.289 345.582 249.02L345.711 249.922C344.293 250.203 343.051 250.273 340.801 250.273H339.969ZM341.094 254.773V251.305H342.207V253.871H348.195V254.773H341.094Z" fill="#6D6D6D"/>
<path d="M317.094 269.508V277.242H315.98V269.508H317.094ZM308.562 275.145C310.186 274.635 311.182 273.34 311.176 271.945V271.734H308.844V270.844H311.176V269.543H312.301V270.844H314.609V271.734H312.289V271.945C312.283 273.264 313.303 274.471 314.926 274.957L314.387 275.836C313.15 275.455 312.23 274.664 311.756 273.65C311.287 274.746 310.367 275.613 309.113 276.012L308.562 275.145ZM310.227 279.773V276.527H311.352V278.871H317.41V279.773H310.227ZM327.113 270.152V271.078C327.113 272.074 327.113 273.158 326.82 274.652H328.332V275.566H324.078V280.008H322.953V275.566H318.758V274.652H325.695C326.006 273.152 326.006 272.057 326.012 271.078V271.066H319.93V270.152H327.113ZM334.32 271.23V272.133H329.105V271.23H331.168V269.801H332.27V271.23H334.32ZM329.445 275.18C329.439 273.768 330.4 272.766 331.719 272.766C333.049 272.766 333.998 273.768 334.004 275.18C333.998 276.615 333.049 277.623 331.719 277.617C330.4 277.623 329.439 276.615 329.445 275.18ZM330.43 275.18C330.424 276.07 330.963 276.668 331.719 276.668C332.475 276.668 333.02 276.07 333.02 275.18C333.02 274.307 332.475 273.697 331.719 273.691C330.963 273.697 330.424 274.307 330.43 275.18ZM334.801 279.504V269.73H335.855V273.867H337.062V269.496H338.117V279.996H337.062V274.781H335.855V279.504H334.801ZM348.512 269.496V279.996H347.445V269.496H348.512ZM339.348 277.102C340.836 276.205 341.592 274.295 341.598 272.426V271.582H339.664V270.68H344.469V271.582H342.664V272.426C342.664 274.219 343.391 276.018 344.867 276.867L344.199 277.688C343.197 277.09 342.512 276.018 342.143 274.752C341.768 276.123 341.053 277.295 340.027 277.934L339.348 277.102ZM343.695 274.125V273.211H345.324V269.719H346.379V279.469H345.324V274.125H343.695Z" fill="#6D6D6D"/>
<path d="M317.41 294.496V304.996H316.355V294.496H317.41ZM308.352 301.961C310.578 300.637 311.645 298.873 311.838 296.711H308.844V295.797H312.945C312.939 296.822 312.799 297.801 312.477 298.715H314.141V294.766H315.195V304.48H314.141V299.605H312.09C311.469 300.824 310.467 301.891 308.984 302.758L308.352 301.961ZM327.465 294.508V300.484H326.352V294.508H327.465ZM318.969 297.52C318.975 296.037 320.158 295.029 321.77 295.035C323.375 295.029 324.559 296.037 324.559 297.52C324.559 298.961 323.375 299.98 321.77 299.98C320.158 299.98 318.975 298.961 318.969 297.52ZM320.059 297.52C320.053 298.422 320.773 299.043 321.77 299.043C322.754 299.043 323.469 298.422 323.469 297.52C323.469 296.588 322.754 295.967 321.77 295.973C320.773 295.967 320.053 296.588 320.059 297.52ZM320.562 304.867V301.012H327.465V304.867H320.562ZM321.664 303.965H326.375V301.902H321.664V303.965ZM338.738 302.793V303.707H329.129V302.793H333.371V300.508H334.473V302.793H338.738ZM329.598 300.004C331.754 299.688 333.307 298.469 333.359 296.992H329.996V296.09H333.371V294.684H334.473V296.09H337.848V296.992H334.484C334.537 298.469 336.09 299.688 338.246 300.004L337.824 300.871C336.066 300.596 334.602 299.764 333.916 298.539C333.236 299.764 331.777 300.596 330.02 300.871L329.598 300.004ZM348.512 294.496V304.996H347.445V299.57H346.086V304.457H345.066V294.707H346.086V298.656H347.445V294.496H348.512ZM339.852 302.477V295.762H343.789V296.664H340.965V301.527C342.254 301.521 343.227 301.463 344.352 301.246L344.434 302.16C343.174 302.424 342.084 302.465 340.555 302.477H339.852Z" fill="#6D6D6D"/>
<path d="M311.973 320.516V329H310.672V321.805H310.625L308.598 323.129V321.898L310.707 320.516H311.973ZM314.961 329.082C314.504 329.076 314.123 328.707 314.129 328.25C314.123 327.793 314.504 327.418 314.961 327.418C315.412 327.418 315.787 327.793 315.793 328.25C315.787 328.707 315.412 329.076 314.961 329.082ZM314.129 323.621C314.123 323.164 314.504 322.789 314.961 322.789C315.412 322.789 315.787 323.164 315.793 323.621C315.787 324.078 315.412 324.447 314.961 324.453C314.504 324.447 314.123 324.078 314.129 323.621ZM320.516 320.516V329H319.215V321.805H319.168L317.141 323.129V321.898L319.25 320.516H320.516ZM329.668 320.68V323.41H331.074V319.695H332.141V329.48H331.074V324.324H329.668V327.23H325.59V320.68H329.668ZM326.645 326.34H328.625V321.559H326.645V326.34ZM333.207 329.996V319.496H334.273V329.996H333.207ZM339.465 322.168C339.453 324.084 340.613 326.018 342.242 326.738L341.574 327.617C340.367 327.043 339.412 325.865 338.92 324.43C338.434 325.971 337.467 327.236 336.207 327.852L335.527 326.914C337.18 326.182 338.34 324.172 338.34 322.168V320.375H339.465V322.168ZM343.191 330.02V319.496H344.305V330.02H343.191ZM349.848 322.59C349.842 324.348 350.996 326.164 352.613 326.855L352.004 327.723C350.768 327.178 349.783 326.018 349.297 324.617C348.811 326.117 347.826 327.395 346.602 327.992L345.957 327.113C347.539 326.369 348.711 324.4 348.723 322.59V321.477H346.32V320.551H352.238V321.477H349.848V322.59ZM353.562 329.996V319.496H354.676V329.996H353.562Z" fill="#6D6D6D"/>
<g clip-path="url(#clip2_2127_3093)">
<path d="M295.76 255.123V253.778C295.76 253.064 295.477 252.38 294.972 251.876C294.468 251.371 293.784 251.088 293.07 251.088H288.363C287.649 251.088 286.965 251.371 286.461 251.876C285.956 252.38 285.673 253.064 285.673 253.778V255.123" stroke="#6D6D6D" stroke-width="1.2" stroke-linecap="round" stroke-linejoin="round"/>
<path d="M290.716 248.398C292.202 248.398 293.406 247.193 293.406 245.708C293.406 244.222 292.202 243.018 290.716 243.018C289.231 243.018 288.026 244.222 288.026 245.708C288.026 247.193 289.231 248.398 290.716 248.398Z" stroke="#6D6D6D" stroke-width="1.2" stroke-linecap="round" stroke-linejoin="round"/>
<path d="M297.105 246.38L300.468 249.743" stroke="#6D6D6D" stroke-width="1.2" stroke-linecap="round" stroke-linejoin="round"/>
<path d="M300.468 246.38L297.105 249.743" stroke="#6D6D6D" stroke-width="1.2" stroke-linecap="round" stroke-linejoin="round"/>
</g>
<path d="M298 294L291.4 300.6" stroke="#6D6D6D" stroke-width="1.2" stroke-linecap="round" stroke-linejoin="round"/>
<path d="M298 294L293.8 306L291.4 300.6L286 298.2L298 294Z" stroke="#6D6D6D" stroke-width="1.2" stroke-linecap="round" stroke-linejoin="round"/>
<path d="M298 324.667C298.002 325.547 297.797 326.415 297.4 327.2C296.93 328.141 296.207 328.933 295.312 329.486C294.417 330.04 293.385 330.333 292.333 330.333C291.453 330.336 290.585 330.13 289.8 329.733L286 331L287.267 327.2C286.87 326.415 286.664 325.547 286.667 324.667C286.667 323.615 286.96 322.583 287.514 321.688C288.067 320.794 288.859 320.07 289.8 319.6C290.585 319.203 291.453 318.998 292.333 319H292.667C294.056 319.077 295.369 319.663 296.353 320.647C297.337 321.631 297.923 322.944 298 324.333V324.667Z" stroke="#6D6D6D" stroke-width="1.2" stroke-linecap="round" stroke-linejoin="round"/>
<g clip-path="url(#clip3_2127_3093)">
<path d="M295.76 280.123V278.778C295.76 278.064 295.477 277.38 294.972 276.876C294.468 276.371 293.784 276.088 293.07 276.088H288.363C287.649 276.088 286.965 276.371 286.461 276.876C285.956 277.38 285.673 278.064 285.673 278.778V280.123" stroke="#6D6D6D" stroke-width="1.2" stroke-linecap="round" stroke-linejoin="round"/>
<path d="M290.716 273.398C292.202 273.398 293.406 272.193 293.406 270.708C293.406 269.222 292.202 268.018 290.716 268.018C289.231 268.018 288.026 269.222 288.026 270.708C288.026 272.193 289.231 273.398 290.716 273.398Z" stroke="#6D6D6D" stroke-width="1.2" stroke-linecap="round" stroke-linejoin="round"/>
<path d="M300.468 273.398H296.433" stroke="#6D6D6D" stroke-width="1.2" stroke-linecap="round" stroke-linejoin="round"/>
</g>
<rect y="769" width="393" height="83" fill="#3F3F3F"/>
<path d="M40 794L49 787L58 794V805C58 805.53 57.7893 806.039 57.4142 806.414C57.0391 806.789 56.5304 807 56 807H42C41.4696 807 40.9609 806.789 40.5858 806.414C40.2107 806.039 40 805.53 40 805V794Z" stroke="white" stroke-width="2" stroke-linecap="round" stroke-linejoin="round"/>
<path d="M46 807V797H52V807" stroke="white" stroke-width="2" stroke-linecap="round" stroke-linejoin="round"/>
<path d="M127 806V804C127 802.939 126.579 801.922 125.828 801.172C125.078 800.421 124.061 800 123 800H115C113.939 800 112.922 800.421 112.172 801.172C111.421 801.922 111 802.939 111 804V806" stroke="white" stroke-width="2" stroke-linecap="round" stroke-linejoin="round"/>
<path d="M119 796C121.209 796 123 794.209 123 792C123 789.791 121.209 788 119 788C116.791 788 115 789.791 115 792C115 794.209 116.791 796 119 796Z" stroke="white" stroke-width="2" stroke-linecap="round" stroke-linejoin="round"/>
<path d="M133 806V804C132.999 803.114 132.704 802.253 132.161 801.552C131.618 800.852 130.858 800.352 130 800.13" stroke="white" stroke-width="2" stroke-linecap="round" stroke-linejoin="round"/>
<path d="M126 788.13C126.86 788.35 127.623 788.851 128.168 789.552C128.712 790.254 129.008 791.117 129.008 792.005C129.008 792.893 128.712 793.756 128.168 794.458C127.623 795.159 126.86 795.66 126 795.88" stroke="white" stroke-width="2" stroke-linecap="round" stroke-linejoin="round"/>
<path d="M204 796.5C204.003 797.82 203.695 799.122 203.1 800.3C202.394 801.712 201.31 802.899 199.967 803.729C198.625 804.559 197.078 804.999 195.5 805C194.18 805.003 192.878 804.695 191.7 804.1L186 806L187.9 800.3C187.305 799.122 186.997 797.82 187 796.5C187.001 794.922 187.441 793.375 188.271 792.033C189.101 790.69 190.288 789.606 191.7 788.9C192.878 788.305 194.18 787.997 195.5 788H196C198.084 788.115 200.053 788.995 201.529 790.471C203.005 791.947 203.885 793.916 204 796V796.5Z" stroke="white" stroke-width="2" stroke-linecap="round" stroke-linejoin="round"/>
<path d="M268 796V792M273 796V792M278 787H260V803H265V807L269 803H274L278 799V787Z" stroke="white" stroke-width="2" stroke-linecap="round" stroke-linejoin="round"/>
<path d="M349 793C349 791.409 348.368 789.883 347.243 788.757C346.117 787.632 344.591 787 343 787C341.409 787 339.883 787.632 338.757 788.757C337.632 789.883 337 791.409 337 793C337 800 334 802 334 802H352C352 802 349 800 349 793Z" stroke="white" stroke-width="2" stroke-linecap="round" stroke-linejoin="round"/>
<path d="M344.73 806C344.554 806.303 344.302 806.555 343.998 806.73C343.695 806.904 343.35 806.996 343 806.996C342.65 806.996 342.305 806.904 342.002 806.73C341.698 806.555 341.446 806.303 341.27 806" stroke="white" stroke-width="2" stroke-linecap="round" stroke-linejoin="round"/>
<path d="M27 95L20 88L27 81" stroke="#D9D9D9" stroke-width="2" stroke-linecap="round" stroke-linejoin="round"/>
<circle cx="58" cy="256" r="5" fill="white"/>
<circle cx="58" cy="322" r="5" fill="#9B6DFC"/>
<circle cx="58" cy="389" r="5" fill="#6DFCAF"/>
<defs>
<filter id="filter0_d_2127_3093" x="270" y="232" width="107" height="119" filterUnits="userSpaceOnUse" color-interpolation-filters="sRGB">
<feFlood flood-opacity="0" result="BackgroundImageFix"/>
<feColorMatrix in="SourceAlpha" type="matrix" values="0 0 0 0 0 0 0 0 0 0 0 0 0 0 0 0 0 0 127 0" result="hardAlpha"/>
<feOffset dy="4"/>
<feGaussianBlur stdDeviation="2"/>
<feComposite in2="hardAlpha" operator="out"/>
<feColorMatrix type="matrix" values="0 0 0 0 0 0 0 0 0 0 0 0 0 0 0 0 0 0 0.25 0"/>
<feBlend mode="normal" in2="BackgroundImageFix" result="effect1_dropShadow_2127_3093"/>
<feBlend mode="normal" in="SourceGraphic" in2="effect1_dropShadow_2127_3093" result="shape"/>
</filter>
<filter id="filter1_d_2127_3093" x="270" y="232" width="107" height="119" filterUnits="userSpaceOnUse" color-interpolation-filters="sRGB">
<feFlood flood-opacity="0" result="BackgroundImageFix"/>
<feColorMatrix in="SourceAlpha" type="matrix" values="0 0 0 0 0 0 0 0 0 0 0 0 0 0 0 0 0 0 127 0" result="hardAlpha"/>
<feOffset dy="4"/>
<feGaussianBlur stdDeviation="2"/>
<feComposite in2="hardAlpha" operator="out"/>
<feColorMatrix type="matrix" values="0 0 0 0 0 0 0 0 0 0 0 0 0 0 0 0 0 0 0.25 0"/>
<feBlend mode="normal" in2="BackgroundImageFix" result="effect1_dropShadow_2127_3093"/>
<feBlend mode="normal" in="SourceGraphic" in2="effect1_dropShadow_2127_3093" result="shape"/>
</filter>
<clipPath id="clip0_2127_3093">
<rect width="16.1404" height="16.1404" fill="white" transform="translate(285 241)"/>
</clipPath>
<clipPath id="clip1_2127_3093">
<rect width="16.1404" height="16.1404" fill="white" transform="translate(285 266)"/>
</clipPath>
<clipPath id="clip2_2127_3093">
<rect width="16.1404" height="16.1404" fill="white" transform="translate(285 241)"/>
</clipPath>
<clipPath id="clip3_2127_3093">
<rect width="16.1404" height="16.1404" fill="white" transform="translate(285 266)"/>
</clipPath>
</defs>
</svg>
