<svg width="393" height="852" viewBox="0 0 393 852" fill="none" xmlns="http://www.w3.org/2000/svg">
<rect width="393" height="852" fill="#2D2D2D"/>
<path d="M73.125 308H85.125C87.2417 308 89.15 308.375 90.85 309.125C92.55 309.858 93.9 310.983 94.9 312.5C95.9167 314 96.425 315.883 96.425 318.15C96.425 320.4 95.9167 322.317 94.9 323.9C93.9 325.467 92.55 326.667 90.85 327.5C89.15 328.317 87.2417 328.725 85.125 328.725H80.6V341H73.125V308ZM80.6 322.825H83.05C84.0667 322.825 84.975 322.675 85.775 322.375C86.5917 322.075 87.2417 321.6 87.725 320.95C88.2083 320.283 88.45 319.408 88.45 318.325C88.45 317.225 88.2083 316.358 87.725 315.725C87.2417 315.075 86.5917 314.608 85.775 314.325C84.975 314.042 84.0667 313.9 83.05 313.9H80.6V322.825ZM109.282 341.6C107.032 341.6 105.032 341.142 103.282 340.225C101.549 339.292 100.182 338.017 99.1824 336.4C98.1991 334.767 97.7074 332.9 97.7074 330.8C97.7074 328.7 98.1991 326.833 99.1824 325.2C100.182 323.55 101.549 322.25 103.282 321.3C105.032 320.35 107.032 319.875 109.282 319.875C111.532 319.875 113.516 320.35 115.232 321.3C116.949 322.25 118.291 323.55 119.257 325.2C120.224 326.833 120.707 328.7 120.707 330.8C120.707 332.9 120.224 334.767 119.257 336.4C118.291 338.017 116.949 339.292 115.232 340.225C113.516 341.142 111.532 341.6 109.282 341.6ZM109.282 335.35C110.149 335.35 110.899 335.158 111.532 334.775C112.166 334.392 112.657 333.85 113.007 333.15C113.357 332.45 113.532 331.658 113.532 330.775C113.532 329.875 113.357 329.075 113.007 328.375C112.657 327.675 112.166 327.125 111.532 326.725C110.899 326.325 110.149 326.125 109.282 326.125C108.416 326.125 107.657 326.325 107.007 326.725C106.374 327.125 105.874 327.675 105.507 328.375C105.157 329.075 104.982 329.875 104.982 330.775C104.982 331.658 105.157 332.45 105.507 333.15C105.874 333.85 106.374 334.392 107.007 334.775C107.657 335.158 108.416 335.35 109.282 335.35ZM138.788 319.875C140.221 319.875 141.621 320.167 142.988 320.75C144.354 321.333 145.479 322.258 146.363 323.525C147.246 324.775 147.687 326.425 147.687 328.475V341H140.063V329.725C140.063 328.258 139.713 327.158 139.013 326.425C138.313 325.675 137.396 325.3 136.263 325.3C135.513 325.3 134.804 325.5 134.138 325.9C133.488 326.283 132.954 326.833 132.538 327.55C132.138 328.25 131.938 329.058 131.938 329.975V341H124.338V320.475H131.938V323.5C132.138 322.95 132.554 322.4 133.188 321.85C133.838 321.283 134.646 320.817 135.613 320.45C136.596 320.067 137.654 319.875 138.788 319.875ZM162.879 351.975C161.446 351.975 160.021 351.85 158.604 351.6C157.204 351.35 155.896 350.925 154.679 350.325C153.462 349.725 152.437 348.9 151.604 347.85L156.054 343.225C156.437 343.675 156.904 344.117 157.454 344.55C158.021 344.983 158.712 345.342 159.529 345.625C160.362 345.908 161.371 346.05 162.554 346.05C163.654 346.05 164.612 345.858 165.429 345.475C166.246 345.092 166.879 344.533 167.329 343.8C167.796 343.067 168.029 342.175 168.029 341.125V340.625H175.504V341.575C175.504 343.842 174.937 345.75 173.804 347.3C172.687 348.85 171.179 350.017 169.279 350.8C167.379 351.583 165.246 351.975 162.879 351.975ZM168.029 341V337.675C167.879 338.008 167.496 338.492 166.879 339.125C166.279 339.758 165.479 340.333 164.479 340.85C163.479 341.35 162.312 341.6 160.979 341.6C158.979 341.6 157.229 341.117 155.729 340.15C154.229 339.167 153.062 337.858 152.229 336.225C151.396 334.575 150.979 332.75 150.979 330.75C150.979 328.75 151.396 326.933 152.229 325.3C153.062 323.65 154.229 322.333 155.729 321.35C157.229 320.367 158.979 319.875 160.979 319.875C162.262 319.875 163.387 320.083 164.354 320.5C165.321 320.9 166.104 321.383 166.704 321.95C167.304 322.5 167.721 323.008 167.954 323.475V320.475H175.504V341H168.029ZM158.429 330.75C158.429 331.683 158.646 332.525 159.079 333.275C159.512 334.008 160.087 334.583 160.804 335C161.537 335.417 162.346 335.625 163.229 335.625C164.146 335.625 164.954 335.417 165.654 335C166.354 334.583 166.904 334.008 167.304 333.275C167.721 332.525 167.929 331.683 167.929 330.75C167.929 329.817 167.721 328.983 167.304 328.25C166.904 327.5 166.354 326.917 165.654 326.5C164.954 326.067 164.146 325.85 163.229 325.85C162.346 325.85 161.537 326.067 160.804 326.5C160.087 326.917 159.512 327.5 159.079 328.25C158.646 328.983 158.429 329.817 158.429 330.75ZM209.233 322.55H226.058V324.65C226.058 327.017 225.658 329.225 224.858 331.275C224.074 333.325 222.949 335.125 221.483 336.675C220.016 338.225 218.266 339.433 216.233 340.3C214.199 341.167 211.949 341.6 209.483 341.6C206.933 341.6 204.616 341.167 202.533 340.3C200.466 339.417 198.683 338.192 197.183 336.625C195.683 335.058 194.533 333.242 193.733 331.175C192.933 329.092 192.533 326.858 192.533 324.475C192.533 322.108 192.933 319.892 193.733 317.825C194.533 315.742 195.683 313.925 197.183 312.375C198.683 310.808 200.466 309.592 202.533 308.725C204.616 307.842 206.933 307.4 209.483 307.4C211.566 307.4 213.399 307.625 214.983 308.075C216.583 308.525 217.958 309.125 219.108 309.875C220.258 310.625 221.233 311.45 222.033 312.35C222.833 313.233 223.499 314.1 224.033 314.95L216.933 318.3C216.249 317.25 215.316 316.333 214.133 315.55C212.966 314.767 211.416 314.375 209.483 314.375C208.133 314.375 206.891 314.642 205.758 315.175C204.641 315.708 203.674 316.442 202.858 317.375C202.041 318.292 201.408 319.367 200.958 320.6C200.524 321.817 200.308 323.108 200.308 324.475C200.308 325.858 200.524 327.158 200.958 328.375C201.408 329.592 202.041 330.667 202.858 331.6C203.674 332.533 204.641 333.267 205.758 333.8C206.891 334.317 208.133 334.575 209.483 334.575C210.666 334.575 211.741 334.425 212.708 334.125C213.674 333.825 214.508 333.392 215.208 332.825C215.924 332.258 216.483 331.592 216.883 330.825C217.299 330.042 217.549 329.183 217.633 328.25H209.233V322.55ZM246.3 341V337.675C246.15 338.008 245.767 338.492 245.15 339.125C244.55 339.758 243.75 340.333 242.75 340.85C241.75 341.35 240.584 341.6 239.25 341.6C237.25 341.6 235.5 341.117 234 340.15C232.5 339.167 231.334 337.858 230.5 336.225C229.667 334.575 229.25 332.75 229.25 330.75C229.25 328.75 229.667 326.933 230.5 325.3C231.334 323.65 232.5 322.333 234 321.35C235.5 320.367 237.25 319.875 239.25 319.875C240.534 319.875 241.659 320.083 242.625 320.5C243.592 320.9 244.375 321.383 244.975 321.95C245.575 322.5 245.992 323.008 246.225 323.475V320.475H253.775V341H246.3ZM236.7 330.75C236.7 331.683 236.917 332.525 237.35 333.275C237.784 334.008 238.359 334.583 239.075 335C239.809 335.417 240.617 335.625 241.5 335.625C242.417 335.625 243.225 335.417 243.925 335C244.625 334.583 245.175 334.008 245.575 333.275C245.992 332.525 246.2 331.683 246.2 330.75C246.2 329.817 245.992 328.983 245.575 328.25C245.175 327.5 244.625 326.917 243.925 326.5C243.225 326.067 242.417 325.85 241.5 325.85C240.617 325.85 239.809 326.067 239.075 326.5C238.359 326.917 237.784 327.5 237.35 328.25C236.917 328.983 236.7 329.817 236.7 330.75ZM286.823 319.875C288.373 319.875 289.74 320.2 290.923 320.85C292.106 321.483 293.031 322.467 293.698 323.8C294.381 325.133 294.723 326.85 294.723 328.95V341H287.248V330.1C287.248 328.667 287.031 327.508 286.598 326.625C286.165 325.742 285.306 325.3 284.023 325.3C283.256 325.3 282.581 325.5 281.998 325.9C281.415 326.3 280.965 326.858 280.648 327.575C280.331 328.275 280.173 329.117 280.173 330.1V341H273.198V330.1C273.198 328.667 272.956 327.508 272.473 326.625C272.006 325.742 271.173 325.3 269.973 325.3C269.206 325.3 268.531 325.5 267.948 325.9C267.365 326.283 266.915 326.833 266.598 327.55C266.298 328.25 266.148 329.1 266.148 330.1V341H258.598V320.475H266.148V323.4C266.348 322.883 266.781 322.358 267.448 321.825C268.131 321.275 268.973 320.817 269.973 320.45C270.973 320.067 272.031 319.875 273.148 319.875C274.365 319.875 275.381 320.058 276.198 320.425C277.015 320.775 277.681 321.25 278.198 321.85C278.731 322.45 279.156 323.1 279.473 323.8C279.706 323.2 280.165 322.6 280.848 322C281.548 321.383 282.415 320.875 283.448 320.475C284.498 320.075 285.623 319.875 286.823 319.875ZM305.175 332.35C305.225 333.083 305.459 333.733 305.875 334.3C306.292 334.867 306.867 335.317 307.6 335.65C308.35 335.967 309.234 336.125 310.25 336.125C311.217 336.125 312.084 336.025 312.85 335.825C313.634 335.625 314.309 335.375 314.875 335.075C315.459 334.775 315.909 334.467 316.225 334.15L319.175 338.85C318.759 339.3 318.167 339.742 317.4 340.175C316.65 340.592 315.659 340.933 314.425 341.2C313.192 341.467 311.634 341.6 309.75 341.6C307.484 341.6 305.467 341.175 303.7 340.325C301.934 339.475 300.542 338.225 299.525 336.575C298.509 334.925 298 332.908 298 330.525C298 328.525 298.434 326.725 299.3 325.125C300.184 323.508 301.459 322.233 303.125 321.3C304.792 320.35 306.8 319.875 309.15 319.875C311.384 319.875 313.317 320.283 314.95 321.1C316.6 321.917 317.867 323.133 318.75 324.75C319.65 326.35 320.1 328.35 320.1 330.75C320.1 330.883 320.092 331.15 320.075 331.55C320.075 331.95 320.059 332.217 320.025 332.35H305.175ZM312.95 328.375C312.934 327.842 312.792 327.317 312.525 326.8C312.259 326.267 311.859 325.833 311.325 325.5C310.792 325.15 310.109 324.975 309.275 324.975C308.442 324.975 307.734 325.142 307.15 325.475C306.584 325.792 306.15 326.208 305.85 326.725C305.55 327.242 305.384 327.792 305.35 328.375H312.95Z" fill="#6DFCAF"/>
<rect x="20" y="426" width="353" height="52" rx="20" fill="white"/>
<rect x="20" y="488" width="353" height="52" rx="20" fill="white"/>
<path d="M111.791 454.658L117.17 446.273H120.492V454.623H122.109V456.75H120.492V459H117.979V456.75H111.791V454.658ZM118.014 454.623V449.174H117.891L114.463 454.518V454.623H118.014ZM123.814 457.084L128.385 452.883C128.836 452.449 129.185 452.089 129.431 451.802C129.683 451.515 129.876 451.23 130.011 450.949C130.146 450.662 130.213 450.357 130.213 450.035C130.213 449.666 130.125 449.344 129.949 449.068C129.779 448.793 129.539 448.582 129.229 448.436C128.924 448.283 128.578 448.207 128.191 448.207C127.594 448.207 127.116 448.386 126.759 448.743C126.401 449.095 126.223 449.572 126.223 450.176H123.709C123.703 449.355 123.888 448.638 124.263 448.022C124.644 447.407 125.177 446.933 125.862 446.599C126.548 446.265 127.336 446.098 128.227 446.098C129.123 446.098 129.914 446.259 130.6 446.581C131.285 446.897 131.815 447.34 132.19 447.908C132.571 448.477 132.762 449.127 132.762 449.859C132.762 450.357 132.665 450.838 132.472 451.301C132.278 451.758 131.941 452.271 131.461 452.839C130.986 453.401 130.312 454.078 129.439 454.869L127.506 456.75V456.82H132.938V459H123.832L123.814 457.084ZM140.338 448.242C140.338 449.273 140.479 450.258 140.76 451.195C141.047 452.127 141.48 452.956 142.061 453.683C142.641 454.403 143.361 454.951 144.223 455.326L142.852 457.119C141.99 456.697 141.255 456.108 140.646 455.353C140.042 454.591 139.567 453.703 139.222 452.689C138.864 453.773 138.369 454.72 137.736 455.528C137.109 456.337 136.354 456.961 135.469 457.4L134.062 455.572C134.941 455.18 135.68 454.603 136.277 453.841C136.875 453.079 137.32 452.215 137.613 451.248C137.912 450.281 138.064 449.279 138.07 448.242V445.852H140.338V448.242ZM147.791 460.652H145.576V451.459H142.43V449.648H145.576V444.621H147.791V460.652ZM157.143 444.762C158.367 444.762 159.413 444.867 160.28 445.078C161.147 445.289 161.81 445.6 162.267 446.01C162.724 446.42 162.955 446.918 162.961 447.504C162.955 448.084 162.724 448.579 162.267 448.989C161.81 449.394 161.147 449.701 160.28 449.912C159.413 450.123 158.367 450.229 157.143 450.229C155.912 450.229 154.86 450.123 153.987 449.912C153.114 449.701 152.449 449.394 151.992 448.989C151.535 448.579 151.307 448.084 151.307 447.504C151.307 446.918 151.535 446.42 151.992 446.01C152.449 445.6 153.114 445.289 153.987 445.078C154.86 444.867 155.912 444.762 157.143 444.762ZM157.143 446.414C155.965 446.414 155.089 446.505 154.515 446.687C153.94 446.862 153.656 447.135 153.662 447.504C153.656 447.885 153.935 448.163 154.497 448.339C155.065 448.509 155.947 448.594 157.143 448.594C158.344 448.594 159.226 448.509 159.788 448.339C160.356 448.163 160.641 447.885 160.641 447.504C160.641 447.135 160.354 446.862 159.779 446.687C159.205 446.505 158.326 446.414 157.143 446.414ZM164.438 452.707H158.25V453.779H162.662V457.857H153.75V458.824H163.084V460.512H151.553V456.293H160.447V455.414H151.535V453.779H156V452.707H149.848V450.949H164.438V452.707ZM183.439 460.494H181.857V444.744H183.439V460.494ZM180.223 459.721H178.641V454.359H175.951V452.988H178.641V450.422H176.206C175.403 453.223 173.602 455.461 170.801 457.137L169.816 455.941C171.457 454.969 172.702 453.826 173.552 452.514C174.407 451.201 174.908 449.719 175.055 448.066H170.59V446.695H176.707C176.707 447.516 176.643 448.301 176.514 449.051H178.641V445.148H180.223V459.721ZM198.592 454.113H196.922V450.123H193.986V448.752H196.922V444.744H198.592V454.113ZM193.318 454.553C194.414 454.553 195.36 454.67 196.157 454.904C196.96 455.139 197.575 455.479 198.003 455.924C198.431 456.369 198.645 456.902 198.645 457.523C198.645 458.145 198.431 458.675 198.003 459.114C197.575 459.56 196.963 459.899 196.166 460.134C195.369 460.368 194.42 460.488 193.318 460.494C192.217 460.488 191.265 460.368 190.462 460.134C189.665 459.899 189.053 459.56 188.625 459.114C188.197 458.675 187.986 458.145 187.992 457.523C187.986 456.902 188.197 456.369 188.625 455.924C189.053 455.479 189.665 455.139 190.462 454.904C191.265 454.67 192.217 454.553 193.318 454.553ZM193.318 455.854C192.158 455.854 191.256 456 190.611 456.293C189.967 456.58 189.645 456.99 189.645 457.523C189.645 457.875 189.791 458.177 190.084 458.429C190.377 458.675 190.799 458.862 191.35 458.991C191.9 459.12 192.557 459.182 193.318 459.176C194.08 459.182 194.736 459.12 195.287 458.991C195.838 458.862 196.26 458.675 196.553 458.429C196.846 458.177 196.992 457.875 196.992 457.523C196.992 456.99 196.67 456.58 196.025 456.293C195.381 456 194.479 455.854 193.318 455.854ZM191.104 447.521C191.104 448.189 191.256 448.837 191.561 449.464C191.865 450.091 192.305 450.65 192.879 451.143C193.453 451.629 194.127 452.004 194.9 452.268L194.039 453.586C193.172 453.281 192.416 452.833 191.771 452.241C191.133 451.644 190.638 450.949 190.286 450.158C189.94 451.055 189.428 451.84 188.748 452.514C188.068 453.182 187.266 453.686 186.34 454.025L185.461 452.689C186.258 452.414 186.952 452.013 187.544 451.485C188.142 450.952 188.599 450.343 188.915 449.657C189.237 448.972 189.398 448.266 189.398 447.539V447.188H185.988V445.834H194.479V447.188H191.104V447.521ZM208.189 445.693C209.285 445.693 210.275 445.878 211.16 446.247C212.045 446.61 212.739 447.126 213.243 447.794C213.753 448.456 214.008 449.221 214.008 450.088C214.008 450.955 213.753 451.723 213.243 452.391C212.739 453.059 212.045 453.577 211.16 453.946C210.275 454.31 209.285 454.488 208.189 454.482C207.094 454.488 206.104 454.31 205.219 453.946C204.34 453.577 203.648 453.059 203.145 452.391C202.641 451.723 202.389 450.955 202.389 450.088C202.389 449.221 202.641 448.456 203.145 447.794C203.648 447.126 204.34 446.61 205.219 446.247C206.104 445.878 207.094 445.693 208.189 445.693ZM208.189 447.047C207.393 447.041 206.672 447.167 206.027 447.425C205.389 447.677 204.888 448.034 204.524 448.497C204.161 448.96 203.982 449.49 203.988 450.088C203.982 450.691 204.161 451.222 204.524 451.679C204.888 452.136 205.389 452.49 206.027 452.742C206.666 452.988 207.387 453.111 208.189 453.111C208.992 453.111 209.71 452.988 210.343 452.742C210.981 452.49 211.482 452.136 211.846 451.679C212.209 451.222 212.391 450.691 212.391 450.088C212.391 449.49 212.209 448.96 211.846 448.497C211.482 448.034 210.981 447.677 210.343 447.425C209.704 447.167 208.986 447.041 208.189 447.047ZM215.432 458.455H201.018V457.066H215.432V458.455ZM230.988 458.613H216.574V457.207H222.92V454.447H218.332V449.438H227.578V447.223H218.297V445.852H229.23V450.773H219.984V453.076H229.6V454.447H224.572V457.207H230.988V458.613ZM250.939 458.613H236.525V457.207H242.871V454.447H238.283V449.438H247.529V447.223H238.248V445.852H249.182V450.773H239.936V453.076H249.551V454.447H244.523V457.207H250.939V458.613ZM264.562 448.031C264.562 448.951 264.551 449.748 264.527 450.422C264.51 451.096 264.46 451.875 264.378 452.76C264.296 453.639 264.164 454.6 263.982 455.643L262.277 455.484C262.471 454.512 262.614 453.592 262.708 452.725C262.802 451.857 262.857 451.087 262.875 450.413C262.898 449.733 262.91 448.939 262.91 448.031V447.715H253.629V446.344H264.562V448.031ZM266.443 458.262H252.082V456.873H266.443V458.262ZM280.699 456.205H279.029V444.762H280.699V456.205ZM281.174 460.16H270.398V455.045H272.086V458.807H281.174V460.16ZM272.156 445.816C272.941 445.816 273.65 445.983 274.283 446.317C274.922 446.651 275.423 447.114 275.786 447.706C276.155 448.298 276.34 448.969 276.34 449.719C276.34 450.48 276.155 451.16 275.786 451.758C275.423 452.35 274.922 452.812 274.283 453.146C273.65 453.475 272.941 453.639 272.156 453.639C271.371 453.639 270.659 453.475 270.021 453.146C269.382 452.812 268.878 452.347 268.509 451.749C268.14 451.151 267.955 450.475 267.955 449.719C267.955 448.969 268.14 448.298 268.509 447.706C268.878 447.114 269.382 446.651 270.021 446.317C270.659 445.983 271.371 445.816 272.156 445.816ZM272.156 447.275C271.67 447.275 271.23 447.381 270.838 447.592C270.451 447.797 270.146 448.084 269.924 448.453C269.701 448.822 269.59 449.244 269.59 449.719C269.59 450.205 269.698 450.636 269.915 451.011C270.138 451.38 270.442 451.667 270.829 451.872C271.222 452.077 271.664 452.18 272.156 452.18C272.637 452.18 273.07 452.077 273.457 451.872C273.844 451.667 274.148 451.377 274.371 451.002C274.594 450.627 274.705 450.199 274.705 449.719C274.705 449.25 274.594 448.831 274.371 448.462C274.148 448.087 273.841 447.797 273.448 447.592C273.062 447.381 272.631 447.275 272.156 447.275Z" fill="#2D2D2D"/>
<path d="M117.527 512.369C117.352 511.766 117.026 511.294 116.552 510.954C116.083 510.608 115.506 510.436 114.82 510.436C114.164 510.436 113.587 510.6 113.089 510.928C112.591 511.256 112.204 511.736 111.929 512.369C111.653 512.996 111.516 513.746 111.516 514.619C111.516 515.504 111.65 516.263 111.92 516.896C112.195 517.528 112.582 518.012 113.08 518.346C113.578 518.674 114.164 518.838 114.838 518.838C115.436 518.838 115.951 518.732 116.385 518.521C116.824 518.305 117.161 517.997 117.396 517.599C117.636 517.2 117.762 516.734 117.773 516.201H115.014V514.215H120.322V515.797C120.322 516.893 120.088 517.848 119.619 518.662C119.156 519.471 118.509 520.092 117.677 520.525C116.845 520.959 115.893 521.176 114.82 521.176C113.637 521.176 112.591 520.912 111.683 520.385C110.78 519.852 110.077 519.096 109.573 518.117C109.075 517.133 108.826 515.979 108.826 514.654C108.826 513.312 109.084 512.146 109.6 511.156C110.115 510.166 110.824 509.41 111.727 508.889C112.629 508.361 113.643 508.098 114.768 508.098C115.711 508.098 116.572 508.279 117.352 508.643C118.137 509 118.778 509.504 119.276 510.154C119.774 510.799 120.082 511.537 120.199 512.369H117.527ZM126.492 521.193C125.543 521.193 124.717 520.988 124.014 520.578C123.311 520.168 122.769 519.591 122.388 518.847C122.007 518.097 121.816 517.232 121.816 516.254C121.816 515.275 122.004 514.414 122.379 513.67C122.76 512.926 123.302 512.352 124.005 511.947C124.714 511.537 125.543 511.332 126.492 511.332C127.441 511.332 128.271 511.537 128.979 511.947C129.688 512.352 130.233 512.926 130.614 513.67C130.995 514.414 131.186 515.275 131.186 516.254C131.186 517.232 130.995 518.097 130.614 518.847C130.233 519.591 129.688 520.168 128.979 520.578C128.271 520.988 127.441 521.193 126.492 521.193ZM126.51 519.172C126.943 519.172 127.312 519.049 127.617 518.803C127.922 518.551 128.15 518.205 128.303 517.766C128.455 517.326 128.531 516.822 128.531 516.254C128.531 515.686 128.455 515.182 128.303 514.742C128.15 514.297 127.922 513.948 127.617 513.696C127.312 513.444 126.943 513.318 126.51 513.318C126.07 513.318 125.695 513.444 125.385 513.696C125.08 513.948 124.849 514.297 124.69 514.742C124.532 515.182 124.453 515.686 124.453 516.254C124.453 516.816 124.532 517.32 124.69 517.766C124.849 518.205 125.08 518.551 125.385 518.803C125.695 519.049 126.07 519.172 126.51 519.172ZM137.109 521.193C136.16 521.193 135.334 520.988 134.631 520.578C133.928 520.168 133.386 519.591 133.005 518.847C132.624 518.097 132.434 517.232 132.434 516.254C132.434 515.275 132.621 514.414 132.996 513.67C133.377 512.926 133.919 512.352 134.622 511.947C135.331 511.537 136.16 511.332 137.109 511.332C138.059 511.332 138.888 511.537 139.597 511.947C140.306 512.352 140.851 512.926 141.231 513.67C141.612 514.414 141.803 515.275 141.803 516.254C141.803 517.232 141.612 518.097 141.231 518.847C140.851 519.591 140.306 520.168 139.597 520.578C138.888 520.988 138.059 521.193 137.109 521.193ZM137.127 519.172C137.561 519.172 137.93 519.049 138.234 518.803C138.539 518.551 138.768 518.205 138.92 517.766C139.072 517.326 139.148 516.822 139.148 516.254C139.148 515.686 139.072 515.182 138.92 514.742C138.768 514.297 138.539 513.948 138.234 513.696C137.93 513.444 137.561 513.318 137.127 513.318C136.688 513.318 136.312 513.444 136.002 513.696C135.697 513.948 135.466 514.297 135.308 514.742C135.149 515.182 135.07 515.686 135.07 516.254C135.07 516.816 135.149 517.32 135.308 517.766C135.466 518.205 135.697 518.551 136.002 518.803C136.312 519.049 136.688 519.172 137.127 519.172ZM147.727 524.779C146.859 524.779 146.104 524.656 145.459 524.41C144.814 524.164 144.308 523.815 143.938 523.364C143.575 522.919 143.367 522.395 143.314 521.791H145.881C145.951 522.16 146.15 522.436 146.479 522.617C146.812 522.805 147.246 522.898 147.779 522.898C148.418 522.898 148.913 522.749 149.265 522.45C149.622 522.157 149.801 521.691 149.801 521.053V519.312H149.678C149.479 519.752 149.15 520.121 148.693 520.42C148.242 520.713 147.662 520.859 146.953 520.859C146.215 520.859 145.553 520.687 144.967 520.341C144.381 519.989 143.918 519.462 143.578 518.759C143.238 518.056 143.068 517.191 143.068 516.166C143.068 515.123 143.241 514.238 143.587 513.512C143.933 512.785 144.398 512.24 144.984 511.877C145.576 511.514 146.232 511.332 146.953 511.332C147.674 511.332 148.254 511.499 148.693 511.833C149.133 512.167 149.461 512.574 149.678 513.055H149.783V511.455H152.367V521.105C152.367 521.896 152.171 522.567 151.778 523.118C151.386 523.669 150.841 524.082 150.144 524.357C149.446 524.639 148.641 524.779 147.727 524.779ZM147.762 518.908C148.406 518.908 148.907 518.671 149.265 518.196C149.622 517.716 149.801 517.051 149.801 516.201C149.801 515.34 149.622 514.66 149.265 514.162C148.907 513.658 148.406 513.406 147.762 513.406C147.117 513.406 146.619 513.661 146.268 514.171C145.916 514.675 145.74 515.352 145.74 516.201C145.74 517.039 145.913 517.701 146.259 518.188C146.61 518.668 147.111 518.908 147.762 518.908ZM156.99 521H154.389V508.273H156.99V521ZM163.336 521.193C162.369 521.193 161.531 520.994 160.822 520.596C160.119 520.197 159.577 519.629 159.196 518.891C158.815 518.146 158.625 517.273 158.625 516.271C158.625 515.293 158.812 514.432 159.188 513.688C159.568 512.938 160.107 512.357 160.805 511.947C161.502 511.537 162.311 511.332 163.23 511.332C164.086 511.332 164.851 511.514 165.524 511.877C166.204 512.234 166.737 512.776 167.124 513.503C167.517 514.229 167.713 515.117 167.713 516.166V516.904H161.191C161.191 517.379 161.279 517.792 161.455 518.144C161.637 518.495 161.892 518.768 162.22 518.961C162.554 519.148 162.943 519.242 163.389 519.242C163.816 519.242 164.186 519.157 164.496 518.987C164.807 518.812 165.029 518.574 165.164 518.275H167.643C167.52 518.861 167.268 519.374 166.887 519.813C166.506 520.253 166.011 520.593 165.401 520.833C164.798 521.073 164.109 521.193 163.336 521.193ZM165.252 515.27C165.252 514.889 165.167 514.549 164.997 514.25C164.833 513.945 164.602 513.708 164.303 513.538C164.004 513.368 163.664 513.283 163.283 513.283C162.896 513.283 162.545 513.371 162.229 513.547C161.918 513.723 161.669 513.963 161.481 514.268C161.3 514.572 161.203 514.906 161.191 515.27H165.252ZM186.838 522.494H185.256V506.744H186.838V522.494ZM183.621 521.721H182.039V516.359H179.35V514.988H182.039V512.422H179.604C178.802 515.223 177 517.461 174.199 519.137L173.215 517.941C174.855 516.969 176.101 515.826 176.95 514.514C177.806 513.201 178.307 511.719 178.453 510.066H173.988V508.695H180.105C180.105 509.516 180.041 510.301 179.912 511.051H182.039V507.148H183.621V521.721ZM201.99 516.113H200.32V512.123H197.385V510.752H200.32V506.744H201.99V516.113ZM196.717 516.553C197.812 516.553 198.759 516.67 199.556 516.904C200.358 517.139 200.974 517.479 201.401 517.924C201.829 518.369 202.043 518.902 202.043 519.523C202.043 520.145 201.829 520.675 201.401 521.114C200.974 521.56 200.361 521.899 199.564 522.134C198.768 522.368 197.818 522.488 196.717 522.494C195.615 522.488 194.663 522.368 193.86 522.134C193.063 521.899 192.451 521.56 192.023 521.114C191.596 520.675 191.385 520.145 191.391 519.523C191.385 518.902 191.596 518.369 192.023 517.924C192.451 517.479 193.063 517.139 193.86 516.904C194.663 516.67 195.615 516.553 196.717 516.553ZM196.717 517.854C195.557 517.854 194.654 518 194.01 518.293C193.365 518.58 193.043 518.99 193.043 519.523C193.043 519.875 193.189 520.177 193.482 520.429C193.775 520.675 194.197 520.862 194.748 520.991C195.299 521.12 195.955 521.182 196.717 521.176C197.479 521.182 198.135 521.12 198.686 520.991C199.236 520.862 199.658 520.675 199.951 520.429C200.244 520.177 200.391 519.875 200.391 519.523C200.391 518.99 200.068 518.58 199.424 518.293C198.779 518 197.877 517.854 196.717 517.854ZM194.502 509.521C194.502 510.189 194.654 510.837 194.959 511.464C195.264 512.091 195.703 512.65 196.277 513.143C196.852 513.629 197.525 514.004 198.299 514.268L197.438 515.586C196.57 515.281 195.814 514.833 195.17 514.241C194.531 513.644 194.036 512.949 193.685 512.158C193.339 513.055 192.826 513.84 192.146 514.514C191.467 515.182 190.664 515.686 189.738 516.025L188.859 514.689C189.656 514.414 190.351 514.013 190.942 513.485C191.54 512.952 191.997 512.343 192.313 511.657C192.636 510.972 192.797 510.266 192.797 509.539V509.188H189.387V507.834H197.877V509.188H194.502V509.521ZM211.588 507.693C212.684 507.693 213.674 507.878 214.559 508.247C215.443 508.61 216.138 509.126 216.642 509.794C217.151 510.456 217.406 511.221 217.406 512.088C217.406 512.955 217.151 513.723 216.642 514.391C216.138 515.059 215.443 515.577 214.559 515.946C213.674 516.31 212.684 516.488 211.588 516.482C210.492 516.488 209.502 516.31 208.617 515.946C207.738 515.577 207.047 515.059 206.543 514.391C206.039 513.723 205.787 512.955 205.787 512.088C205.787 511.221 206.039 510.456 206.543 509.794C207.047 509.126 207.738 508.61 208.617 508.247C209.502 507.878 210.492 507.693 211.588 507.693ZM211.588 509.047C210.791 509.041 210.07 509.167 209.426 509.425C208.787 509.677 208.286 510.034 207.923 510.497C207.56 510.96 207.381 511.49 207.387 512.088C207.381 512.691 207.56 513.222 207.923 513.679C208.286 514.136 208.787 514.49 209.426 514.742C210.064 514.988 210.785 515.111 211.588 515.111C212.391 515.111 213.108 514.988 213.741 514.742C214.38 514.49 214.881 514.136 215.244 513.679C215.607 513.222 215.789 512.691 215.789 512.088C215.789 511.49 215.607 510.96 215.244 510.497C214.881 510.034 214.38 509.677 213.741 509.425C213.103 509.167 212.385 509.041 211.588 509.047ZM218.83 520.455H204.416V519.066H218.83V520.455ZM234.387 520.613H219.973V519.207H226.318V516.447H221.73V511.438H230.977V509.223H221.695V507.852H232.629V512.773H223.383V515.076H232.998V516.447H227.971V519.207H234.387V520.613ZM254.338 520.613H239.924V519.207H246.27V516.447H241.682V511.438H250.928V509.223H241.646V507.852H252.58V512.773H243.334V515.076H252.949V516.447H247.922V519.207H254.338V520.613ZM267.961 510.031C267.961 510.951 267.949 511.748 267.926 512.422C267.908 513.096 267.858 513.875 267.776 514.76C267.694 515.639 267.562 516.6 267.381 517.643L265.676 517.484C265.869 516.512 266.013 515.592 266.106 514.725C266.2 513.857 266.256 513.087 266.273 512.413C266.297 511.733 266.309 510.939 266.309 510.031V509.715H257.027V508.344H267.961V510.031ZM269.842 520.262H255.48V518.873H269.842V520.262ZM284.098 518.205H282.428V506.762H284.098V518.205ZM284.572 522.16H273.797V517.045H275.484V520.807H284.572V522.16ZM275.555 507.816C276.34 507.816 277.049 507.983 277.682 508.317C278.32 508.651 278.821 509.114 279.185 509.706C279.554 510.298 279.738 510.969 279.738 511.719C279.738 512.48 279.554 513.16 279.185 513.758C278.821 514.35 278.32 514.812 277.682 515.146C277.049 515.475 276.34 515.639 275.555 515.639C274.77 515.639 274.058 515.475 273.419 515.146C272.78 514.812 272.276 514.347 271.907 513.749C271.538 513.151 271.354 512.475 271.354 511.719C271.354 510.969 271.538 510.298 271.907 509.706C272.276 509.114 272.78 508.651 273.419 508.317C274.058 507.983 274.77 507.816 275.555 507.816ZM275.555 509.275C275.068 509.275 274.629 509.381 274.236 509.592C273.85 509.797 273.545 510.084 273.322 510.453C273.1 510.822 272.988 511.244 272.988 511.719C272.988 512.205 273.097 512.636 273.313 513.011C273.536 513.38 273.841 513.667 274.228 513.872C274.62 514.077 275.062 514.18 275.555 514.18C276.035 514.18 276.469 514.077 276.855 513.872C277.242 513.667 277.547 513.377 277.77 513.002C277.992 512.627 278.104 512.199 278.104 511.719C278.104 511.25 277.992 510.831 277.77 510.462C277.547 510.087 277.239 509.797 276.847 509.592C276.46 509.381 276.029 509.275 275.555 509.275Z" fill="#2D2D2D"/>
</svg>
