<svg width="393" height="852" viewBox="0 0 393 852" fill="none" xmlns="http://www.w3.org/2000/svg">
<rect width="393" height="852" fill="#2D2D2D"/>
<path d="M27.6309 204.621H19.9492V196.939H27.6309V204.621ZM22.1641 202.863H25.416V198.732H22.1641V202.863ZM32.166 200.227H34.3281V202.072H32.166V207.293H29.916V195.621H32.166V200.227ZM32.7461 211.336H21.7949V206.15H24.0273V209.543H32.7461V211.336ZM49.9199 203.514H47.6523V211.582H45.4023V195.621H47.6523V201.686H49.9199V203.514ZM37.7734 205.825C40.041 205.784 42.2266 205.553 44.3301 205.131L44.5586 206.994C43.3164 207.246 42.0625 207.425 40.7969 207.53C39.5371 207.63 38.248 207.68 36.9297 207.68H35.541V197.15H37.7734V205.825ZM56.6348 199.242C56.6348 200.273 56.7754 201.258 57.0566 202.195C57.3438 203.127 57.7773 203.956 58.3574 204.683C58.9375 205.403 59.6582 205.951 60.5195 206.326L59.1484 208.119C58.2871 207.697 57.5518 207.108 56.9424 206.353C56.3389 205.591 55.8643 204.703 55.5186 203.689C55.1611 204.773 54.666 205.72 54.0332 206.528C53.4062 207.337 52.6504 207.961 51.7656 208.4L50.3594 206.572C51.2383 206.18 51.9766 205.603 52.5742 204.841C53.1719 204.079 53.6172 203.215 53.9102 202.248C54.209 201.281 54.3613 200.279 54.3672 199.242V196.852H56.6348V199.242ZM64.0879 211.652H61.873V202.459H58.7266V200.648H61.873V195.621H64.0879V211.652ZM82.9844 200.139H85.1465V201.984H82.9844V207.416H80.7344V195.639H82.9844V200.139ZM83.5645 211.336H72.6133V206.203H74.8457V209.543H83.5645V211.336ZM73 199.084H76.2695V196.764H78.5195V204.867H70.7676V196.764H73V199.084ZM76.2695 203.109V200.807H73V203.109H76.2695ZM98.4707 201.756H100.738V203.602H98.4707V211.582H96.2207V195.621H98.4707V201.756ZM94.1992 197.256C94.1875 199.805 93.6133 202.058 92.4766 204.015C91.3457 205.966 89.5 207.568 86.9395 208.822L85.6738 207.1C87.5781 206.145 89.04 205.014 90.0596 203.707C91.085 202.4 91.7031 200.859 91.9141 199.084H86.5879V197.256H94.1992ZM115.064 211.617H112.779V208.084H109.527V206.396H112.779V195.639H115.064V211.617ZM101.336 203.742C103.41 203.742 105.285 203.713 106.961 203.654C108.637 203.596 110.236 203.467 111.76 203.268L111.883 204.902C110.594 205.137 109.17 205.307 107.611 205.412V211.143H105.344V205.526C104.236 205.556 102.994 205.57 101.617 205.57L101.336 203.742ZM106.574 196.271C107.348 196.271 108.045 196.412 108.666 196.693C109.293 196.975 109.785 197.367 110.143 197.871C110.5 198.369 110.682 198.932 110.688 199.559C110.682 200.203 110.5 200.774 110.143 201.272C109.791 201.765 109.302 202.148 108.675 202.424C108.054 202.693 107.354 202.828 106.574 202.828C105.783 202.828 105.074 202.693 104.447 202.424C103.826 202.148 103.34 201.765 102.988 201.272C102.637 200.774 102.461 200.203 102.461 199.559C102.461 198.926 102.637 198.36 102.988 197.862C103.34 197.364 103.829 196.975 104.456 196.693C105.083 196.412 105.789 196.271 106.574 196.271ZM106.574 197.977C106.176 197.977 105.824 198.041 105.52 198.17C105.221 198.299 104.986 198.483 104.816 198.724C104.652 198.964 104.57 199.242 104.57 199.559C104.57 200.051 104.752 200.435 105.115 200.71C105.479 200.985 105.965 201.123 106.574 201.123C107.166 201.123 107.644 200.985 108.007 200.71C108.37 200.435 108.555 200.051 108.561 199.559C108.555 199.242 108.467 198.964 108.297 198.724C108.127 198.483 107.893 198.299 107.594 198.17C107.301 198.041 106.961 197.977 106.574 197.977ZM131.605 209.754H116.963V207.908H120.232V203.997C119.6 203.616 119.11 203.147 118.765 202.591C118.419 202.028 118.246 201.398 118.246 200.701C118.246 199.852 118.504 199.102 119.02 198.451C119.535 197.801 120.247 197.297 121.155 196.939C122.069 196.576 123.104 196.395 124.258 196.395C125.406 196.395 126.435 196.576 127.343 196.939C128.257 197.297 128.975 197.801 129.496 198.451C130.018 199.102 130.281 199.852 130.287 200.701C130.281 201.381 130.108 201.999 129.769 202.556C129.435 203.106 128.963 203.572 128.354 203.953V207.908H131.605V209.754ZM124.258 198.17C123.496 198.17 122.828 198.27 122.254 198.469C121.686 198.668 121.243 198.958 120.927 199.339C120.616 199.714 120.461 200.168 120.461 200.701C120.461 201.217 120.616 201.665 120.927 202.046C121.243 202.427 121.688 202.72 122.263 202.925C122.837 203.13 123.502 203.232 124.258 203.232C125.008 203.232 125.67 203.13 126.244 202.925C126.818 202.72 127.264 202.427 127.58 202.046C127.902 201.665 128.066 201.217 128.072 200.701C128.066 200.174 127.905 199.72 127.589 199.339C127.272 198.958 126.827 198.668 126.253 198.469C125.679 198.27 125.014 198.17 124.258 198.17ZM126.086 207.908V204.806C125.482 204.917 124.873 204.973 124.258 204.973C123.602 204.973 122.998 204.917 122.447 204.806V207.908H126.086ZM135.93 206.186H133.68L133.451 197.273H136.158L135.93 206.186ZM134.822 210.158C134.553 210.158 134.304 210.091 134.075 209.956C133.847 209.821 133.665 209.643 133.53 209.42C133.401 209.191 133.34 208.945 133.346 208.682C133.34 208.418 133.401 208.175 133.53 207.952C133.665 207.729 133.847 207.554 134.075 207.425C134.304 207.29 134.553 207.223 134.822 207.223C135.074 207.223 135.312 207.29 135.534 207.425C135.763 207.554 135.944 207.729 136.079 207.952C136.214 208.175 136.281 208.418 136.281 208.682C136.281 208.945 136.214 209.191 136.079 209.42C135.944 209.643 135.763 209.821 135.534 209.956C135.312 210.091 135.074 210.158 134.822 210.158ZM33.3438 237.617H31.2344V221.621H33.3438V237.617ZM29.9336 236.914H27.8418V229.566H25.2227C24.7539 230.504 24.1357 231.365 23.3682 232.15C22.6006 232.936 21.6602 233.65 20.5469 234.295L19.2812 232.713C20.8633 231.77 22.0439 230.703 22.8232 229.514C23.6084 228.324 24.0801 226.93 24.2383 225.33H20.1602V223.52H26.4707C26.459 225.143 26.2744 226.566 25.917 227.791H27.8418V221.973H29.9336V236.914ZM48.4258 230.674H46.1758V221.639H48.4258V230.674ZM48.4258 237.441H37.7031V231.395H48.4258V237.441ZM39.918 235.648H46.2285V233.17H39.918V235.648ZM39.6543 222.359C40.4805 222.359 41.2246 222.523 41.8867 222.852C42.5547 223.18 43.0791 223.637 43.46 224.223C43.8408 224.809 44.0312 225.477 44.0312 226.227C44.0312 226.947 43.8408 227.598 43.46 228.178C43.0791 228.758 42.5547 229.215 41.8867 229.549C41.2188 229.877 40.4746 230.041 39.6543 230.041C38.834 230.041 38.0898 229.877 37.4219 229.549C36.7539 229.215 36.2295 228.758 35.8486 228.178C35.4678 227.598 35.2773 226.947 35.2773 226.227C35.2773 225.477 35.4678 224.809 35.8486 224.223C36.2295 223.637 36.751 223.18 37.4131 222.852C38.0811 222.523 38.8281 222.359 39.6543 222.359ZM39.6543 224.24C39.2266 224.24 38.8457 224.319 38.5117 224.478C38.1836 224.636 37.9258 224.864 37.7383 225.163C37.5566 225.462 37.4688 225.816 37.4746 226.227C37.4688 226.619 37.5566 226.962 37.7383 227.255C37.9258 227.542 38.1836 227.765 38.5117 227.923C38.8457 228.081 39.2266 228.16 39.6543 228.16C40.0703 228.16 40.4424 228.081 40.7705 227.923C41.0986 227.765 41.3535 227.542 41.5352 227.255C41.7227 226.962 41.8164 226.619 41.8164 226.227C41.8164 225.816 41.7227 225.462 41.5352 225.163C41.3535 224.864 41.0986 224.636 40.7705 224.478C40.4424 224.319 40.0703 224.24 39.6543 224.24ZM64.457 237.617H62.3125V221.621H64.457V237.617ZM61.1172 236.879H59.0078V229.32H57.7158C57.6514 230.363 57.4639 231.263 57.1533 232.019C56.8486 232.774 56.4443 233.354 55.9404 233.759C55.4365 234.163 54.8594 234.365 54.209 234.365C53.5117 234.365 52.8994 234.131 52.3721 233.662C51.8506 233.193 51.4463 232.522 51.1592 231.649C50.8721 230.771 50.7285 229.736 50.7285 228.547C50.7285 227.363 50.8721 226.338 51.1592 225.471C51.4463 224.598 51.8506 223.93 52.3721 223.467C52.8994 222.998 53.5117 222.764 54.209 222.764C54.8477 222.764 55.4131 222.954 55.9053 223.335C56.4033 223.716 56.8047 224.267 57.1094 224.987C57.4199 225.702 57.6162 226.555 57.6982 227.545H59.0078V221.85H61.1172V236.879ZM54.209 224.873C53.752 224.873 53.4004 225.184 53.1543 225.805C52.9141 226.426 52.7969 227.34 52.8027 228.547C52.7969 229.76 52.9141 230.677 53.1543 231.298C53.4004 231.913 53.752 232.215 54.209 232.203C54.6719 232.215 55.0293 231.913 55.2812 231.298C55.5391 230.677 55.668 229.76 55.668 228.547C55.668 227.34 55.5391 226.426 55.2812 225.805C55.0293 225.184 54.6719 224.873 54.209 224.873ZM76.1816 225.242C76.1758 226.221 76.3135 227.17 76.5947 228.09C76.876 229.004 77.3008 229.824 77.8691 230.551C78.4375 231.277 79.1348 231.84 79.9609 232.238L78.6074 234.031C77.7754 233.621 77.0635 233.044 76.4717 232.3C75.8857 231.556 75.4199 230.683 75.0742 229.681C74.7168 230.747 74.2217 231.682 73.5889 232.484C72.9619 233.281 72.209 233.896 71.3301 234.33L69.9414 232.52C70.8145 232.121 71.5498 231.544 72.1475 230.788C72.7451 230.026 73.1904 229.168 73.4834 228.213C73.7822 227.252 73.9316 226.262 73.9316 225.242V222.852H76.1816V225.242ZM82.9141 227.791H85.2695V229.689H82.9141V237.617H80.6641V221.621H82.9141V227.791ZM100.439 230.99H85.8496V229.197H89.1367V227.281C88.5449 227.018 88.0908 226.689 87.7744 226.297C87.4639 225.904 87.3086 225.453 87.3086 224.943C87.3086 224.305 87.5459 223.754 88.0205 223.291C88.4951 222.822 89.1719 222.465 90.0508 222.219C90.9297 221.973 91.9609 221.85 93.1445 221.85C94.3164 221.85 95.3389 221.973 96.2119 222.219C97.085 222.465 97.7588 222.822 98.2334 223.291C98.7139 223.754 98.957 224.305 98.9629 224.943C98.957 225.453 98.793 225.91 98.4707 226.314C98.1484 226.713 97.6855 227.041 97.082 227.299V229.197H100.439V230.99ZM93.127 231.834C94.2812 231.834 95.2744 231.945 96.1064 232.168C96.9385 232.391 97.5771 232.716 98.0225 233.144C98.4678 233.571 98.6934 234.09 98.6992 234.699C98.6934 235.32 98.4678 235.848 98.0225 236.281C97.5771 236.715 96.9385 237.043 96.1064 237.266C95.2744 237.488 94.2812 237.6 93.127 237.6C91.9551 237.6 90.9502 237.488 90.1123 237.266C89.2744 237.043 88.6328 236.715 88.1875 236.281C87.7422 235.848 87.5195 235.32 87.5195 234.699C87.5195 234.09 87.7422 233.571 88.1875 233.144C88.6328 232.716 89.2744 232.391 90.1123 232.168C90.9502 231.945 91.9551 231.834 93.127 231.834ZM93.127 233.521C90.8945 233.521 89.7871 233.914 89.8047 234.699C89.7871 235.52 90.8945 235.93 93.127 235.93C95.3242 235.93 96.4316 235.52 96.4492 234.699C96.4316 233.914 95.3242 233.521 93.127 233.521ZM93.1445 223.572C92.0078 223.572 91.1377 223.689 90.5342 223.924C89.9365 224.158 89.6406 224.498 89.6465 224.943C89.6406 225.377 89.9365 225.705 90.5342 225.928C91.1318 226.15 92.002 226.262 93.1445 226.262C94.2754 226.262 95.1396 226.15 95.7373 225.928C96.3408 225.705 96.6426 225.377 96.6426 224.943C96.6426 224.498 96.3408 224.158 95.7373 223.924C95.1338 223.689 94.2695 223.572 93.1445 223.572ZM94.8496 229.197V227.861C94.3457 227.92 93.7773 227.949 93.1445 227.949C92.4766 227.949 91.8965 227.917 91.4043 227.853V229.197H94.8496ZM114.098 225.066H116.26V226.859H114.098V230.252H111.848V221.586H114.098V225.066ZM114.098 234.945H105.713V235.859H114.555V237.512H103.516V233.416H111.865V232.52H103.48V230.902H114.098V234.945ZM110.898 224.521H101.406V222.816H105.045V221.516H107.277V222.816H110.898V224.521ZM106.152 224.908C106.943 224.908 107.635 225.017 108.227 225.233C108.824 225.444 109.284 225.749 109.606 226.147C109.929 226.54 110.09 227 110.09 227.527C110.09 228.066 109.929 228.532 109.606 228.925C109.284 229.317 108.824 229.619 108.227 229.83C107.635 230.041 106.943 230.146 106.152 230.146C105.355 230.146 104.658 230.041 104.061 229.83C103.463 229.619 103 229.317 102.672 228.925C102.344 228.532 102.18 228.066 102.18 227.527C102.18 227 102.344 226.54 102.672 226.147C103 225.749 103.463 225.444 104.061 225.233C104.664 225.017 105.361 224.908 106.152 224.908ZM106.152 226.49C105.59 226.49 105.15 226.581 104.834 226.763C104.523 226.944 104.371 227.199 104.377 227.527C104.371 227.861 104.523 228.116 104.834 228.292C105.145 228.462 105.584 228.547 106.152 228.547C106.721 228.547 107.163 228.462 107.479 228.292C107.802 228.116 107.963 227.861 107.963 227.527C107.963 227.199 107.802 226.944 107.479 226.763C107.157 226.581 106.715 226.49 106.152 226.49ZM135.754 235.754H121.111V233.891H135.754V235.754ZM134.523 224.82H132.273V229.672H134.453V231.43H122.324V229.672H124.469V224.82H122.254V223.027H134.523V224.82ZM130.059 229.672V224.82H126.719V229.672H130.059ZM151.311 235.842H136.668V233.996H142.838V231.588H138.355V226.209H147.408V224.451H138.338V222.658H149.623V227.967H140.605V229.76H149.992V231.588H145.07V233.996H151.311V235.842ZM165.654 229.83H163.404V221.621H165.654V229.83ZM165.654 234.734H157.023V235.736H166.094V237.512H154.809V233.135H163.439V232.203H154.773V230.463H165.654V234.734ZM161.611 224.311H160.293V227.501C160.973 227.448 161.617 227.387 162.227 227.316L162.332 228.916C159.848 229.314 156.648 229.514 152.734 229.514L152.488 227.756C152.84 227.756 153.414 227.75 154.211 227.738V224.311H152.91V222.605H161.611V224.311ZM156.355 227.694C157.141 227.671 157.732 227.65 158.131 227.633V224.311H156.355V227.694ZM175.076 221.85C176.301 221.85 177.347 221.955 178.214 222.166C179.081 222.377 179.743 222.688 180.2 223.098C180.657 223.502 180.889 223.994 180.895 224.574C180.889 225.16 180.657 225.658 180.2 226.068C179.743 226.479 179.081 226.789 178.214 227C177.347 227.211 176.301 227.316 175.076 227.316C173.846 227.316 172.794 227.211 171.921 227C171.048 226.789 170.383 226.479 169.926 226.068C169.469 225.658 169.24 225.16 169.24 224.574C169.24 223.994 169.469 223.502 169.926 223.098C170.383 222.688 171.048 222.377 171.921 222.166C172.794 221.955 173.846 221.85 175.076 221.85ZM175.076 223.484C173.91 223.484 173.034 223.578 172.448 223.766C171.868 223.947 171.584 224.217 171.596 224.574C171.59 224.961 171.868 225.239 172.431 225.409C172.993 225.579 173.875 225.664 175.076 225.664C176.283 225.664 177.168 225.579 177.73 225.409C178.293 225.239 178.574 224.961 178.574 224.574C178.574 224.217 178.284 223.947 177.704 223.766C177.124 223.578 176.248 223.484 175.076 223.484ZM182.371 229.848H167.781V228.072H182.371V229.848ZM180.596 234.857H171.684V235.824H181.018V237.512H169.486V233.293H178.381V232.414H169.469V230.779H180.596V234.857ZM200.969 229.76H198.736V225.787H195.73V224.012H198.736V221.621H200.969V229.76ZM200.969 234.699H192.566V235.684H201.426V237.441H190.352V233.064H198.754V232.15H190.334V230.428H200.969V234.699ZM193.48 223.309C193.475 223.965 193.601 224.592 193.858 225.189C194.122 225.781 194.529 226.309 195.08 226.771C195.631 227.229 196.316 227.58 197.137 227.826L195.959 229.549C195.121 229.279 194.4 228.89 193.797 228.38C193.193 227.864 192.713 227.252 192.355 226.543C191.998 227.334 191.497 228.017 190.853 228.591C190.214 229.165 189.438 229.596 188.523 229.883L187.363 228.107C188.219 227.855 188.934 227.489 189.508 227.009C190.082 226.522 190.507 225.963 190.782 225.33C191.063 224.697 191.207 224.023 191.213 223.309V222.148H193.48V223.309ZM216.525 231.113H214.293V227.334H211.797V225.523H214.293V221.621H216.525V231.113ZM211.059 231.465C212.195 231.471 213.174 231.597 213.994 231.843C214.82 232.083 215.456 232.435 215.901 232.897C216.347 233.36 216.572 233.914 216.578 234.559C216.572 235.197 216.347 235.748 215.901 236.211C215.456 236.674 214.82 237.025 213.994 237.266C213.168 237.512 212.189 237.635 211.059 237.635C209.928 237.635 208.949 237.512 208.123 237.266C207.297 237.025 206.661 236.674 206.216 236.211C205.776 235.748 205.557 235.197 205.557 234.559C205.557 233.914 205.776 233.36 206.216 232.897C206.661 232.435 207.294 232.083 208.114 231.843C208.94 231.597 209.922 231.471 211.059 231.465ZM211.059 233.188C208.879 233.188 207.789 233.645 207.789 234.559C207.789 235.016 208.064 235.358 208.615 235.587C209.172 235.815 209.986 235.93 211.059 235.93C212.131 235.93 212.945 235.815 213.502 235.587C214.064 235.353 214.346 235.01 214.346 234.559C214.346 233.645 213.25 233.188 211.059 233.188ZM212.271 224.381H209.09C209.107 225.025 209.251 225.646 209.521 226.244C209.796 226.836 210.203 227.369 210.742 227.844C211.287 228.318 211.961 228.688 212.764 228.951L211.656 230.709C210.801 230.434 210.062 230.023 209.441 229.479C208.826 228.928 208.34 228.28 207.982 227.536C207.613 228.38 207.104 229.112 206.453 229.733C205.803 230.349 205.018 230.814 204.098 231.131L202.938 229.355C203.781 229.074 204.487 228.676 205.056 228.16C205.63 227.639 206.058 227.053 206.339 226.402C206.626 225.752 206.781 225.078 206.805 224.381H203.588V222.588H212.271V224.381ZM226.316 225.84H218.582V224.064H221.359V222.061H223.574V224.064H226.316V225.84ZM222.484 226.561C223.158 226.561 223.759 226.725 224.286 227.053C224.819 227.375 225.235 227.823 225.534 228.397C225.839 228.972 225.994 229.625 226 230.357C225.994 231.09 225.839 231.746 225.534 232.326C225.235 232.906 224.819 233.36 224.286 233.688C223.759 234.011 223.158 234.172 222.484 234.172C221.811 234.172 221.204 234.011 220.665 233.688C220.132 233.36 219.713 232.906 219.408 232.326C219.104 231.746 218.951 231.09 218.951 230.357C218.951 229.631 219.104 228.98 219.408 228.406C219.713 227.826 220.132 227.375 220.665 227.053C221.204 226.725 221.811 226.561 222.484 226.561ZM222.484 228.424C222.01 228.424 221.629 228.597 221.342 228.942C221.061 229.288 220.92 229.76 220.92 230.357C220.92 230.955 221.061 231.424 221.342 231.764C221.629 232.104 222.01 232.273 222.484 232.273C222.941 232.273 223.311 232.104 223.592 231.764C223.879 231.424 224.025 230.955 224.031 230.357C224.025 229.76 223.879 229.288 223.592 228.942C223.311 228.597 222.941 228.424 222.484 228.424ZM232.434 237.617H230.307V229.918H229.006V236.932H226.914V221.938H229.006V228.125H230.307V221.621H232.434V237.617ZM248.746 232.238H242.523V237.617H240.309V232.238H234.156V230.445H248.746V232.238ZM247.445 224.223H242.778C242.854 224.762 243.106 225.277 243.534 225.77C243.962 226.256 244.56 226.678 245.327 227.035C246.095 227.387 247.006 227.627 248.061 227.756L247.252 229.514C245.869 229.326 244.68 228.951 243.684 228.389C242.693 227.826 241.952 227.126 241.46 226.288C240.962 227.126 240.221 227.826 239.236 228.389C238.252 228.951 237.074 229.326 235.703 229.514L234.877 227.756C235.914 227.627 236.813 227.387 237.575 227.035C238.343 226.678 238.94 226.256 239.368 225.77C239.802 225.277 240.06 224.762 240.142 224.223H235.475V222.465H247.445V224.223ZM254.846 225.646C254.846 227.076 255.074 228.38 255.531 229.558C255.988 230.735 256.727 231.652 257.746 232.309L256.533 234.049C255.244 233.27 254.321 231.989 253.765 230.208C253.466 231.146 253.07 231.975 252.578 232.695C252.086 233.41 251.488 233.979 250.785 234.4L249.414 232.748C250.533 232.051 251.354 231.081 251.875 229.839C252.402 228.591 252.666 227.229 252.666 225.752V222.992H254.846V225.646ZM263.582 237.617H261.438V221.621H263.582V237.617ZM260.225 236.879H258.133V228.846H256.059V227.018H258.133V221.85H260.225V236.879ZM279.912 235.754H265.27V233.908H268.539V229.997C267.906 229.616 267.417 229.147 267.071 228.591C266.726 228.028 266.553 227.398 266.553 226.701C266.553 225.852 266.811 225.102 267.326 224.451C267.842 223.801 268.554 223.297 269.462 222.939C270.376 222.576 271.41 222.395 272.564 222.395C273.713 222.395 274.741 222.576 275.649 222.939C276.563 223.297 277.281 223.801 277.803 224.451C278.324 225.102 278.588 225.852 278.594 226.701C278.588 227.381 278.415 227.999 278.075 228.556C277.741 229.106 277.27 229.572 276.66 229.953V233.908H279.912V235.754ZM272.564 224.17C271.803 224.17 271.135 224.27 270.561 224.469C269.992 224.668 269.55 224.958 269.233 225.339C268.923 225.714 268.768 226.168 268.768 226.701C268.768 227.217 268.923 227.665 269.233 228.046C269.55 228.427 269.995 228.72 270.569 228.925C271.144 229.13 271.809 229.232 272.564 229.232C273.314 229.232 273.977 229.13 274.551 228.925C275.125 228.72 275.57 228.427 275.887 228.046C276.209 227.665 276.373 227.217 276.379 226.701C276.373 226.174 276.212 225.72 275.896 225.339C275.579 224.958 275.134 224.668 274.56 224.469C273.985 224.27 273.32 224.17 272.564 224.17ZM274.393 233.908V230.806C273.789 230.917 273.18 230.973 272.564 230.973C271.908 230.973 271.305 230.917 270.754 230.806V233.908H274.393ZM282.9 236.158C282.631 236.158 282.382 236.091 282.153 235.956C281.925 235.821 281.743 235.643 281.608 235.42C281.479 235.191 281.418 234.945 281.424 234.682C281.418 234.418 281.479 234.175 281.608 233.952C281.743 233.729 281.925 233.554 282.153 233.425C282.382 233.29 282.631 233.223 282.9 233.223C283.152 233.223 283.39 233.29 283.612 233.425C283.841 233.554 284.022 233.729 284.157 233.952C284.292 234.175 284.359 234.418 284.359 234.682C284.359 234.945 284.292 235.191 284.157 235.42C284.022 235.643 283.841 235.821 283.612 235.956C283.39 236.091 283.152 236.158 282.9 236.158Z" fill="white"/>
<rect x="20.5" y="402.5" width="352" height="47" rx="19.5" stroke="white"/>
<path d="M330.17 430.137C327.976 430.137 326.704 428.291 326.711 425.051C326.704 421.838 327.989 419.965 330.17 419.965C332.344 419.965 333.629 421.838 333.629 425.051C333.629 428.291 332.364 430.137 330.17 430.137ZM327.9 425.051C327.907 427.614 328.734 429.043 330.17 429.043C331.599 429.043 332.433 427.614 332.426 425.051C332.433 422.487 331.592 421.038 330.17 421.031C328.748 421.038 327.907 422.487 327.9 425.051ZM338.811 419.637L335.611 431.49H334.545L337.73 419.637H338.811ZM343.445 420.102V430H342.201V421.387H342.146L339.74 422.986V421.742L342.201 420.102H343.445ZM349.324 430.137C347.13 430.137 345.858 428.291 345.865 425.051C345.858 421.838 347.144 419.965 349.324 419.965C351.498 419.965 352.783 421.838 352.783 425.051C352.783 428.291 351.519 430.137 349.324 430.137ZM347.055 425.051C347.062 427.614 347.889 429.043 349.324 429.043C350.753 429.043 351.587 427.614 351.58 425.051C351.587 422.487 350.746 421.038 349.324 421.031C347.902 421.038 347.062 422.487 347.055 425.051Z" fill="#B3B3B3"/>
<rect x="165" y="305" width="69" height="69" rx="30" fill="#D9D9D9" fill-opacity="0.2"/>
<path d="M214.683 354.417V350.948C214.683 349.109 213.952 347.344 212.651 346.044C211.35 344.743 209.586 344.012 207.746 344.012H193.873C192.033 344.012 190.269 344.743 188.968 346.044C187.667 347.344 186.937 349.109 186.937 350.948V354.417" stroke="black" stroke-width="2" stroke-linecap="round" stroke-linejoin="round"/>
<path d="M200.81 337.075C204.64 337.075 207.746 333.97 207.746 330.139C207.746 326.308 204.64 323.202 200.81 323.202C196.979 323.202 193.873 326.308 193.873 330.139C193.873 333.97 196.979 337.075 200.81 337.075Z" stroke="black" stroke-width="2" stroke-linecap="round" stroke-linejoin="round"/>
<path d="M214.683 354.417V350.948C214.683 349.109 213.952 347.344 212.651 346.044C211.35 344.743 209.586 344.012 207.746 344.012H193.873C192.033 344.012 190.269 344.743 188.968 346.044C187.667 347.344 186.937 349.109 186.937 350.948V354.417" stroke="white" stroke-opacity="0.7" stroke-width="2" stroke-linecap="round" stroke-linejoin="round"/>
<path d="M200.81 337.075C204.64 337.075 207.746 333.97 207.746 330.139C207.746 326.308 204.64 323.202 200.81 323.202C196.979 323.202 193.873 326.308 193.873 330.139C193.873 333.97 196.979 337.075 200.81 337.075Z" stroke="white" stroke-opacity="0.7" stroke-width="2" stroke-linecap="round" stroke-linejoin="round"/>
<rect x="222" y="354" width="18" height="18" rx="8" fill="#D9D9D9"/>
<rect x="222" y="354" width="18" height="18" rx="8" fill="#D9D9D9"/>
<path d="M231 359V367" stroke="#2D2D2D" stroke-width="2" stroke-linecap="round" stroke-linejoin="round"/>
<path d="M227 363H235" stroke="#2D2D2D" stroke-width="2" stroke-linecap="round" stroke-linejoin="round"/>
<path d="M193.898 768.953V773.766H195.936V774.668H193.898V781.135H192.832V768.953H193.898ZM185.025 778.086V770.143H190.699V771.031H186.092V777.184C188.293 777.177 189.845 777.081 191.656 776.746L191.793 777.676C189.886 778.018 188.293 778.086 185.982 778.086H185.025ZM202.129 769.227C204.774 769.227 206.415 770.081 206.422 771.537C206.415 772.973 204.774 773.813 202.129 773.807C199.483 773.813 197.822 772.973 197.822 771.537C197.822 770.081 199.483 769.227 202.129 769.227ZM196.592 775.748V774.859H207.666V775.748H196.592ZM197.945 780.943V776.951H206.312V780.943H197.945ZM198.93 771.537C198.923 772.419 200.16 772.952 202.129 772.959C204.077 772.952 205.321 772.419 205.328 771.537C205.321 770.628 204.077 770.088 202.129 770.088C200.16 770.088 198.923 770.628 198.93 771.537ZM199.012 780.068H205.26V777.812H199.012V780.068Z" fill="white"/>
<path d="M171.151 99.8906V101.754H156.509V99.8906H171.151ZM157.651 90.8203V89.0273H169.921V90.8203H167.671V95.6719H169.851V97.4297H157.722V95.6719H159.866V90.8203H157.651ZM162.116 95.6719H165.456V90.8203H162.116V95.6719ZM186.708 99.9961V101.842H172.065V99.9961H178.235V97.5879H173.753V92.209H182.806V90.4512H173.735V88.6582H185.021V93.9668H176.003V95.7598H185.39V97.5879H180.468V99.9961H186.708ZM201.052 87.6211V95.8301H198.802V87.6211H201.052ZM187.886 93.7559C188.431 93.7559 189.011 93.7471 189.608 93.7383V90.3105H188.308V88.6055H197.009V90.3105H195.69V93.501C196.35 93.4482 197 93.3867 197.624 93.3164L197.729 94.916C194.548 95.4258 190.909 95.5137 188.132 95.5137L187.886 93.7559ZM190.171 98.2031V96.4629H201.052V100.734H192.421V101.736H201.491V103.512H190.206V99.1348H198.837V98.2031H190.171ZM191.753 93.6943C192.342 93.6768 192.931 93.6592 193.528 93.6328V90.3105H191.753V93.6943ZM220.81 87.6211V95.7598H218.577V91.7871H215.571V90.0117H218.577V87.6211H220.81ZM207.204 94.1074C209.858 93.3252 211.045 91.374 211.054 89.3086V88.1484H213.321V89.3086C213.312 91.2158 214.429 93.0703 216.978 93.8262L215.8 95.5488C214.086 95.0039 212.891 93.9316 212.196 92.5605C211.493 94.0986 210.236 95.2939 208.364 95.8828L207.204 94.1074ZM210.175 98.1504V96.4277H220.81V100.699H212.407V101.684H221.267V103.441H210.192V99.0645H218.595V98.1504H210.175ZM236.366 87.6211V97.1133H234.134V93.334H231.638V91.5234H234.134V87.6211H236.366ZM222.778 95.3555C225.397 94.4766 226.593 92.3848 226.646 90.3809H223.429V88.5879H232.112V90.3809H228.931C228.975 92.2441 230.117 94.125 232.604 94.9512L231.497 96.709C229.739 96.1377 228.518 94.9775 227.823 93.5449C227.12 95.1709 225.837 96.4805 223.938 97.1309L222.778 95.3555ZM225.397 100.559C225.397 98.6162 227.489 97.4736 230.899 97.4648C234.318 97.4736 236.41 98.6162 236.419 100.559C236.41 102.501 234.318 103.635 230.899 103.635C227.489 103.635 225.397 102.501 225.397 100.559ZM227.63 100.559C227.63 101.473 228.781 101.93 230.899 101.93C233.026 101.93 234.178 101.473 234.187 100.559C234.178 99.6357 233.026 99.1787 230.899 99.1875C228.781 99.1787 227.63 99.6357 227.63 100.559Z" fill="white"/>
<path d="M77.6537 382.221C77.6537 382.918 77.795 383.615 78.0775 384.312C78.3601 385.005 78.7406 385.625 79.2191 386.172C79.7022 386.719 80.2286 387.133 80.7982 387.416L80.142 388.277C79.4721 387.926 78.8705 387.411 78.3373 386.732C77.8087 386.053 77.4099 385.292 77.141 384.449C76.8721 385.347 76.4665 386.158 75.9242 386.883C75.3819 387.603 74.7689 388.145 74.0854 388.51L73.4018 387.648C73.9896 387.361 74.5251 386.931 75.0082 386.356C75.4958 385.778 75.8809 385.126 76.1635 384.401C76.4506 383.672 76.5964 382.945 76.601 382.221V380.006H77.6537V382.221ZM82.9857 383.889H85.0229V384.818H82.9857V391.107H81.9193V378.953H82.9857V383.889ZM89.7541 381.564C89.7541 382.102 89.8863 382.619 90.1506 383.116C90.4149 383.608 90.784 384.041 91.258 384.415C91.732 384.784 92.2697 385.064 92.8713 385.256L92.3244 386.117C91.6135 385.876 90.9891 385.516 90.4514 385.037C89.9136 384.559 89.508 383.998 89.2346 383.355C88.9702 384.048 88.5646 384.657 88.0178 385.181C87.4755 385.705 86.842 386.099 86.1174 386.363L85.5568 385.502C86.1584 385.288 86.6962 384.98 87.1701 384.579C87.6441 384.178 88.0132 383.718 88.2775 383.198C88.5419 382.674 88.674 382.13 88.674 381.564V380.854H85.8303V379.979H92.5568V380.854H89.7541V381.564ZM95.4143 387.881H94.3479V378.967H95.4143V387.881ZM95.7971 390.848H87.5666V387.033H88.633V389.945H95.7971V390.848ZM108.253 386.24H97.1787V385.365H108.253V386.24ZM107.022 390.848H98.6143V387.307H99.6943V389.945H107.022V390.848ZM102.716 379.391C103.582 379.386 104.338 379.479 104.985 379.671C105.632 379.862 106.132 380.14 106.482 380.505C106.833 380.865 107.009 381.296 107.009 381.797C107.009 382.298 106.833 382.731 106.482 383.096C106.132 383.456 105.632 383.734 104.985 383.93C104.338 384.121 103.582 384.217 102.716 384.217C101.841 384.217 101.08 384.121 100.433 383.93C99.7855 383.734 99.2865 383.456 98.9355 383.096C98.5846 382.731 98.4092 382.298 98.4092 381.797C98.4092 381.296 98.5846 380.865 98.9355 380.505C99.2865 380.14 99.7855 379.862 100.433 379.671C101.08 379.479 101.841 379.386 102.716 379.391ZM102.716 380.252C102.069 380.252 101.504 380.316 101.021 380.443C100.537 380.566 100.164 380.744 99.8994 380.977C99.6396 381.209 99.512 381.482 99.5166 381.797C99.512 382.111 99.6396 382.385 99.8994 382.617C100.164 382.85 100.537 383.03 101.021 383.157C101.504 383.28 102.069 383.342 102.716 383.342C103.358 383.342 103.921 383.28 104.404 383.157C104.887 383.03 105.259 382.85 105.519 382.617C105.783 382.385 105.915 382.111 105.915 381.797C105.915 381.482 105.783 381.209 105.519 380.977C105.259 380.744 104.887 380.566 104.404 380.443C103.921 380.316 103.358 380.252 102.716 380.252ZM116.129 390H114.885V381.387H114.831L112.424 382.986V381.742L114.885 380.102H116.129V390ZM122.146 381.264C122.146 381.788 122.269 382.289 122.515 382.768C122.766 383.242 123.114 383.661 123.561 384.025C124.012 384.385 124.534 384.663 125.126 384.859L124.621 385.707C123.928 385.479 123.322 385.135 122.802 384.675C122.287 384.215 121.898 383.674 121.633 383.055C121.373 383.752 120.975 384.363 120.437 384.887C119.899 385.406 119.266 385.798 118.537 386.062L117.99 385.201C118.591 384.996 119.127 384.695 119.596 384.299C120.065 383.902 120.43 383.442 120.69 382.918C120.954 382.389 121.089 381.838 121.093 381.264V380.744H118.318V379.855H124.88V380.744H122.146V381.264ZM127.533 382.057H129.365V382.959H127.533V386.295H126.466V378.953H127.533V382.057ZM123.636 386.623C124.466 386.623 125.181 386.712 125.783 386.89C126.384 387.063 126.844 387.316 127.163 387.648C127.482 387.981 127.642 388.378 127.642 388.838C127.642 389.307 127.482 389.711 127.163 390.048C126.844 390.385 126.384 390.64 125.783 390.813C125.181 390.991 124.466 391.08 123.636 391.08C122.807 391.08 122.089 390.991 121.483 390.813C120.877 390.64 120.412 390.385 120.088 390.048C119.765 389.711 119.603 389.307 119.603 388.838C119.603 388.378 119.765 387.981 120.088 387.648C120.412 387.316 120.877 387.063 121.483 386.89C122.089 386.712 122.807 386.623 123.636 386.623ZM123.636 387.484C123.03 387.484 122.504 387.539 122.057 387.648C121.61 387.753 121.269 387.908 121.032 388.113C120.795 388.318 120.678 388.56 120.683 388.838C120.678 389.125 120.795 389.373 121.032 389.583C121.269 389.788 121.608 389.945 122.05 390.055C122.497 390.164 123.025 390.219 123.636 390.219C124.251 390.219 124.78 390.164 125.222 390.055C125.669 389.945 126.01 389.788 126.247 389.583C126.484 389.373 126.603 389.125 126.603 388.838C126.603 388.555 126.484 388.314 126.247 388.113C126.01 387.908 125.669 387.753 125.222 387.648C124.775 387.539 124.247 387.484 123.636 387.484ZM130.76 392.803H129.748L130.5 389.084H131.826L130.76 392.803ZM141.959 380.102V387.17C141.959 387.794 141.843 388.33 141.61 388.776C141.378 389.218 141.047 389.556 140.619 389.788C140.191 390.021 139.689 390.137 139.115 390.137C138.568 390.137 138.081 390.036 137.652 389.836C137.224 389.635 136.889 389.348 136.647 388.975C136.406 388.601 136.285 388.163 136.285 387.662H137.502C137.502 387.936 137.57 388.177 137.707 388.387C137.848 388.596 138.04 388.758 138.281 388.872C138.527 388.986 138.805 389.043 139.115 389.043C139.63 389.043 140.024 388.883 140.298 388.564C140.576 388.245 140.715 387.781 140.715 387.17V380.102H141.959ZM143.846 380.102H147.21C147.957 380.102 148.584 380.238 149.089 380.512C149.595 380.785 149.971 381.159 150.217 381.633C150.463 382.102 150.587 382.64 150.587 383.246C150.587 383.848 150.463 384.388 150.217 384.866C149.971 385.34 149.595 385.716 149.089 385.994C148.588 386.268 147.966 386.404 147.223 386.404H145.077V390H143.846V380.102ZM147.169 385.311C147.916 385.311 148.47 385.124 148.83 384.75C149.19 384.372 149.37 383.87 149.37 383.246C149.37 382.617 149.19 382.118 148.83 381.749C148.47 381.38 147.911 381.195 147.155 381.195H145.077V385.311H147.169ZM152.009 380.102H158.011V381.195H153.24V384.504H157.697V385.584H153.24V388.906H158.079V390H152.009V380.102ZM166.406 383.191C166.188 382.54 165.837 382.032 165.354 381.667C164.875 381.298 164.292 381.113 163.604 381.113C163.011 381.113 162.476 381.266 161.997 381.571C161.523 381.877 161.147 382.326 160.869 382.918C160.596 383.51 160.459 384.221 160.459 385.051C160.459 385.88 160.598 386.591 160.876 387.184C161.154 387.776 161.537 388.225 162.025 388.53C162.512 388.836 163.066 388.988 163.686 388.988C164.242 388.988 164.732 388.872 165.155 388.64C165.584 388.403 165.917 388.068 166.154 387.635C166.395 387.197 166.52 386.691 166.529 386.117H163.946V385.037H167.733V386.104C167.733 386.91 167.559 387.619 167.213 388.229C166.867 388.84 166.386 389.312 165.771 389.645C165.16 389.973 164.465 390.137 163.686 390.137C162.811 390.137 162.038 389.932 161.368 389.521C160.703 389.107 160.186 388.517 159.817 387.751C159.452 386.981 159.27 386.081 159.27 385.051C159.27 384.025 159.452 383.13 159.817 382.364C160.186 381.594 160.698 381.002 161.355 380.587C162.011 380.172 162.761 379.965 163.604 379.965C164.292 379.965 164.923 380.102 165.497 380.375C166.071 380.644 166.548 381.022 166.926 381.51C167.304 381.997 167.555 382.558 167.678 383.191H166.406ZM169.606 392.803H168.595L169.347 389.084H170.673L169.606 392.803ZM175.774 380.102H179.137C179.885 380.102 180.511 380.238 181.017 380.512C181.523 380.785 181.899 381.159 182.145 381.633C182.391 382.102 182.514 382.64 182.514 383.246C182.514 383.848 182.391 384.388 182.145 384.866C181.899 385.34 181.523 385.716 181.017 385.994C180.516 386.268 179.894 386.404 179.151 386.404H177.004V390H175.774V380.102ZM179.096 385.311C179.844 385.311 180.397 385.124 180.757 384.75C181.117 384.372 181.297 383.87 181.297 383.246C181.297 382.617 181.117 382.118 180.757 381.749C180.397 381.38 179.839 381.195 179.083 381.195H177.004V385.311H179.096ZM191.798 390H190.622L185.263 382.289H185.167V390H183.937V380.102H185.126L190.486 387.826H190.581V380.102H191.798V390ZM200.44 383.191C200.221 382.54 199.87 382.032 199.387 381.667C198.908 381.298 198.325 381.113 197.637 381.113C197.044 381.113 196.509 381.266 196.03 381.571C195.556 381.877 195.181 382.326 194.903 382.918C194.629 383.51 194.492 384.221 194.492 385.051C194.492 385.88 194.631 386.591 194.909 387.184C195.187 387.776 195.57 388.225 196.058 388.53C196.545 388.836 197.099 388.988 197.719 388.988C198.275 388.988 198.765 388.872 199.189 388.64C199.617 388.403 199.95 388.068 200.187 387.635C200.428 387.197 200.554 386.691 200.563 386.117H197.979V385.037H201.766V386.104C201.766 386.91 201.593 387.619 201.246 388.229C200.9 388.84 200.419 389.312 199.804 389.645C199.193 389.973 198.498 390.137 197.719 390.137C196.844 390.137 196.071 389.932 195.402 389.521C194.736 389.107 194.219 388.517 193.85 387.751C193.485 386.981 193.303 386.081 193.303 385.051C193.303 384.025 193.485 383.13 193.85 382.364C194.219 381.594 194.732 381.002 195.388 380.587C196.044 380.172 196.794 379.965 197.637 379.965C198.325 379.965 198.956 380.102 199.53 380.375C200.105 380.644 200.581 381.022 200.959 381.51C201.337 381.997 201.588 382.558 201.711 383.191H200.44ZM203.64 392.803H202.628L203.38 389.084H204.706L203.64 392.803ZM215.208 382.59C215.171 382.271 215.055 381.997 214.859 381.77C214.668 381.537 214.412 381.362 214.093 381.243C213.774 381.12 213.417 381.059 213.02 381.059C212.592 381.059 212.211 381.129 211.879 381.271C211.55 381.407 211.295 381.599 211.113 381.845C210.935 382.091 210.846 382.371 210.846 382.686C210.846 383.141 211.031 383.49 211.4 383.731C211.774 383.973 212.227 384.162 212.76 384.299L213.745 384.572C214.51 384.768 215.169 385.071 215.72 385.481C216.272 385.887 216.547 386.495 216.547 387.307C216.547 387.849 216.404 388.339 216.117 388.776C215.834 389.209 215.422 389.551 214.879 389.802C214.342 390.052 213.699 390.178 212.952 390.178C212.25 390.178 211.637 390.064 211.113 389.836C210.589 389.608 210.179 389.287 209.882 388.872C209.586 388.457 209.42 387.977 209.383 387.43H210.641C210.678 387.785 210.803 388.086 211.017 388.332C211.231 388.574 211.505 388.756 211.837 388.879C212.175 388.997 212.546 389.057 212.952 389.057C213.407 389.057 213.815 388.984 214.175 388.838C214.54 388.692 214.825 388.485 215.03 388.216C215.24 387.942 215.344 387.63 215.344 387.279C215.344 386.979 215.258 386.726 215.085 386.521C214.916 386.315 214.693 386.149 214.415 386.021C214.141 385.894 213.799 385.771 213.389 385.652L212.172 385.324C211.361 385.087 210.739 384.759 210.306 384.34C209.873 383.921 209.657 383.387 209.657 382.74C209.657 382.198 209.805 381.717 210.101 381.298C210.402 380.874 210.81 380.546 211.325 380.313C211.844 380.081 212.423 379.965 213.061 379.965C213.69 379.965 214.255 380.079 214.756 380.307C215.258 380.535 215.654 380.849 215.946 381.25C216.238 381.646 216.393 382.093 216.411 382.59H215.208ZM221.374 388.4H221.484L224.41 380.102H225.708L222.085 390H220.787L217.163 380.102H218.462L221.374 388.4ZM233.024 383.191C232.805 382.54 232.454 382.032 231.971 381.667C231.492 381.298 230.909 381.113 230.221 381.113C229.628 381.113 229.093 381.266 228.614 381.571C228.14 381.877 227.765 382.326 227.487 382.918C227.213 383.51 227.076 384.221 227.076 385.051C227.076 385.88 227.215 386.591 227.493 387.184C227.771 387.776 228.154 388.225 228.642 388.53C229.129 388.836 229.683 388.988 230.303 388.988C230.859 388.988 231.349 388.872 231.773 388.64C232.201 388.403 232.534 388.068 232.771 387.635C233.012 387.197 233.138 386.691 233.147 386.117H230.563V385.037H234.35V386.104C234.35 386.91 234.177 387.619 233.83 388.229C233.484 388.84 233.003 389.312 232.388 389.645C231.777 389.973 231.082 390.137 230.303 390.137C229.428 390.137 228.655 389.932 227.986 389.521C227.32 389.107 226.803 388.517 226.434 387.751C226.069 386.981 225.887 386.081 225.887 385.051C225.887 384.025 226.069 383.13 226.434 382.364C226.803 381.594 227.316 381.002 227.972 380.587C228.628 380.172 229.378 379.965 230.221 379.965C230.909 379.965 231.54 380.102 232.114 380.375C232.689 380.644 233.165 381.022 233.543 381.51C233.921 381.997 234.172 382.558 234.295 383.191H233.024ZM242.28 381.168H240.927V387.02C241.697 386.965 242.34 386.906 242.854 386.842L242.909 387.635C241.77 387.817 240.58 387.938 239.341 387.997C238.101 388.056 236.748 388.09 235.28 388.1L235.144 387.184C235.85 387.184 236.397 387.181 236.784 387.177V381.168H235.444V380.279H242.28V381.168ZM244.7 383.834H246.737V384.736H244.7V391.107H243.634V378.953H244.7V383.834ZM237.823 387.156C238.438 387.143 239.131 387.118 239.901 387.081V381.168H237.823V387.156ZM250.539 379.404C251.14 379.409 251.678 379.525 252.152 379.753C252.631 379.981 253.004 380.3 253.273 380.71C253.547 381.116 253.683 381.578 253.683 382.098C253.683 382.617 253.547 383.082 253.273 383.492C253.004 383.898 252.631 384.215 252.152 384.442C251.678 384.666 251.14 384.777 250.539 384.777C249.928 384.777 249.384 384.666 248.905 384.442C248.427 384.215 248.053 383.898 247.784 383.492C247.515 383.082 247.381 382.617 247.381 382.098C247.381 381.578 247.515 381.116 247.784 380.71C248.053 380.3 248.427 379.981 248.905 379.753C249.384 379.525 249.928 379.409 250.539 379.404ZM250.539 380.307C250.138 380.307 249.776 380.384 249.452 380.539C249.133 380.689 248.882 380.901 248.7 381.175C248.518 381.444 248.429 381.751 248.433 382.098C248.429 382.449 248.518 382.761 248.7 383.034C248.882 383.308 249.133 383.522 249.452 383.677C249.776 383.827 250.138 383.902 250.539 383.902C250.935 383.902 251.293 383.827 251.612 383.677C251.936 383.522 252.189 383.308 252.371 383.034C252.553 382.761 252.644 382.449 252.644 382.098C252.644 381.751 252.553 381.444 252.371 381.175C252.189 380.901 251.936 380.689 251.612 380.539C251.293 380.384 250.935 380.307 250.539 380.307ZM257.129 385.201H256.062V378.953H257.129V385.201ZM257.129 388.715H250.306V390.082H257.566V390.943H249.254V387.908H256.062V386.65H249.226V385.789H257.129V388.715ZM265.032 385.652H259.413V380.061H265.032V385.652ZM260.465 384.791H263.993V380.936H260.465V384.791ZM268.395 382.658H270.227V383.561H268.395V387.867H267.329V378.953H268.395V382.658ZM268.956 390.848H260.794V387.02H261.846V389.945H268.956V390.848ZM283.313 383.902H285.281V384.805H283.313V391.107H282.246V378.953H283.313V383.902ZM280.168 380.266C280.168 382.075 279.715 383.715 278.808 385.188C277.901 386.655 276.495 387.858 274.59 388.797L273.988 387.949C275.552 387.17 276.762 386.208 277.618 385.064C278.475 383.916 278.965 382.617 279.088 381.168H274.549V380.266H280.168ZM295.522 383.246H287.224V379.199H288.29V382.357H295.522V383.246ZM296.794 385.557H285.706V384.668H296.794V385.557ZM291.243 386.65C292.114 386.65 292.861 386.737 293.485 386.91C294.11 387.079 294.588 387.329 294.921 387.662C295.254 387.99 295.422 388.387 295.427 388.852C295.422 389.316 295.254 389.713 294.921 390.041C294.588 390.374 294.11 390.624 293.485 390.793C292.861 390.966 292.114 391.053 291.243 391.053C290.368 391.053 289.616 390.966 288.987 390.793C288.358 390.624 287.878 390.374 287.545 390.041C287.212 389.713 287.046 389.316 287.046 388.852C287.046 388.387 287.212 387.99 287.545 387.662C287.878 387.329 288.358 387.079 288.987 386.91C289.616 386.737 290.368 386.65 291.243 386.65ZM291.243 387.498C290.259 387.507 289.493 387.628 288.946 387.86C288.404 388.093 288.135 388.423 288.14 388.852C288.135 389.134 288.256 389.378 288.502 389.583C288.748 389.788 289.104 389.945 289.568 390.055C290.038 390.164 290.596 390.219 291.243 390.219C291.881 390.219 292.433 390.164 292.897 390.055C293.367 389.945 293.725 389.788 293.971 389.583C294.221 389.378 294.347 389.134 294.347 388.852C294.347 388.423 294.073 388.093 293.526 387.86C292.979 387.628 292.218 387.507 291.243 387.498ZM303.576 381.934H297.478V381.059H300.008V379.322H301.074V381.059H303.576V381.934ZM300.527 382.754C301.033 382.754 301.484 382.872 301.881 383.109C302.282 383.342 302.594 383.668 302.817 384.087C303.045 384.506 303.161 384.982 303.166 385.516C303.161 386.053 303.045 386.534 302.817 386.958C302.594 387.377 302.282 387.708 301.881 387.949C301.484 388.186 301.033 388.305 300.527 388.305C300.026 388.305 299.577 388.186 299.18 387.949C298.784 387.708 298.474 387.375 298.251 386.951C298.027 386.527 297.916 386.049 297.916 385.516C297.916 384.987 298.027 384.513 298.251 384.094C298.474 383.67 298.784 383.342 299.18 383.109C299.577 382.872 300.026 382.754 300.527 382.754ZM300.527 383.656C300.213 383.661 299.928 383.745 299.673 383.909C299.422 384.069 299.226 384.29 299.085 384.572C298.944 384.85 298.873 385.165 298.873 385.516C298.873 385.871 298.944 386.19 299.085 386.473C299.231 386.755 299.429 386.976 299.68 387.136C299.93 387.291 300.213 387.366 300.527 387.361C300.846 387.366 301.133 387.291 301.388 387.136C301.644 386.976 301.844 386.755 301.99 386.473C302.136 386.19 302.209 385.871 302.209 385.516C302.209 385.165 302.136 384.85 301.99 384.572C301.844 384.29 301.644 384.069 301.388 383.909C301.133 383.745 300.846 383.661 300.527 383.656ZM307.855 391.107H306.83V384.969H305.217V390.506H304.205V379.254H305.217V384.08H306.83V378.953H307.855V391.107ZM320.434 389.549H309.305V388.646H312.067V385.365C311.538 385.092 311.128 384.741 310.837 384.312C310.545 383.88 310.399 383.392 310.399 382.85C310.399 382.23 310.588 381.685 310.966 381.216C311.345 380.742 311.869 380.375 312.539 380.115C313.213 379.855 313.981 379.723 314.842 379.719C315.704 379.723 316.469 379.855 317.139 380.115C317.814 380.375 318.34 380.742 318.718 381.216C319.097 381.685 319.286 382.23 319.286 382.85C319.286 383.383 319.144 383.864 318.862 384.292C318.579 384.716 318.183 385.064 317.672 385.338V388.646H320.434V389.549ZM314.842 380.607C314.182 380.603 313.594 380.694 313.079 380.881C312.564 381.068 312.16 381.332 311.869 381.674C311.582 382.011 311.438 382.403 311.438 382.85C311.438 383.296 311.582 383.693 311.869 384.039C312.16 384.381 312.564 384.647 313.079 384.839C313.594 385.026 314.182 385.119 314.842 385.119C315.499 385.119 316.084 385.023 316.599 384.832C317.114 384.641 317.518 384.374 317.809 384.032C318.101 383.69 318.247 383.296 318.247 382.85C318.247 382.403 318.101 382.011 317.809 381.674C317.518 381.332 317.114 381.068 316.599 380.881C316.084 380.694 315.499 380.603 314.842 380.607ZM316.592 388.646V385.755C316.05 385.896 315.467 385.967 314.842 385.967C314.213 385.967 313.639 385.898 313.12 385.762V388.646H316.592Z" fill="#6DFCAF"/>
</svg>
