<svg width="400" height="400" viewBox="0 0 400 400" fill="none" xmlns="http://www.w3.org/2000/svg">
<rect width="400" height="400" fill="white"/>
<g clip-path="url(#clip0_4485_3506)">
<path d="M223.926 36.4883L249.432 36.6562C249.912 37.0293 250.301 37.2734 250.713 37.457C255.336 39.5469 260.348 41.043 264.514 43.8203C276.592 51.8477 288.387 60.3066 300.174 68.7617C305.652 72.6816 311.053 76.7637 316.103 81.2031C319.857 84.5 321.543 89.1777 321.553 94.166L321.543 251.141C321.537 253.33 321.162 255.582 320.553 257.687C317.783 267.285 311.641 273.854 301.975 276.418C296.877 277.768 291.492 278.187 286.205 278.623C277.957 279.309 269.68 279.645 261.416 280.141L245.783 281.117L220.752 282.59L205.363 283.551L180.088 285.016L167.025 285.551C166.605 285.572 166.217 286.16 165.82 286.488C155.879 286.488 145.945 286.488 135.92 286.328C135.439 285.947 135.074 285.641 134.646 285.52C128.588 283.764 123.508 280.416 119.602 275.555C114.191 268.834 109.051 261.906 103.848 255.025C97.4531 246.57 90.8926 238.24 84.8496 229.543C81.2977 224.461 79.3952 218.409 79.4004 212.209C79.3833 165.848 79.3892 119.486 79.4179 73.125C79.4179 71.7891 79.6523 70.4395 79.8828 69.1113C82.3086 54.8379 92.875 47.2227 105.441 45.8105C111.965 45.0781 118.533 44.75 125.088 44.3164L142.412 43.3164L149.859 42.8281L172.32 40.8906L184.771 39.9141L205.395 38.4492L222.719 37.4258C223.141 37.3965 223.529 36.8164 223.926 36.4883ZM125.674 259.016C126.713 260.365 127.871 261.646 128.779 263.082C133.182 269.971 139.492 272.473 147.51 271.939L201.824 268.705L262.949 265.012L293.383 263.051C302.402 262.326 306.758 257.451 306.934 248.402V246.449L307.002 98.2793C307.01 93.8164 305.469 90.6953 301.898 88.2012L258.883 57.8887C251.963 52.8535 244.617 50.5039 236.109 51.1758L187.937 54.7383L137.568 58.4531L105.953 60.918C99.5664 61.5039 95.6074 65.4102 94.4629 71.6758C94.1846 73.2752 94.0493 74.8961 94.0586 76.5195L93.9277 205.898C93.8828 214.375 96.4765 221.426 101.551 227.91L125.674 259.016Z" fill="white"/>
<path d="M125.561 258.885L101.551 227.908C96.4766 221.424 93.8829 214.375 93.9278 205.899L94.0587 76.5197C94.0587 74.9026 94.1798 73.2619 94.463 71.676C95.6075 65.4123 99.5665 61.5061 105.953 60.9182L137.568 58.4533L187.94 54.7385L236.109 51.176C244.617 50.5041 251.963 52.8537 258.883 57.8889C273.067 68.2111 287.516 78.1682 301.899 88.2014C305.469 90.6955 307.01 93.8166 307.002 98.2795L306.934 246.457V248.41C306.758 257.451 302.402 262.326 293.383 263.051C283.252 263.867 273.098 264.395 262.949 265.012L201.824 268.703L147.51 271.94C139.492 272.473 133.182 269.971 128.779 263.082C127.871 261.647 126.713 260.365 125.561 258.885ZM138.072 169.057V234.463L138.088 246.662C138.193 252.133 140.873 254.858 146.342 255.17C147.715 255.246 149.104 255.199 150.484 255.115L196.27 252.416L283.701 247.418C289.15 247.113 291.668 244.725 292.178 239.324C292.277 238.354 292.246 237.371 292.246 236.395L292.254 110.463C292.254 109.731 292.277 108.998 292.233 108.266C291.904 103.254 289.752 101.209 284.772 101.475L239.711 104.071C218.605 105.298 197.5 106.534 176.395 107.778L144.74 109.678C140.705 109.936 138.881 111.676 138.272 115.621C138.127 116.668 138.063 117.723 138.08 118.78L138.072 169.057ZM249.736 66.0744C245.914 64.0002 241.764 63.3127 237.49 63.549C230.922 63.9084 224.354 64.4494 217.783 64.924L124.133 71.7287C121.303 71.9338 118.457 72.1389 115.664 72.6447C114.727 72.8127 113.543 73.758 113.254 74.6135C113.039 75.2151 113.986 76.4299 114.68 77.094C115.963 78.3205 117.441 79.3498 118.84 80.4572C122.158 83.0744 125.69 85.4612 128.734 88.3537C134.51 93.8381 141.231 95.1057 148.93 94.549L209.545 90.7483L274.799 86.8342C275.395 86.8049 275.99 86.6213 277.301 86.3772C276.104 85.133 275.408 84.1799 274.502 83.508C271.305 81.147 268.078 78.8278 264.82 76.551C259.816 73.025 254.788 69.5327 249.736 66.0744Z" fill="black"/>
<path d="M138.072 168.812L138.08 118.779C138.08 117.724 138.111 116.658 138.271 115.621C138.881 111.676 140.705 109.937 144.74 109.678L176.395 107.777L239.711 104.07L284.77 101.474C289.752 101.209 291.904 103.26 292.23 108.265C292.277 108.998 292.254 109.73 292.254 110.463L292.246 236.394L292.178 239.324C291.668 244.724 289.15 247.113 283.701 247.418L196.27 252.416L150.484 255.115L146.344 255.17C140.873 254.857 138.193 252.133 138.088 246.67L138.072 234.463V168.812ZM227.459 168.941L202.326 130.65C201.449 129.314 200.588 128.873 198.971 129.049L188.258 129.771L168.551 131.215C163.707 131.658 160.777 136.213 162.119 140.935L172.557 141.828V226.385L165.447 228.39C162.295 229.32 160.945 231.976 162.006 235.371L186.045 233.99L195.514 233.213C199.596 232.541 201.793 230.039 202.342 225.957L189.197 222.959V159.359L190.174 160.726L220.385 207.898C224.826 214.787 229.386 221.598 234.064 228.328C237.398 233.113 242.312 234.578 247.836 233.387C251.293 232.648 254.611 231.244 257.998 230.152C259.762 229.58 260.363 228.527 260.355 226.551L260.297 139.637C260.297 134.556 260.297 134.556 265.322 133.543C270.404 132.519 271.678 130.49 270.518 125.058L240.146 126.904C236.842 127.14 234.34 129.902 233.838 133.115C233.592 134.664 233.912 135.517 235.766 135.625L244.961 136.64V195.584C239.137 186.699 233.303 177.821 227.459 168.949V168.941ZM249.902 66.158C254.888 69.601 259.859 73.0645 264.816 76.5487C268.074 78.8261 271.303 81.146 274.5 83.5076C275.406 84.1795 276.102 85.1326 277.299 86.3768L274.797 86.8338L209.543 90.7479L148.928 94.5487C141.229 95.1053 134.508 93.8377 128.732 88.3534C125.688 85.4627 122.156 83.0741 118.836 80.4569C117.439 79.3494 115.961 78.3201 114.678 77.0916C113.984 76.4276 113.037 75.2166 113.252 74.6112C113.541 73.7576 114.732 72.8123 115.662 72.6444C118.455 72.1405 121.301 71.9334 124.131 71.7284L217.783 64.9237L237.49 63.5487C241.762 63.3143 245.912 63.9979 249.902 66.158Z" fill="white"/>
<path d="M227.565 169.086L244.961 195.584V136.639L235.768 135.623C233.912 135.518 233.592 134.664 233.836 133.115C234.34 129.902 236.844 127.141 240.145 126.904L270.518 125.059C271.678 130.488 270.404 132.52 265.322 133.541C260.295 134.549 260.295 134.549 260.295 139.637L260.356 226.551C260.363 228.527 259.762 229.58 257.998 230.152L247.836 233.387C242.313 234.57 237.399 233.113 234.066 228.328C229.39 221.597 224.83 214.786 220.387 207.898L190.172 160.725C189.959 160.389 189.715 160.076 189.195 159.359V222.959L202.342 225.957C201.793 230.039 199.596 232.539 195.514 233.213C192.4 233.723 189.205 233.799 186.045 233.99L162.006 235.371C160.945 231.977 162.295 229.32 165.447 228.391L172.557 226.385V141.828L162.119 140.936C160.777 136.213 163.707 131.658 168.551 131.215C175.106 130.604 181.69 130.23 188.258 129.773C191.828 129.529 195.414 129.437 198.971 129.049C200.588 128.873 201.451 129.314 202.326 130.65L227.565 169.086Z" fill="black"/>
</g>
<path d="M93.7758 321.152L94.3198 321.248V356H86.3518V313.76H97.3598L116.304 348.448L115.76 348.576V313.76H123.728V356H112.656L93.7758 321.152ZM138.133 334.848C138.133 337.536 138.687 339.968 139.797 342.144C140.927 344.32 142.474 346.048 144.437 347.328C146.399 348.587 148.671 349.216 151.253 349.216C153.834 349.216 156.106 348.587 158.069 347.328C160.053 346.048 161.599 344.32 162.709 342.144C163.818 339.968 164.373 337.536 164.373 334.848C164.373 332.16 163.818 329.739 162.709 327.584C161.599 325.408 160.053 323.68 158.069 322.4C156.106 321.12 153.834 320.48 151.253 320.48C148.671 320.48 146.399 321.12 144.437 322.4C142.474 323.68 140.927 325.408 139.797 327.584C138.687 329.739 138.133 332.16 138.133 334.848ZM129.813 334.848C129.813 331.776 130.346 328.917 131.413 326.272C132.501 323.605 134.015 321.28 135.957 319.296C137.898 317.312 140.17 315.765 142.773 314.656C145.397 313.547 148.223 312.992 151.253 312.992C154.325 312.992 157.162 313.547 159.765 314.656C162.367 315.765 164.629 317.312 166.549 319.296C168.49 321.28 169.994 323.605 171.061 326.272C172.127 328.917 172.661 331.776 172.661 334.848C172.661 337.941 172.138 340.821 171.093 343.488C170.047 346.133 168.565 348.459 166.645 350.464C164.725 352.448 162.463 353.995 159.861 355.104C157.258 356.213 154.389 356.768 151.253 356.768C148.074 356.768 145.173 356.213 142.549 355.104C139.946 353.995 137.685 352.448 135.765 350.464C133.866 348.459 132.394 346.133 131.349 343.488C130.325 340.821 129.813 337.941 129.813 334.848ZM185.044 320.832H174.452V313.76H203.604V320.832H193.044V356H185.044V320.832ZM209.486 313.76H217.486V356H209.486V313.76ZM232.195 334.848C232.195 337.536 232.75 339.968 233.859 342.144C234.99 344.32 236.537 346.048 238.499 347.328C240.462 348.587 242.734 349.216 245.315 349.216C247.897 349.216 250.169 348.587 252.131 347.328C254.115 346.048 255.662 344.32 256.771 342.144C257.881 339.968 258.435 337.536 258.435 334.848C258.435 332.16 257.881 329.739 256.771 327.584C255.662 325.408 254.115 323.68 252.131 322.4C250.169 321.12 247.897 320.48 245.315 320.48C242.734 320.48 240.462 321.12 238.499 322.4C236.537 323.68 234.99 325.408 233.859 327.584C232.75 329.739 232.195 332.16 232.195 334.848ZM223.875 334.848C223.875 331.776 224.409 328.917 225.475 326.272C226.563 323.605 228.078 321.28 230.019 319.296C231.961 317.312 234.233 315.765 236.835 314.656C239.459 313.547 242.286 312.992 245.315 312.992C248.387 312.992 251.225 313.547 253.827 314.656C256.43 315.765 258.691 317.312 260.611 319.296C262.553 321.28 264.057 323.605 265.123 326.272C266.19 328.917 266.723 331.776 266.723 334.848C266.723 337.941 266.201 340.821 265.155 343.488C264.11 346.133 262.627 348.459 260.707 350.464C258.787 352.448 256.526 353.995 253.923 355.104C251.321 356.213 248.451 356.768 245.315 356.768C242.137 356.768 239.235 356.213 236.611 355.104C234.009 353.995 231.747 352.448 229.827 350.464C227.929 348.459 226.457 346.133 225.411 343.488C224.387 340.821 223.875 337.941 223.875 334.848ZM279.963 321.152L280.507 321.248V356H272.539V313.76H283.547L302.491 348.448L301.947 348.576V313.76H309.915V356H298.843L279.963 321.152Z" fill="black"/>
<defs>
<clipPath id="clip0_4485_3506">
<rect width="250" height="250" fill="white" transform="translate(75 36)"/>
</clipPath>
</defs>
</svg>
