<svg width="450" height="450" viewBox="0 0 450 450" fill="none" xmlns="http://www.w3.org/2000/svg">
<rect width="450" height="450" fill="white"/>
<g clip-path="url(#clip0_1766_3269)">
<path d="M224.603 204.808C210.936 204.808 201.082 213.721 201.082 227.091C201.082 240.461 212.174 249.375 225.842 249.375C234.099 249.375 241.378 246.106 245.885 240.597L236.414 235.126C233.913 237.862 230.112 239.458 225.841 239.458C219.912 239.458 214.873 236.364 213.003 231.412H247.692C247.964 230.025 248.125 228.589 248.125 227.079C248.125 213.721 238.271 204.808 224.603 204.808ZM212.893 222.758C214.44 217.819 218.674 214.711 224.592 214.711C230.522 214.711 234.756 217.819 236.291 222.758H212.893ZM357.909 204.807C344.242 204.807 334.388 213.721 334.388 227.091C334.388 240.461 345.48 249.375 359.147 249.375C367.404 249.375 374.683 246.106 379.19 240.597L369.719 235.126C367.218 237.862 363.418 239.458 359.147 239.458C353.217 239.458 348.178 236.364 346.309 231.412H380.996C381.268 230.025 381.429 228.589 381.429 227.079C381.429 213.721 371.575 204.807 357.908 204.807M346.209 222.758C347.757 217.819 351.99 214.711 357.908 214.711C363.837 214.711 368.072 217.819 369.606 222.758H346.209ZM297.891 227.091C297.891 234.519 302.744 239.471 310.27 239.471C315.371 239.471 319.196 237.156 321.165 233.38L330.672 238.864C326.735 245.425 319.357 249.375 310.27 249.375C296.591 249.375 286.749 240.461 286.749 227.091C286.749 213.721 296.603 204.808 310.27 204.808C319.357 204.808 326.723 208.757 330.672 215.318L321.165 220.802C319.196 217.026 315.371 214.712 310.27 214.712C302.756 214.712 297.891 219.662 297.891 227.091ZM399.999 191.19V248.137H388.858V191.19H399.999ZM95.7433 185L141.486 264.23H50L95.7433 185ZM210.107 191.19L175.803 250.613L141.498 191.19H154.361L175.803 228.33L197.244 191.19H210.107ZM283.036 206.046V218.041C281.798 217.683 280.486 217.435 279.075 217.435C271.882 217.435 266.695 222.387 266.695 229.815V248.137H255.553V206.046H266.695V217.434C266.695 211.145 274.011 206.046 283.036 206.046Z" fill="black"/>
</g>
<defs>
<clipPath id="clip0_1766_3269">
<rect width="350" height="79.2968" fill="white" transform="translate(50 185)"/>
</clipPath>
</defs>
</svg>
