<svg width="1920" height="1080" viewBox="0 0 1920 1080" fill="none" xmlns="http://www.w3.org/2000/svg">
<rect width="1920" height="1080" fill="white"/>
<rect width="1200" height="1080" fill="#D2E0FB"/>
<g filter="url(#filter0_d_217_8812)">
<path d="M494.759 532.549L509.408 509.648H519.906V532.5H524.203V539.043H519.906V545H511.947V539.043H494.759V532.549ZM512.093 532.5V518.486H511.8L503.06 532.207V532.5H512.093ZM528.346 538.994L541.237 527.666C542.376 526.624 543.263 525.745 543.898 525.029C544.549 524.313 545.053 523.589 545.412 522.856C545.77 522.108 545.957 521.302 545.973 520.439C545.957 519.479 545.721 518.641 545.265 517.925C544.826 517.192 544.215 516.631 543.434 516.24C542.669 515.85 541.79 515.654 540.797 515.654C539.267 515.654 538.047 516.11 537.135 517.021C536.224 517.933 535.768 519.186 535.768 520.781H527.858C527.858 518.438 528.395 516.387 529.469 514.629C530.56 512.871 532.081 511.52 534.035 510.576C536.004 509.632 538.274 509.16 540.846 509.16C543.467 509.16 545.77 509.608 547.755 510.503C549.757 511.382 551.303 512.627 552.394 514.238C553.484 515.85 554.03 517.705 554.03 519.805C554.03 521.204 553.745 522.555 553.175 523.857C552.622 525.16 551.645 526.608 550.246 528.203C548.862 529.782 546.901 531.686 544.362 533.916L539.918 538.018V538.262H554.469V545H528.346V538.994ZM569.934 509.648H584.387C586.991 509.648 589.261 510.161 591.198 511.187C593.135 512.212 594.624 513.644 595.666 515.483C596.708 517.306 597.229 519.414 597.229 521.807C597.229 524.232 596.7 526.364 595.642 528.203C594.584 530.026 593.07 531.434 591.101 532.427C589.131 533.42 586.812 533.916 584.143 533.916H578.234V545H569.934V509.648ZM582.629 527.324C584.549 527.324 586.031 526.828 587.072 525.835C588.114 524.842 588.635 523.499 588.635 521.807C588.635 520.114 588.114 518.787 587.072 517.827C586.031 516.867 584.549 516.387 582.629 516.387H578.234V527.324H582.629ZM634.282 527.324C634.282 531.117 633.55 534.38 632.085 537.114C630.636 539.849 628.634 541.932 626.079 543.364C623.54 544.78 620.675 545.488 617.485 545.488C614.279 545.488 611.406 544.772 608.867 543.34C606.328 541.908 604.326 539.824 602.861 537.09C601.413 534.355 600.688 531.1 600.688 527.324C600.688 523.532 601.413 520.269 602.861 517.534C604.326 514.8 606.328 512.725 608.867 511.309C611.406 509.876 614.279 509.16 617.485 509.16C620.675 509.16 623.54 509.876 626.079 511.309C628.634 512.725 630.636 514.8 632.085 517.534C633.55 520.269 634.282 523.532 634.282 527.324ZM625.786 527.324C625.786 525.013 625.452 523.044 624.785 521.416C624.134 519.788 623.182 518.56 621.929 517.729C620.692 516.899 619.21 516.484 617.485 516.484C615.76 516.484 614.271 516.899 613.017 517.729C611.78 518.56 610.828 519.788 610.161 521.416C609.51 523.044 609.184 525.013 609.184 527.324C609.184 529.635 609.51 531.605 610.161 533.232C610.828 534.86 611.78 536.089 613.017 536.919C614.271 537.749 615.76 538.164 617.485 538.164C619.21 538.164 620.692 537.749 621.929 536.919C623.182 536.089 624.134 534.86 624.785 533.232C625.452 531.605 625.786 529.635 625.786 527.324ZM668.894 545H661.814L647.459 524.248H647.214V545H638.914V509.648H646.091L660.3 530.4H660.593V509.648H668.894V545ZM697.207 521.172C696.784 519.674 695.995 518.519 694.839 517.705C693.684 516.891 692.243 516.484 690.518 516.484C688.793 516.484 687.287 516.908 686.001 517.754C684.732 518.6 683.747 519.837 683.047 521.465C682.364 523.076 682.022 525.013 682.022 527.275C682.022 529.57 682.356 531.532 683.023 533.159C683.69 534.787 684.659 536.032 685.928 536.895C687.198 537.741 688.728 538.164 690.518 538.164C692.845 538.164 694.66 537.603 695.962 536.479C697.264 535.34 697.94 533.802 697.989 531.865H690.86V525.762H705.996V530.4C705.996 533.477 705.337 536.154 704.019 538.433C702.701 540.711 700.861 542.461 698.501 543.682C696.158 544.886 693.48 545.488 690.469 545.488C687.116 545.488 684.162 544.756 681.607 543.291C679.052 541.826 677.066 539.727 675.65 536.992C674.234 534.258 673.526 531.051 673.526 527.373C673.526 523.613 674.258 520.366 675.723 517.632C677.204 514.881 679.214 512.782 681.753 511.333C684.309 509.884 687.165 509.16 690.323 509.16C693.008 509.16 695.458 509.673 697.671 510.698C699.901 511.724 701.716 513.148 703.116 514.971C704.515 516.794 705.362 518.861 705.655 521.172H697.207Z" fill="black"/>
</g>
<path d="M1476.26 291.131H1462.22V277.151H1476.26V291.131ZM1464.85 288.978H1473.67V279.339H1464.85V288.978ZM1484.67 283.646H1489.25V285.901H1484.67V296.668H1482.01V274.383H1484.67V283.646ZM1486.07 304.119H1465.67V294.549H1468.3V301.863H1486.07V304.119ZM1519.3 288.772H1514.38V304.769H1511.72V274.383H1514.38V286.517H1519.3V288.772ZM1494.8 294.788C1497.18 294.777 1499.51 294.663 1501.79 294.446C1504.06 294.23 1506.39 293.877 1508.78 293.387L1509.12 295.677C1506.65 296.178 1504.22 296.531 1501.85 296.736C1499.5 296.941 1497.06 297.044 1494.56 297.044H1492.13V277.391H1494.8V294.788ZM1531.51 282.552C1531.51 284.352 1531.87 286.129 1532.57 287.884C1533.28 289.638 1534.24 291.199 1535.44 292.566C1536.65 293.922 1537.98 294.936 1539.44 295.608L1537.84 297.796C1536.12 296.907 1534.58 295.603 1533.22 293.882C1531.87 292.162 1530.85 290.219 1530.18 288.055C1529.5 290.345 1528.48 292.401 1527.12 294.224C1525.78 296.047 1524.24 297.42 1522.52 298.343L1520.78 296.189C1522.25 295.472 1523.59 294.395 1524.81 292.959C1526.03 291.513 1527 289.878 1527.7 288.055C1528.42 286.22 1528.78 284.386 1528.78 282.552V277.015H1531.51V282.552ZM1546.01 304.837H1543.34V286.961H1536.13V284.773H1543.34V274.383H1546.01V304.837ZM1583 283.611H1587.58V285.867H1583V296.736H1580.34V274.417H1583V283.611ZM1584.4 304.119H1564V294.549H1566.63V301.863H1584.4V304.119ZM1563.18 281.731H1572.03V276.604H1574.7V291.609H1560.55V276.604H1563.18V281.731ZM1572.03 289.422V283.851H1563.18V289.422H1572.03ZM1612.71 286.756H1617.63V289.012H1612.71V304.769H1610.05V274.383H1612.71V286.756ZM1604.85 277.664C1604.85 282.187 1603.72 286.289 1601.45 289.969C1599.18 293.637 1595.67 296.645 1590.91 298.992L1589.4 296.873C1593.31 294.925 1596.33 292.521 1598.48 289.661C1600.62 286.79 1601.84 283.543 1602.15 279.92H1590.8V277.664H1604.85ZM1644.3 304.803H1641.57V297.249H1634.56V295.198H1641.57V274.417H1644.3V304.803ZM1619.01 290.413C1623.04 290.413 1626.68 290.356 1629.91 290.242C1633.15 290.117 1636.25 289.843 1639.21 289.422L1639.38 291.438C1636.61 291.906 1633.56 292.236 1630.22 292.43V303.846H1627.52V292.566C1625.3 292.658 1622.59 292.703 1619.39 292.703L1619.01 290.413ZM1629.02 275.921C1630.52 275.921 1631.84 276.172 1632.99 276.673C1634.15 277.174 1635.06 277.881 1635.71 278.792C1636.36 279.692 1636.68 280.729 1636.68 281.902C1636.68 283.087 1636.36 284.13 1635.71 285.03C1635.07 285.93 1634.17 286.625 1633.01 287.115C1631.84 287.605 1630.52 287.85 1629.02 287.85C1627.52 287.85 1626.19 287.605 1625.03 287.115C1623.86 286.625 1622.96 285.93 1622.31 285.03C1621.66 284.13 1621.33 283.087 1621.33 281.902C1621.33 280.729 1621.66 279.692 1622.31 278.792C1622.96 277.881 1623.86 277.174 1625.03 276.673C1626.19 276.172 1627.52 275.921 1629.02 275.921ZM1629.02 278.006C1628.01 278.006 1627.11 278.171 1626.32 278.501C1625.54 278.832 1624.93 279.293 1624.5 279.886C1624.06 280.478 1623.85 281.15 1623.86 281.902C1623.85 282.666 1624.06 283.344 1624.5 283.936C1624.93 284.517 1625.54 284.967 1626.32 285.286C1627.11 285.605 1628.01 285.765 1629.02 285.765C1630 285.765 1630.88 285.605 1631.66 285.286C1632.44 284.967 1633.05 284.517 1633.48 283.936C1633.93 283.344 1634.15 282.666 1634.15 281.902C1634.15 281.15 1633.93 280.478 1633.48 279.886C1633.05 279.293 1632.44 278.832 1631.66 278.501C1630.88 278.171 1630 278.006 1629.02 278.006ZM1676.92 300.872H1649.1V298.616H1656V290.413C1654.68 289.729 1653.65 288.852 1652.92 287.781C1652.19 286.699 1651.83 285.48 1651.83 284.124C1651.83 282.575 1652.3 281.213 1653.25 280.04C1654.19 278.855 1655.5 277.938 1657.18 277.288C1658.86 276.639 1660.78 276.308 1662.94 276.297C1665.09 276.308 1667.01 276.639 1668.68 277.288C1670.37 277.938 1671.68 278.855 1672.63 280.04C1673.57 281.213 1674.05 282.575 1674.05 284.124C1674.05 285.457 1673.69 286.659 1672.99 287.73C1672.28 288.79 1671.29 289.661 1670.01 290.345V298.616H1676.92V300.872ZM1662.94 278.519C1661.29 278.507 1659.82 278.735 1658.53 279.202C1657.24 279.669 1656.23 280.33 1655.5 281.185C1654.79 282.028 1654.43 283.007 1654.43 284.124C1654.43 285.241 1654.79 286.232 1655.5 287.098C1656.23 287.952 1657.24 288.619 1658.53 289.097C1659.82 289.564 1661.29 289.798 1662.94 289.798C1664.58 289.798 1666.04 289.559 1667.33 289.08C1668.62 288.602 1669.63 287.935 1670.35 287.081C1671.08 286.226 1671.45 285.241 1671.45 284.124C1671.45 283.007 1671.08 282.028 1670.35 281.185C1669.63 280.33 1668.62 279.669 1667.33 279.202C1666.04 278.735 1664.58 278.507 1662.94 278.519ZM1667.31 298.616V291.387C1665.96 291.74 1664.5 291.917 1662.94 291.917C1661.37 291.917 1659.93 291.746 1658.63 291.404V298.616H1667.31ZM1683.73 295.027H1680.86L1680.62 277.254H1683.97L1683.73 295.027ZM1682.29 302.205C1681.89 302.205 1681.52 302.108 1681.18 301.915C1680.85 301.709 1680.58 301.436 1680.38 301.094C1680.18 300.752 1680.09 300.382 1680.1 299.983C1680.09 299.596 1680.18 299.237 1680.38 298.907C1680.58 298.565 1680.85 298.297 1681.18 298.104C1681.52 297.898 1681.89 297.796 1682.29 297.796C1682.68 297.796 1683.04 297.898 1683.37 298.104C1683.71 298.297 1683.98 298.565 1684.17 298.907C1684.38 299.237 1684.48 299.596 1684.48 299.983C1684.48 300.382 1684.38 300.752 1684.17 301.094C1683.98 301.436 1683.71 301.709 1683.37 301.915C1683.04 302.108 1682.68 302.205 1682.29 302.205ZM1401.05 336.741C1402.42 336.753 1403.64 337.134 1404.72 337.886C1405.82 338.638 1406.7 339.709 1407.37 341.099C1408.04 342.489 1408.45 344.124 1408.59 346.004H1415.4V334.383H1418.07V364.837H1415.4V348.226H1408.62C1408.52 350.185 1408.14 351.894 1407.47 353.353C1406.81 354.811 1405.93 355.933 1404.81 356.719C1403.7 357.505 1402.45 357.898 1401.05 357.898C1399.57 357.898 1398.25 357.465 1397.08 356.6C1395.93 355.734 1395.03 354.503 1394.38 352.908C1393.75 351.313 1393.43 349.456 1393.43 347.337C1393.43 345.218 1393.75 343.361 1394.38 341.766C1395.03 340.171 1395.93 338.94 1397.08 338.074C1398.24 337.197 1399.56 336.753 1401.05 336.741ZM1401.05 339.134C1400.06 339.145 1399.17 339.493 1398.4 340.176C1397.64 340.848 1397.04 341.806 1396.62 343.047C1396.2 344.278 1395.99 345.708 1395.99 347.337C1395.99 348.966 1396.2 350.402 1396.62 351.644C1397.04 352.874 1397.64 353.825 1398.4 354.498C1399.17 355.17 1400.06 355.506 1401.05 355.506C1402.03 355.506 1402.9 355.17 1403.66 354.498C1404.44 353.825 1405.04 352.874 1405.46 351.644C1405.89 350.402 1406.11 348.966 1406.11 347.337C1406.11 345.708 1405.89 344.278 1405.46 343.047C1405.04 341.806 1404.44 340.848 1403.68 340.176C1402.92 339.493 1402.04 339.145 1401.05 339.134ZM1448.87 354.617H1427.1V352.532H1436.67V349.593H1439.34V352.532H1448.87V354.617ZM1437.94 356.019C1440.69 356.041 1442.82 356.429 1444.33 357.181C1445.83 357.933 1446.58 359.004 1446.58 360.394C1446.58 361.795 1445.83 362.866 1444.33 363.606C1442.82 364.358 1440.69 364.746 1437.94 364.769C1435.19 364.746 1433.07 364.358 1431.56 363.606C1430.06 362.866 1429.31 361.795 1429.32 360.394C1429.31 359.004 1430.06 357.933 1431.56 357.181C1433.07 356.429 1435.19 356.041 1437.94 356.019ZM1437.94 357.967C1436.09 357.99 1434.66 358.212 1433.65 358.633C1432.63 359.043 1432.13 359.63 1432.13 360.394C1432.13 361.18 1432.63 361.778 1433.65 362.188C1434.67 362.61 1436.1 362.809 1437.94 362.786C1439.77 362.809 1441.2 362.61 1442.21 362.188C1443.23 361.778 1443.75 361.18 1443.75 360.394C1443.75 359.63 1443.24 359.043 1442.23 358.633C1441.21 358.212 1439.78 357.99 1437.94 357.967ZM1431.31 338.074H1426.32V346.226C1428.32 346.158 1430.12 345.936 1431.72 345.56L1431.99 347.747C1430.05 348.157 1428.01 348.362 1425.87 348.362H1424.98H1423.68V335.921H1431.31V338.074ZM1441.49 338.074H1435.68V346.243C1437.1 346.22 1438.35 346.163 1439.41 346.072C1440.48 345.97 1441.57 345.787 1442.69 345.525L1442.93 347.713C1441.79 347.975 1440.68 348.152 1439.59 348.243C1438.52 348.322 1437.25 348.362 1435.78 348.362H1434.52H1433.01V335.921H1441.49V338.074ZM1448.29 350.584H1445.66V342.859H1440.06V340.74H1445.66V334.383H1448.29V350.584ZM1478.79 364.769H1476.23V334.383H1478.79V364.769ZM1472.4 363.23H1469.83V349.046H1463.39C1461.45 352.76 1458.45 355.813 1454.38 358.206L1452.81 356.258C1456.06 354.344 1458.54 352.054 1460.26 349.388C1462 346.71 1462.99 343.748 1463.24 340.501H1454.11V338.279H1465.9C1465.88 341.378 1465.37 344.238 1464.38 346.858H1469.83V335.203H1472.4V363.23ZM1497.57 337.801H1512.61V334.896H1515.27V344.876H1494.9V334.896H1497.57V337.801ZM1512.61 342.791V339.852H1497.57V342.791H1512.61ZM1518.9 349.627H1506.35V352.601H1515.34V359.334H1497.3V362.308H1516.27V364.427H1494.63V357.352H1512.71V354.651H1494.56V352.601H1503.69V349.627H1491.21V347.405H1518.9V349.627ZM1546.32 364.837H1543.65V348.328H1537.74V346.072H1543.65V334.383H1546.32V364.837ZM1535.89 347.85H1524.99V355.232C1527.85 355.232 1530.29 355.17 1532.3 355.044C1534.32 354.908 1536.37 354.64 1538.46 354.241L1538.66 356.497C1536.51 356.884 1534.38 357.146 1532.29 357.283C1530.2 357.42 1527.65 357.5 1524.65 357.522H1522.32V345.628H1533.29V339.441H1522.22V337.22H1535.89V347.85ZM1575.65 351.233H1554.66V337.22H1575.34V339.441H1557.33V349.012H1575.65V351.233ZM1578.93 360.633H1551.11V358.377H1578.93V360.633ZM1606.15 364.837H1603.48V334.383H1606.15V364.837ZM1596.92 348.021H1585.57V355.198C1588.29 355.198 1590.82 355.118 1593.16 354.959C1595.51 354.799 1597.97 354.515 1600.54 354.104L1600.81 356.36C1598.18 356.782 1595.66 357.072 1593.26 357.232C1590.86 357.38 1588.22 357.454 1585.37 357.454H1582.84V345.833H1594.22V339.441H1582.77V337.22H1596.92V348.021ZM1626.39 339.749H1633.5V334.417H1636.2V356.6H1633.5V348.499H1626.39V351.233H1612.44V337.049H1626.39V339.749ZM1615.11 349.08H1623.76V339.271H1615.11V349.08ZM1636.88 364.119H1616.54V354.617H1619.24V361.863H1636.88V364.119ZM1633.5 346.277V342.005H1626.39V346.277H1633.5ZM1667.11 344.534H1660.99V347.627C1664.22 347.479 1667.03 347.257 1669.44 346.961L1669.57 348.841C1664.34 349.638 1657.81 350.037 1649.99 350.037L1649.61 347.884C1653 347.861 1655.89 347.81 1658.29 347.73V344.534H1652.41V335.716H1666.77V337.801H1655.18V342.415H1667.11V344.534ZM1674.53 350.789H1671.86V334.417H1674.53V350.789ZM1674.53 359.197H1657.1V362.239H1675.62V364.427H1654.43V357.146H1671.9V354.31H1654.36V352.156H1674.53V359.197ZM1703.45 346.927H1708.07V349.183H1703.45V364.769H1700.75V334.383H1703.45V346.927ZM1688.62 337.698C1688.6 341.663 1688.04 345.337 1686.94 348.721C1685.86 352.094 1684.03 355.153 1681.44 357.898L1679.29 356.36C1681.49 354.116 1683.12 351.626 1684.19 348.892C1685.26 346.146 1685.89 343.167 1686.07 339.954H1680.24V337.698H1688.62ZM1696.96 337.698C1696.94 342.028 1696.45 346.061 1695.49 349.798C1694.53 353.523 1692.77 356.896 1690.19 359.915L1688 358.411C1690.2 355.927 1691.79 353.125 1692.75 350.003C1693.73 346.881 1694.29 343.532 1694.43 339.954H1689.58V337.698H1696.96ZM1737.16 360.872H1709.34V358.616H1716.24V350.413C1714.92 349.729 1713.9 348.852 1713.17 347.781C1712.44 346.699 1712.07 345.48 1712.07 344.124C1712.07 342.575 1712.55 341.213 1713.49 340.04C1714.44 338.855 1715.75 337.938 1717.42 337.288C1719.11 336.639 1721.03 336.308 1723.18 336.297C1725.33 336.308 1727.25 336.639 1728.92 337.288C1730.61 337.938 1731.93 338.855 1732.87 340.04C1733.82 341.213 1734.29 342.575 1734.29 344.124C1734.29 345.457 1733.94 346.659 1733.23 347.73C1732.52 348.79 1731.53 349.661 1730.26 350.345V358.616H1737.16V360.872ZM1723.18 338.519C1721.53 338.507 1720.06 338.735 1718.77 339.202C1717.48 339.669 1716.48 340.33 1715.75 341.185C1715.03 342.028 1714.67 343.007 1714.67 344.124C1714.67 345.241 1715.03 346.232 1715.75 347.098C1716.48 347.952 1717.48 348.619 1718.77 349.097C1720.06 349.564 1721.53 349.798 1723.18 349.798C1724.82 349.798 1726.29 349.559 1727.57 349.08C1728.86 348.602 1729.87 347.935 1730.6 347.081C1731.33 346.226 1731.69 345.241 1731.69 344.124C1731.69 343.007 1731.33 342.028 1730.6 341.185C1729.87 340.33 1728.86 339.669 1727.57 339.202C1726.29 338.735 1724.82 338.507 1723.18 338.519ZM1727.56 358.616V351.387C1726.2 351.74 1724.74 351.917 1723.18 351.917C1721.61 351.917 1720.17 351.746 1718.87 351.404V358.616H1727.56ZM1744.14 354.856C1744.15 353.387 1744.3 352.196 1744.59 351.285C1744.88 350.373 1745.29 349.638 1745.82 349.08C1746.34 348.522 1747.05 347.975 1747.94 347.439C1748.69 346.984 1749.29 346.408 1749.75 345.713C1750.2 345.007 1750.43 344.204 1750.43 343.304C1750.43 342.552 1750.25 341.891 1749.88 341.321C1749.53 340.74 1749.04 340.296 1748.41 339.988C1747.8 339.669 1747.11 339.51 1746.36 339.51C1745.68 339.51 1745.04 339.652 1744.43 339.937C1743.84 340.21 1743.34 340.649 1742.95 341.253C1742.56 341.845 1742.33 342.586 1742.26 343.475H1739.15C1739.21 342.13 1739.56 340.962 1740.21 339.971C1740.86 338.98 1741.72 338.222 1742.79 337.698C1743.86 337.174 1745.05 336.912 1746.36 336.912C1747.76 336.912 1749 337.197 1750.07 337.767C1751.14 338.325 1751.97 339.1 1752.55 340.091C1753.14 341.082 1753.44 342.199 1753.44 343.44C1753.44 345.958 1752.31 347.907 1750.05 349.285C1749.33 349.729 1748.75 350.191 1748.33 350.669C1747.92 351.148 1747.61 351.718 1747.41 352.378C1747.21 353.039 1747.1 353.865 1747.08 354.856V355.027H1744.14V354.856ZM1745.71 362.205C1745.31 362.205 1744.94 362.108 1744.6 361.915C1744.27 361.709 1744 361.436 1743.8 361.094C1743.61 360.752 1743.51 360.382 1743.53 359.983C1743.51 359.596 1743.61 359.237 1743.8 358.907C1744 358.565 1744.27 358.297 1744.6 358.104C1744.94 357.898 1745.31 357.796 1745.71 357.796C1746.1 357.796 1746.46 357.898 1746.79 358.104C1747.13 358.297 1747.4 358.565 1747.59 358.907C1747.8 359.237 1747.9 359.596 1747.9 359.983C1747.9 360.382 1747.8 360.752 1747.59 361.094C1747.4 361.436 1747.13 361.709 1746.79 361.915C1746.46 362.108 1746.1 362.205 1745.71 362.205Z" fill="#1F2021"/>
<mask id="path-5-inside-1_217_8812" fill="white">
<path d="M1341 710H1771V760H1341V710Z"/>
</mask>
<path d="M1341 710H1771V760H1341V710Z" fill="white"/>
<path d="M1771 759H1341V761H1771V759Z" fill="#D7D8E0" mask="url(#path-5-inside-1_217_8812)"/>
<path d="M1359.8 746.026H1357.89V739.557H1345.2V737.945H1359.8V746.026ZM1359.8 736.847H1357.89V724.298H1359.8V736.847ZM1345.17 733.478C1346.93 733.469 1348.65 733.388 1350.34 733.233C1352.02 733.079 1353.72 732.826 1355.43 732.477L1355.72 734.088C1353.87 734.438 1352.08 734.694 1350.33 734.857C1348.58 735.012 1346.8 735.089 1345 735.089H1343.25V725.519H1345.17V733.478ZM1366.16 738.8C1367.47 738.784 1368.69 738.727 1369.81 738.629C1370.94 738.523 1372.12 738.344 1373.34 738.092L1373.61 739.752C1372.26 740.037 1370.96 740.232 1369.72 740.338C1368.48 740.436 1367.12 740.484 1365.63 740.484H1364.26V726.642H1366.16V738.8ZM1381.76 745.978H1379.93V724.273H1381.76V745.978ZM1377.13 744.879H1375.29V733.185H1370.34V731.598H1375.29V724.811H1377.13V744.879ZM1402.41 736.7H1400.51V724.298H1402.41V736.7ZM1402.41 745.685H1388.3V737.872H1402.41V745.685ZM1390.18 744.122H1400.53V739.435H1390.18V744.122ZM1390.69 725.445C1391.78 725.445 1392.76 725.661 1393.62 726.092C1394.49 726.515 1395.16 727.114 1395.65 727.887C1396.14 728.652 1396.38 729.531 1396.38 730.523C1396.38 731.5 1396.14 732.375 1395.65 733.148C1395.16 733.913 1394.49 734.511 1393.62 734.942C1392.76 735.366 1391.78 735.577 1390.69 735.577C1389.6 735.577 1388.63 735.366 1387.76 734.942C1386.9 734.511 1386.23 733.913 1385.74 733.148C1385.25 732.375 1385 731.5 1385 730.523C1385 729.531 1385.25 728.652 1385.74 727.887C1386.23 727.114 1386.9 726.515 1387.76 726.092C1388.63 725.661 1389.6 725.445 1390.69 725.445ZM1390.69 727.081C1389.96 727.073 1389.3 727.215 1388.72 727.508C1388.14 727.801 1387.69 728.212 1387.36 728.741C1387.03 729.262 1386.88 729.856 1386.88 730.523C1386.88 731.183 1387.03 731.773 1387.36 732.293C1387.69 732.806 1388.14 733.209 1388.72 733.502C1389.3 733.795 1389.96 733.941 1390.69 733.941C1391.42 733.941 1392.07 733.795 1392.65 733.502C1393.22 733.209 1393.68 732.806 1394 732.293C1394.33 731.773 1394.5 731.183 1394.5 730.523C1394.5 729.856 1394.33 729.262 1394 728.741C1393.68 728.212 1393.22 727.801 1392.65 727.508C1392.07 727.215 1391.42 727.073 1390.69 727.081ZM1415.69 724.664C1417.3 724.664 1418.68 724.811 1419.82 725.104C1420.97 725.388 1421.85 725.812 1422.45 726.373C1423.05 726.926 1423.35 727.602 1423.35 728.399C1423.35 729.62 1422.68 730.556 1421.35 731.207C1420.02 731.858 1418.13 732.192 1415.69 732.208C1414.07 732.2 1412.69 732.049 1411.54 731.756C1410.39 731.463 1409.51 731.036 1408.9 730.475C1408.3 729.905 1408 729.213 1408 728.399C1408 727.602 1408.3 726.926 1408.9 726.373C1409.51 725.812 1410.39 725.388 1411.54 725.104C1412.69 724.811 1414.07 724.664 1415.69 724.664ZM1415.69 726.104C1414.49 726.104 1413.46 726.198 1412.61 726.385C1411.76 726.564 1411.1 726.829 1410.66 727.179C1410.21 727.521 1409.99 727.927 1410 728.399C1409.99 729.148 1410.48 729.726 1411.47 730.133C1412.47 730.54 1413.87 730.743 1415.69 730.743C1417.49 730.743 1418.9 730.54 1419.9 730.133C1420.9 729.726 1421.4 729.148 1421.4 728.399C1421.4 727.927 1421.17 727.521 1420.72 727.179C1420.26 726.837 1419.6 726.572 1418.75 726.385C1417.9 726.198 1416.87 726.104 1415.69 726.104ZM1425.57 735.235H1405.8V733.673H1425.57V735.235ZM1423.03 741.974H1410.14V744.22H1423.69V745.733H1408.24V740.558H1421.15V738.58H1408.19V737.115H1423.03V741.974ZM1451 735.919H1449.09V724.273H1451V735.919ZM1438.84 739.654H1449.09V737.018H1451V745.685H1436.94V737.018H1438.84V739.654ZM1449.09 744.122V741.192H1438.84V744.122H1449.09ZM1439.28 725.348C1440.37 725.34 1441.35 725.543 1442.21 725.958C1443.07 726.373 1443.75 726.963 1444.24 727.728C1444.72 728.485 1444.97 729.352 1444.97 730.328C1444.97 731.297 1444.72 732.159 1444.24 732.916C1443.75 733.673 1443.07 734.263 1442.21 734.686C1441.35 735.101 1440.37 735.309 1439.28 735.309C1438.19 735.309 1437.21 735.101 1436.35 734.686C1435.49 734.263 1434.81 733.673 1434.32 732.916C1433.84 732.159 1433.59 731.297 1433.59 730.328C1433.59 729.352 1433.84 728.485 1434.32 727.728C1434.81 726.963 1435.49 726.373 1436.35 725.958C1437.21 725.543 1438.19 725.34 1439.28 725.348ZM1439.28 726.959C1438.55 726.951 1437.89 727.093 1437.3 727.386C1436.72 727.671 1436.27 728.07 1435.95 728.583C1435.62 729.095 1435.46 729.677 1435.47 730.328C1435.46 730.979 1435.62 731.565 1435.95 732.086C1436.27 732.599 1436.72 733.001 1437.3 733.294C1437.89 733.579 1438.55 733.722 1439.28 733.722C1440 733.722 1440.66 733.579 1441.23 733.294C1441.81 733.001 1442.26 732.599 1442.59 732.086C1442.92 731.565 1443.09 730.979 1443.09 730.328C1443.09 729.677 1442.92 729.095 1442.59 728.583C1442.26 728.07 1441.81 727.671 1441.23 727.386C1440.66 727.093 1440 726.951 1439.28 726.959ZM1464.69 731.695H1457.22V735.064C1459.42 735.064 1461.13 735.032 1462.33 734.967C1463.54 734.902 1464.75 734.755 1465.96 734.527L1466.15 736.114C1464.86 736.326 1463.57 736.464 1462.27 736.529C1460.99 736.594 1459.18 736.627 1456.85 736.627H1455.31V730.23H1462.78V727.154H1455.26V725.616H1464.69V731.695ZM1472.38 737.628H1470.45V733.6H1466.13V732.013H1470.45V729.083H1466.13V727.521H1470.45V724.298H1472.38V737.628ZM1472.38 746.026H1470.45V740.362H1457.75V738.8H1472.38V746.026ZM1486.53 729.596H1475.64V728.033H1480.16V724.933H1482.06V728.033H1486.53V729.596ZM1481.09 731.061C1481.99 731.061 1482.8 731.272 1483.5 731.695C1484.22 732.11 1484.78 732.692 1485.18 733.441C1485.58 734.19 1485.79 735.04 1485.8 735.992C1485.79 736.952 1485.58 737.811 1485.18 738.568C1484.78 739.317 1484.22 739.907 1483.5 740.338C1482.8 740.761 1481.99 740.973 1481.09 740.973C1480.19 740.973 1479.39 740.761 1478.68 740.338C1477.97 739.907 1477.42 739.312 1477.02 738.556C1476.62 737.799 1476.42 736.944 1476.42 735.992C1476.42 735.048 1476.62 734.202 1477.02 733.453C1477.42 732.696 1477.97 732.11 1478.68 731.695C1479.39 731.272 1480.19 731.061 1481.09 731.061ZM1481.09 732.672C1480.53 732.68 1480.02 732.831 1479.56 733.124C1479.11 733.408 1478.76 733.803 1478.51 734.308C1478.26 734.804 1478.13 735.366 1478.13 735.992C1478.13 736.627 1478.26 737.197 1478.51 737.701C1478.77 738.206 1479.13 738.6 1479.57 738.885C1480.02 739.162 1480.53 739.296 1481.09 739.288C1481.66 739.296 1482.17 739.162 1482.63 738.885C1483.08 738.6 1483.44 738.206 1483.7 737.701C1483.96 737.197 1484.09 736.627 1484.09 735.992C1484.09 735.366 1483.96 734.804 1483.7 734.308C1483.44 733.803 1483.08 733.408 1482.63 733.124C1482.17 732.831 1481.66 732.68 1481.09 732.672ZM1494.17 745.978H1492.34V735.016H1489.46V744.903H1487.65V724.811H1489.46V733.429H1492.34V724.273H1494.17V745.978ZM1507.96 727.35C1507.95 728.277 1508.31 729.164 1509.05 730.011C1509.78 730.849 1510.74 731.557 1511.92 732.135C1513.1 732.713 1514.32 733.095 1515.6 733.282L1514.89 734.796C1513.75 734.601 1512.64 734.275 1511.57 733.819C1510.52 733.364 1509.58 732.794 1508.75 732.11C1507.93 731.419 1507.31 730.65 1506.89 729.803C1506.46 730.65 1505.84 731.415 1505.02 732.098C1504.2 732.782 1503.26 733.355 1502.2 733.819C1501.15 734.275 1500.06 734.601 1498.93 734.796L1498.17 733.282C1499.44 733.095 1500.66 732.713 1501.84 732.135C1503.02 731.557 1503.98 730.849 1504.71 730.011C1505.45 729.164 1505.81 728.277 1505.81 727.35V727.203H1498.85V725.641H1514.89V727.203H1507.96V727.35ZM1516.77 738.238H1507.79V745.978H1505.91V738.238H1497V736.651H1516.77V738.238ZM1524.75 730.45C1524.75 731.606 1524.93 732.761 1525.3 733.917C1525.67 735.073 1526.19 736.126 1526.87 737.079C1527.57 738.031 1528.38 738.784 1529.32 739.337L1528.22 740.826C1527.2 740.208 1526.32 739.357 1525.57 738.275C1524.83 737.184 1524.26 735.96 1523.86 734.601C1523.45 736.065 1522.85 737.384 1522.06 738.556C1521.28 739.728 1520.35 740.639 1519.28 741.29L1518.06 739.85C1519.04 739.28 1519.89 738.503 1520.62 737.518C1521.36 736.525 1521.92 735.423 1522.31 734.21C1522.7 732.989 1522.89 731.76 1522.89 730.523V726.324H1524.75V730.45ZM1536.91 745.978H1535.05V724.273H1536.91V745.978ZM1532.42 744.879H1530.61V733.697H1526.92V732.062H1530.61V724.737H1532.42V744.879ZM1559.48 743.194H1539.61V741.583H1544.54V735.724C1543.6 735.235 1542.87 734.609 1542.35 733.844C1541.82 733.071 1541.56 732.2 1541.56 731.231C1541.56 730.125 1541.9 729.152 1542.58 728.314C1543.25 727.468 1544.19 726.812 1545.39 726.349C1546.59 725.885 1547.96 725.649 1549.5 725.641C1551.04 725.649 1552.4 725.885 1553.6 726.349C1554.81 726.812 1555.74 727.468 1556.42 728.314C1557.1 729.152 1557.43 730.125 1557.43 731.231C1557.43 732.184 1557.18 733.042 1556.68 733.807C1556.17 734.564 1555.46 735.187 1554.55 735.675V741.583H1559.48V743.194ZM1549.5 727.228C1548.32 727.219 1547.27 727.382 1546.35 727.716C1545.43 728.049 1544.71 728.521 1544.19 729.132C1543.68 729.734 1543.42 730.434 1543.42 731.231C1543.42 732.029 1543.68 732.737 1544.19 733.355C1544.71 733.966 1545.43 734.442 1546.35 734.784C1547.27 735.117 1548.32 735.284 1549.5 735.284C1550.67 735.284 1551.72 735.113 1552.64 734.771C1553.56 734.43 1554.28 733.954 1554.8 733.343C1555.32 732.733 1555.58 732.029 1555.58 731.231C1555.58 730.434 1555.32 729.734 1554.8 729.132C1554.28 728.521 1553.56 728.049 1552.64 727.716C1551.72 727.382 1550.67 727.219 1549.5 727.228ZM1552.62 741.583V736.419C1551.66 736.672 1550.61 736.798 1549.5 736.798C1548.38 736.798 1547.35 736.676 1546.42 736.432V741.583H1552.62Z" fill="#98989E"/>
<path d="M1721.45 744.244C1720.14 744.244 1719.03 743.89 1718.1 743.182C1717.18 742.474 1716.48 741.441 1715.99 740.082C1715.51 738.722 1715.27 737.083 1715.27 735.162C1715.27 733.266 1715.51 731.638 1716 730.279C1716.49 728.912 1717.2 727.87 1718.13 727.154C1719.05 726.438 1720.16 726.08 1721.45 726.08C1722.73 726.08 1723.84 726.438 1724.77 727.154C1725.69 727.87 1726.4 728.912 1726.89 730.279C1727.38 731.638 1727.62 733.266 1727.62 735.162C1727.62 737.083 1727.38 738.722 1726.89 740.082C1726.41 741.441 1725.71 742.474 1724.78 743.182C1723.85 743.89 1722.74 744.244 1721.45 744.244ZM1721.45 742.291C1722.29 742.291 1723.02 742.014 1723.62 741.461C1724.22 740.908 1724.68 740.098 1725 739.032C1725.32 737.966 1725.47 736.676 1725.47 735.162C1725.47 733.648 1725.32 732.354 1725 731.28C1724.68 730.206 1724.22 729.388 1723.62 728.827C1723.02 728.265 1722.29 727.984 1721.45 727.984C1720.6 727.984 1719.87 728.265 1719.26 728.827C1718.66 729.388 1718.2 730.206 1717.87 731.28C1717.55 732.354 1717.39 733.648 1717.39 735.162C1717.39 736.676 1717.55 737.966 1717.87 739.032C1718.19 740.098 1718.65 740.908 1719.25 741.461C1719.86 742.014 1720.59 742.291 1721.45 742.291ZM1730.86 746.661H1728.96L1734.65 725.494H1736.58L1730.86 746.661ZM1744.55 744H1742.33V728.619H1742.23L1737.94 731.476V729.254L1742.33 726.324H1744.55V744ZM1754.75 744.244C1753.45 744.244 1752.33 743.89 1751.41 743.182C1750.49 742.474 1749.78 741.441 1749.29 740.082C1748.81 738.722 1748.57 737.083 1748.57 735.162C1748.57 733.266 1748.82 731.638 1749.31 730.279C1749.79 728.912 1750.5 727.87 1751.43 727.154C1752.36 726.438 1753.46 726.08 1754.75 726.08C1756.04 726.08 1757.14 726.438 1758.07 727.154C1759 727.87 1759.71 728.912 1760.19 730.279C1760.68 731.638 1760.93 733.266 1760.93 735.162C1760.93 737.083 1760.68 738.722 1760.19 740.082C1759.71 741.441 1759.01 742.474 1758.08 743.182C1757.16 743.89 1756.04 744.244 1754.75 744.244ZM1754.75 742.291C1755.6 742.291 1756.32 742.014 1756.92 741.461C1757.53 740.908 1757.99 740.098 1758.3 739.032C1758.62 737.966 1758.78 736.676 1758.78 735.162C1758.78 733.648 1758.62 732.354 1758.3 731.28C1757.99 730.206 1757.53 729.388 1756.92 728.827C1756.32 728.265 1755.6 727.984 1754.75 727.984C1753.9 727.984 1753.18 728.265 1752.57 728.827C1751.96 729.388 1751.5 730.206 1751.17 731.28C1750.86 732.354 1750.7 733.648 1750.7 735.162C1750.7 736.676 1750.86 737.966 1751.17 739.032C1751.49 740.098 1751.95 740.908 1752.55 741.461C1753.16 742.014 1753.9 742.291 1754.75 742.291Z" fill="#98989E"/>
<path d="M1771.5 995.299C1772.54 995.299 1773.48 995.478 1774.29 995.836C1775.11 996.194 1775.75 996.699 1776.21 997.35C1776.66 997.993 1776.89 998.741 1776.89 999.596C1776.89 1000.33 1776.71 1000.99 1776.34 1001.59C1775.98 1002.18 1775.47 1002.67 1774.8 1003.05C1774.14 1003.43 1773.38 1003.68 1772.52 1003.78V1005.91C1774.73 1005.8 1776.72 1005.61 1778.5 1005.33L1778.65 1006.77C1776.61 1007.14 1774.49 1007.38 1772.28 1007.49C1770.07 1007.6 1767.68 1007.65 1765.1 1007.65L1764.85 1006.07H1765.98C1767.42 1006.07 1768.96 1006.04 1770.59 1005.99V1003.79C1769.7 1003.7 1768.92 1003.46 1768.24 1003.09C1767.56 1002.7 1767.04 1002.22 1766.66 1001.62C1766.29 1001.02 1766.12 1000.34 1766.12 999.596C1766.12 998.749 1766.34 998.001 1766.78 997.35C1767.24 996.699 1767.87 996.194 1768.69 995.836C1769.51 995.478 1770.45 995.299 1771.5 995.299ZM1771.5 996.788C1770.8 996.788 1770.18 996.906 1769.64 997.142C1769.09 997.378 1768.67 997.708 1768.37 998.131C1768.07 998.554 1767.92 999.042 1767.93 999.596C1767.92 1000.13 1768.07 1000.61 1768.37 1001.04C1768.67 1001.45 1769.09 1001.78 1769.64 1002.01C1770.18 1002.25 1770.8 1002.37 1771.5 1002.38C1772.19 1002.37 1772.81 1002.25 1773.35 1002.01C1773.9 1001.78 1774.32 1001.45 1774.62 1001.04C1774.92 1000.61 1775.08 1000.13 1775.08 999.596C1775.08 999.042 1774.92 998.554 1774.62 998.131C1774.32 997.7 1773.9 997.37 1773.35 997.142C1772.81 996.906 1772.19 996.788 1771.5 996.788ZM1781.82 1001.65H1785.07V1003.28H1781.82V1010.9H1779.89V994.298H1781.82V1001.65ZM1782.6 1015.49H1768.03V1009.46H1769.96V1013.88H1782.6V1015.49ZM1812.03 1013.29H1792.16V1011.68H1797.75V1007.55H1794.65V1000.87H1807.64V997.472H1794.6V995.885H1809.52V1002.45H1796.55V1005.97H1810.03V1007.55H1806.64V1011.68H1812.03V1013.29ZM1804.76 1011.68V1007.55H1799.63V1011.68H1804.76Z" fill="white"/>
<rect x="1760" y="993" width="100" height="50" rx="25" fill="#508BFF"/>
<path d="M1792.5 1008.3C1793.54 1008.3 1794.48 1008.48 1795.29 1008.84C1796.11 1009.19 1796.75 1009.7 1797.21 1010.35C1797.66 1010.99 1797.89 1011.74 1797.89 1012.6C1797.89 1013.33 1797.71 1013.99 1797.34 1014.59C1796.98 1015.18 1796.47 1015.67 1795.8 1016.05C1795.14 1016.43 1794.38 1016.68 1793.52 1016.78V1018.91C1795.73 1018.8 1797.72 1018.61 1799.5 1018.33L1799.65 1019.77C1797.61 1020.14 1795.49 1020.38 1793.28 1020.49C1791.07 1020.6 1788.68 1020.65 1786.1 1020.65L1785.85 1019.07H1786.98C1788.42 1019.07 1789.96 1019.04 1791.59 1018.99V1016.79C1790.7 1016.7 1789.92 1016.46 1789.24 1016.09C1788.56 1015.7 1788.04 1015.22 1787.66 1014.62C1787.29 1014.02 1787.12 1013.34 1787.12 1012.6C1787.12 1011.75 1787.34 1011 1787.78 1010.35C1788.24 1009.7 1788.87 1009.19 1789.69 1008.84C1790.51 1008.48 1791.45 1008.3 1792.5 1008.3ZM1792.5 1009.79C1791.8 1009.79 1791.18 1009.91 1790.64 1010.14C1790.09 1010.38 1789.67 1010.71 1789.37 1011.13C1789.07 1011.55 1788.92 1012.04 1788.93 1012.6C1788.92 1013.13 1789.07 1013.61 1789.37 1014.04C1789.67 1014.45 1790.09 1014.78 1790.64 1015.01C1791.18 1015.25 1791.8 1015.37 1792.5 1015.38C1793.19 1015.37 1793.81 1015.25 1794.35 1015.01C1794.9 1014.78 1795.32 1014.45 1795.62 1014.04C1795.92 1013.61 1796.08 1013.13 1796.08 1012.6C1796.08 1012.04 1795.92 1011.55 1795.62 1011.13C1795.32 1010.7 1794.9 1010.37 1794.35 1010.14C1793.81 1009.91 1793.19 1009.79 1792.5 1009.79ZM1802.82 1014.65H1806.07V1016.28H1802.82V1023.9H1800.89V1007.3H1802.82V1014.65ZM1803.6 1028.49H1789.03V1022.46H1790.96V1026.88H1803.6V1028.49ZM1833.03 1026.29H1813.16V1024.68H1818.75V1020.55H1815.65V1013.87H1828.64V1010.47H1815.6V1008.88H1830.52V1015.45H1817.55V1018.97H1831.03V1020.55H1827.64V1024.68H1833.03V1026.29ZM1825.76 1024.68V1020.55H1820.63V1024.68H1825.76Z" fill="white"/>
<rect x="1523" y="420" width="100" height="100" rx="50" fill="#D2E0FB"/>
<path d="M1549.67 496.667V493.333C1549.67 487.145 1552.13 481.21 1556.5 476.834C1560.88 472.458 1566.81 470 1573 470M1573 470C1579.19 470 1585.12 472.458 1589.5 476.834C1593.88 481.21 1596.33 487.145 1596.33 493.333V496.667M1573 470C1576.54 470 1579.93 468.595 1582.43 466.095C1584.93 463.594 1586.33 460.203 1586.33 456.667C1586.33 453.13 1584.93 449.739 1582.43 447.239C1579.93 444.738 1576.54 443.333 1573 443.333C1569.47 443.333 1566.07 444.738 1563.57 447.239C1561.07 449.739 1559.67 453.13 1559.67 456.667C1559.67 460.203 1561.07 463.594 1563.57 466.095C1566.07 468.595 1569.47 470 1573 470Z" stroke="#5C5D61" stroke-width="5" stroke-linecap="round" stroke-linejoin="round"/>
<rect x="1533" y="533" width="80" height="30" rx="10" fill="#9ABDFF"/>
<path d="M1548.35 541.032H1549.44V543.624C1549.44 546.824 1547.71 549.944 1545.42 551.16L1544.6 550.104C1546.7 549.048 1548.35 546.264 1548.35 543.624V541.032ZM1548.59 541.032H1549.66V543.624C1549.66 546.168 1551.28 548.808 1553.32 549.832L1552.51 550.888C1550.27 549.688 1548.59 546.728 1548.59 543.624V541.032ZM1554.59 539.784H1555.93V554.248H1554.59V539.784ZM1555.61 545.64H1558.3V546.76H1555.61V545.64ZM1563.07 541.368H1564.18V542.84C1564.18 545.496 1562.54 547.72 1560.11 548.6L1559.42 547.544C1561.6 546.776 1563.07 544.904 1563.07 542.84V541.368ZM1563.33 541.368H1564.43V542.84C1564.43 544.792 1565.94 546.552 1568.08 547.272L1567.39 548.312C1564.99 547.496 1563.33 545.384 1563.33 542.84V541.368ZM1559.78 540.984H1567.7V542.056H1559.78V540.984ZM1569.74 539.8H1571.09V550.376H1569.74V539.8ZM1561.79 552.84H1571.52V553.928H1561.79V552.84ZM1561.79 549.384H1563.1V553.32H1561.79V549.384ZM1581.06 543.192H1584.71V544.296H1581.06V543.192ZM1577.27 540.664H1578.34V542.44C1578.34 545.24 1576.77 547.576 1574.35 548.552L1573.67 547.496C1575.81 546.696 1577.27 544.648 1577.27 542.44V540.664ZM1577.52 540.664H1578.59V542.488C1578.59 544.504 1580 546.408 1582.1 547.176L1581.38 548.2C1579.07 547.304 1577.52 545.064 1577.52 542.488V540.664ZM1584.21 539.8H1585.54V550.616H1584.21V539.8ZM1576.24 552.84H1585.89V553.928H1576.24V552.84ZM1576.24 549.416H1577.57V553.352H1576.24V549.416ZM1588.68 546.696H1589.6C1591.88 546.696 1593.22 546.648 1594.84 546.328L1594.96 547.416C1593.3 547.736 1591.92 547.8 1589.6 547.8H1588.68V546.696ZM1588.68 540.84H1594.28V541.928H1589.96V547.288H1588.68V540.84ZM1589.56 543.72H1594.1V544.76H1589.56V543.72ZM1598.98 539.784H1600.24V548.552H1598.98V539.784ZM1596.64 543.56H1599.38V544.648H1596.64V543.56ZM1595.8 540.056H1597.04V548.472H1595.8V540.056ZM1590.55 549.32H1600.24V554.248H1598.93V550.408H1590.55V549.32Z" fill="white"/>
<path d="M1429.34 592.109C1429.34 592.906 1429.5 593.703 1429.82 594.5C1430.14 595.292 1430.58 596 1431.13 596.625C1431.68 597.25 1432.28 597.724 1432.93 598.047L1432.18 599.031C1431.42 598.63 1430.73 598.042 1430.12 597.266C1429.51 596.49 1429.06 595.62 1428.75 594.656C1428.44 595.682 1427.98 596.609 1427.36 597.438C1426.74 598.26 1426.04 598.88 1425.26 599.297L1424.48 598.312C1425.15 597.984 1425.76 597.492 1426.31 596.836C1426.87 596.174 1427.31 595.43 1427.63 594.602C1427.96 593.768 1428.13 592.938 1428.13 592.109V589.578H1429.34V592.109ZM1435.43 594.016H1437.76V595.078H1435.43V602.266H1434.21V588.375H1435.43V594.016ZM1443.21 591.359C1443.21 591.974 1443.36 592.565 1443.66 593.133C1443.96 593.695 1444.39 594.19 1444.93 594.617C1445.47 595.039 1446.08 595.359 1446.77 595.578L1446.15 596.562C1445.33 596.286 1444.62 595.875 1444.01 595.328C1443.39 594.781 1442.93 594.141 1442.62 593.406C1442.31 594.198 1441.85 594.893 1441.22 595.492C1440.61 596.091 1439.88 596.542 1439.05 596.844L1438.41 595.859C1439.1 595.615 1439.71 595.263 1440.26 594.805C1440.8 594.346 1441.22 593.82 1441.52 593.227C1441.82 592.628 1441.97 592.005 1441.97 591.359V590.547H1438.72V589.547H1446.41V590.547H1443.21V591.359ZM1449.68 598.578H1448.46V588.391H1449.68V598.578ZM1450.12 601.969H1440.71V597.609H1441.93V600.938H1450.12V601.969ZM1464.39 596.703H1451.74V595.703H1464.39V596.703ZM1462.99 601.969H1453.38V597.922H1454.61V600.938H1462.99V601.969ZM1458.07 588.875C1459.06 588.87 1459.92 588.977 1460.66 589.195C1461.4 589.414 1461.97 589.732 1462.37 590.148C1462.77 590.56 1462.97 591.052 1462.97 591.625C1462.97 592.198 1462.77 592.693 1462.37 593.109C1461.97 593.521 1461.4 593.839 1460.66 594.062C1459.92 594.281 1459.06 594.391 1458.07 594.391C1457.07 594.391 1456.2 594.281 1455.46 594.062C1454.72 593.839 1454.15 593.521 1453.75 593.109C1453.34 592.693 1453.14 592.198 1453.14 591.625C1453.14 591.052 1453.34 590.56 1453.75 590.148C1454.15 589.732 1454.72 589.414 1455.46 589.195C1456.2 588.977 1457.07 588.87 1458.07 588.875ZM1458.07 589.859C1457.33 589.859 1456.68 589.932 1456.13 590.078C1455.58 590.219 1455.15 590.422 1454.85 590.688C1454.55 590.953 1454.4 591.266 1454.41 591.625C1454.4 591.984 1454.55 592.297 1454.85 592.562C1455.15 592.828 1455.58 593.034 1456.13 593.18C1456.68 593.32 1457.33 593.391 1458.07 593.391C1458.8 593.391 1459.44 593.32 1460 593.18C1460.55 593.034 1460.97 592.828 1461.27 592.562C1461.57 592.297 1461.72 591.984 1461.72 591.625C1461.72 591.266 1461.57 590.953 1461.27 590.688C1460.97 590.422 1460.55 590.219 1460 590.078C1459.44 589.932 1458.8 589.859 1458.07 589.859ZM1473.48 601H1472.06V591.156H1472L1469.25 592.984V591.562L1472.06 589.688H1473.48V601ZM1480.4 591.016C1480.4 591.615 1480.54 592.188 1480.82 592.734C1481.11 593.276 1481.51 593.755 1482.02 594.172C1482.53 594.583 1483.13 594.901 1483.81 595.125L1483.23 596.094C1482.44 595.833 1481.74 595.44 1481.15 594.914C1480.56 594.388 1480.12 593.771 1479.81 593.062C1479.52 593.859 1479.06 594.557 1478.45 595.156C1477.83 595.75 1477.11 596.198 1476.27 596.5L1475.65 595.516C1476.34 595.281 1476.95 594.938 1477.49 594.484C1478.02 594.031 1478.44 593.505 1478.74 592.906C1479.04 592.302 1479.19 591.672 1479.2 591.016V590.422H1476.02V589.406H1483.52V590.422H1480.4V591.016ZM1486.56 591.922H1488.65V592.953H1486.56V596.766H1485.34V588.375H1486.56V591.922ZM1482.1 597.141C1483.05 597.141 1483.87 597.242 1484.56 597.445C1485.24 597.643 1485.77 597.932 1486.13 598.312C1486.5 598.693 1486.68 599.146 1486.68 599.672C1486.68 600.208 1486.5 600.669 1486.13 601.055C1485.77 601.44 1485.24 601.732 1484.56 601.93C1483.87 602.133 1483.05 602.234 1482.1 602.234C1481.16 602.234 1480.33 602.133 1479.64 601.93C1478.95 601.732 1478.42 601.44 1478.05 601.055C1477.68 600.669 1477.49 600.208 1477.49 599.672C1477.49 599.146 1477.68 598.693 1478.05 598.312C1478.42 597.932 1478.95 597.643 1479.64 597.445C1480.33 597.242 1481.16 597.141 1482.1 597.141ZM1482.1 598.125C1481.41 598.125 1480.81 598.188 1480.3 598.312C1479.79 598.432 1479.4 598.609 1479.13 598.844C1478.86 599.078 1478.72 599.354 1478.73 599.672C1478.72 600 1478.86 600.284 1479.13 600.523C1479.4 600.758 1479.79 600.938 1480.29 601.062C1480.8 601.188 1481.41 601.25 1482.1 601.25C1482.81 601.25 1483.41 601.188 1483.92 601.062C1484.43 600.938 1484.82 600.758 1485.09 600.523C1485.36 600.284 1485.49 600 1485.49 599.672C1485.49 599.349 1485.36 599.073 1485.09 598.844C1484.82 598.609 1484.43 598.432 1483.92 598.312C1483.41 598.188 1482.8 598.125 1482.1 598.125ZM1490.29 604.203H1489.13L1489.99 599.953H1491.51L1490.29 604.203ZM1503.17 589.688V597.766C1503.17 598.479 1503.04 599.091 1502.77 599.602C1502.51 600.107 1502.13 600.492 1501.64 600.758C1501.15 601.023 1500.58 601.156 1499.92 601.156C1499.3 601.156 1498.74 601.042 1498.25 600.812C1497.76 600.583 1497.38 600.255 1497.1 599.828C1496.83 599.401 1496.69 598.901 1496.69 598.328H1498.08C1498.08 598.641 1498.16 598.917 1498.31 599.156C1498.47 599.396 1498.69 599.581 1498.97 599.711C1499.25 599.841 1499.57 599.906 1499.92 599.906C1500.51 599.906 1500.96 599.724 1501.27 599.359C1501.59 598.995 1501.75 598.464 1501.75 597.766V589.688H1503.17ZM1505.37 589.688H1509.22C1510.07 589.688 1510.79 589.844 1511.36 590.156C1511.94 590.469 1512.37 590.896 1512.65 591.438C1512.93 591.974 1513.07 592.589 1513.07 593.281C1513.07 593.969 1512.93 594.586 1512.65 595.133C1512.37 595.674 1511.94 596.104 1511.36 596.422C1510.79 596.734 1510.08 596.891 1509.23 596.891H1506.78V601H1505.37V589.688ZM1509.17 595.641C1510.02 595.641 1510.66 595.427 1511.07 595C1511.48 594.568 1511.68 593.995 1511.68 593.281C1511.68 592.562 1511.48 591.992 1511.07 591.57C1510.66 591.148 1510.02 590.938 1509.15 590.938H1506.78V595.641H1509.17ZM1514.74 589.688H1521.6V590.938H1516.15V594.719H1521.24V595.953H1516.15V599.75H1521.68V601H1514.74V589.688ZM1531.24 593.219C1530.99 592.474 1530.59 591.893 1530.04 591.477C1529.49 591.055 1528.82 590.844 1528.04 590.844C1527.36 590.844 1526.75 591.018 1526.2 591.367C1525.66 591.716 1525.23 592.229 1524.91 592.906C1524.6 593.583 1524.44 594.396 1524.44 595.344C1524.44 596.292 1524.6 597.104 1524.92 597.781C1525.24 598.458 1525.68 598.971 1526.23 599.32C1526.79 599.669 1527.42 599.844 1528.13 599.844C1528.77 599.844 1529.33 599.711 1529.81 599.445C1530.3 599.174 1530.68 598.792 1530.95 598.297C1531.23 597.797 1531.37 597.219 1531.38 596.562H1528.43V595.328H1532.76V596.547C1532.76 597.469 1532.56 598.279 1532.16 598.977C1531.77 599.674 1531.22 600.214 1530.51 600.594C1529.82 600.969 1529.02 601.156 1528.13 601.156C1527.13 601.156 1526.25 600.922 1525.48 600.453C1524.72 599.979 1524.13 599.305 1523.71 598.43C1523.29 597.549 1523.08 596.521 1523.08 595.344C1523.08 594.172 1523.29 593.148 1523.71 592.273C1524.13 591.393 1524.72 590.716 1525.47 590.242C1526.22 589.768 1527.07 589.531 1528.04 589.531C1528.82 589.531 1529.55 589.688 1530.2 590C1530.86 590.307 1531.4 590.74 1531.83 591.297C1532.27 591.854 1532.55 592.495 1532.69 593.219H1531.24ZM1534.94 604.203H1533.78L1534.64 599.953H1536.16L1534.94 604.203ZM1542.07 589.688H1545.92C1546.77 589.688 1547.49 589.844 1548.07 590.156C1548.65 590.469 1549.07 590.896 1549.36 591.438C1549.64 591.974 1549.78 592.589 1549.78 593.281C1549.78 593.969 1549.64 594.586 1549.36 595.133C1549.07 595.674 1548.65 596.104 1548.07 596.422C1547.49 596.734 1546.78 596.891 1545.93 596.891H1543.48V601H1542.07V589.688ZM1545.87 595.641C1546.73 595.641 1547.36 595.427 1547.77 595C1548.18 594.568 1548.39 593.995 1548.39 593.281C1548.39 592.562 1548.18 591.992 1547.77 591.57C1547.36 591.148 1546.72 590.938 1545.86 590.938H1543.48V595.641H1545.87ZM1560.43 601H1559.09L1552.96 592.188H1552.85V601H1551.45V589.688H1552.81L1558.93 598.516H1559.04V589.688H1560.43V601ZM1570.35 593.219C1570.1 592.474 1569.7 591.893 1569.15 591.477C1568.6 591.055 1567.93 590.844 1567.15 590.844C1566.47 590.844 1565.86 591.018 1565.31 591.367C1564.77 591.716 1564.34 592.229 1564.02 592.906C1563.71 593.583 1563.55 594.396 1563.55 595.344C1563.55 596.292 1563.71 597.104 1564.03 597.781C1564.35 598.458 1564.78 598.971 1565.34 599.32C1565.9 599.669 1566.53 599.844 1567.24 599.844C1567.88 599.844 1568.44 599.711 1568.92 599.445C1569.41 599.174 1569.79 598.792 1570.06 598.297C1570.34 597.797 1570.48 597.219 1570.49 596.562H1567.54V595.328H1571.87V596.547C1571.87 597.469 1571.67 598.279 1571.27 598.977C1570.88 599.674 1570.33 600.214 1569.62 600.594C1568.93 600.969 1568.13 601.156 1567.24 601.156C1566.24 601.156 1565.36 600.922 1564.59 600.453C1563.83 599.979 1563.24 599.305 1562.82 598.43C1562.4 597.549 1562.19 596.521 1562.19 595.344C1562.19 594.172 1562.4 593.148 1562.82 592.273C1563.24 591.393 1563.83 590.716 1564.58 590.242C1565.33 589.768 1566.18 589.531 1567.15 589.531C1567.93 589.531 1568.65 589.688 1569.31 590C1569.97 590.307 1570.51 590.74 1570.94 591.297C1571.38 591.854 1571.66 592.495 1571.8 593.219H1570.35ZM1574.05 604.203H1572.89L1573.75 599.953H1575.27L1574.05 604.203ZM1587.36 592.531C1587.31 592.167 1587.18 591.854 1586.96 591.594C1586.74 591.328 1586.45 591.128 1586.08 590.992C1585.72 590.852 1585.31 590.781 1584.86 590.781C1584.37 590.781 1583.93 590.862 1583.55 591.023C1583.18 591.18 1582.88 591.398 1582.68 591.68C1582.47 591.961 1582.37 592.281 1582.37 592.641C1582.37 593.161 1582.58 593.56 1583 593.836C1583.43 594.112 1583.95 594.328 1584.56 594.484L1585.68 594.797C1586.56 595.021 1587.31 595.367 1587.94 595.836C1588.57 596.299 1588.89 596.995 1588.89 597.922C1588.89 598.542 1588.72 599.102 1588.4 599.602C1588.07 600.096 1587.6 600.487 1586.98 600.773C1586.37 601.06 1585.63 601.203 1584.78 601.203C1583.98 601.203 1583.28 601.073 1582.68 600.812C1582.08 600.552 1581.61 600.185 1581.27 599.711C1580.93 599.237 1580.74 598.688 1580.7 598.062H1582.14C1582.18 598.469 1582.32 598.812 1582.57 599.094C1582.81 599.37 1583.12 599.578 1583.5 599.719C1583.89 599.854 1584.31 599.922 1584.78 599.922C1585.3 599.922 1585.77 599.839 1586.18 599.672C1586.59 599.505 1586.92 599.268 1587.15 598.961C1587.39 598.648 1587.51 598.292 1587.51 597.891C1587.51 597.547 1587.41 597.258 1587.22 597.023C1587.02 596.789 1586.77 596.599 1586.45 596.453C1586.14 596.307 1585.75 596.167 1585.28 596.031L1583.89 595.656C1582.96 595.385 1582.25 595.01 1581.75 594.531C1581.26 594.052 1581.01 593.443 1581.01 592.703C1581.01 592.083 1581.18 591.534 1581.52 591.055C1581.86 590.57 1582.33 590.195 1582.92 589.93C1583.51 589.664 1584.17 589.531 1584.9 589.531C1585.62 589.531 1586.27 589.661 1586.84 589.922C1587.41 590.182 1587.87 590.542 1588.2 591C1588.53 591.453 1588.71 591.964 1588.73 592.531H1587.36ZM1594.45 599.172H1594.57L1597.92 589.688H1599.4L1595.26 601H1593.77L1589.63 589.688H1591.12L1594.45 599.172ZM1607.8 593.219C1607.55 592.474 1607.15 591.893 1606.6 591.477C1606.05 591.055 1605.39 590.844 1604.6 590.844C1603.92 590.844 1603.31 591.018 1602.76 591.367C1602.22 591.716 1601.79 592.229 1601.47 592.906C1601.16 593.583 1601.01 594.396 1601.01 595.344C1601.01 596.292 1601.17 597.104 1601.48 597.781C1601.8 598.458 1602.24 598.971 1602.8 599.32C1603.35 599.669 1603.99 599.844 1604.69 599.844C1605.33 599.844 1605.89 599.711 1606.37 599.445C1606.86 599.174 1607.24 598.792 1607.51 598.297C1607.79 597.797 1607.93 597.219 1607.94 596.562H1604.99V595.328H1609.32V596.547C1609.32 597.469 1609.12 598.279 1608.72 598.977C1608.33 599.674 1607.78 600.214 1607.08 600.594C1606.38 600.969 1605.58 601.156 1604.69 601.156C1603.69 601.156 1602.81 600.922 1602.05 600.453C1601.28 599.979 1600.69 599.305 1600.27 598.43C1599.86 597.549 1599.65 596.521 1599.65 595.344C1599.65 594.172 1599.86 593.148 1600.27 592.273C1600.69 591.393 1601.28 590.716 1602.03 590.242C1602.78 589.768 1603.64 589.531 1604.6 589.531C1605.39 589.531 1606.11 589.688 1606.76 590C1607.42 590.307 1607.96 590.74 1608.4 591.297C1608.83 591.854 1609.12 592.495 1609.26 593.219H1607.8ZM1618.42 590.906H1616.88V597.594C1617.76 597.531 1618.49 597.464 1619.08 597.391L1619.14 598.297C1617.84 598.505 1616.48 598.643 1615.07 598.711C1613.65 598.779 1612.1 598.818 1610.42 598.828L1610.27 597.781C1611.08 597.781 1611.7 597.779 1612.14 597.773V590.906H1610.61V589.891H1618.42V590.906ZM1621.19 593.953H1623.52V594.984H1621.19V602.266H1619.97V588.375H1621.19V593.953ZM1613.33 597.75C1614.03 597.734 1614.83 597.706 1615.71 597.664V590.906H1613.33V597.75ZM1627.91 588.891C1628.59 588.896 1629.21 589.029 1629.75 589.289C1630.3 589.549 1630.72 589.914 1631.03 590.383C1631.34 590.846 1631.5 591.375 1631.5 591.969C1631.5 592.562 1631.34 593.094 1631.03 593.562C1630.72 594.026 1630.3 594.388 1629.75 594.648C1629.21 594.904 1628.59 595.031 1627.91 595.031C1627.21 595.031 1626.59 594.904 1626.04 594.648C1625.49 594.388 1625.07 594.026 1624.76 593.562C1624.45 593.094 1624.3 592.562 1624.3 591.969C1624.3 591.375 1624.45 590.846 1624.76 590.383C1625.07 589.914 1625.49 589.549 1626.04 589.289C1626.59 589.029 1627.21 588.896 1627.91 588.891ZM1627.91 589.922C1627.45 589.922 1627.03 590.01 1626.66 590.188C1626.3 590.359 1626.01 590.602 1625.8 590.914C1625.6 591.221 1625.49 591.573 1625.5 591.969C1625.49 592.37 1625.6 592.727 1625.8 593.039C1626.01 593.352 1626.3 593.596 1626.66 593.773C1627.03 593.945 1627.45 594.031 1627.91 594.031C1628.36 594.031 1628.77 593.945 1629.13 593.773C1629.5 593.596 1629.79 593.352 1630 593.039C1630.21 592.727 1630.31 592.37 1630.31 591.969C1630.31 591.573 1630.21 591.221 1630 590.914C1629.79 590.602 1629.5 590.359 1629.13 590.188C1628.77 590.01 1628.36 589.922 1627.91 589.922ZM1635.44 595.516H1634.22V588.375H1635.44V595.516ZM1635.44 599.531H1627.64V601.094H1635.94V602.078H1626.44V598.609H1634.22V597.172H1626.41V596.188H1635.44V599.531ZM1644.51 596.031H1638.09V589.641H1644.51V596.031ZM1639.29 595.047H1643.32V590.641H1639.29V595.047ZM1648.36 592.609H1650.45V593.641H1648.36V598.562H1647.14V588.375H1648.36V592.609ZM1649 601.969H1639.67V597.594H1640.87V600.938H1649V601.969ZM1665.49 594.031H1667.74V595.062H1665.49V602.266H1664.27V588.375H1665.49V594.031ZM1661.9 589.875C1661.9 591.943 1661.38 593.818 1660.34 595.5C1659.31 597.177 1657.7 598.552 1655.52 599.625L1654.83 598.656C1656.62 597.766 1658 596.667 1658.98 595.359C1659.96 594.047 1660.52 592.562 1660.66 590.906H1655.47V589.875H1661.9ZM1679.49 593.281H1670V588.656H1671.22V592.266H1679.49V593.281ZM1680.94 595.922H1668.27V594.906H1680.94V595.922ZM1674.6 597.172C1675.59 597.172 1676.45 597.271 1677.16 597.469C1677.87 597.661 1678.42 597.948 1678.8 598.328C1679.18 598.703 1679.37 599.156 1679.38 599.688C1679.37 600.219 1679.18 600.672 1678.8 601.047C1678.42 601.427 1677.87 601.714 1677.16 601.906C1676.45 602.104 1675.59 602.203 1674.6 602.203C1673.6 602.203 1672.74 602.104 1672.02 601.906C1671.3 601.714 1670.75 601.427 1670.37 601.047C1669.99 600.672 1669.8 600.219 1669.8 599.688C1669.8 599.156 1669.99 598.703 1670.37 598.328C1670.75 597.948 1671.3 597.661 1672.02 597.469C1672.74 597.271 1673.6 597.172 1674.6 597.172ZM1674.6 598.141C1673.47 598.151 1672.6 598.289 1671.97 598.555C1671.35 598.82 1671.04 599.198 1671.05 599.688C1671.04 600.01 1671.18 600.289 1671.46 600.523C1671.75 600.758 1672.15 600.938 1672.68 601.062C1673.22 601.188 1673.86 601.25 1674.6 601.25C1675.33 601.25 1675.96 601.188 1676.49 601.062C1677.02 600.938 1677.43 600.758 1677.71 600.523C1678 600.289 1678.14 600.01 1678.14 599.688C1678.14 599.198 1677.83 598.82 1677.21 598.555C1676.58 598.289 1675.71 598.151 1674.6 598.141ZM1692.66 591.938H1694.75V592.984H1692.66V596.453H1691.44V588.375H1692.66V591.938ZM1685.09 598.547H1691.44V597.062H1692.66V602.078H1683.88V597.062H1685.09V598.547ZM1691.44 601.094V599.516H1685.09V601.094H1691.44ZM1690.11 590.828H1681.83V589.812H1685.36V588.25H1686.58V589.812H1690.11V590.828ZM1685.97 591.469C1686.63 591.469 1687.21 591.57 1687.71 591.773C1688.22 591.971 1688.61 592.255 1688.88 592.625C1689.16 592.99 1689.31 593.417 1689.31 593.906C1689.31 594.396 1689.16 594.826 1688.88 595.195C1688.61 595.56 1688.22 595.844 1687.71 596.047C1687.21 596.245 1686.63 596.344 1685.97 596.344C1685.3 596.344 1684.71 596.245 1684.2 596.047C1683.7 595.844 1683.31 595.56 1683.03 595.195C1682.76 594.826 1682.62 594.396 1682.62 593.906C1682.62 593.417 1682.76 592.99 1683.03 592.625C1683.31 592.255 1683.7 591.971 1684.2 591.773C1684.71 591.57 1685.3 591.469 1685.97 591.469ZM1685.97 592.422C1685.54 592.417 1685.15 592.477 1684.82 592.602C1684.49 592.721 1684.24 592.896 1684.05 593.125C1683.88 593.354 1683.79 593.615 1683.8 593.906C1683.79 594.203 1683.88 594.466 1684.05 594.695C1684.24 594.919 1684.49 595.094 1684.82 595.219C1685.15 595.344 1685.54 595.406 1685.97 595.406C1686.4 595.406 1686.77 595.344 1687.1 595.219C1687.43 595.094 1687.69 594.919 1687.88 594.695C1688.06 594.466 1688.15 594.203 1688.16 593.906C1688.15 593.609 1688.05 593.349 1687.87 593.125C1687.68 592.896 1687.43 592.721 1687.1 592.602C1686.77 592.477 1686.4 592.417 1685.97 592.422ZM1706.78 602.266H1705.56V588.375H1706.78V602.266ZM1697.43 597.625C1699.78 597.615 1702 597.391 1704.07 596.953L1704.25 598C1703.06 598.245 1701.91 598.422 1700.79 598.531C1699.67 598.635 1698.53 598.688 1697.36 598.688H1696.23V589.75H1697.43V597.625ZM1719.6 593.875H1721.93V594.906H1719.6V602.297H1718.38V588.375H1719.6V593.875ZM1715.95 590.75H1710.68V597.781C1711.98 597.781 1713.11 597.745 1714.08 597.672C1715.05 597.599 1716.04 597.469 1717.04 597.281L1717.2 598.344C1716.17 598.531 1715.16 598.656 1714.17 598.719C1713.18 598.781 1711.98 598.812 1710.56 598.812H1709.46V589.734H1715.95V590.75ZM1723.85 601.094C1723.67 601.094 1723.5 601.049 1723.34 600.961C1723.19 600.867 1723.07 600.742 1722.98 600.586C1722.89 600.43 1722.84 600.26 1722.85 600.078C1722.84 599.901 1722.89 599.737 1722.98 599.586C1723.07 599.43 1723.19 599.307 1723.34 599.219C1723.5 599.125 1723.67 599.078 1723.85 599.078C1724.03 599.078 1724.19 599.125 1724.34 599.219C1724.5 599.307 1724.62 599.43 1724.71 599.586C1724.8 599.737 1724.85 599.901 1724.85 600.078C1724.85 600.26 1724.8 600.43 1724.71 600.586C1724.62 600.742 1724.5 600.867 1724.34 600.961C1724.19 601.049 1724.03 601.094 1723.85 601.094Z" fill="#98989E"/>
<path d="M1354.81 783.297H1353.59V779.156H1345.46V778.125H1354.81V783.297ZM1354.81 777.422H1353.59V769.391H1354.81V777.422ZM1345.45 775.266C1346.57 775.26 1347.68 775.208 1348.75 775.109C1349.83 775.01 1350.92 774.849 1352.01 774.625L1352.2 775.656C1351.02 775.88 1349.87 776.044 1348.75 776.148C1347.63 776.247 1346.49 776.297 1345.34 776.297H1344.21V770.172H1345.45V775.266ZM1358.77 778.672C1359.61 778.661 1360.39 778.625 1361.11 778.562C1361.83 778.495 1362.59 778.38 1363.37 778.219L1363.54 779.281C1362.67 779.464 1361.84 779.589 1361.05 779.656C1360.26 779.719 1359.38 779.75 1358.43 779.75H1357.55V770.891H1358.77V778.672ZM1368.76 783.266H1367.59V769.375H1368.76V783.266ZM1365.79 782.562H1364.62V775.078H1361.45V774.062H1364.62V769.719H1365.79V782.562ZM1381.86 777.328H1380.65V769.391H1381.86V777.328ZM1381.86 783.078H1372.83V778.078H1381.86V783.078ZM1374.04 782.078H1380.66V779.078H1374.04V782.078ZM1374.36 770.125C1375.06 770.125 1375.69 770.263 1376.24 770.539C1376.79 770.81 1377.22 771.193 1377.54 771.688C1377.85 772.177 1378 772.74 1378 773.375C1378 774 1377.85 774.56 1377.54 775.055C1377.22 775.544 1376.79 775.927 1376.24 776.203C1375.69 776.474 1375.06 776.609 1374.36 776.609C1373.67 776.609 1373.04 776.474 1372.49 776.203C1371.94 775.927 1371.5 775.544 1371.19 775.055C1370.88 774.56 1370.72 774 1370.72 773.375C1370.72 772.74 1370.88 772.177 1371.19 771.688C1371.5 771.193 1371.94 770.81 1372.49 770.539C1373.04 770.263 1373.67 770.125 1374.36 770.125ZM1374.36 771.172C1373.9 771.167 1373.47 771.258 1373.1 771.445C1372.73 771.633 1372.44 771.896 1372.23 772.234C1372.02 772.568 1371.92 772.948 1371.93 773.375C1371.92 773.797 1372.02 774.174 1372.23 774.508C1372.44 774.836 1372.73 775.094 1373.1 775.281C1373.47 775.469 1373.9 775.562 1374.36 775.562C1374.83 775.562 1375.24 775.469 1375.61 775.281C1375.98 775.094 1376.27 774.836 1376.48 774.508C1376.69 774.174 1376.8 773.797 1376.8 773.375C1376.8 772.948 1376.69 772.568 1376.48 772.234C1376.27 771.896 1375.98 771.633 1375.61 771.445C1375.24 771.258 1374.83 771.167 1374.36 771.172ZM1395.83 783.266H1394.64V769.375H1395.83V783.266ZM1393.03 782.562H1391.86V775.812H1390.07C1390.03 776.708 1389.88 777.487 1389.63 778.148C1389.37 778.805 1389.03 779.312 1388.59 779.672C1388.15 780.026 1387.65 780.203 1387.08 780.203C1386.48 780.203 1385.95 780.008 1385.5 779.617C1385.05 779.221 1384.71 778.659 1384.46 777.93C1384.22 777.201 1384.1 776.349 1384.1 775.375C1384.1 774.401 1384.22 773.549 1384.46 772.82C1384.71 772.091 1385.05 771.531 1385.5 771.141C1385.95 770.745 1386.48 770.547 1387.08 770.547C1387.64 770.547 1388.13 770.719 1388.56 771.062C1389 771.406 1389.34 771.898 1389.6 772.539C1389.86 773.18 1390.01 773.932 1390.06 774.797H1391.86V769.672H1393.03V782.562ZM1387.08 771.703C1386.7 771.703 1386.38 771.852 1386.1 772.148C1385.83 772.445 1385.61 772.872 1385.46 773.43C1385.32 773.982 1385.25 774.63 1385.25 775.375C1385.25 776.12 1385.32 776.768 1385.46 777.32C1385.61 777.872 1385.83 778.297 1386.1 778.594C1386.38 778.891 1386.71 779.036 1387.08 779.031C1387.45 779.036 1387.77 778.891 1388.05 778.594C1388.33 778.297 1388.55 777.872 1388.7 777.32C1388.85 776.768 1388.92 776.12 1388.92 775.375C1388.92 774.625 1388.85 773.974 1388.7 773.422C1388.55 772.87 1388.33 772.445 1388.06 772.148C1387.78 771.852 1387.45 771.703 1387.08 771.703ZM1413.82 777.719H1401.15V776.734H1413.82V777.719ZM1412.18 783.266H1410.93V780.062H1402.57V779.078H1412.18V783.266ZM1412.32 775.391H1402.84V769.75H1412.25V770.734H1404.07V772.062H1411.87V773.016H1404.07V774.438H1412.32V775.391ZM1421.66 770.672C1421.66 771.297 1421.91 771.896 1422.39 772.469C1422.88 773.042 1423.52 773.523 1424.3 773.914C1425.08 774.305 1425.89 774.557 1426.73 774.672L1426.23 775.672C1425.5 775.552 1424.79 775.344 1424.11 775.047C1423.43 774.745 1422.82 774.37 1422.28 773.922C1421.74 773.469 1421.33 772.966 1421.04 772.414C1420.75 772.966 1420.34 773.469 1419.8 773.922C1419.26 774.37 1418.65 774.745 1417.97 775.047C1417.29 775.344 1416.58 775.552 1415.85 775.672L1415.35 774.672C1416.2 774.557 1417.01 774.307 1417.78 773.922C1418.56 773.531 1419.19 773.052 1419.67 772.484C1420.16 771.911 1420.4 771.307 1420.4 770.672V769.875H1421.66V770.672ZM1427.35 778.234H1421.6V783.266H1420.4V778.234H1414.7V777.203H1427.35V778.234ZM1440.93 777.5H1435.27V780.344H1434.05V777.5H1428.21V776.484H1440.93V777.5ZM1439.27 774.891H1429.86V770.062H1439.27V774.891ZM1431.07 773.906H1438.05V771.031H1431.07V773.906ZM1439.5 782.969H1429.83V778.969H1431.07V781.938H1439.5V782.969ZM1446.45 773.641C1446.45 774.37 1446.61 775.112 1446.92 775.867C1447.25 776.617 1447.68 777.297 1448.24 777.906C1448.79 778.51 1449.4 778.969 1450.06 779.281L1449.36 780.25C1448.58 779.875 1447.88 779.302 1447.26 778.531C1446.64 777.76 1446.17 776.901 1445.85 775.953C1445.64 776.63 1445.36 777.273 1444.99 777.883C1444.63 778.492 1444.21 779.031 1443.74 779.5C1443.28 779.964 1442.78 780.328 1442.27 780.594L1441.52 779.625C1442.18 779.307 1442.79 778.826 1443.36 778.18C1443.93 777.534 1444.39 776.81 1444.73 776.008C1445.07 775.206 1445.25 774.417 1445.25 773.641V771.828H1442.02V770.812H1449.58V771.828H1446.45V773.641ZM1452.5 775H1454.83V776.047H1452.5V783.266H1451.28V769.375H1452.5V775ZM1466.25 775.938H1459.73V770.281H1466.25V775.938ZM1460.93 774.969H1465.04V771.281H1460.93V774.969ZM1470.45 777.359H1469.25V769.375H1470.45V777.359ZM1466.68 779.266C1466.68 779.708 1466.9 780.143 1467.33 780.57C1467.76 780.992 1468.33 781.357 1469.04 781.664C1469.75 781.966 1470.5 782.167 1471.29 782.266L1470.87 783.219C1470.18 783.125 1469.51 782.958 1468.88 782.719C1468.24 782.479 1467.68 782.182 1467.19 781.828C1466.7 781.474 1466.32 781.086 1466.05 780.664C1465.77 781.091 1465.39 781.482 1464.89 781.836C1464.39 782.19 1463.82 782.484 1463.18 782.719C1462.53 782.958 1461.87 783.125 1461.17 783.219L1460.73 782.266C1461.52 782.177 1462.28 781.982 1463 781.68C1463.73 781.378 1464.31 781.013 1464.75 780.586C1465.2 780.154 1465.42 779.714 1465.42 779.266H1461.31V778.312H1465.43V776.953H1466.65V778.312H1470.81V779.266H1466.68ZM1482.52 778.156C1483.52 778.156 1484.38 778.258 1485.11 778.461C1485.84 778.659 1486.41 778.951 1486.8 779.336C1487.2 779.716 1487.4 780.172 1487.4 780.703C1487.4 781.229 1487.2 781.682 1486.8 782.062C1486.41 782.443 1485.84 782.732 1485.11 782.93C1484.37 783.133 1483.51 783.234 1482.52 783.234C1481.53 783.234 1480.67 783.133 1479.94 782.93C1479.21 782.732 1478.65 782.443 1478.25 782.062C1477.86 781.682 1477.66 781.229 1477.66 780.703C1477.66 780.172 1477.86 779.716 1478.25 779.336C1478.65 778.951 1479.21 778.659 1479.94 778.461C1480.67 778.258 1481.53 778.156 1482.52 778.156ZM1482.52 779.094C1481.79 779.099 1481.14 779.167 1480.59 779.297C1480.04 779.427 1479.61 779.615 1479.32 779.859C1479.02 780.099 1478.87 780.38 1478.88 780.703C1478.87 781.021 1479.02 781.299 1479.32 781.539C1479.61 781.773 1480.04 781.953 1480.59 782.078C1481.14 782.203 1481.79 782.266 1482.52 782.266C1483.25 782.266 1483.9 782.203 1484.44 782.078C1484.99 781.953 1485.42 781.773 1485.72 781.539C1486.02 781.299 1486.17 781.021 1486.18 780.703C1486.17 780.38 1486.02 780.099 1485.72 779.859C1485.42 779.615 1484.99 779.427 1484.44 779.297C1483.9 779.167 1483.25 779.099 1482.52 779.094ZM1487.29 771.266C1487.29 772.016 1487.26 772.659 1487.22 773.195C1487.17 773.727 1487.07 774.312 1486.9 774.953L1485.69 774.812C1485.86 774.172 1485.96 773.599 1486 773.094C1486.05 772.589 1486.07 771.979 1486.07 771.266V771.094H1477.75V770.094H1487.29V771.266ZM1488.9 776.859H1476.25V775.859H1481.49V773.172H1482.69V775.859H1488.9V776.859ZM1491.56 772.469H1494.66V770.266H1495.81V776.734H1490.41V770.266H1491.56V772.469ZM1494.66 775.719V773.453H1491.56V775.719H1494.66ZM1501.56 777.719H1500.39V774.016H1498.55V777.641H1497.39V769.656H1498.55V773H1500.39V769.391H1501.56V777.719ZM1501.56 783.266H1500.36V779.578H1492.2V778.562H1501.56V783.266ZM1509.62 769.625C1510.65 769.625 1511.54 769.719 1512.27 769.906C1513.01 770.089 1513.57 770.359 1513.95 770.719C1514.34 771.073 1514.53 771.505 1514.53 772.016C1514.53 772.797 1514.1 773.396 1513.25 773.812C1512.39 774.229 1511.19 774.443 1509.62 774.453C1508.59 774.448 1507.71 774.352 1506.97 774.164C1506.23 773.977 1505.67 773.703 1505.28 773.344C1504.89 772.979 1504.7 772.536 1504.7 772.016C1504.7 771.505 1504.89 771.073 1505.28 770.719C1505.67 770.359 1506.23 770.089 1506.97 769.906C1507.71 769.719 1508.59 769.625 1509.62 769.625ZM1509.62 770.547C1508.86 770.547 1508.2 770.607 1507.65 770.727C1507.11 770.841 1506.69 771.01 1506.4 771.234C1506.12 771.453 1505.98 771.714 1505.98 772.016C1505.98 772.495 1506.29 772.865 1506.93 773.125C1507.56 773.385 1508.46 773.516 1509.62 773.516C1510.78 773.516 1511.68 773.385 1512.32 773.125C1512.96 772.865 1513.28 772.495 1513.28 772.016C1513.28 771.714 1513.13 771.453 1512.84 771.234C1512.55 771.016 1512.13 770.846 1511.58 770.727C1511.04 770.607 1510.38 770.547 1509.62 770.547ZM1515.95 776.391H1503.3V775.391H1515.95V776.391ZM1514.33 780.703H1506.08V782.141H1514.75V783.109H1504.86V779.797H1513.12V778.531H1504.83V777.594H1514.33V780.703ZM1532.01 776.828H1530.79V769.375H1532.01V776.828ZM1524.23 779.219H1530.79V777.531H1532.01V783.078H1523.01V777.531H1524.23V779.219ZM1530.79 782.078V780.203H1524.23V782.078H1530.79ZM1524.51 770.062C1525.21 770.057 1525.83 770.188 1526.38 770.453C1526.93 770.719 1527.37 771.096 1527.68 771.586C1527.99 772.07 1528.15 772.625 1528.15 773.25C1528.15 773.87 1527.99 774.422 1527.68 774.906C1527.37 775.391 1526.93 775.768 1526.38 776.039C1525.83 776.305 1525.21 776.438 1524.51 776.438C1523.81 776.438 1523.18 776.305 1522.63 776.039C1522.08 775.768 1521.65 775.391 1521.34 774.906C1521.02 774.422 1520.87 773.87 1520.87 773.25C1520.87 772.625 1521.02 772.07 1521.34 771.586C1521.65 771.096 1522.08 770.719 1522.63 770.453C1523.18 770.188 1523.81 770.057 1524.51 770.062ZM1524.51 771.094C1524.04 771.089 1523.62 771.18 1523.24 771.367C1522.87 771.549 1522.58 771.805 1522.38 772.133C1522.17 772.461 1522.07 772.833 1522.07 773.25C1522.07 773.667 1522.17 774.042 1522.38 774.375C1522.58 774.703 1522.87 774.961 1523.24 775.148C1523.62 775.331 1524.04 775.422 1524.51 775.422C1524.97 775.422 1525.39 775.331 1525.76 775.148C1526.13 774.961 1526.42 774.703 1526.62 774.375C1526.84 774.042 1526.95 773.667 1526.95 773.25C1526.95 772.833 1526.84 772.461 1526.62 772.133C1526.42 771.805 1526.13 771.549 1525.76 771.367C1525.39 771.18 1524.97 771.089 1524.51 771.094ZM1540.66 774.125H1535.88V776.281C1537.29 776.281 1538.38 776.26 1539.15 776.219C1539.92 776.177 1540.7 776.083 1541.47 775.938L1541.6 776.953C1540.77 777.089 1539.94 777.177 1539.11 777.219C1538.29 777.26 1537.13 777.281 1535.65 777.281H1534.66V773.188H1539.44V771.219H1534.63V770.234H1540.66V774.125ZM1545.58 777.922H1544.35V775.344H1541.58V774.328H1544.35V772.453H1541.58V771.453H1544.35V769.391H1545.58V777.922ZM1545.58 783.297H1544.35V779.672H1536.22V778.672H1545.58V783.297ZM1558.35 775.109H1560.67V776.125H1558.35V783.266H1557.13V769.375H1558.35V775.109ZM1555.78 772.625H1547.52V771.609H1551.1V769.547H1552.31V771.609H1555.78V772.625ZM1551.72 773.781C1552.37 773.781 1552.95 773.917 1553.47 774.188C1553.99 774.458 1554.39 774.836 1554.68 775.32C1554.97 775.805 1555.12 776.354 1555.13 776.969C1555.12 777.583 1554.97 778.133 1554.68 778.617C1554.39 779.102 1553.99 779.479 1553.47 779.75C1552.95 780.021 1552.37 780.156 1551.72 780.156C1551.06 780.156 1550.48 780.021 1549.95 779.75C1549.44 779.479 1549.04 779.102 1548.74 778.617C1548.45 778.133 1548.31 777.583 1548.31 776.969C1548.31 776.354 1548.45 775.805 1548.74 775.32C1549.04 774.836 1549.44 774.458 1549.95 774.188C1550.48 773.917 1551.06 773.781 1551.72 773.781ZM1551.72 774.812C1551.29 774.812 1550.91 774.906 1550.56 775.094C1550.23 775.276 1549.96 775.531 1549.77 775.859C1549.57 776.188 1549.48 776.557 1549.49 776.969C1549.48 777.385 1549.57 777.758 1549.77 778.086C1549.96 778.409 1550.23 778.661 1550.56 778.844C1550.91 779.026 1551.29 779.115 1551.72 779.109C1552.14 779.115 1552.52 779.026 1552.86 778.844C1553.2 778.661 1553.47 778.409 1553.66 778.086C1553.85 777.758 1553.95 777.385 1553.95 776.969C1553.95 776.557 1553.85 776.188 1553.66 775.859C1553.47 775.531 1553.2 775.276 1552.86 775.094C1552.52 774.906 1552.14 774.812 1551.72 774.812ZM1572.58 776.578H1571.37V769.375H1572.58V776.578ZM1572.59 780.609H1564.8V782.109H1573.09V783.109H1563.59V779.656H1571.37V778.266H1563.56V777.281H1572.59V780.609ZM1566.05 770.844C1566.04 771.49 1566.19 772.104 1566.49 772.688C1566.79 773.271 1567.21 773.784 1567.75 774.227C1568.29 774.664 1568.9 774.995 1569.59 775.219L1568.98 776.172C1568.17 775.896 1567.45 775.479 1566.83 774.922C1566.21 774.359 1565.75 773.703 1565.44 772.953C1565.12 773.76 1564.65 774.469 1564.03 775.078C1563.4 775.688 1562.68 776.141 1561.86 776.438L1561.22 775.469C1561.91 775.224 1562.53 774.87 1563.07 774.406C1563.61 773.938 1564.03 773.396 1564.33 772.781C1564.64 772.161 1564.8 771.516 1564.8 770.844V769.781H1566.05V770.844ZM1585.34 770.672C1585.34 771.297 1585.58 771.896 1586.06 772.469C1586.55 773.042 1587.19 773.523 1587.97 773.914C1588.75 774.305 1589.56 774.557 1590.4 774.672L1589.9 775.672C1589.17 775.552 1588.46 775.344 1587.78 775.047C1587.1 774.745 1586.49 774.37 1585.95 773.922C1585.42 773.469 1585 772.966 1584.71 772.414C1584.42 772.966 1584.01 773.469 1583.47 773.922C1582.93 774.37 1582.32 774.745 1581.64 775.047C1580.96 775.344 1580.25 775.552 1579.52 775.672L1579.02 774.672C1579.87 774.557 1580.68 774.307 1581.45 773.922C1582.23 773.531 1582.86 773.052 1583.34 772.484C1583.83 771.911 1584.07 771.307 1584.07 770.672V769.875H1585.34V770.672ZM1591.02 778.234H1585.27V783.266H1584.07V778.234H1578.37V777.203H1591.02V778.234ZM1598.38 779.266H1600.91V777.531H1602.05V783.078H1597.22V777.531H1598.38V779.266ZM1600.91 782.109V780.203H1598.38V782.109H1600.91ZM1606.02 778.625C1606.01 779.125 1606.11 779.615 1606.3 780.094C1606.5 780.568 1606.79 780.995 1607.17 781.375C1607.56 781.755 1608.03 782.047 1608.58 782.25L1607.94 783.188C1607.32 782.938 1606.79 782.583 1606.36 782.125C1605.93 781.667 1605.61 781.138 1605.39 780.539C1605.16 781.128 1604.83 781.651 1604.41 782.109C1603.98 782.573 1603.47 782.932 1602.88 783.188L1602.24 782.25C1602.78 782.026 1603.24 781.721 1603.63 781.336C1604.01 780.951 1604.3 780.523 1604.5 780.055C1604.7 779.581 1604.8 779.104 1604.8 778.625V777.438H1606.02V778.625ZM1599.44 770C1600.05 770 1600.61 770.109 1601.12 770.328C1601.62 770.547 1602.04 770.859 1602.36 771.266C1602.69 771.667 1602.9 772.13 1602.99 772.656H1605.89V769.375H1607.13V776.734H1605.89V773.672H1602.99C1602.92 774.214 1602.71 774.69 1602.38 775.102C1602.06 775.513 1601.64 775.831 1601.13 776.055C1600.62 776.279 1600.06 776.391 1599.44 776.391C1598.74 776.391 1598.12 776.258 1597.57 775.992C1597.03 775.721 1596.6 775.344 1596.29 774.859C1595.98 774.37 1595.83 773.812 1595.83 773.188C1595.83 772.568 1595.98 772.016 1596.29 771.531C1596.6 771.047 1597.03 770.672 1597.57 770.406C1598.12 770.135 1598.74 770 1599.44 770ZM1599.44 771.031C1598.97 771.031 1598.55 771.122 1598.18 771.305C1597.81 771.487 1597.52 771.742 1597.31 772.07C1597.11 772.398 1597 772.771 1597 773.188C1597 773.609 1597.11 773.987 1597.31 774.32C1597.52 774.648 1597.81 774.906 1598.18 775.094C1598.55 775.281 1598.97 775.375 1599.44 775.375C1599.9 775.375 1600.32 775.281 1600.68 775.094C1601.05 774.906 1601.33 774.648 1601.53 774.32C1601.74 773.987 1601.85 773.609 1601.85 773.188C1601.85 772.771 1601.74 772.398 1601.53 772.07C1601.33 771.742 1601.05 771.487 1600.68 771.305C1600.32 771.122 1599.9 771.031 1599.44 771.031ZM1611.97 779.344H1618.9V777.719H1620.14V783.078H1610.75V777.719H1611.97V779.344ZM1618.9 782.094V780.312H1611.97V782.094H1618.9ZM1621.8 776.734H1609.14V775.719H1621.8V776.734ZM1616.11 770.188C1616.11 770.74 1616.35 771.271 1616.83 771.781C1617.31 772.286 1617.93 772.716 1618.69 773.07C1619.46 773.419 1620.26 773.646 1621.08 773.75L1620.62 774.734C1619.9 774.625 1619.2 774.435 1618.51 774.164C1617.84 773.888 1617.23 773.544 1616.7 773.133C1616.17 772.721 1615.76 772.263 1615.47 771.758C1615.19 772.263 1614.78 772.721 1614.24 773.133C1613.71 773.544 1613.11 773.888 1612.43 774.164C1611.75 774.435 1611.05 774.625 1610.33 774.734L1609.86 773.75C1610.69 773.641 1611.49 773.414 1612.26 773.07C1613.03 772.721 1613.65 772.297 1614.12 771.797C1614.6 771.292 1614.84 770.755 1614.84 770.188V769.531H1616.11V770.188ZM1634.12 783.266H1632.9V769.375H1634.12V783.266ZM1624.78 778.625C1627.13 778.615 1629.34 778.391 1631.42 777.953L1631.59 779C1630.41 779.245 1629.26 779.422 1628.14 779.531C1627.02 779.635 1625.87 779.688 1624.7 779.688H1623.57V770.75H1624.78V778.625ZM1646.95 774.875H1649.27V775.906H1646.95V783.297H1645.73V769.375H1646.95V774.875ZM1643.29 771.75H1638.02V778.781C1639.32 778.781 1640.45 778.745 1641.42 778.672C1642.39 778.599 1643.38 778.469 1644.38 778.281L1644.54 779.344C1643.51 779.531 1642.51 779.656 1641.52 779.719C1640.53 779.781 1639.32 779.812 1637.9 779.812H1636.8V770.734H1643.29V771.75ZM1651.19 782.094C1651.01 782.094 1650.84 782.049 1650.68 781.961C1650.53 781.867 1650.41 781.742 1650.32 781.586C1650.23 781.43 1650.19 781.26 1650.19 781.078C1650.19 780.901 1650.23 780.737 1650.32 780.586C1650.41 780.43 1650.53 780.307 1650.68 780.219C1650.84 780.125 1651.01 780.078 1651.19 780.078C1651.37 780.078 1651.53 780.125 1651.68 780.219C1651.84 780.307 1651.96 780.43 1652.05 780.586C1652.15 780.737 1652.19 780.901 1652.19 781.078C1652.19 781.26 1652.15 781.43 1652.05 781.586C1651.96 781.742 1651.84 781.867 1651.68 781.961C1651.53 782.049 1651.37 782.094 1651.19 782.094Z" fill="#98989E"/>
<defs>
<filter id="filter0_d_217_8812" x="490.758" y="509.16" width="219.238" height="44.3281" filterUnits="userSpaceOnUse" color-interpolation-filters="sRGB">
<feFlood flood-opacity="0" result="BackgroundImageFix"/>
<feColorMatrix in="SourceAlpha" type="matrix" values="0 0 0 0 0 0 0 0 0 0 0 0 0 0 0 0 0 0 127 0" result="hardAlpha"/>
<feOffset dy="4"/>
<feGaussianBlur stdDeviation="2"/>
<feComposite in2="hardAlpha" operator="out"/>
<feColorMatrix type="matrix" values="0 0 0 0 0 0 0 0 0 0 0 0 0 0 0 0 0 0 0.25 0"/>
<feBlend mode="normal" in2="BackgroundImageFix" result="effect1_dropShadow_217_8812"/>
<feBlend mode="normal" in="SourceGraphic" in2="effect1_dropShadow_217_8812" result="shape"/>
</filter>
</defs>
</svg>
