<svg width="1920" height="1080" viewBox="0 0 1920 1080" fill="none" xmlns="http://www.w3.org/2000/svg">
<rect width="1920" height="1080" fill="#F7F8FA"/>
<rect width="1200" height="1080" fill="#D2E0FB"/>
<g filter="url(#filter0_d_24_152)">
<path d="M494.759 522.549L509.408 499.648H519.906V522.5H524.203V529.043H519.906V535H511.947V529.043H494.759V522.549ZM512.093 522.5V508.486H511.8L503.06 522.207V522.5H512.093ZM528.346 528.994L541.237 517.666C542.376 516.624 543.263 515.745 543.898 515.029C544.549 514.313 545.053 513.589 545.412 512.856C545.77 512.108 545.957 511.302 545.973 510.439C545.957 509.479 545.721 508.641 545.265 507.925C544.826 507.192 544.215 506.631 543.434 506.24C542.669 505.85 541.79 505.654 540.797 505.654C539.267 505.654 538.047 506.11 537.135 507.021C536.224 507.933 535.768 509.186 535.768 510.781H527.858C527.858 508.438 528.395 506.387 529.469 504.629C530.56 502.871 532.081 501.52 534.035 500.576C536.004 499.632 538.274 499.16 540.846 499.16C543.467 499.16 545.77 499.608 547.755 500.503C549.757 501.382 551.303 502.627 552.394 504.238C553.484 505.85 554.03 507.705 554.03 509.805C554.03 511.204 553.745 512.555 553.175 513.857C552.622 515.16 551.645 516.608 550.246 518.203C548.862 519.782 546.901 521.686 544.362 523.916L539.918 528.018V528.262H554.469V535H528.346V528.994ZM569.934 499.648H584.387C586.991 499.648 589.261 500.161 591.198 501.187C593.135 502.212 594.624 503.644 595.666 505.483C596.708 507.306 597.229 509.414 597.229 511.807C597.229 514.232 596.7 516.364 595.642 518.203C594.584 520.026 593.07 521.434 591.101 522.427C589.131 523.42 586.812 523.916 584.143 523.916H578.234V535H569.934V499.648ZM582.629 517.324C584.549 517.324 586.031 516.828 587.072 515.835C588.114 514.842 588.635 513.499 588.635 511.807C588.635 510.114 588.114 508.787 587.072 507.827C586.031 506.867 584.549 506.387 582.629 506.387H578.234V517.324H582.629ZM634.282 517.324C634.282 521.117 633.55 524.38 632.085 527.114C630.636 529.849 628.634 531.932 626.079 533.364C623.54 534.78 620.675 535.488 617.485 535.488C614.279 535.488 611.406 534.772 608.867 533.34C606.328 531.908 604.326 529.824 602.861 527.09C601.413 524.355 600.688 521.1 600.688 517.324C600.688 513.532 601.413 510.269 602.861 507.534C604.326 504.8 606.328 502.725 608.867 501.309C611.406 499.876 614.279 499.16 617.485 499.16C620.675 499.16 623.54 499.876 626.079 501.309C628.634 502.725 630.636 504.8 632.085 507.534C633.55 510.269 634.282 513.532 634.282 517.324ZM625.786 517.324C625.786 515.013 625.452 513.044 624.785 511.416C624.134 509.788 623.182 508.56 621.929 507.729C620.692 506.899 619.21 506.484 617.485 506.484C615.76 506.484 614.271 506.899 613.017 507.729C611.78 508.56 610.828 509.788 610.161 511.416C609.51 513.044 609.184 515.013 609.184 517.324C609.184 519.635 609.51 521.605 610.161 523.232C610.828 524.86 611.78 526.089 613.017 526.919C614.271 527.749 615.76 528.164 617.485 528.164C619.21 528.164 620.692 527.749 621.929 526.919C623.182 526.089 624.134 524.86 624.785 523.232C625.452 521.605 625.786 519.635 625.786 517.324ZM668.894 535H661.814L647.459 514.248H647.214V535H638.914V499.648H646.091L660.3 520.4H660.593V499.648H668.894V535ZM697.207 511.172C696.784 509.674 695.995 508.519 694.839 507.705C693.684 506.891 692.243 506.484 690.518 506.484C688.793 506.484 687.287 506.908 686.001 507.754C684.732 508.6 683.747 509.837 683.047 511.465C682.364 513.076 682.022 515.013 682.022 517.275C682.022 519.57 682.356 521.532 683.023 523.159C683.69 524.787 684.659 526.032 685.928 526.895C687.198 527.741 688.728 528.164 690.518 528.164C692.845 528.164 694.66 527.603 695.962 526.479C697.264 525.34 697.94 523.802 697.989 521.865H690.86V515.762H705.996V520.4C705.996 523.477 705.337 526.154 704.019 528.433C702.701 530.711 700.861 532.461 698.501 533.682C696.158 534.886 693.48 535.488 690.469 535.488C687.116 535.488 684.162 534.756 681.607 533.291C679.052 531.826 677.066 529.727 675.65 526.992C674.234 524.258 673.526 521.051 673.526 517.373C673.526 513.613 674.258 510.366 675.723 507.632C677.204 504.881 679.214 502.782 681.753 501.333C684.309 499.884 687.165 499.16 690.323 499.16C693.008 499.16 695.458 499.673 697.671 500.698C699.901 501.724 701.716 503.148 703.116 504.971C704.515 506.794 705.362 508.861 705.655 511.172H697.207Z" fill="black"/>
</g>
<g filter="url(#filter1_d_24_152)">
<rect x="1374" y="535" width="400" height="75" rx="30" fill="#1F2021"/>
<path d="M1531.25 577.47L1530.47 582H1527.83L1528.61 577.47H1519.67L1520.03 575.37L1528.82 560.79L1531.13 561.78L1523.18 575.07H1529.03L1530.11 569.1H1532.75L1531.67 575.07H1534.25L1533.83 577.47H1531.25ZM1552.12 565.71C1552.12 566.75 1551.87 567.69 1551.37 568.53C1550.89 569.35 1550.25 570.1 1549.45 570.78C1548.65 571.46 1547.79 572.12 1546.87 572.76C1545.97 573.38 1545.09 574.03 1544.23 574.71C1543.39 575.37 1542.66 576.09 1542.04 576.87C1541.42 577.65 1541.01 578.54 1540.81 579.54H1550.35L1549.93 582H1537.87C1537.85 581.84 1537.83 581.66 1537.81 581.46C1537.79 581.26 1537.78 581.07 1537.78 580.89C1537.78 579.49 1538.05 578.26 1538.59 577.2C1539.15 576.12 1539.86 575.16 1540.72 574.32C1541.6 573.48 1542.52 572.71 1543.48 572.01C1544.46 571.31 1545.38 570.65 1546.24 570.03C1547.12 569.39 1547.83 568.74 1548.37 568.08C1548.93 567.42 1549.21 566.7 1549.21 565.92C1549.21 565.04 1548.91 564.34 1548.31 563.82C1547.71 563.3 1546.97 563.04 1546.09 563.04C1545.23 563.04 1544.45 563.2 1543.75 563.52C1543.07 563.84 1542.39 564.29 1541.71 564.87L1540.45 562.83C1541.27 562.17 1542.16 561.64 1543.12 561.24C1544.08 560.84 1545.18 560.64 1546.42 560.64C1547.56 560.64 1548.55 560.86 1549.39 561.3C1550.25 561.74 1550.92 562.34 1551.4 563.1C1551.88 563.86 1552.12 564.73 1552.12 565.71ZM1566.71 576.6C1566.67 576.86 1566.64 577.1 1566.62 577.32C1566.6 577.52 1566.59 577.7 1566.59 577.86C1566.59 578.54 1566.79 579.07 1567.19 579.45C1567.61 579.83 1568.16 580.02 1568.84 580.02C1569.18 580.02 1569.52 579.98 1569.86 579.9C1570.2 579.82 1570.51 579.71 1570.79 579.57L1571.06 581.76C1570.7 581.94 1570.28 582.08 1569.8 582.18C1569.32 582.3 1568.8 582.36 1568.24 582.36C1567.04 582.36 1566.01 582.02 1565.15 581.34C1564.31 580.64 1563.89 579.59 1563.89 578.19C1563.89 577.67 1563.93 577.16 1564.01 576.66L1566.95 559.8H1569.65L1566.71 576.6ZM1579.31 582.36C1577.83 582.36 1576.55 582.06 1575.47 581.46C1574.39 580.86 1573.55 580.03 1572.95 578.97C1572.37 577.89 1572.08 576.67 1572.08 575.31C1572.08 573.57 1572.43 572 1573.13 570.6C1573.85 569.2 1574.85 568.09 1576.13 567.27C1577.41 566.45 1578.92 566.04 1580.66 566.04C1582.14 566.04 1583.42 566.34 1584.5 566.94C1585.58 567.54 1586.41 568.37 1586.99 569.43C1587.59 570.49 1587.89 571.71 1587.89 573.09C1587.89 574.81 1587.54 576.38 1586.84 577.8C1586.14 579.2 1585.14 580.31 1583.84 581.13C1582.56 581.95 1581.05 582.36 1579.31 582.36ZM1579.4 579.96C1580.6 579.96 1581.62 579.67 1582.46 579.09C1583.32 578.49 1583.98 577.69 1584.44 576.69C1584.9 575.69 1585.13 574.57 1585.13 573.33C1585.13 572.41 1584.95 571.59 1584.59 570.87C1584.23 570.13 1583.71 569.54 1583.03 569.1C1582.35 568.66 1581.53 568.44 1580.57 568.44C1579.39 568.44 1578.37 568.74 1577.51 569.34C1576.65 569.92 1575.99 570.71 1575.53 571.71C1575.07 572.71 1574.84 573.83 1574.84 575.07C1574.84 575.97 1575.02 576.79 1575.38 577.53C1575.74 578.27 1576.26 578.86 1576.94 579.3C1577.62 579.74 1578.44 579.96 1579.4 579.96ZM1599.69 566.04C1600.87 566.04 1601.91 566.16 1602.81 566.4C1603.71 566.64 1604.45 566.88 1605.03 567.12L1602.42 582.18C1602.18 583.56 1601.81 584.69 1601.31 585.57C1600.83 586.45 1600.26 587.13 1599.6 587.61C1598.96 588.11 1598.28 588.46 1597.56 588.66C1596.84 588.86 1596.13 588.96 1595.43 588.96C1594.07 588.96 1592.91 588.68 1591.95 588.12C1591.01 587.56 1590.24 586.91 1589.64 586.17L1591.74 584.61C1592.72 585.95 1594.01 586.62 1595.61 586.62C1596.61 586.62 1597.49 586.25 1598.25 585.51C1599.01 584.77 1599.55 583.51 1599.87 581.73L1600.38 578.79C1599.82 579.69 1599.12 580.45 1598.28 581.07C1597.46 581.69 1596.53 582 1595.49 582C1594.53 582 1593.61 581.76 1592.73 581.28C1591.87 580.8 1591.16 580.1 1590.6 579.18C1590.06 578.26 1589.79 577.13 1589.79 575.79C1589.79 573.85 1590.22 572.15 1591.08 570.69C1591.94 569.23 1593.12 568.09 1594.62 567.27C1596.12 566.45 1597.81 566.04 1599.69 566.04ZM1592.55 575.49C1592.55 576.39 1592.72 577.15 1593.06 577.77C1593.42 578.37 1593.88 578.83 1594.44 579.15C1595 579.45 1595.59 579.6 1596.21 579.6C1596.97 579.6 1597.69 579.33 1598.37 578.79C1599.05 578.25 1599.64 577.49 1600.14 576.51C1600.66 575.53 1601.04 574.38 1601.28 573.06L1602.06 568.71C1601.68 568.59 1601.28 568.5 1600.86 568.44C1600.44 568.36 1599.95 568.32 1599.39 568.32C1598.05 568.32 1596.86 568.64 1595.82 569.28C1594.8 569.9 1594 570.75 1593.42 571.83C1592.84 572.91 1592.55 574.13 1592.55 575.49ZM1611.52 563.73C1610.96 563.73 1610.53 563.57 1610.23 563.25C1609.95 562.91 1609.81 562.52 1609.81 562.08C1609.81 561.44 1610.01 560.93 1610.41 560.55C1610.81 560.15 1611.31 559.95 1611.91 559.95C1612.47 559.95 1612.89 560.12 1613.17 560.46C1613.47 560.78 1613.62 561.16 1613.62 561.6C1613.62 562.22 1613.42 562.73 1613.02 563.13C1612.62 563.53 1612.12 563.73 1611.52 563.73ZM1609.51 582H1606.81L1609.54 566.4H1612.24L1609.51 582ZM1623.99 568.41C1623.29 568.41 1622.53 568.67 1621.71 569.19C1620.89 569.71 1620.13 570.52 1619.43 571.62C1618.75 572.7 1618.26 574.09 1617.96 575.79L1616.88 582H1614.18L1616.91 566.4H1619.52L1618.86 570C1619.48 568.8 1620.31 567.84 1621.35 567.12C1622.41 566.4 1623.52 566.04 1624.68 566.04C1626.04 566.04 1627.13 566.46 1627.95 567.3C1628.77 568.12 1629.18 569.13 1629.18 570.33C1629.18 570.83 1629.12 571.46 1629 572.22L1627.29 582H1624.59L1626.24 572.67C1626.34 572.19 1626.4 571.84 1626.42 571.62C1626.44 571.38 1626.45 571.16 1626.45 570.96C1626.45 570.18 1626.22 569.56 1625.76 569.1C1625.32 568.64 1624.73 568.41 1623.99 568.41Z" fill="white"/>
</g>
<path d="M1462 573.9L1455.54 580.339H1462V573.9ZM1455.54 567.459L1449.11 573.902V580.339H1455.54V573.9L1462 567.459V561.001H1455.54V567.459ZM1449.11 567.459L1455.54 561.001H1449.11V567.459ZM1427 579.115H1439.89V585.576H1446.33V573.9H1433.46L1446.33 561H1439.89L1427 573.902V579.115Z" fill="#F7F8FA"/>
<rect x="1462" y="305" width="210" height="100" rx="50" fill="black"/>
<rect x="1497" y="341" width="6" height="30" rx="3" fill="#F7F8FA"/>
<rect x="1485" y="353" width="30" height="6" rx="3" fill="#F7F8FA"/>
<rect x="1527" y="325" width="80" height="60" rx="5" fill="#F7F8FA"/>
<rect x="1635" y="342" width="10" height="6" rx="3" fill="#F7F8FA"/>
<rect x="1625" y="352" width="10" height="6" rx="3" fill="#F7F8FA"/>
<rect x="1635" y="361" width="10" height="6" rx="3" fill="#F7F8FA"/>
<rect x="1645" y="352" width="10" height="6" rx="3" fill="#F7F8FA"/>
<path d="M1478.64 421.45C1481.38 421.45 1483.36 422.11 1484.58 423.43C1485.82 424.75 1486.18 426.63 1485.66 429.07C1485.4 430.29 1484.97 431.39 1484.37 432.37C1483.79 433.33 1483.05 434.15 1482.15 434.83C1481.27 435.51 1480.25 436.04 1479.09 436.42C1477.95 436.78 1476.69 436.96 1475.31 436.96H1469.67L1467.99 445H1462.74L1467.72 421.45H1478.64ZM1475.94 432.91C1477.14 432.91 1478.13 432.57 1478.91 431.89C1479.69 431.19 1480.19 430.3 1480.41 429.22C1480.65 428.14 1480.53 427.25 1480.05 426.55C1479.57 425.85 1478.73 425.5 1477.53 425.5H1472.13L1470.54 432.91H1475.94ZM1506.21 433.21C1506.49 431.91 1506.56 430.75 1506.42 429.73C1506.3 428.71 1506 427.86 1505.52 427.18C1505.06 426.48 1504.44 425.95 1503.66 425.59C1502.9 425.23 1502.01 425.05 1500.99 425.05C1499.97 425.05 1498.99 425.23 1498.05 425.59C1497.13 425.95 1496.29 426.48 1495.53 427.18C1494.77 427.86 1494.11 428.71 1493.55 429.73C1492.99 430.75 1492.57 431.91 1492.29 433.21C1492.01 434.51 1491.93 435.67 1492.05 436.69C1492.19 437.71 1492.49 438.57 1492.95 439.27C1493.43 439.97 1494.05 440.5 1494.81 440.86C1495.59 441.22 1496.49 441.4 1497.51 441.4C1499.67 441.4 1501.52 440.69 1503.06 439.27C1504.6 437.85 1505.65 435.83 1506.21 433.21ZM1511.46 433.21C1511.06 435.13 1510.43 436.85 1509.57 438.37C1508.73 439.89 1507.68 441.18 1506.42 442.24C1505.18 443.28 1503.74 444.08 1502.1 444.64C1500.46 445.18 1498.65 445.45 1496.67 445.45C1494.91 445.45 1493.34 445.16 1491.96 444.58C1490.6 443.98 1489.49 443.15 1488.63 442.09C1487.77 441.01 1487.19 439.72 1486.89 438.22C1486.59 436.72 1486.64 435.05 1487.04 433.21C1487.46 431.29 1488.09 429.58 1488.93 428.08C1489.79 426.56 1490.84 425.28 1492.08 424.24C1493.34 423.18 1494.79 422.38 1496.43 421.84C1498.07 421.28 1499.88 421 1501.86 421C1503.7 421 1505.3 421.29 1506.66 421.87C1508.04 422.43 1509.15 423.25 1509.99 424.33C1510.83 425.39 1511.38 426.67 1511.64 428.17C1511.9 429.67 1511.84 431.35 1511.46 433.21ZM1528.88 436.81L1532.12 421.45H1537.34L1532.36 445H1528.31L1521.26 431.11L1520.87 429.64L1517.63 445H1512.41L1517.39 421.45H1521.44L1528.49 435.34L1528.88 436.81ZM1562.32 433.57C1561.94 435.41 1561.34 437.06 1560.52 438.52C1559.72 439.98 1558.71 441.23 1557.49 442.27C1556.29 443.29 1554.87 444.08 1553.23 444.64C1551.61 445.18 1549.8 445.45 1547.8 445.45C1546 445.45 1544.41 445.17 1543.03 444.61C1541.67 444.05 1540.57 443.25 1539.73 442.21C1538.89 441.17 1538.33 439.89 1538.05 438.37C1537.79 436.85 1537.87 435.13 1538.29 433.21C1538.71 431.29 1539.37 429.57 1540.27 428.05C1541.17 426.53 1542.26 425.25 1543.54 424.21C1544.84 423.17 1546.29 422.38 1547.89 421.84C1549.49 421.28 1551.2 421 1553.02 421C1554.54 421 1555.91 421.19 1557.13 421.57C1558.35 421.95 1559.39 422.51 1560.25 423.25C1561.11 423.97 1561.77 424.86 1562.23 425.92C1562.69 426.98 1562.92 428.18 1562.92 429.52H1557.61C1557.49 428.06 1556.95 426.95 1555.99 426.19C1555.05 425.43 1553.77 425.05 1552.15 425.05C1551.15 425.05 1550.19 425.24 1549.27 425.62C1548.37 425.98 1547.54 426.51 1546.78 427.21C1546.02 427.89 1545.36 428.74 1544.8 429.76C1544.24 430.78 1543.82 431.93 1543.54 433.21C1543.26 434.51 1543.18 435.67 1543.3 436.69C1543.42 437.69 1543.7 438.54 1544.14 439.24C1544.6 439.94 1545.21 440.48 1545.97 440.86C1546.75 441.22 1547.65 441.4 1548.67 441.4C1549.79 441.4 1550.79 441.26 1551.67 440.98C1552.55 440.7 1553.31 440.31 1553.95 439.81C1554.61 439.29 1555.16 438.68 1555.6 437.98C1556.04 437.28 1556.39 436.52 1556.65 435.7H1549.27L1550.11 431.8H1562.71L1562.32 433.57ZM1597.23 433.57C1596.85 435.41 1596.25 437.06 1595.43 438.52C1594.63 439.98 1593.62 441.23 1592.4 442.27C1591.2 443.29 1589.78 444.08 1588.14 444.64C1586.52 445.18 1584.71 445.45 1582.71 445.45C1580.91 445.45 1579.32 445.17 1577.94 444.61C1576.58 444.05 1575.48 443.25 1574.64 442.21C1573.8 441.17 1573.24 439.89 1572.96 438.37C1572.7 436.85 1572.78 435.13 1573.2 433.21C1573.62 431.29 1574.28 429.57 1575.18 428.05C1576.08 426.53 1577.17 425.25 1578.45 424.21C1579.75 423.17 1581.2 422.38 1582.8 421.84C1584.4 421.28 1586.11 421 1587.93 421C1589.45 421 1590.82 421.19 1592.04 421.57C1593.26 421.95 1594.3 422.51 1595.16 423.25C1596.02 423.97 1596.68 424.86 1597.14 425.92C1597.6 426.98 1597.83 428.18 1597.83 429.52H1592.52C1592.4 428.06 1591.86 426.95 1590.9 426.19C1589.96 425.43 1588.68 425.05 1587.06 425.05C1586.06 425.05 1585.1 425.24 1584.18 425.62C1583.28 425.98 1582.45 426.51 1581.69 427.21C1580.93 427.89 1580.27 428.74 1579.71 429.76C1579.15 430.78 1578.73 431.93 1578.45 433.21C1578.17 434.51 1578.09 435.67 1578.21 436.69C1578.33 437.69 1578.61 438.54 1579.05 439.24C1579.51 439.94 1580.12 440.48 1580.88 440.86C1581.66 441.22 1582.56 441.4 1583.58 441.4C1584.7 441.4 1585.7 441.26 1586.58 440.98C1587.46 440.7 1588.22 440.31 1588.86 439.81C1589.52 439.29 1590.07 438.68 1590.51 437.98C1590.95 437.28 1591.3 436.52 1591.56 435.7H1584.18L1585.02 431.8H1597.62L1597.23 433.57ZM1612.29 440.08H1603.23L1600.53 445H1595.28L1609.02 421.45H1614.42L1618.2 445H1612.95L1612.29 440.08ZM1609.95 427.96L1605.45 436.09H1611.78L1610.73 427.96L1610.64 426.58L1609.95 427.96ZM1628.97 431.02L1628.88 429.19L1625.52 445H1620.3L1625.28 421.45H1631.25L1634.04 434.98L1634.16 436.69L1635 434.98L1643.55 421.45H1649.52L1644.54 445H1639.32L1642.68 429.19L1641.81 431.02L1634.73 442.48H1631.13L1628.97 431.02ZM1653.43 421.45H1671.55L1670.71 425.5H1657.84L1656.64 431.08H1668.91L1668.07 435.1H1655.8L1654.54 440.95H1667.71L1666.87 445H1648.45L1653.43 421.45Z" fill="black"/>
<path d="M1564.79 334C1570.04 334 1575.07 336.085 1578.79 339.797C1582.5 343.509 1584.58 348.543 1584.58 353.792C1584.58 356.979 1583.83 359.987 1582.49 362.654L1587.62 367.787C1588.02 368.178 1588.23 368.708 1588.23 369.26C1588.23 369.813 1588.02 370.343 1587.62 370.733L1581.73 376.625C1581.54 376.819 1581.31 376.972 1581.06 377.077C1580.8 377.182 1580.53 377.236 1580.26 377.236C1579.99 377.236 1579.71 377.182 1579.46 377.077C1579.21 376.972 1578.98 376.819 1578.79 376.625L1573.65 371.494C1570.9 372.872 1567.87 373.588 1564.79 373.583C1559.54 373.583 1554.51 371.498 1550.8 367.786C1547.09 364.075 1545 359.041 1545 353.792C1545 348.543 1547.09 343.509 1550.8 339.797C1554.51 336.085 1559.54 334 1564.79 334ZM1575.84 361.892L1572.89 364.837L1580.26 372.202L1583.21 369.256L1575.84 361.892ZM1579.72 349.173L1560.17 368.723C1561.67 369.184 1563.23 369.418 1564.79 369.417C1566.75 369.419 1568.68 369.055 1570.5 368.342L1568.47 366.312C1568.08 365.922 1567.87 365.392 1567.87 364.84C1567.87 364.287 1568.08 363.757 1568.47 363.367L1574.37 357.475C1574.76 357.084 1575.29 356.865 1575.84 356.865C1576.39 356.865 1576.92 357.084 1577.31 357.475L1579.34 359.5C1580.05 357.681 1580.42 355.745 1580.42 353.792C1580.42 352.183 1580.17 350.633 1579.72 349.173ZM1564.79 338.167C1561.43 338.166 1558.16 339.248 1555.47 341.253C1552.77 343.257 1550.79 346.076 1549.83 349.293C1548.86 352.51 1548.95 355.953 1550.1 359.111C1551.24 362.269 1553.37 364.975 1556.17 366.827L1577.83 345.175C1576.4 343.02 1574.47 341.251 1572.19 340.028C1569.92 338.805 1567.37 338.165 1564.79 338.167Z" fill="black"/>
<defs>
<filter id="filter0_d_24_152" x="490.758" y="499.16" width="219.238" height="44.3281" filterUnits="userSpaceOnUse" color-interpolation-filters="sRGB">
<feFlood flood-opacity="0" result="BackgroundImageFix"/>
<feColorMatrix in="SourceAlpha" type="matrix" values="0 0 0 0 0 0 0 0 0 0 0 0 0 0 0 0 0 0 127 0" result="hardAlpha"/>
<feOffset dy="4"/>
<feGaussianBlur stdDeviation="2"/>
<feComposite in2="hardAlpha" operator="out"/>
<feColorMatrix type="matrix" values="0 0 0 0 0 0 0 0 0 0 0 0 0 0 0 0 0 0 0.25 0"/>
<feBlend mode="normal" in2="BackgroundImageFix" result="effect1_dropShadow_24_152"/>
<feBlend mode="normal" in="SourceGraphic" in2="effect1_dropShadow_24_152" result="shape"/>
</filter>
<filter id="filter1_d_24_152" x="1370" y="535" width="408" height="83" filterUnits="userSpaceOnUse" color-interpolation-filters="sRGB">
<feFlood flood-opacity="0" result="BackgroundImageFix"/>
<feColorMatrix in="SourceAlpha" type="matrix" values="0 0 0 0 0 0 0 0 0 0 0 0 0 0 0 0 0 0 127 0" result="hardAlpha"/>
<feOffset dy="4"/>
<feGaussianBlur stdDeviation="2"/>
<feComposite in2="hardAlpha" operator="out"/>
<feColorMatrix type="matrix" values="0 0 0 0 0 0 0 0 0 0 0 0 0 0 0 0 0 0 0.25 0"/>
<feBlend mode="normal" in2="BackgroundImageFix" result="effect1_dropShadow_24_152"/>
<feBlend mode="normal" in="SourceGraphic" in2="effect1_dropShadow_24_152" result="shape"/>
</filter>
</defs>
</svg>
