<svg width="1920" height="1080" viewBox="0 0 1920 1080" fill="none" xmlns="http://www.w3.org/2000/svg">
<rect width="1920" height="1080" fill="white"/>
<rect x="759" y="524" width="400" height="85" rx="30" fill="#2C73FF"/>
<path d="M884.554 552.719L894.085 576H894.437L903.968 552.719H908.187V581H904.866V559.633H904.593L895.804 581H892.679L883.89 559.633H883.655V581H880.335V552.719H884.554ZM912.691 574.984C912.691 572.784 913.44 571.234 914.938 570.336C916.448 569.438 918.355 568.904 920.66 568.734C921.546 568.669 922.535 568.611 923.629 568.559C924.736 568.493 925.66 568.448 926.402 568.422V566.703C926.402 565.336 925.992 564.288 925.172 563.559C924.365 562.816 923.173 562.445 921.598 562.445C920.309 562.445 919.254 562.712 918.434 563.246C917.613 563.767 917.079 564.451 916.832 565.297H913.316C913.46 564.164 913.902 563.161 914.645 562.289C915.387 561.417 916.37 560.74 917.594 560.258C918.831 559.763 920.217 559.516 921.754 559.516C923.785 559.516 925.621 560.036 927.262 561.078C928.902 562.107 929.723 564.086 929.723 567.016V581H926.402V578.109H926.246C925.986 578.656 925.582 579.19 925.035 579.711C924.501 580.219 923.798 580.648 922.926 581C922.066 581.339 921.064 581.508 919.918 581.508C918.564 581.508 917.34 581.247 916.246 580.727C915.152 580.206 914.286 579.457 913.648 578.48C913.01 577.491 912.691 576.326 912.691 574.984ZM916.051 575.141C916.051 576.221 916.454 577.055 917.262 577.641C918.082 578.214 919.163 578.5 920.504 578.5C921.715 578.5 922.763 578.259 923.648 577.777C924.547 577.296 925.23 576.658 925.699 575.863C926.168 575.069 926.402 574.216 926.402 573.305V571.176C926.09 571.189 925.23 571.247 923.824 571.352L921.051 571.547C919.462 571.651 918.232 571.996 917.359 572.582C916.487 573.168 916.051 574.021 916.051 575.141ZM944.071 562.602H939.618V574.906C939.618 576.156 939.865 576.996 940.36 577.426C940.855 577.855 941.532 578.07 942.391 578.07C943.042 578.07 943.707 578.044 944.384 577.992V581.117C943.707 581.221 942.925 581.273 942.04 581.273C941.05 581.273 940.113 581.072 939.227 580.668C938.342 580.251 937.619 579.626 937.059 578.793C936.499 577.96 936.22 576.951 936.22 575.766V562.602H933.016V559.789H936.22V554.711H939.618V559.789H944.071V562.602ZM956.545 581.43C954.578 581.43 952.86 580.967 951.388 580.043C949.93 579.105 948.81 577.81 948.029 576.156C947.248 574.503 946.857 572.615 946.857 570.492C946.857 568.357 947.254 566.462 948.048 564.809C948.856 563.142 949.982 561.846 951.427 560.922C952.886 559.984 954.565 559.516 956.466 559.516C957.964 559.516 959.318 559.796 960.529 560.355C961.74 560.902 962.723 561.684 963.478 562.699C964.246 563.702 964.722 564.867 964.904 566.195H961.545C961.388 565.518 961.089 564.9 960.646 564.34C960.203 563.78 959.63 563.331 958.927 562.992C958.237 562.654 957.443 562.484 956.545 562.484C955.295 562.484 954.188 562.81 953.224 563.461C952.274 564.112 951.532 565.036 950.998 566.234C950.477 567.419 950.216 568.799 950.216 570.375C950.216 572.003 950.47 573.422 950.978 574.633C951.499 575.844 952.235 576.781 953.185 577.445C954.149 578.096 955.268 578.422 956.545 578.422C957.808 578.422 958.882 578.103 959.767 577.465C960.666 576.814 961.258 575.909 961.545 574.75H964.904C964.722 576.026 964.266 577.172 963.537 578.188C962.808 579.19 961.844 579.984 960.646 580.57C959.448 581.143 958.081 581.43 956.545 581.43ZM972.104 581H968.745V552.719H972.104V563.109H972.377C973.445 560.714 975.528 559.516 978.627 559.516C980.867 559.516 982.631 560.193 983.92 561.547C985.209 562.888 985.854 564.88 985.854 567.523V581H982.495V567.758C982.495 566.104 982.058 564.822 981.186 563.91C980.327 562.986 979.135 562.523 977.612 562.523C976.544 562.523 975.593 562.751 974.76 563.207C973.94 563.65 973.289 564.307 972.807 565.18C972.338 566.039 972.104 567.068 972.104 568.266V581ZM990.945 559.789H994.304V581H990.945V559.789ZM992.624 556.273C991.973 556.273 991.42 556.059 990.964 555.629C990.508 555.199 990.28 554.672 990.28 554.047C990.28 553.422 990.508 552.895 990.964 552.465C991.42 552.035 991.973 551.82 992.624 551.82C993.275 551.82 993.835 552.035 994.304 552.465C994.773 552.895 995.007 553.422 995.007 554.047C995.007 554.672 994.773 555.199 994.304 555.629C993.835 556.059 993.275 556.273 992.624 556.273ZM1002.71 581H999.355V559.789H1002.6V563.109H1002.87C1003.4 561.977 1004.18 561.098 1005.2 560.473C1006.22 559.835 1007.52 559.516 1009.08 559.516C1010.54 559.516 1011.8 559.815 1012.87 560.414C1013.94 561 1014.77 561.892 1015.35 563.09C1015.94 564.288 1016.23 565.766 1016.23 567.523V581H1012.87V567.758C1012.87 566.117 1012.45 564.835 1011.6 563.91C1010.76 562.986 1009.58 562.523 1008.07 562.523C1007.02 562.523 1006.1 562.751 1005.29 563.207C1004.49 563.65 1003.85 564.307 1003.4 565.18C1002.94 566.039 1002.71 567.068 1002.71 568.266V581ZM1029.91 589.398C1028.21 589.398 1026.7 589.158 1025.38 588.676C1024.08 588.194 1023.05 587.491 1022.28 586.566C1021.51 585.642 1021.06 584.529 1020.93 583.227H1024.45C1024.68 584.294 1025.27 585.102 1026.2 585.648C1027.15 586.195 1028.39 586.469 1029.91 586.469C1031.79 586.469 1033.24 586.052 1034.25 585.219C1035.27 584.385 1035.77 583.109 1035.77 581.391V577.094H1035.5C1035.12 577.732 1034.73 578.292 1034.31 578.773C1033.89 579.255 1033.27 579.698 1032.43 580.102C1031.61 580.492 1030.58 580.688 1029.33 580.688C1027.6 580.688 1026.05 580.264 1024.68 579.418C1023.31 578.572 1022.24 577.354 1021.46 575.766C1020.69 574.164 1020.31 572.276 1020.31 570.102C1020.31 567.966 1020.69 566.098 1021.46 564.496C1022.23 562.895 1023.29 561.664 1024.66 560.805C1026.03 559.945 1027.6 559.516 1029.37 559.516C1030.6 559.516 1031.63 559.717 1032.45 560.121C1033.29 560.525 1033.88 560.941 1034.23 561.371C1034.6 561.788 1035.05 562.38 1035.58 563.148H1035.85V559.789H1039.13V581.586C1039.13 583.344 1038.73 584.802 1037.92 585.961C1037.13 587.133 1036.04 587.999 1034.66 588.559C1033.28 589.118 1031.7 589.398 1029.91 589.398ZM1029.8 577.68C1031.72 577.68 1033.22 577.029 1034.27 575.727C1035.32 574.411 1035.85 572.576 1035.85 570.219C1035.85 568.695 1035.62 567.354 1035.15 566.195C1034.68 565.036 1033.99 564.138 1033.08 563.5C1032.18 562.849 1031.09 562.523 1029.8 562.523C1028.48 562.523 1027.37 562.862 1026.46 563.539C1025.55 564.216 1024.86 565.141 1024.39 566.312C1023.93 567.471 1023.7 568.773 1023.7 570.219C1023.7 571.703 1023.93 573.005 1024.39 574.125C1024.86 575.245 1025.55 576.117 1026.46 576.742C1027.37 577.367 1028.48 577.68 1029.8 577.68Z" fill="white"/>
<rect x="761" y="644" width="400" height="85" rx="30" fill="#2C73FF"/>
<path d="M844.83 701H841.315V672.719H844.83V701ZM853.71 701H850.351V679.789H853.593V683.109H853.866C854.4 681.977 855.175 681.098 856.191 680.473C857.219 679.835 858.515 679.516 860.077 679.516C861.536 679.516 862.799 679.815 863.866 680.414C864.934 681 865.761 681.892 866.347 683.09C866.933 684.288 867.226 685.766 867.226 687.523V701H863.866V687.758C863.866 686.117 863.443 684.835 862.597 683.91C861.751 682.986 860.572 682.523 859.062 682.523C858.02 682.523 857.096 682.751 856.288 683.207C855.481 683.65 854.849 684.307 854.394 685.18C853.938 686.039 853.71 687.068 853.71 688.266V701ZM881.145 701H877.668L869.855 679.789H873.527L879.309 696.625H879.543L885.324 679.789H888.996L881.145 701ZM892.407 679.789H895.766V701H892.407V679.789ZM894.087 676.273C893.436 676.273 892.882 676.059 892.427 675.629C891.971 675.199 891.743 674.672 891.743 674.047C891.743 673.422 891.971 672.895 892.427 672.465C892.882 672.035 893.436 671.82 894.087 671.82C894.738 671.82 895.298 672.035 895.766 672.465C896.235 672.895 896.47 673.422 896.47 674.047C896.47 674.672 896.235 675.199 895.766 675.629C895.298 676.059 894.738 676.273 894.087 676.273ZM910.076 682.602H905.623V694.906C905.623 696.156 905.87 696.996 906.365 697.426C906.86 697.855 907.537 698.07 908.396 698.07C909.047 698.07 909.711 698.044 910.388 697.992V701.117C909.711 701.221 908.93 701.273 908.045 701.273C907.055 701.273 906.117 701.072 905.232 700.668C904.347 700.251 903.624 699.626 903.064 698.793C902.504 697.96 902.224 696.951 902.224 695.766V682.602H899.021V679.789H902.224V674.711H905.623V679.789H910.076V682.602ZM922.784 701.43C920.765 701.43 919.008 700.98 917.51 700.082C916.013 699.184 914.86 697.914 914.053 696.273C913.259 694.633 912.862 692.732 912.862 690.57C912.862 688.409 913.259 686.495 914.053 684.828C914.86 683.148 915.987 681.846 917.432 680.922C918.89 679.984 920.57 679.516 922.471 679.516C924.073 679.516 925.564 679.874 926.944 680.59C928.324 681.293 929.444 682.439 930.303 684.027C931.176 685.603 931.612 687.628 931.612 690.102V691.508H916.221C916.273 692.979 916.579 694.236 917.139 695.277C917.699 696.319 918.461 697.113 919.424 697.66C920.401 698.194 921.521 698.461 922.784 698.461C923.982 698.461 924.991 698.24 925.811 697.797C926.644 697.341 927.276 696.755 927.705 696.039H931.299C930.961 697.107 930.394 698.051 929.6 698.871C928.819 699.678 927.842 700.31 926.67 700.766C925.511 701.208 924.216 701.43 922.784 701.43ZM928.213 688.656C928.213 687.471 927.972 686.417 927.491 685.492C927.022 684.555 926.351 683.819 925.479 683.285C924.607 682.751 923.604 682.484 922.471 682.484C921.286 682.484 920.232 682.764 919.307 683.324C918.396 683.884 917.673 684.639 917.139 685.59C916.618 686.527 916.319 687.549 916.241 688.656H928.213ZM944.41 694.984C944.41 692.784 945.159 691.234 946.656 690.336C948.167 689.438 950.074 688.904 952.379 688.734C953.264 688.669 954.254 688.611 955.348 688.559C956.454 688.493 957.379 688.448 958.121 688.422V686.703C958.121 685.336 957.711 684.288 956.891 683.559C956.083 682.816 954.892 682.445 953.316 682.445C952.027 682.445 950.973 682.712 950.152 683.246C949.332 683.767 948.798 684.451 948.551 685.297H945.035C945.178 684.164 945.621 683.161 946.363 682.289C947.105 681.417 948.089 680.74 949.312 680.258C950.549 679.763 951.936 679.516 953.473 679.516C955.504 679.516 957.34 680.036 958.98 681.078C960.621 682.107 961.441 684.086 961.441 687.016V701H958.121V698.109H957.965C957.704 698.656 957.301 699.19 956.754 699.711C956.22 700.219 955.517 700.648 954.645 701C953.785 701.339 952.783 701.508 951.637 701.508C950.283 701.508 949.059 701.247 947.965 700.727C946.871 700.206 946.005 699.457 945.367 698.48C944.729 697.491 944.41 696.326 944.41 694.984ZM947.77 695.141C947.77 696.221 948.173 697.055 948.98 697.641C949.801 698.214 950.882 698.5 952.223 698.5C953.434 698.5 954.482 698.259 955.367 697.777C956.266 697.296 956.949 696.658 957.418 695.863C957.887 695.069 958.121 694.216 958.121 693.305V691.176C957.809 691.189 956.949 691.247 955.543 691.352L952.77 691.547C951.181 691.651 949.951 691.996 949.078 692.582C948.206 693.168 947.77 694.021 947.77 695.141ZM976.701 672.719H993.732V675.844H980.216V685.297H992.443V688.383H980.216V701H976.701V672.719ZM998.002 679.789H1001.24V683.031H1001.48C1001.87 681.951 1002.57 681.085 1003.57 680.434C1004.57 679.77 1005.7 679.438 1006.95 679.438C1007.6 679.438 1008.18 679.464 1008.71 679.516V682.914C1008.56 682.862 1008.28 682.81 1007.87 682.758C1007.46 682.706 1007.06 682.68 1006.67 682.68C1005.67 682.68 1004.77 682.895 1003.96 683.324C1003.15 683.754 1002.51 684.346 1002.05 685.102C1001.59 685.857 1001.36 686.703 1001.36 687.641V701H998.002V679.789ZM1011.69 679.789H1015.05V701H1011.69V679.789ZM1013.37 676.273C1012.72 676.273 1012.16 676.059 1011.71 675.629C1011.25 675.199 1011.02 674.672 1011.02 674.047C1011.02 673.422 1011.25 672.895 1011.71 672.465C1012.16 672.035 1012.72 671.82 1013.37 671.82C1014.02 671.82 1014.58 672.035 1015.05 672.465C1015.51 672.895 1015.75 673.422 1015.75 674.047C1015.75 674.672 1015.51 675.199 1015.05 675.629C1014.58 676.059 1014.02 676.273 1013.37 676.273ZM1029 701.43C1026.99 701.43 1025.23 700.98 1023.73 700.082C1022.23 699.184 1021.08 697.914 1020.27 696.273C1019.48 694.633 1019.08 692.732 1019.08 690.57C1019.08 688.409 1019.48 686.495 1020.27 684.828C1021.08 683.148 1022.21 681.846 1023.65 680.922C1025.11 679.984 1026.79 679.516 1028.69 679.516C1030.29 679.516 1031.78 679.874 1033.16 680.59C1034.54 681.293 1035.66 682.439 1036.52 684.027C1037.4 685.603 1037.83 687.628 1037.83 690.102V691.508H1022.44C1022.49 692.979 1022.8 694.236 1023.36 695.277C1023.92 696.319 1024.68 697.113 1025.64 697.66C1026.62 698.194 1027.74 698.461 1029 698.461C1030.2 698.461 1031.21 698.24 1032.03 697.797C1032.86 697.341 1033.5 696.755 1033.93 696.039H1037.52C1037.18 697.107 1036.61 698.051 1035.82 698.871C1035.04 699.678 1034.06 700.31 1032.89 700.766C1031.73 701.208 1030.44 701.43 1029 701.43ZM1034.43 688.656C1034.43 687.471 1034.19 686.417 1033.71 685.492C1033.24 684.555 1032.57 683.819 1031.7 683.285C1030.83 682.751 1029.82 682.484 1028.69 682.484C1027.51 682.484 1026.45 682.764 1025.53 683.324C1024.62 683.884 1023.89 684.639 1023.36 685.59C1022.84 686.527 1022.54 687.549 1022.46 688.656H1034.43ZM1045.27 701H1041.91V679.789H1045.15V683.109H1045.42C1045.96 681.977 1046.73 681.098 1047.75 680.473C1048.78 679.835 1050.07 679.516 1051.63 679.516C1053.09 679.516 1054.35 679.815 1055.42 680.414C1056.49 681 1057.32 681.892 1057.9 683.09C1058.49 684.288 1058.78 685.766 1058.78 687.523V701H1055.42V687.758C1055.42 686.117 1055 684.835 1054.15 683.91C1053.31 682.986 1052.13 682.523 1050.62 682.523C1049.58 682.523 1048.65 682.751 1047.84 683.207C1047.04 683.65 1046.41 684.307 1045.95 685.18C1045.49 686.039 1045.27 687.068 1045.27 688.266V701ZM1071.88 701.43C1070.12 701.43 1068.56 700.98 1067.19 700.082C1065.84 699.184 1064.78 697.908 1064.01 696.254C1063.24 694.587 1062.86 692.654 1062.86 690.453C1062.86 688.253 1063.24 686.326 1064.01 684.672C1064.78 683.018 1065.85 681.749 1067.21 680.863C1068.58 679.965 1070.15 679.516 1071.92 679.516C1073.17 679.516 1074.2 679.724 1075.02 680.141C1075.85 680.544 1076.45 680.98 1076.84 681.449C1077.23 681.905 1077.64 682.471 1078.05 683.148H1078.29V672.719H1081.69V701H1078.4V697.758H1078.05C1077.61 698.448 1077.19 699.027 1076.78 699.496C1076.39 699.965 1075.79 700.408 1074.97 700.824C1074.15 701.228 1073.12 701.43 1071.88 701.43ZM1072.35 698.422C1073.61 698.422 1074.7 698.09 1075.61 697.426C1076.52 696.749 1077.21 695.805 1077.68 694.594C1078.16 693.37 1078.4 691.964 1078.4 690.375C1078.4 688.799 1078.17 687.426 1077.7 686.254C1077.25 685.069 1076.56 684.151 1075.65 683.5C1074.74 682.849 1073.64 682.523 1072.35 682.523C1071.03 682.523 1069.92 682.868 1069.01 683.559C1068.1 684.236 1067.41 685.167 1066.94 686.352C1066.48 687.536 1066.26 688.878 1066.26 690.375C1066.26 691.911 1066.48 693.292 1066.94 694.516C1067.41 695.727 1068.1 696.684 1069.01 697.387C1069.93 698.077 1071.05 698.422 1072.35 698.422Z" fill="white"/>
<rect width="1920" height="100" fill="#2C73FF" fill-opacity="0.36"/>
<g clip-path="url(#clip0_65_276)">
<path d="M1000.47 451.46C1000.76 451.017 1001.22 450.703 1001.74 450.584C1002.27 450.465 1002.82 450.551 1003.28 450.823C1003.75 451.095 1004.08 451.532 1004.22 452.042C1004.36 452.553 1004.3 453.097 1004.04 453.56C1000.91 458.676 999.015 463.547 998.057 469.185C997.723 471.137 995.04 471.533 994.138 469.763C989.846 461.348 986.1 459.599 979.992 461.597C979.733 461.682 979.458 461.715 979.185 461.696C978.912 461.677 978.646 461.606 978.401 461.485C977.907 461.243 977.531 460.818 977.357 460.304C977.182 459.79 977.223 459.229 977.47 458.744C977.718 458.26 978.151 457.891 978.675 457.72C985.342 455.541 990.459 456.958 994.932 463.078L995.121 463.343L995.144 463.261C996.232 459.528 997.784 456.011 999.88 452.436L1000.47 451.46ZM1008.5 436.17C1007.68 436.17 1006.87 436.328 1006.11 436.636C1005.35 436.944 1004.66 437.396 1004.08 437.965C1003.5 438.534 1003.04 439.209 1002.73 439.952C1002.41 440.696 1002.25 441.493 1002.25 442.297C1002.25 443.102 1002.41 443.899 1002.73 444.642C1003.04 445.386 1003.5 446.061 1004.08 446.63C1004.66 447.199 1005.35 447.65 1006.11 447.958C1006.87 448.266 1007.68 448.425 1008.5 448.425C1010.16 448.425 1011.75 447.779 1012.92 446.63C1014.09 445.481 1014.75 443.922 1014.75 442.297C1014.75 440.672 1014.09 439.114 1012.92 437.965C1011.75 436.815 1010.16 436.17 1008.5 436.17Z" fill="#D7D8E0"/>
</g>
<path d="M1037.23 448.102C1037.15 447.418 1036.9 446.832 1036.48 446.344C1036.07 445.846 1035.52 445.47 1034.84 445.216C1034.16 444.952 1033.39 444.82 1032.54 444.82C1031.62 444.82 1030.81 444.972 1030.09 445.274C1029.39 445.567 1028.84 445.978 1028.45 446.505C1028.07 447.032 1027.88 447.633 1027.88 448.307C1027.88 449.283 1028.28 450.03 1029.07 450.548C1029.87 451.065 1030.84 451.471 1031.98 451.764L1034.09 452.35C1035.73 452.77 1037.14 453.419 1038.33 454.298C1039.51 455.167 1040.1 456.471 1040.1 458.209C1040.1 459.371 1039.79 460.421 1039.18 461.358C1038.57 462.286 1037.69 463.019 1036.52 463.556C1035.37 464.093 1033.99 464.361 1032.39 464.361C1030.89 464.361 1029.58 464.117 1028.45 463.629C1027.33 463.141 1026.45 462.452 1025.82 461.563C1025.18 460.675 1024.82 459.645 1024.75 458.473H1027.44C1027.52 459.234 1027.79 459.879 1028.25 460.406C1028.71 460.924 1029.29 461.314 1030.01 461.578C1030.73 461.832 1031.52 461.959 1032.39 461.959C1033.37 461.959 1034.24 461.803 1035.02 461.49C1035.8 461.178 1036.41 460.733 1036.85 460.157C1037.3 459.571 1037.52 458.902 1037.52 458.15C1037.52 457.506 1037.33 456.964 1036.96 456.524C1036.6 456.085 1036.12 455.729 1035.53 455.455C1034.94 455.182 1034.21 454.918 1033.33 454.664L1030.72 453.961C1028.98 453.453 1027.65 452.75 1026.72 451.852C1025.8 450.953 1025.33 449.811 1025.33 448.424C1025.33 447.262 1025.65 446.231 1026.28 445.333C1026.93 444.425 1027.8 443.722 1028.91 443.224C1030.02 442.726 1031.26 442.477 1032.63 442.477C1033.98 442.477 1035.19 442.721 1036.26 443.209C1037.33 443.697 1038.18 444.371 1038.81 445.23C1039.43 446.08 1039.77 447.037 1039.81 448.102H1037.23ZM1043.26 448.072H1045.69V450.592H1045.98C1046.29 450.084 1046.6 449.659 1046.89 449.317C1047.18 448.966 1047.64 448.639 1048.25 448.336C1048.87 448.023 1049.64 447.867 1050.58 447.867C1051.91 447.867 1053.08 448.204 1054.1 448.878C1055.12 449.542 1055.92 450.494 1056.48 451.734C1057.06 452.975 1057.35 454.42 1057.35 456.07C1057.35 457.721 1057.06 459.171 1056.48 460.421C1055.92 461.661 1055.12 462.618 1054.1 463.292C1053.08 463.966 1051.92 464.303 1050.61 464.303C1049.68 464.303 1048.9 464.151 1048.28 463.849C1047.66 463.536 1047.2 463.199 1046.89 462.838C1046.58 462.467 1046.27 462.037 1045.98 461.549H1045.77V469.957H1043.26V448.072ZM1045.72 456.012C1045.72 457.213 1045.89 458.268 1046.24 459.176C1046.6 460.084 1047.11 460.792 1047.8 461.3C1048.48 461.798 1049.3 462.047 1050.26 462.047C1051.23 462.047 1052.06 461.788 1052.75 461.271C1053.44 460.743 1053.96 460.025 1054.3 459.117C1054.65 458.199 1054.83 457.164 1054.83 456.012C1054.83 454.889 1054.65 453.883 1054.3 452.994C1053.96 452.105 1053.45 451.407 1052.76 450.899C1052.08 450.382 1051.24 450.123 1050.26 450.123C1049.28 450.123 1048.45 450.367 1047.77 450.855C1047.09 451.344 1046.58 452.032 1046.23 452.921C1045.89 453.8 1045.72 454.83 1045.72 456.012ZM1067.01 464.303C1065.49 464.303 1064.18 463.966 1063.05 463.292C1061.93 462.618 1061.07 461.666 1060.46 460.436C1059.86 459.205 1059.57 457.779 1059.57 456.158C1059.57 454.537 1059.86 453.102 1060.46 451.852C1061.07 450.592 1061.91 449.615 1062.99 448.922C1064.09 448.219 1065.35 447.867 1066.77 447.867C1067.97 447.867 1069.09 448.136 1070.13 448.673C1071.16 449.2 1072 450.06 1072.65 451.251C1073.3 452.433 1073.63 453.951 1073.63 455.807V456.861H1062.09C1062.13 457.965 1062.35 458.907 1062.77 459.688C1063.19 460.47 1063.77 461.065 1064.49 461.476C1065.22 461.876 1066.06 462.076 1067.01 462.076C1067.91 462.076 1068.66 461.91 1069.28 461.578C1069.9 461.236 1070.38 460.797 1070.7 460.26H1073.39C1073.14 461.061 1072.72 461.769 1072.12 462.384C1071.53 462.989 1070.8 463.463 1069.92 463.805C1069.05 464.137 1068.08 464.303 1067.01 464.303ZM1071.08 454.723C1071.08 453.834 1070.9 453.043 1070.54 452.35C1070.19 451.646 1069.68 451.095 1069.03 450.694C1068.38 450.294 1067.62 450.094 1066.77 450.094C1065.88 450.094 1065.09 450.304 1064.4 450.724C1063.72 451.144 1063.18 451.71 1062.77 452.423C1062.38 453.126 1062.16 453.893 1062.1 454.723H1071.08ZM1083.11 464.303C1081.64 464.303 1080.35 463.956 1079.25 463.263C1078.15 462.56 1077.31 461.588 1076.73 460.348C1076.14 459.107 1075.85 457.691 1075.85 456.1C1075.85 454.498 1076.15 453.077 1076.74 451.837C1077.35 450.587 1078.19 449.615 1079.28 448.922C1080.37 448.219 1081.63 447.867 1083.06 447.867C1084.18 447.867 1085.19 448.077 1086.1 448.497C1087.01 448.907 1087.75 449.493 1088.31 450.255C1088.89 451.007 1089.25 451.881 1089.38 452.877H1086.86C1086.75 452.369 1086.52 451.905 1086.19 451.485C1085.86 451.065 1085.43 450.729 1084.9 450.475C1084.38 450.221 1083.79 450.094 1083.11 450.094C1082.18 450.094 1081.35 450.338 1080.62 450.826C1079.91 451.314 1079.35 452.008 1078.95 452.906C1078.56 453.795 1078.37 454.83 1078.37 456.012C1078.37 457.232 1078.56 458.297 1078.94 459.205C1079.33 460.113 1079.88 460.816 1080.59 461.314C1081.32 461.803 1082.16 462.047 1083.11 462.047C1084.06 462.047 1084.87 461.808 1085.53 461.329C1086.21 460.841 1086.65 460.162 1086.86 459.293H1089.38C1089.25 460.25 1088.91 461.109 1088.36 461.871C1087.81 462.623 1087.09 463.219 1086.19 463.658C1085.29 464.088 1084.27 464.303 1083.11 464.303ZM1092.19 448.072H1094.71V463.98H1092.19V448.072ZM1093.45 445.436C1092.96 445.436 1092.55 445.274 1092.2 444.952C1091.86 444.63 1091.69 444.234 1091.69 443.766C1091.69 443.297 1091.86 442.901 1092.2 442.579C1092.55 442.257 1092.96 442.096 1093.45 442.096C1093.94 442.096 1094.36 442.257 1094.71 442.579C1095.06 442.901 1095.24 443.297 1095.24 443.766C1095.24 444.234 1095.06 444.63 1094.71 444.952C1094.36 445.274 1093.94 445.436 1093.45 445.436ZM1097.66 459.469C1097.66 457.818 1098.22 456.656 1099.35 455.982C1100.48 455.309 1101.91 454.908 1103.64 454.781C1104.3 454.732 1105.04 454.688 1105.86 454.649C1106.69 454.601 1107.39 454.566 1107.94 454.547V453.258C1107.94 452.232 1107.64 451.446 1107.02 450.899C1106.42 450.343 1105.52 450.064 1104.34 450.064C1103.37 450.064 1102.58 450.265 1101.97 450.665C1101.35 451.056 1100.95 451.568 1100.77 452.203H1098.13C1098.24 451.354 1098.57 450.602 1099.13 449.947C1099.68 449.293 1100.42 448.785 1101.34 448.424C1102.27 448.053 1103.31 447.867 1104.46 447.867C1105.98 447.867 1107.36 448.258 1108.59 449.039C1109.82 449.811 1110.43 451.295 1110.43 453.492V463.98H1107.94V461.812H1107.83C1107.63 462.223 1107.33 462.623 1106.92 463.014C1106.52 463.395 1105.99 463.717 1105.34 463.98C1104.69 464.234 1103.94 464.361 1103.08 464.361C1102.07 464.361 1101.15 464.166 1100.33 463.775C1099.51 463.385 1098.86 462.823 1098.38 462.091C1097.9 461.349 1097.66 460.475 1097.66 459.469ZM1100.18 459.586C1100.18 460.396 1100.48 461.021 1101.09 461.461C1101.7 461.891 1102.51 462.105 1103.52 462.105C1104.43 462.105 1105.21 461.925 1105.88 461.563C1106.55 461.202 1107.07 460.724 1107.42 460.128C1107.77 459.532 1107.94 458.893 1107.94 458.209V456.612C1107.71 456.622 1107.07 456.666 1106.01 456.744L1103.93 456.891C1102.74 456.969 1101.82 457.228 1101.16 457.667C1100.51 458.106 1100.18 458.746 1100.18 459.586ZM1116.7 463.98H1114.18V442.77H1116.7V463.98Z" fill="#D7D8E0"/>
<path d="M804.001 455.563L786.105 437.688L783.168 440.625L800.876 458.333H787.335V462.5H820.668V458.333H807.126L817.855 447.604C818.57 447.864 819.334 447.963 820.091 447.896C820.849 447.829 821.583 447.597 822.241 447.216C822.899 446.835 823.466 446.315 823.902 445.691C824.337 445.068 824.631 444.357 824.763 443.607C824.894 442.858 824.859 442.089 824.662 441.355C824.464 440.62 824.108 439.938 823.619 439.356C823.129 438.774 822.518 438.306 821.828 437.985C821.138 437.665 820.387 437.499 819.626 437.5C818.245 437.5 816.92 438.049 815.943 439.025C814.967 440.002 814.418 441.327 814.418 442.708C814.418 443.438 814.564 444.104 814.835 444.729L804.001 455.563Z" fill="black"/>
<path d="M847.614 461H845.095L833.61 444.477H833.405V461H830.769V439.789H833.317L844.802 456.342H845.007V439.789H847.614V461ZM858.183 461.322C856.748 461.322 855.478 460.985 854.375 460.312C853.281 459.628 852.431 458.666 851.826 457.426C851.221 456.186 850.918 454.75 850.918 453.119C850.918 451.488 851.221 450.053 851.826 448.812C852.431 447.562 853.281 446.596 854.375 445.912C855.478 445.229 856.748 444.887 858.183 444.887C859.609 444.887 860.864 445.229 861.948 445.912C863.042 446.596 863.887 447.562 864.482 448.812C865.088 450.053 865.39 451.488 865.39 453.119C865.39 454.75 865.088 456.186 864.482 457.426C863.887 458.666 863.042 459.628 861.948 460.312C860.864 460.985 859.609 461.322 858.183 461.322ZM858.183 459.096C859.209 459.096 860.073 458.827 860.776 458.29C861.479 457.743 862.002 457.021 862.344 456.122C862.695 455.214 862.871 454.213 862.871 453.119C862.871 452.025 862.695 451.024 862.344 450.116C862.002 449.208 861.479 448.48 860.776 447.934C860.073 447.387 859.209 447.113 858.183 447.113C857.138 447.113 856.26 447.387 855.547 447.934C854.844 448.48 854.316 449.208 853.965 450.116C853.613 451.024 853.437 452.025 853.437 453.119C853.437 454.213 853.613 455.214 853.965 456.122C854.316 457.021 854.844 457.743 855.547 458.29C856.26 458.827 857.138 459.096 858.183 459.096ZM868.401 445.092H870.833V447.523H871.008C871.301 446.713 871.824 446.063 872.576 445.575C873.328 445.077 874.172 444.828 875.11 444.828C875.598 444.828 876.038 444.848 876.428 444.887V447.436C876.321 447.396 876.111 447.357 875.798 447.318C875.496 447.279 875.198 447.26 874.905 447.26C874.153 447.26 873.474 447.421 872.869 447.743C872.263 448.065 871.785 448.51 871.433 449.076C871.091 449.643 870.921 450.277 870.921 450.98V461H868.401V445.092ZM878.589 445.092H881.021V447.582H881.226C881.568 446.723 882.105 446.059 882.837 445.59C883.579 445.121 884.468 444.887 885.503 444.887C886.519 444.887 887.383 445.121 888.096 445.59C888.809 446.049 889.361 446.713 889.751 447.582H889.927C890.347 446.742 890.967 446.083 891.787 445.604C892.608 445.126 893.579 444.887 894.703 444.887C895.669 444.887 896.514 445.087 897.237 445.487C897.969 445.888 898.54 446.498 898.951 447.318C899.361 448.129 899.566 449.145 899.566 450.365V461H897.046V450.395C897.046 449.291 896.744 448.476 896.138 447.948C895.533 447.411 894.761 447.143 893.824 447.143C893.101 447.143 892.476 447.294 891.949 447.597C891.421 447.899 891.021 448.314 890.747 448.842C890.474 449.369 890.337 449.975 890.337 450.658V461H887.788V450.131C887.788 449.545 887.657 449.027 887.393 448.578C887.129 448.119 886.758 447.768 886.28 447.523C885.811 447.27 885.279 447.143 884.683 447.143C884.048 447.143 883.457 447.313 882.911 447.655C882.364 447.987 881.924 448.451 881.592 449.047C881.27 449.643 881.109 450.316 881.109 451.068V461H878.589V445.092ZM902.547 456.488C902.547 454.838 903.109 453.676 904.232 453.002C905.364 452.328 906.795 451.928 908.524 451.801C909.188 451.752 909.93 451.708 910.75 451.669C911.58 451.62 912.274 451.586 912.83 451.566V450.277C912.83 449.252 912.523 448.466 911.907 447.919C911.302 447.362 910.408 447.084 909.227 447.084C908.26 447.084 907.469 447.284 906.854 447.685C906.238 448.075 905.838 448.588 905.653 449.223H903.016C903.123 448.373 903.455 447.621 904.012 446.967C904.569 446.312 905.306 445.805 906.224 445.443C907.152 445.072 908.192 444.887 909.344 444.887C910.867 444.887 912.244 445.277 913.475 446.059C914.705 446.83 915.321 448.314 915.321 450.512V461H912.83V458.832H912.713C912.518 459.242 912.215 459.643 911.805 460.033C911.404 460.414 910.877 460.736 910.223 461C909.578 461.254 908.826 461.381 907.967 461.381C906.951 461.381 906.033 461.186 905.213 460.795C904.393 460.404 903.743 459.843 903.265 459.11C902.786 458.368 902.547 457.494 902.547 456.488ZM905.067 456.605C905.067 457.416 905.369 458.041 905.975 458.48C906.59 458.91 907.401 459.125 908.406 459.125C909.315 459.125 910.101 458.944 910.765 458.583C911.439 458.222 911.951 457.743 912.303 457.147C912.654 456.552 912.83 455.912 912.83 455.229V453.632C912.596 453.642 911.951 453.686 910.897 453.764L908.817 453.91C907.625 453.988 906.702 454.247 906.048 454.687C905.394 455.126 905.067 455.766 905.067 456.605ZM921.583 461H919.063V439.789H921.583V461Z" fill="black"/>
<path d="M800.652 230H794.773L767.977 191.445H767.498V230H761.346V180.508H767.293L794.09 219.131H794.568V180.508H800.652V230ZM825.714 230.752C822.364 230.752 819.402 229.966 816.827 228.394C814.275 226.799 812.292 224.554 810.88 221.66C809.467 218.766 808.761 215.417 808.761 211.611C808.761 207.806 809.467 204.456 810.88 201.562C812.292 198.646 814.275 196.39 816.827 194.795C819.402 193.2 822.364 192.402 825.714 192.402C829.041 192.402 831.969 193.2 834.498 194.795C837.05 196.39 839.021 198.646 840.411 201.562C841.824 204.456 842.53 207.806 842.53 211.611C842.53 215.417 841.824 218.766 840.411 221.66C839.021 224.554 837.05 226.799 834.498 228.394C831.969 229.966 829.041 230.752 825.714 230.752ZM825.714 225.557C828.106 225.557 830.123 224.93 831.763 223.677C833.404 222.401 834.623 220.715 835.421 218.618C836.241 216.499 836.651 214.163 836.651 211.611C836.651 209.059 836.241 206.724 835.421 204.604C834.623 202.485 833.404 200.788 831.763 199.512C830.123 198.236 828.106 197.598 825.714 197.598C823.276 197.598 821.225 198.236 819.561 199.512C817.921 200.788 816.69 202.485 815.87 204.604C815.05 206.724 814.639 209.059 814.639 211.611C814.639 214.163 815.05 216.499 815.87 218.618C816.69 220.715 817.921 222.401 819.561 223.677C821.225 224.93 823.276 225.557 825.714 225.557ZM849.955 192.881H855.629V198.555H856.039C856.722 196.663 857.941 195.148 859.696 194.009C861.45 192.847 863.421 192.266 865.609 192.266C866.748 192.266 867.774 192.311 868.685 192.402V198.35C868.434 198.258 867.945 198.167 867.215 198.076C866.509 197.985 865.814 197.939 865.13 197.939C863.376 197.939 861.792 198.315 860.379 199.067C858.967 199.819 857.85 200.856 857.03 202.178C856.232 203.499 855.834 204.98 855.834 206.621V230H849.955V192.881ZM874.127 192.881H879.801V198.691H880.28C881.077 196.686 882.33 195.137 884.039 194.043C885.771 192.949 887.845 192.402 890.26 192.402C892.63 192.402 894.647 192.949 896.31 194.043C897.973 195.114 899.261 196.663 900.172 198.691H900.582C901.562 196.732 903.009 195.194 904.923 194.077C906.837 192.961 909.105 192.402 911.725 192.402C913.981 192.402 915.952 192.869 917.638 193.804C919.347 194.738 920.68 196.162 921.637 198.076C922.594 199.967 923.073 202.337 923.073 205.186V230H917.194V205.254C917.194 202.679 916.487 200.776 915.075 199.546C913.662 198.293 911.862 197.666 909.674 197.666C907.988 197.666 906.53 198.019 905.299 198.726C904.069 199.432 903.135 200.4 902.496 201.631C901.858 202.861 901.539 204.274 901.539 205.869V230H895.592V204.639C895.592 203.271 895.285 202.064 894.669 201.016C894.054 199.945 893.188 199.124 892.072 198.555C890.978 197.962 889.736 197.666 888.346 197.666C886.865 197.666 885.486 198.065 884.21 198.862C882.934 199.637 881.909 200.719 881.134 202.109C880.382 203.499 880.006 205.072 880.006 206.826V230H874.127V192.881ZM930.429 219.473C930.429 215.622 931.739 212.91 934.36 211.338C937.003 209.766 940.341 208.831 944.374 208.535C945.924 208.421 947.655 208.319 949.57 208.228C951.506 208.114 953.124 208.034 954.423 207.988V204.98C954.423 202.588 953.705 200.754 952.27 199.478C950.857 198.179 948.772 197.529 946.015 197.529C943.759 197.529 941.913 197.996 940.478 198.931C939.042 199.842 938.108 201.038 937.675 202.52H931.523C931.773 200.537 932.548 198.783 933.847 197.256C935.146 195.729 936.866 194.544 939.008 193.701C941.173 192.835 943.599 192.402 946.288 192.402C949.843 192.402 953.056 193.314 955.927 195.137C958.798 196.937 960.234 200.4 960.234 205.527V230H954.423V224.941H954.15C953.694 225.898 952.987 226.833 952.03 227.744C951.096 228.633 949.866 229.385 948.339 230C946.835 230.592 945.081 230.889 943.075 230.889C940.706 230.889 938.564 230.433 936.65 229.521C934.736 228.61 933.22 227.3 932.104 225.591C930.987 223.859 930.429 221.82 930.429 219.473ZM936.308 219.746C936.308 221.637 937.014 223.096 938.427 224.121C939.862 225.124 941.754 225.625 944.101 225.625C946.22 225.625 948.054 225.203 949.604 224.36C951.176 223.517 952.372 222.401 953.193 221.011C954.013 219.621 954.423 218.128 954.423 216.533V212.808C953.876 212.83 952.372 212.933 949.911 213.115L945.058 213.457C942.278 213.639 940.125 214.243 938.598 215.269C937.071 216.294 936.308 217.786 936.308 219.746ZM975.246 230H969.367V180.508H975.246V230ZM1036.1 195.957C1035.01 192.699 1033.25 190.158 1030.84 188.335C1028.44 186.489 1025.53 185.566 1022.09 185.566C1019.13 185.566 1016.45 186.33 1014.06 187.856C1011.69 189.383 1009.81 191.628 1008.42 194.59C1007.05 197.552 1006.36 201.107 1006.36 205.254C1006.36 209.401 1007.06 212.956 1008.45 215.918C1009.84 218.88 1011.75 221.125 1014.19 222.651C1016.63 224.178 1019.4 224.941 1022.5 224.941C1025.28 224.941 1027.73 224.36 1029.85 223.198C1031.99 222.013 1033.65 220.339 1034.84 218.174C1036.04 215.986 1036.67 213.457 1036.72 210.586H1023.8V205.186H1042.73V210.518C1042.73 214.551 1041.87 218.094 1040.13 221.147C1038.4 224.201 1036 226.559 1032.92 228.223C1029.87 229.863 1026.39 230.684 1022.5 230.684C1018.12 230.684 1014.26 229.658 1010.91 227.607C1007.58 225.534 1005 222.583 1003.15 218.755C1001.33 214.904 1000.42 210.404 1000.42 205.254C1000.42 200.127 1001.33 195.649 1003.15 191.821C1005 187.97 1007.56 185.008 1010.84 182.935C1014.12 180.861 1017.87 179.824 1022.09 179.824C1025.53 179.824 1028.68 180.508 1031.56 181.875C1034.43 183.219 1036.81 185.111 1038.7 187.549C1040.59 189.987 1041.84 192.79 1042.46 195.957H1036.1ZM1049.13 219.473C1049.13 215.622 1050.44 212.91 1053.06 211.338C1055.71 209.766 1059.04 208.831 1063.08 208.535C1064.63 208.421 1066.36 208.319 1068.27 208.228C1070.21 208.114 1071.83 208.034 1073.13 207.988V204.98C1073.13 202.588 1072.41 200.754 1070.97 199.478C1069.56 198.179 1067.47 197.529 1064.72 197.529C1062.46 197.529 1060.62 197.996 1059.18 198.931C1057.74 199.842 1056.81 201.038 1056.38 202.52H1050.23C1050.48 200.537 1051.25 198.783 1052.55 197.256C1053.85 195.729 1055.57 194.544 1057.71 193.701C1059.88 192.835 1062.3 192.402 1064.99 192.402C1068.55 192.402 1071.76 193.314 1074.63 195.137C1077.5 196.937 1078.94 200.4 1078.94 205.527V230H1073.13V224.941H1072.85C1072.4 225.898 1071.69 226.833 1070.73 227.744C1069.8 228.633 1068.57 229.385 1067.04 230C1065.54 230.592 1063.78 230.889 1061.78 230.889C1059.41 230.889 1057.27 230.433 1055.35 229.521C1053.44 228.61 1051.92 227.3 1050.81 225.591C1049.69 223.859 1049.13 221.82 1049.13 219.473ZM1055.01 219.746C1055.01 221.637 1055.72 223.096 1057.13 224.121C1058.56 225.124 1060.46 225.625 1062.8 225.625C1064.92 225.625 1066.76 225.203 1068.31 224.36C1069.88 223.517 1071.07 222.401 1071.89 221.011C1072.72 219.621 1073.13 218.128 1073.13 216.533V212.808C1072.58 212.83 1071.07 212.933 1068.61 213.115L1063.76 213.457C1060.98 213.639 1058.83 214.243 1057.3 215.269C1055.77 216.294 1055.01 217.786 1055.01 219.746ZM1088.07 192.881H1093.74V198.691H1094.22C1095.02 196.686 1096.27 195.137 1097.98 194.043C1099.71 192.949 1101.79 192.402 1104.2 192.402C1106.57 192.402 1108.59 192.949 1110.25 194.043C1111.92 195.114 1113.2 196.663 1114.11 198.691H1114.52C1115.5 196.732 1116.95 195.194 1118.87 194.077C1120.78 192.961 1123.05 192.402 1125.67 192.402C1127.92 192.402 1129.89 192.869 1131.58 193.804C1133.29 194.738 1134.62 196.162 1135.58 198.076C1136.54 199.967 1137.01 202.337 1137.01 205.186V230H1131.14V205.254C1131.14 202.679 1130.43 200.776 1129.02 199.546C1127.6 198.293 1125.8 197.666 1123.62 197.666C1121.93 197.666 1120.47 198.019 1119.24 198.726C1118.01 199.432 1117.08 200.4 1116.44 201.631C1115.8 202.861 1115.48 204.274 1115.48 205.869V230H1109.53V204.639C1109.53 203.271 1109.23 202.064 1108.61 201.016C1108 199.945 1107.13 199.124 1106.01 198.555C1104.92 197.962 1103.68 197.666 1102.29 197.666C1100.81 197.666 1099.43 198.065 1098.15 198.862C1096.88 199.637 1095.85 200.719 1095.08 202.109C1094.32 203.499 1093.95 205.072 1093.95 206.826V230H1088.07V192.881ZM1161.73 230.752C1158.2 230.752 1155.13 229.966 1152.51 228.394C1149.89 226.821 1147.87 224.6 1146.46 221.729C1145.07 218.857 1144.37 215.531 1144.37 211.748C1144.37 207.965 1145.07 204.616 1146.46 201.699C1147.87 198.76 1149.84 196.481 1152.37 194.863C1154.92 193.223 1157.86 192.402 1161.19 192.402C1163.99 192.402 1166.6 193.029 1169.01 194.282C1171.43 195.513 1173.39 197.518 1174.89 200.298C1176.42 203.055 1177.18 206.598 1177.18 210.928V213.389H1150.25C1150.34 215.964 1150.88 218.162 1151.86 219.985C1152.84 221.808 1154.17 223.198 1155.86 224.155C1157.56 225.09 1159.52 225.557 1161.73 225.557C1163.83 225.557 1165.6 225.169 1167.03 224.395C1168.49 223.597 1169.6 222.572 1170.35 221.318H1176.64C1176.04 223.187 1175.05 224.839 1173.66 226.274C1172.3 227.687 1170.59 228.792 1168.54 229.59C1166.51 230.365 1164.24 230.752 1161.73 230.752ZM1171.24 208.398C1171.24 206.325 1170.81 204.479 1169.97 202.861C1169.15 201.221 1167.98 199.933 1166.45 198.999C1164.92 198.065 1163.17 197.598 1161.19 197.598C1159.11 197.598 1157.27 198.088 1155.65 199.067C1154.06 200.047 1152.79 201.369 1151.86 203.032C1150.94 204.673 1150.42 206.462 1150.28 208.398H1171.24Z" fill="black"/>
<path d="M646.415 265.25H648.935V285.29H646.415V265.25ZM631.505 289.7H649.745V291.74H631.505V289.7ZM631.505 283.4H633.965V290.78H631.505V283.4ZM634.055 270.41H636.095V271.55C636.095 276.41 633.005 280.43 628.475 281.99L627.245 280.04C631.265 278.72 634.055 275.3 634.055 271.55V270.41ZM634.475 270.41H636.515V271.55C636.515 275.09 639.335 278.3 643.385 279.56L642.185 281.51C637.595 280.04 634.475 276.2 634.475 271.55V270.41ZM627.875 268.85H642.635V270.86H627.875V268.85ZM634.055 265.34H636.515V269.81H634.055V265.34ZM657.063 266.99H674.013V269H657.063V266.99ZM654.003 278.63H678.513V280.67H654.003V278.63ZM664.953 279.98H667.443V292.37H664.953V279.98ZM672.843 266.99H675.273V269.33C675.273 272.15 675.273 275.33 674.253 279.92L671.793 279.59C672.843 275.21 672.843 272.06 672.843 269.33V266.99ZM701.461 276.02H706.471V278.12H701.461V276.02ZM699.631 265.19H702.151V292.34H699.631V265.19ZM682.351 267.86H684.841V284.66H682.351V267.86ZM682.351 283.37H684.511C688.531 283.37 692.641 283.1 697.111 282.17L697.411 284.24C692.791 285.2 688.621 285.47 684.511 285.47H682.351V283.37ZM734.128 265.19H736.648V292.37H734.128V265.19ZM736.048 275.9H741.088V278H736.048V275.9ZM716.938 283.52H719.068C724.078 283.52 727.588 283.34 731.638 282.59L731.908 284.69C727.738 285.47 724.168 285.62 719.068 285.62H716.938V283.52ZM716.938 267.83H729.538V269.87H719.398V284.45H716.938V267.83ZM743.066 280.25H767.666V282.26H743.066V280.25ZM746.306 289.7H765.086V291.74H746.306V289.7ZM746.306 284.39H748.796V290.48H746.306V284.39ZM746.186 266.12H764.486V272.84H748.706V276.5H746.246V271.01H762.056V268.07H746.186V266.12ZM746.246 275.84H765.086V277.79H746.246V275.84ZM783.864 281.99H786.414V292.34H783.864V281.99ZM793.194 281.99H795.744V292.34H793.194V281.99ZM777.564 280.64H802.164V282.71H777.564V280.64ZM789.804 266.3C795.474 266.3 799.284 268.58 799.284 272.21C799.284 275.81 795.474 278.12 789.804 278.12C784.164 278.12 780.324 275.81 780.324 272.21C780.324 268.58 784.164 266.3 789.804 266.3ZM789.804 268.31C785.664 268.31 782.844 269.84 782.844 272.21C782.844 274.58 785.664 276.11 789.804 276.11C793.944 276.11 796.734 274.58 796.734 272.21C796.734 269.84 793.944 268.31 789.804 268.31ZM824.721 265.19H827.181V292.37H824.721V265.19ZM818.871 275.09H825.441V277.13H818.871V275.09ZM811.761 269.09H813.771V273.14C813.771 278.99 810.411 284.78 806.121 287L804.651 285.02C808.551 283.1 811.761 277.97 811.761 273.14V269.09ZM812.271 269.09H814.251V273.14C814.251 277.67 817.401 282.62 821.331 284.48L819.861 286.43C815.571 284.3 812.271 278.72 812.271 273.14V269.09ZM805.641 267.98H820.401V270.05H805.641V267.98ZM832.189 276.53H856.699V278.57H832.189V276.53ZM835.429 272.33H853.789V274.34H835.429V272.33ZM835.429 266.09H853.489V268.13H837.889V273.95H835.429V266.09ZM835.129 280.91H853.549V287.3H837.649V290.72H835.189V285.44H851.089V282.86H835.129V280.91ZM835.189 290.06H854.359V292.04H835.189V290.06ZM860.687 268.19H872.957V270.2H860.687V268.19ZM864.917 275.93H867.377V285.11H864.917V275.93ZM871.937 268.19H874.367V269.63C874.367 271.85 874.367 275.39 873.587 280.43L871.127 280.19C871.937 275.3 871.937 271.82 871.937 269.63V268.19ZM877.787 265.22H880.247V292.34H877.787V265.22ZM879.587 276.56H884.597V278.66H879.587V276.56ZM859.487 286.43L859.187 284.33C864.107 284.33 870.647 284.24 876.137 283.55L876.257 285.38C870.647 286.28 864.287 286.4 859.487 286.43ZM908.444 272H914.474V274.07H908.444V272ZM913.784 265.22H916.274V281.09H913.784V265.22ZM898.694 282.41H916.274V291.98H898.694V282.41ZM913.844 284.39H901.124V289.97H913.844V284.39ZM900.884 267.8H902.924V269.99C902.924 274.94 899.864 279.17 895.334 280.85L894.044 278.87C898.094 277.43 900.884 273.83 900.884 269.99V267.8ZM901.364 267.8H903.374V269.96C903.374 273.47 906.014 276.86 909.944 278.24L908.684 280.22C904.274 278.63 901.364 274.52 901.364 269.96V267.8ZM894.824 266.96H909.314V268.97H894.824V266.96ZM932.232 266.18H934.422V267.68C934.422 272.87 929.142 276.59 923.502 277.55L922.512 275.54C927.462 274.79 932.232 271.55 932.232 267.68V266.18ZM932.682 266.18H934.842V267.68C934.842 271.46 939.672 274.79 944.562 275.54L943.572 277.55C937.992 276.59 932.682 272.81 932.682 267.68V266.18ZM932.232 282.02H934.692V292.34H932.232V282.02ZM921.282 280.49H945.792V282.56H921.282V280.49ZM959.56 275.75H964.69V277.82H959.56V275.75ZM969.22 265.22H971.62V292.34H969.22V265.22ZM963.85 265.79H966.22V290.99H963.85V265.79ZM954.67 267.47C958.18 267.47 960.46 271.1 960.46 276.92C960.46 282.74 958.18 286.37 954.67 286.37C951.16 286.37 948.91 282.74 948.91 276.92C948.91 271.1 951.16 267.47 954.67 267.47ZM954.67 269.78C952.54 269.78 951.19 272.54 951.19 276.92C951.19 281.3 952.54 284.06 954.67 284.06C956.83 284.06 958.18 281.3 958.18 276.92C958.18 272.54 956.83 269.78 954.67 269.78ZM984.517 267.32H996.517V269.36H984.517V267.32ZM988.597 273.38H991.057V280.16H988.597V273.38ZM995.527 267.32H997.987V268.76C997.987 270.53 997.987 273.23 997.267 276.8L994.837 276.53C995.527 272.96 995.527 270.5 995.527 268.76V267.32ZM1001.68 265.22H1004.17V285.65H1001.68V265.22ZM1003.03 274.04H1008.04V276.11H1003.03V274.04ZM987.037 289.7H1005.04V291.74H987.037V289.7ZM987.037 283.76H989.497V290.33H987.037V283.76ZM983.137 281.33L982.867 279.29C987.697 279.29 994.357 279.17 999.847 278.42L1000.03 280.22C994.387 281.21 987.907 281.33 983.137 281.33ZM1020.87 272.75H1026.9V274.76H1020.87V272.75ZM1020.66 279.56H1026.84V281.57H1020.66V279.56ZM1031.01 265.22H1033.41V292.34H1031.01V265.22ZM1025.58 265.91H1027.92V290.96H1025.58V265.91ZM1019.52 268.64H1021.92C1021.92 275.75 1019.07 282.14 1011.78 286.49L1010.34 284.72C1016.67 280.88 1019.52 275.48 1019.52 269.09V268.64ZM1011.54 268.64H1020.51V270.68H1011.54V268.64ZM1047.96 281.12H1050.3V284.51H1055.04V281.12H1057.35V291.98H1047.96V281.12ZM1050.3 286.37V290.03H1055.04V286.37H1050.3ZM1062.6 280.97H1064.52V283.22C1064.52 286.91 1062.66 290.63 1058.91 292.22L1057.65 290.33C1060.92 288.95 1062.6 285.98 1062.6 283.22V280.97ZM1063.11 280.97H1065.03V283.22C1065.03 286.13 1066.71 289.07 1069.98 290.33L1068.72 292.22C1064.94 290.66 1063.11 287.06 1063.11 283.22V280.97ZM1058.49 271.58H1065.78V273.65H1058.49V271.58ZM1052.25 266.42C1056.3 266.42 1059.24 268.94 1059.24 272.66C1059.24 276.35 1056.3 278.9 1052.25 278.9C1048.2 278.9 1045.26 276.35 1045.26 272.66C1045.26 268.94 1048.2 266.42 1052.25 266.42ZM1052.25 268.49C1049.58 268.49 1047.66 270.2 1047.66 272.66C1047.66 275.09 1049.58 276.83 1052.25 276.83C1054.92 276.83 1056.84 275.09 1056.84 272.66C1056.84 270.2 1054.92 268.49 1052.25 268.49ZM1064.67 265.22H1067.16V279.59H1064.67V265.22ZM1091.85 265.19H1094.34V292.37H1091.85V265.19ZM1080.03 267.29C1084.05 267.29 1086.93 270.98 1086.93 276.74C1086.93 282.53 1084.05 286.22 1080.03 286.22C1076.04 286.22 1073.16 282.53 1073.16 276.74C1073.16 270.98 1076.04 267.29 1080.03 267.29ZM1080.03 269.54C1077.39 269.54 1075.53 272.36 1075.53 276.74C1075.53 281.15 1077.39 284.03 1080.03 284.03C1082.7 284.03 1084.53 281.15 1084.53 276.74C1084.53 272.36 1082.7 269.54 1080.03 269.54ZM1127.31 265.22H1129.71V292.34H1127.31V265.22ZM1115.55 276.29H1122.39V278.3H1115.55V276.29ZM1121.67 265.91H1124.01V290.96H1121.67V265.91ZM1115.88 268.64H1118.28C1118.28 275.75 1115.43 282.14 1108.11 286.49L1106.64 284.72C1113.03 280.88 1115.88 275.48 1115.88 269.09V268.64ZM1107.84 268.64H1116.81V270.68H1107.84V268.64ZM1153.68 265.25H1156.2V280.73H1153.68V265.25ZM1138.68 282.2H1156.2V291.98H1138.68V282.2ZM1153.74 284.18H1141.11V289.97H1153.74V284.18ZM1141.65 266.66C1145.76 266.66 1148.7 269.24 1148.7 272.99C1148.7 276.74 1145.76 279.32 1141.65 279.32C1137.54 279.32 1134.57 276.74 1134.57 272.99C1134.57 269.24 1137.54 266.66 1141.65 266.66ZM1141.65 268.73C1138.95 268.73 1137 270.47 1137 272.99C1137 275.51 1138.95 277.22 1141.65 277.22C1144.35 277.22 1146.3 275.51 1146.3 272.99C1146.3 270.47 1144.35 268.73 1141.65 268.73ZM1173.5 265.67C1179.47 265.67 1183.04 267.35 1183.04 270.38C1183.04 273.41 1179.47 275.09 1173.5 275.09C1167.5 275.09 1163.96 273.41 1163.96 270.38C1163.96 267.35 1167.5 265.67 1173.5 265.67ZM1173.5 267.56C1169.06 267.56 1166.51 268.58 1166.51 270.38C1166.51 272.18 1169.06 273.2 1173.5 273.2C1177.91 273.2 1180.46 272.18 1180.46 270.38C1180.46 268.58 1177.91 267.56 1173.5 267.56ZM1161.23 276.89H1185.74V278.9H1161.23V276.89ZM1164.2 281.21H1182.62V287.33H1166.72V290.63H1164.26V285.53H1180.16V283.13H1164.2V281.21ZM1164.26 290.09H1183.43V292.04H1164.26V290.09ZM1195.73 276.77H1220.24V278.78H1195.73V276.77ZM1198.7 281.21H1217.12V287.42H1201.22V290.72H1198.76V285.59H1214.66V283.13H1198.7V281.21ZM1198.76 290.12H1217.93V292.04H1198.76V290.12ZM1206.56 267.08H1208.75V267.95C1208.75 272.12 1203.65 274.85 1197.86 275.39L1197.05 273.5C1202.06 273.05 1206.56 270.86 1206.56 267.95V267.08ZM1207.28 267.08H1209.44V267.95C1209.44 270.86 1213.94 273.05 1218.95 273.5L1218.14 275.39C1212.38 274.85 1207.28 272.12 1207.28 267.95V267.08ZM1197.98 266.24H1218.05V268.22H1197.98V266.24ZM1234.25 268.13H1236.68C1236.68 275.87 1233.32 282.8 1224.38 287.21L1223.06 285.26C1230.74 281.45 1234.25 275.69 1234.25 268.55V268.13ZM1224.23 268.13H1235.48V270.17H1224.23V268.13ZM1242.86 265.19H1245.35V292.31H1242.86V265.19ZM1235.69 272.63H1243.37V274.64H1235.69V272.63ZM1235.39 279.92H1243.07V281.96H1235.39V279.92ZM1250.36 286.82H1274.93V288.89H1250.36V286.82ZM1261.34 280.34H1263.83V287.42H1261.34V280.34ZM1253.24 267.14H1255.7V271.97H1269.53V267.14H1271.99V281H1253.24V267.14ZM1255.7 273.98V278.96H1269.53V273.98H1255.7ZM1288.33 274.91H1293.52V276.98H1288.33V274.91ZM1283.26 267.77H1285.21V272.93C1285.21 278.6 1282.84 284.09 1278.88 286.52L1277.32 284.63C1281.04 282.44 1283.26 277.58 1283.26 272.93V267.77ZM1283.74 267.77H1285.66V272.84C1285.66 277.19 1287.7 281.81 1291.27 283.97L1289.83 285.92C1285.93 283.52 1283.74 278.12 1283.74 272.84V267.77ZM1298.29 265.22H1300.69V292.34H1298.29V265.22ZM1292.8 265.79H1295.14V290.99H1292.8V265.79ZM1310.95 279.17H1313.41V287.3H1310.95V279.17ZM1320.97 279.17H1323.46V287.3H1320.97V279.17ZM1304.95 286.82H1329.52V288.89H1304.95V286.82ZM1317.19 266.93C1322.92 266.93 1327.03 269.66 1327.03 273.92C1327.03 278.15 1322.92 280.88 1317.19 280.88C1311.43 280.88 1307.32 278.15 1307.32 273.92C1307.32 269.66 1311.43 266.93 1317.19 266.93ZM1317.19 268.91C1312.84 268.91 1309.72 270.89 1309.72 273.92C1309.72 276.92 1312.84 278.9 1317.19 278.9C1321.54 278.9 1324.63 276.92 1324.63 273.92C1324.63 270.89 1321.54 268.91 1317.19 268.91ZM1334.05 290.42C1333.61 290.42 1333.23 290.26 1332.91 289.94C1332.59 289.62 1332.43 289.23 1332.43 288.77C1332.43 288.33 1332.59 287.95 1332.91 287.63C1333.23 287.31 1333.61 287.15 1334.05 287.15C1334.51 287.15 1334.89 287.31 1335.19 287.63C1335.51 287.95 1335.67 288.33 1335.67 288.77C1335.67 289.23 1335.51 289.62 1335.19 289.94C1334.87 290.26 1334.49 290.42 1334.05 290.42Z" fill="#B5B6BD"/>
<path d="M567 210H509M509 210L530.75 190M509 210L530.75 230" stroke="#375797" stroke-width="3.33333" stroke-linecap="round" stroke-linejoin="round"/>
<circle cx="940" cy="815" r="10" fill="#D9D9D9"/>
<circle cx="978" cy="815" r="12" fill="#2C73FF"/>
<rect width="100" height="1080" fill="#2C73FF" fill-opacity="0.06"/>
<path d="M70.874 139.501C72.2087 140.836 73.2259 142.349 73.9258 144.042C74.6257 145.735 74.9837 147.533 75 149.438C75 150.007 74.9837 150.691 74.9512 151.488C74.9186 152.286 74.8535 153.148 74.7559 154.076C74.6582 155.004 74.5036 155.956 74.292 156.933C74.0804 157.909 73.8118 158.878 73.4863 159.838C72.998 161.238 72.4284 162.377 71.7773 163.256C71.1263 164.135 70.4508 164.826 69.751 165.331C69.0511 165.836 68.3431 166.177 67.627 166.356C66.9108 166.535 66.2435 166.625 65.625 166.625C65.0879 166.625 64.5996 166.535 64.1602 166.356C63.7207 166.177 63.2975 165.933 62.8906 165.624C62.4837 165.315 62.1094 164.981 61.7676 164.623C61.4258 164.265 61.0758 163.874 60.7178 163.451C60.376 163.061 60.0423 162.686 59.7168 162.328C59.3913 161.97 59.0413 161.653 58.667 161.376C58.2926 161.099 57.9183 160.863 57.5439 160.668C57.1696 160.473 56.7301 160.375 56.2256 160.375H43.7744C43.3024 160.391 42.8711 160.489 42.4805 160.668C42.0898 160.847 41.7074 161.075 41.333 161.352C40.9587 161.628 40.6169 161.954 40.3076 162.328C39.9984 162.702 39.6566 163.077 39.2822 163.451C38.9404 163.842 38.5986 164.224 38.2568 164.599C37.915 164.973 37.5407 165.315 37.1338 165.624C36.7269 165.933 36.3037 166.169 35.8643 166.332C35.4248 166.495 34.9284 166.592 34.375 166.625C33.7565 166.625 33.0892 166.535 32.373 166.356C31.6569 166.177 30.9489 165.844 30.249 165.355C29.5492 164.867 28.8737 164.175 28.2227 163.28C27.5716 162.385 27.002 161.238 26.5137 159.838C26.1882 158.894 25.9277 157.934 25.7324 156.957C25.5371 155.98 25.3825 155.02 25.2686 154.076C25.1546 153.132 25.0814 152.27 25.0488 151.488C25.0163 150.707 25 150.023 25 149.438C25 147.549 25.3499 145.759 26.0498 144.066C26.7497 142.374 27.7751 140.852 29.126 139.501C30.4443 138.166 31.958 137.149 33.667 136.449C35.376 135.749 37.1745 135.391 39.0625 135.375H60.9375C62.8255 135.375 64.6159 135.725 66.3086 136.425C68.0013 137.125 69.5231 138.15 70.874 139.501ZM70.5322 158.812C70.8415 157.95 71.0856 157.055 71.2646 156.127C71.4437 155.199 71.5739 154.312 71.6553 153.466C71.7367 152.619 71.7936 151.838 71.8262 151.122C71.8587 150.406 71.875 149.844 71.875 149.438C71.875 147.924 71.5902 146.508 71.0205 145.189C70.4508 143.871 69.6696 142.715 68.6768 141.723C67.6839 140.73 66.5283 139.949 65.21 139.379C63.8916 138.809 62.4674 138.516 60.9375 138.5H39.0625C37.5488 138.5 36.1328 138.785 34.8145 139.354C33.4961 139.924 32.3405 140.705 31.3477 141.698C30.3548 142.691 29.5736 143.847 29.0039 145.165C28.4342 146.483 28.1413 147.908 28.125 149.438C28.125 149.861 28.1331 150.422 28.1494 151.122C28.1657 151.822 28.2227 152.595 28.3203 153.441C28.418 154.288 28.5563 155.183 28.7354 156.127C28.9144 157.071 29.1585 157.966 29.4678 158.812C29.8747 159.984 30.3223 160.888 30.8105 161.522C31.2988 162.157 31.7708 162.621 32.2266 162.914C32.6823 163.207 33.1055 163.378 33.4961 163.427C33.8867 163.476 34.1797 163.5 34.375 163.5C34.7331 163.5 35.1237 163.288 35.5469 162.865C35.9701 162.442 36.4258 161.954 36.9141 161.4C37.3047 160.945 37.7197 160.481 38.1592 160.009C38.5986 159.537 39.0951 159.097 39.6484 158.69C40.2018 158.284 40.8122 157.95 41.4795 157.689C42.1468 157.429 42.8874 157.283 43.7012 157.25H56.2988C57.1126 157.283 57.8532 157.429 58.5205 157.689C59.1878 157.95 59.79 158.275 60.3271 158.666C60.8643 159.057 61.3607 159.496 61.8164 159.984C62.2721 160.473 62.6953 160.945 63.0859 161.4C63.5579 161.938 64.0055 162.418 64.4287 162.841C64.8519 163.264 65.2507 163.484 65.625 163.5C65.8203 163.5 66.1051 163.476 66.4795 163.427C66.8538 163.378 67.277 163.207 67.749 162.914C68.221 162.621 68.7012 162.157 69.1895 161.522C69.6777 160.888 70.1253 159.984 70.5322 158.812ZM37.5 147.875H40.625V151H37.5V154.125H34.375V151H31.25V147.875H34.375V144.75H37.5V147.875ZM65.625 151C66.0645 151 66.4714 151.081 66.8457 151.244C67.2201 151.407 67.5456 151.627 67.8223 151.903C68.099 152.18 68.3268 152.514 68.5059 152.904C68.6849 153.295 68.7663 153.702 68.75 154.125C68.75 154.564 68.6686 154.971 68.5059 155.346C68.3431 155.72 68.1234 156.046 67.8467 156.322C67.57 156.599 67.2363 156.827 66.8457 157.006C66.4551 157.185 66.0482 157.266 65.625 157.25C65.1855 157.25 64.7786 157.169 64.4043 157.006C64.0299 156.843 63.7044 156.623 63.4277 156.347C63.151 156.07 62.9232 155.736 62.7441 155.346C62.5651 154.955 62.4837 154.548 62.5 154.125C62.5 153.686 62.5814 153.279 62.7441 152.904C62.9069 152.53 63.1266 152.204 63.4033 151.928C63.68 151.651 64.0137 151.423 64.4043 151.244C64.7949 151.065 65.2018 150.984 65.625 151ZM59.375 144.75C59.8145 144.75 60.2214 144.831 60.5957 144.994C60.9701 145.157 61.2956 145.377 61.5723 145.653C61.849 145.93 62.0768 146.264 62.2559 146.654C62.4349 147.045 62.5163 147.452 62.5 147.875C62.5 148.314 62.4186 148.721 62.2559 149.096C62.0931 149.47 61.8734 149.796 61.5967 150.072C61.32 150.349 60.9863 150.577 60.5957 150.756C60.2051 150.935 59.7982 151.016 59.375 151C58.9355 151 58.5286 150.919 58.1543 150.756C57.7799 150.593 57.4544 150.373 57.1777 150.097C56.901 149.82 56.6732 149.486 56.4941 149.096C56.3151 148.705 56.2337 148.298 56.25 147.875C56.25 147.436 56.3314 147.029 56.4941 146.654C56.6569 146.28 56.8766 145.954 57.1533 145.678C57.43 145.401 57.7637 145.173 58.1543 144.994C58.5449 144.815 58.9518 144.734 59.375 144.75Z" fill="#1F2021"/>
<path d="M39.5 256.611V239.389H30C27.25 239.389 25 241.889 25 244.944V261.611C25 264.667 27.25 267.167 30 267.167H32.5V275.5L40 267.167H52.5C55.25 267.167 57.5 264.667 57.5 261.611V256.556C57.3357 256.595 57.1681 256.614 57 256.614H39.5V256.611ZM70 225.5H47.5C44.75 225.5 42.5 228 42.5 231.056V253.278H60L67.5 261.611V253.278H70C72.75 253.278 75 250.781 75 247.722V231.056C75 228 72.75 225.5 70 225.5Z" fill="#F7F8FA"/>
<path d="M25 266C25 262.463 25 260.695 26.1 259.6C27.1975 258.5 28.965 258.5 32.5 258.5C36.0375 258.5 37.805 258.5 38.9 259.6C40 260.698 40 262.465 40 266V243.5C40 239.963 40 238.195 41.1 237.1C42.1975 236 43.965 236 47.5 236H52.5C56.0375 236 57.805 236 58.9 237.1C60 238.197 60 239.965 60 243.5V266V258.5C60 254.963 60 253.195 61.1 252.1C62.1975 251 63.965 251 67.5 251C71.0375 251 72.805 251 73.9 252.1C75 253.198 75 254.965 75 258.5V266" stroke="#1F2021" stroke-width="3.75" stroke-linecap="round"/>
<path d="M47.8657 218.558C48.8157 216.85 49.2907 216 50.0007 216C50.7107 216 51.1857 216.85 52.1357 218.558L52.3807 218.997C52.6507 219.482 52.7857 219.722 52.9957 219.882C53.2082 220.042 53.4707 220.102 53.9957 220.22L54.4707 220.33C56.3157 220.748 57.2382 220.955 57.4582 221.66C57.6782 222.367 57.0482 223.102 55.7907 224.572L55.4657 224.952C55.1082 225.37 54.9282 225.577 54.8482 225.837C54.7682 226.097 54.7957 226.375 54.8482 226.933L54.8982 227.44C55.0882 229.403 55.1832 230.385 54.6107 230.82C54.0357 231.257 53.1707 230.857 51.4432 230.062L50.9982 229.858C50.5057 229.633 50.2607 229.518 50.0007 229.518C49.7407 229.518 49.4957 229.633 49.0032 229.858L48.5582 230.062C46.8307 230.857 45.9657 231.257 45.3907 230.82C44.8157 230.385 44.9132 229.403 45.1032 227.44L45.1532 226.933C45.2057 226.375 45.2332 226.097 45.1532 225.837C45.0732 225.58 44.8932 225.37 44.5357 224.952L44.2107 224.572C42.9532 223.102 42.3232 222.367 42.5432 221.66C42.7632 220.955 43.6857 220.748 45.5307 220.33L46.0057 220.22C46.5307 220.102 46.7932 220.045 47.0057 219.882C47.2157 219.722 47.3507 219.482 47.6207 218.997L47.8657 218.558Z" stroke="#1F2021" stroke-width="3.75"/>
<path d="M35.418 444.5V452.346L38.5742 450.452L48.4951 444.5H58.3346C60.6326 444.5 62.5013 442.631 62.5013 440.333V423.667C62.5013 421.369 60.6326 419.5 58.3346 419.5H33.3346C31.0367 419.5 29.168 421.369 29.168 423.667V440.333C29.168 442.631 31.0367 444.5 33.3346 444.5H35.418ZM33.3346 423.667H58.3346V440.333H47.3409L39.5846 444.987V440.333H33.3346V423.667Z" fill="black"/>
<path d="M66.6667 411.167H41.6667C39.3687 411.167 37.5 413.036 37.5 415.334H62.5C64.7979 415.334 66.6667 417.202 66.6667 419.5V436.167C68.9646 436.167 70.8333 434.298 70.8333 432V415.334C70.8333 413.036 68.9646 411.167 66.6667 411.167Z" fill="black"/>
<g clip-path="url(#clip1_65_276)">
<path d="M49.9832 520.432C51.4605 520.432 52.9234 520.142 54.2883 519.576C55.6533 519.011 56.8934 518.182 57.9381 517.137C58.9828 516.093 59.8114 514.853 60.3768 513.488C60.9422 512.123 61.2332 510.66 61.2332 509.183C61.2332 507.705 60.9422 506.242 60.3768 504.877C59.8114 503.512 58.9828 502.272 57.9381 501.228C56.8934 500.183 55.6533 499.354 54.2883 498.789C52.9234 498.223 51.4605 497.933 49.9832 497.933C46.9995 497.933 44.138 499.118 42.0282 501.228C39.9184 503.337 38.7332 506.199 38.7332 509.183C38.7332 512.166 39.9184 515.028 42.0282 517.137C44.138 519.247 46.9995 520.432 49.9832 520.432ZM50.0007 494C53.2937 493.999 56.4955 495.082 59.1122 497.081C61.7289 499.08 63.615 501.885 64.4794 505.062C65.3439 508.24 65.1387 511.613 63.8956 514.663C62.6524 517.712 60.4403 520.268 57.6007 521.935C66.8207 524.71 73.7457 532.48 74.9882 542.13C75.1057 543.048 74.4232 543.88 73.4632 543.992C72.5057 544.105 71.6307 543.455 71.5132 542.538C70.1632 532.063 61.0907 524.175 50.0882 524.175C39.0257 524.175 29.8357 532.078 28.4882 542.538C28.3707 543.455 27.4957 544.105 26.5382 543.992C25.5782 543.88 24.8957 543.048 25.0132 542.13C26.2532 532.52 33.2157 524.76 42.4507 521.96C39.6024 520.3 37.3802 517.748 36.1278 514.699C34.8753 511.649 34.6623 508.272 35.5217 505.09C36.3811 501.907 38.265 499.096 40.8822 497.092C43.4994 495.087 46.704 494.001 50.0007 494Z" fill="black"/>
</g>
<path d="M36.875 326.125C30.6875 326.125 25.625 331.188 25.625 337.375C25.625 341.095 27.4569 344.406 30.2544 346.457C25.31 348.91 21.875 353.995 21.875 359.875H25.625C25.625 353.643 30.6425 348.625 36.875 348.625C43.1075 348.625 48.125 353.643 48.125 359.875H51.875C51.875 353.643 56.8925 348.625 63.125 348.625C69.3575 348.625 74.375 353.643 74.375 359.875H78.125C78.125 353.993 74.69 348.91 69.7456 346.457C71.1772 345.414 72.3425 344.048 73.1469 342.47C73.9513 340.892 74.372 339.146 74.375 337.375C74.375 331.188 69.3125 326.125 63.125 326.125C56.9375 326.125 51.875 331.188 51.875 337.375C51.875 341.095 53.7069 344.406 56.5044 346.457C53.7649 347.804 51.4973 349.949 50 352.609C48.5027 349.949 46.2351 347.804 43.4956 346.457C44.9272 345.414 46.0925 344.048 46.8969 342.47C47.7013 340.892 48.122 339.146 48.125 337.375C48.125 331.188 43.0625 326.125 36.875 326.125ZM36.875 329.875C41.0431 329.875 44.375 333.207 44.375 337.375C44.375 341.543 41.0431 344.875 36.875 344.875C32.7069 344.875 29.375 341.543 29.375 337.375C29.375 333.207 32.7069 329.875 36.875 329.875ZM63.125 329.875C67.2931 329.875 70.625 333.207 70.625 337.375C70.625 341.543 67.2931 344.875 63.125 344.875C58.9569 344.875 55.625 341.543 55.625 337.375C55.625 333.207 58.9569 329.875 63.125 329.875Z" fill="black"/>
<g clip-path="url(#clip2_65_276)">
<path d="M48.1875 1003V1024.88H51.3125V1003H48.1875Z" fill="black"/>
<path d="M34.1261 1027.41C34.1254 1024.62 34.8722 1021.88 36.289 1019.48C37.7058 1017.07 39.7408 1015.09 42.1824 1013.74L40.6668 1011.01C37.0434 1013.02 34.1864 1016.17 32.5417 1019.97C30.897 1023.77 30.5572 1028.01 31.5754 1032.02C32.5936 1036.04 34.9124 1039.6 38.1699 1042.16C41.4274 1044.72 45.4401 1046.12 49.5818 1046.16C53.7234 1046.2 57.7608 1044.86 61.0637 1042.36C64.3665 1039.87 66.7489 1036.34 67.839 1032.35C68.9291 1028.35 68.6654 1024.11 67.0892 1020.28C65.513 1016.45 62.7129 1013.25 59.1261 1011.18L57.5605 1013.88C59.9362 1015.25 61.9092 1017.22 63.2811 1019.6C64.6531 1021.97 65.3756 1024.67 65.3761 1027.41C65.3766 1030.15 64.6551 1032.85 63.2841 1035.22C61.913 1037.6 59.9408 1039.57 57.5656 1040.94C55.1904 1042.31 52.4959 1043.04 49.7531 1043.04C47.0102 1043.04 44.3155 1042.32 41.94 1040.94C39.5645 1039.57 37.5917 1037.6 36.2201 1035.23C34.8485 1032.85 34.1263 1030.16 34.1261 1027.41Z" fill="black"/>
</g>
<path d="M819.928 36.75C824.495 36.75 827.795 37.85 829.828 40.05C831.895 42.25 832.495 45.3833 831.628 49.45C831.195 51.4833 830.478 53.3167 829.478 54.95C828.511 56.55 827.278 57.9167 825.778 59.05C824.311 60.1833 822.611 61.0667 820.678 61.7C818.778 62.3 816.678 62.6 814.378 62.6H804.978L802.178 76H793.428L801.728 36.75H819.928ZM815.428 55.85C817.428 55.85 819.078 55.2833 820.378 54.15C821.678 52.9833 822.511 51.5 822.878 49.7C823.278 47.9 823.078 46.4167 822.278 45.25C821.478 44.0833 820.078 43.5 818.078 43.5H809.078L806.428 55.85H815.428ZM866.076 56.35C866.542 54.1833 866.659 52.25 866.426 50.55C866.226 48.85 865.726 47.4333 864.926 46.3C864.159 45.1333 863.126 44.25 861.826 43.65C860.559 43.05 859.076 42.75 857.376 42.75C855.676 42.75 854.042 43.05 852.476 43.65C850.942 44.25 849.542 45.1333 848.276 46.3C847.009 47.4333 845.909 48.85 844.976 50.55C844.042 52.25 843.342 54.1833 842.876 56.35C842.409 58.5167 842.276 60.45 842.476 62.15C842.709 63.85 843.209 65.2833 843.976 66.45C844.776 67.6167 845.809 68.5 847.076 69.1C848.376 69.7 849.876 70 851.576 70C855.176 70 858.259 68.8167 860.826 66.45C863.392 64.0833 865.142 60.7167 866.076 56.35ZM874.826 56.35C874.159 59.55 873.109 62.4167 871.676 64.95C870.276 67.4833 868.526 69.6333 866.426 71.4C864.359 73.1333 861.959 74.4667 859.226 75.4C856.492 76.3 853.476 76.75 850.176 76.75C847.242 76.75 844.626 76.2667 842.326 75.3C840.059 74.3 838.209 72.9167 836.776 71.15C835.342 69.35 834.376 67.2 833.876 64.7C833.376 62.2 833.459 59.4167 834.126 56.35C834.826 53.15 835.876 50.3 837.276 47.8C838.709 45.2667 840.459 43.1333 842.526 41.4C844.626 39.6333 847.042 38.3 849.776 37.4C852.509 36.4667 855.526 36 858.826 36C861.892 36 864.559 36.4833 866.826 37.45C869.126 38.3833 870.976 39.75 872.376 41.55C873.776 43.3167 874.692 45.45 875.126 47.95C875.559 50.45 875.459 53.25 874.826 56.35ZM904.067 62.35L909.467 36.75H918.167L909.867 76H903.117L891.367 52.85L890.717 50.4L885.317 76H876.617L884.917 36.75H891.667L903.417 59.9L904.067 62.35ZM960.001 56.95C959.368 60.0167 958.368 62.7667 957.001 65.2C955.668 67.6333 953.985 69.7167 951.951 71.45C949.951 73.15 947.585 74.4667 944.851 75.4C942.151 76.3 939.135 76.75 935.801 76.75C932.801 76.75 930.151 76.2833 927.851 75.35C925.585 74.4167 923.751 73.0833 922.351 71.35C920.951 69.6167 920.018 67.4833 919.551 64.95C919.118 62.4167 919.251 59.55 919.951 56.35C920.651 53.15 921.751 50.2833 923.251 47.75C924.751 45.2167 926.568 43.0833 928.701 41.35C930.868 39.6167 933.285 38.3 935.951 37.4C938.618 36.4667 941.468 36 944.501 36C947.035 36 949.318 36.3167 951.351 36.95C953.385 37.5833 955.118 38.5167 956.551 39.75C957.985 40.95 959.085 42.4333 959.851 44.2C960.618 45.9667 961.001 47.9667 961.001 50.2H952.151C951.951 47.7667 951.051 45.9167 949.451 44.65C947.885 43.3833 945.751 42.75 943.051 42.75C941.385 42.75 939.785 43.0667 938.251 43.7C936.751 44.3 935.368 45.1833 934.101 46.35C932.835 47.4833 931.735 48.9 930.801 50.6C929.868 52.3 929.168 54.2167 928.701 56.35C928.235 58.5167 928.101 60.45 928.301 62.15C928.501 63.8167 928.968 65.2333 929.701 66.4C930.468 67.5667 931.485 68.4667 932.751 69.1C934.051 69.7 935.551 70 937.251 70C939.118 70 940.785 69.7667 942.251 69.3C943.718 68.8333 944.985 68.1833 946.051 67.35C947.151 66.4833 948.068 65.4667 948.801 64.3C949.535 63.1333 950.118 61.8667 950.551 60.5H938.251L939.651 54H960.651L960.001 56.95ZM1018.58 56.95C1017.95 60.0167 1016.95 62.7667 1015.58 65.2C1014.25 67.6333 1012.56 69.7167 1010.53 71.45C1008.53 73.15 1006.16 74.4667 1003.43 75.4C1000.73 76.3 997.714 76.75 994.381 76.75C991.381 76.75 988.731 76.2833 986.431 75.35C984.164 74.4167 982.331 73.0833 980.931 71.35C979.531 69.6167 978.598 67.4833 978.131 64.95C977.698 62.4167 977.831 59.55 978.531 56.35C979.231 53.15 980.331 50.2833 981.831 47.75C983.331 45.2167 985.148 43.0833 987.281 41.35C989.448 39.6167 991.864 38.3 994.531 37.4C997.198 36.4667 1000.05 36 1003.08 36C1005.61 36 1007.9 36.3167 1009.93 36.95C1011.96 37.5833 1013.7 38.5167 1015.13 39.75C1016.56 40.95 1017.66 42.4333 1018.43 44.2C1019.2 45.9667 1019.58 47.9667 1019.58 50.2H1010.73C1010.53 47.7667 1009.63 45.9167 1008.03 44.65C1006.46 43.3833 1004.33 42.75 1001.63 42.75C999.964 42.75 998.364 43.0667 996.831 43.7C995.331 44.3 993.948 45.1833 992.681 46.35C991.414 47.4833 990.314 48.9 989.381 50.6C988.448 52.3 987.748 54.2167 987.281 56.35C986.814 58.5167 986.681 60.45 986.881 62.15C987.081 63.8167 987.548 65.2333 988.281 66.4C989.048 67.5667 990.064 68.4667 991.331 69.1C992.631 69.7 994.131 70 995.831 70C997.698 70 999.364 69.7667 1000.83 69.3C1002.3 68.8333 1003.56 68.1833 1004.63 67.35C1005.73 66.4833 1006.65 65.4667 1007.38 64.3C1008.11 63.1333 1008.7 61.8667 1009.13 60.5H996.831L998.231 54H1019.23L1018.58 56.95ZM1043.88 67.8H1028.78L1024.28 76H1015.53L1038.43 36.75H1047.43L1053.73 76H1044.98L1043.88 67.8ZM1039.98 47.6L1032.48 61.15H1043.03L1041.28 47.6L1041.13 45.3L1039.98 47.6ZM1071.89 52.7L1071.74 49.65L1066.14 76H1057.44L1065.74 36.75H1075.69L1080.34 59.3L1080.54 62.15L1081.94 59.3L1096.19 36.75H1106.14L1097.84 76H1089.14L1094.74 49.65L1093.29 52.7L1081.49 71.8H1075.49L1071.89 52.7ZM1112.85 36.75H1143.05L1141.65 43.5H1120.2L1118.2 52.8H1138.65L1137.25 59.5H1116.8L1114.7 69.25H1136.65L1135.25 76H1104.55L1112.85 36.75Z" fill="url(#paint0_linear_65_276)"/>
<defs>
<linearGradient id="paint0_linear_65_276" x1="968" y1="5" x2="968" y2="105" gradientUnits="userSpaceOnUse">
<stop offset="0.145833" stop-color="#245DCC"/>
<stop offset="1" stop-color="#9C38FF" stop-opacity="0.42"/>
</linearGradient>
<clipPath id="clip0_65_276">
<rect width="50" height="49.0196" fill="white" transform="translate(971 428)"/>
</clipPath>
<clipPath id="clip1_65_276">
<rect width="50" height="50" fill="white" transform="translate(25 494)"/>
</clipPath>
<clipPath id="clip2_65_276">
<rect width="50" height="50" fill="white" transform="translate(25 996)"/>
</clipPath>
</defs>
</svg>
