<svg width="1920" height="1080" viewBox="0 0 1920 1080" fill="none" xmlns="http://www.w3.org/2000/svg">
<rect width="1920" height="1080" fill="white"/>
<rect x="759" y="524" width="400" height="85" rx="30" fill="#2C73FF"/>
<path d="M884.554 552.719L894.085 576H894.437L903.968 552.719H908.187V581H904.866V559.633H904.593L895.804 581H892.679L883.89 559.633H883.655V581H880.335V552.719H884.554ZM912.691 574.984C912.691 572.784 913.44 571.234 914.938 570.336C916.448 569.438 918.355 568.904 920.66 568.734C921.546 568.669 922.535 568.611 923.629 568.559C924.736 568.493 925.66 568.448 926.402 568.422V566.703C926.402 565.336 925.992 564.288 925.172 563.559C924.365 562.816 923.173 562.445 921.598 562.445C920.309 562.445 919.254 562.712 918.434 563.246C917.613 563.767 917.079 564.451 916.832 565.297H913.316C913.46 564.164 913.902 563.161 914.645 562.289C915.387 561.417 916.37 560.74 917.594 560.258C918.831 559.763 920.217 559.516 921.754 559.516C923.785 559.516 925.621 560.036 927.262 561.078C928.902 562.107 929.723 564.086 929.723 567.016V581H926.402V578.109H926.246C925.986 578.656 925.582 579.19 925.035 579.711C924.501 580.219 923.798 580.648 922.926 581C922.066 581.339 921.064 581.508 919.918 581.508C918.564 581.508 917.34 581.247 916.246 580.727C915.152 580.206 914.286 579.457 913.648 578.48C913.01 577.491 912.691 576.326 912.691 574.984ZM916.051 575.141C916.051 576.221 916.454 577.055 917.262 577.641C918.082 578.214 919.163 578.5 920.504 578.5C921.715 578.5 922.763 578.259 923.648 577.777C924.547 577.296 925.23 576.658 925.699 575.863C926.168 575.069 926.402 574.216 926.402 573.305V571.176C926.09 571.189 925.23 571.247 923.824 571.352L921.051 571.547C919.462 571.651 918.232 571.996 917.359 572.582C916.487 573.168 916.051 574.021 916.051 575.141ZM944.071 562.602H939.618V574.906C939.618 576.156 939.865 576.996 940.36 577.426C940.855 577.855 941.532 578.07 942.391 578.07C943.042 578.07 943.707 578.044 944.384 577.992V581.117C943.707 581.221 942.925 581.273 942.04 581.273C941.05 581.273 940.113 581.072 939.227 580.668C938.342 580.251 937.619 579.626 937.059 578.793C936.499 577.96 936.22 576.951 936.22 575.766V562.602H933.016V559.789H936.22V554.711H939.618V559.789H944.071V562.602ZM956.545 581.43C954.578 581.43 952.86 580.967 951.388 580.043C949.93 579.105 948.81 577.81 948.029 576.156C947.248 574.503 946.857 572.615 946.857 570.492C946.857 568.357 947.254 566.462 948.048 564.809C948.856 563.142 949.982 561.846 951.427 560.922C952.886 559.984 954.565 559.516 956.466 559.516C957.964 559.516 959.318 559.796 960.529 560.355C961.74 560.902 962.723 561.684 963.478 562.699C964.246 563.702 964.722 564.867 964.904 566.195H961.545C961.388 565.518 961.089 564.9 960.646 564.34C960.203 563.78 959.63 563.331 958.927 562.992C958.237 562.654 957.443 562.484 956.545 562.484C955.295 562.484 954.188 562.81 953.224 563.461C952.274 564.112 951.532 565.036 950.998 566.234C950.477 567.419 950.216 568.799 950.216 570.375C950.216 572.003 950.47 573.422 950.978 574.633C951.499 575.844 952.235 576.781 953.185 577.445C954.149 578.096 955.268 578.422 956.545 578.422C957.808 578.422 958.882 578.103 959.767 577.465C960.666 576.814 961.258 575.909 961.545 574.75H964.904C964.722 576.026 964.266 577.172 963.537 578.188C962.808 579.19 961.844 579.984 960.646 580.57C959.448 581.143 958.081 581.43 956.545 581.43ZM972.104 581H968.745V552.719H972.104V563.109H972.377C973.445 560.714 975.528 559.516 978.627 559.516C980.867 559.516 982.631 560.193 983.92 561.547C985.209 562.888 985.854 564.88 985.854 567.523V581H982.495V567.758C982.495 566.104 982.058 564.822 981.186 563.91C980.327 562.986 979.135 562.523 977.612 562.523C976.544 562.523 975.593 562.751 974.76 563.207C973.94 563.65 973.289 564.307 972.807 565.18C972.338 566.039 972.104 567.068 972.104 568.266V581ZM990.945 559.789H994.304V581H990.945V559.789ZM992.624 556.273C991.973 556.273 991.42 556.059 990.964 555.629C990.508 555.199 990.28 554.672 990.28 554.047C990.28 553.422 990.508 552.895 990.964 552.465C991.42 552.035 991.973 551.82 992.624 551.82C993.275 551.82 993.835 552.035 994.304 552.465C994.773 552.895 995.007 553.422 995.007 554.047C995.007 554.672 994.773 555.199 994.304 555.629C993.835 556.059 993.275 556.273 992.624 556.273ZM1002.71 581H999.355V559.789H1002.6V563.109H1002.87C1003.4 561.977 1004.18 561.098 1005.2 560.473C1006.22 559.835 1007.52 559.516 1009.08 559.516C1010.54 559.516 1011.8 559.815 1012.87 560.414C1013.94 561 1014.77 561.892 1015.35 563.09C1015.94 564.288 1016.23 565.766 1016.23 567.523V581H1012.87V567.758C1012.87 566.117 1012.45 564.835 1011.6 563.91C1010.76 562.986 1009.58 562.523 1008.07 562.523C1007.02 562.523 1006.1 562.751 1005.29 563.207C1004.49 563.65 1003.85 564.307 1003.4 565.18C1002.94 566.039 1002.71 567.068 1002.71 568.266V581ZM1029.91 589.398C1028.21 589.398 1026.7 589.158 1025.38 588.676C1024.08 588.194 1023.05 587.491 1022.28 586.566C1021.51 585.642 1021.06 584.529 1020.93 583.227H1024.45C1024.68 584.294 1025.27 585.102 1026.2 585.648C1027.15 586.195 1028.39 586.469 1029.91 586.469C1031.79 586.469 1033.24 586.052 1034.25 585.219C1035.27 584.385 1035.77 583.109 1035.77 581.391V577.094H1035.5C1035.12 577.732 1034.73 578.292 1034.31 578.773C1033.89 579.255 1033.27 579.698 1032.43 580.102C1031.61 580.492 1030.58 580.688 1029.33 580.688C1027.6 580.688 1026.05 580.264 1024.68 579.418C1023.31 578.572 1022.24 577.354 1021.46 575.766C1020.69 574.164 1020.31 572.276 1020.31 570.102C1020.31 567.966 1020.69 566.098 1021.46 564.496C1022.23 562.895 1023.29 561.664 1024.66 560.805C1026.03 559.945 1027.6 559.516 1029.37 559.516C1030.6 559.516 1031.63 559.717 1032.45 560.121C1033.29 560.525 1033.88 560.941 1034.23 561.371C1034.6 561.788 1035.05 562.38 1035.58 563.148H1035.85V559.789H1039.13V581.586C1039.13 583.344 1038.73 584.802 1037.92 585.961C1037.13 587.133 1036.04 587.999 1034.66 588.559C1033.28 589.118 1031.7 589.398 1029.91 589.398ZM1029.8 577.68C1031.72 577.68 1033.22 577.029 1034.27 575.727C1035.32 574.411 1035.85 572.576 1035.85 570.219C1035.85 568.695 1035.62 567.354 1035.15 566.195C1034.68 565.036 1033.99 564.138 1033.08 563.5C1032.18 562.849 1031.09 562.523 1029.8 562.523C1028.48 562.523 1027.37 562.862 1026.46 563.539C1025.55 564.216 1024.86 565.141 1024.39 566.312C1023.93 567.471 1023.7 568.773 1023.7 570.219C1023.7 571.703 1023.93 573.005 1024.39 574.125C1024.86 575.245 1025.55 576.117 1026.46 576.742C1027.37 577.367 1028.48 577.68 1029.8 577.68Z" fill="white"/>
<rect x="761" y="644" width="400" height="85" rx="30" fill="#2C73FF"/>
<path d="M844.83 701H841.315V672.719H844.83V701ZM853.71 701H850.351V679.789H853.593V683.109H853.866C854.4 681.977 855.175 681.098 856.191 680.473C857.219 679.835 858.515 679.516 860.077 679.516C861.536 679.516 862.799 679.815 863.866 680.414C864.934 681 865.761 681.892 866.347 683.09C866.933 684.288 867.226 685.766 867.226 687.523V701H863.866V687.758C863.866 686.117 863.443 684.835 862.597 683.91C861.751 682.986 860.572 682.523 859.062 682.523C858.02 682.523 857.096 682.751 856.288 683.207C855.481 683.65 854.849 684.307 854.394 685.18C853.938 686.039 853.71 687.068 853.71 688.266V701ZM881.145 701H877.668L869.855 679.789H873.527L879.309 696.625H879.543L885.324 679.789H888.996L881.145 701ZM892.407 679.789H895.766V701H892.407V679.789ZM894.087 676.273C893.436 676.273 892.882 676.059 892.427 675.629C891.971 675.199 891.743 674.672 891.743 674.047C891.743 673.422 891.971 672.895 892.427 672.465C892.882 672.035 893.436 671.82 894.087 671.82C894.738 671.82 895.298 672.035 895.766 672.465C896.235 672.895 896.47 673.422 896.47 674.047C896.47 674.672 896.235 675.199 895.766 675.629C895.298 676.059 894.738 676.273 894.087 676.273ZM910.076 682.602H905.623V694.906C905.623 696.156 905.87 696.996 906.365 697.426C906.86 697.855 907.537 698.07 908.396 698.07C909.047 698.07 909.711 698.044 910.388 697.992V701.117C909.711 701.221 908.93 701.273 908.045 701.273C907.055 701.273 906.117 701.072 905.232 700.668C904.347 700.251 903.624 699.626 903.064 698.793C902.504 697.96 902.224 696.951 902.224 695.766V682.602H899.021V679.789H902.224V674.711H905.623V679.789H910.076V682.602ZM922.784 701.43C920.765 701.43 919.008 700.98 917.51 700.082C916.013 699.184 914.86 697.914 914.053 696.273C913.259 694.633 912.862 692.732 912.862 690.57C912.862 688.409 913.259 686.495 914.053 684.828C914.86 683.148 915.987 681.846 917.432 680.922C918.89 679.984 920.57 679.516 922.471 679.516C924.073 679.516 925.564 679.874 926.944 680.59C928.324 681.293 929.444 682.439 930.303 684.027C931.176 685.603 931.612 687.628 931.612 690.102V691.508H916.221C916.273 692.979 916.579 694.236 917.139 695.277C917.699 696.319 918.461 697.113 919.424 697.66C920.401 698.194 921.521 698.461 922.784 698.461C923.982 698.461 924.991 698.24 925.811 697.797C926.644 697.341 927.276 696.755 927.705 696.039H931.299C930.961 697.107 930.394 698.051 929.6 698.871C928.819 699.678 927.842 700.31 926.67 700.766C925.511 701.208 924.216 701.43 922.784 701.43ZM928.213 688.656C928.213 687.471 927.972 686.417 927.491 685.492C927.022 684.555 926.351 683.819 925.479 683.285C924.607 682.751 923.604 682.484 922.471 682.484C921.286 682.484 920.232 682.764 919.307 683.324C918.396 683.884 917.673 684.639 917.139 685.59C916.618 686.527 916.319 687.549 916.241 688.656H928.213ZM944.41 694.984C944.41 692.784 945.159 691.234 946.656 690.336C948.167 689.438 950.074 688.904 952.379 688.734C953.264 688.669 954.254 688.611 955.348 688.559C956.454 688.493 957.379 688.448 958.121 688.422V686.703C958.121 685.336 957.711 684.288 956.891 683.559C956.083 682.816 954.892 682.445 953.316 682.445C952.027 682.445 950.973 682.712 950.152 683.246C949.332 683.767 948.798 684.451 948.551 685.297H945.035C945.178 684.164 945.621 683.161 946.363 682.289C947.105 681.417 948.089 680.74 949.312 680.258C950.549 679.763 951.936 679.516 953.473 679.516C955.504 679.516 957.34 680.036 958.98 681.078C960.621 682.107 961.441 684.086 961.441 687.016V701H958.121V698.109H957.965C957.704 698.656 957.301 699.19 956.754 699.711C956.22 700.219 955.517 700.648 954.645 701C953.785 701.339 952.783 701.508 951.637 701.508C950.283 701.508 949.059 701.247 947.965 700.727C946.871 700.206 946.005 699.457 945.367 698.48C944.729 697.491 944.41 696.326 944.41 694.984ZM947.77 695.141C947.77 696.221 948.173 697.055 948.98 697.641C949.801 698.214 950.882 698.5 952.223 698.5C953.434 698.5 954.482 698.259 955.367 697.777C956.266 697.296 956.949 696.658 957.418 695.863C957.887 695.069 958.121 694.216 958.121 693.305V691.176C957.809 691.189 956.949 691.247 955.543 691.352L952.77 691.547C951.181 691.651 949.951 691.996 949.078 692.582C948.206 693.168 947.77 694.021 947.77 695.141ZM976.701 672.719H993.732V675.844H980.216V685.297H992.443V688.383H980.216V701H976.701V672.719ZM998.002 679.789H1001.24V683.031H1001.48C1001.87 681.951 1002.57 681.085 1003.57 680.434C1004.57 679.77 1005.7 679.438 1006.95 679.438C1007.6 679.438 1008.18 679.464 1008.71 679.516V682.914C1008.56 682.862 1008.28 682.81 1007.87 682.758C1007.46 682.706 1007.06 682.68 1006.67 682.68C1005.67 682.68 1004.77 682.895 1003.96 683.324C1003.15 683.754 1002.51 684.346 1002.05 685.102C1001.59 685.857 1001.36 686.703 1001.36 687.641V701H998.002V679.789ZM1011.69 679.789H1015.05V701H1011.69V679.789ZM1013.37 676.273C1012.72 676.273 1012.16 676.059 1011.71 675.629C1011.25 675.199 1011.02 674.672 1011.02 674.047C1011.02 673.422 1011.25 672.895 1011.71 672.465C1012.16 672.035 1012.72 671.82 1013.37 671.82C1014.02 671.82 1014.58 672.035 1015.05 672.465C1015.51 672.895 1015.75 673.422 1015.75 674.047C1015.75 674.672 1015.51 675.199 1015.05 675.629C1014.58 676.059 1014.02 676.273 1013.37 676.273ZM1029 701.43C1026.99 701.43 1025.23 700.98 1023.73 700.082C1022.23 699.184 1021.08 697.914 1020.27 696.273C1019.48 694.633 1019.08 692.732 1019.08 690.57C1019.08 688.409 1019.48 686.495 1020.27 684.828C1021.08 683.148 1022.21 681.846 1023.65 680.922C1025.11 679.984 1026.79 679.516 1028.69 679.516C1030.29 679.516 1031.78 679.874 1033.16 680.59C1034.54 681.293 1035.66 682.439 1036.52 684.027C1037.4 685.603 1037.83 687.628 1037.83 690.102V691.508H1022.44C1022.49 692.979 1022.8 694.236 1023.36 695.277C1023.92 696.319 1024.68 697.113 1025.64 697.66C1026.62 698.194 1027.74 698.461 1029 698.461C1030.2 698.461 1031.21 698.24 1032.03 697.797C1032.86 697.341 1033.5 696.755 1033.93 696.039H1037.52C1037.18 697.107 1036.61 698.051 1035.82 698.871C1035.04 699.678 1034.06 700.31 1032.89 700.766C1031.73 701.208 1030.44 701.43 1029 701.43ZM1034.43 688.656C1034.43 687.471 1034.19 686.417 1033.71 685.492C1033.24 684.555 1032.57 683.819 1031.7 683.285C1030.83 682.751 1029.82 682.484 1028.69 682.484C1027.51 682.484 1026.45 682.764 1025.53 683.324C1024.62 683.884 1023.89 684.639 1023.36 685.59C1022.84 686.527 1022.54 687.549 1022.46 688.656H1034.43ZM1045.27 701H1041.91V679.789H1045.15V683.109H1045.42C1045.96 681.977 1046.73 681.098 1047.75 680.473C1048.78 679.835 1050.07 679.516 1051.63 679.516C1053.09 679.516 1054.35 679.815 1055.42 680.414C1056.49 681 1057.32 681.892 1057.9 683.09C1058.49 684.288 1058.78 685.766 1058.78 687.523V701H1055.42V687.758C1055.42 686.117 1055 684.835 1054.15 683.91C1053.31 682.986 1052.13 682.523 1050.62 682.523C1049.58 682.523 1048.65 682.751 1047.84 683.207C1047.04 683.65 1046.41 684.307 1045.95 685.18C1045.49 686.039 1045.27 687.068 1045.27 688.266V701ZM1071.88 701.43C1070.12 701.43 1068.56 700.98 1067.19 700.082C1065.84 699.184 1064.78 697.908 1064.01 696.254C1063.24 694.587 1062.86 692.654 1062.86 690.453C1062.86 688.253 1063.24 686.326 1064.01 684.672C1064.78 683.018 1065.85 681.749 1067.21 680.863C1068.58 679.965 1070.15 679.516 1071.92 679.516C1073.17 679.516 1074.2 679.724 1075.02 680.141C1075.85 680.544 1076.45 680.98 1076.84 681.449C1077.23 681.905 1077.64 682.471 1078.05 683.148H1078.29V672.719H1081.69V701H1078.4V697.758H1078.05C1077.61 698.448 1077.19 699.027 1076.78 699.496C1076.39 699.965 1075.79 700.408 1074.97 700.824C1074.15 701.228 1073.12 701.43 1071.88 701.43ZM1072.35 698.422C1073.61 698.422 1074.7 698.09 1075.61 697.426C1076.52 696.749 1077.21 695.805 1077.68 694.594C1078.16 693.37 1078.4 691.964 1078.4 690.375C1078.4 688.799 1078.17 687.426 1077.7 686.254C1077.25 685.069 1076.56 684.151 1075.65 683.5C1074.74 682.849 1073.64 682.523 1072.35 682.523C1071.03 682.523 1069.92 682.868 1069.01 683.559C1068.1 684.236 1067.41 685.167 1066.94 686.352C1066.48 687.536 1066.26 688.878 1066.26 690.375C1066.26 691.911 1066.48 693.292 1066.94 694.516C1067.41 695.727 1068.1 696.684 1069.01 697.387C1069.93 698.077 1071.05 698.422 1072.35 698.422Z" fill="white"/>
<rect width="1920" height="100" fill="#2C73FF" fill-opacity="0.36"/>
<path d="M904.054 33.6484H912.354V62.2129H927.198V69H904.054V33.6484ZM943.5 69.4883C940.782 69.4883 938.413 68.9186 936.395 67.7793C934.393 66.64 932.855 65.0449 931.781 62.9941C930.707 60.9271 930.17 58.5345 930.17 55.8164C930.17 53.0983 930.707 50.7139 931.781 48.6631C932.855 46.596 934.393 44.9928 936.395 43.8535C938.413 42.7142 940.782 42.1445 943.5 42.1445C946.218 42.1445 948.578 42.7142 950.58 43.8535C952.598 44.9928 954.144 46.596 955.218 48.6631C956.293 50.7139 956.83 53.0983 956.83 55.8164C956.83 58.5345 956.293 60.9271 955.218 62.9941C954.144 65.0449 952.598 66.64 950.58 67.7793C948.578 68.9186 946.218 69.4883 943.5 69.4883ZM943.548 63.2871C944.574 63.2871 945.453 62.9779 946.185 62.3594C946.918 61.7246 947.471 60.8376 947.845 59.6982C948.236 58.5589 948.431 57.2487 948.431 55.7676C948.431 54.2865 948.236 52.9762 947.845 51.8369C947.471 50.6976 946.918 49.8187 946.185 49.2002C945.453 48.5654 944.574 48.248 943.548 48.248C941.97 48.248 940.741 48.9316 939.862 50.2988C938.999 51.666 938.568 53.4889 938.568 55.7676C938.568 58.0462 938.999 59.8691 939.862 61.2363C940.741 62.6035 941.97 63.2871 943.548 63.2871ZM973.082 79.498C970.592 79.498 968.427 79.14 966.588 78.4238C964.749 77.724 963.309 76.7311 962.267 75.4453C961.242 74.1595 960.664 72.6784 960.534 71.002H968.541C968.704 71.9297 969.201 72.6133 970.031 73.0527C970.861 73.5085 971.943 73.7363 973.278 73.7363C976.631 73.7363 978.307 72.1738 978.307 69.0488V64.3613H978.014C977.461 65.6309 976.541 66.6644 975.255 67.4619C973.969 68.2594 972.383 68.6582 970.495 68.6582C968.476 68.6582 966.662 68.1862 965.05 67.2422C963.455 66.2982 962.186 64.8577 961.242 62.9209C960.314 60.9678 959.85 58.5508 959.85 55.6699C959.85 52.7077 960.33 50.2093 961.29 48.1748C962.251 46.1403 963.537 44.6266 965.148 43.6338C966.759 42.641 968.525 42.1445 970.446 42.1445C972.399 42.1445 973.994 42.6165 975.231 43.5605C976.484 44.4883 977.396 45.6439 977.965 47.0273H978.209V42.4863H986.413V69.1465C986.413 71.3438 985.859 73.2155 984.752 74.7617C983.646 76.3242 982.083 77.5042 980.065 78.3018C978.063 79.0993 975.735 79.498 973.082 79.498ZM973.278 62.6035C974.857 62.6035 976.085 61.9932 976.964 60.7725C977.859 59.5518 978.307 57.8509 978.307 55.6699C978.307 53.4727 977.868 51.7474 976.989 50.4941C976.11 49.2246 974.873 48.5898 973.278 48.5898C971.699 48.5898 970.47 49.2327 969.591 50.5186C968.729 51.7881 968.297 53.5052 968.297 55.6699C968.297 57.8509 968.729 59.5518 969.591 60.7725C970.47 61.9932 971.699 62.6035 973.278 62.6035ZM1003.69 69.4883C1000.97 69.4883 998.604 68.9186 996.586 67.7793C994.584 66.64 993.046 65.0449 991.972 62.9941C990.898 60.9271 990.361 58.5345 990.361 55.8164C990.361 53.0983 990.898 50.7139 991.972 48.6631C993.046 46.596 994.584 44.9928 996.586 43.8535C998.604 42.7142 1000.97 42.1445 1003.69 42.1445C1006.41 42.1445 1008.77 42.7142 1010.77 43.8535C1012.79 44.9928 1014.34 46.596 1015.41 48.6631C1016.48 50.7139 1017.02 53.0983 1017.02 55.8164C1017.02 58.5345 1016.48 60.9271 1015.41 62.9941C1014.34 65.0449 1012.79 66.64 1010.77 67.7793C1008.77 68.9186 1006.41 69.4883 1003.69 69.4883ZM1003.74 63.2871C1004.76 63.2871 1005.64 62.9779 1006.38 62.3594C1007.11 61.7246 1007.66 60.8376 1008.04 59.6982C1008.43 58.5589 1008.62 57.2487 1008.62 55.7676C1008.62 54.2865 1008.43 52.9762 1008.04 51.8369C1007.66 50.6976 1007.11 49.8187 1006.38 49.2002C1005.64 48.5654 1004.76 48.248 1003.74 48.248C1002.16 48.248 1000.93 48.9316 1000.05 50.2988C999.19 51.666 998.759 53.4889 998.759 55.7676C998.759 58.0462 999.19 59.8691 1000.05 61.2363C1000.93 62.6035 1002.16 63.2871 1003.74 63.2871Z" fill="white"/>
<path d="M1829.84 75.7259C1831.29 77.3767 1833.14 78.7092 1835.25 79.6228C1837.35 80.5365 1839.66 81.0074 1842 80.9999C1844.34 81.0074 1846.65 80.5365 1848.75 79.6228C1850.86 78.7092 1852.71 77.3767 1854.16 75.7259C1846.09 76.7104 1837.91 76.7104 1829.84 75.7259ZM1864.5 42V44.112C1864.5 46.647 1865.3 49.125 1866.81 51.234L1870.5 56.4029C1873.87 61.1249 1871.3 67.5419 1865.43 69.0329C1850.11 72.9388 1833.89 72.9388 1818.57 69.0329C1812.7 67.5419 1810.13 61.1249 1813.5 56.4029L1817.19 51.234C1818.71 49.108 1819.51 46.6361 1819.5 44.112V42C1819.5 30.402 1829.58 21 1842 21C1854.42 21 1864.5 30.402 1864.5 42Z" fill="white"/>
<g clip-path="url(#clip0_67_635)">
<path d="M991.465 429.929C991.759 429.477 992.217 429.157 992.743 429.035C993.268 428.914 993.82 429.001 994.283 429.279C994.745 429.556 995.082 430.002 995.222 430.523C995.363 431.043 995.296 431.598 995.036 432.071C991.907 437.289 990.015 442.258 989.057 448.008C988.723 450 986.04 450.404 985.138 448.598C980.846 440.014 977.1 438.231 970.992 440.268C970.733 440.355 970.458 440.389 970.185 440.37C969.912 440.35 969.646 440.277 969.401 440.155C968.907 439.908 968.531 439.474 968.357 438.95C968.182 438.425 968.223 437.853 968.47 437.359C968.718 436.865 969.151 436.489 969.675 436.314C976.342 434.091 981.459 435.537 985.932 441.779L986.121 442.05L986.144 441.966C987.232 438.158 988.784 434.571 990.88 430.925L991.465 429.929ZM999.5 414.333C998.68 414.333 997.867 414.495 997.109 414.809C996.35 415.123 995.661 415.583 995.081 416.164C994.501 416.744 994.04 417.433 993.726 418.191C993.412 418.95 993.25 419.762 993.25 420.583C993.25 421.404 993.412 422.216 993.726 422.975C994.04 423.733 994.501 424.422 995.081 425.002C995.661 425.583 996.35 426.043 997.109 426.357C997.867 426.671 998.68 426.833 999.5 426.833C1001.16 426.833 1002.75 426.175 1003.92 425.002C1005.09 423.83 1005.75 422.241 1005.75 420.583C1005.75 418.925 1005.09 417.336 1003.92 416.164C1002.75 414.991 1001.16 414.333 999.5 414.333Z" fill="#1F2021"/>
</g>
<path d="M1014.42 421.789H1021.87C1023.3 421.789 1024.51 422.033 1025.48 422.521C1026.46 423.01 1027.19 423.679 1027.67 424.528C1028.16 425.378 1028.4 426.34 1028.4 427.414C1028.4 428.684 1028.08 429.675 1027.45 430.388C1026.81 431.091 1025.98 431.584 1024.94 431.867V432.072C1025.63 432.111 1026.3 432.346 1026.96 432.775C1027.63 433.205 1028.17 433.815 1028.6 434.606C1029.03 435.388 1029.25 436.311 1029.25 437.375C1029.25 438.479 1029 439.45 1028.49 440.29C1027.99 441.13 1027.21 441.794 1026.14 442.282C1025.08 442.761 1023.74 443 1022.13 443H1014.42V421.789ZM1022.1 440.656C1023.67 440.656 1024.83 440.354 1025.57 439.748C1026.32 439.143 1026.7 438.342 1026.7 437.346C1026.7 436.623 1026.51 435.959 1026.14 435.354C1025.78 434.738 1025.26 434.255 1024.58 433.903C1023.9 433.542 1023.13 433.361 1022.25 433.361H1017.06V440.656H1022.1ZM1021.78 431.076C1022.54 431.076 1023.23 430.93 1023.86 430.637C1024.48 430.334 1024.98 429.909 1025.34 429.362C1025.7 428.806 1025.88 428.166 1025.88 427.443C1025.88 426.467 1025.54 425.671 1024.87 425.056C1024.2 424.44 1023.19 424.133 1021.87 424.133H1017.06V431.076H1021.78ZM1038.88 443.322C1037.45 443.322 1036.18 442.985 1035.07 442.312C1033.98 441.628 1033.13 440.666 1032.52 439.426C1031.92 438.186 1031.62 436.75 1031.62 435.119C1031.62 433.488 1031.92 432.053 1032.52 430.812C1033.13 429.562 1033.98 428.596 1035.07 427.912C1036.18 427.229 1037.45 426.887 1038.88 426.887C1040.31 426.887 1041.56 427.229 1042.65 427.912C1043.74 428.596 1044.58 429.562 1045.18 430.812C1045.78 432.053 1046.09 433.488 1046.09 435.119C1046.09 436.75 1045.78 438.186 1045.18 439.426C1044.58 440.666 1043.74 441.628 1042.65 442.312C1041.56 442.985 1040.31 443.322 1038.88 443.322ZM1038.88 441.096C1039.91 441.096 1040.77 440.827 1041.47 440.29C1042.18 439.743 1042.7 439.021 1043.04 438.122C1043.39 437.214 1043.57 436.213 1043.57 435.119C1043.57 434.025 1043.39 433.024 1043.04 432.116C1042.7 431.208 1042.18 430.48 1041.47 429.934C1040.77 429.387 1039.91 429.113 1038.88 429.113C1037.84 429.113 1036.96 429.387 1036.24 429.934C1035.54 430.48 1035.01 431.208 1034.66 432.116C1034.31 433.024 1034.13 434.025 1034.13 435.119C1034.13 436.213 1034.31 437.214 1034.66 438.122C1035.01 439.021 1035.54 439.743 1036.24 440.29C1036.96 440.827 1037.84 441.096 1038.88 441.096ZM1059.15 427.092H1061.64V443H1059.15V440.305H1058.97C1058.56 441.174 1057.96 441.877 1057.15 442.414C1056.36 442.941 1055.4 443.205 1054.25 443.205C1053.23 443.205 1052.33 442.985 1051.56 442.546C1050.79 442.097 1050.18 441.423 1049.74 440.524C1049.31 439.626 1049.1 438.518 1049.1 437.199V427.092H1051.62V437.023C1051.62 437.775 1051.76 438.435 1052.06 439.001C1052.35 439.567 1052.76 440.007 1053.27 440.319C1053.8 440.622 1054.4 440.773 1055.07 440.773C1055.71 440.773 1056.34 440.612 1056.96 440.29C1057.6 439.968 1058.12 439.484 1058.53 438.84C1058.94 438.186 1059.15 437.395 1059.15 436.467V427.092ZM1067.9 443H1065.38V427.092H1067.81V429.582H1068.02C1068.42 428.732 1069 428.073 1069.76 427.604C1070.53 427.126 1071.5 426.887 1072.68 426.887C1073.77 426.887 1074.72 427.111 1075.52 427.561C1076.32 428 1076.94 428.669 1077.38 429.567C1077.82 430.466 1078.04 431.574 1078.04 432.893V443H1075.52V433.068C1075.52 431.838 1075.2 430.876 1074.56 430.183C1073.93 429.489 1073.05 429.143 1071.91 429.143C1071.13 429.143 1070.44 429.313 1069.83 429.655C1069.23 429.987 1068.75 430.48 1068.41 431.135C1068.07 431.779 1067.9 432.551 1067.9 433.449V443ZM1088.28 443.322C1086.81 443.322 1085.52 442.976 1084.42 442.282C1083.32 441.579 1082.48 440.607 1081.9 439.367C1081.31 438.127 1081.02 436.711 1081.02 435.119C1081.02 433.518 1081.32 432.097 1081.91 430.856C1082.52 429.606 1083.36 428.635 1084.45 427.941C1085.54 427.238 1086.8 426.887 1088.22 426.887C1089.35 426.887 1090.36 427.097 1091.27 427.517C1092.18 427.927 1092.92 428.513 1093.48 429.274C1094.06 430.026 1094.42 430.9 1094.55 431.896H1092.03C1091.92 431.389 1091.69 430.925 1091.36 430.505C1091.03 430.085 1090.6 429.748 1090.07 429.494C1089.55 429.24 1088.96 429.113 1088.28 429.113C1087.35 429.113 1086.52 429.357 1085.79 429.846C1085.08 430.334 1084.52 431.027 1084.12 431.926C1083.73 432.814 1083.54 433.85 1083.54 435.031C1083.54 436.252 1083.73 437.316 1084.11 438.225C1084.5 439.133 1085.05 439.836 1085.76 440.334C1086.49 440.822 1087.33 441.066 1088.28 441.066C1089.23 441.066 1090.04 440.827 1090.7 440.349C1091.37 439.86 1091.82 439.182 1092.03 438.312H1094.55C1094.42 439.27 1094.07 440.129 1093.53 440.891C1092.98 441.643 1092.26 442.238 1091.36 442.678C1090.46 443.107 1089.44 443.322 1088.28 443.322ZM1104.04 443.322C1102.52 443.322 1101.21 442.985 1100.08 442.312C1098.96 441.638 1098.1 440.686 1097.49 439.455C1096.89 438.225 1096.6 436.799 1096.6 435.178C1096.6 433.557 1096.89 432.121 1097.49 430.871C1098.1 429.611 1098.94 428.635 1100.02 427.941C1101.12 427.238 1102.38 426.887 1103.8 426.887C1105 426.887 1106.12 427.155 1107.16 427.692C1108.19 428.22 1109.03 429.079 1109.68 430.271C1110.33 431.452 1110.66 432.971 1110.66 434.826V435.881H1099.12C1099.16 436.984 1099.38 437.927 1099.8 438.708C1100.22 439.489 1100.8 440.085 1101.52 440.495C1102.25 440.896 1103.09 441.096 1104.04 441.096C1104.94 441.096 1105.69 440.93 1106.31 440.598C1106.93 440.256 1107.41 439.816 1107.73 439.279H1110.42C1110.17 440.08 1109.75 440.788 1109.15 441.403C1108.56 442.009 1107.83 442.482 1106.95 442.824C1106.08 443.156 1105.11 443.322 1104.04 443.322ZM1108.11 433.742C1108.11 432.854 1107.93 432.062 1107.57 431.369C1107.22 430.666 1106.71 430.114 1106.06 429.714C1105.41 429.313 1104.65 429.113 1103.8 429.113C1102.92 429.113 1102.12 429.323 1101.43 429.743C1100.75 430.163 1100.21 430.729 1099.8 431.442C1099.41 432.146 1099.19 432.912 1099.13 433.742H1108.11Z" fill="#1F2021"/>
<path d="M805.001 440.563L787.105 422.688L784.168 425.625L801.876 443.333H788.335V447.5H821.668V443.333H808.126L818.855 432.604C819.57 432.864 820.334 432.963 821.091 432.896C821.849 432.829 822.583 432.597 823.241 432.216C823.899 431.835 824.466 431.315 824.902 430.691C825.337 430.068 825.631 429.357 825.763 428.607C825.894 427.858 825.859 427.089 825.662 426.355C825.464 425.62 825.108 424.938 824.619 424.356C824.129 423.774 823.518 423.306 822.828 422.985C822.138 422.665 821.387 422.499 820.626 422.5C819.245 422.5 817.92 423.049 816.943 424.025C815.967 425.002 815.418 426.327 815.418 427.708C815.418 428.438 815.564 429.104 815.835 429.729L805.001 440.563Z" fill="#D7D8E0"/>
<path d="M848.614 446H846.095L834.61 429.477H834.405V446H831.769V424.789H834.317L845.802 441.342H846.007V424.789H848.614V446ZM859.183 446.322C857.748 446.322 856.478 445.985 855.375 445.312C854.281 444.628 853.431 443.666 852.826 442.426C852.221 441.186 851.918 439.75 851.918 438.119C851.918 436.488 852.221 435.053 852.826 433.812C853.431 432.562 854.281 431.596 855.375 430.912C856.478 430.229 857.748 429.887 859.183 429.887C860.609 429.887 861.864 430.229 862.948 430.912C864.042 431.596 864.887 432.562 865.482 433.812C866.088 435.053 866.39 436.488 866.39 438.119C866.39 439.75 866.088 441.186 865.482 442.426C864.887 443.666 864.042 444.628 862.948 445.312C861.864 445.985 860.609 446.322 859.183 446.322ZM859.183 444.096C860.209 444.096 861.073 443.827 861.776 443.29C862.479 442.743 863.002 442.021 863.344 441.122C863.695 440.214 863.871 439.213 863.871 438.119C863.871 437.025 863.695 436.024 863.344 435.116C863.002 434.208 862.479 433.48 861.776 432.934C861.073 432.387 860.209 432.113 859.183 432.113C858.138 432.113 857.26 432.387 856.547 432.934C855.844 433.48 855.316 434.208 854.965 435.116C854.613 436.024 854.437 437.025 854.437 438.119C854.437 439.213 854.613 440.214 854.965 441.122C855.316 442.021 855.844 442.743 856.547 443.29C857.26 443.827 858.138 444.096 859.183 444.096ZM869.401 430.092H871.833V432.523H872.008C872.301 431.713 872.824 431.063 873.576 430.575C874.328 430.077 875.172 429.828 876.11 429.828C876.598 429.828 877.038 429.848 877.428 429.887V432.436C877.321 432.396 877.111 432.357 876.798 432.318C876.496 432.279 876.198 432.26 875.905 432.26C875.153 432.26 874.474 432.421 873.869 432.743C873.263 433.065 872.785 433.51 872.433 434.076C872.091 434.643 871.921 435.277 871.921 435.98V446H869.401V430.092ZM879.589 430.092H882.021V432.582H882.226C882.568 431.723 883.105 431.059 883.837 430.59C884.579 430.121 885.468 429.887 886.503 429.887C887.519 429.887 888.383 430.121 889.096 430.59C889.809 431.049 890.361 431.713 890.751 432.582H890.927C891.347 431.742 891.967 431.083 892.787 430.604C893.608 430.126 894.579 429.887 895.703 429.887C896.669 429.887 897.514 430.087 898.237 430.487C898.969 430.888 899.54 431.498 899.951 432.318C900.361 433.129 900.566 434.145 900.566 435.365V446H898.046V435.395C898.046 434.291 897.744 433.476 897.138 432.948C896.533 432.411 895.761 432.143 894.824 432.143C894.101 432.143 893.476 432.294 892.949 432.597C892.421 432.899 892.021 433.314 891.747 433.842C891.474 434.369 891.337 434.975 891.337 435.658V446H888.788V435.131C888.788 434.545 888.657 434.027 888.393 433.578C888.129 433.119 887.758 432.768 887.28 432.523C886.811 432.27 886.279 432.143 885.683 432.143C885.048 432.143 884.457 432.313 883.911 432.655C883.364 432.987 882.924 433.451 882.592 434.047C882.27 434.643 882.109 435.316 882.109 436.068V446H879.589V430.092ZM903.547 441.488C903.547 439.838 904.109 438.676 905.232 438.002C906.364 437.328 907.795 436.928 909.524 436.801C910.188 436.752 910.93 436.708 911.75 436.669C912.58 436.62 913.274 436.586 913.83 436.566V435.277C913.83 434.252 913.523 433.466 912.907 432.919C912.302 432.362 911.408 432.084 910.227 432.084C909.26 432.084 908.469 432.284 907.854 432.685C907.238 433.075 906.838 433.588 906.653 434.223H904.016C904.123 433.373 904.455 432.621 905.012 431.967C905.569 431.312 906.306 430.805 907.224 430.443C908.152 430.072 909.192 429.887 910.344 429.887C911.867 429.887 913.244 430.277 914.475 431.059C915.705 431.83 916.321 433.314 916.321 435.512V446H913.83V443.832H913.713C913.518 444.242 913.215 444.643 912.805 445.033C912.404 445.414 911.877 445.736 911.223 446C910.578 446.254 909.826 446.381 908.967 446.381C907.951 446.381 907.033 446.186 906.213 445.795C905.393 445.404 904.743 444.843 904.265 444.11C903.786 443.368 903.547 442.494 903.547 441.488ZM906.067 441.605C906.067 442.416 906.369 443.041 906.975 443.48C907.59 443.91 908.401 444.125 909.406 444.125C910.315 444.125 911.101 443.944 911.765 443.583C912.439 443.222 912.951 442.743 913.303 442.147C913.654 441.552 913.83 440.912 913.83 440.229V438.632C913.596 438.642 912.951 438.686 911.897 438.764L909.817 438.91C908.625 438.988 907.702 439.247 907.048 439.687C906.394 440.126 906.067 440.766 906.067 441.605ZM922.583 446H920.063V424.789H922.583V446Z" fill="#D7D8E0"/>
<path d="M800.652 230H794.773L767.977 191.445H767.498V230H761.346V180.508H767.293L794.09 219.131H794.568V180.508H800.652V230ZM825.714 230.752C822.364 230.752 819.402 229.966 816.827 228.394C814.275 226.799 812.292 224.554 810.88 221.66C809.467 218.766 808.761 215.417 808.761 211.611C808.761 207.806 809.467 204.456 810.88 201.562C812.292 198.646 814.275 196.39 816.827 194.795C819.402 193.2 822.364 192.402 825.714 192.402C829.041 192.402 831.969 193.2 834.498 194.795C837.05 196.39 839.021 198.646 840.411 201.562C841.824 204.456 842.53 207.806 842.53 211.611C842.53 215.417 841.824 218.766 840.411 221.66C839.021 224.554 837.05 226.799 834.498 228.394C831.969 229.966 829.041 230.752 825.714 230.752ZM825.714 225.557C828.106 225.557 830.123 224.93 831.763 223.677C833.404 222.401 834.623 220.715 835.421 218.618C836.241 216.499 836.651 214.163 836.651 211.611C836.651 209.059 836.241 206.724 835.421 204.604C834.623 202.485 833.404 200.788 831.763 199.512C830.123 198.236 828.106 197.598 825.714 197.598C823.276 197.598 821.225 198.236 819.561 199.512C817.921 200.788 816.69 202.485 815.87 204.604C815.05 206.724 814.639 209.059 814.639 211.611C814.639 214.163 815.05 216.499 815.87 218.618C816.69 220.715 817.921 222.401 819.561 223.677C821.225 224.93 823.276 225.557 825.714 225.557ZM849.955 192.881H855.629V198.555H856.039C856.722 196.663 857.941 195.148 859.696 194.009C861.45 192.847 863.421 192.266 865.609 192.266C866.748 192.266 867.774 192.311 868.685 192.402V198.35C868.434 198.258 867.945 198.167 867.215 198.076C866.509 197.985 865.814 197.939 865.13 197.939C863.376 197.939 861.792 198.315 860.379 199.067C858.967 199.819 857.85 200.856 857.03 202.178C856.232 203.499 855.834 204.98 855.834 206.621V230H849.955V192.881ZM874.127 192.881H879.801V198.691H880.28C881.077 196.686 882.33 195.137 884.039 194.043C885.771 192.949 887.845 192.402 890.26 192.402C892.63 192.402 894.647 192.949 896.31 194.043C897.973 195.114 899.261 196.663 900.172 198.691H900.582C901.562 196.732 903.009 195.194 904.923 194.077C906.837 192.961 909.105 192.402 911.725 192.402C913.981 192.402 915.952 192.869 917.638 193.804C919.347 194.738 920.68 196.162 921.637 198.076C922.594 199.967 923.073 202.337 923.073 205.186V230H917.194V205.254C917.194 202.679 916.487 200.776 915.075 199.546C913.662 198.293 911.862 197.666 909.674 197.666C907.988 197.666 906.53 198.019 905.299 198.726C904.069 199.432 903.135 200.4 902.496 201.631C901.858 202.861 901.539 204.274 901.539 205.869V230H895.592V204.639C895.592 203.271 895.285 202.064 894.669 201.016C894.054 199.945 893.188 199.124 892.072 198.555C890.978 197.962 889.736 197.666 888.346 197.666C886.865 197.666 885.486 198.065 884.21 198.862C882.934 199.637 881.909 200.719 881.134 202.109C880.382 203.499 880.006 205.072 880.006 206.826V230H874.127V192.881ZM930.429 219.473C930.429 215.622 931.739 212.91 934.36 211.338C937.003 209.766 940.341 208.831 944.374 208.535C945.924 208.421 947.655 208.319 949.57 208.228C951.506 208.114 953.124 208.034 954.423 207.988V204.98C954.423 202.588 953.705 200.754 952.27 199.478C950.857 198.179 948.772 197.529 946.015 197.529C943.759 197.529 941.913 197.996 940.478 198.931C939.042 199.842 938.108 201.038 937.675 202.52H931.523C931.773 200.537 932.548 198.783 933.847 197.256C935.146 195.729 936.866 194.544 939.008 193.701C941.173 192.835 943.599 192.402 946.288 192.402C949.843 192.402 953.056 193.314 955.927 195.137C958.798 196.937 960.234 200.4 960.234 205.527V230H954.423V224.941H954.15C953.694 225.898 952.987 226.833 952.03 227.744C951.096 228.633 949.866 229.385 948.339 230C946.835 230.592 945.081 230.889 943.075 230.889C940.706 230.889 938.564 230.433 936.65 229.521C934.736 228.61 933.22 227.3 932.104 225.591C930.987 223.859 930.429 221.82 930.429 219.473ZM936.308 219.746C936.308 221.637 937.014 223.096 938.427 224.121C939.862 225.124 941.754 225.625 944.101 225.625C946.22 225.625 948.054 225.203 949.604 224.36C951.176 223.517 952.372 222.401 953.193 221.011C954.013 219.621 954.423 218.128 954.423 216.533V212.808C953.876 212.83 952.372 212.933 949.911 213.115L945.058 213.457C942.278 213.639 940.125 214.243 938.598 215.269C937.071 216.294 936.308 217.786 936.308 219.746ZM975.246 230H969.367V180.508H975.246V230ZM1036.1 195.957C1035.01 192.699 1033.25 190.158 1030.84 188.335C1028.44 186.489 1025.53 185.566 1022.09 185.566C1019.13 185.566 1016.45 186.33 1014.06 187.856C1011.69 189.383 1009.81 191.628 1008.42 194.59C1007.05 197.552 1006.36 201.107 1006.36 205.254C1006.36 209.401 1007.06 212.956 1008.45 215.918C1009.84 218.88 1011.75 221.125 1014.19 222.651C1016.63 224.178 1019.4 224.941 1022.5 224.941C1025.28 224.941 1027.73 224.36 1029.85 223.198C1031.99 222.013 1033.65 220.339 1034.84 218.174C1036.04 215.986 1036.67 213.457 1036.72 210.586H1023.8V205.186H1042.73V210.518C1042.73 214.551 1041.87 218.094 1040.13 221.147C1038.4 224.201 1036 226.559 1032.92 228.223C1029.87 229.863 1026.39 230.684 1022.5 230.684C1018.12 230.684 1014.26 229.658 1010.91 227.607C1007.58 225.534 1005 222.583 1003.15 218.755C1001.33 214.904 1000.42 210.404 1000.42 205.254C1000.42 200.127 1001.33 195.649 1003.15 191.821C1005 187.97 1007.56 185.008 1010.84 182.935C1014.12 180.861 1017.87 179.824 1022.09 179.824C1025.53 179.824 1028.68 180.508 1031.56 181.875C1034.43 183.219 1036.81 185.111 1038.7 187.549C1040.59 189.987 1041.84 192.79 1042.46 195.957H1036.1ZM1049.13 219.473C1049.13 215.622 1050.44 212.91 1053.06 211.338C1055.71 209.766 1059.04 208.831 1063.08 208.535C1064.63 208.421 1066.36 208.319 1068.27 208.228C1070.21 208.114 1071.83 208.034 1073.13 207.988V204.98C1073.13 202.588 1072.41 200.754 1070.97 199.478C1069.56 198.179 1067.47 197.529 1064.72 197.529C1062.46 197.529 1060.62 197.996 1059.18 198.931C1057.74 199.842 1056.81 201.038 1056.38 202.52H1050.23C1050.48 200.537 1051.25 198.783 1052.55 197.256C1053.85 195.729 1055.57 194.544 1057.71 193.701C1059.88 192.835 1062.3 192.402 1064.99 192.402C1068.55 192.402 1071.76 193.314 1074.63 195.137C1077.5 196.937 1078.94 200.4 1078.94 205.527V230H1073.13V224.941H1072.85C1072.4 225.898 1071.69 226.833 1070.73 227.744C1069.8 228.633 1068.57 229.385 1067.04 230C1065.54 230.592 1063.78 230.889 1061.78 230.889C1059.41 230.889 1057.27 230.433 1055.35 229.521C1053.44 228.61 1051.92 227.3 1050.81 225.591C1049.69 223.859 1049.13 221.82 1049.13 219.473ZM1055.01 219.746C1055.01 221.637 1055.72 223.096 1057.13 224.121C1058.56 225.124 1060.46 225.625 1062.8 225.625C1064.92 225.625 1066.76 225.203 1068.31 224.36C1069.88 223.517 1071.07 222.401 1071.89 221.011C1072.72 219.621 1073.13 218.128 1073.13 216.533V212.808C1072.58 212.83 1071.07 212.933 1068.61 213.115L1063.76 213.457C1060.98 213.639 1058.83 214.243 1057.3 215.269C1055.77 216.294 1055.01 217.786 1055.01 219.746ZM1088.07 192.881H1093.74V198.691H1094.22C1095.02 196.686 1096.27 195.137 1097.98 194.043C1099.71 192.949 1101.79 192.402 1104.2 192.402C1106.57 192.402 1108.59 192.949 1110.25 194.043C1111.92 195.114 1113.2 196.663 1114.11 198.691H1114.52C1115.5 196.732 1116.95 195.194 1118.87 194.077C1120.78 192.961 1123.05 192.402 1125.67 192.402C1127.92 192.402 1129.89 192.869 1131.58 193.804C1133.29 194.738 1134.62 196.162 1135.58 198.076C1136.54 199.967 1137.01 202.337 1137.01 205.186V230H1131.14V205.254C1131.14 202.679 1130.43 200.776 1129.02 199.546C1127.6 198.293 1125.8 197.666 1123.62 197.666C1121.93 197.666 1120.47 198.019 1119.24 198.726C1118.01 199.432 1117.08 200.4 1116.44 201.631C1115.8 202.861 1115.48 204.274 1115.48 205.869V230H1109.53V204.639C1109.53 203.271 1109.23 202.064 1108.61 201.016C1108 199.945 1107.13 199.124 1106.01 198.555C1104.92 197.962 1103.68 197.666 1102.29 197.666C1100.81 197.666 1099.43 198.065 1098.15 198.862C1096.88 199.637 1095.85 200.719 1095.08 202.109C1094.32 203.499 1093.95 205.072 1093.95 206.826V230H1088.07V192.881ZM1161.73 230.752C1158.2 230.752 1155.13 229.966 1152.51 228.394C1149.89 226.821 1147.87 224.6 1146.46 221.729C1145.07 218.857 1144.37 215.531 1144.37 211.748C1144.37 207.965 1145.07 204.616 1146.46 201.699C1147.87 198.76 1149.84 196.481 1152.37 194.863C1154.92 193.223 1157.86 192.402 1161.19 192.402C1163.99 192.402 1166.6 193.029 1169.01 194.282C1171.43 195.513 1173.39 197.518 1174.89 200.298C1176.42 203.055 1177.18 206.598 1177.18 210.928V213.389H1150.25C1150.34 215.964 1150.88 218.162 1151.86 219.985C1152.84 221.808 1154.17 223.198 1155.86 224.155C1157.56 225.09 1159.52 225.557 1161.73 225.557C1163.83 225.557 1165.6 225.169 1167.03 224.395C1168.49 223.597 1169.6 222.572 1170.35 221.318H1176.64C1176.04 223.187 1175.05 224.839 1173.66 226.274C1172.3 227.687 1170.59 228.792 1168.54 229.59C1166.51 230.365 1164.24 230.752 1161.73 230.752ZM1171.24 208.398C1171.24 206.325 1170.81 204.479 1169.97 202.861C1169.15 201.221 1167.98 199.933 1166.45 198.999C1164.92 198.065 1163.17 197.598 1161.19 197.598C1159.11 197.598 1157.27 198.088 1155.65 199.067C1154.06 200.047 1152.79 201.369 1151.86 203.032C1150.94 204.673 1150.42 206.462 1150.28 208.398H1171.24Z" fill="black"/>
<path d="M646.415 265.25H648.935V285.29H646.415V265.25ZM631.505 289.7H649.745V291.74H631.505V289.7ZM631.505 283.4H633.965V290.78H631.505V283.4ZM634.055 270.41H636.095V271.55C636.095 276.41 633.005 280.43 628.475 281.99L627.245 280.04C631.265 278.72 634.055 275.3 634.055 271.55V270.41ZM634.475 270.41H636.515V271.55C636.515 275.09 639.335 278.3 643.385 279.56L642.185 281.51C637.595 280.04 634.475 276.2 634.475 271.55V270.41ZM627.875 268.85H642.635V270.86H627.875V268.85ZM634.055 265.34H636.515V269.81H634.055V265.34ZM657.063 266.99H674.013V269H657.063V266.99ZM654.003 278.63H678.513V280.67H654.003V278.63ZM664.953 279.98H667.443V292.37H664.953V279.98ZM672.843 266.99H675.273V269.33C675.273 272.15 675.273 275.33 674.253 279.92L671.793 279.59C672.843 275.21 672.843 272.06 672.843 269.33V266.99ZM701.461 276.02H706.471V278.12H701.461V276.02ZM699.631 265.19H702.151V292.34H699.631V265.19ZM682.351 267.86H684.841V284.66H682.351V267.86ZM682.351 283.37H684.511C688.531 283.37 692.641 283.1 697.111 282.17L697.411 284.24C692.791 285.2 688.621 285.47 684.511 285.47H682.351V283.37ZM734.128 265.19H736.648V292.37H734.128V265.19ZM736.048 275.9H741.088V278H736.048V275.9ZM716.938 283.52H719.068C724.078 283.52 727.588 283.34 731.638 282.59L731.908 284.69C727.738 285.47 724.168 285.62 719.068 285.62H716.938V283.52ZM716.938 267.83H729.538V269.87H719.398V284.45H716.938V267.83ZM743.066 280.25H767.666V282.26H743.066V280.25ZM746.306 289.7H765.086V291.74H746.306V289.7ZM746.306 284.39H748.796V290.48H746.306V284.39ZM746.186 266.12H764.486V272.84H748.706V276.5H746.246V271.01H762.056V268.07H746.186V266.12ZM746.246 275.84H765.086V277.79H746.246V275.84ZM783.864 281.99H786.414V292.34H783.864V281.99ZM793.194 281.99H795.744V292.34H793.194V281.99ZM777.564 280.64H802.164V282.71H777.564V280.64ZM789.804 266.3C795.474 266.3 799.284 268.58 799.284 272.21C799.284 275.81 795.474 278.12 789.804 278.12C784.164 278.12 780.324 275.81 780.324 272.21C780.324 268.58 784.164 266.3 789.804 266.3ZM789.804 268.31C785.664 268.31 782.844 269.84 782.844 272.21C782.844 274.58 785.664 276.11 789.804 276.11C793.944 276.11 796.734 274.58 796.734 272.21C796.734 269.84 793.944 268.31 789.804 268.31ZM824.721 265.19H827.181V292.37H824.721V265.19ZM818.871 275.09H825.441V277.13H818.871V275.09ZM811.761 269.09H813.771V273.14C813.771 278.99 810.411 284.78 806.121 287L804.651 285.02C808.551 283.1 811.761 277.97 811.761 273.14V269.09ZM812.271 269.09H814.251V273.14C814.251 277.67 817.401 282.62 821.331 284.48L819.861 286.43C815.571 284.3 812.271 278.72 812.271 273.14V269.09ZM805.641 267.98H820.401V270.05H805.641V267.98ZM832.189 276.53H856.699V278.57H832.189V276.53ZM835.429 272.33H853.789V274.34H835.429V272.33ZM835.429 266.09H853.489V268.13H837.889V273.95H835.429V266.09ZM835.129 280.91H853.549V287.3H837.649V290.72H835.189V285.44H851.089V282.86H835.129V280.91ZM835.189 290.06H854.359V292.04H835.189V290.06ZM860.687 268.19H872.957V270.2H860.687V268.19ZM864.917 275.93H867.377V285.11H864.917V275.93ZM871.937 268.19H874.367V269.63C874.367 271.85 874.367 275.39 873.587 280.43L871.127 280.19C871.937 275.3 871.937 271.82 871.937 269.63V268.19ZM877.787 265.22H880.247V292.34H877.787V265.22ZM879.587 276.56H884.597V278.66H879.587V276.56ZM859.487 286.43L859.187 284.33C864.107 284.33 870.647 284.24 876.137 283.55L876.257 285.38C870.647 286.28 864.287 286.4 859.487 286.43ZM908.444 272H914.474V274.07H908.444V272ZM913.784 265.22H916.274V281.09H913.784V265.22ZM898.694 282.41H916.274V291.98H898.694V282.41ZM913.844 284.39H901.124V289.97H913.844V284.39ZM900.884 267.8H902.924V269.99C902.924 274.94 899.864 279.17 895.334 280.85L894.044 278.87C898.094 277.43 900.884 273.83 900.884 269.99V267.8ZM901.364 267.8H903.374V269.96C903.374 273.47 906.014 276.86 909.944 278.24L908.684 280.22C904.274 278.63 901.364 274.52 901.364 269.96V267.8ZM894.824 266.96H909.314V268.97H894.824V266.96ZM932.232 266.18H934.422V267.68C934.422 272.87 929.142 276.59 923.502 277.55L922.512 275.54C927.462 274.79 932.232 271.55 932.232 267.68V266.18ZM932.682 266.18H934.842V267.68C934.842 271.46 939.672 274.79 944.562 275.54L943.572 277.55C937.992 276.59 932.682 272.81 932.682 267.68V266.18ZM932.232 282.02H934.692V292.34H932.232V282.02ZM921.282 280.49H945.792V282.56H921.282V280.49ZM959.56 275.75H964.69V277.82H959.56V275.75ZM969.22 265.22H971.62V292.34H969.22V265.22ZM963.85 265.79H966.22V290.99H963.85V265.79ZM954.67 267.47C958.18 267.47 960.46 271.1 960.46 276.92C960.46 282.74 958.18 286.37 954.67 286.37C951.16 286.37 948.91 282.74 948.91 276.92C948.91 271.1 951.16 267.47 954.67 267.47ZM954.67 269.78C952.54 269.78 951.19 272.54 951.19 276.92C951.19 281.3 952.54 284.06 954.67 284.06C956.83 284.06 958.18 281.3 958.18 276.92C958.18 272.54 956.83 269.78 954.67 269.78ZM984.517 267.32H996.517V269.36H984.517V267.32ZM988.597 273.38H991.057V280.16H988.597V273.38ZM995.527 267.32H997.987V268.76C997.987 270.53 997.987 273.23 997.267 276.8L994.837 276.53C995.527 272.96 995.527 270.5 995.527 268.76V267.32ZM1001.68 265.22H1004.17V285.65H1001.68V265.22ZM1003.03 274.04H1008.04V276.11H1003.03V274.04ZM987.037 289.7H1005.04V291.74H987.037V289.7ZM987.037 283.76H989.497V290.33H987.037V283.76ZM983.137 281.33L982.867 279.29C987.697 279.29 994.357 279.17 999.847 278.42L1000.03 280.22C994.387 281.21 987.907 281.33 983.137 281.33ZM1020.87 272.75H1026.9V274.76H1020.87V272.75ZM1020.66 279.56H1026.84V281.57H1020.66V279.56ZM1031.01 265.22H1033.41V292.34H1031.01V265.22ZM1025.58 265.91H1027.92V290.96H1025.58V265.91ZM1019.52 268.64H1021.92C1021.92 275.75 1019.07 282.14 1011.78 286.49L1010.34 284.72C1016.67 280.88 1019.52 275.48 1019.52 269.09V268.64ZM1011.54 268.64H1020.51V270.68H1011.54V268.64ZM1047.96 281.12H1050.3V284.51H1055.04V281.12H1057.35V291.98H1047.96V281.12ZM1050.3 286.37V290.03H1055.04V286.37H1050.3ZM1062.6 280.97H1064.52V283.22C1064.52 286.91 1062.66 290.63 1058.91 292.22L1057.65 290.33C1060.92 288.95 1062.6 285.98 1062.6 283.22V280.97ZM1063.11 280.97H1065.03V283.22C1065.03 286.13 1066.71 289.07 1069.98 290.33L1068.72 292.22C1064.94 290.66 1063.11 287.06 1063.11 283.22V280.97ZM1058.49 271.58H1065.78V273.65H1058.49V271.58ZM1052.25 266.42C1056.3 266.42 1059.24 268.94 1059.24 272.66C1059.24 276.35 1056.3 278.9 1052.25 278.9C1048.2 278.9 1045.26 276.35 1045.26 272.66C1045.26 268.94 1048.2 266.42 1052.25 266.42ZM1052.25 268.49C1049.58 268.49 1047.66 270.2 1047.66 272.66C1047.66 275.09 1049.58 276.83 1052.25 276.83C1054.92 276.83 1056.84 275.09 1056.84 272.66C1056.84 270.2 1054.92 268.49 1052.25 268.49ZM1064.67 265.22H1067.16V279.59H1064.67V265.22ZM1091.85 265.19H1094.34V292.37H1091.85V265.19ZM1080.03 267.29C1084.05 267.29 1086.93 270.98 1086.93 276.74C1086.93 282.53 1084.05 286.22 1080.03 286.22C1076.04 286.22 1073.16 282.53 1073.16 276.74C1073.16 270.98 1076.04 267.29 1080.03 267.29ZM1080.03 269.54C1077.39 269.54 1075.53 272.36 1075.53 276.74C1075.53 281.15 1077.39 284.03 1080.03 284.03C1082.7 284.03 1084.53 281.15 1084.53 276.74C1084.53 272.36 1082.7 269.54 1080.03 269.54ZM1127.31 265.22H1129.71V292.34H1127.31V265.22ZM1115.55 276.29H1122.39V278.3H1115.55V276.29ZM1121.67 265.91H1124.01V290.96H1121.67V265.91ZM1115.88 268.64H1118.28C1118.28 275.75 1115.43 282.14 1108.11 286.49L1106.64 284.72C1113.03 280.88 1115.88 275.48 1115.88 269.09V268.64ZM1107.84 268.64H1116.81V270.68H1107.84V268.64ZM1153.68 265.25H1156.2V280.73H1153.68V265.25ZM1138.68 282.2H1156.2V291.98H1138.68V282.2ZM1153.74 284.18H1141.11V289.97H1153.74V284.18ZM1141.65 266.66C1145.76 266.66 1148.7 269.24 1148.7 272.99C1148.7 276.74 1145.76 279.32 1141.65 279.32C1137.54 279.32 1134.57 276.74 1134.57 272.99C1134.57 269.24 1137.54 266.66 1141.65 266.66ZM1141.65 268.73C1138.95 268.73 1137 270.47 1137 272.99C1137 275.51 1138.95 277.22 1141.65 277.22C1144.35 277.22 1146.3 275.51 1146.3 272.99C1146.3 270.47 1144.35 268.73 1141.65 268.73ZM1173.5 265.67C1179.47 265.67 1183.04 267.35 1183.04 270.38C1183.04 273.41 1179.47 275.09 1173.5 275.09C1167.5 275.09 1163.96 273.41 1163.96 270.38C1163.96 267.35 1167.5 265.67 1173.5 265.67ZM1173.5 267.56C1169.06 267.56 1166.51 268.58 1166.51 270.38C1166.51 272.18 1169.06 273.2 1173.5 273.2C1177.91 273.2 1180.46 272.18 1180.46 270.38C1180.46 268.58 1177.91 267.56 1173.5 267.56ZM1161.23 276.89H1185.74V278.9H1161.23V276.89ZM1164.2 281.21H1182.62V287.33H1166.72V290.63H1164.26V285.53H1180.16V283.13H1164.2V281.21ZM1164.26 290.09H1183.43V292.04H1164.26V290.09ZM1195.73 276.77H1220.24V278.78H1195.73V276.77ZM1198.7 281.21H1217.12V287.42H1201.22V290.72H1198.76V285.59H1214.66V283.13H1198.7V281.21ZM1198.76 290.12H1217.93V292.04H1198.76V290.12ZM1206.56 267.08H1208.75V267.95C1208.75 272.12 1203.65 274.85 1197.86 275.39L1197.05 273.5C1202.06 273.05 1206.56 270.86 1206.56 267.95V267.08ZM1207.28 267.08H1209.44V267.95C1209.44 270.86 1213.94 273.05 1218.95 273.5L1218.14 275.39C1212.38 274.85 1207.28 272.12 1207.28 267.95V267.08ZM1197.98 266.24H1218.05V268.22H1197.98V266.24ZM1234.25 268.13H1236.68C1236.68 275.87 1233.32 282.8 1224.38 287.21L1223.06 285.26C1230.74 281.45 1234.25 275.69 1234.25 268.55V268.13ZM1224.23 268.13H1235.48V270.17H1224.23V268.13ZM1242.86 265.19H1245.35V292.31H1242.86V265.19ZM1235.69 272.63H1243.37V274.64H1235.69V272.63ZM1235.39 279.92H1243.07V281.96H1235.39V279.92ZM1250.36 286.82H1274.93V288.89H1250.36V286.82ZM1261.34 280.34H1263.83V287.42H1261.34V280.34ZM1253.24 267.14H1255.7V271.97H1269.53V267.14H1271.99V281H1253.24V267.14ZM1255.7 273.98V278.96H1269.53V273.98H1255.7ZM1288.33 274.91H1293.52V276.98H1288.33V274.91ZM1283.26 267.77H1285.21V272.93C1285.21 278.6 1282.84 284.09 1278.88 286.52L1277.32 284.63C1281.04 282.44 1283.26 277.58 1283.26 272.93V267.77ZM1283.74 267.77H1285.66V272.84C1285.66 277.19 1287.7 281.81 1291.27 283.97L1289.83 285.92C1285.93 283.52 1283.74 278.12 1283.74 272.84V267.77ZM1298.29 265.22H1300.69V292.34H1298.29V265.22ZM1292.8 265.79H1295.14V290.99H1292.8V265.79ZM1310.95 279.17H1313.41V287.3H1310.95V279.17ZM1320.97 279.17H1323.46V287.3H1320.97V279.17ZM1304.95 286.82H1329.52V288.89H1304.95V286.82ZM1317.19 266.93C1322.92 266.93 1327.03 269.66 1327.03 273.92C1327.03 278.15 1322.92 280.88 1317.19 280.88C1311.43 280.88 1307.32 278.15 1307.32 273.92C1307.32 269.66 1311.43 266.93 1317.19 266.93ZM1317.19 268.91C1312.84 268.91 1309.72 270.89 1309.72 273.92C1309.72 276.92 1312.84 278.9 1317.19 278.9C1321.54 278.9 1324.63 276.92 1324.63 273.92C1324.63 270.89 1321.54 268.91 1317.19 268.91ZM1334.05 290.42C1333.61 290.42 1333.23 290.26 1332.91 289.94C1332.59 289.62 1332.43 289.23 1332.43 288.77C1332.43 288.33 1332.59 287.95 1332.91 287.63C1333.23 287.31 1333.61 287.15 1334.05 287.15C1334.51 287.15 1334.89 287.31 1335.19 287.63C1335.51 287.95 1335.67 288.33 1335.67 288.77C1335.67 289.23 1335.51 289.62 1335.19 289.94C1334.87 290.26 1334.49 290.42 1334.05 290.42Z" fill="#B5B6BD"/>
<rect width="100" height="1080" fill="#2C73FF" fill-opacity="0.06"/>
<path d="M70.874 139.501C72.2087 140.836 73.2259 142.349 73.9258 144.042C74.6257 145.735 74.9837 147.533 75 149.438C75 150.007 74.9837 150.691 74.9512 151.488C74.9186 152.286 74.8535 153.148 74.7559 154.076C74.6582 155.004 74.5036 155.956 74.292 156.933C74.0804 157.909 73.8118 158.878 73.4863 159.838C72.998 161.238 72.4284 162.377 71.7773 163.256C71.1263 164.135 70.4508 164.826 69.751 165.331C69.0511 165.836 68.3431 166.177 67.627 166.356C66.9108 166.535 66.2435 166.625 65.625 166.625C65.0879 166.625 64.5996 166.535 64.1602 166.356C63.7207 166.177 63.2975 165.933 62.8906 165.624C62.4837 165.315 62.1094 164.981 61.7676 164.623C61.4258 164.265 61.0758 163.874 60.7178 163.451C60.376 163.061 60.0423 162.686 59.7168 162.328C59.3913 161.97 59.0413 161.653 58.667 161.376C58.2926 161.099 57.9183 160.863 57.5439 160.668C57.1696 160.473 56.7301 160.375 56.2256 160.375H43.7744C43.3024 160.391 42.8711 160.489 42.4805 160.668C42.0898 160.847 41.7074 161.075 41.333 161.352C40.9587 161.628 40.6169 161.954 40.3076 162.328C39.9984 162.702 39.6566 163.077 39.2822 163.451C38.9404 163.842 38.5986 164.224 38.2568 164.599C37.915 164.973 37.5407 165.315 37.1338 165.624C36.7269 165.933 36.3037 166.169 35.8643 166.332C35.4248 166.495 34.9284 166.592 34.375 166.625C33.7565 166.625 33.0892 166.535 32.373 166.356C31.6569 166.177 30.9489 165.844 30.249 165.355C29.5492 164.867 28.8737 164.175 28.2227 163.28C27.5716 162.385 27.002 161.238 26.5137 159.838C26.1882 158.894 25.9277 157.934 25.7324 156.957C25.5371 155.98 25.3825 155.02 25.2686 154.076C25.1546 153.132 25.0814 152.27 25.0488 151.488C25.0163 150.707 25 150.023 25 149.438C25 147.549 25.3499 145.759 26.0498 144.066C26.7497 142.374 27.7751 140.852 29.126 139.501C30.4443 138.166 31.958 137.149 33.667 136.449C35.376 135.749 37.1745 135.391 39.0625 135.375H60.9375C62.8255 135.375 64.6159 135.725 66.3086 136.425C68.0013 137.125 69.5231 138.15 70.874 139.501ZM70.5322 158.812C70.8415 157.95 71.0856 157.055 71.2646 156.127C71.4437 155.199 71.5739 154.312 71.6553 153.466C71.7367 152.619 71.7936 151.838 71.8262 151.122C71.8587 150.406 71.875 149.844 71.875 149.438C71.875 147.924 71.5902 146.508 71.0205 145.189C70.4508 143.871 69.6696 142.715 68.6768 141.723C67.6839 140.73 66.5283 139.949 65.21 139.379C63.8916 138.809 62.4674 138.516 60.9375 138.5H39.0625C37.5488 138.5 36.1328 138.785 34.8145 139.354C33.4961 139.924 32.3405 140.705 31.3477 141.698C30.3548 142.691 29.5736 143.847 29.0039 145.165C28.4342 146.483 28.1413 147.908 28.125 149.438C28.125 149.861 28.1331 150.422 28.1494 151.122C28.1657 151.822 28.2227 152.595 28.3203 153.441C28.418 154.288 28.5563 155.183 28.7354 156.127C28.9144 157.071 29.1585 157.966 29.4678 158.812C29.8747 159.984 30.3223 160.888 30.8105 161.522C31.2988 162.157 31.7708 162.621 32.2266 162.914C32.6823 163.207 33.1055 163.378 33.4961 163.427C33.8867 163.476 34.1797 163.5 34.375 163.5C34.7331 163.5 35.1237 163.288 35.5469 162.865C35.9701 162.442 36.4258 161.954 36.9141 161.4C37.3047 160.945 37.7197 160.481 38.1592 160.009C38.5986 159.537 39.0951 159.097 39.6484 158.69C40.2018 158.284 40.8122 157.95 41.4795 157.689C42.1468 157.429 42.8874 157.283 43.7012 157.25H56.2988C57.1126 157.283 57.8532 157.429 58.5205 157.689C59.1878 157.95 59.79 158.275 60.3271 158.666C60.8643 159.057 61.3607 159.496 61.8164 159.984C62.2721 160.473 62.6953 160.945 63.0859 161.4C63.5579 161.938 64.0055 162.418 64.4287 162.841C64.8519 163.264 65.2507 163.484 65.625 163.5C65.8203 163.5 66.1051 163.476 66.4795 163.427C66.8538 163.378 67.277 163.207 67.749 162.914C68.221 162.621 68.7012 162.157 69.1895 161.522C69.6777 160.888 70.1253 159.984 70.5322 158.812ZM37.5 147.875H40.625V151H37.5V154.125H34.375V151H31.25V147.875H34.375V144.75H37.5V147.875ZM65.625 151C66.0645 151 66.4714 151.081 66.8457 151.244C67.2201 151.407 67.5456 151.627 67.8223 151.903C68.099 152.18 68.3268 152.514 68.5059 152.904C68.6849 153.295 68.7663 153.702 68.75 154.125C68.75 154.564 68.6686 154.971 68.5059 155.346C68.3431 155.72 68.1234 156.046 67.8467 156.322C67.57 156.599 67.2363 156.827 66.8457 157.006C66.4551 157.185 66.0482 157.266 65.625 157.25C65.1855 157.25 64.7786 157.169 64.4043 157.006C64.0299 156.843 63.7044 156.623 63.4277 156.347C63.151 156.07 62.9232 155.736 62.7441 155.346C62.5651 154.955 62.4837 154.548 62.5 154.125C62.5 153.686 62.5814 153.279 62.7441 152.904C62.9069 152.53 63.1266 152.204 63.4033 151.928C63.68 151.651 64.0137 151.423 64.4043 151.244C64.7949 151.065 65.2018 150.984 65.625 151ZM59.375 144.75C59.8145 144.75 60.2214 144.831 60.5957 144.994C60.9701 145.157 61.2956 145.377 61.5723 145.653C61.849 145.93 62.0768 146.264 62.2559 146.654C62.4349 147.045 62.5163 147.452 62.5 147.875C62.5 148.314 62.4186 148.721 62.2559 149.096C62.0931 149.47 61.8734 149.796 61.5967 150.072C61.32 150.349 60.9863 150.577 60.5957 150.756C60.2051 150.935 59.7982 151.016 59.375 151C58.9355 151 58.5286 150.919 58.1543 150.756C57.7799 150.593 57.4544 150.373 57.1777 150.097C56.901 149.82 56.6732 149.486 56.4941 149.096C56.3151 148.705 56.2337 148.298 56.25 147.875C56.25 147.436 56.3314 147.029 56.4941 146.654C56.6569 146.28 56.8766 145.954 57.1533 145.678C57.43 145.401 57.7637 145.173 58.1543 144.994C58.5449 144.815 58.9518 144.734 59.375 144.75Z" fill="#1F2021"/>
<path d="M39.5 256.611V239.389H30C27.25 239.389 25 241.889 25 244.944V261.611C25 264.667 27.25 267.167 30 267.167H32.5V275.5L40 267.167H52.5C55.25 267.167 57.5 264.667 57.5 261.611V256.556C57.3357 256.595 57.1681 256.614 57 256.614H39.5V256.611ZM70 225.5H47.5C44.75 225.5 42.5 228 42.5 231.056V253.278H60L67.5 261.611V253.278H70C72.75 253.278 75 250.781 75 247.722V231.056C75 228 72.75 225.5 70 225.5Z" fill="#F7F8FA"/>
<path d="M25 266C25 262.463 25 260.695 26.1 259.6C27.1975 258.5 28.965 258.5 32.5 258.5C36.0375 258.5 37.805 258.5 38.9 259.6C40 260.698 40 262.465 40 266V243.5C40 239.963 40 238.195 41.1 237.1C42.1975 236 43.965 236 47.5 236H52.5C56.0375 236 57.805 236 58.9 237.1C60 238.197 60 239.965 60 243.5V266V258.5C60 254.963 60 253.195 61.1 252.1C62.1975 251 63.965 251 67.5 251C71.0375 251 72.805 251 73.9 252.1C75 253.198 75 254.965 75 258.5V266" stroke="#1F2021" stroke-width="3.75" stroke-linecap="round"/>
<path d="M47.8657 218.558C48.8157 216.85 49.2907 216 50.0007 216C50.7107 216 51.1857 216.85 52.1357 218.558L52.3807 218.997C52.6507 219.482 52.7857 219.722 52.9957 219.882C53.2082 220.042 53.4707 220.102 53.9957 220.22L54.4707 220.33C56.3157 220.748 57.2382 220.955 57.4582 221.66C57.6782 222.367 57.0482 223.102 55.7907 224.572L55.4657 224.952C55.1082 225.37 54.9282 225.577 54.8482 225.837C54.7682 226.097 54.7957 226.375 54.8482 226.933L54.8982 227.44C55.0882 229.403 55.1832 230.385 54.6107 230.82C54.0357 231.257 53.1707 230.857 51.4432 230.062L50.9982 229.858C50.5057 229.633 50.2607 229.518 50.0007 229.518C49.7407 229.518 49.4957 229.633 49.0032 229.858L48.5582 230.062C46.8307 230.857 45.9657 231.257 45.3907 230.82C44.8157 230.385 44.9132 229.403 45.1032 227.44L45.1532 226.933C45.2057 226.375 45.2332 226.097 45.1532 225.837C45.0732 225.58 44.8932 225.37 44.5357 224.952L44.2107 224.572C42.9532 223.102 42.3232 222.367 42.5432 221.66C42.7632 220.955 43.6857 220.748 45.5307 220.33L46.0057 220.22C46.5307 220.102 46.7932 220.045 47.0057 219.882C47.2157 219.722 47.3507 219.482 47.6207 218.997L47.8657 218.558Z" stroke="#1F2021" stroke-width="3.75"/>
<path d="M35.418 444.5V452.346L38.5742 450.452L48.4951 444.5H58.3346C60.6326 444.5 62.5013 442.631 62.5013 440.333V423.667C62.5013 421.369 60.6326 419.5 58.3346 419.5H33.3346C31.0367 419.5 29.168 421.369 29.168 423.667V440.333C29.168 442.631 31.0367 444.5 33.3346 444.5H35.418ZM33.3346 423.667H58.3346V440.333H47.3409L39.5846 444.987V440.333H33.3346V423.667Z" fill="black"/>
<path d="M66.6667 411.167H41.6667C39.3687 411.167 37.5 413.036 37.5 415.334H62.5C64.7979 415.334 66.6667 417.202 66.6667 419.5V436.167C68.9646 436.167 70.8333 434.298 70.8333 432V415.334C70.8333 413.036 68.9646 411.167 66.6667 411.167Z" fill="black"/>
<g clip-path="url(#clip1_67_635)">
<path d="M49.9832 520.432C51.4605 520.432 52.9234 520.142 54.2883 519.576C55.6533 519.011 56.8934 518.182 57.9381 517.137C58.9828 516.093 59.8114 514.853 60.3768 513.488C60.9422 512.123 61.2332 510.66 61.2332 509.183C61.2332 507.705 60.9422 506.242 60.3768 504.877C59.8114 503.512 58.9828 502.272 57.9381 501.228C56.8934 500.183 55.6533 499.354 54.2883 498.789C52.9234 498.223 51.4605 497.933 49.9832 497.933C46.9995 497.933 44.138 499.118 42.0282 501.228C39.9184 503.337 38.7332 506.199 38.7332 509.183C38.7332 512.166 39.9184 515.028 42.0282 517.137C44.138 519.247 46.9995 520.432 49.9832 520.432ZM50.0007 494C53.2937 493.999 56.4955 495.082 59.1122 497.081C61.7289 499.08 63.615 501.885 64.4794 505.062C65.3439 508.24 65.1387 511.613 63.8956 514.663C62.6524 517.712 60.4403 520.268 57.6007 521.935C66.8207 524.71 73.7457 532.48 74.9882 542.13C75.1057 543.048 74.4232 543.88 73.4632 543.992C72.5057 544.105 71.6307 543.455 71.5132 542.538C70.1632 532.063 61.0907 524.175 50.0882 524.175C39.0257 524.175 29.8357 532.078 28.4882 542.538C28.3707 543.455 27.4957 544.105 26.5382 543.992C25.5782 543.88 24.8957 543.048 25.0132 542.13C26.2532 532.52 33.2157 524.76 42.4507 521.96C39.6024 520.3 37.3802 517.748 36.1278 514.699C34.8753 511.649 34.6623 508.272 35.5217 505.09C36.3811 501.907 38.265 499.096 40.8822 497.092C43.4994 495.087 46.704 494.001 50.0007 494Z" fill="black"/>
</g>
<path d="M36.875 326.125C30.6875 326.125 25.625 331.188 25.625 337.375C25.625 341.095 27.4569 344.406 30.2544 346.457C25.31 348.91 21.875 353.995 21.875 359.875H25.625C25.625 353.643 30.6425 348.625 36.875 348.625C43.1075 348.625 48.125 353.643 48.125 359.875H51.875C51.875 353.643 56.8925 348.625 63.125 348.625C69.3575 348.625 74.375 353.643 74.375 359.875H78.125C78.125 353.993 74.69 348.91 69.7456 346.457C71.1772 345.414 72.3425 344.048 73.1469 342.47C73.9513 340.892 74.372 339.146 74.375 337.375C74.375 331.188 69.3125 326.125 63.125 326.125C56.9375 326.125 51.875 331.188 51.875 337.375C51.875 341.095 53.7069 344.406 56.5044 346.457C53.7649 347.804 51.4973 349.949 50 352.609C48.5027 349.949 46.2351 347.804 43.4956 346.457C44.9272 345.414 46.0925 344.048 46.8969 342.47C47.7013 340.892 48.122 339.146 48.125 337.375C48.125 331.188 43.0625 326.125 36.875 326.125ZM36.875 329.875C41.0431 329.875 44.375 333.207 44.375 337.375C44.375 341.543 41.0431 344.875 36.875 344.875C32.7069 344.875 29.375 341.543 29.375 337.375C29.375 333.207 32.7069 329.875 36.875 329.875ZM63.125 329.875C67.2931 329.875 70.625 333.207 70.625 337.375C70.625 341.543 67.2931 344.875 63.125 344.875C58.9569 344.875 55.625 341.543 55.625 337.375C55.625 333.207 58.9569 329.875 63.125 329.875Z" fill="black"/>
<g clip-path="url(#clip2_67_635)">
<path d="M48.1875 1003V1024.88H51.3125V1003H48.1875Z" fill="black"/>
<path d="M34.1261 1027.41C34.1254 1024.62 34.8722 1021.88 36.289 1019.48C37.7058 1017.07 39.7408 1015.09 42.1824 1013.74L40.6668 1011.01C37.0434 1013.02 34.1864 1016.17 32.5417 1019.97C30.897 1023.77 30.5572 1028.01 31.5754 1032.02C32.5936 1036.04 34.9124 1039.6 38.1699 1042.16C41.4274 1044.72 45.4401 1046.12 49.5818 1046.16C53.7234 1046.2 57.7608 1044.86 61.0637 1042.36C64.3665 1039.87 66.7489 1036.34 67.839 1032.35C68.929 1028.35 68.6654 1024.11 67.0892 1020.28C65.513 1016.45 62.7129 1013.25 59.1261 1011.18L57.5605 1013.88C59.9362 1015.25 61.9092 1017.22 63.2811 1019.6C64.6531 1021.97 65.3756 1024.67 65.3761 1027.41C65.3766 1030.15 64.6551 1032.85 63.2841 1035.22C61.913 1037.6 59.9408 1039.57 57.5656 1040.94C55.1904 1042.31 52.4959 1043.04 49.7531 1043.04C47.0102 1043.04 44.3155 1042.32 41.94 1040.94C39.5645 1039.57 37.5917 1037.6 36.2201 1035.23C34.8485 1032.85 34.1263 1030.16 34.1261 1027.41Z" fill="black"/>
</g>
<rect width="1920" height="1080" fill="black" fill-opacity="0.3"/>
<rect x="659" y="406" width="600" height="350" rx="20" fill="#F7F8FA"/>
<path d="M761.592 468H756.636L746.588 453.474H746.417V468H740.606V443.254H745.631L755.577 457.78H755.782V443.254H761.592V468ZM773.631 468.342C771.729 468.342 770.071 467.943 768.658 467.146C767.257 466.348 766.18 465.231 765.428 463.796C764.676 462.349 764.3 460.674 764.3 458.771C764.3 456.869 764.676 455.2 765.428 453.764C766.18 452.317 767.257 451.195 768.658 450.397C770.071 449.6 771.729 449.201 773.631 449.201C775.534 449.201 777.186 449.6 778.587 450.397C780 451.195 781.083 452.317 781.834 453.764C782.586 455.2 782.962 456.869 782.962 458.771C782.962 460.674 782.586 462.349 781.834 463.796C781.083 465.231 780 466.348 778.587 467.146C777.186 467.943 775.534 468.342 773.631 468.342ZM773.666 464.001C774.383 464.001 774.999 463.785 775.511 463.352C776.024 462.907 776.411 462.286 776.673 461.489C776.947 460.691 777.083 459.774 777.083 458.737C777.083 457.701 776.947 456.783 776.673 455.986C776.411 455.188 776.024 454.573 775.511 454.14C774.999 453.696 774.383 453.474 773.666 453.474C772.56 453.474 771.7 453.952 771.085 454.909C770.481 455.866 770.179 457.142 770.179 458.737C770.179 460.332 770.481 461.608 771.085 462.565C771.7 463.522 772.56 464.001 773.666 464.001ZM785.636 449.44H791.242V452.79H791.412C791.743 451.605 792.29 450.705 793.053 450.09C793.828 449.475 794.739 449.167 795.787 449.167C796.243 449.167 796.79 449.235 797.428 449.372V454.396C797.166 454.317 796.813 454.254 796.368 454.208C795.924 454.152 795.514 454.123 795.138 454.123C794.42 454.123 793.777 454.283 793.207 454.602C792.649 454.909 792.21 455.348 791.891 455.917C791.572 456.476 791.412 457.119 791.412 457.849V468H785.636V449.44ZM799.452 449.44H804.921V452.824H805.126C805.525 451.685 806.18 450.796 807.091 450.158C808.014 449.52 809.114 449.201 810.39 449.201C811.677 449.201 812.777 449.532 813.688 450.192C814.6 450.842 815.175 451.719 815.414 452.824H815.619C815.984 451.719 816.667 450.842 817.67 450.192C818.684 449.532 819.869 449.201 821.225 449.201C822.387 449.201 823.412 449.458 824.301 449.97C825.201 450.472 825.896 451.195 826.386 452.141C826.887 453.086 827.138 454.203 827.138 455.49V468H821.361V456.789C821.361 455.866 821.116 455.154 820.627 454.653C820.148 454.14 819.516 453.884 818.73 453.884C817.898 453.884 817.243 454.157 816.764 454.704C816.297 455.24 816.064 455.957 816.064 456.857V468H810.526V456.721C810.526 455.855 810.287 455.166 809.809 454.653C809.33 454.14 808.704 453.884 807.929 453.884C807.12 453.884 806.465 454.169 805.963 454.738C805.474 455.308 805.229 456.06 805.229 456.994V468H799.452V449.44ZM829.606 462.839C829.606 460.925 830.239 459.512 831.503 458.601C832.768 457.689 834.426 457.165 836.476 457.028C837.502 456.96 838.755 456.903 840.236 456.857C840.419 456.835 840.646 456.823 840.92 456.823V455.319C840.92 454.67 840.698 454.174 840.253 453.833C839.809 453.479 839.188 453.303 838.391 453.303C837.616 453.303 836.995 453.462 836.528 453.781C836.061 454.1 835.77 454.567 835.656 455.183H830.29C830.37 454.066 830.734 453.058 831.384 452.158C832.045 451.246 832.979 450.528 834.186 450.004C835.406 449.469 836.852 449.201 838.527 449.201C840.077 449.201 841.467 449.446 842.697 449.936C843.939 450.415 844.913 451.121 845.62 452.055C846.337 452.978 846.696 454.089 846.696 455.388V468H841.262V465.402H841.125C840.601 466.359 839.889 467.089 838.989 467.59C838.089 468.091 837.001 468.342 835.725 468.342C834.517 468.342 833.452 468.137 832.529 467.727C831.617 467.316 830.899 466.701 830.375 465.881C829.863 465.049 829.606 464.035 829.606 462.839ZM835.075 462.6C835.075 463.215 835.292 463.688 835.725 464.018C836.169 464.348 836.75 464.514 837.468 464.514C838.117 464.514 838.71 464.383 839.245 464.121C839.781 463.859 840.202 463.494 840.51 463.027C840.817 462.548 840.965 462.007 840.954 461.403V460.207H840.612C840.156 460.241 839.581 460.281 838.886 460.327C838.191 460.361 837.707 460.389 837.434 460.412C836.704 460.503 836.129 460.743 835.707 461.13C835.286 461.506 835.075 461.996 835.075 462.6ZM855.693 468H849.917V443.254H855.693V468ZM882.915 451.32C882.619 450.272 882.067 449.463 881.258 448.894C880.449 448.324 879.44 448.039 878.233 448.039C877.025 448.039 875.971 448.335 875.071 448.928C874.182 449.52 873.493 450.386 873.003 451.525C872.525 452.653 872.285 454.009 872.285 455.593C872.285 457.199 872.519 458.572 872.986 459.711C873.453 460.851 874.131 461.722 875.02 462.326C875.909 462.919 876.979 463.215 878.233 463.215C879.862 463.215 881.132 462.822 882.044 462.036C882.955 461.238 883.428 460.161 883.462 458.806H878.472V454.533H889.068V457.78C889.068 459.934 888.606 461.808 887.683 463.403C886.761 464.998 885.473 466.223 883.821 467.077C882.18 467.92 880.306 468.342 878.199 468.342C875.852 468.342 873.784 467.829 871.995 466.804C870.206 465.778 868.816 464.309 867.825 462.395C866.834 460.48 866.338 458.236 866.338 455.661C866.338 453.029 866.851 450.756 867.876 448.842C868.913 446.917 870.32 445.447 872.097 444.433C873.886 443.419 875.886 442.912 878.096 442.912C879.976 442.912 881.691 443.271 883.24 443.989C884.801 444.707 886.071 445.703 887.051 446.979C888.031 448.256 888.623 449.702 888.828 451.32H882.915ZM891.4 462.839C891.4 460.925 892.032 459.512 893.297 458.601C894.561 457.689 896.219 457.165 898.27 457.028C899.295 456.96 900.548 456.903 902.029 456.857C902.212 456.835 902.44 456.823 902.713 456.823V455.319C902.713 454.67 902.491 454.174 902.047 453.833C901.602 453.479 900.981 453.303 900.184 453.303C899.409 453.303 898.788 453.462 898.321 453.781C897.854 454.1 897.563 454.567 897.449 455.183H892.083C892.163 454.066 892.527 453.058 893.177 452.158C893.838 451.246 894.772 450.528 895.98 450.004C897.199 449.469 898.646 449.201 900.32 449.201C901.87 449.201 903.26 449.446 904.49 449.936C905.732 450.415 906.706 451.121 907.413 452.055C908.13 452.978 908.489 454.089 908.489 455.388V468H903.055V465.402H902.918C902.394 466.359 901.682 467.089 900.782 467.59C899.882 468.091 898.794 468.342 897.518 468.342C896.31 468.342 895.245 468.137 894.322 467.727C893.41 467.316 892.693 466.701 892.169 465.881C891.656 465.049 891.4 464.035 891.4 462.839ZM896.868 462.6C896.868 463.215 897.085 463.688 897.518 464.018C897.962 464.348 898.543 464.514 899.261 464.514C899.91 464.514 900.503 464.383 901.038 464.121C901.574 463.859 901.995 463.494 902.303 463.027C902.61 462.548 902.759 462.007 902.747 461.403V460.207H902.405C901.95 460.241 901.374 460.281 900.679 460.327C899.984 460.361 899.5 460.389 899.227 460.412C898.498 460.503 897.922 460.743 897.501 461.13C897.079 461.506 896.868 461.996 896.868 462.6ZM911.71 449.44H917.179V452.824H917.384C917.782 451.685 918.438 450.796 919.349 450.158C920.272 449.52 921.371 449.201 922.647 449.201C923.935 449.201 925.034 449.532 925.946 450.192C926.857 450.842 927.433 451.719 927.672 452.824H927.877C928.241 451.719 928.925 450.842 929.928 450.192C930.942 449.532 932.127 449.201 933.482 449.201C934.644 449.201 935.67 449.458 936.559 449.97C937.459 450.472 938.154 451.195 938.643 452.141C939.145 453.086 939.395 454.203 939.395 455.49V468H933.619V456.789C933.619 455.866 933.374 455.154 932.884 454.653C932.406 454.14 931.773 453.884 930.987 453.884C930.156 453.884 929.5 454.157 929.022 454.704C928.555 455.24 928.321 455.957 928.321 456.857V468H922.784V456.721C922.784 455.855 922.545 455.166 922.066 454.653C921.588 454.14 920.961 453.884 920.186 453.884C919.378 453.884 918.722 454.169 918.221 454.738C917.731 455.308 917.486 456.06 917.486 456.994V468H911.71V449.44ZM951.366 468.342C949.44 468.342 947.771 467.96 946.359 467.197C944.957 466.422 943.881 465.323 943.129 463.898C942.377 462.463 942.001 460.765 942.001 458.806C942.001 456.903 942.377 455.228 943.129 453.781C943.881 452.323 944.946 451.195 946.324 450.397C947.714 449.6 949.327 449.201 951.161 449.201C952.915 449.201 954.465 449.566 955.809 450.295C957.165 451.024 958.219 452.101 958.971 453.525C959.734 454.949 960.116 456.664 960.116 458.669V460.139H947.674V460.241C947.674 461.438 948.016 462.395 948.7 463.112C949.383 463.819 950.306 464.172 951.468 464.172C952.243 464.172 952.91 464.018 953.468 463.71C954.038 463.391 954.442 462.953 954.681 462.395H960.048C959.82 463.602 959.324 464.656 958.561 465.556C957.797 466.445 956.8 467.134 955.57 467.624C954.351 468.103 952.95 468.342 951.366 468.342ZM954.75 456.755C954.738 456.105 954.584 455.524 954.288 455.012C953.992 454.499 953.582 454.1 953.058 453.815C952.534 453.519 951.947 453.371 951.298 453.371C950.625 453.371 950.016 453.519 949.469 453.815C948.933 454.112 948.506 454.516 948.187 455.029C947.868 455.542 947.697 456.117 947.674 456.755H954.75ZM975.854 443.254L984.194 463.625H984.501L992.841 443.254H996.533V468H993.627V449.304H993.388L985.698 468H982.963L975.273 449.304H975.068V468H972.162V443.254H975.854ZM1000.44 462.736C1000.44 460.811 1001.09 459.455 1002.4 458.669C1003.72 457.883 1005.39 457.416 1007.41 457.268C1008.18 457.211 1009.05 457.159 1010.01 457.114C1010.98 457.057 1011.78 457.017 1012.43 456.994V455.49C1012.43 454.294 1012.07 453.377 1011.36 452.739C1010.65 452.089 1009.61 451.765 1008.23 451.765C1007.1 451.765 1006.18 451.998 1005.46 452.465C1004.74 452.921 1004.28 453.519 1004.06 454.26H1000.98C1001.11 453.269 1001.5 452.391 1002.15 451.628C1002.8 450.865 1003.66 450.272 1004.73 449.851C1005.81 449.418 1007.02 449.201 1008.37 449.201C1010.14 449.201 1011.75 449.657 1013.19 450.568C1014.62 451.468 1015.34 453.2 1015.34 455.764V468H1012.43V465.471H1012.3C1012.07 465.949 1011.72 466.416 1011.24 466.872C1010.77 467.316 1010.16 467.692 1009.39 468C1008.64 468.296 1007.76 468.444 1006.76 468.444C1005.57 468.444 1004.5 468.216 1003.55 467.761C1002.59 467.305 1001.83 466.65 1001.27 465.795C1000.72 464.93 1000.44 463.91 1000.44 462.736ZM1003.38 462.873C1003.38 463.819 1003.73 464.548 1004.44 465.061C1005.15 465.562 1006.1 465.812 1007.27 465.812C1008.33 465.812 1009.25 465.602 1010.02 465.18C1010.81 464.759 1011.41 464.2 1011.82 463.505C1012.23 462.81 1012.43 462.064 1012.43 461.267V459.404C1012.16 459.415 1011.41 459.466 1010.18 459.558L1007.75 459.729C1006.36 459.82 1005.28 460.122 1004.52 460.634C1003.76 461.147 1003.38 461.893 1003.38 462.873ZM1027.86 451.901H1023.96V462.668C1023.96 463.762 1024.18 464.497 1024.61 464.873C1025.04 465.249 1025.63 465.437 1026.39 465.437C1026.96 465.437 1027.54 465.414 1028.13 465.368V468.103C1027.54 468.194 1026.85 468.239 1026.08 468.239C1025.21 468.239 1024.39 468.063 1023.62 467.709C1022.84 467.345 1022.21 466.798 1021.72 466.069C1021.23 465.34 1020.99 464.457 1020.99 463.42V451.901H1018.18V449.44H1020.99V444.997H1023.96V449.44H1027.86V451.901ZM1038.73 468.376C1037.01 468.376 1035.51 467.972 1034.22 467.163C1032.95 466.342 1031.97 465.209 1031.28 463.762C1030.6 462.315 1030.26 460.663 1030.26 458.806C1030.26 456.937 1030.6 455.279 1031.3 453.833C1032.01 452.374 1032.99 451.241 1034.26 450.432C1035.53 449.611 1037 449.201 1038.66 449.201C1039.97 449.201 1041.16 449.446 1042.22 449.936C1043.28 450.415 1044.14 451.098 1044.8 451.987C1045.47 452.864 1045.89 453.884 1046.05 455.046H1043.11C1042.97 454.453 1042.71 453.912 1042.32 453.422C1041.93 452.932 1041.43 452.539 1040.82 452.243C1040.21 451.947 1039.52 451.799 1038.73 451.799C1037.64 451.799 1036.67 452.084 1035.83 452.653C1035 453.223 1034.35 454.032 1033.88 455.08C1033.42 456.117 1033.2 457.325 1033.2 458.703C1033.2 460.127 1033.42 461.369 1033.86 462.429C1034.32 463.488 1034.96 464.309 1035.79 464.89C1036.64 465.459 1037.62 465.744 1038.73 465.744C1039.84 465.744 1040.78 465.465 1041.55 464.907C1042.34 464.337 1042.86 463.545 1043.11 462.531H1046.05C1045.89 463.648 1045.49 464.65 1044.85 465.539C1044.21 466.416 1043.37 467.111 1042.32 467.624C1041.27 468.125 1040.08 468.376 1038.73 468.376ZM1052.31 468H1049.37V443.254H1052.31V452.346H1052.55C1053.48 450.249 1055.31 449.201 1058.02 449.201C1059.98 449.201 1061.52 449.794 1062.65 450.979C1063.78 452.152 1064.34 453.895 1064.34 456.208V468H1061.4V456.413C1061.4 454.966 1061.02 453.844 1060.26 453.046C1059.5 452.237 1058.46 451.833 1057.13 451.833C1056.2 451.833 1055.36 452.032 1054.63 452.431C1053.92 452.819 1053.35 453.394 1052.93 454.157C1052.52 454.909 1052.31 455.809 1052.31 456.857V468ZM1068.76 449.44H1071.6V452.346H1071.83C1072.23 451.343 1072.86 450.568 1073.71 450.021C1074.58 449.475 1075.62 449.201 1076.82 449.201C1078.01 449.201 1079.02 449.475 1079.85 450.021C1080.68 450.557 1081.32 451.332 1081.78 452.346H1081.99C1082.48 451.366 1083.2 450.597 1084.16 450.039C1085.11 449.48 1086.25 449.201 1087.56 449.201C1088.68 449.201 1089.67 449.435 1090.51 449.902C1091.37 450.369 1092.03 451.081 1092.51 452.038C1092.99 452.984 1093.23 454.169 1093.23 455.593V468H1090.29V455.627C1090.29 454.34 1089.94 453.388 1089.23 452.773C1088.53 452.146 1087.63 451.833 1086.53 451.833C1085.69 451.833 1084.96 452.01 1084.34 452.363C1083.73 452.716 1083.26 453.2 1082.94 453.815C1082.62 454.431 1082.46 455.137 1082.46 455.935V468H1079.49V455.319C1079.49 454.636 1079.34 454.032 1079.03 453.508C1078.72 452.972 1078.29 452.562 1077.73 452.277C1077.18 451.981 1076.56 451.833 1075.87 451.833C1075.13 451.833 1074.44 452.032 1073.8 452.431C1073.16 452.819 1072.65 453.36 1072.26 454.055C1071.89 454.75 1071.7 455.536 1071.7 456.413V468H1068.76V449.44ZM1096.76 462.736C1096.76 460.811 1097.41 459.455 1098.72 458.669C1100.05 457.883 1101.71 457.416 1103.73 457.268C1104.51 457.211 1105.37 457.159 1106.33 457.114C1107.3 457.057 1108.11 457.017 1108.76 456.994V455.49C1108.76 454.294 1108.4 453.377 1107.68 452.739C1106.97 452.089 1105.93 451.765 1104.55 451.765C1103.42 451.765 1102.5 451.998 1101.78 452.465C1101.07 452.921 1100.6 453.519 1100.38 454.26H1097.31C1097.43 453.269 1097.82 452.391 1098.47 451.628C1099.12 450.865 1099.98 450.272 1101.05 449.851C1102.13 449.418 1103.34 449.201 1104.69 449.201C1106.47 449.201 1108.07 449.657 1109.51 450.568C1110.94 451.468 1111.66 453.2 1111.66 455.764V468H1108.76V465.471H1108.62C1108.39 465.949 1108.04 466.416 1107.56 466.872C1107.09 467.316 1106.48 467.692 1105.71 468C1104.96 468.296 1104.08 468.444 1103.08 468.444C1101.9 468.444 1100.83 468.216 1099.87 467.761C1098.91 467.305 1098.15 466.65 1097.6 465.795C1097.04 464.93 1096.76 463.91 1096.76 462.736ZM1099.7 462.873C1099.7 463.819 1100.05 464.548 1100.76 465.061C1101.48 465.562 1102.42 465.812 1103.59 465.812C1104.65 465.812 1105.57 465.602 1106.35 465.18C1107.13 464.759 1107.73 464.2 1108.14 463.505C1108.55 462.81 1108.76 462.064 1108.76 461.267V459.404C1108.48 459.415 1107.73 459.466 1106.5 459.558L1104.07 459.729C1102.68 459.82 1101.61 460.122 1100.84 460.634C1100.08 461.147 1099.7 461.893 1099.7 462.873ZM1116.08 443.254H1119.02V457.644H1119.36L1127.39 449.44H1131.01L1123.19 457.387L1131.6 468H1127.87L1120.98 459.25L1119.02 461.079V468H1116.08V443.254ZM1133.86 449.44H1136.8V468H1133.86V449.44ZM1135.33 446.364C1134.76 446.364 1134.27 446.176 1133.88 445.8C1133.48 445.424 1133.28 444.963 1133.28 444.416C1133.28 443.869 1133.48 443.408 1133.88 443.032C1134.27 442.656 1134.76 442.468 1135.33 442.468C1135.9 442.468 1136.39 442.656 1136.8 443.032C1137.21 443.408 1137.41 443.869 1137.41 444.416C1137.41 444.963 1137.21 445.424 1136.8 445.8C1136.39 446.176 1135.9 446.364 1135.33 446.364ZM1144.12 468H1141.18V449.44H1144.02V452.346H1144.26C1144.72 451.354 1145.4 450.585 1146.29 450.039C1147.19 449.48 1148.32 449.201 1149.69 449.201C1150.97 449.201 1152.07 449.463 1153.01 449.987C1153.94 450.5 1154.67 451.28 1155.18 452.329C1155.69 453.377 1155.95 454.67 1155.95 456.208V468H1153.01V456.413C1153.01 454.978 1152.64 453.855 1151.9 453.046C1151.16 452.237 1150.12 451.833 1148.8 451.833C1147.89 451.833 1147.08 452.032 1146.38 452.431C1145.67 452.819 1145.12 453.394 1144.72 454.157C1144.32 454.909 1144.12 455.809 1144.12 456.857V468ZM1167.88 475.349C1166.39 475.349 1165.07 475.138 1163.92 474.716C1162.78 474.295 1161.87 473.68 1161.2 472.871C1160.53 472.062 1160.14 471.088 1160.02 469.948H1163.1C1163.3 470.882 1163.82 471.589 1164.64 472.067C1165.47 472.546 1166.55 472.785 1167.88 472.785C1169.52 472.785 1170.79 472.421 1171.68 471.691C1172.57 470.962 1173.01 469.846 1173.01 468.342V464.582H1172.77C1172.44 465.14 1172.09 465.63 1171.73 466.052C1171.36 466.473 1170.82 466.861 1170.09 467.214C1169.37 467.556 1168.46 467.727 1167.37 467.727C1165.86 467.727 1164.5 467.356 1163.3 466.616C1162.11 465.875 1161.17 464.81 1160.48 463.42C1159.81 462.019 1159.47 460.367 1159.47 458.464C1159.47 456.595 1159.81 454.96 1160.48 453.559C1161.16 452.158 1162.09 451.081 1163.29 450.329C1164.48 449.577 1165.86 449.201 1167.4 449.201C1168.49 449.201 1169.39 449.378 1170.1 449.731C1170.83 450.084 1171.35 450.449 1171.66 450.825C1171.98 451.189 1172.37 451.708 1172.84 452.38H1173.08V449.44H1175.95V468.513C1175.95 470.051 1175.6 471.327 1174.89 472.341C1174.19 473.366 1173.24 474.124 1172.04 474.614C1170.83 475.104 1169.44 475.349 1167.88 475.349ZM1167.78 465.095C1169.47 465.095 1170.77 464.525 1171.69 463.386C1172.62 462.235 1173.08 460.629 1173.08 458.566C1173.08 457.233 1172.87 456.06 1172.46 455.046C1172.05 454.032 1171.45 453.246 1170.65 452.688C1169.87 452.118 1168.91 451.833 1167.78 451.833C1166.63 451.833 1165.66 452.129 1164.86 452.722C1164.06 453.314 1163.46 454.123 1163.05 455.148C1162.65 456.162 1162.45 457.302 1162.45 458.566C1162.45 459.865 1162.65 461.005 1163.05 461.984C1163.46 462.964 1164.06 463.728 1164.86 464.274C1165.66 464.821 1166.63 465.095 1167.78 465.095Z" fill="black"/>
<path d="M857.912 551.525H859.612V553.4C859.612 557.55 857.137 561 853.312 562.375L852.262 560.725C855.662 559.55 857.912 556.625 857.912 553.4V551.525ZM858.287 551.525H859.987V553.375C859.987 556.375 862.162 559.075 865.487 560.2L864.487 561.85C860.712 560.575 858.287 557.25 858.287 553.375V551.525ZM852.862 550.925H864.962V552.6H852.862V550.925ZM867.837 549.35H869.912V562.65H867.837V549.35ZM869.337 554.975H873.262V556.7H869.337V554.975ZM855.712 563.675H869.912V571.65H855.712V563.675ZM867.887 565.325H857.737V569.975H867.887V565.325ZM881.035 551.3H882.735V555.35C882.735 560.55 879.935 565.375 876.235 567.25L874.96 565.55C878.31 563.95 881.035 559.625 881.035 555.35V551.3ZM881.385 551.3H883.085V555.35C883.085 559.475 885.785 563.625 889.135 565.175L887.885 566.825C884.21 565.025 881.385 560.375 881.385 555.35V551.3ZM891.485 549.325H893.56V571.975H891.485V549.325ZM898.708 551.375H909.083V561.85H898.708V551.375ZM907.058 553.05H900.733V560.175H907.058V553.05ZM913.233 549.325H915.308V565.9H913.233V549.325ZM914.658 556.225H918.658V557.95H914.658V556.225ZM901.233 569.75H916.333V571.45H901.233V569.75ZM901.233 564.325H903.308V570.475H901.233V564.325ZM942.881 549.35H944.956V571.95H942.881V549.35ZM936.256 551.775H938.306C938.306 558.325 935.356 564.05 927.806 567.75L926.706 566.075C933.231 562.925 936.256 558.125 936.256 552.125V551.775ZM927.731 551.775H937.156V553.475H927.731V551.775ZM964.404 549.325H966.504V571.975H964.404V549.325ZM966.004 558.25H970.204V560H966.004V558.25ZM950.079 564.6H951.854C956.029 564.6 958.954 564.45 962.329 563.825L962.554 565.575C959.079 566.225 956.104 566.35 951.854 566.35H950.079V564.6ZM950.079 551.525H960.579V553.225H952.129V565.375H950.079V551.525ZM988.327 549.325H990.402V571.975H988.327V549.325ZM983.877 554.5H988.877V556.2H983.877V554.5ZM972.652 564.975H974.327C977.827 564.975 980.702 564.875 984.152 564.325L984.352 566.05C980.802 566.6 977.902 566.725 974.327 566.725H972.652V564.975ZM972.602 551.375H982.477V559.475H974.702V565.375H972.652V557.775H980.427V553.1H972.602V551.375ZM983.727 560.675H988.727V562.375H983.727V560.675ZM1003.58 551.575H1005.38V552.525C1005.38 556.575 1001.08 559.55 996.525 560.325L995.725 558.675C999.7 558.1 1003.58 555.5 1003.58 552.525V551.575ZM1004.1 551.575H1005.88V552.525C1005.88 555.5 1009.78 558.1 1013.73 558.675L1012.95 560.325C1008.38 559.55 1004.1 556.575 1004.1 552.525V551.575ZM1003.65 563.325H1005.7V571.95H1003.65V563.325ZM994.525 562.225H1014.95V563.925H994.525V562.225ZM996.425 550.75H1012.98V552.425H996.425V550.75ZM1026.12 557.425H1030.45V559.15H1026.12V557.425ZM1021.9 551.475H1023.52V555.775C1023.52 560.5 1021.55 565.075 1018.25 567.1L1016.95 565.525C1020.05 563.7 1021.9 559.65 1021.9 555.775V551.475ZM1022.3 551.475H1023.9V555.7C1023.9 559.325 1025.6 563.175 1028.57 564.975L1027.37 566.6C1024.12 564.6 1022.3 560.1 1022.3 555.7V551.475ZM1034.42 549.35H1036.42V571.95H1034.42V549.35ZM1029.85 549.825H1031.8V570.825H1029.85V549.825ZM1044.92 560.975H1046.97V567.75H1044.92V560.975ZM1053.27 560.975H1055.35V567.75H1053.27V560.975ZM1039.92 567.35H1060.4V569.075H1039.92V567.35ZM1050.12 550.775C1054.9 550.775 1058.32 553.05 1058.32 556.6C1058.32 560.125 1054.9 562.4 1050.12 562.4C1045.32 562.4 1041.9 560.125 1041.9 556.6C1041.9 553.05 1045.32 550.775 1050.12 550.775ZM1050.12 552.425C1046.5 552.425 1043.9 554.075 1043.9 556.6C1043.9 559.1 1046.5 560.75 1050.12 560.75C1053.75 560.75 1056.32 559.1 1056.32 556.6C1056.32 554.075 1053.75 552.425 1050.12 552.425ZM1064.12 570.35C1063.75 570.35 1063.44 570.217 1063.17 569.95C1062.9 569.683 1062.77 569.358 1062.77 568.975C1062.77 568.608 1062.9 568.292 1063.17 568.025C1063.44 567.758 1063.75 567.625 1064.12 567.625C1064.5 567.625 1064.82 567.758 1065.07 568.025C1065.34 568.292 1065.47 568.608 1065.47 568.975C1065.47 569.358 1065.34 569.683 1065.07 569.95C1064.8 570.217 1064.49 570.35 1064.12 570.35Z" fill="#B5B6BD"/>
<g clip-path="url(#clip3_67_635)">
<path d="M907.465 503.929C907.759 503.477 908.217 503.157 908.743 503.035C909.268 502.914 909.82 503.001 910.283 503.279C910.745 503.556 911.082 504.002 911.222 504.523C911.363 505.043 911.296 505.598 911.036 506.071C907.907 511.289 906.015 516.258 905.057 522.008C904.723 524 902.04 524.404 901.138 522.598C896.846 514.014 893.1 512.231 886.992 514.268C886.733 514.355 886.458 514.389 886.185 514.37C885.912 514.35 885.646 514.277 885.401 514.155C884.907 513.908 884.531 513.474 884.357 512.95C884.182 512.425 884.223 511.853 884.47 511.359C884.718 510.865 885.151 510.489 885.675 510.314C892.342 508.091 897.459 509.537 901.932 515.779L902.121 516.05L902.144 515.966C903.232 512.158 904.784 508.571 906.88 504.925L907.465 503.929ZM915.5 488.333C914.68 488.333 913.867 488.495 913.109 488.809C912.35 489.123 911.661 489.583 911.081 490.164C910.501 490.744 910.04 491.433 909.726 492.191C909.412 492.95 909.25 493.762 909.25 494.583C909.25 495.404 909.412 496.216 909.726 496.975C910.04 497.733 910.501 498.422 911.081 499.002C911.661 499.583 912.35 500.043 913.109 500.357C913.867 500.671 914.68 500.833 915.5 500.833C917.158 500.833 918.748 500.175 919.92 499.002C921.092 497.83 921.75 496.241 921.75 494.583C921.75 492.925 921.092 491.336 919.92 490.164C918.748 488.991 917.158 488.333 915.5 488.333Z" fill="#1F2021"/>
</g>
<path d="M957 605.25C967.355 605.25 975.75 613.645 975.75 624C975.75 634.355 967.355 642.75 957 642.75C946.645 642.75 938.25 634.355 938.25 624C938.25 613.645 946.645 605.25 957 605.25Z" stroke="black" stroke-opacity="0.3" stroke-width="4.16667" stroke-linecap="round"/>
<path d="M957 605.25C967.355 605.25 975.75 613.645 975.75 624" stroke="black" stroke-width="4.16667" stroke-linecap="round"/>
<path d="M939.227 504.121C939.149 503.438 938.9 502.852 938.48 502.363C938.07 501.865 937.523 501.489 936.839 501.235C936.156 500.972 935.389 500.84 934.54 500.84C933.622 500.84 932.806 500.991 932.093 501.294C931.39 501.587 930.843 501.997 930.453 502.524C930.072 503.052 929.881 503.652 929.881 504.326C929.881 505.303 930.277 506.05 931.068 506.567C931.869 507.085 932.84 507.49 933.983 507.783L936.092 508.369C937.733 508.789 939.144 509.438 940.326 510.317C941.507 511.187 942.098 512.49 942.098 514.229C942.098 515.391 941.791 516.44 941.175 517.378C940.57 518.306 939.686 519.038 938.524 519.575C937.372 520.112 935.995 520.381 934.393 520.381C932.889 520.381 931.576 520.137 930.453 519.648C929.33 519.16 928.451 518.472 927.816 517.583C927.181 516.694 926.825 515.664 926.747 514.492H929.442C929.52 515.254 929.789 515.898 930.248 516.426C930.707 516.943 931.293 517.334 932.005 517.598C932.728 517.852 933.524 517.979 934.393 517.979C935.37 517.979 936.244 517.822 937.015 517.51C937.796 517.197 938.407 516.753 938.846 516.177C939.296 515.591 939.52 514.922 939.52 514.17C939.52 513.525 939.335 512.983 938.963 512.544C938.602 512.104 938.124 511.748 937.528 511.475C936.942 511.201 936.21 510.938 935.331 510.684L932.723 509.98C930.985 509.473 929.652 508.77 928.724 507.871C927.796 506.973 927.333 505.83 927.333 504.443C927.333 503.281 927.65 502.251 928.285 501.353C928.929 500.444 929.803 499.741 930.907 499.243C932.02 498.745 933.26 498.496 934.628 498.496C935.975 498.496 937.186 498.74 938.26 499.229C939.335 499.717 940.184 500.391 940.809 501.25C941.434 502.1 941.766 503.057 941.805 504.121H939.227ZM945.255 504.092H947.687V506.611H947.98C948.292 506.104 948.595 505.679 948.888 505.337C949.181 504.985 949.635 504.658 950.25 504.355C950.866 504.043 951.642 503.887 952.579 503.887C953.908 503.887 955.079 504.224 956.095 504.897C957.121 505.562 957.916 506.514 958.483 507.754C959.059 508.994 959.347 510.439 959.347 512.09C959.347 513.74 959.059 515.19 958.483 516.44C957.916 517.681 957.121 518.638 956.095 519.312C955.079 519.985 953.917 520.322 952.609 520.322C951.681 520.322 950.905 520.171 950.28 519.868C949.664 519.556 949.201 519.219 948.888 518.857C948.576 518.486 948.273 518.057 947.98 517.568H947.775V525.977H945.255V504.092ZM947.716 512.031C947.716 513.232 947.892 514.287 948.244 515.195C948.595 516.104 949.113 516.812 949.796 517.319C950.48 517.817 951.3 518.066 952.257 518.066C953.234 518.066 954.064 517.808 954.747 517.29C955.441 516.763 955.958 516.045 956.3 515.137C956.652 514.219 956.828 513.184 956.828 512.031C956.828 510.908 956.652 509.902 956.3 509.014C955.958 508.125 955.446 507.427 954.762 506.919C954.079 506.401 953.244 506.143 952.257 506.143C951.281 506.143 950.451 506.387 949.767 506.875C949.093 507.363 948.58 508.052 948.229 508.94C947.887 509.819 947.716 510.85 947.716 512.031ZM969.008 520.322C967.494 520.322 966.176 519.985 965.053 519.312C963.93 518.638 963.066 517.686 962.46 516.455C961.864 515.225 961.567 513.799 961.567 512.178C961.567 510.557 961.864 509.121 962.46 507.871C963.066 506.611 963.91 505.635 964.994 504.941C966.088 504.238 967.348 503.887 968.774 503.887C969.975 503.887 971.093 504.155 972.128 504.692C973.163 505.22 974.003 506.079 974.648 507.271C975.302 508.452 975.629 509.971 975.629 511.826V512.881H964.086C964.125 513.984 964.355 514.927 964.775 515.708C965.195 516.489 965.766 517.085 966.488 517.495C967.221 517.896 968.061 518.096 969.008 518.096C969.906 518.096 970.663 517.93 971.279 517.598C971.904 517.256 972.377 516.816 972.699 516.279H975.395C975.141 517.08 974.716 517.788 974.12 518.403C973.534 519.009 972.802 519.482 971.923 519.824C971.054 520.156 970.082 520.322 969.008 520.322ZM973.08 510.742C973.08 509.854 972.9 509.062 972.538 508.369C972.187 507.666 971.684 507.114 971.029 506.714C970.375 506.313 969.623 506.113 968.774 506.113C967.885 506.113 967.094 506.323 966.401 506.743C965.717 507.163 965.175 507.729 964.775 508.442C964.384 509.146 964.159 509.912 964.101 510.742H973.08ZM985.114 520.322C983.64 520.322 982.351 519.976 981.247 519.282C980.153 518.579 979.313 517.607 978.728 516.367C978.142 515.127 977.849 513.711 977.849 512.119C977.849 510.518 978.146 509.097 978.742 507.856C979.348 506.606 980.192 505.635 981.276 504.941C982.37 504.238 983.63 503.887 985.056 503.887C986.179 503.887 987.194 504.097 988.103 504.517C989.011 504.927 989.748 505.513 990.314 506.274C990.891 507.026 991.247 507.9 991.384 508.896H988.864C988.747 508.389 988.522 507.925 988.19 507.505C987.858 507.085 987.429 506.748 986.901 506.494C986.384 506.24 985.788 506.113 985.114 506.113C984.177 506.113 983.347 506.357 982.624 506.846C981.911 507.334 981.354 508.027 980.954 508.926C980.563 509.814 980.368 510.85 980.368 512.031C980.368 513.252 980.559 514.316 980.939 515.225C981.33 516.133 981.882 516.836 982.595 517.334C983.317 517.822 984.157 518.066 985.114 518.066C986.062 518.066 986.867 517.827 987.531 517.349C988.205 516.86 988.649 516.182 988.864 515.312H991.384C991.247 516.27 990.905 517.129 990.358 517.891C989.812 518.643 989.089 519.238 988.19 519.678C987.292 520.107 986.267 520.322 985.114 520.322ZM994.189 504.092H996.709V520H994.189V504.092ZM995.449 501.455C994.961 501.455 994.546 501.294 994.204 500.972C993.862 500.649 993.691 500.254 993.691 499.785C993.691 499.316 993.862 498.921 994.204 498.599C994.546 498.276 994.961 498.115 995.449 498.115C995.937 498.115 996.357 498.276 996.709 498.599C997.06 498.921 997.236 499.316 997.236 499.785C997.236 500.254 997.06 500.649 996.709 500.972C996.357 501.294 995.937 501.455 995.449 501.455ZM999.661 515.488C999.661 513.838 1000.22 512.676 1001.35 512.002C1002.48 511.328 1003.91 510.928 1005.64 510.801C1006.3 510.752 1007.04 510.708 1007.86 510.669C1008.69 510.62 1009.39 510.586 1009.94 510.566V509.277C1009.94 508.252 1009.64 507.466 1009.02 506.919C1008.42 506.362 1007.52 506.084 1006.34 506.084C1005.37 506.084 1004.58 506.284 1003.97 506.685C1003.35 507.075 1002.95 507.588 1002.77 508.223H1000.13C1000.24 507.373 1000.57 506.621 1001.13 505.967C1001.68 505.312 1002.42 504.805 1003.34 504.443C1004.27 504.072 1005.31 503.887 1006.46 503.887C1007.98 503.887 1009.36 504.277 1010.59 505.059C1011.82 505.83 1012.43 507.314 1012.43 509.512V520H1009.94V517.832H1009.83C1009.63 518.242 1009.33 518.643 1008.92 519.033C1008.52 519.414 1007.99 519.736 1007.34 520C1006.69 520.254 1005.94 520.381 1005.08 520.381C1004.07 520.381 1003.15 520.186 1002.33 519.795C1001.51 519.404 1000.86 518.843 1000.38 518.11C999.9 517.368 999.661 516.494 999.661 515.488ZM1002.18 515.605C1002.18 516.416 1002.48 517.041 1003.09 517.48C1003.7 517.91 1004.51 518.125 1005.52 518.125C1006.43 518.125 1007.21 517.944 1007.88 517.583C1008.55 517.222 1009.07 516.743 1009.42 516.147C1009.77 515.552 1009.94 514.912 1009.94 514.229V512.632C1009.71 512.642 1009.07 512.686 1008.01 512.764L1005.93 512.91C1004.74 512.988 1003.82 513.247 1003.16 513.687C1002.51 514.126 1002.18 514.766 1002.18 515.605ZM1018.7 520H1016.18V498.789H1018.7V520Z" fill="#1F2021"/>
<rect x="882" y="686" width="150" height="50" rx="25" fill="#508BFF"/>
<path d="M923.295 704.375C923.295 705.091 923.514 705.771 923.954 706.414C924.401 707.048 925.02 707.602 925.809 708.074C926.607 708.538 927.518 708.883 928.544 709.111L927.763 710.649C926.509 710.348 925.419 709.876 924.491 709.233C923.563 708.59 922.859 707.83 922.379 706.951C921.915 707.911 921.211 708.737 920.267 709.429C919.323 710.12 918.208 710.625 916.923 710.942L916.093 709.404C917.126 709.176 918.042 708.814 918.839 708.318C919.645 707.821 920.271 707.231 920.719 706.548C921.167 705.864 921.39 705.14 921.39 704.375V704.277H916.556V702.764H921.39V700.347H923.295V702.764H928.129V704.277H923.295V704.375ZM933.012 722.002H931.132V700.298H933.012V722.002ZM915.067 712.48C917.834 712.48 920.402 712.44 922.77 712.358C925.146 712.269 927.404 712.09 929.545 711.821L929.667 713.213C927.763 713.522 925.655 713.746 923.344 713.884V721.343H921.439V713.982C919.795 714.055 917.761 714.092 915.336 714.092L915.067 712.48ZM956.296 719.146H936.422V717.559H945.309V712.236H947.189V717.559H956.296V719.146ZM947.238 703.423C947.238 704.578 947.637 705.689 948.434 706.755C949.24 707.821 950.265 708.725 951.51 709.465C952.764 710.198 954.033 710.674 955.319 710.894L954.464 712.48C953.341 712.253 952.239 711.858 951.156 711.296C950.074 710.735 949.097 710.035 948.227 709.197C947.364 708.359 946.705 707.435 946.249 706.426C945.793 707.435 945.134 708.359 944.272 709.197C943.409 710.035 942.436 710.735 941.354 711.296C940.28 711.858 939.181 712.253 938.058 712.48L937.204 710.894C938.49 710.674 939.751 710.198 940.988 709.465C942.233 708.725 943.25 707.826 944.04 706.768C944.837 705.701 945.236 704.587 945.236 703.423V701.763H947.238V703.423ZM974.526 709.233H978.163V710.82H974.526V721.978H972.621V700.273H974.526V709.233ZM970.522 705.352H957.607V703.765H963.198V700.542H965.102V703.765H970.522V705.352ZM964.174 707.158C965.191 707.158 966.103 707.37 966.909 707.793C967.714 708.216 968.345 708.806 968.801 709.563C969.256 710.32 969.488 711.178 969.496 712.139C969.488 713.099 969.256 713.958 968.801 714.714C968.345 715.471 967.714 716.061 966.909 716.484C966.103 716.908 965.191 717.119 964.174 717.119C963.149 717.119 962.229 716.908 961.415 716.484C960.61 716.061 959.979 715.471 959.523 714.714C959.068 713.958 958.844 713.099 958.852 712.139C958.844 711.178 959.068 710.32 959.523 709.563C959.979 708.806 960.61 708.216 961.415 707.793C962.229 707.37 963.149 707.158 964.174 707.158ZM964.174 708.77C963.507 708.77 962.905 708.916 962.368 709.209C961.839 709.494 961.424 709.893 961.122 710.405C960.821 710.918 960.675 711.496 960.683 712.139C960.675 712.79 960.821 713.372 961.122 713.884C961.424 714.389 961.839 714.784 962.368 715.068C962.905 715.353 963.507 715.492 964.174 715.483C964.833 715.492 965.427 715.353 965.956 715.068C966.485 714.784 966.9 714.389 967.202 713.884C967.503 713.372 967.657 712.79 967.665 712.139C967.657 711.496 967.503 710.918 967.202 710.405C966.9 709.893 966.485 709.494 965.956 709.209C965.427 708.916 964.833 708.77 964.174 708.77ZM996.98 721.978H995.051V700.273H996.98V721.978ZM990.559 702.642C990.543 705.921 989.712 708.867 988.069 711.479C986.425 714.084 983.853 716.224 980.354 717.9L979.304 716.338C982.201 714.963 984.419 713.254 985.957 711.211C987.503 709.168 988.386 706.833 988.606 704.204H980.305V702.642H990.559Z" fill="white"/>
<defs>
<clipPath id="clip0_67_635">
<rect width="50" height="50" fill="white" transform="translate(962 406)"/>
</clipPath>
<clipPath id="clip1_67_635">
<rect width="50" height="50" fill="white" transform="translate(25 494)"/>
</clipPath>
<clipPath id="clip2_67_635">
<rect width="50" height="50" fill="white" transform="translate(25 996)"/>
</clipPath>
<clipPath id="clip3_67_635">
<rect width="50" height="50" fill="white" transform="translate(878 480)"/>
</clipPath>
</defs>
</svg>
