<svg width="1440" height="943" viewBox="0 0 1440 943" fill="none" xmlns="http://www.w3.org/2000/svg">
<rect width="1440" height="943" fill="white"/>
<rect x="86" y="174" width="1269" height="769" fill="#F9FBFE"/>
<path d="M110.161 82.6602V100.816H106.689V91.9023H102.614V89.0859H106.689V82.6602H110.161ZM89.052 95.2109C93.1672 93.9258 95.0266 90.6855 95.0402 87.5V87.1172H90.0363V84.3281H103.544V87.1172H98.5949V87.5273C98.5813 90.4121 100.359 93.4883 104.31 94.7734L102.587 97.5352C99.8391 96.6328 97.9387 94.8281 96.8586 92.5996C95.7512 95.0742 93.7688 97.084 90.8293 98.0547L89.052 95.2109ZM93.6457 107.078V99.2305H97.1457V104.289H110.763V107.078H93.6457ZM132.898 83.7266V85.668C132.912 87.5 132.912 89.6055 132.392 92.2852H135.605V95.0742H125.926V98.6562H132.926V107.516H129.426V101.391H115.125V98.6562H122.426V95.0742H112.828V92.2852H128.865C129.33 89.9473 129.398 88.1289 129.426 86.4883H115.617V83.7266H132.898ZM165.11 96.9883V99.7227H155.376V107.516H151.931V99.7227H142.333V96.9883H165.11ZM145.013 94.582V83.5898H148.458V86.4609H158.903V83.5898H162.403V94.582H145.013ZM148.458 91.793H158.903V89.1953H148.458V91.793ZM186.808 82.6328V95.2383H183.335V82.6328H186.808ZM165.89 92.5586C170.046 91.3145 171.906 88.1836 171.906 85.0938V83.1797H175.542V85.0938C175.515 88.1152 177.32 91 181.394 92.1758L179.699 94.8555C176.841 94.0352 174.873 92.2988 173.738 90.084C172.617 92.5039 170.58 94.4043 167.613 95.293L165.89 92.5586ZM170.128 99.0117V96.3047H186.835V103.059H173.601V104.59H187.519V107.352H170.183V100.461H183.363V99.0117H170.128ZM196.338 84.3828C200.139 84.3828 202.887 87.8145 202.9 93.2422C202.887 98.7109 200.139 102.129 196.338 102.129C192.523 102.129 189.762 98.7109 189.775 93.2422C189.762 87.8145 192.523 84.3828 196.338 84.3828ZM193.139 93.2422C193.139 96.9473 194.438 98.9707 196.338 98.957C198.279 98.9707 199.551 96.9473 199.564 93.2422C199.551 89.5508 198.279 87.5273 196.338 87.5273C194.438 87.5273 193.139 89.5508 193.139 93.2422ZM205.771 107.516V82.6328H209.271V92.0117H212.936V94.9102H209.271V107.516H205.771ZM227.469 84.9297V87.7188H225.254V98.5742C226.266 98.4922 227.251 98.3965 228.208 98.2734L228.399 100.789C223.299 101.678 217.612 101.773 213.333 101.801L212.95 98.957C213.838 98.957 214.795 98.957 215.794 98.9434V87.7188H213.579V84.9297H227.469ZM219.157 98.8887C220.059 98.8613 220.975 98.8203 221.891 98.7793V87.7188H219.157V98.8887ZM229.411 107.516V82.6328H232.911V92.0938H236.575V94.9375H232.911V107.516H229.411ZM257.206 95.4844V98.2461H239.597V84.4648H257.015V87.2812H243.151V89.9062H256.441V92.6406H243.151V95.4844H257.206ZM236.917 104.617V101.773H259.694V104.617H236.917ZM289.227 101.801V104.617H266.449V101.801H276.074V96.25H279.574V101.801H289.227ZM267.379 94.582C272.547 93.748 275.637 90.6309 275.938 87.3359H268.336V84.5195H287.231V87.3359H279.656C279.93 90.6172 283.047 93.666 288.379 94.4453L287.012 97.207C282.651 96.4414 279.424 94.3223 277.811 91.3691C276.239 94.3633 273.039 96.5645 268.746 97.3438L267.379 94.582ZM311.007 82.6328V107.516H307.534V82.6328H311.007ZM290.198 100.488C292.098 100.475 294.272 100.475 296.542 100.42V98.3145C293.821 97.8223 292.044 96.127 292.057 93.7891C292.044 91.0137 294.573 89.1133 298.237 89.1133C301.929 89.1133 304.499 91.0137 304.499 93.7891C304.499 96.1133 302.721 97.8086 299.987 98.3145V100.297C302.079 100.201 304.171 100.037 306.167 99.7773L306.413 102.348C300.958 103.291 295.093 103.346 290.663 103.332L290.198 100.488ZM290.69 88.1289V85.3945H296.542V82.7422H300.014V85.3945H305.811V88.1289H290.69ZM295.366 93.7891C295.352 95.1016 296.542 95.8125 298.237 95.8125C299.987 95.8125 301.163 95.1016 301.163 93.7891C301.163 92.5039 299.987 91.7793 298.237 91.7656C296.542 91.7793 295.352 92.5039 295.366 93.7891Z" fill="#303948"/>
<path d="M362.645 94.1914C362.645 96.793 364.174 99.5352 366.741 100.607L365.668 102.154C363.787 101.337 362.416 99.6758 361.687 97.6543C360.957 99.834 359.56 101.662 357.705 102.541L356.58 101.012C359.085 99.8516 360.65 96.8896 360.659 94.1914V92.8555H357.16V91.2383H366.125V92.8555H362.645V94.1914ZM367.901 105.564V89.6738H369.869V105.564H367.901ZM384.75 96.8984V98.4453H380.039V102.084H386.367V103.684H371.847V102.084H378.105V98.4453H373.605V90.8516H384.627V92.416H375.556V96.8984H384.75Z" fill="#505B6E"/>
<path d="M440.483 94.8066V96.3887H429.444V90.4297H431.395V94.8066H440.483ZM427.651 99.9219V98.3398H442.135V99.9219H438.655V105.564H436.686V99.9219H433.1V105.564H431.149V99.9219H427.651ZM451.056 91.8535C451.056 94.3057 453.456 96.7754 456.787 97.3555L455.908 98.9902C453.245 98.4365 451.065 96.8193 450.028 94.6836C448.982 96.8018 446.802 98.4277 444.148 98.9902L443.287 97.3555C446.565 96.7578 448.973 94.2969 448.982 91.8535V90.6758H451.056V91.8535ZM442.847 103.543V101.926H457.367V103.543H442.847Z" fill="#505B6E"/>
<path d="M512.309 89.6211V105.617H510.182V89.6211H512.309ZM498.141 100.941C500.496 99.4912 501.375 96.626 501.375 93.9102V93.0488H498.756V91.2559H505.963V93.0488H503.537V93.9102C503.528 96.5645 504.363 99.2539 506.701 100.59L505.383 102.242C503.95 101.398 503.019 99.9746 502.474 98.252C501.929 100.115 500.962 101.697 499.494 102.594L498.141 100.941ZM504.82 96.916V95.1055H506.93V89.8848H509.039V104.879H506.93V96.916H504.82ZM528.314 101.926V103.754H513.671V101.926H519.841V98.9727H515.218V90.6406H517.468V93.1191H524.447V90.6406H526.679V98.9727H522.074V101.926H528.314ZM517.468 97.1797H524.447V94.9121H517.468V97.1797Z" fill="#4764FF"/>
<rect x="566.5" y="445.5" width="299" height="47" fill="#425EF0" stroke="white"/>
<path d="M496.312 400.562V401.734H490.594V406.328H489.141V401.734H483.5V400.562H496.312ZM485.094 398.969V392.891H486.562V394.719H493.219V392.891H494.703V398.969H485.094ZM486.562 397.781H493.219V395.906H486.562V397.781ZM508.618 392.328V399.531H507.149V392.328H508.618ZM497.071 398.281C499.258 397.555 500.594 395.719 500.602 393.781V392.703H502.118V393.781C502.11 395.656 503.453 397.359 505.602 398.031L504.868 399.188C503.235 398.656 502.008 397.555 501.375 396.133C500.743 397.664 499.493 398.883 497.821 399.453L497.071 398.281ZM499.43 401.375V400.203H508.633V403.703H500.914V405H509.102V406.188H499.477V402.578H507.164V401.375H499.43ZM514.282 393.375C516.376 393.383 517.868 395.289 517.876 398.281C517.868 401.305 516.376 403.211 514.282 403.203C512.188 403.211 510.696 401.305 510.704 398.281C510.696 395.289 512.188 393.383 514.282 393.375ZM512.126 398.281C512.118 400.508 513.008 401.875 514.282 401.875C515.579 401.875 516.454 400.508 516.454 398.281C516.454 396.086 515.579 394.711 514.282 394.703C513.008 394.711 512.118 396.086 512.126 398.281ZM519.954 406.328V392.328H521.438V397.812H523.688V399.062H521.438V406.328H519.954ZM532.056 393.766V394.984H530.618V401.508C531.313 401.453 531.993 401.391 532.649 401.312L532.728 402.391C529.798 402.883 526.493 402.93 524.04 402.938L523.868 401.703C524.423 401.703 525.024 401.695 525.649 401.688V394.984H524.212V393.766H532.056ZM527.087 401.664C527.774 401.648 528.478 401.625 529.181 401.594V394.984H527.087V401.664ZM533.462 406.328V392.328H534.946V397.844H537.196V399.062H534.946V406.328H533.462ZM548.908 399.781V400.969H539.158V393.484H548.767V394.688H540.658V396.578H548.47V397.75H540.658V399.781H548.908ZM537.548 404.562V403.344H550.361V404.562H537.548ZM562.439 393.391V394.172C562.424 395.109 562.424 396.5 562.08 398.312L560.611 398.172C560.916 396.625 560.963 395.492 560.978 394.609H555.377V393.391H562.439ZM554.533 399.516C555.393 399.516 556.369 399.508 557.393 399.484V396.531H558.861V399.438C560.361 399.375 561.908 399.266 563.314 399.062L563.408 400.141C560.486 400.656 557.143 400.711 554.674 400.719L554.533 399.516ZM556.658 406.031V401.891H558.143V404.828H566.174V406.031H556.658ZM564.205 402.844V392.328H565.721V396.781H567.643V398.031H565.721V402.844H564.205ZM574.823 393.312V397.531H570.198V399.609C572.533 399.602 573.916 399.531 575.557 399.25L575.713 400.453C573.893 400.773 572.401 400.812 569.744 400.812H568.713V396.391H573.323V394.5H568.682V393.312H574.823ZM570.619 405.984V401.875H572.104V404.766H580.229V405.984H570.619ZM575.729 398.969V397.75H578.338V395.812H575.729V394.625H578.338V392.344H579.823V402.641H578.338V398.969H575.729ZM597.261 392.328V406.328H595.839V392.328H597.261ZM585.042 402.469C587.026 401.273 588.034 398.727 588.042 396.234V395.109H585.464V393.906H591.87V395.109H589.464V396.234C589.464 398.625 590.433 401.023 592.401 402.156L591.511 403.25C590.175 402.453 589.261 401.023 588.768 399.336C588.268 401.164 587.315 402.727 585.948 403.578L585.042 402.469ZM590.839 398.5V397.281H593.011V392.625H594.417V405.625H593.011V398.5H590.839ZM611.566 403.359V404.594H598.753V403.359H604.394V400.484H600.222V393.281H601.706V395.688H608.581V393.281H610.05V400.484H605.863V403.359H611.566ZM601.706 399.281H608.581V396.891H601.706V399.281ZM617.121 395.891C617.105 398.367 618.55 400.906 620.636 401.922L619.714 403.109C618.191 402.312 617.011 400.75 616.394 398.883C615.769 400.867 614.542 402.547 612.949 403.375L612.027 402.172C614.175 401.141 615.628 398.453 615.636 395.891V393.5H617.121V395.891ZM621.683 406.328V392.328H623.167V397.906H625.417V399.172H623.167V406.328H621.683ZM636.769 392.328V396.125H638.801V397.375H636.769V401.312H635.285V392.328H636.769ZM625.785 395V393.828H629.223V392.219H630.707V393.828H634.129V395H625.785ZM626.551 398.141C626.543 396.633 627.918 395.648 629.957 395.641C631.973 395.648 633.348 396.633 633.348 398.141C633.348 399.641 631.973 400.617 629.957 400.609C627.918 400.617 626.543 399.641 626.551 398.141ZM627.66 403.875C627.644 402.328 629.41 401.422 632.301 401.422C635.152 401.422 636.926 402.328 636.926 403.875C636.926 405.398 635.152 406.305 632.301 406.297C629.41 406.305 627.644 405.398 627.66 403.875ZM627.988 398.141C627.973 398.969 628.769 399.484 629.957 399.484C631.144 399.484 631.941 398.969 631.957 398.141C631.941 397.289 631.144 396.75 629.957 396.75C628.769 396.75 627.973 397.289 627.988 398.141ZM629.129 403.875C629.121 404.695 630.285 405.172 632.301 405.172C634.285 405.172 635.449 404.695 635.457 403.875C635.449 403.023 634.285 402.57 632.301 402.562C630.285 402.57 629.121 403.023 629.129 403.875ZM650.871 392.328V406.359H649.387V392.328H650.871ZM639.762 398.281C639.762 395.289 641.27 393.383 643.387 393.375C645.465 393.383 646.996 395.289 646.996 398.281C646.996 401.305 645.465 403.211 643.387 403.203C641.27 403.211 639.762 401.305 639.762 398.281ZM641.199 398.281C641.192 400.508 642.082 401.875 643.387 401.875C644.668 401.875 645.559 400.508 645.559 398.281C645.559 396.086 644.668 394.711 643.387 394.703C642.082 394.711 641.192 396.086 641.199 398.281ZM661.231 401.578C661.231 402.781 661.825 404.055 663.098 404.812C664.38 403.992 665.012 402.656 665.012 401.578V400.906H666.466V401.578C666.458 403.031 667.419 404.438 669.247 405.031L668.512 406.125C667.13 405.648 666.184 404.711 665.7 403.57C665.255 404.695 664.419 405.719 663.137 406.25C661.794 405.742 660.942 404.75 660.512 403.609C660.005 404.711 659.083 405.641 657.762 406.125L657.012 405.031C658.809 404.391 659.786 402.93 659.794 401.578V400.906H661.231V401.578ZM656.653 396.422C656.661 394.461 658.239 393.117 660.387 393.109C662.528 393.117 664.106 394.461 664.106 396.422C664.106 398.359 662.528 399.703 660.387 399.703C658.239 399.703 656.661 398.359 656.653 396.422ZM658.106 396.422C658.098 397.641 659.059 398.469 660.387 398.469C661.7 398.469 662.653 397.641 662.653 396.422C662.653 395.195 661.7 394.367 660.387 394.375C659.059 394.367 658.098 395.195 658.106 396.422ZM666.497 400.312V392.344H667.981V400.312H666.497ZM676.255 393.172C679.193 393.172 681.427 394.727 681.427 397.078C681.427 399.445 679.193 400.992 676.255 400.984C673.325 400.992 671.091 399.445 671.099 397.078C671.091 394.727 673.325 393.172 676.255 393.172ZM669.88 404.516V403.281H682.693V404.516H669.88ZM672.521 397.078C672.513 398.711 674.107 399.766 676.255 399.766C678.396 399.766 679.982 398.711 679.989 397.078C679.982 395.453 678.396 394.367 676.255 394.375C674.107 394.367 672.513 395.453 672.521 397.078ZM694.997 392.344V402.594H693.513V392.344H694.997ZM683.466 399.438C685.662 398.625 686.958 396.609 686.966 394.5V393.109H688.482V394.5C688.474 396.547 689.771 398.422 691.935 399.172L691.169 400.359C689.552 399.758 688.357 398.57 687.732 397.055C687.115 398.68 685.904 399.977 684.263 400.609L683.466 399.438ZM685.841 406.031V401.625H687.341V404.828H695.419V406.031H685.841ZM713.279 399.656V400.844H707.717V403.422H706.248V400.844H700.467V399.656H713.279ZM702.061 406.031V402.203H703.529V404.828H711.857V406.031H702.061ZM702.154 398.422V392.766H703.623V394.469H710.107V392.766H711.592V398.422H702.154ZM703.623 397.234H710.107V395.578H703.623V397.234ZM726.772 398.062V399.25H713.991V398.062H726.772ZM715.522 401.5V400.359H725.147V403.75H716.991V405H725.538V406.172H715.538V402.656H723.678V401.5H715.522ZM715.663 397.047V392.734H725.116V393.938H717.147V395.859H725.256V397.047H715.663ZM740.264 399.641V400.828H727.499V399.641H740.264ZM728.874 395.594C728.866 393.836 730.827 392.789 733.874 392.797C736.905 392.789 738.866 393.836 738.874 395.594C738.866 397.359 736.905 398.43 733.874 398.438C730.827 398.43 728.866 397.359 728.874 395.594ZM729.108 406.031V401.969H730.608V404.828H738.827V406.031H729.108ZM730.405 395.594C730.397 396.633 731.725 397.219 733.874 397.219C736.014 397.219 737.35 396.633 737.342 395.594C737.35 394.594 736.014 393.984 733.874 393.984C731.725 393.984 730.397 394.594 730.405 395.594ZM748.343 393.375C750.437 393.383 751.929 395.289 751.937 398.281C751.929 401.305 750.437 403.211 748.343 403.203C746.249 403.211 744.757 401.305 744.765 398.281C744.757 395.289 746.249 393.383 748.343 393.375ZM746.187 398.281C746.179 400.508 747.07 401.875 748.343 401.875C749.64 401.875 750.515 400.508 750.515 398.281C750.515 396.086 749.64 394.711 748.343 394.703C747.07 394.711 746.179 396.086 746.187 398.281ZM754.015 406.328V392.328H755.499V397.812H757.749V399.062H755.499V406.328H754.015ZM763.82 393.797V398.859H759.976V401.812C761.492 401.805 762.929 401.734 764.617 401.469L764.742 402.656C762.797 403 761.234 403.047 759.492 403.062H758.539V397.641H762.383V395.016H758.523V393.797H763.82ZM765.523 405.609V392.609H766.883V397.781H768.695V392.328H770.117V406.328H768.695V398.984H766.883V405.609H765.523ZM786.789 392.328V406.359H785.305V392.328H786.789ZM775.68 398.281C775.68 395.289 777.188 393.383 779.305 393.375C781.383 393.383 782.914 395.289 782.914 398.281C782.914 401.305 781.383 403.211 779.305 403.203C777.188 403.211 775.68 401.305 775.68 398.281ZM777.117 398.281C777.11 400.508 778 401.875 779.305 401.875C780.586 401.875 781.477 400.508 781.477 398.281C781.477 396.086 780.586 394.711 779.305 394.703C778 394.711 777.11 396.086 777.117 398.281ZM794.61 393.906V397.547H796.485V392.594H797.907V405.641H796.485V398.766H794.61V402.641H789.172V393.906H794.61ZM790.579 401.453H793.219V395.078H790.579V401.453ZM799.329 406.328V392.328H800.751V406.328H799.329ZM806.181 392.797C808.29 392.812 809.845 394.102 809.853 395.938C809.845 397.781 808.29 399.062 806.181 399.062C804.048 399.062 802.501 397.781 802.493 395.938C802.501 394.102 804.048 392.812 806.181 392.797ZM803.946 395.938C803.938 397.094 804.892 397.859 806.181 397.859C807.462 397.859 808.415 397.094 808.415 395.938C808.415 394.797 807.462 394.031 806.181 394.047C804.892 394.031 803.938 394.797 803.946 395.938ZM804.618 401.281V400.094H813.821V403.625H806.103V404.969H814.29V406.156H804.665V402.516H812.353V401.281H804.618ZM812.337 399.453V392.328H813.821V399.453H812.337ZM828.533 403.406V404.656H815.72V403.406H821.361V400.953H817.283V396.5H825.501V394.531H817.251V393.312H826.97V397.688H818.751V399.734H827.298V400.953H822.829V403.406H828.533ZM844.486 392.344V402.656H843.002V399.016H839.525C838.869 399.805 837.853 400.281 836.689 400.281C834.58 400.281 833.01 398.805 833.017 396.75C833.01 394.68 834.58 393.203 836.689 393.188C837.846 393.195 838.853 393.672 839.51 394.453H843.002V392.344H844.486ZM834.439 396.75C834.432 398.07 835.377 398.977 836.689 398.969C837.947 398.977 838.908 398.07 838.908 396.75C838.908 395.43 837.947 394.523 836.689 394.516C835.377 394.523 834.432 395.43 834.439 396.75ZM835.392 406.031V401.578H836.877V404.828H844.861V406.031H835.392ZM840.166 395.656C840.275 396 840.33 396.359 840.33 396.75C840.33 397.125 840.275 397.484 840.174 397.812H843.002V395.656H840.166ZM853.26 393.156V397.156H848.385V398.953C850.815 398.938 852.533 398.859 854.573 398.516L854.729 399.719C852.565 400.086 850.713 400.18 848.026 400.172H846.901V396H851.807V394.359H846.885V393.156H853.26ZM848.073 402.75V401.547H857.323V406.312H855.838V402.75H848.073ZM855.838 400.844V392.344H857.323V395.844H859.369V397.078H857.323V400.844H855.838ZM876.214 400.562V401.734H870.495V406.328H869.042V401.734H863.401V400.562H876.214ZM864.995 398.969V392.891H866.464V394.719H873.12V392.891H874.604V398.969H864.995ZM866.464 397.781H873.12V395.906H866.464V397.781ZM884.034 393.266V394.469H879.019V396.078H883.769V397.234H879.019V398.922C881.589 398.922 883.12 398.844 884.909 398.531L885.066 399.719C883.152 400.055 881.503 400.125 878.628 400.109H877.534V393.266H884.034ZM878.675 402.656V401.453H887.925V406.328H886.441V402.656H878.675ZM886.441 400.812V392.328H887.925V395.953H889.956V397.203H887.925V400.812H886.441ZM901.777 398.969V400.188H892.027V393.578H901.652V394.797H893.496V398.969H901.777ZM890.433 404.484V403.25H903.246V404.484H890.433ZM915.551 392.344V400.062H914.066V392.344H915.551ZM904.644 394.203V393H911.082V396.906H906.129V398.562C908.582 398.555 910.371 398.492 912.504 398.141L912.691 399.344C910.402 399.719 908.496 399.781 905.848 399.797H904.676V395.75H909.613V394.203H904.644ZM906.363 406.156V400.719H907.848V402.234H914.082V400.719H915.551V406.156H906.363ZM907.848 404.953H914.082V403.406H907.848V404.953ZM929.074 392.328V406.328H927.59V392.328H929.074ZM918.309 402.766V393.688H919.777V401.484C921.824 401.477 923.973 401.297 926.215 400.844L926.418 402.094C923.942 402.602 921.692 402.773 919.481 402.766H918.309ZM941.864 392.328V397.75H944.114V398.969H941.864V406.359H940.379V392.328H941.864ZM931.551 402.875V393.672H938.098V394.875H933.036V401.641C935.387 401.633 937.145 401.531 939.145 401.172L939.332 402.422C937.137 402.812 935.278 402.883 932.676 402.875H931.551ZM946.059 405.109C945.45 405.102 944.942 404.609 944.95 404C944.942 403.391 945.45 402.891 946.059 402.891C946.661 402.891 947.161 403.391 947.169 404C947.161 404.609 946.661 405.102 946.059 405.109Z" fill="#303948"/>
<path d="M608.172 476.195C604.9 476.195 602.977 473.559 602.977 468.93C602.977 464.33 604.92 461.664 608.172 461.664C611.414 461.664 613.357 464.33 613.367 468.93C613.357 473.559 611.443 476.195 608.172 476.195ZM605.125 468.93C605.115 472.455 606.258 474.34 608.172 474.34C610.076 474.34 611.219 472.455 611.219 468.93C611.219 465.414 610.066 463.49 608.172 463.48C606.268 463.49 605.125 465.414 605.125 468.93ZM620.116 476.195C616.844 476.195 614.92 473.559 614.92 468.93C614.92 464.33 616.864 461.664 620.116 461.664C623.358 461.664 625.301 464.33 625.311 468.93C625.301 473.559 623.387 476.195 620.116 476.195ZM617.069 468.93C617.059 472.455 618.202 474.34 620.116 474.34C622.02 474.34 623.163 472.455 623.163 468.93C623.163 465.414 622.01 463.49 620.116 463.48C618.211 463.49 617.069 465.414 617.069 468.93ZM632.059 476.195C628.788 476.195 626.864 473.559 626.864 468.93C626.864 464.33 628.807 461.664 632.059 461.664C635.302 461.664 637.245 464.33 637.255 468.93C637.245 473.559 635.331 476.195 632.059 476.195ZM629.013 468.93C629.003 472.455 630.145 474.34 632.059 474.34C633.964 474.34 635.106 472.455 635.106 468.93C635.106 465.414 633.954 463.49 632.059 463.48C630.155 463.49 629.013 465.414 629.013 468.93ZM644.003 476.195C640.732 476.195 638.808 473.559 638.808 468.93C638.808 464.33 640.751 461.664 644.003 461.664C647.245 461.664 649.189 464.33 649.198 468.93C649.189 473.559 647.275 476.195 644.003 476.195ZM640.956 468.93C640.946 472.455 642.089 474.34 644.003 474.34C645.907 474.34 647.05 472.455 647.05 468.93C647.05 465.414 645.898 463.49 644.003 463.48C642.099 463.49 640.956 465.414 640.956 468.93ZM655.947 476.195C652.675 476.195 650.752 473.559 650.752 468.93C650.752 464.33 652.695 461.664 655.947 461.664C659.189 461.664 661.132 464.33 661.142 468.93C661.132 473.559 659.218 476.195 655.947 476.195ZM652.9 468.93C652.89 472.455 654.033 474.34 655.947 474.34C657.851 474.34 658.994 472.455 658.994 468.93C658.994 465.414 657.841 463.49 655.947 463.48C654.043 463.49 652.9 465.414 652.9 468.93ZM667.891 476.195C664.619 476.195 662.695 473.559 662.695 468.93C662.695 464.33 664.639 461.664 667.891 461.664C671.133 461.664 673.076 464.33 673.086 468.93C673.076 473.559 671.162 476.195 667.891 476.195ZM664.844 468.93C664.834 472.455 665.977 474.34 667.891 474.34C669.795 474.34 670.938 472.455 670.938 468.93C670.938 465.414 669.785 463.49 667.891 463.48C665.986 463.49 664.844 465.414 664.844 468.93ZM679.834 476.195C676.563 476.195 674.639 473.559 674.639 468.93C674.639 464.33 676.582 461.664 679.834 461.664C683.077 461.664 685.02 464.33 685.03 468.93C685.02 473.559 683.106 476.195 679.834 476.195ZM676.787 468.93C676.778 472.455 677.92 474.34 679.834 474.34C681.739 474.34 682.881 472.455 682.881 468.93C682.881 465.414 681.729 463.49 679.834 463.48C677.93 463.49 676.787 465.414 676.787 468.93ZM691.778 476.195C688.507 476.195 686.583 473.559 686.583 468.93C686.583 464.33 688.526 461.664 691.778 461.664C695.02 461.664 696.964 464.33 696.973 468.93C696.964 473.559 695.05 476.195 691.778 476.195ZM688.731 468.93C688.721 472.455 689.864 474.34 691.778 474.34C693.682 474.34 694.825 472.455 694.825 468.93C694.825 465.414 693.673 463.49 691.778 463.48C689.874 463.49 688.731 465.414 688.731 468.93ZM703.722 476.195C700.45 476.195 698.527 473.559 698.527 468.93C698.527 464.33 700.47 461.664 703.722 461.664C706.964 461.664 708.907 464.33 708.917 468.93C708.907 473.559 706.993 476.195 703.722 476.195ZM700.675 468.93C700.665 472.455 701.808 474.34 703.722 474.34C705.626 474.34 706.769 472.455 706.769 468.93C706.769 465.414 705.616 463.49 703.722 463.48C701.818 463.49 700.675 465.414 700.675 468.93ZM715.666 476.195C712.394 476.195 710.47 473.559 710.47 468.93C710.47 464.33 712.414 461.664 715.666 461.664C718.908 461.664 720.851 464.33 720.861 468.93C720.851 473.559 718.937 476.195 715.666 476.195ZM712.619 468.93C712.609 472.455 713.752 474.34 715.666 474.34C717.57 474.34 718.713 472.455 718.713 468.93C718.713 465.414 717.56 463.49 715.666 463.48C713.761 463.49 712.619 465.414 712.619 468.93ZM729.66 474.086C727.775 474.086 726.369 472.582 726.359 470.023C726.369 467.455 727.824 465.98 729.66 465.98C731.008 465.98 731.604 466.82 731.848 467.309H731.945V466.137H733.645V471.605C733.674 472.318 733.957 472.67 734.543 472.66C735.646 472.67 736.369 471.391 736.379 469.496C736.398 465.961 733.869 463.637 730.227 463.637C726.467 463.646 724.064 466.459 724.055 470.023C724.055 473.9 726.154 476.459 730.148 476.43C731.525 476.42 732.502 476.312 733.645 476V477.562C732.619 477.855 731.438 478.031 730.148 478.031C725.314 478.031 722.414 474.945 722.414 470.023C722.404 465.404 725.646 462.035 730.227 462.035C734.855 462.035 738.029 465.199 738.02 469.438C738.02 472.436 736.486 474.174 734.406 474.164C733.137 474.164 732.189 473.52 732.043 472.621H731.945C731.701 473.119 731.076 474.086 729.66 474.086ZM728.195 470.004C728.186 471.42 728.869 472.475 730.09 472.484C731.33 472.475 731.975 471.498 731.984 470.004C731.975 468.549 731.34 467.592 730.09 467.582C728.859 467.592 728.186 468.627 728.195 470.004ZM741.955 469.711V476H739.866V465.395H741.877V467.133H741.995C742.493 465.99 743.538 465.258 745.12 465.258C747.297 465.258 748.743 466.635 748.733 469.262V476H746.663V469.516C746.653 467.973 745.823 467.055 744.416 467.055C742.981 467.055 741.955 468.021 741.955 469.711ZM750.384 473.012C750.374 470.59 752.434 469.965 754.348 469.828C755.052 469.789 756.643 469.701 757.132 469.682L757.122 468.832C757.132 467.631 756.389 466.938 754.973 466.938C753.743 466.938 753.001 467.504 752.786 468.285H750.716C750.901 466.527 752.542 465.258 755.052 465.258C756.741 465.258 759.202 465.873 759.212 468.949V476H757.18V474.555H757.102C756.692 475.346 755.716 476.234 753.958 476.234C751.946 476.234 750.374 475.082 750.384 473.012ZM752.415 473.031C752.415 474.047 753.255 474.564 754.427 474.574C756.126 474.564 757.141 473.432 757.141 472.172L757.132 471.205C756.653 471.234 755.139 471.342 754.641 471.371C753.274 471.469 752.415 471.986 752.415 473.031ZM770.042 465.395L766.195 476H763.948L760.101 465.395H762.347L765.023 473.539H765.12L767.796 465.395H770.042ZM775.541 476.215C772.416 476.215 770.492 474.057 770.502 470.766C770.492 467.504 772.445 465.258 775.404 465.258C777.816 465.258 780.111 466.752 780.111 470.59V471.332H772.572C772.63 473.354 773.822 474.496 775.56 474.496C776.742 474.496 777.513 473.988 777.865 473.344H779.974C779.505 475.062 777.875 476.215 775.541 476.215ZM772.582 469.77H778.06C778.06 468.158 777.015 466.967 775.423 466.977C773.754 466.967 772.67 468.275 772.582 469.77ZM781.781 476V465.395H783.793V467.074H783.91C784.301 465.941 785.365 465.229 786.605 465.238C786.859 465.229 787.27 465.258 787.484 465.277V467.27C787.309 467.23 786.82 467.143 786.391 467.152C784.945 467.143 783.871 468.148 783.871 469.535V476H781.781ZM788.803 476.137C788.041 476.127 787.407 475.512 787.416 474.75C787.407 473.988 788.041 473.363 788.803 473.363C789.555 473.363 790.18 473.988 790.19 474.75C790.18 475.512 789.555 476.127 788.803 476.137ZM796.802 476.215C793.706 476.215 791.831 473.939 791.841 470.746C791.831 467.514 793.774 465.258 796.762 465.258C799.184 465.258 800.932 466.684 801.157 468.832H799.126C798.911 467.836 798.12 467.006 796.802 466.996C795.083 467.006 793.93 468.432 793.93 470.688C793.93 473.012 795.054 474.447 796.802 474.438C797.983 474.447 798.862 473.783 799.126 472.641H801.157C800.932 474.701 799.302 476.215 796.802 476.215ZM807.222 476.215C804.214 476.215 802.251 474.027 802.261 470.746C802.251 467.445 804.214 465.258 807.222 465.258C810.21 465.258 812.163 467.445 812.163 470.746C812.163 474.027 810.21 476.215 807.222 476.215ZM804.351 470.746C804.351 472.768 805.279 474.477 807.222 474.477C809.136 474.477 810.054 472.768 810.054 470.746C810.054 468.715 809.136 466.986 807.222 466.977C805.279 466.986 804.351 468.715 804.351 470.746ZM813.814 476V465.395H815.826V467.133H815.943C816.392 465.951 817.437 465.258 818.834 465.258C820.25 465.258 821.236 465.951 821.685 467.133H821.802C822.3 465.99 823.453 465.258 824.986 465.258C826.9 465.258 828.257 466.459 828.267 468.891V476H826.177V469.086C826.177 467.65 825.279 467.055 824.185 467.055C822.847 467.055 822.076 467.973 822.076 469.242V476H820.005V468.969C820.005 467.807 819.214 467.055 818.072 467.055C816.9 467.055 815.904 468.031 815.904 469.457V476H813.814Z" fill="white"/>
<path d="M686.838 344.016C686.533 341.984 684.972 340.753 682.826 340.74C679.97 340.753 678.078 342.937 678.078 346.809C678.078 350.77 679.995 352.864 682.801 352.877C684.896 352.864 686.47 351.722 686.838 349.729L690.697 349.754C690.278 353.156 687.422 356.254 682.75 356.254C677.837 356.254 674.193 352.788 674.193 346.809C674.193 340.804 677.9 337.363 682.75 337.363C686.99 337.363 690.189 339.788 690.697 344.016H686.838ZM698.962 356.279C694.798 356.267 692.196 353.41 692.209 349.145C692.196 344.892 694.798 342.035 698.962 342.035C703.139 342.035 705.729 344.892 705.742 349.145C705.729 353.41 703.139 356.267 698.962 356.279ZM696.017 349.145C696.017 351.557 697.02 353.347 698.988 353.359C700.905 353.347 701.92 351.557 701.908 349.145C701.92 346.72 700.905 344.904 698.988 344.904C697.02 344.904 696.017 346.72 696.017 349.145ZM711.341 348.027V356H707.583V342.213H711.163V344.625H711.315C711.938 343.038 713.41 342.035 715.454 342.035C718.336 342.035 720.215 344.003 720.202 347.215V356H716.47V347.875C716.457 346.174 715.543 345.158 713.981 345.158C712.42 345.158 711.341 346.212 711.341 348.027ZM729.864 342.213V345.031H727.274V351.76C727.261 352.864 727.807 353.131 728.569 353.156C728.95 353.156 729.61 353.118 730.067 353.08V356.051C729.661 356.114 728.988 356.19 728.061 356.178C725.344 356.19 723.491 354.972 723.516 352.293V345.031H721.612V342.213H723.516V338.912H727.274V342.213H729.864ZM731.045 352.141C731.058 349.068 733.521 348.065 736.174 347.9C737.164 347.837 739.018 347.748 739.602 347.723V346.605C739.589 345.45 738.802 344.79 737.393 344.777C736.11 344.79 735.311 345.361 735.107 346.301H731.527C731.756 343.914 733.838 342.035 737.494 342.035C740.503 342.035 743.347 343.381 743.334 346.707V356H739.779V354.096H739.678C739.005 355.365 737.685 356.267 735.641 356.254C733 356.267 731.058 354.87 731.045 352.141ZM734.65 352.039C734.65 353.093 735.501 353.651 736.707 353.664C738.421 353.651 739.614 352.534 739.602 351.074V350.071C739.03 350.097 737.418 350.186 736.783 350.236C735.476 350.351 734.65 350.973 734.65 352.039ZM751.879 356.279C747.651 356.267 745.112 353.347 745.125 349.145C745.112 344.93 747.702 342.035 751.879 342.035C755.433 342.035 757.845 344.104 757.998 347.266H754.468C754.24 345.907 753.351 344.968 751.929 344.955C750.127 344.968 748.933 346.479 748.933 349.094C748.933 351.76 750.101 353.283 751.929 353.283C753.25 353.283 754.227 352.458 754.468 350.998H757.998C757.833 354.121 755.535 356.267 751.879 356.279ZM767.075 342.213V345.031H764.485V351.76C764.473 352.864 765.019 353.131 765.78 353.156C766.161 353.156 766.821 353.118 767.278 353.08V356.051C766.872 356.114 766.199 356.19 765.273 356.178C762.556 356.19 760.702 354.972 760.728 352.293V345.031H758.823V342.213H760.728V338.912H764.485V342.213H767.075Z" fill="#425EF0"/>
</svg>
