<svg id="Layer_1" data-name="Layer 1" xmlns="http://www.w3.org/2000/svg" viewBox="0 0 512 512"><defs><style>.cls-1{fill:#eadbc7;}.cls-2{fill:#e0cdb6;}</style></defs><title>gesture-7-filled</title><path class="cls-1" d="M153.88,289V82.58A33,33,0,0,1,190.16,49.7c17.17,1.64,29.79,17,29.79,34.3V49.55a33,33,0,0,1,36.28-32.88C273.4,18.31,286,33.71,286,51V231.22a33,33,0,0,1,36.28-32.88c17.17,1.64,29.79,17,29.79,34.3V256a33,33,0,0,1,36.28-32.88c17.17,1.64,29.79,17,29.79,34.3v65.44a136.62,136.62,0,0,1-8.34,47l-5.26,14.35a183.1,183.1,0,0,0-11.18,63v48.29H153.88V470.12c0-26.06-8.26-40.7-28.78-69.49,0,0-86.83-144.64,28.78-144.64"/><path class="cls-2" d="M257.78.22a49.53,49.53,0,0,0-52.62,36.37,47.24,47.24,0,0,0-13.44-3.34,49.56,49.56,0,0,0-54.36,49.32V240.47c-24.44,3.08-41.76,13.42-51.63,30.85-27.14,47.95,19.76,128.76,25.2,137.82.23.37.46.74.72,1.09,19.92,27.94,25.71,39.19,25.71,59.9v25.36A16.52,16.52,0,0,0,153.88,512H393.36a16.52,16.52,0,0,0,16.52-16.52V447.2A166,166,0,0,1,420,389.89l5.26-14.35a152.68,152.68,0,0,0,9.35-52.68V257.42c0-26.06-19.65-48.34-44.74-50.74a50,50,0,0,0-26,4.54c-7.26-15.93-22.31-27.61-40.08-29.31a49.79,49.79,0,0,0-21.32,2.63V51C302.52,24.91,282.87,2.62,257.78.22ZM307.94,219a16.48,16.48,0,0,1,12.77-4.21c8.32.8,14.85,8.64,14.85,17.86v39.87a16.52,16.52,0,1,0,33,0V256a16.53,16.53,0,0,1,18.19-16.44c8.32.8,14.85,8.64,14.85,17.86v65.44a119.78,119.78,0,0,1-7.33,41.32L389,378.52a198.91,198.91,0,0,0-12.19,68.67V479H170.4v-8.84c0-30.83-10.08-48.5-31.46-78.53-11.43-19.25-39.36-77.67-24.45-104,4-7,11.63-11.57,22.88-13.7V289a16.52,16.52,0,0,0,33,0V82.58a16.53,16.53,0,0,1,18.19-16.44c8.32.8,14.85,8.64,14.85,17.86V214.71a16.52,16.52,0,0,0,33,0V49.55a16.53,16.53,0,0,1,18.19-16.44c8.32.8,14.85,8.64,14.85,17.86V247.74a16.52,16.52,0,1,0,33,0V231.22A16.33,16.33,0,0,1,307.94,219Z"/></svg>