<svg width="24" height="24" viewBox="0 0 24 24" fill="none" xmlns="http://www.w3.org/2000/svg">
<rect width="24" height="24" fill="#F4F2ED"/>
<path d="M8.22616 10.0276C8.22616 10.2558 8.25081 10.4408 8.29394 10.5765C8.34876 10.7292 8.41475 10.8776 8.49138 11.0206C8.52222 11.0699 8.5345 11.1192 8.5345 11.1624C8.5345 11.2241 8.49747 11.2858 8.41731 11.3474L8.02872 11.6065C7.97322 11.6435 7.91772 11.662 7.86841 11.662C7.80672 11.662 7.74503 11.6312 7.68335 11.5757C7.60026 11.4864 7.52592 11.3893 7.46135 11.2858C7.39242 11.1673 7.32861 11.0459 7.2701 10.9219C6.78906 11.4893 6.18456 11.773 5.45678 11.773C4.93872 11.773 4.52547 11.625 4.22322 11.3289C3.92106 11.0329 3.76685 10.6382 3.76685 10.1448C3.76685 9.62044 3.95191 9.19491 4.32813 8.87419C4.70435 8.55347 5.20394 8.39306 5.83919 8.39306C6.04891 8.39306 6.26481 8.41163 6.493 8.44247C6.72119 8.47331 6.95556 8.52262 7.20231 8.57812V8.12784C7.20231 7.65909 7.1036 7.33219 6.91244 7.14103C6.715 6.94978 6.382 6.85734 5.90706 6.85734C5.69116 6.85734 5.46916 6.882 5.24097 6.9375C5.01269 6.993 4.79069 7.06087 4.57478 7.14722C4.50466 7.17859 4.43257 7.20537 4.35897 7.22738C4.31585 7.23975 4.28491 7.24594 4.26025 7.24594C4.174 7.24594 4.13069 7.18425 4.13069 7.05469V6.75244C4.13069 6.65381 4.14306 6.57975 4.17391 6.53662C4.20475 6.4935 4.26025 6.45028 4.3466 6.40706C4.5625 6.29606 4.82153 6.20363 5.12378 6.12956C5.42594 6.04931 5.74666 6.01238 6.08594 6.01238C6.81991 6.01238 7.35644 6.17887 7.70191 6.51187C8.0411 6.84497 8.21378 7.35075 8.21378 8.02922V10.0276H8.22616ZM5.7221 10.9651C5.92553 10.9651 6.13525 10.9281 6.35735 10.854C6.57935 10.78 6.77669 10.6443 6.94328 10.4593C7.04191 10.3421 7.11597 10.2126 7.15291 10.0645C7.18994 9.9165 7.2146 9.73763 7.2146 9.528V9.26887C7.02757 9.22338 6.83815 9.18839 6.64722 9.16406C6.4549 9.13964 6.26124 9.12728 6.06738 9.12703C5.65413 9.12703 5.35197 9.20728 5.14844 9.37378C4.94491 9.54028 4.84619 9.77466 4.84619 10.0831C4.84619 10.373 4.92025 10.5888 5.07438 10.7368C5.2225 10.891 5.43841 10.9651 5.7221 10.9651ZM10.6746 11.6312C10.5636 11.6312 10.4896 11.6126 10.4403 11.5695C10.3909 11.5325 10.3477 11.4461 10.3108 11.3289L8.86141 6.56128C8.82428 6.43791 8.80581 6.35775 8.80581 6.31453C8.80581 6.21591 8.85513 6.16031 8.95385 6.16031H9.55825C9.67544 6.16031 9.75569 6.17887 9.79881 6.222C9.84813 6.25903 9.88516 6.34537 9.92219 6.46256L10.9583 10.5457L11.9206 6.46256C11.9514 6.33919 11.9883 6.25912 12.0378 6.222C12.0871 6.18506 12.1734 6.16041 12.2844 6.16041H12.7778C12.895 6.16041 12.9753 6.17887 13.0246 6.222C13.0739 6.25903 13.1171 6.34537 13.1418 6.46256L14.1163 10.595L15.1833 6.46256C15.2203 6.33919 15.2635 6.25912 15.3066 6.222C15.3559 6.18506 15.4362 6.16041 15.5472 6.16041H16.1208C16.2195 6.16041 16.275 6.20972 16.275 6.31453C16.275 6.34547 16.2688 6.37622 16.2626 6.41325C16.2565 6.45028 16.2441 6.4995 16.2195 6.56747L14.7331 11.3351C14.696 11.4585 14.6528 11.5387 14.6035 11.5757C14.5542 11.6126 14.4739 11.6374 14.3691 11.6374H13.8387C13.7215 11.6374 13.6413 11.6188 13.592 11.5757C13.5426 11.5325 13.4995 11.4523 13.4748 11.3289L12.5188 7.35075L11.569 11.3228C11.5382 11.4461 11.5011 11.5263 11.4518 11.5695C11.4024 11.6126 11.3161 11.6312 11.2051 11.6312H10.6746ZM18.6003 11.7977C18.2795 11.7977 17.9588 11.7607 17.6504 11.6867C17.342 11.6126 17.1015 11.5325 16.9411 11.4399C16.8424 11.3844 16.7746 11.3227 16.7499 11.2672C16.7259 11.2128 16.7133 11.1541 16.7129 11.0946V10.78C16.7129 10.6505 16.7622 10.5888 16.8547 10.5888C16.8918 10.5888 16.9288 10.595 16.9657 10.6073C17.0028 10.6196 17.0583 10.6443 17.1199 10.669C17.3378 10.7648 17.5652 10.8372 17.7984 10.8848C18.04 10.9339 18.2859 10.9587 18.5324 10.9589C18.921 10.9589 19.2231 10.891 19.4328 10.7554C19.6426 10.6196 19.7536 10.4223 19.7536 10.1694C19.7536 9.99675 19.6981 9.85481 19.5871 9.73762C19.4761 9.62044 19.2663 9.51562 18.9641 9.41691L18.0698 9.13941C17.6195 8.99756 17.2864 8.78784 17.0829 8.51034C16.8794 8.23894 16.7746 7.93659 16.7746 7.61597C16.7746 7.35694 16.8301 7.12875 16.9411 6.93131C17.0521 6.73397 17.2001 6.56128 17.3852 6.42563C17.5702 6.28369 17.7799 6.17887 18.0266 6.10481C18.2733 6.03075 18.5324 6 18.8038 6C18.9394 6 19.0813 6.00619 19.217 6.02466C19.3589 6.04313 19.4883 6.06778 19.6179 6.09253C19.7413 6.12337 19.8585 6.15422 19.9695 6.19125C20.0805 6.22819 20.1668 6.26522 20.2285 6.30225C20.3148 6.35156 20.3765 6.40087 20.4136 6.45637C20.4505 6.50578 20.4691 6.57356 20.4691 6.66V6.94988C20.4691 7.07934 20.4198 7.14722 20.3272 7.14722C20.2778 7.14722 20.1977 7.12256 20.0928 7.07316C19.7413 6.91284 19.3465 6.83269 18.9086 6.83269C18.557 6.83269 18.2795 6.88819 18.0883 7.00537C17.8971 7.12256 17.7984 7.30144 17.7984 7.55428C17.7984 7.72697 17.8601 7.875 17.9835 7.99219C18.1068 8.10938 18.335 8.22656 18.6619 8.33137L19.5378 8.60888C19.9818 8.75081 20.3026 8.94816 20.4937 9.20109C20.6849 9.45394 20.7774 9.74381 20.7774 10.0645C20.7774 10.3298 20.7219 10.5703 20.6171 10.78C20.5061 10.9897 20.3581 11.1747 20.1668 11.3228C19.9757 11.477 19.7474 11.588 19.4823 11.6682C19.2047 11.7546 18.9148 11.7977 18.6003 11.7977Z" fill="#252F3E"/>
<path fill-rule="evenodd" clip-rule="evenodd" d="M19.766 14.7949C17.7368 16.2937 14.7886 17.0893 12.2536 17.0893C8.70108 17.0893 5.49989 15.7755 3.08217 13.5922C2.89092 13.4195 3.0637 13.1851 3.29189 13.3208C5.90705 14.838 9.1328 15.7571 12.4695 15.7571C14.7208 15.7571 17.1941 15.2883 19.47 14.3262C19.8091 14.1719 20.099 14.5482 19.766 14.7949Z" fill="#FF9900"/>
<path fill-rule="evenodd" clip-rule="evenodd" d="M20.611 13.8335C20.352 13.5005 18.8964 13.6731 18.2364 13.7533C18.0391 13.778 18.0082 13.6053 18.1871 13.4758C19.3466 12.6617 21.2525 12.896 21.4746 13.1674C21.6966 13.445 21.4129 15.3508 20.3273 16.2636C20.1607 16.4055 20.0004 16.3314 20.0744 16.1465C20.3211 15.5359 20.8701 14.1604 20.611 13.8335Z" fill="#FF9900"/>
</svg>
