<svg width="450" height="450" viewBox="0 0 450 450" fill="none" xmlns="http://www.w3.org/2000/svg">
<rect width="450" height="450" fill="#F3F3F3"/>
<path d="M100 199.801V250.117H108.637V210.555L140.488 250.137H194.578V242.104H159.674V228.82H187.74V220.787H159.674V207.855H194.576V199.816H151.035V207.855H151.039V249.766L110.795 199.801H100ZM266.191 199.82V207.857H283.828V250.143H292.461V207.857H309.74V199.818H266.191V199.82ZM205.016 199.842L245.504 250.162H256.838L236.594 225.02L256.809 199.881L245.5 199.9L230.932 217.988L216.322 199.844H205.014L205.016 199.842ZM342.043 228.354C340.557 228.354 339.221 228.604 338.037 229.123C336.86 229.637 335.932 230.359 335.252 231.287C334.568 232.218 334.227 233.301 334.227 234.537C334.224 236.04 334.732 237.242 335.75 238.145C336.762 239.051 338.145 239.725 339.898 240.168L342.32 240.777C343.004 240.943 343.674 241.161 344.324 241.43C344.829 241.629 345.285 241.936 345.658 242.33C345.983 242.708 346.155 243.193 346.143 243.691C346.148 244.263 345.952 244.818 345.59 245.26C345.197 245.734 344.685 246.095 344.105 246.305C343.398 246.566 342.648 246.693 341.895 246.68C341.153 246.692 340.415 246.571 339.715 246.324C339.105 246.105 338.564 245.73 338.145 245.236C337.731 244.717 337.491 244.081 337.457 243.418H333.666C333.718 244.807 334.087 245.987 334.771 246.957C335.799 248.412 336.404 248.662 337.623 249.164C338.834 249.672 340.273 249.926 341.924 249.926C343.632 249.923 345.086 249.663 346.285 249.145C347.49 248.617 348.41 247.889 349.047 246.961C349.686 246.025 350 244.953 350 243.723C349.999 242.811 349.826 242.019 349.48 241.346C349.141 240.675 348.661 240.084 348.074 239.613C347.465 239.125 346.789 238.725 346.066 238.428C345.316 238.108 344.538 237.857 343.742 237.676L341.75 237.187C341.31 237.082 340.875 236.955 340.447 236.807C340.038 236.668 339.647 236.481 339.281 236.25C338.942 236.047 338.654 235.767 338.441 235.434C338.229 235.095 338.122 234.701 338.133 234.301C338.133 233.796 338.296 233.305 338.598 232.9C338.902 232.49 339.35 232.166 339.922 231.924C340.58 231.672 341.28 231.55 341.984 231.564C343.128 231.563 344.059 231.813 344.777 232.313C345.125 232.546 345.415 232.856 345.626 233.218C345.836 233.58 345.962 233.985 345.994 234.402H349.705C349.702 233.278 349.352 232.182 348.703 231.264C348.052 230.352 347.156 229.639 346.014 229.123C344.874 228.607 343.551 228.351 342.043 228.354ZM326.422 228.635V243.381C326.415 244.119 326.301 244.74 326.078 245.244C325.877 245.719 325.531 246.118 325.09 246.385C324.661 246.645 324.139 246.775 323.521 246.775C322.956 246.775 322.454 246.665 322.016 246.443C321.592 246.235 321.238 245.909 320.996 245.504C320.743 245.057 320.612 244.552 320.615 244.039H316.781C316.779 245.331 317.07 246.409 317.654 247.273C318.237 248.14 319.059 248.82 320.02 249.23C321.08 249.686 322.225 249.912 323.379 249.895C324.742 249.895 325.937 249.634 326.963 249.113C327.968 248.614 328.806 247.835 329.377 246.869C329.95 245.896 330.242 244.733 330.252 243.379V228.635H326.422ZM222.258 228.75L204.984 250.199H216.322L227.918 235.785L222.258 228.75ZM311.682 245.348C311.049 245.348 310.508 245.566 310.061 246.004C309.844 246.204 309.671 246.448 309.556 246.72C309.44 246.992 309.383 247.285 309.389 247.58C309.381 247.879 309.437 248.176 309.553 248.451C309.669 248.727 309.842 248.974 310.061 249.178C310.508 249.617 311.049 249.835 311.682 249.834C312.076 249.837 312.464 249.732 312.803 249.529C313.145 249.333 313.433 249.054 313.639 248.717C313.851 248.376 313.963 247.982 313.963 247.58C313.963 247.284 313.901 246.991 313.782 246.72C313.663 246.448 313.489 246.205 313.271 246.004C313.064 245.794 312.816 245.627 312.543 245.515C312.27 245.402 311.977 245.345 311.682 245.348Z" fill="black"/>
</svg>
