<svg width="24" height="24" viewBox="0 0 24 24" fill="none" xmlns="http://www.w3.org/2000/svg">
<path d="M22.1671 11.3344C21.6562 10.8797 20.5265 10.2516 18.2062 12.4828C17.7749 12.8953 17.5171 13.0453 17.189 13.4016V2.39531C17.189 1.68281 16.6265 1.10156 15.9093 1.10156C15.1921 1.10156 14.6108 1.68281 14.6108 2.39531V8.925C14.6108 9.53437 13.8233 9.58594 13.6874 9.08437V1.29375C13.6874 0.58125 13.1249 0 12.4077 0C11.6905 0 11.1093 0.576562 11.1093 1.29375V9.10781C11.0108 9.58594 10.3077 9.56719 10.2562 9.05156V2.22656C10.2562 1.51406 9.69365 0.9375 8.97646 0.9375C8.25928 0.9375 7.67803 1.51406 7.67803 2.22656V8.94375C7.67334 8.95312 7.67334 8.96719 7.67334 8.99062C7.67334 9.57656 6.91865 9.62812 6.78271 9.15469V4.34531C6.78271 3.63281 6.22022 3.05625 5.50303 3.05625C4.78584 3.05625 4.20459 3.63281 4.20459 4.34531V15.6609C4.20459 17.9578 5.55459 19.9406 7.50459 20.8594V22.6969C7.50459 23.4094 8.08584 23.9906 8.79834 23.9906H13.9733C14.6858 23.9906 15.2671 23.4094 15.2671 22.6969V21.3937C16.1249 21.2953 16.8749 20.8406 17.3624 20.1797C17.3718 20.1703 17.3765 20.1609 17.3812 20.1516C17.3952 20.1328 17.4093 20.1141 17.4187 20.0953C17.4608 20.0484 17.5124 19.9641 17.5733 19.8422C17.6062 19.7859 17.6343 19.7297 17.6624 19.6687C18.2577 18.4641 19.6171 15.2016 22.0546 13.0922C22.5562 12.5906 22.678 11.7891 22.1671 11.3344Z" fill="#FFD3B6"/>
<path d="M14.9813 21.4171H10.9735L10.9829 21.4078H9.93291C9.06103 21.4078 8.23135 21.2109 7.49072 20.864V22.5046C7.7251 22.6265 7.9501 22.7062 8.14228 22.7062H14.6157C14.8032 22.7062 15.0235 22.6453 15.2532 22.5468V21.4031C15.1642 21.4078 15.0751 21.4125 14.9813 21.4171Z" fill="#F2C7AA"/>
</svg>
