<svg width="16" height="15" viewBox="0 0 16 15" fill="none" xmlns="http://www.w3.org/2000/svg">
<path fill-rule="evenodd" clip-rule="evenodd" d="M14.624 1.06401C14.8722 1.22951 15.0446 1.48684 15.1031 1.77939C15.1616 2.07195 15.1015 2.37576 14.936 2.62401L7.43601 13.874C7.34364 14.0124 7.22173 14.1285 7.07906 14.2141C6.93639 14.2997 6.77652 14.3526 6.61096 14.3689C6.4454 14.3853 6.27827 14.3647 6.12161 14.3087C5.96496 14.2527 5.82267 14.1626 5.70501 14.045L1.20501 9.54501C1.00629 9.33174 0.898109 9.04967 0.903251 8.75822C0.908394 8.46677 1.02646 8.18869 1.23258 7.98257C1.4387 7.77645 1.71678 7.65839 2.00823 7.65324C2.29968 7.6481 2.58175 7.75629 2.79501 7.95501L6.32451 11.4845L13.064 1.37451C13.2298 1.12652 13.4872 0.954507 13.7797 0.896282C14.0723 0.838056 14.3759 0.898385 14.624 1.06401Z" fill="#C3E88D"/>
</svg>
