<svg width="450" height="450" viewBox="0 0 450 450" fill="none" xmlns="http://www.w3.org/2000/svg">
<rect width="450" height="450" fill="#121212"/>
<g clip-path="url(#clip0_202_14)">
<path d="M274.381 213.733C283.828 212.755 290.995 204.611 290.669 194.837C290.344 185.064 282.199 177.245 272.426 177.245H271.775C261.675 177.571 253.857 186.041 254.183 196.14C254.509 201.027 256.463 205.262 259.395 208.194C248.319 230.022 231.379 245.985 205.969 259.342C188.703 268.464 170.786 271.722 152.869 269.442C138.209 267.487 126.807 260.972 119.639 250.22C109.215 234.257 108.238 216.99 117.034 199.724C123.224 187.344 132.996 178.222 139.186 173.661C137.883 169.426 135.928 162.259 134.951 157.047C87.714 191.254 92.601 237.515 106.935 259.342C117.685 275.632 139.512 285.731 163.619 285.731C170.134 285.731 176.649 285.079 183.165 283.451C224.864 275.306 256.464 250.546 274.381 213.733ZM331.717 173.336C306.958 144.341 270.472 128.378 228.773 128.378H223.561C220.629 122.514 214.439 118.604 207.598 118.604H206.946C196.848 118.93 189.03 127.4 189.355 137.5C189.681 147.273 197.825 155.092 207.598 155.092H208.249C215.416 154.766 221.606 150.205 224.212 144.015H230.076C254.835 144.015 278.29 151.182 299.466 165.191C315.754 175.942 327.482 189.951 333.997 206.891C339.535 220.574 339.209 233.931 333.345 245.334C324.224 262.6 308.913 272.048 288.715 272.048C275.684 272.048 263.305 268.138 256.789 265.206C253.206 268.464 246.69 273.676 242.129 276.935C256.138 283.45 270.472 287.034 284.154 287.034C315.428 287.034 338.558 269.767 347.354 252.501C356.801 233.605 356.149 201.027 331.717 173.336ZM166.225 219.27C166.551 229.044 174.695 236.862 184.468 236.862H185.12C195.219 236.537 203.037 228.066 202.711 217.967C202.386 208.193 194.241 200.375 184.468 200.375H183.817C183.165 200.375 182.187 200.375 181.537 200.7C168.18 178.547 162.642 154.44 164.597 128.377C165.899 108.83 172.415 91.889 183.817 77.88C193.264 65.826 211.507 59.962 223.887 59.637C258.418 58.985 273.077 101.988 274.055 119.255C278.29 120.232 285.457 122.513 290.344 124.142C286.434 71.366 253.857 44 222.584 44C193.264 44 166.225 65.176 155.474 96.451C140.489 138.151 150.262 178.222 168.505 209.823C166.877 212.103 165.899 215.686 166.225 219.27Z" fill="#764ABC"/>
</g>
<path d="M88.4545 371V301.182H112.045C117.5 301.182 121.977 302.114 125.477 303.977C128.977 305.818 131.568 308.352 133.25 311.58C134.932 314.807 135.773 318.477 135.773 322.591C135.773 326.705 134.932 330.352 133.25 333.534C131.568 336.716 128.989 339.216 125.511 341.034C122.034 342.83 117.591 343.727 112.182 343.727H93.0909V336.091H111.909C115.636 336.091 118.636 335.545 120.909 334.455C123.205 333.364 124.864 331.818 125.886 329.818C126.932 327.795 127.455 325.386 127.455 322.591C127.455 319.795 126.932 317.352 125.886 315.261C124.841 313.17 123.17 311.557 120.875 310.42C118.58 309.261 115.545 308.682 111.773 308.682H96.9091V371H88.4545ZM121.318 339.636L138.5 371H128.682L111.773 339.636H121.318ZM170.162 372.091C165.116 372.091 160.764 370.977 157.105 368.75C153.469 366.5 150.662 363.364 148.685 359.341C146.73 355.295 145.753 350.591 145.753 345.227C145.753 339.864 146.73 335.136 148.685 331.045C150.662 326.932 153.412 323.727 156.935 321.432C160.48 319.114 164.616 317.955 169.344 317.955C172.071 317.955 174.764 318.409 177.423 319.318C180.082 320.227 182.503 321.705 184.685 323.75C186.866 325.773 188.605 328.455 189.901 331.795C191.196 335.136 191.844 339.25 191.844 344.136V347.545H151.48V340.591H183.662C183.662 337.636 183.071 335 181.889 332.682C180.73 330.364 179.071 328.534 176.912 327.193C174.776 325.852 172.253 325.182 169.344 325.182C166.139 325.182 163.366 325.977 161.026 327.568C158.707 329.136 156.923 331.182 155.673 333.705C154.423 336.227 153.798 338.932 153.798 341.818V346.455C153.798 350.409 154.48 353.761 155.844 356.511C157.23 359.239 159.151 361.318 161.605 362.75C164.06 364.159 166.912 364.864 170.162 364.864C172.276 364.864 174.185 364.568 175.889 363.977C177.616 363.364 179.105 362.455 180.355 361.25C181.605 360.023 182.571 358.5 183.253 356.682L191.026 358.864C190.207 361.5 188.832 363.818 186.901 365.818C184.969 367.795 182.582 369.341 179.741 370.455C176.901 371.545 173.707 372.091 170.162 372.091ZM223.855 372.091C219.491 372.091 215.639 370.989 212.298 368.784C208.957 366.557 206.344 363.42 204.457 359.375C202.571 355.307 201.628 350.5 201.628 344.955C201.628 339.455 202.571 334.682 204.457 330.636C206.344 326.591 208.969 323.466 212.332 321.261C215.696 319.057 219.582 317.955 223.991 317.955C227.401 317.955 230.094 318.523 232.071 319.659C234.071 320.773 235.594 322.045 236.639 323.477C237.707 324.886 238.537 326.045 239.128 326.955H239.81V301.182H247.855V371H240.082V362.955H239.128C238.537 363.909 237.696 365.114 236.605 366.568C235.514 368 233.957 369.284 231.935 370.42C229.912 371.534 227.219 372.091 223.855 372.091ZM224.946 364.864C228.173 364.864 230.901 364.023 233.128 362.341C235.355 360.636 237.048 358.284 238.207 355.284C239.366 352.261 239.946 348.773 239.946 344.818C239.946 340.909 239.378 337.489 238.241 334.557C237.105 331.602 235.423 329.307 233.196 327.67C230.969 326.011 228.219 325.182 224.946 325.182C221.537 325.182 218.696 326.057 216.423 327.807C214.173 329.534 212.48 331.886 211.344 334.864C210.23 337.818 209.673 341.136 209.673 344.818C209.673 348.545 210.241 351.932 211.378 354.977C212.537 358 214.241 360.409 216.491 362.205C218.764 363.977 221.582 364.864 224.946 364.864ZM296.707 349.591V318.636H304.753V371H296.707V362.136H296.162C294.935 364.795 293.026 367.057 290.435 368.92C287.844 370.761 284.571 371.682 280.616 371.682C277.344 371.682 274.435 370.966 271.889 369.534C269.344 368.08 267.344 365.898 265.889 362.989C264.435 360.057 263.707 356.364 263.707 351.909V318.636H271.753V351.364C271.753 355.182 272.821 358.227 274.957 360.5C277.116 362.773 279.866 363.909 283.207 363.909C285.207 363.909 287.241 363.398 289.31 362.375C291.401 361.352 293.151 359.784 294.56 357.67C295.991 355.557 296.707 352.864 296.707 349.591ZM325.489 318.636L338.034 340.045L350.58 318.636H359.852L342.943 344.818L359.852 371H350.58L338.034 350.682L325.489 371H316.216L332.852 344.818L316.216 318.636H325.489Z" fill="#764ABC"/>
<defs>
<clipPath id="clip0_202_14">
<rect width="256" height="244" fill="white" transform="translate(97 44)"/>
</clipPath>
</defs>
</svg>
