<svg width="450" height="450" viewBox="0 0 450 450" fill="none" xmlns="http://www.w3.org/2000/svg">
<rect width="450" height="450" fill="white"/>
<g clip-path="url(#clip0_202_16)">
<path fill-rule="evenodd" clip-rule="evenodd" d="M318.75 170.312V271.875H303.125V170.312H271.875C265.659 170.312 259.698 167.843 255.302 163.448C250.907 159.052 248.438 153.091 248.438 146.875V115.625H162.5C158.356 115.625 154.382 117.271 151.451 120.201C148.521 123.132 146.875 127.106 146.875 131.25V271.875H131.25V131.25C131.25 122.962 134.542 115.013 140.403 109.153C146.263 103.292 154.212 100 162.5 100H248.438L318.75 170.312ZM121.187 338.906C120.16 336.702 119.571 334.32 119.453 331.891H131.406C131.625 333.11 132.091 334.271 132.777 335.303C133.462 336.335 134.352 337.216 135.391 337.891C136.484 338.651 137.781 339.245 139.281 339.672C140.771 340.099 142.432 340.313 144.266 340.313C146.828 340.313 148.979 339.948 150.719 339.219C152.312 338.622 153.696 337.574 154.703 336.203C155.603 334.866 156.067 333.283 156.031 331.672C156.071 330.693 155.875 329.719 155.459 328.833C155.043 327.946 154.419 327.173 153.641 326.578C152.068 325.328 149.661 324.323 146.422 323.562L136.75 321.328C133.772 320.704 130.923 319.573 128.328 317.984C126.037 316.577 124.148 314.602 122.844 312.25C121.535 309.722 120.875 306.909 120.922 304.063C120.922 300.25 121.911 296.922 123.891 294.078C125.87 291.245 128.62 289.047 132.141 287.484C135.641 285.922 139.682 285.146 144.266 285.156C149.026 285.156 153.089 285.948 156.453 287.531C159.828 289.125 162.432 291.26 164.266 293.937C166.141 296.594 167.182 299.542 167.391 302.781H155.672C155.404 301.298 154.759 299.91 153.797 298.75C152.777 297.489 151.447 296.515 149.938 295.922C148.112 295.167 146.147 294.805 144.172 294.859C140.786 294.859 138.115 295.651 136.156 297.234C135.239 297.938 134.5 298.848 134 299.89C133.501 300.933 133.254 302.079 133.281 303.234C133.281 305.109 134.026 306.672 135.516 307.922C137.395 309.293 139.557 310.227 141.844 310.656L151.531 312.891C154.927 313.672 157.875 314.771 160.375 316.188C162.875 317.604 164.828 319.469 166.234 321.781C167.641 324.094 168.344 327.01 168.344 330.531C168.344 334.385 167.365 337.802 165.406 340.781C163.337 343.849 160.407 346.235 156.984 347.641C153.328 349.286 148.859 350.109 143.578 350.109C139.609 350.109 136.146 349.641 133.188 348.703C130.466 347.888 127.929 346.551 125.719 344.766C123.8 343.165 122.254 341.165 121.187 338.906ZM187.969 304.063C186.81 307.227 186.263 310.584 186.359 313.953V321.687C186.359 325.531 186.896 328.797 187.969 331.484C188.866 333.95 190.489 336.086 192.625 337.609C194.854 339.024 197.455 339.742 200.094 339.672C202.26 339.702 204.405 339.232 206.359 338.297C208.104 337.405 209.577 336.062 210.625 334.406C211.683 332.691 212.31 330.745 212.453 328.734H224.406V329.922C224.256 333.697 223.031 337.35 220.875 340.453C218.671 343.52 215.71 345.964 212.281 347.547C208.433 349.315 204.234 350.191 200 350.109C194.375 350.109 189.615 348.979 185.719 346.719C181.806 344.458 178.689 341.041 176.797 336.937C174.766 332.687 173.755 327.604 173.766 321.687V313.906C173.766 307.979 174.792 302.88 176.844 298.609C178.747 294.49 181.852 291.042 185.75 288.719C189.708 286.406 194.458 285.25 200 285.25C203.417 285.25 206.578 285.755 209.484 286.766C212.401 287.734 214.948 289.151 217.125 291.016C219.324 292.878 221.107 295.181 222.361 297.775C223.616 300.37 224.312 303.198 224.406 306.078V307.219H212.453C212.307 305.119 211.665 303.084 210.578 301.281C209.557 299.557 208.081 298.146 206.313 297.203C204.406 296.167 202.263 295.644 200.094 295.688C197.454 295.604 194.856 296.359 192.672 297.844C190.531 299.413 188.896 301.575 187.969 304.063ZM228.734 331.891C228.824 334.353 229.428 336.769 230.507 338.983C231.586 341.198 233.116 343.162 235 344.75C237.01 346.437 239.5 347.75 242.469 348.688C245.427 349.635 248.891 350.109 252.859 350.109C258.141 350.109 262.609 349.286 266.266 347.641C269.953 345.995 272.766 343.703 274.703 340.766C276.674 337.715 277.691 334.147 277.625 330.516C277.625 327.016 276.922 324.099 275.516 321.766C274.086 319.424 272.065 317.5 269.656 316.188C266.891 314.653 263.909 313.546 260.812 312.906L251.125 310.656C248.837 310.223 246.675 309.283 244.797 307.906C244.087 307.355 243.515 306.645 243.127 305.834C242.739 305.023 242.546 304.133 242.562 303.234C242.562 300.797 243.521 298.797 245.437 297.234C247.396 295.651 250.068 294.859 253.453 294.859C255.672 294.859 257.594 295.214 259.219 295.922C260.722 296.517 262.047 297.492 263.062 298.75C264.024 299.91 264.67 301.298 264.937 302.781H276.656C276.455 299.601 275.373 296.539 273.531 293.937C271.562 291.127 268.86 288.912 265.719 287.531C261.884 285.842 257.72 285.03 253.531 285.156C248.969 285.156 244.927 285.937 241.406 287.5C237.906 289.052 235.161 291.245 233.172 294.078C231.193 296.922 230.203 300.25 230.203 304.063C230.203 307.208 230.844 309.937 232.125 312.25C233.406 314.562 235.234 316.474 237.609 317.984C239.984 319.474 242.797 320.583 246.047 321.312L255.687 323.562C258.927 324.323 261.339 325.328 262.922 326.578C263.7 327.173 264.324 327.946 264.74 328.833C265.156 329.719 265.353 330.693 265.313 331.672C265.348 333.283 264.884 334.866 263.984 336.203C262.978 337.574 261.593 338.622 260 339.219C257.939 339.993 255.748 340.365 253.547 340.313C251.703 340.313 250.036 340.104 248.547 339.688C247.156 339.317 245.84 338.709 244.656 337.891C243.617 337.216 242.728 336.335 242.042 335.303C241.357 334.271 240.891 333.11 240.672 331.891H228.734ZM283.453 338.906C282.431 336.701 281.847 334.318 281.734 331.891H293.672C293.891 333.11 294.357 334.271 295.042 335.303C295.728 336.335 296.617 337.216 297.656 337.891C298.75 338.651 300.047 339.245 301.547 339.672C303.036 340.099 304.698 340.313 306.531 340.313C309.094 340.313 311.245 339.948 312.984 339.219C314.577 338.622 315.962 337.574 316.969 336.203C317.868 334.866 318.332 333.283 318.297 331.672C318.339 330.695 318.145 329.721 317.732 328.835C317.318 327.948 316.698 327.174 315.922 326.578C314.328 325.328 311.917 324.323 308.688 323.562L299.031 321.328C296.048 320.706 293.194 319.575 290.594 317.984C288.303 316.577 286.414 314.602 285.109 312.25C283.801 309.722 283.14 306.909 283.188 304.063C283.188 300.25 284.177 296.922 286.156 294.078C288.135 291.245 290.885 289.047 294.406 287.484C297.906 285.922 301.948 285.146 306.531 285.156C311.302 285.156 315.365 285.948 318.719 287.531C322.094 289.125 324.698 291.26 326.531 293.937C328.406 296.594 329.448 299.542 329.656 302.781H317.938C317.67 301.298 317.024 299.91 316.063 298.75C315.042 297.489 313.713 296.515 312.203 295.922C310.377 295.167 308.413 294.805 306.438 294.859C303.052 294.859 300.385 295.651 298.437 297.234C297.517 297.936 296.775 298.845 296.273 299.888C295.771 300.931 295.522 302.077 295.547 303.234C295.547 305.109 296.292 306.672 297.781 307.922C299.661 309.293 301.823 310.227 304.109 310.656L313.797 312.891C317.193 313.672 320.141 314.771 322.641 316.188C325.141 317.604 327.094 319.469 328.5 321.781C329.906 324.094 330.609 327.01 330.609 330.531C330.609 334.385 329.635 337.802 327.687 340.781C325.614 343.851 322.678 346.238 319.25 347.641C315.594 349.286 311.125 350.109 305.844 350.109C301.875 350.109 298.411 349.641 295.453 348.703C292.731 347.888 290.195 346.551 287.984 344.766C286.066 343.165 284.52 341.165 283.453 338.906Z" fill="#3178C7"/>
</g>
<defs>
<clipPath id="clip0_202_16">
<rect width="250" height="250" fill="white" transform="translate(100 100)"/>
</clipPath>
</defs>
</svg>
