<svg width="600" height="600" viewBox="0 0 600 600" fill="none" xmlns="http://www.w3.org/2000/svg">
<rect width="600" height="600" fill="white"/>
<g clip-path="url(#clip0_202_16)">
<path d="M96.867 268C82.769 268 73.957 275.049 70.433 289.147C75.72 282.097 81.888 279.454 88.937 281.217C92.958 282.222 95.833 285.14 99.015 288.37C104.198 293.63 110.197 299.72 123.3 299.72C137.398 299.72 146.209 292.671 149.733 278.573C144.447 285.623 138.279 288.266 131.23 286.503C127.208 285.498 124.334 282.58 121.152 279.35C115.968 274.09 109.97 268 96.867 268ZM70.433 299.72C56.336 299.72 47.524 306.769 44 320.867C49.287 313.817 55.454 311.174 62.503 312.937C66.525 313.942 69.4 316.86 72.581 320.089C77.765 325.351 83.764 331.439 96.867 331.439C110.964 331.439 119.775 324.391 123.3 310.293C118.013 317.343 111.845 319.986 104.797 318.223C100.775 317.218 97.9 314.3 94.718 311.07C89.535 305.81 83.536 299.72 70.433 299.72Z" fill="url(#paint0_linear_202_16)"/>
<path d="M202.592 294.73H193.366V312.588C193.366 317.35 196.491 317.276 202.592 316.978V324.195C190.241 325.683 185.33 322.261 185.33 312.588V294.731H178.485V286.993H185.33V276.999L193.366 274.619V286.993H202.592V294.73ZM237.762 286.993H245.798V324.195H237.762V318.838C234.935 322.782 230.545 325.163 224.742 325.163C214.622 325.163 206.214 316.606 206.214 305.594C206.214 294.508 214.622 286.026 224.741 286.026C230.545 286.026 234.935 288.406 237.762 292.276V286.993ZM226.006 317.499C232.702 317.499 237.762 312.514 237.762 305.594C237.762 298.674 232.702 293.689 226.006 293.689C219.31 293.689 214.25 298.674 214.25 305.594C214.25 312.514 219.31 317.499 226.006 317.499ZM259.191 281.412C256.363 281.412 254.057 279.032 254.057 276.279C254.06 274.918 254.601 273.614 255.564 272.652C256.526 271.689 257.83 271.148 259.191 271.145C260.552 271.148 261.856 271.689 262.818 272.652C263.781 273.614 264.322 274.918 264.325 276.279C264.325 279.032 262.018 281.412 259.191 281.412ZM255.173 324.195V286.993H263.208V324.195H255.173ZM272.509 324.195V269.88H280.545V324.195H272.509ZM332.703 286.993H341.185L329.503 324.195H321.616L313.878 299.121L306.066 324.195H298.179L286.497 286.993H294.979L302.197 312.663L310.009 286.993H317.673L325.411 312.663L332.703 286.993ZM351.155 281.413C348.328 281.413 346.021 279.032 346.021 276.279C346.024 274.918 346.565 273.614 347.528 272.652C348.49 271.689 349.794 271.148 351.155 271.145C352.516 271.148 353.82 271.689 354.782 272.652C355.745 273.614 356.286 274.918 356.289 276.279C356.289 279.032 353.982 281.412 351.155 281.412M347.137 324.194V286.993H355.173V324.195L347.137 324.194ZM384.042 286.024C392.375 286.024 398.328 291.679 398.328 301.352V324.194H390.292V302.171C390.292 296.517 387.018 293.541 381.959 293.541C376.676 293.541 372.509 296.665 372.509 304.255V324.195H364.473V286.993H372.509V291.755C374.965 287.885 378.982 286.024 384.042 286.024ZM436.423 272.112H444.459V324.195H436.423V318.838C433.596 322.782 429.206 325.163 423.403 325.163C413.283 325.163 404.875 316.606 404.875 305.594C404.875 294.508 413.283 286.026 423.402 286.026C429.206 286.026 433.596 288.406 436.423 292.276V272.112ZM424.667 317.499C431.363 317.499 436.423 312.514 436.423 305.594C436.423 298.674 431.363 293.689 424.667 293.689C417.971 293.689 412.911 298.674 412.911 305.594C412.911 312.514 417.971 317.499 424.667 317.499ZM471.393 325.163C460.158 325.163 451.75 316.606 451.75 305.594C451.75 294.508 460.158 286.026 471.393 286.026C478.685 286.026 485.009 289.82 487.986 295.624L481.066 299.642C479.429 296.145 475.783 293.912 471.319 293.912C464.771 293.912 459.786 298.898 459.786 305.594C459.786 312.29 464.771 317.276 471.319 317.276C475.783 317.276 479.429 314.969 481.215 311.546L488.135 315.49C485.009 321.368 478.685 325.163 471.393 325.163ZM501.378 297.261C501.378 304.031 521.393 299.939 521.393 313.704C521.393 321.144 514.92 325.163 506.884 325.163C499.444 325.163 494.087 321.814 491.706 316.457L498.626 312.439C499.816 315.788 502.792 317.796 506.884 317.796C510.456 317.796 513.209 316.606 513.209 313.63C513.209 307.008 493.194 310.728 493.194 297.41C493.194 290.415 499.221 286.026 506.81 286.026C512.911 286.026 517.97 288.853 520.575 293.764L513.805 297.558C512.465 294.657 509.861 293.318 506.81 293.318C503.908 293.318 501.378 294.582 501.378 297.261ZM535.679 297.261C535.679 304.031 555.694 299.939 555.694 313.704C555.694 321.144 549.221 325.163 541.185 325.163C533.745 325.163 528.387 321.814 526.006 316.457L532.926 312.439C534.116 315.788 537.093 317.796 541.185 317.796C544.756 317.796 547.509 316.606 547.509 313.63C547.509 307.008 527.495 310.728 527.495 297.41C527.495 290.415 533.521 286.026 541.111 286.026C547.211 286.026 552.271 288.853 554.876 293.764L548.105 297.558C546.765 294.657 544.161 293.318 541.111 293.318C538.209 293.318 535.679 294.582 535.679 297.261Z" fill="#2D3748"/>
</g>
<defs>
<linearGradient id="paint0_linear_202_16" x1="-249.726" y1="2298.05" x2="8881.99" y2="7563.3" gradientUnits="userSpaceOnUse">
<stop stop-color="#2298BD"/>
<stop offset="1" stop-color="#0ED7B5"/>
</linearGradient>
<clipPath id="clip0_202_16">
<rect width="512" height="64" fill="white" transform="translate(44 268)"/>
</clipPath>
</defs>
</svg>
