<svg width="1920" height="1080" viewBox="0 0 1920 1080" fill="none" xmlns="http://www.w3.org/2000/svg">
<rect width="1920" height="1080" fill="white"/>
<rect x="761" y="500" width="400" height="85" rx="30" fill="#2C73FF"/>
<path d="M902.328 528.719H905.844V553.875H918.969V557H902.328V528.719ZM921.911 550.984C921.911 548.784 922.66 547.234 924.157 546.336C925.667 545.438 927.575 544.904 929.88 544.734C930.765 544.669 931.755 544.611 932.848 544.559C933.955 544.493 934.88 544.448 935.622 544.422V542.703C935.622 541.336 935.212 540.288 934.391 539.559C933.584 538.816 932.393 538.445 930.817 538.445C929.528 538.445 928.473 538.712 927.653 539.246C926.833 539.767 926.299 540.451 926.052 541.297H922.536C922.679 540.164 923.122 539.161 923.864 538.289C924.606 537.417 925.589 536.74 926.813 536.258C928.05 535.763 929.437 535.516 930.973 535.516C933.005 535.516 934.841 536.036 936.481 537.078C938.122 538.107 938.942 540.086 938.942 543.016V557H935.622V554.109H935.466C935.205 554.656 934.802 555.19 934.255 555.711C933.721 556.219 933.018 556.648 932.145 557C931.286 557.339 930.283 557.508 929.137 557.508C927.783 557.508 926.559 557.247 925.466 556.727C924.372 556.206 923.506 555.457 922.868 554.48C922.23 553.491 921.911 552.326 921.911 550.984ZM925.27 551.141C925.27 552.221 925.674 553.055 926.481 553.641C927.302 554.214 928.382 554.5 929.723 554.5C930.934 554.5 931.983 554.259 932.868 553.777C933.766 553.296 934.45 552.658 934.919 551.863C935.387 551.069 935.622 550.216 935.622 549.305V547.176C935.309 547.189 934.45 547.247 933.044 547.352L930.27 547.547C928.682 547.651 927.451 547.996 926.579 548.582C925.707 549.168 925.27 550.021 925.27 551.141ZM952.041 557.43C950.283 557.43 948.72 556.98 947.353 556.082C945.999 555.184 944.938 553.908 944.17 552.254C943.401 550.587 943.017 548.654 943.017 546.453C943.017 544.253 943.401 542.326 944.17 540.672C944.938 539.018 946.005 537.749 947.373 536.863C948.74 535.965 950.309 535.516 952.08 535.516C953.33 535.516 954.365 535.724 955.185 536.141C956.005 536.544 956.611 536.98 957.002 537.449C957.392 537.905 957.796 538.471 958.213 539.148H958.447V528.719H961.845V557H958.564V553.758H958.213C957.77 554.448 957.347 555.027 956.943 555.496C956.552 555.965 955.947 556.408 955.127 556.824C954.306 557.228 953.278 557.43 952.041 557.43ZM952.509 554.422C953.772 554.422 954.86 554.09 955.771 553.426C956.683 552.749 957.373 551.805 957.841 550.594C958.323 549.37 958.564 547.964 958.564 546.375C958.564 544.799 958.33 543.426 957.861 542.254C957.405 541.069 956.722 540.151 955.81 539.5C954.899 538.849 953.798 538.523 952.509 538.523C951.194 538.523 950.081 538.868 949.17 539.559C948.258 540.236 947.568 541.167 947.099 542.352C946.643 543.536 946.416 544.878 946.416 546.375C946.416 547.911 946.643 549.292 947.099 550.516C947.568 551.727 948.258 552.684 949.17 553.387C950.094 554.077 951.207 554.422 952.509 554.422ZM975.373 557.43C973.616 557.43 972.053 556.98 970.686 556.082C969.332 555.184 968.271 553.908 967.502 552.254C966.734 550.587 966.35 548.654 966.35 546.453C966.35 544.253 966.734 542.326 967.502 540.672C968.271 539.018 969.338 537.749 970.705 536.863C972.073 535.965 973.642 535.516 975.413 535.516C976.663 535.516 977.698 535.724 978.518 536.141C979.338 536.544 979.944 536.98 980.334 537.449C980.725 537.905 981.129 538.471 981.545 539.148H981.78V528.719H985.178V557H981.897V553.758H981.545C981.103 554.448 980.679 555.027 980.276 555.496C979.885 555.965 979.28 556.408 978.459 556.824C977.639 557.228 976.61 557.43 975.373 557.43ZM975.842 554.422C977.105 554.422 978.192 554.09 979.104 553.426C980.015 552.749 980.705 551.805 981.174 550.594C981.656 549.37 981.897 547.964 981.897 546.375C981.897 544.799 981.663 543.426 981.194 542.254C980.738 541.069 980.054 540.151 979.143 539.5C978.232 538.849 977.131 538.523 975.842 538.523C974.527 538.523 973.414 538.868 972.502 539.559C971.591 540.236 970.901 541.167 970.432 542.352C969.976 543.536 969.748 544.878 969.748 546.375C969.748 547.911 969.976 549.292 970.432 550.516C970.901 551.727 971.591 552.684 972.502 553.387C973.427 554.077 974.54 554.422 975.842 554.422ZM999.605 557.43C997.586 557.43 995.829 556.98 994.331 556.082C992.834 555.184 991.682 553.914 990.874 552.273C990.08 550.633 989.683 548.732 989.683 546.57C989.683 544.409 990.08 542.495 990.874 540.828C991.682 539.148 992.808 537.846 994.253 536.922C995.711 535.984 997.391 535.516 999.292 535.516C1000.89 535.516 1002.38 535.874 1003.76 536.59C1005.15 537.293 1006.26 538.439 1007.12 540.027C1008 541.603 1008.43 543.628 1008.43 546.102V547.508H993.042C993.094 548.979 993.4 550.236 993.96 551.277C994.52 552.319 995.282 553.113 996.245 553.66C997.222 554.194 998.342 554.461 999.605 554.461C1000.8 554.461 1001.81 554.24 1002.63 553.797C1003.47 553.341 1004.1 552.755 1004.53 552.039H1008.12C1007.78 553.107 1007.22 554.051 1006.42 554.871C1005.64 555.678 1004.66 556.31 1003.49 556.766C1002.33 557.208 1001.04 557.43 999.605 557.43ZM1005.03 544.656C1005.03 543.471 1004.79 542.417 1004.31 541.492C1003.84 540.555 1003.17 539.819 1002.3 539.285C1001.43 538.751 1000.43 538.484 999.292 538.484C998.107 538.484 997.053 538.764 996.128 539.324C995.217 539.884 994.494 540.639 993.96 541.59C993.439 542.527 993.14 543.549 993.062 544.656H1005.03ZM1012.51 535.789H1015.75V539.031H1015.98C1016.38 537.951 1017.07 537.085 1018.07 536.434C1019.08 535.77 1020.2 535.438 1021.45 535.438C1022.1 535.438 1022.69 535.464 1023.21 535.516V538.914C1023.07 538.862 1022.79 538.81 1022.37 538.758C1021.97 538.706 1021.57 538.68 1021.18 538.68C1020.18 538.68 1019.27 538.895 1018.46 539.324C1017.66 539.754 1017.02 540.346 1016.55 541.102C1016.1 541.857 1015.87 542.703 1015.87 543.641V557H1012.51V535.789Z" fill="white"/>
<rect x="761" y="629" width="400" height="85" rx="30" fill="#2C73FF"/>
<path d="M923.402 686H920.043L904.73 663.969H904.457V686H900.941V657.719H904.34L919.652 679.789H919.926V657.719H923.402V686ZM937.595 686.43C935.68 686.43 933.988 685.98 932.516 685.082C931.058 684.171 929.925 682.888 929.118 681.234C928.311 679.581 927.907 677.667 927.907 675.492C927.907 673.318 928.311 671.404 929.118 669.75C929.925 668.083 931.058 666.794 932.516 665.883C933.988 664.971 935.68 664.516 937.595 664.516C939.496 664.516 941.169 664.971 942.614 665.883C944.072 666.794 945.199 668.083 945.993 669.75C946.8 671.404 947.204 673.318 947.204 675.492C947.204 677.667 946.8 679.581 945.993 681.234C945.199 682.888 944.072 684.171 942.614 685.082C941.169 685.98 939.496 686.43 937.595 686.43ZM937.595 683.461C938.962 683.461 940.114 683.103 941.052 682.387C941.989 681.658 942.686 680.694 943.141 679.496C943.61 678.285 943.845 676.951 943.845 675.492C943.845 674.034 943.61 672.699 943.141 671.488C942.686 670.277 941.989 669.307 941.052 668.578C940.114 667.849 938.962 667.484 937.595 667.484C936.201 667.484 935.029 667.849 934.079 668.578C933.141 669.307 932.438 670.277 931.97 671.488C931.501 672.699 931.266 674.034 931.266 675.492C931.266 676.951 931.501 678.285 931.97 679.496C932.438 680.694 933.141 681.658 934.079 682.387C935.029 683.103 936.201 683.461 937.595 683.461ZM951.318 664.789H954.56V668.031H954.795C955.185 666.951 955.882 666.085 956.884 665.434C957.887 664.77 959.013 664.438 960.263 664.438C960.914 664.438 961.5 664.464 962.021 664.516V667.914C961.878 667.862 961.598 667.81 961.181 667.758C960.778 667.706 960.38 667.68 959.99 667.68C958.987 667.68 958.082 667.895 957.275 668.324C956.468 668.754 955.83 669.346 955.361 670.102C954.905 670.857 954.677 671.703 954.677 672.641V686H951.318V664.789ZM965.002 664.789H968.245V668.109H968.518C968.974 666.964 969.69 666.078 970.666 665.453C971.656 664.828 972.841 664.516 974.221 664.516C975.575 664.516 976.728 664.828 977.678 665.453C978.629 666.065 979.364 666.951 979.885 668.109H980.12C980.679 666.99 981.506 666.111 982.6 665.473C983.694 664.835 984.989 664.516 986.487 664.516C987.776 664.516 988.902 664.783 989.866 665.316C990.842 665.85 991.604 666.664 992.151 667.758C992.698 668.839 992.971 670.193 992.971 671.82V686H989.612V671.859C989.612 670.388 989.208 669.301 988.401 668.598C987.593 667.882 986.565 667.523 985.315 667.523C984.351 667.523 983.518 667.725 982.815 668.129C982.112 668.533 981.578 669.086 981.213 669.789C980.849 670.492 980.666 671.299 980.666 672.211V686H977.268V671.508C977.268 670.727 977.092 670.036 976.741 669.438C976.389 668.826 975.894 668.357 975.256 668.031C974.631 667.693 973.922 667.523 973.127 667.523C972.281 667.523 971.493 667.751 970.764 668.207C970.035 668.65 969.449 669.268 969.006 670.062C968.577 670.857 968.362 671.755 968.362 672.758V686H965.002V664.789ZM997.046 679.984C997.046 677.784 997.795 676.234 999.292 675.336C1000.8 674.438 1002.71 673.904 1005.01 673.734C1005.9 673.669 1006.89 673.611 1007.98 673.559C1009.09 673.493 1010.01 673.448 1010.76 673.422V671.703C1010.76 670.336 1010.35 669.288 1009.53 668.559C1008.72 667.816 1007.53 667.445 1005.95 667.445C1004.66 667.445 1003.61 667.712 1002.79 668.246C1001.97 668.767 1001.43 669.451 1001.19 670.297H997.671C997.814 669.164 998.257 668.161 998.999 667.289C999.741 666.417 1000.72 665.74 1001.95 665.258C1003.19 664.763 1004.57 664.516 1006.11 664.516C1008.14 664.516 1009.98 665.036 1011.62 666.078C1013.26 667.107 1014.08 669.086 1014.08 672.016V686H1010.76V683.109H1010.6C1010.34 683.656 1009.94 684.19 1009.39 684.711C1008.86 685.219 1008.15 685.648 1007.28 686C1006.42 686.339 1005.42 686.508 1004.27 686.508C1002.92 686.508 1001.69 686.247 1000.6 685.727C999.507 685.206 998.641 684.457 998.003 683.48C997.365 682.491 997.046 681.326 997.046 679.984ZM1000.41 680.141C1000.41 681.221 1000.81 682.055 1001.62 682.641C1002.44 683.214 1003.52 683.5 1004.86 683.5C1006.07 683.5 1007.12 683.259 1008 682.777C1008.9 682.296 1009.59 681.658 1010.05 680.863C1010.52 680.069 1010.76 679.216 1010.76 678.305V676.176C1010.44 676.189 1009.59 676.247 1008.18 676.352L1005.41 676.547C1003.82 676.651 1002.59 676.996 1001.71 677.582C1000.84 678.168 1000.41 679.021 1000.41 680.141ZM1022.53 686H1019.17V657.719H1022.53V686Z" fill="white"/>
<rect width="1920" height="100" fill="#BCD3FF"/>
<path d="M1826.87 66.6049C1828.08 67.9806 1829.62 69.091 1831.37 69.8524C1833.13 70.6137 1835.05 71.0061 1837 70.9999C1838.95 71.0061 1840.87 70.6137 1842.63 69.8524C1844.38 69.091 1845.92 67.9806 1847.13 66.6049C1840.41 67.4253 1833.59 67.4253 1826.87 66.6049ZM1855.75 38.5V40.26C1855.75 42.3725 1856.42 44.4375 1857.67 46.195L1860.75 50.5025C1863.56 54.4374 1861.41 59.7849 1856.53 61.0274C1843.76 64.2823 1830.24 64.2823 1817.47 61.0274C1812.59 59.7849 1810.44 54.4374 1813.25 50.5025L1816.33 46.195C1817.59 44.4234 1818.26 42.3634 1818.25 40.26V38.5C1818.25 28.835 1826.65 21 1837 21C1847.35 21 1855.75 28.835 1855.75 38.5Z" fill="white"/>
<path d="M816.108 196.299C815.31 193.633 813.898 191.559 811.87 190.078C809.864 188.574 807.381 187.822 804.418 187.822C801.73 187.822 799.348 188.506 797.275 189.873C795.201 191.217 793.583 193.2 792.421 195.82C791.259 198.441 790.678 201.562 790.678 205.186C790.678 208.877 791.259 212.044 792.421 214.688C793.583 217.308 795.213 219.302 797.309 220.669C799.405 222.013 801.843 222.686 804.623 222.686C807.084 222.686 809.238 222.218 811.083 221.284C812.929 220.327 814.365 218.983 815.39 217.251C816.415 215.496 816.951 213.457 816.996 211.133H805.512V204.092H825.61V210.039C825.61 214.209 824.71 217.855 822.91 220.977C821.132 224.076 818.66 226.468 815.493 228.154C812.325 229.84 808.702 230.684 804.623 230.684C800.089 230.684 796.09 229.658 792.626 227.607C789.163 225.534 786.474 222.583 784.56 218.755C782.669 214.927 781.723 210.426 781.723 205.254C781.723 200.081 782.691 195.581 784.628 191.753C786.588 187.902 789.277 184.951 792.695 182.9C796.135 180.85 800.021 179.824 804.35 179.824C807.95 179.824 811.243 180.519 814.228 181.909C817.213 183.299 819.663 185.247 821.577 187.754C823.491 190.238 824.698 193.086 825.2 196.299H816.108ZM831.257 219.541C831.257 215.713 832.544 212.956 835.119 211.27C837.717 209.561 841.032 208.581 845.066 208.33C849.008 208.057 852.175 207.874 854.568 207.783V204.844C854.568 202.998 853.987 201.574 852.824 200.571C851.662 199.546 850.01 199.033 847.868 199.033C845.977 199.033 844.428 199.432 843.22 200.229C842.012 201.027 841.238 202.109 840.896 203.477H832.488C832.693 201.357 833.445 199.466 834.743 197.803C836.042 196.117 837.831 194.795 840.11 193.838C842.388 192.881 845.043 192.402 848.073 192.402C850.671 192.402 853.109 192.812 855.388 193.633C857.689 194.43 859.569 195.786 861.028 197.7C862.509 199.591 863.249 202.087 863.249 205.186V230H854.909V224.873H854.636C853.724 226.605 852.357 228.018 850.534 229.111C848.711 230.205 846.433 230.752 843.698 230.752C841.306 230.752 839.164 230.319 837.273 229.453C835.404 228.587 833.934 227.311 832.863 225.625C831.793 223.939 831.257 221.911 831.257 219.541ZM839.665 219.473C839.665 221.045 840.235 222.253 841.374 223.096C842.514 223.916 844.04 224.326 845.954 224.326C847.663 224.326 849.179 223.984 850.5 223.301C851.822 222.617 852.836 221.694 853.542 220.532C854.271 219.347 854.636 218.06 854.636 216.67L854.602 213.628C853.576 213.674 851.833 213.776 849.372 213.936C848.051 214.004 847.071 214.072 846.433 214.141C844.291 214.323 842.627 214.858 841.443 215.747C840.258 216.636 839.665 217.878 839.665 219.473ZM871.152 192.881H879.492V199.17H879.971C880.723 197.051 881.987 195.399 883.765 194.214C885.565 193.006 887.695 192.402 890.156 192.402C892.663 192.402 894.782 192.995 896.514 194.18C898.245 195.365 899.476 197.028 900.205 199.17H900.615C901.436 197.096 902.826 195.456 904.785 194.248C906.768 193.018 909.092 192.402 911.758 192.402C914.036 192.402 916.042 192.892 917.773 193.872C919.528 194.829 920.884 196.265 921.841 198.179C922.821 200.07 923.311 202.36 923.311 205.049V230H914.629V206.416C914.629 204.206 914.036 202.542 912.852 201.426C911.689 200.286 910.163 199.717 908.271 199.717C906.152 199.717 904.489 200.378 903.281 201.699C902.096 202.998 901.504 204.707 901.504 206.826V230H893.027V206.074C893.027 204.821 892.754 203.716 892.207 202.759C891.683 201.779 890.942 201.027 889.985 200.503C889.051 199.979 887.969 199.717 886.738 199.717C885.485 199.717 884.334 200.047 883.286 200.708C882.261 201.346 881.44 202.257 880.825 203.442C880.21 204.604 879.902 205.938 879.902 207.441V230H871.152V192.881ZM947.825 230.752C944.134 230.752 940.921 229.977 938.186 228.428C935.475 226.855 933.39 224.634 931.931 221.763C930.496 218.892 929.778 215.531 929.778 211.68C929.778 207.874 930.507 204.525 931.966 201.631C933.424 198.714 935.475 196.447 938.118 194.829C940.784 193.211 943.86 192.402 947.346 192.402C950.491 192.402 953.339 193.075 955.891 194.419C958.466 195.763 960.506 197.848 962.01 200.674C963.536 203.477 964.3 206.963 964.3 211.133V213.867H938.391C938.414 215.941 938.824 217.741 939.622 219.268C940.419 220.771 941.525 221.922 942.937 222.72C944.35 223.517 946.002 223.916 947.893 223.916C949.739 223.916 951.311 223.563 952.61 222.856C953.909 222.15 954.843 221.227 955.413 220.088H963.958C963.434 222.23 962.443 224.11 960.984 225.728C959.526 227.323 957.669 228.564 955.413 229.453C953.18 230.319 950.651 230.752 947.825 230.752ZM955.96 207.92C955.937 206.234 955.572 204.73 954.866 203.408C954.16 202.087 953.168 201.05 951.892 200.298C950.616 199.546 949.147 199.17 947.483 199.17C945.774 199.17 944.248 199.569 942.903 200.366C941.582 201.141 940.533 202.201 939.759 203.545C938.984 204.867 938.54 206.325 938.426 207.92H955.96ZM1014.42 194.111C1014.22 192.015 1013.27 190.374 1011.59 189.189C1009.92 188.005 1007.75 187.412 1005.06 187.412C1003.23 187.412 1001.64 187.686 1000.27 188.232C998.905 188.779 997.857 189.543 997.127 190.522C996.398 191.502 996.034 192.607 996.034 193.838C996.034 195.729 996.82 197.199 998.392 198.247C999.964 199.272 1002 200.081 1004.51 200.674L1009.16 201.904C1013.42 202.884 1016.89 204.513 1019.58 206.792C1022.29 209.048 1023.65 212.158 1023.65 216.123C1023.65 219.017 1022.91 221.569 1021.43 223.779C1019.95 225.99 1017.79 227.71 1014.97 228.94C1012.17 230.148 1008.82 230.752 1004.92 230.752C1001.07 230.752 997.731 230.16 994.906 228.975C992.08 227.767 989.87 226.024 988.275 223.745C986.703 221.444 985.848 218.675 985.711 215.439H994.461C994.666 217.946 995.715 219.86 997.606 221.182C999.52 222.503 1001.94 223.164 1004.85 223.164C1006.79 223.164 1008.51 222.868 1010.01 222.275C1011.52 221.683 1012.68 220.851 1013.5 219.78C1014.34 218.687 1014.76 217.445 1014.76 216.055C1014.76 214.255 1014.01 212.853 1012.51 211.851C1011.03 210.825 1008.79 209.925 1005.81 209.15L1000.2 207.715C991.408 205.413 987.01 200.97 987.01 194.385C987.01 191.514 987.796 188.984 989.369 186.797C990.941 184.587 993.106 182.878 995.863 181.67C998.643 180.439 1001.75 179.824 1005.19 179.824C1008.66 179.824 1011.72 180.439 1014.39 181.67C1017.08 182.878 1019.16 184.564 1020.64 186.729C1022.15 188.893 1022.92 191.354 1022.97 194.111H1014.42ZM1048.85 199.58H1041.53V218.857C1041.53 220.498 1041.88 221.626 1042.56 222.241C1043.27 222.856 1044.25 223.164 1045.5 223.164C1046.59 223.164 1047.87 223.118 1049.33 223.027V230.137C1048.19 230.365 1046.55 230.479 1044.41 230.479C1042.15 230.479 1040.14 230.114 1038.39 229.385C1036.66 228.633 1035.29 227.493 1034.29 225.967C1033.31 224.44 1032.83 222.549 1032.85 220.293V199.58H1027.52V192.881H1032.85V183.994H1041.53V192.881H1048.85V199.58ZM1053.54 219.541C1053.54 215.713 1054.83 212.956 1057.4 211.27C1060 209.561 1063.31 208.581 1067.35 208.33C1071.29 208.057 1074.46 207.874 1076.85 207.783V204.844C1076.85 202.998 1076.27 201.574 1075.11 200.571C1073.94 199.546 1072.29 199.033 1070.15 199.033C1068.26 199.033 1066.71 199.432 1065.5 200.229C1064.29 201.027 1063.52 202.109 1063.18 203.477H1054.77C1054.97 201.357 1055.73 199.466 1057.03 197.803C1058.32 196.117 1060.11 194.795 1062.39 193.838C1064.67 192.881 1067.32 192.402 1070.36 192.402C1072.95 192.402 1075.39 192.812 1077.67 193.633C1079.97 194.43 1081.85 195.786 1083.31 197.7C1084.79 199.591 1085.53 202.087 1085.53 205.186V230H1077.19V224.873H1076.92C1076.01 226.605 1074.64 228.018 1072.82 229.111C1070.99 230.205 1068.71 230.752 1065.98 230.752C1063.59 230.752 1061.45 230.319 1059.55 229.453C1057.69 228.587 1056.22 227.311 1055.15 225.625C1054.07 223.939 1053.54 221.911 1053.54 219.541ZM1061.95 219.473C1061.95 221.045 1062.52 222.253 1063.66 223.096C1064.8 223.916 1066.32 224.326 1068.24 224.326C1069.95 224.326 1071.46 223.984 1072.78 223.301C1074.1 222.617 1075.12 221.694 1075.82 220.532C1076.55 219.347 1076.92 218.06 1076.92 216.67L1076.88 213.628C1075.86 213.674 1074.12 213.776 1071.65 213.936C1070.33 214.004 1069.35 214.072 1068.71 214.141C1066.57 214.323 1064.91 214.858 1063.72 215.747C1062.54 216.636 1061.95 217.878 1061.95 219.473ZM1093.43 192.881H1101.91V199.033H1102.32C1102.96 196.937 1104.11 195.296 1105.77 194.111C1107.44 192.926 1109.34 192.334 1111.48 192.334C1112.76 192.334 1113.81 192.402 1114.63 192.539V200.605C1114.24 200.469 1113.65 200.343 1112.85 200.229C1112.05 200.116 1111.3 200.059 1110.59 200.059C1109 200.059 1107.56 200.4 1106.29 201.084C1105.01 201.768 1104.01 202.725 1103.28 203.955C1102.55 205.186 1102.18 206.576 1102.18 208.125V230H1093.43V192.881ZM1140.1 199.58H1132.78V218.857C1132.78 220.498 1133.12 221.626 1133.81 222.241C1134.51 222.856 1135.49 223.164 1136.75 223.164C1137.84 223.164 1139.12 223.118 1140.58 223.027V230.137C1139.44 230.365 1137.8 230.479 1135.65 230.479C1133.4 230.479 1131.39 230.114 1129.64 229.385C1127.91 228.633 1126.54 227.493 1125.54 225.967C1124.56 224.44 1124.08 222.549 1124.1 220.293V199.58H1118.77V192.881H1124.1V183.994H1132.78V192.881H1140.1V199.58Z" fill="black"/>
<path d="M692.566 266.661C696.616 266.661 699.586 269.121 699.586 272.691C699.586 276.231 696.616 278.691 692.566 278.691C688.546 278.691 685.576 276.231 685.576 272.691C685.576 269.121 688.546 266.661 692.566 266.661ZM692.566 268.701C689.956 268.701 687.976 270.351 687.976 272.691C687.976 275.031 689.956 276.651 692.566 276.651C695.206 276.651 697.156 275.031 697.156 272.691C697.156 270.351 695.206 268.701 692.566 268.701ZM704.686 265.671H707.206V279.561H704.686V265.671ZM689.656 280.881H707.206V287.481H692.146V291.561H689.716V285.621H704.746V282.891H689.656V280.881ZM689.716 290.451H708.106V292.431H689.716V290.451ZM730.814 265.701H733.304V285.591H730.814V265.701ZM732.524 273.891H737.324V275.961H732.524V273.891ZM716.414 290.151H734.534V292.191H716.414V290.151ZM716.414 283.671H718.904V290.631H716.414V283.671ZM713.384 267.621H715.844V272.151H723.494V267.621H725.924V281.061H713.384V267.621ZM715.844 274.101V279.051H723.494V274.101H715.844ZM760.212 265.671H762.612V292.791H760.212V265.671ZM748.452 276.741H755.292V278.751H748.452V276.741ZM754.572 266.361H756.912V291.411H754.572V266.361ZM748.782 269.091H751.182C751.182 276.201 748.332 282.591 741.012 286.941L739.542 285.171C745.932 281.331 748.782 275.931 748.782 269.541V269.091ZM740.742 269.091H749.712V271.131H740.742V269.091ZM786.579 265.701H789.099V281.181H786.579V265.701ZM771.579 282.651H789.099V292.431H771.579V282.651ZM786.639 284.631H774.009V290.421H786.639V284.631ZM774.549 267.111C778.659 267.111 781.599 269.691 781.599 273.441C781.599 277.191 778.659 279.771 774.549 279.771C770.439 279.771 767.469 277.191 767.469 273.441C767.469 269.691 770.439 267.111 774.549 267.111ZM774.549 269.181C771.849 269.181 769.899 270.921 769.899 273.441C769.899 275.961 771.849 277.671 774.549 277.671C777.249 277.671 779.199 275.961 779.199 273.441C779.199 270.921 777.249 269.181 774.549 269.181ZM795.367 268.641H807.637V270.651H795.367V268.641ZM799.597 276.381H802.057V285.561H799.597V276.381ZM806.617 268.641H809.047V270.081C809.047 272.301 809.047 275.841 808.267 280.881L805.807 280.641C806.617 275.751 806.617 272.271 806.617 270.081V268.641ZM812.467 265.671H814.927V292.791H812.467V265.671ZM814.267 277.011H819.277V279.111H814.267V277.011ZM794.167 286.881L793.867 284.781C798.787 284.781 805.327 284.691 810.817 284.001L810.937 285.831C805.327 286.731 798.967 286.851 794.167 286.881ZM829.535 284.241H831.335C834.635 284.241 837.635 284.121 841.295 283.491L841.505 285.561C837.755 286.221 834.695 286.311 831.335 286.311H829.535V284.241ZM829.475 268.611H839.645V278.151H831.965V285.021H829.535V276.111H837.215V270.651H829.475V268.611ZM849.275 265.671H851.675V292.791H849.275V265.671ZM844.685 276.381H849.905V278.421H844.685V276.381ZM843.125 266.271H845.465V291.411H843.125V266.271ZM857.312 284.031H859.382C864.422 284.031 867.662 283.911 871.442 283.191L871.712 285.231C867.812 285.951 864.542 286.131 859.382 286.131H857.312V284.031ZM857.312 268.251H869.642V270.291H859.772V284.811H857.312V268.251ZM875.822 265.671H878.312V292.851H875.822V265.671ZM868.052 275.481H876.842V277.551H868.052V275.481ZM903.9 265.671H906.3V292.791H903.9V265.671ZM892.14 276.741H898.98V278.751H892.14V276.741ZM898.26 266.361H900.6V291.411H898.26V266.361ZM892.47 269.091H894.87C894.87 276.201 892.02 282.591 884.7 286.941L883.23 285.171C889.62 281.331 892.47 275.931 892.47 269.541V269.091ZM884.43 269.091H893.4V271.131H884.43V269.091ZM930.268 265.701H932.788V281.181H930.268V265.701ZM915.268 282.651H932.788V292.431H915.268V282.651ZM930.328 284.631H917.698V290.421H930.328V284.631ZM918.238 267.111C922.348 267.111 925.288 269.691 925.288 273.441C925.288 277.191 922.348 279.771 918.238 279.771C914.128 279.771 911.158 277.191 911.158 273.441C911.158 269.691 914.128 267.111 918.238 267.111ZM918.238 269.181C915.538 269.181 913.588 270.921 913.588 273.441C913.588 275.961 915.538 277.671 918.238 277.671C920.938 277.671 922.888 275.961 922.888 273.441C922.888 270.921 920.938 269.181 918.238 269.181ZM956.035 279.231H958.525V283.971H956.035V279.231ZM945.025 278.361H969.535V280.371H945.025V278.361ZM957.265 283.221C963.085 283.221 966.565 284.931 966.565 287.991C966.565 291.021 963.085 292.731 957.265 292.731C951.445 292.731 947.965 291.021 947.965 287.991C947.965 284.931 951.445 283.221 957.265 283.221ZM957.265 285.141C953.035 285.141 950.485 286.161 950.485 287.991C950.485 289.791 953.035 290.811 957.265 290.811C961.525 290.811 964.045 289.791 964.045 287.991C964.045 286.161 961.525 285.141 957.265 285.141ZM955.675 267.891H957.895V268.701C957.895 273.081 952.915 276.021 947.305 276.711L946.405 274.731C951.265 274.221 955.675 271.791 955.675 268.701V267.891ZM956.725 267.891H958.915V268.701C958.915 271.791 963.325 274.221 968.185 274.731L967.285 276.711C961.675 276.021 956.725 273.081 956.725 268.701V267.891ZM947.275 266.901H967.345V268.911H947.275V266.901ZM997.913 265.671H1000.4V292.791H997.913V265.671ZM999.803 276.801H1004.84V278.901H999.803V276.801ZM979.403 269.991H995.393V272.031H979.403V269.991ZM987.503 274.281C991.343 274.281 994.103 276.861 994.103 280.521C994.103 284.181 991.343 286.761 987.503 286.761C983.693 286.761 980.903 284.181 980.903 280.521C980.903 276.861 983.693 274.281 987.503 274.281ZM987.503 276.351C985.043 276.351 983.273 278.061 983.273 280.521C983.273 282.951 985.043 284.691 987.503 284.691C989.963 284.691 991.733 282.951 991.733 280.521C991.733 278.061 989.963 276.351 987.503 276.351ZM986.213 266.001H988.703V270.921H986.213V266.001ZM1027.01 276.471H1032.02V278.571H1027.01V276.471ZM1025.18 265.641H1027.7V292.791H1025.18V265.641ZM1007.9 268.311H1010.39V285.111H1007.9V268.311ZM1007.9 283.821H1010.06C1014.08 283.821 1018.19 283.551 1022.66 282.621L1022.96 284.691C1018.34 285.651 1014.17 285.921 1010.06 285.921H1007.9V283.821ZM1034.12 278.271H1058.72V280.161H1034.12V278.271ZM1037.03 282.351H1055.63V288.141H1039.58V291.321H1037.12V286.431H1053.2V284.121H1037.03V282.351ZM1037.12 290.661H1056.5V292.461H1037.12V290.661ZM1037.24 266.451H1055.54V272.091H1039.76V275.031H1037.3V270.411H1053.11V268.221H1037.24V266.451ZM1037.3 274.431H1056.05V276.231H1037.3V274.431ZM1082.54 272.061H1089.38V274.131H1082.54V272.061ZM1075.43 267.321H1077.44V270.651C1077.44 275.901 1074.5 280.281 1069.97 282.111L1068.68 280.131C1072.7 278.631 1075.43 274.791 1075.43 270.651V267.321ZM1075.91 267.321H1077.92V270.741C1077.92 274.521 1080.56 278.091 1084.49 279.531L1083.14 281.451C1078.82 279.771 1075.91 275.571 1075.91 270.741V267.321ZM1088.45 265.701H1090.94V285.981H1088.45V265.701ZM1073.51 290.151H1091.6V292.191H1073.51V290.151ZM1073.51 283.731H1076V291.111H1073.51V283.731ZM1097.08 278.631H1098.82C1103.08 278.631 1105.6 278.541 1108.63 277.941L1108.87 279.981C1105.75 280.581 1103.17 280.701 1098.82 280.701H1097.08V278.631ZM1097.08 267.651H1107.58V269.691H1099.48V279.741H1097.08V267.651ZM1098.73 273.051H1107.25V275.001H1098.73V273.051ZM1116.4 265.671H1118.77V282.111H1116.4V265.671ZM1112.02 272.751H1117.15V274.791H1112.02V272.751ZM1110.43 266.181H1112.77V281.961H1110.43V266.181ZM1100.59 283.551H1118.77V292.791H1116.31V285.591H1100.59V283.551ZM1123.18 270.291H1136.62V272.331H1123.18V270.291ZM1129.9 274.131C1133.29 274.131 1135.75 276.681 1135.75 280.341C1135.75 283.971 1133.29 286.521 1129.9 286.521C1126.54 286.521 1124.08 283.971 1124.08 280.341C1124.08 276.681 1126.54 274.131 1129.9 274.131ZM1129.9 276.261C1127.83 276.261 1126.33 277.941 1126.33 280.341C1126.33 282.741 1127.83 284.421 1129.9 284.421C1132 284.421 1133.53 282.741 1133.53 280.341C1133.53 277.941 1132 276.261 1129.9 276.261ZM1143.79 265.671H1146.19V292.791H1143.79V265.671ZM1139.47 277.071H1144.6V279.141H1139.47V277.071ZM1138 266.271H1140.34V291.471H1138V266.271ZM1128.7 266.451H1131.16V271.551H1128.7V266.451ZM1161.4 268.341H1163.56V269.481C1163.56 274.341 1158.4 277.911 1152.94 278.841L1151.98 276.861C1156.75 276.171 1161.4 273.051 1161.4 269.481V268.341ZM1162.03 268.341H1164.16V269.481C1164.16 273.051 1168.84 276.171 1173.58 276.861L1172.65 278.841C1167.16 277.911 1162.03 274.341 1162.03 269.481V268.341ZM1161.49 282.441H1163.95V292.791H1161.49V282.441ZM1150.54 281.121H1175.05V283.161H1150.54V281.121ZM1152.82 267.351H1172.68V269.361H1152.82V267.351ZM1188.52 275.361H1193.71V277.431H1188.52V275.361ZM1183.45 268.221H1185.4V273.381C1185.4 279.051 1183.03 284.541 1179.07 286.971L1177.51 285.081C1181.23 282.891 1183.45 278.031 1183.45 273.381V268.221ZM1183.93 268.221H1185.85V273.291C1185.85 277.641 1187.89 282.261 1191.46 284.421L1190.02 286.371C1186.12 283.971 1183.93 278.571 1183.93 273.291V268.221ZM1198.48 265.671H1200.88V292.791H1198.48V265.671ZM1192.99 266.241H1195.33V291.441H1192.99V266.241ZM1211.13 279.621H1213.59V287.751H1211.13V279.621ZM1221.15 279.621H1223.64V287.751H1221.15V279.621ZM1205.13 287.271H1229.7V289.341H1205.13V287.271ZM1217.37 267.381C1223.1 267.381 1227.21 270.111 1227.21 274.371C1227.21 278.601 1223.1 281.331 1217.37 281.331C1211.61 281.331 1207.5 278.601 1207.5 274.371C1207.5 270.111 1211.61 267.381 1217.37 267.381ZM1217.37 269.361C1213.02 269.361 1209.9 271.341 1209.9 274.371C1209.9 277.371 1213.02 279.351 1217.37 279.351C1221.72 279.351 1224.81 277.371 1224.81 274.371C1224.81 271.341 1221.72 269.361 1217.37 269.361ZM1234.23 290.871C1233.79 290.871 1233.41 290.711 1233.09 290.391C1232.77 290.071 1232.61 289.681 1232.61 289.221C1232.61 288.781 1232.77 288.401 1233.09 288.081C1233.41 287.761 1233.79 287.601 1234.23 287.601C1234.69 287.601 1235.07 287.761 1235.37 288.081C1235.69 288.401 1235.85 288.781 1235.85 289.221C1235.85 289.681 1235.69 290.071 1235.37 290.391C1235.05 290.711 1234.67 290.871 1234.23 290.871Z" fill="#B5B6BD"/>
<rect width="100" height="1080" fill="#2C73FF" fill-opacity="0.06"/>
<path d="M70.874 139.501C72.2087 140.836 73.2259 142.349 73.9258 144.042C74.6257 145.735 74.9837 147.533 75 149.438C75 150.007 74.9837 150.691 74.9512 151.488C74.9186 152.286 74.8535 153.148 74.7559 154.076C74.6582 155.004 74.5036 155.956 74.292 156.933C74.0804 157.909 73.8118 158.878 73.4863 159.838C72.998 161.238 72.4284 162.377 71.7773 163.256C71.1263 164.135 70.4508 164.826 69.751 165.331C69.0511 165.836 68.3431 166.177 67.627 166.356C66.9108 166.535 66.2435 166.625 65.625 166.625C65.0879 166.625 64.5996 166.535 64.1602 166.356C63.7207 166.177 63.2975 165.933 62.8906 165.624C62.4837 165.315 62.1094 164.981 61.7676 164.623C61.4258 164.265 61.0758 163.874 60.7178 163.451C60.376 163.061 60.0423 162.686 59.7168 162.328C59.3913 161.97 59.0413 161.653 58.667 161.376C58.2926 161.099 57.9183 160.863 57.5439 160.668C57.1696 160.473 56.7301 160.375 56.2256 160.375H43.7744C43.3024 160.391 42.8711 160.489 42.4805 160.668C42.0898 160.847 41.7074 161.075 41.333 161.352C40.9587 161.628 40.6169 161.954 40.3076 162.328C39.9984 162.702 39.6566 163.077 39.2822 163.451C38.9404 163.842 38.5986 164.224 38.2568 164.599C37.915 164.973 37.5407 165.315 37.1338 165.624C36.7269 165.933 36.3037 166.169 35.8643 166.332C35.4248 166.495 34.9284 166.592 34.375 166.625C33.7565 166.625 33.0892 166.535 32.373 166.356C31.6569 166.177 30.9489 165.844 30.249 165.355C29.5492 164.867 28.8737 164.175 28.2227 163.28C27.5716 162.385 27.002 161.238 26.5137 159.838C26.1882 158.894 25.9277 157.934 25.7324 156.957C25.5371 155.98 25.3825 155.02 25.2686 154.076C25.1546 153.132 25.0814 152.27 25.0488 151.488C25.0163 150.707 25 150.023 25 149.438C25 147.549 25.3499 145.759 26.0498 144.066C26.7497 142.374 27.7751 140.852 29.126 139.501C30.4443 138.166 31.958 137.149 33.667 136.449C35.376 135.749 37.1745 135.391 39.0625 135.375H60.9375C62.8255 135.375 64.6159 135.725 66.3086 136.425C68.0013 137.125 69.5231 138.15 70.874 139.501ZM70.5322 158.812C70.8415 157.95 71.0856 157.055 71.2646 156.127C71.4437 155.199 71.5739 154.312 71.6553 153.466C71.7367 152.619 71.7936 151.838 71.8262 151.122C71.8587 150.406 71.875 149.844 71.875 149.438C71.875 147.924 71.5902 146.508 71.0205 145.189C70.4508 143.871 69.6696 142.715 68.6768 141.723C67.6839 140.73 66.5283 139.949 65.21 139.379C63.8916 138.809 62.4674 138.516 60.9375 138.5H39.0625C37.5488 138.5 36.1328 138.785 34.8145 139.354C33.4961 139.924 32.3405 140.705 31.3477 141.698C30.3548 142.691 29.5736 143.847 29.0039 145.165C28.4342 146.483 28.1413 147.908 28.125 149.438C28.125 149.861 28.1331 150.422 28.1494 151.122C28.1657 151.822 28.2227 152.595 28.3203 153.441C28.418 154.288 28.5563 155.183 28.7354 156.127C28.9144 157.071 29.1585 157.966 29.4678 158.812C29.8747 159.984 30.3223 160.888 30.8105 161.522C31.2988 162.157 31.7708 162.621 32.2266 162.914C32.6823 163.207 33.1055 163.378 33.4961 163.427C33.8867 163.476 34.1797 163.5 34.375 163.5C34.7331 163.5 35.1237 163.288 35.5469 162.865C35.9701 162.442 36.4258 161.954 36.9141 161.4C37.3047 160.945 37.7197 160.481 38.1592 160.009C38.5986 159.537 39.0951 159.097 39.6484 158.69C40.2018 158.284 40.8122 157.95 41.4795 157.689C42.1468 157.429 42.8874 157.283 43.7012 157.25H56.2988C57.1126 157.283 57.8532 157.429 58.5205 157.689C59.1878 157.95 59.79 158.275 60.3271 158.666C60.8643 159.057 61.3607 159.496 61.8164 159.984C62.2721 160.473 62.6953 160.945 63.0859 161.4C63.5579 161.938 64.0055 162.418 64.4287 162.841C64.8519 163.264 65.2507 163.484 65.625 163.5C65.8203 163.5 66.1051 163.476 66.4795 163.427C66.8538 163.378 67.277 163.207 67.749 162.914C68.221 162.621 68.7012 162.157 69.1895 161.522C69.6777 160.888 70.1253 159.984 70.5322 158.812ZM37.5 147.875H40.625V151H37.5V154.125H34.375V151H31.25V147.875H34.375V144.75H37.5V147.875ZM65.625 151C66.0645 151 66.4714 151.081 66.8457 151.244C67.2201 151.407 67.5456 151.627 67.8223 151.903C68.099 152.18 68.3268 152.514 68.5059 152.904C68.6849 153.295 68.7663 153.702 68.75 154.125C68.75 154.564 68.6686 154.971 68.5059 155.346C68.3431 155.72 68.1234 156.046 67.8467 156.322C67.57 156.599 67.2363 156.827 66.8457 157.006C66.4551 157.185 66.0482 157.266 65.625 157.25C65.1855 157.25 64.7786 157.169 64.4043 157.006C64.0299 156.843 63.7044 156.623 63.4277 156.347C63.151 156.07 62.9232 155.736 62.7441 155.346C62.5651 154.955 62.4837 154.548 62.5 154.125C62.5 153.686 62.5814 153.279 62.7441 152.904C62.9069 152.53 63.1266 152.204 63.4033 151.928C63.68 151.651 64.0137 151.423 64.4043 151.244C64.7949 151.065 65.2018 150.984 65.625 151ZM59.375 144.75C59.8145 144.75 60.2214 144.831 60.5957 144.994C60.9701 145.157 61.2956 145.377 61.5723 145.653C61.849 145.93 62.0768 146.264 62.2559 146.654C62.4349 147.045 62.5163 147.452 62.5 147.875C62.5 148.314 62.4186 148.721 62.2559 149.096C62.0931 149.47 61.8734 149.796 61.5967 150.072C61.32 150.349 60.9863 150.577 60.5957 150.756C60.2051 150.935 59.7982 151.016 59.375 151C58.9355 151 58.5286 150.919 58.1543 150.756C57.7799 150.593 57.4544 150.373 57.1777 150.097C56.901 149.82 56.6732 149.486 56.4941 149.096C56.3151 148.705 56.2337 148.298 56.25 147.875C56.25 147.436 56.3314 147.029 56.4941 146.654C56.6569 146.28 56.8766 145.954 57.1533 145.678C57.43 145.401 57.7637 145.173 58.1543 144.994C58.5449 144.815 58.9518 144.734 59.375 144.75Z" fill="#1F2021"/>
<path d="M39.5 256.611V239.389H30C27.25 239.389 25 241.889 25 244.944V261.611C25 264.667 27.25 267.167 30 267.167H32.5V275.5L40 267.167H52.5C55.25 267.167 57.5 264.667 57.5 261.611V256.556C57.3357 256.595 57.1681 256.614 57 256.614H39.5V256.611ZM70 225.5H47.5C44.75 225.5 42.5 228 42.5 231.056V253.278H60L67.5 261.611V253.278H70C72.75 253.278 75 250.781 75 247.722V231.056C75 228 72.75 225.5 70 225.5Z" fill="#F7F8FA"/>
<path d="M25 266C25 262.463 25 260.695 26.1 259.6C27.1975 258.5 28.965 258.5 32.5 258.5C36.0375 258.5 37.805 258.5 38.9 259.6C40 260.698 40 262.465 40 266V243.5C40 239.963 40 238.195 41.1 237.1C42.1975 236 43.965 236 47.5 236H52.5C56.0375 236 57.805 236 58.9 237.1C60 238.197 60 239.965 60 243.5V266V258.5C60 254.963 60 253.195 61.1 252.1C62.1975 251 63.965 251 67.5 251C71.0375 251 72.805 251 73.9 252.1C75 253.198 75 254.965 75 258.5V266" stroke="#1F2021" stroke-width="3.75" stroke-linecap="round"/>
<path d="M47.8657 218.558C48.8157 216.85 49.2907 216 50.0007 216C50.7107 216 51.1857 216.85 52.1357 218.558L52.3807 218.997C52.6507 219.482 52.7857 219.722 52.9957 219.882C53.2082 220.042 53.4707 220.102 53.9957 220.22L54.4707 220.33C56.3157 220.748 57.2382 220.955 57.4582 221.66C57.6782 222.367 57.0482 223.102 55.7907 224.572L55.4657 224.952C55.1082 225.37 54.9282 225.577 54.8482 225.837C54.7682 226.097 54.7957 226.375 54.8482 226.933L54.8982 227.44C55.0882 229.403 55.1832 230.385 54.6107 230.82C54.0357 231.257 53.1707 230.857 51.4432 230.062L50.9982 229.858C50.5057 229.633 50.2607 229.518 50.0007 229.518C49.7407 229.518 49.4957 229.633 49.0032 229.858L48.5582 230.062C46.8307 230.857 45.9657 231.257 45.3907 230.82C44.8157 230.385 44.9132 229.403 45.1032 227.44L45.1532 226.933C45.2057 226.375 45.2332 226.097 45.1532 225.837C45.0732 225.58 44.8932 225.37 44.5357 224.952L44.2107 224.572C42.9532 223.102 42.3232 222.367 42.5432 221.66C42.7632 220.955 43.6857 220.748 45.5307 220.33L46.0057 220.22C46.5307 220.102 46.7932 220.045 47.0057 219.882C47.2157 219.722 47.3507 219.482 47.6207 218.997L47.8657 218.558Z" stroke="#1F2021" stroke-width="3.75"/>
<path d="M35.418 444.5V452.346L38.5742 450.452L48.4951 444.5H58.3346C60.6326 444.5 62.5013 442.631 62.5013 440.333V423.667C62.5013 421.369 60.6326 419.5 58.3346 419.5H33.3346C31.0367 419.5 29.168 421.369 29.168 423.667V440.333C29.168 442.631 31.0367 444.5 33.3346 444.5H35.418ZM33.3346 423.667H58.3346V440.333H47.3409L39.5846 444.987V440.333H33.3346V423.667Z" fill="black"/>
<path d="M66.6667 411.167H41.6667C39.3687 411.167 37.5 413.036 37.5 415.334H62.5C64.7979 415.334 66.6667 417.202 66.6667 419.5V436.167C68.9646 436.167 70.8333 434.298 70.8333 432V415.334C70.8333 413.036 68.9646 411.167 66.6667 411.167Z" fill="black"/>
<g clip-path="url(#clip0_201_6633)">
<path d="M49.9832 520.432C51.4605 520.433 52.9234 520.142 54.2883 519.576C55.6533 519.011 56.8934 518.182 57.9381 517.137C58.9828 516.093 59.8114 514.853 60.3768 513.488C60.9422 512.123 61.2332 510.66 61.2332 509.183C61.2332 507.705 60.9422 506.242 60.3768 504.877C59.8114 503.512 58.9828 502.272 57.9381 501.228C56.8934 500.183 55.6533 499.354 54.2883 498.789C52.9234 498.223 51.4605 497.933 49.9832 497.933C46.9995 497.933 44.138 499.118 42.0282 501.228C39.9184 503.337 38.7332 506.199 38.7332 509.183C38.7332 512.166 39.9184 515.028 42.0282 517.137C44.138 519.247 46.9995 520.432 49.9832 520.432ZM50.0007 494C53.2937 493.999 56.4955 495.082 59.1122 497.081C61.7289 499.08 63.615 501.885 64.4795 505.062C65.3439 508.24 65.1387 511.613 63.8956 514.663C62.6524 517.712 60.4403 520.268 57.6007 521.935C66.8207 524.71 73.7457 532.48 74.9882 542.13C75.1057 543.048 74.4232 543.88 73.4632 543.993C72.5057 544.105 71.6307 543.455 71.5132 542.538C70.1632 532.063 61.0907 524.175 50.0882 524.175C39.0257 524.175 29.8357 532.078 28.4882 542.538C28.3707 543.455 27.4957 544.105 26.5382 543.993C25.5782 543.88 24.8957 543.048 25.0132 542.13C26.2532 532.52 33.2157 524.76 42.4507 521.96C39.6024 520.3 37.3802 517.748 36.1278 514.699C34.8753 511.649 34.6623 508.272 35.5217 505.09C36.3811 501.907 38.265 499.096 40.8822 497.092C43.4994 495.087 46.704 494.001 50.0007 494Z" fill="black"/>
</g>
<path d="M811.928 31.75C816.495 31.75 819.795 32.85 821.828 35.05C823.895 37.25 824.495 40.3833 823.628 44.45C823.195 46.4833 822.478 48.3167 821.478 49.95C820.511 51.55 819.278 52.9167 817.778 54.05C816.311 55.1833 814.611 56.0667 812.678 56.7C810.778 57.3 808.678 57.6 806.378 57.6H796.978L794.178 71H785.428L793.728 31.75H811.928ZM807.428 50.85C809.428 50.85 811.078 50.2833 812.378 49.15C813.678 47.9833 814.511 46.5 814.878 44.7C815.278 42.9 815.078 41.4167 814.278 40.25C813.478 39.0833 812.078 38.5 810.078 38.5H801.078L798.428 50.85H807.428ZM858.076 51.35C858.542 49.1833 858.659 47.25 858.426 45.55C858.226 43.85 857.726 42.4333 856.926 41.3C856.159 40.1333 855.126 39.25 853.826 38.65C852.559 38.05 851.076 37.75 849.376 37.75C847.676 37.75 846.042 38.05 844.476 38.65C842.942 39.25 841.542 40.1333 840.276 41.3C839.009 42.4333 837.909 43.85 836.976 45.55C836.042 47.25 835.342 49.1833 834.876 51.35C834.409 53.5167 834.276 55.45 834.476 57.15C834.709 58.85 835.209 60.2833 835.976 61.45C836.776 62.6167 837.809 63.5 839.076 64.1C840.376 64.7 841.876 65 843.576 65C847.176 65 850.259 63.8167 852.826 61.45C855.392 59.0833 857.142 55.7167 858.076 51.35ZM866.826 51.35C866.159 54.55 865.109 57.4167 863.676 59.95C862.276 62.4833 860.526 64.6333 858.426 66.4C856.359 68.1333 853.959 69.4667 851.226 70.4C848.492 71.3 845.476 71.75 842.176 71.75C839.242 71.75 836.626 71.2667 834.326 70.3C832.059 69.3 830.209 67.9167 828.776 66.15C827.342 64.35 826.376 62.2 825.876 59.7C825.376 57.2 825.459 54.4167 826.126 51.35C826.826 48.15 827.876 45.3 829.276 42.8C830.709 40.2667 832.459 38.1333 834.526 36.4C836.626 34.6333 839.042 33.3 841.776 32.4C844.509 31.4667 847.526 31 850.826 31C853.892 31 856.559 31.4833 858.826 32.45C861.126 33.3833 862.976 34.75 864.376 36.55C865.776 38.3167 866.692 40.45 867.126 42.95C867.559 45.45 867.459 48.25 866.826 51.35ZM896.067 57.35L901.467 31.75H910.167L901.867 71H895.117L883.367 47.85L882.717 45.4L877.317 71H868.617L876.917 31.75H883.667L895.417 54.9L896.067 57.35ZM952.001 51.95C951.368 55.0167 950.368 57.7667 949.001 60.2C947.668 62.6333 945.985 64.7167 943.951 66.45C941.951 68.15 939.585 69.4667 936.851 70.4C934.151 71.3 931.135 71.75 927.801 71.75C924.801 71.75 922.151 71.2833 919.851 70.35C917.585 69.4167 915.751 68.0833 914.351 66.35C912.951 64.6167 912.018 62.4833 911.551 59.95C911.118 57.4167 911.251 54.55 911.951 51.35C912.651 48.15 913.751 45.2833 915.251 42.75C916.751 40.2167 918.568 38.0833 920.701 36.35C922.868 34.6167 925.285 33.3 927.951 32.4C930.618 31.4667 933.468 31 936.501 31C939.035 31 941.318 31.3167 943.351 31.95C945.385 32.5833 947.118 33.5167 948.551 34.75C949.985 35.95 951.085 37.4333 951.851 39.2C952.618 40.9667 953.001 42.9667 953.001 45.2H944.151C943.951 42.7667 943.051 40.9167 941.451 39.65C939.885 38.3833 937.751 37.75 935.051 37.75C933.385 37.75 931.785 38.0667 930.251 38.7C928.751 39.3 927.368 40.1833 926.101 41.35C924.835 42.4833 923.735 43.9 922.801 45.6C921.868 47.3 921.168 49.2167 920.701 51.35C920.235 53.5167 920.101 55.45 920.301 57.15C920.501 58.8167 920.968 60.2333 921.701 61.4C922.468 62.5667 923.485 63.4667 924.751 64.1C926.051 64.7 927.551 65 929.251 65C931.118 65 932.785 64.7667 934.251 64.3C935.718 63.8333 936.985 63.1833 938.051 62.35C939.151 61.4833 940.068 60.4667 940.801 59.3C941.535 58.1333 942.118 56.8667 942.551 55.5H930.251L931.651 49H952.651L952.001 51.95ZM1010.58 51.95C1009.95 55.0167 1008.95 57.7667 1007.58 60.2C1006.25 62.6333 1004.56 64.7167 1002.53 66.45C1000.53 68.15 998.164 69.4667 995.431 70.4C992.731 71.3 989.714 71.75 986.381 71.75C983.381 71.75 980.731 71.2833 978.431 70.35C976.164 69.4167 974.331 68.0833 972.931 66.35C971.531 64.6167 970.598 62.4833 970.131 59.95C969.698 57.4167 969.831 54.55 970.531 51.35C971.231 48.15 972.331 45.2833 973.831 42.75C975.331 40.2167 977.148 38.0833 979.281 36.35C981.448 34.6167 983.864 33.3 986.531 32.4C989.198 31.4667 992.048 31 995.081 31C997.614 31 999.898 31.3167 1001.93 31.95C1003.96 32.5833 1005.7 33.5167 1007.13 34.75C1008.56 35.95 1009.66 37.4333 1010.43 39.2C1011.2 40.9667 1011.58 42.9667 1011.58 45.2H1002.73C1002.53 42.7667 1001.63 40.9167 1000.03 39.65C998.464 38.3833 996.331 37.75 993.631 37.75C991.964 37.75 990.364 38.0667 988.831 38.7C987.331 39.3 985.948 40.1833 984.681 41.35C983.414 42.4833 982.314 43.9 981.381 45.6C980.448 47.3 979.748 49.2167 979.281 51.35C978.814 53.5167 978.681 55.45 978.881 57.15C979.081 58.8167 979.548 60.2333 980.281 61.4C981.048 62.5667 982.064 63.4667 983.331 64.1C984.631 64.7 986.131 65 987.831 65C989.698 65 991.364 64.7667 992.831 64.3C994.298 63.8333 995.564 63.1833 996.631 62.35C997.731 61.4833 998.648 60.4667 999.381 59.3C1000.11 58.1333 1000.7 56.8667 1001.13 55.5H988.831L990.231 49H1011.23L1010.58 51.95ZM1035.88 62.8H1020.78L1016.28 71H1007.53L1030.43 31.75H1039.43L1045.73 71H1036.98L1035.88 62.8ZM1031.98 42.6L1024.48 56.15H1035.03L1033.28 42.6L1033.13 40.3L1031.98 42.6ZM1063.89 47.7L1063.74 44.65L1058.14 71H1049.44L1057.74 31.75H1067.69L1072.34 54.3L1072.54 57.15L1073.94 54.3L1088.19 31.75H1098.14L1089.84 71H1081.14L1086.74 44.65L1085.29 47.7L1073.49 66.8H1067.49L1063.89 47.7ZM1104.85 31.75H1135.05L1133.65 38.5H1112.2L1110.2 47.8H1130.65L1129.25 54.5H1108.8L1106.7 64.25H1128.65L1127.25 71H1096.55L1104.85 31.75Z" fill="url(#paint0_linear_201_6633)"/>
<path d="M36.875 326.125C30.6875 326.125 25.625 331.188 25.625 337.375C25.625 341.095 27.4569 344.406 30.2544 346.458C25.31 348.91 21.875 353.995 21.875 359.875H25.625C25.625 353.642 30.6425 348.625 36.875 348.625C43.1075 348.625 48.125 353.642 48.125 359.875H51.875C51.875 353.642 56.8925 348.625 63.125 348.625C69.3575 348.625 74.375 353.642 74.375 359.875H78.125C78.125 353.993 74.69 348.91 69.7456 346.458C71.1772 345.414 72.3425 344.048 73.1469 342.47C73.9513 340.892 74.372 339.146 74.375 337.375C74.375 331.188 69.3125 326.125 63.125 326.125C56.9375 326.125 51.875 331.188 51.875 337.375C51.875 341.095 53.7069 344.406 56.5044 346.458C53.7649 347.804 51.4973 349.949 50 352.609C48.5027 349.949 46.2351 347.804 43.4956 346.458C44.9272 345.414 46.0925 344.048 46.8969 342.47C47.7013 340.892 48.122 339.146 48.125 337.375C48.125 331.188 43.0625 326.125 36.875 326.125ZM36.875 329.875C41.0431 329.875 44.375 333.207 44.375 337.375C44.375 341.543 41.0431 344.875 36.875 344.875C32.7069 344.875 29.375 341.543 29.375 337.375C29.375 333.207 32.7069 329.875 36.875 329.875ZM63.125 329.875C67.2931 329.875 70.625 333.207 70.625 337.375C70.625 341.543 67.2931 344.875 63.125 344.875C58.9569 344.875 55.625 341.543 55.625 337.375C55.625 333.207 58.9569 329.875 63.125 329.875Z" fill="black"/>
<circle cx="973" cy="803" r="10" fill="#D9D9D9"/>
<circle cx="937" cy="803" r="12" fill="#2C73FF"/>
<g clip-path="url(#clip1_201_6633)">
<path d="M48.1875 1003V1024.88H51.3125V1003H48.1875Z" fill="black"/>
<path d="M34.1261 1027.41C34.1254 1024.62 34.8722 1021.88 36.289 1019.48C37.7058 1017.07 39.7408 1015.09 42.1824 1013.74L40.6668 1011.01C37.0434 1013.02 34.1864 1016.17 32.5417 1019.97C30.897 1023.77 30.5572 1028.01 31.5754 1032.02C32.5936 1036.04 34.9124 1039.6 38.1699 1042.16C41.4274 1044.72 45.4401 1046.12 49.5818 1046.16C53.7234 1046.2 57.7608 1044.86 61.0637 1042.36C64.3665 1039.87 66.7489 1036.34 67.839 1032.35C68.9291 1028.35 68.6654 1024.11 67.0892 1020.28C65.513 1016.45 62.7129 1013.25 59.1261 1011.18L57.5605 1013.88C59.9362 1015.25 61.9092 1017.22 63.2811 1019.6C64.6531 1021.97 65.3756 1024.67 65.3761 1027.41C65.3766 1030.15 64.6551 1032.85 63.2841 1035.22C61.913 1037.6 59.9408 1039.57 57.5656 1040.94C55.1904 1042.31 52.4959 1043.04 49.7531 1043.04C47.0102 1043.04 44.3155 1042.32 41.94 1040.94C39.5645 1039.57 37.5917 1037.6 36.2201 1035.23C34.8485 1032.85 34.1263 1030.16 34.1261 1027.41Z" fill="black"/>
</g>
<defs>
<linearGradient id="paint0_linear_201_6633" x1="960" y1="0" x2="960" y2="100" gradientUnits="userSpaceOnUse">
<stop offset="0.145833" stop-color="#245DCC"/>
<stop offset="1" stop-color="#9C38FF" stop-opacity="0.42"/>
</linearGradient>
<clipPath id="clip0_201_6633">
<rect width="50" height="50" fill="white" transform="translate(25 494)"/>
</clipPath>
<clipPath id="clip1_201_6633">
<rect width="50" height="50" fill="white" transform="translate(25 996)"/>
</clipPath>
</defs>
</svg>
