<svg width="393" height="852" viewBox="0 0 393 852" fill="none" xmlns="http://www.w3.org/2000/svg">
<rect width="393" height="852" fill="#2D2D2D"/>
<rect y="769" width="393" height="83" fill="#3F3F3F"/>
<path d="M40 794L49 787L58 794V805C58 805.53 57.7893 806.039 57.4142 806.414C57.0391 806.789 56.5304 807 56 807H42C41.4696 807 40.9609 806.789 40.5858 806.414C40.2107 806.039 40 805.53 40 805V794Z" stroke="white" stroke-width="2" stroke-linecap="round" stroke-linejoin="round"/>
<path d="M46 807V797H52V807" stroke="white" stroke-width="2" stroke-linecap="round" stroke-linejoin="round"/>
<path d="M127 806V804C127 802.939 126.579 801.922 125.828 801.172C125.078 800.421 124.061 800 123 800H115C113.939 800 112.922 800.421 112.172 801.172C111.421 801.922 111 802.939 111 804V806" stroke="white" stroke-width="2" stroke-linecap="round" stroke-linejoin="round"/>
<path d="M119 796C121.209 796 123 794.209 123 792C123 789.791 121.209 788 119 788C116.791 788 115 789.791 115 792C115 794.209 116.791 796 119 796Z" stroke="white" stroke-width="2" stroke-linecap="round" stroke-linejoin="round"/>
<path d="M133 806V804C132.999 803.114 132.704 802.253 132.161 801.552C131.618 800.852 130.858 800.352 130 800.13" stroke="white" stroke-width="2" stroke-linecap="round" stroke-linejoin="round"/>
<path d="M126 788.13C126.86 788.35 127.623 788.851 128.168 789.552C128.712 790.254 129.008 791.117 129.008 792.005C129.008 792.893 128.712 793.756 128.168 794.458C127.623 795.159 126.86 795.66 126 795.88" stroke="white" stroke-width="2" stroke-linecap="round" stroke-linejoin="round"/>
<path d="M204 796.5C204.003 797.82 203.695 799.122 203.1 800.3C202.394 801.712 201.31 802.899 199.967 803.729C198.625 804.559 197.078 804.999 195.5 805C194.18 805.003 192.878 804.695 191.7 804.1L186 806L187.9 800.3C187.305 799.122 186.997 797.82 187 796.5C187.001 794.922 187.441 793.375 188.271 792.033C189.101 790.69 190.288 789.606 191.7 788.9C192.878 788.305 194.18 787.997 195.5 788H196C198.084 788.115 200.053 788.995 201.529 790.471C203.005 791.947 203.885 793.916 204 796V796.5Z" stroke="white" stroke-width="2" stroke-linecap="round" stroke-linejoin="round"/>
<path d="M278 787H260V803H265V807L269 803H274L278 799V787ZM268 796V792V796ZM273 796V792V796Z" fill="white"/>
<path d="M268 796V792M273 796V792M278 787H260V803H265V807L269 803H274L278 799V787Z" stroke="#3F3F3F" stroke-width="2" stroke-linecap="round" stroke-linejoin="round"/>
<path d="M278 787H260V803H265V807L269 803H274L278 799V787Z" stroke="white" stroke-width="2" stroke-linecap="round" stroke-linejoin="round"/>
<path d="M349 793C349 791.409 348.368 789.883 347.243 788.757C346.117 787.632 344.591 787 343 787C341.409 787 339.883 787.632 338.757 788.757C337.632 789.883 337 791.409 337 793C337 800 334 802 334 802H352C352 802 349 800 349 793Z" stroke="white" stroke-width="2" stroke-linecap="round" stroke-linejoin="round"/>
<path d="M344.73 806C344.554 806.303 344.302 806.555 343.998 806.73C343.695 806.904 343.35 806.996 343 806.996C342.65 806.996 342.305 806.904 342.002 806.73C341.698 806.555 341.446 806.303 341.27 806" stroke="white" stroke-width="2" stroke-linecap="round" stroke-linejoin="round"/>
<path d="M357 90.5C357.003 91.8199 356.695 93.1219 356.1 94.3C355.394 95.7117 354.31 96.8992 352.967 97.7293C351.625 98.5594 350.078 98.9994 348.5 99C347.18 99.0034 345.878 98.6951 344.7 98.1L339 100L340.9 94.3C340.305 93.1219 339.997 91.8199 340 90.5C340.001 88.9218 340.441 87.3748 341.271 86.0325C342.101 84.6902 343.288 83.6056 344.7 82.9C345.878 82.3049 347.18 81.9966 348.5 82H349C351.084 82.115 353.053 82.9948 354.529 84.4709C356.005 85.947 356.885 87.9157 357 90V90.5Z" stroke="white" stroke-width="2" stroke-linecap="round" stroke-linejoin="round"/>
<path d="M363.5 81.6091V88.6091" stroke="white" stroke-width="2" stroke-linecap="round" stroke-linejoin="round"/>
<path d="M360 85.1091H367" stroke="white" stroke-width="2" stroke-linecap="round" stroke-linejoin="round"/>
<rect x="21" y="260" width="353" height="48" rx="20" fill="#424242"/>
<rect x="20" y="196" width="353" height="48" rx="20" fill="#424242"/>
<path d="M83.8652 277.062V290.304H82.3125V277.062H83.8652ZM72.3369 286.349C75.0762 284.73 76.3359 282.657 76.585 279.991H73.0107V278.673H78.1963C78.1963 279.955 78.0352 281.156 77.6763 282.276H79.5146V277.384H81.0527V289.674H79.5146V283.58H77.1416C76.3726 285.096 75.1274 286.422 73.2598 287.506L72.3369 286.349ZM96.4336 277.076V284.576H94.793V277.076H96.4336ZM85.6377 280.87C85.6377 279.002 87.1611 277.713 89.2119 277.706C91.2554 277.713 92.7788 279.002 92.7715 280.87C92.7788 282.694 91.2554 284.005 89.2119 284.005C87.1611 284.005 85.6377 282.694 85.6377 280.87ZM87.2344 280.87C87.2271 281.939 88.0547 282.635 89.2119 282.628C90.3472 282.635 91.1748 281.939 91.1748 280.87C91.1748 279.771 90.3472 279.083 89.2119 279.083C88.0547 279.083 87.2271 279.771 87.2344 280.87ZM87.6445 290.143V285.221H96.4336V290.143H87.6445ZM89.2559 288.824H94.8369V286.51H89.2559V288.824ZM108.738 277.062V282.335H110.774V283.683H108.738V290.304H107.127V277.062H108.738ZM98.2939 280.401V279.098H101.429V277.252H103.055V279.098H106.102V280.401H98.2939ZM98.9092 284.386C98.8945 282.555 100.315 281.258 102.249 281.266C104.153 281.258 105.567 282.555 105.574 284.386C105.567 286.209 104.153 287.491 102.249 287.491C100.315 287.491 98.8945 286.209 98.9092 284.386ZM100.462 284.386C100.455 285.462 101.209 286.151 102.249 286.144C103.267 286.151 104.007 285.462 104.021 284.386C104.007 283.309 103.267 282.599 102.249 282.599C101.209 282.599 100.455 283.309 100.462 284.386ZM122.332 277.062V283.814H120.721V277.062H122.332ZM111.316 282.525C113.462 281.844 114.59 280.145 114.583 278.409V277.384H116.268V278.409C116.26 280.094 117.381 281.668 119.476 282.306L118.685 283.565C117.146 283.089 116.048 282.108 115.447 280.848C114.847 282.218 113.719 283.294 112.137 283.8L111.316 282.525ZM113.572 285.689V284.43H122.361V287.872H115.198V288.897H122.757V290.187H113.602V286.656H120.735V285.689H113.572ZM136.38 283.917V285.221H131.268V287.506H129.656V285.221H124.28V283.917H136.38ZM125.745 290.04V286.393H127.356V288.722H135.047V290.04H125.745ZM125.862 282.877V277.486H127.474V278.98H133.187V277.486H134.798V282.877H125.862ZM127.474 281.588H133.187V280.196H127.474V281.588ZM136.819 290.05H151.819V275.05H136.819V290.05Z" fill="white"/>
<path d="M76.0576 215.028C77.8447 215.028 79.1704 216.522 79.4048 218.939H81.9316V214.062H83.543V227.318H81.9316V220.258H79.4194C79.2437 222.814 77.896 224.389 76.0576 224.389C74.0654 224.389 72.6519 222.58 72.6592 219.701C72.6519 216.845 74.0654 215.028 76.0576 215.028ZM74.2266 219.701C74.2192 221.737 74.9663 222.917 76.0576 222.924C77.1562 222.917 77.896 221.737 77.9033 219.701C77.896 217.68 77.1562 216.493 76.0576 216.493C74.9663 216.493 74.2192 217.68 74.2266 219.701ZM90.2959 217.24C90.2886 219.701 91.4678 222.118 93.5771 223.041L92.5957 224.345C91.1016 223.612 90.0469 222.206 89.4829 220.47C88.9043 222.301 87.8203 223.825 86.2969 224.594L85.2715 223.275C87.4321 222.265 88.6333 219.716 88.6406 217.24V215.131H90.2959V217.24ZM92.1123 219.657V218.339H94.8955V214.062H96.5068V227.318H94.8955V219.657H92.1123ZM104.388 214.809C107.229 214.816 109.332 216.229 109.324 218.383C109.332 220.368 107.625 221.693 105.193 221.935V224.359H110.467V225.692H98.3672V224.359H103.582V221.935C101.18 221.693 99.4731 220.368 99.4805 218.383C99.4731 216.229 101.568 214.816 104.388 214.809ZM101.077 218.383C101.07 219.811 102.454 220.668 104.388 220.668C106.351 220.668 107.728 219.811 107.728 218.383C107.728 216.999 106.351 216.12 104.388 216.127C102.454 216.12 101.07 216.999 101.077 218.383ZM115.462 217.533C115.469 219.672 116.202 221.898 117.996 223.026L117.103 224.271C115.909 223.554 115.132 222.323 114.693 220.88C114.217 222.47 113.367 223.817 112.122 224.579L111.111 223.363C113.038 222.199 113.887 219.862 113.895 217.606V215.233H115.462V217.533ZM116.575 219.965V218.617H118.465V214.296H120.003V226.659H118.465V219.965H116.575ZM121.189 227.304V214.062H122.757V227.304H121.189ZM136.395 224.359V225.692H124.295V224.359H127.093V221.012C126.038 220.404 125.401 219.452 125.408 218.28C125.401 216.171 127.466 214.779 130.315 214.779C133.179 214.779 135.259 216.171 135.252 218.28C135.259 219.438 134.637 220.368 133.611 220.976V224.359H136.395ZM127.005 218.28C126.998 219.635 128.338 220.5 130.315 220.492C132.286 220.5 133.655 219.635 133.655 218.28C133.655 216.903 132.286 216.061 130.315 216.068C128.338 216.061 126.998 216.903 127.005 218.28ZM128.704 224.359H131.956V221.598C131.451 221.708 130.901 221.767 130.315 221.767C129.744 221.767 129.202 221.708 128.704 221.605V224.359ZM136.819 227.05H151.819V212.05H136.819V227.05Z" fill="white"/>
<path d="M334.973 279.516V288H333.672V280.805H333.625L331.598 282.129V280.898L333.707 279.516H334.973ZM343.305 279.117L340.574 289.277H339.461L342.191 279.117H343.305ZM350.371 279.516V288H349.07V280.805H349.023L346.996 282.129V280.898L349.105 279.516H350.371ZM355.48 288.117C353.518 288.117 352.363 286.535 352.363 283.758C352.363 280.998 353.529 279.398 355.48 279.398C357.426 279.398 358.592 280.998 358.598 283.758C358.592 286.535 357.443 288.117 355.48 288.117ZM353.652 283.758C353.646 285.873 354.332 287.004 355.48 287.004C356.623 287.004 357.309 285.873 357.309 283.758C357.309 281.648 356.617 280.494 355.48 280.488C354.338 280.494 353.652 281.648 353.652 283.758Z" fill="#939393"/>
<path d="M334.973 215.516V224H333.672V216.805H333.625L331.598 218.129V216.898L333.707 215.516H334.973ZM343.305 215.117L340.574 225.277H339.461L342.191 215.117H343.305ZM350.371 215.516V224H349.07V216.805H349.023L346.996 218.129V216.898L349.105 215.516H350.371ZM355.48 224.117C353.518 224.117 352.363 222.535 352.363 219.758C352.363 216.998 353.529 215.398 355.48 215.398C357.426 215.398 358.592 216.998 358.598 219.758C358.592 222.535 357.443 224.117 355.48 224.117ZM353.652 219.758C353.646 221.873 354.332 223.004 355.48 223.004C356.623 223.004 357.309 221.873 357.309 219.758C357.309 217.648 356.617 216.494 355.48 216.488C354.338 216.494 353.652 217.648 353.652 219.758Z" fill="#939393"/>
<path d="M45 219V215M50 219V215M55 210H37V226H42V230L46 226H51L55 222V210Z" stroke="#929292" stroke-width="2" stroke-linecap="round" stroke-linejoin="round"/>
<path d="M41 280L41 278C41 275.239 43.2386 273 46 273V273C48.7614 273 51 275.239 51 278L51 280" stroke="#929292" stroke-width="2"/>
<rect x="37" y="281" width="18" height="12" rx="4" stroke="#929292" stroke-width="2"/>
<rect x="21" y="171" width="177" height="1" rx="0.5" fill="#6DFCAF"/>
<path d="M69.4062 145.234V155.609H67.4219V150.516H65.0938V148.906H67.4219V145.234H69.4062ZM57.3438 152.406C59.6953 151.672 60.7578 149.82 60.7656 148V147.781H57.9062V146.188H65.625V147.781H62.7969V148.016C62.7891 149.664 63.8047 151.422 66.0625 152.156L65.0781 153.734C63.5078 153.219 62.4219 152.188 61.8047 150.914C61.1719 152.328 60.0391 153.477 58.3594 154.031L57.3438 152.406ZM59.9688 159.188V154.703H61.9688V157.594H69.75V159.188H59.9688ZM75.6875 149.547C75.6875 151.703 76.4609 153.867 78.4844 154.953L77.3906 156.406C76.1094 155.75 75.2578 154.602 74.7578 153.219C74.2656 154.727 73.4141 156 72.125 156.75L70.9844 155.25C73.0391 154.062 73.7969 151.742 73.8125 149.547V149.219H71.5156V147.625H73.8125V145.703H75.6719V147.625H77.9219V149.219H75.6875V149.547ZM77.0938 152.234V150.609H78.7656V145.453H80.6406V158.781H78.7656V152.234H77.0938ZM81.6562 159.438V145.219H83.5469V159.438H81.6562ZM95.25 145.953C98.3047 145.953 100.602 147.5 100.609 149.844C100.602 151.992 98.7891 153.43 96.2344 153.711V156.141H101.781V157.781H88.7656V156.141H94.25V153.711C91.7109 153.422 89.9062 151.984 89.9062 149.844C89.9062 147.5 92.1953 145.953 95.25 145.953ZM91.875 149.844C91.875 151.344 93.2578 152.18 95.25 152.188C97.25 152.18 98.6328 151.344 98.6406 149.844C98.6328 148.422 97.25 147.539 95.25 147.547C93.2578 147.539 91.875 148.422 91.875 149.844ZM114.406 145.812V147.375H112.547V149.844H114.312V151.422H103.828V149.844H105.578V147.375H103.734V145.812H114.406ZM102.594 154.125V152.562H115.562V154.125H102.594ZM104.156 159.188V155.094H106.156V157.594H114.094V159.188H104.156ZM107.578 149.844H110.547V147.375H107.578V149.844ZM124.547 149.516C124.547 151.656 125.305 153.836 127.359 154.906L126.25 156.375C124.969 155.719 124.117 154.57 123.617 153.188C123.125 154.688 122.273 155.969 120.984 156.703L119.859 155.203C121.883 154.047 122.656 151.727 122.672 149.516V149.25H120.312V147.625H122.672V145.703H124.531V147.625H126.875V149.25H124.547V149.516ZM127.516 158.781V145.422H129.406V150.688H130.609V145.219H132.516V159.438H130.609V152.312H129.406V158.781H127.516ZM141.609 146.203V147.797H136.719V148.906H141.188V150.453H136.719V151.594C139.227 151.594 140.812 151.562 142.609 151.266L142.812 152.828C140.789 153.156 138.977 153.203 135.938 153.188H134.719V146.203H141.609ZM136.109 156.734C136.109 155.031 137.961 154.039 141 154.031C144.008 154.039 145.906 155.031 145.922 156.734C145.906 158.453 144.008 159.445 141 159.438C137.961 159.445 136.109 158.453 136.109 156.734ZM138.094 156.734C138.094 157.523 139.094 157.922 141 157.922C142.883 157.922 143.922 157.523 143.922 156.734C143.922 155.977 142.883 155.57 141 155.578C139.094 155.57 138.094 155.977 138.094 156.734ZM143.844 153.844V145.234H145.844V153.844H143.844ZM154.391 153.922C157.352 153.922 159.18 154.938 159.188 156.672C159.18 158.43 157.352 159.453 154.391 159.453C151.383 159.453 149.508 158.43 149.516 156.672C149.508 154.938 151.383 153.922 154.391 153.922ZM148.188 152.797V146.109H150.172V147.906H153.078V146.109H155.078V152.797H148.188ZM150.172 151.219H153.078V149.453H150.172V151.219ZM151.516 156.672C151.5 157.484 152.523 157.906 154.391 157.906C156.234 157.906 157.219 157.484 157.219 156.672C157.219 155.859 156.234 155.477 154.391 155.469C152.523 155.477 151.5 155.859 151.516 156.672ZM157.047 153.609V145.219H159.047V148.516H160.969V150.188H159.047V153.609H157.047Z" fill="white"/>
<path d="M228.531 146.641V148.203H225.656C225.703 149.633 226.719 151.062 228.984 151.672L228.078 153.203C226.453 152.781 225.328 151.883 224.688 150.734C224.062 152 222.93 152.992 221.25 153.453L220.312 151.922C222.578 151.297 223.641 149.773 223.672 148.203H220.812V146.641H223.672V145.156H225.688V146.641H228.531ZM222.406 159.281V154.141H231.703V159.281H222.406ZM224.375 157.688H229.734V155.719H224.375V157.688ZM229.703 153.547V145.219H231.703V148.562H233.625V150.188H231.703V153.547H229.703ZM238.172 146.219C239.453 146.219 240.516 146.914 241.164 148.141H244.281V145.219H246.25V159.469H244.281V154.141H241.312C240.68 155.547 239.547 156.359 238.172 156.359C236.016 156.359 234.469 154.406 234.484 151.281C234.469 148.18 236.016 146.219 238.172 146.219ZM236.391 151.281C236.383 153.398 237.109 154.555 238.172 154.547C239.242 154.555 239.953 153.398 239.953 151.281C239.953 149.172 239.242 148.016 238.172 148.016C237.109 148.016 236.383 149.172 236.391 151.281ZM241.719 149.75C241.812 150.219 241.859 150.734 241.859 151.281C241.859 151.727 241.828 152.148 241.766 152.547H244.281V149.75H241.719ZM261.047 151.672V153.281H255.547V154.336C258.016 154.516 259.484 155.406 259.5 156.875C259.484 158.523 257.617 159.445 254.547 159.438C251.43 159.445 249.562 158.523 249.562 156.875C249.562 155.398 251.039 154.508 253.562 154.328V153.281H248.078V151.672H261.047ZM248.656 149.578C251.289 149.344 252.742 148.375 253.102 147.391H249.266V145.828H259.875V147.391H256.008C256.352 148.383 257.797 149.344 260.5 149.578L259.797 151.141C257.109 150.883 255.305 149.875 254.547 148.492C253.797 149.867 252.008 150.891 249.312 151.141L248.656 149.578ZM251.594 156.875C251.586 157.562 252.578 157.938 254.547 157.938C256.477 157.938 257.492 157.562 257.5 156.875C257.492 156.156 256.477 155.812 254.547 155.797C252.578 155.812 251.586 156.156 251.594 156.875ZM273.812 145.234V155.453H271.812V145.234H273.812ZM262.125 149.719C262.125 147.633 263.828 146.133 266.016 146.141C268.195 146.133 269.898 147.633 269.906 149.719C269.898 151.836 268.195 153.328 266.016 153.328C263.828 153.328 262.125 151.836 262.125 149.719ZM264.078 149.719C264.062 150.906 264.898 151.594 266.016 151.594C267.094 151.594 267.93 150.906 267.938 149.719C267.93 148.562 267.094 147.867 266.016 147.875C264.898 147.867 264.062 148.562 264.078 149.719ZM264.281 159.188V154.422H266.297V157.594H274.188V159.188H264.281ZM285.906 145.953C288.961 145.953 291.258 147.5 291.266 149.844C291.258 151.992 289.445 153.43 286.891 153.711V156.141H292.438V157.781H279.422V156.141H284.906V153.711C282.367 153.422 280.562 151.984 280.562 149.844C280.562 147.5 282.852 145.953 285.906 145.953ZM282.531 149.844C282.531 151.344 283.914 152.18 285.906 152.188C287.906 152.18 289.289 151.344 289.297 149.844C289.289 148.422 287.906 147.539 285.906 147.547C283.914 147.539 282.531 148.422 282.531 149.844ZM305.062 145.812V147.375H303.203V149.844H304.969V151.422H294.484V149.844H296.234V147.375H294.391V145.812H305.062ZM293.25 154.125V152.562H306.219V154.125H293.25ZM294.812 159.188V155.094H296.812V157.594H304.75V159.188H294.812ZM298.234 149.844H301.203V147.375H298.234V149.844ZM315.203 149.516C315.203 151.656 315.961 153.836 318.016 154.906L316.906 156.375C315.625 155.719 314.773 154.57 314.273 153.188C313.781 154.688 312.93 155.969 311.641 156.703L310.516 155.203C312.539 154.047 313.312 151.727 313.328 149.516V149.25H310.969V147.625H313.328V145.703H315.188V147.625H317.531V149.25H315.203V149.516ZM318.172 158.781V145.422H320.062V150.688H321.266V145.219H323.172V159.438H321.266V152.312H320.062V158.781H318.172ZM332.266 146.203V147.797H327.375V148.906H331.844V150.453H327.375V151.594C329.883 151.594 331.469 151.562 333.266 151.266L333.469 152.828C331.445 153.156 329.633 153.203 326.594 153.188H325.375V146.203H332.266ZM326.766 156.734C326.766 155.031 328.617 154.039 331.656 154.031C334.664 154.039 336.562 155.031 336.578 156.734C336.562 158.453 334.664 159.445 331.656 159.438C328.617 159.445 326.766 158.453 326.766 156.734ZM328.75 156.734C328.75 157.523 329.75 157.922 331.656 157.922C333.539 157.922 334.578 157.523 334.578 156.734C334.578 155.977 333.539 155.57 331.656 155.578C329.75 155.57 328.75 155.977 328.75 156.734ZM334.5 153.844V145.234H336.5V153.844H334.5ZM345.047 153.922C348.008 153.922 349.836 154.938 349.844 156.672C349.836 158.43 348.008 159.453 345.047 159.453C342.039 159.453 340.164 158.43 340.172 156.672C340.164 154.938 342.039 153.922 345.047 153.922ZM338.844 152.797V146.109H340.828V147.906H343.734V146.109H345.734V152.797H338.844ZM340.828 151.219H343.734V149.453H340.828V151.219ZM342.172 156.672C342.156 157.484 343.18 157.906 345.047 157.906C346.891 157.906 347.875 157.484 347.875 156.672C347.875 155.859 346.891 155.477 345.047 155.469C343.18 155.477 342.156 155.859 342.172 156.672ZM347.703 153.609V145.219H349.703V148.516H351.625V150.188H349.703V153.609H347.703Z" fill="white"/>
<path d="M26.9062 81.9531C29.9609 81.9531 32.2578 83.5 32.2656 85.8438C32.2578 87.9922 30.4453 89.4297 27.8906 89.7109V92.1406H33.4375V93.7812H20.4219V92.1406H25.9062V89.7109C23.3672 89.4219 21.5625 87.9844 21.5625 85.8438C21.5625 83.5 23.8516 81.9531 26.9062 81.9531ZM23.5312 85.8438C23.5312 87.3438 24.9141 88.1797 26.9062 88.1875C28.9062 88.1797 30.2891 87.3438 30.2969 85.8438C30.2891 84.4219 28.9062 83.5391 26.9062 83.5469C24.9141 83.5391 23.5312 84.4219 23.5312 85.8438ZM46.0625 81.8125V83.375H44.2031V85.8438H45.9688V87.4219H35.4844V85.8438H37.2344V83.375H35.3906V81.8125H46.0625ZM34.25 90.125V88.5625H47.2188V90.125H34.25ZM35.8125 95.1875V91.0938H37.8125V93.5938H45.75V95.1875H35.8125ZM39.2344 85.8438H42.2031V83.375H39.2344V85.8438ZM56.2031 85.5156C56.2031 87.6562 56.9609 89.8359 59.0156 90.9062L57.9062 92.375C56.625 91.7188 55.7734 90.5703 55.2734 89.1875C54.7812 90.6875 53.9297 91.9688 52.6406 92.7031L51.5156 91.2031C53.5391 90.0469 54.3125 87.7266 54.3281 85.5156V85.25H51.9688V83.625H54.3281V81.7031H56.1875V83.625H58.5312V85.25H56.2031V85.5156ZM59.1719 94.7812V81.4219H61.0625V86.6875H62.2656V81.2188H64.1719V95.4375H62.2656V88.3125H61.0625V94.7812H59.1719ZM73.2656 82.2031V83.7969H68.375V84.9062H72.8438V86.4531H68.375V87.5938C70.8828 87.5938 72.4688 87.5625 74.2656 87.2656L74.4688 88.8281C72.4453 89.1562 70.6328 89.2031 67.5938 89.1875H66.375V82.2031H73.2656ZM67.7656 92.7344C67.7656 91.0312 69.6172 90.0391 72.6562 90.0312C75.6641 90.0391 77.5625 91.0312 77.5781 92.7344C77.5625 94.4531 75.6641 95.4453 72.6562 95.4375C69.6172 95.4453 67.7656 94.4531 67.7656 92.7344ZM69.75 92.7344C69.75 93.5234 70.75 93.9219 72.6562 93.9219C74.5391 93.9219 75.5781 93.5234 75.5781 92.7344C75.5781 91.9766 74.5391 91.5703 72.6562 91.5781C70.75 91.5703 69.75 91.9766 69.75 92.7344ZM75.5 89.8438V81.2344H77.5V89.8438H75.5ZM86.0469 89.9219C89.0078 89.9219 90.8359 90.9375 90.8438 92.6719C90.8359 94.4297 89.0078 95.4531 86.0469 95.4531C83.0391 95.4531 81.1641 94.4297 81.1719 92.6719C81.1641 90.9375 83.0391 89.9219 86.0469 89.9219ZM79.8438 88.7969V82.1094H81.8281V83.9062H84.7344V82.1094H86.7344V88.7969H79.8438ZM81.8281 87.2188H84.7344V85.4531H81.8281V87.2188ZM83.1719 92.6719C83.1562 93.4844 84.1797 93.9062 86.0469 93.9062C87.8906 93.9062 88.875 93.4844 88.875 92.6719C88.875 91.8594 87.8906 91.4766 86.0469 91.4688C84.1797 91.4766 83.1562 91.8594 83.1719 92.6719ZM88.7031 89.6094V81.2188H90.7031V84.5156H92.625V86.1875H90.7031V89.6094H88.7031Z" fill="white"/>
</svg>
