<svg width="393" height="852" viewBox="0 0 393 852" fill="none" xmlns="http://www.w3.org/2000/svg">
<rect width="393" height="852" fill="#2D2D2D"/>
<path d="M30.56 103.16H33.56V112.928C33.56 114.232 33.3 115.36 32.78 116.312C32.268 117.264 31.544 118 30.608 118.52C29.68 119.032 28.584 119.288 27.32 119.288C26.048 119.288 24.94 119.032 23.996 118.52C23.06 118 22.332 117.264 21.812 116.312C21.3 115.36 21.044 114.232 21.044 112.928V103.16H24.032V112.772C24.032 113.572 24.168 114.256 24.44 114.824C24.72 115.384 25.108 115.812 25.604 116.108C26.1 116.396 26.672 116.54 27.32 116.54C27.96 116.54 28.524 116.396 29.012 116.108C29.5 115.812 29.88 115.384 30.152 114.824C30.424 114.256 30.56 113.572 30.56 112.772V103.16ZM40.3846 108.86C40.9766 108.86 41.5246 108.916 42.0286 109.028C42.5326 109.132 42.9566 109.252 43.3006 109.388C43.6526 109.524 43.8846 109.64 43.9966 109.736L42.9526 111.572C42.7926 111.444 42.5046 111.292 42.0886 111.116C41.6806 110.94 41.2246 110.852 40.7206 110.852C40.2646 110.852 39.8806 110.932 39.5686 111.092C39.2566 111.244 39.1006 111.476 39.1006 111.788C39.1006 112.1 39.2686 112.348 39.6046 112.532C39.9406 112.716 40.4086 112.876 41.0086 113.012C41.5126 113.116 42.0086 113.276 42.4966 113.492C42.9846 113.7 43.3886 114.004 43.7086 114.404C44.0286 114.796 44.1886 115.32 44.1886 115.976C44.1886 116.624 44.0486 117.164 43.7686 117.596C43.4966 118.02 43.1326 118.356 42.6766 118.604C42.2206 118.852 41.7206 119.028 41.1766 119.132C40.6326 119.236 40.0926 119.288 39.5566 119.288C38.8606 119.288 38.2486 119.22 37.7206 119.084C37.1926 118.956 36.7566 118.808 36.4126 118.64C36.0766 118.464 35.8366 118.316 35.6926 118.196L36.7366 116.156C36.9446 116.34 37.2846 116.544 37.7566 116.768C38.2366 116.984 38.7526 117.092 39.3046 117.092C39.8806 117.092 40.3326 116.992 40.6606 116.792C40.9966 116.592 41.1646 116.324 41.1646 115.988C41.1646 115.74 41.0846 115.54 40.9246 115.388C40.7646 115.228 40.5446 115.096 40.2646 114.992C39.9846 114.888 39.6566 114.796 39.2806 114.716C38.9366 114.644 38.5846 114.54 38.2246 114.404C37.8646 114.26 37.5286 114.072 37.2166 113.84C36.9046 113.608 36.6526 113.32 36.4606 112.976C36.2686 112.624 36.1726 112.204 36.1726 111.716C36.1726 111.092 36.3726 110.572 36.7726 110.156C37.1726 109.732 37.6926 109.412 38.3326 109.196C38.9726 108.972 39.6566 108.86 40.3846 108.86ZM48.5908 114.752C48.6148 115.2 48.7348 115.6 48.9508 115.952C49.1668 116.304 49.4788 116.58 49.8868 116.78C50.3028 116.98 50.7988 117.08 51.3748 117.08C51.8948 117.08 52.3508 117.016 52.7428 116.888C53.1428 116.76 53.4788 116.604 53.7508 116.42C54.0308 116.228 54.2388 116.044 54.3748 115.868L55.6348 117.74C55.4108 118.02 55.1108 118.28 54.7348 118.52C54.3668 118.752 53.8948 118.936 53.3188 119.072C52.7508 119.216 52.0388 119.288 51.1828 119.288C50.1028 119.288 49.1548 119.076 48.3388 118.652C47.5228 118.228 46.8868 117.616 46.4308 116.816C45.9748 116.016 45.7468 115.064 45.7468 113.96C45.7468 113 45.9508 112.136 46.3588 111.368C46.7668 110.592 47.3588 109.98 48.1348 109.532C48.9188 109.084 49.8588 108.86 50.9548 108.86C51.9868 108.86 52.8788 109.06 53.6308 109.46C54.3908 109.852 54.9788 110.428 55.3948 111.188C55.8108 111.948 56.0188 112.876 56.0188 113.972C56.0188 114.036 56.0148 114.168 56.0068 114.368C56.0068 114.56 55.9988 114.688 55.9828 114.752H48.5908ZM53.1628 112.868C53.1548 112.612 53.0748 112.336 52.9228 112.04C52.7788 111.744 52.5508 111.492 52.2388 111.284C51.9268 111.076 51.5108 110.972 50.9908 110.972C50.4708 110.972 50.0428 111.072 49.7068 111.272C49.3788 111.472 49.1308 111.72 48.9628 112.016C48.7948 112.304 48.6988 112.588 48.6748 112.868H53.1628ZM60.9089 119H57.8609V109.148H60.9089V110.744H60.8489C60.9049 110.552 61.0569 110.308 61.3049 110.012C61.5609 109.716 61.9129 109.452 62.3609 109.22C62.8089 108.98 63.3489 108.86 63.9809 108.86C64.4369 108.86 64.8489 108.928 65.2169 109.064C65.5929 109.192 65.8609 109.32 66.0209 109.448L64.8209 111.944C64.7169 111.816 64.5209 111.684 64.2329 111.548C63.9529 111.412 63.6009 111.344 63.1769 111.344C62.6729 111.344 62.2529 111.484 61.9169 111.764C61.5809 112.036 61.3289 112.372 61.1609 112.772C60.9929 113.164 60.9089 113.532 60.9089 113.876V119ZM73.3456 103.16H79.4416C80.3376 103.16 81.1416 103.348 81.8536 103.724C82.5656 104.092 83.1296 104.632 83.5456 105.344C83.9696 106.048 84.1816 106.9 84.1816 107.9C84.1816 108.892 83.9976 109.708 83.6296 110.348C83.2616 110.98 82.8176 111.456 82.2976 111.776C81.7856 112.096 81.3096 112.28 80.8696 112.328L84.7576 119H81.3736L77.8576 112.556H76.3336V119H73.3456V103.16ZM76.3336 110.444H78.3736C79.1336 110.444 79.7776 110.256 80.3056 109.88C80.8416 109.504 81.1096 108.872 81.1096 107.984C81.1096 107.096 80.8456 106.472 80.3176 106.112C79.7896 105.744 79.1496 105.56 78.3976 105.56H76.3336V110.444ZM94.9732 119V117.284C94.9012 117.46 94.7172 117.708 94.4212 118.028C94.1252 118.348 93.7252 118.64 93.2212 118.904C92.7252 119.16 92.1412 119.288 91.4692 119.288C90.5252 119.288 89.6892 119.064 88.9612 118.616C88.2332 118.16 87.6612 117.54 87.2452 116.756C86.8372 115.964 86.6332 115.072 86.6332 114.08C86.6332 113.088 86.8372 112.2 87.2452 111.416C87.6612 110.624 88.2332 110 88.9612 109.544C89.6892 109.088 90.5252 108.86 91.4692 108.86C92.1252 108.86 92.6932 108.972 93.1732 109.196C93.6612 109.412 94.0532 109.668 94.3492 109.964C94.6532 110.252 94.8492 110.512 94.9372 110.744V109.148H97.9612V119H94.9732ZM89.6212 114.08C89.6212 114.632 89.7452 115.12 89.9932 115.544C90.2412 115.96 90.5692 116.284 90.9772 116.516C91.3852 116.748 91.8292 116.864 92.3092 116.864C92.8132 116.864 93.2612 116.748 93.6532 116.516C94.0452 116.276 94.3532 115.948 94.5772 115.532C94.8092 115.108 94.9252 114.624 94.9252 114.08C94.9252 113.536 94.8092 113.056 94.5772 112.64C94.3532 112.216 94.0452 111.884 93.6532 111.644C93.2612 111.404 92.8132 111.284 92.3092 111.284C91.8292 111.284 91.3852 111.404 90.9772 111.644C90.5692 111.876 90.2412 112.204 89.9932 112.628C89.7452 113.044 89.6212 113.528 89.6212 114.08ZM106.751 108.86C107.423 108.86 108.079 109 108.719 109.28C109.359 109.552 109.883 109.988 110.291 110.588C110.707 111.188 110.915 111.972 110.915 112.94V119H107.855V113.468C107.855 112.66 107.663 112.06 107.279 111.668C106.903 111.276 106.407 111.08 105.791 111.08C105.391 111.08 105.007 111.192 104.639 111.416C104.279 111.632 103.983 111.936 103.751 112.328C103.527 112.712 103.415 113.152 103.415 113.648V119H100.367V109.148H103.415V110.72C103.503 110.448 103.703 110.168 104.015 109.88C104.327 109.592 104.723 109.352 105.203 109.16C105.683 108.96 106.199 108.86 106.751 108.86ZM119.74 109.148H123.244L118.432 113.852L123.676 119H120.088L115.996 114.884V119H112.948V102.488H115.996V112.76L119.74 109.148ZM125.006 119V109.148H128.042V119H125.006ZM126.566 106.604C126.062 106.604 125.634 106.428 125.282 106.076C124.938 105.724 124.766 105.304 124.766 104.816C124.766 104.328 124.942 103.904 125.294 103.544C125.646 103.184 126.07 103.004 126.566 103.004C126.894 103.004 127.194 103.088 127.466 103.256C127.738 103.416 127.958 103.632 128.126 103.904C128.294 104.176 128.378 104.48 128.378 104.816C128.378 105.304 128.198 105.724 127.838 106.076C127.486 106.428 127.062 106.604 126.566 106.604ZM137.103 108.86C137.775 108.86 138.431 109 139.071 109.28C139.711 109.552 140.235 109.988 140.643 110.588C141.059 111.188 141.267 111.972 141.267 112.94V119H138.207V113.468C138.207 112.66 138.015 112.06 137.631 111.668C137.255 111.276 136.759 111.08 136.143 111.08C135.743 111.08 135.359 111.192 134.991 111.416C134.631 111.632 134.335 111.936 134.103 112.328C133.879 112.712 133.767 113.152 133.767 113.648V119H130.719V109.148H133.767V110.72C133.855 110.448 134.055 110.168 134.367 109.88C134.679 109.592 135.075 109.352 135.555 109.16C136.035 108.96 136.551 108.86 137.103 108.86ZM148.627 124.268C147.907 124.268 147.215 124.2 146.551 124.064C145.895 123.928 145.299 123.716 144.763 123.428C144.227 123.14 143.779 122.764 143.419 122.3L145.267 120.428C145.435 120.644 145.651 120.86 145.915 121.076C146.187 121.3 146.531 121.484 146.947 121.628C147.363 121.78 147.883 121.856 148.507 121.856C149.099 121.856 149.607 121.74 150.031 121.508C150.463 121.284 150.795 120.964 151.027 120.548C151.267 120.132 151.387 119.648 151.387 119.096V118.82H154.375V119.276C154.375 120.364 154.119 121.28 153.607 122.024C153.095 122.768 152.407 123.328 151.543 123.704C150.679 124.08 149.707 124.268 148.627 124.268ZM151.387 119V117.284C151.315 117.46 151.131 117.708 150.835 118.028C150.539 118.348 150.139 118.64 149.635 118.904C149.139 119.16 148.555 119.288 147.883 119.288C146.939 119.288 146.103 119.064 145.375 118.616C144.647 118.16 144.075 117.54 143.659 116.756C143.251 115.964 143.047 115.072 143.047 114.08C143.047 113.088 143.251 112.2 143.659 111.416C144.075 110.624 144.647 110 145.375 109.544C146.103 109.088 146.939 108.86 147.883 108.86C148.539 108.86 149.107 108.972 149.587 109.196C150.075 109.412 150.467 109.668 150.763 109.964C151.067 110.252 151.263 110.512 151.351 110.744V109.148H154.375V119H151.387ZM146.035 114.08C146.035 114.632 146.159 115.12 146.407 115.544C146.655 115.96 146.983 116.284 147.391 116.516C147.799 116.748 148.243 116.864 148.723 116.864C149.227 116.864 149.675 116.748 150.067 116.516C150.459 116.276 150.767 115.948 150.991 115.532C151.223 115.108 151.339 114.624 151.339 114.08C151.339 113.536 151.223 113.056 150.991 112.64C150.767 112.216 150.459 111.884 150.067 111.644C149.675 111.404 149.227 111.284 148.723 111.284C148.243 111.284 147.799 111.404 147.391 111.644C146.983 111.876 146.655 112.204 146.407 112.628C146.159 113.044 146.035 113.528 146.035 114.08Z" fill="white"/>
<g filter="url(#filter0_d_1925_3304)">
<rect x="20" y="156" width="353" height="42" rx="16" fill="white" fill-opacity="0.1" shape-rendering="crispEdges"/>
<rect x="20.5" y="156.5" width="352" height="41" rx="15.5" stroke="white" shape-rendering="crispEdges"/>
</g>
<path d="M39.574 171.649L37.264 172.859V169.735L41.312 167.48H42.863V182H39.574V171.649Z" fill="#6DFCAF"/>
<path d="M67.2656 171.375C69.3594 171.383 70.8516 173.289 70.8594 176.281C70.8516 179.305 69.3594 181.211 67.2656 181.203C65.1719 181.211 63.6797 179.305 63.6875 176.281C63.6797 173.289 65.1719 171.383 67.2656 171.375ZM65.1094 176.281C65.1016 178.508 65.9922 179.875 67.2656 179.875C68.5625 179.875 69.4375 178.508 69.4375 176.281C69.4375 174.086 68.5625 172.711 67.2656 172.703C65.9922 172.711 65.1016 174.086 65.1094 176.281ZM72.9375 184.328V170.328H74.4219V175.812H76.6719V177.062H74.4219V184.328H72.9375ZM89.3906 170.328V184.328H87.9688V170.328H89.3906ZM77.5 176.375C77.5 173.344 78.6875 171.445 80.5156 171.453C82.2188 171.445 83.3672 173.062 83.5391 175.688H85.125V170.594H86.5469V183.641H85.125V176.891H83.5469C83.4141 179.625 82.25 181.32 80.5156 181.312C78.6875 181.32 77.5 179.414 77.5 176.375ZM78.875 176.375C78.875 178.602 79.5078 179.914 80.5156 179.906C81.5469 179.914 82.1875 178.602 82.1875 176.375C82.1875 174.141 81.5469 172.836 80.5156 172.844C79.5078 172.836 78.875 174.141 78.875 176.375ZM102.766 170.328V184.359H101.281V170.328H102.766ZM91.6562 176.281C91.6562 173.289 93.1641 171.383 95.2812 171.375C97.3594 171.383 98.8906 173.289 98.8906 176.281C98.8906 179.305 97.3594 181.211 95.2812 181.203C93.1641 181.211 91.6562 179.305 91.6562 176.281ZM93.0938 176.281C93.0859 178.508 93.9766 179.875 95.2812 179.875C96.5625 179.875 97.4531 178.508 97.4531 176.281C97.4531 174.086 96.5625 172.711 95.2812 172.703C93.9766 172.711 93.0859 174.086 93.0938 176.281ZM111.375 171.172C114.367 171.18 116.547 172.656 116.547 174.891C116.547 176.984 114.719 178.383 112.109 178.594V181.344H117.812V182.578H105V181.344H110.641V178.594C108.047 178.383 106.211 176.984 106.219 174.891C106.211 172.656 108.398 171.18 111.375 171.172ZM107.656 174.891C107.656 176.461 109.219 177.438 111.375 177.453C113.547 177.438 115.102 176.461 115.109 174.891C115.102 173.375 113.547 172.375 111.375 172.391C109.219 172.375 107.656 173.375 107.656 174.891ZM131.625 178.281V179.516H125.906V184.328H124.453V179.516H118.812V178.281H131.625ZM120.203 173.969C120.211 172.062 122.227 170.859 125.188 170.859C128.148 170.859 130.18 172.062 130.172 173.969C130.18 175.852 128.148 177.047 125.188 177.047C122.227 177.047 120.211 175.852 120.203 173.969ZM121.734 173.969C121.727 175.133 123.109 175.859 125.188 175.859C127.273 175.859 128.648 175.133 128.656 173.969C128.648 172.789 127.273 172.055 125.188 172.047C123.109 172.055 121.727 172.789 121.734 173.969Z" fill="white"/>
<g filter="url(#filter1_d_1925_3304)">
<rect x="20" y="426" width="353" height="42" rx="16" fill="white" fill-opacity="0.1" shape-rendering="crispEdges"/>
</g>
<path d="M39.574 441.649L37.264 442.859V439.735L41.312 437.48H42.863V452H39.574V441.649Z" fill="white"/>
<path d="M74.4219 440.328V446H76.6719V447.234H74.4219V454.328H72.9531V440.328H74.4219ZM63.4375 443.734V442.516H66.8906V440.516H68.375V442.516H71.7344V443.734H63.4375ZM64.1562 448.016C64.1562 446.109 65.625 444.766 67.6406 444.766C69.6484 444.766 71.1172 446.109 71.125 448.016C71.1172 449.938 69.6484 451.273 67.6406 451.281C65.625 451.273 64.1562 449.938 64.1562 448.016ZM65.5781 448.016C65.5703 449.234 66.4453 450.047 67.6406 450.031C68.8281 450.047 69.6953 449.234 69.7031 448.016C69.6953 446.82 68.8281 445.992 67.6406 445.984C66.4453 445.992 65.5703 446.82 65.5781 448.016ZM88.9688 440.328V454.359H87.4844V440.328H88.9688ZM78.125 442.797V441.594H84.6875V446.703H79.6562V449.766C81.9297 449.758 83.9062 449.648 86.25 449.266L86.3906 450.484C83.9141 450.898 81.8047 450.992 79.3281 451H78.1406V445.516H83.1719V442.797H78.125ZM103.984 451.359V452.594H91.1719V451.359H96.8125V448.484H92.6406V441.281H94.125V443.688H101V441.281H102.469V448.484H98.2812V451.359H103.984ZM94.125 447.281H101V444.891H94.125V447.281Z" fill="white"/>
<rect x="20" y="210" width="353" height="42" rx="16" fill="white" fill-opacity="0.1"/>
<path d="M40.149 227.01C39.665 227.01 39.236 227.127 38.862 227.362C38.4953 227.589 38.1837 227.857 37.927 228.165C37.6777 228.473 37.487 228.755 37.355 229.012C37.223 229.261 37.1497 229.408 37.135 229.452L34.319 228.165C34.3337 228.07 34.4033 227.879 34.528 227.593C34.6527 227.3 34.8507 226.962 35.122 226.581C35.3933 226.2 35.749 225.829 36.189 225.47C36.6363 225.111 37.1863 224.814 37.839 224.579C38.4917 224.337 39.2617 224.216 40.149 224.216C41.1757 224.216 42.0263 224.363 42.701 224.656C43.383 224.949 43.9183 225.334 44.307 225.811C44.703 226.28 44.9853 226.79 45.154 227.34C45.3227 227.89 45.407 228.418 45.407 228.924C45.407 229.555 45.2787 230.167 45.022 230.761C44.7727 231.348 44.4463 231.905 44.043 232.433C43.6397 232.954 43.207 233.434 42.745 233.874C42.283 234.307 41.8393 234.688 41.414 235.018C40.996 235.341 40.6403 235.597 40.347 235.788C40.0537 235.979 39.8777 236.096 39.819 236.14H45.286V239H34.869V236.393C34.979 236.312 35.2283 236.133 35.617 235.854C36.0057 235.575 36.4713 235.227 37.014 234.809C37.564 234.391 38.1323 233.933 38.719 233.434C39.313 232.928 39.863 232.407 40.369 231.872C40.8823 231.337 41.3003 230.812 41.623 230.299C41.9457 229.786 42.107 229.313 42.107 228.88C42.107 228.198 41.9347 227.718 41.59 227.439C41.2527 227.153 40.7723 227.01 40.149 227.01Z" fill="#6DFCAF"/>
<path d="M70.3125 228.672C70.2031 227.617 69.2812 227.016 67.9844 227.016C66.6016 227.016 65.7266 227.727 65.7188 228.688C65.7188 229.758 66.8828 230.18 67.7812 230.391L68.875 230.688C70.3203 231.039 72.1328 231.828 72.1406 233.875C72.1328 235.789 70.6094 237.188 67.9375 237.188C65.4062 237.188 63.8125 235.922 63.7031 233.859H65.4219C65.5234 235.094 66.6172 235.68 67.9375 235.688C69.3828 235.68 70.4297 234.953 70.4375 233.844C70.4297 232.859 69.4922 232.461 68.2969 232.141L66.9531 231.781C65.1328 231.281 64.0078 230.359 64 228.781C64.0078 226.828 65.7422 225.531 68.0312 225.531C70.3281 225.531 71.9297 226.844 71.9844 228.672H70.3125ZM77.4375 237.172C75.0312 237.172 73.4609 235.422 73.4688 232.797C73.4609 230.156 75.0312 228.406 77.4375 228.406C79.8281 228.406 81.3906 230.156 81.3906 232.797C81.3906 235.422 79.8281 237.172 77.4375 237.172ZM75.1406 232.797C75.1406 234.414 75.8828 235.781 77.4375 235.781C78.9688 235.781 79.7031 234.414 79.7031 232.797C79.7031 231.172 78.9688 229.789 77.4375 229.781C75.8828 229.789 75.1406 231.172 75.1406 232.797ZM86.625 237.172C84.2188 237.172 82.6484 235.422 82.6562 232.797C82.6484 230.156 84.2188 228.406 86.625 228.406C89.0156 228.406 90.5781 230.156 90.5781 232.797C90.5781 235.422 89.0156 237.172 86.625 237.172ZM84.3281 232.797C84.3281 234.414 85.0703 235.781 86.625 235.781C88.1562 235.781 88.8906 234.414 88.8906 232.797C88.8906 231.172 88.1562 229.789 86.625 229.781C85.0703 229.789 84.3281 231.172 84.3281 232.797ZM92.9531 240.188C92.6094 240.18 92.2734 240.172 92.0625 240.141V238.75C92.25 238.766 92.5781 238.773 92.8125 238.781C93.3281 238.773 93.7578 238.742 94.1562 237.672L94.3594 237.109L91.25 228.516H93.0312L95.1719 235.094H95.2656L97.4062 228.516H99.2031L95.7031 238.125C95.2109 239.469 94.3516 240.18 92.9531 240.188ZM99.9062 234.609C99.8984 232.672 101.547 232.172 103.078 232.062C103.641 232.031 104.914 231.961 105.305 231.945L105.297 231.266C105.305 230.305 104.711 229.75 103.578 229.75C102.594 229.75 102 230.203 101.828 230.828H100.172C100.32 229.422 101.633 228.406 103.641 228.406C104.992 228.406 106.961 228.898 106.969 231.359V237H105.344V235.844H105.281C104.953 236.477 104.172 237.188 102.766 237.188C101.156 237.188 99.8984 236.266 99.9062 234.609ZM101.531 234.625C101.531 235.438 102.203 235.852 103.141 235.859C104.5 235.852 105.312 234.945 105.312 233.938L105.305 233.164C104.922 233.188 103.711 233.273 103.312 233.297C102.219 233.375 101.531 233.789 101.531 234.625ZM110.656 231.969V237H108.984V228.516H110.594V229.906H110.688C111.086 228.992 111.922 228.406 113.188 228.406C114.93 228.406 116.086 229.508 116.078 231.609V237H114.422V231.812C114.414 230.578 113.75 229.844 112.625 229.844C111.477 229.844 110.656 230.617 110.656 231.969ZM121.672 240.359C119.531 240.359 118.117 239.414 117.969 237.828H119.672C119.836 238.633 120.586 239.023 121.688 239.016C123.016 239.023 123.852 238.445 123.859 237.125V235.453H123.75C123.453 236 122.844 236.875 121.281 236.875C119.281 236.875 117.734 235.383 117.734 232.672C117.734 229.961 119.258 228.406 121.297 228.406C122.875 228.406 123.453 229.359 123.766 229.891H123.875V228.516H125.5V237.188C125.508 239.367 123.859 240.359 121.672 240.359ZM119.438 232.703C119.43 234.367 120.195 235.492 121.656 235.5C123.078 235.492 123.875 234.453 123.875 232.703C123.875 230.984 123.094 229.82 121.656 229.828C120.18 229.82 119.43 231.078 119.438 232.703Z" fill="white"/>
<rect x="20" y="480" width="353" height="42" rx="16" fill="white" fill-opacity="0.1"/>
<path d="M40.149 494.01C39.665 494.01 39.236 494.127 38.862 494.362C38.4953 494.589 38.1837 494.857 37.927 495.165C37.6777 495.473 37.487 495.755 37.355 496.012C37.223 496.261 37.1497 496.408 37.135 496.452L34.319 495.165C34.3337 495.07 34.4033 494.879 34.528 494.593C34.6527 494.3 34.8507 493.962 35.122 493.581C35.3933 493.2 35.749 492.829 36.189 492.47C36.6363 492.111 37.1863 491.814 37.839 491.579C38.4917 491.337 39.2617 491.216 40.149 491.216C41.1757 491.216 42.0263 491.363 42.701 491.656C43.383 491.949 43.9183 492.334 44.307 492.811C44.703 493.28 44.9853 493.79 45.154 494.34C45.3227 494.89 45.407 495.418 45.407 495.924C45.407 496.555 45.2787 497.167 45.022 497.761C44.7727 498.348 44.4463 498.905 44.043 499.433C43.6397 499.954 43.207 500.434 42.745 500.874C42.283 501.307 41.8393 501.688 41.414 502.018C40.996 502.341 40.6403 502.597 40.347 502.788C40.0537 502.979 39.8777 503.096 39.819 503.14H45.286V506H34.869V503.393C34.979 503.312 35.2283 503.133 35.617 502.854C36.0057 502.575 36.4713 502.227 37.014 501.809C37.564 501.391 38.1323 500.933 38.719 500.434C39.313 499.928 39.863 499.407 40.369 498.872C40.8823 498.337 41.3003 497.812 41.623 497.299C41.9457 496.786 42.107 496.313 42.107 495.88C42.107 495.198 41.9347 494.718 41.59 494.439C41.2527 494.153 40.7723 494.01 40.149 494.01Z" fill="white"/>
<path d="M67.2656 495.375C69.3594 495.383 70.8516 497.289 70.8594 500.281C70.8516 503.305 69.3594 505.211 67.2656 505.203C65.1719 505.211 63.6797 503.305 63.6875 500.281C63.6797 497.289 65.1719 495.383 67.2656 495.375ZM65.1094 500.281C65.1016 502.508 65.9922 503.875 67.2656 503.875C68.5625 503.875 69.4375 502.508 69.4375 500.281C69.4375 498.086 68.5625 496.711 67.2656 496.703C65.9922 496.711 65.1016 498.086 65.1094 500.281ZM72.9375 508.328V494.328H74.4219V499.812H76.6719V501.062H74.4219V508.328H72.9375ZM88.3438 494.344V497.766H90.3906V499H88.3438V502.766H86.8594V494.344H88.3438ZM77.9062 496.391V495.188H84.2812V499.109H79.4062V500.812C81.8359 500.812 83.5547 500.719 85.5938 500.375L85.75 501.578C83.5859 501.961 81.7344 502.047 79.0469 502.031H77.9219V497.969H82.8281V496.391H77.9062ZM79.1094 505.734C79.1094 504.109 80.8984 503.141 83.8125 503.141C86.6875 503.141 88.4688 504.109 88.4688 505.734C88.4688 507.359 86.6875 508.297 83.8125 508.297C80.8984 508.297 79.1094 507.359 79.1094 505.734ZM80.5625 505.734C80.5547 506.648 81.7578 507.172 83.8125 507.156C85.8359 507.172 87.0234 506.648 87.0156 505.734C87.0234 504.828 85.8359 504.305 83.8125 504.312C81.7578 504.305 80.5547 504.828 80.5625 505.734Z" fill="white"/>
<rect x="20" y="264" width="353" height="42" rx="16" fill="white" fill-opacity="0.1"/>
<path d="M34.737 278.384C34.8177 278.091 34.9753 277.761 35.21 277.394C35.4447 277.027 35.7637 276.679 36.167 276.349C36.5777 276.019 37.0763 275.748 37.663 275.535C38.257 275.322 38.9427 275.216 39.72 275.216C40.644 275.216 41.4617 275.388 42.173 275.733C42.8917 276.07 43.4563 276.543 43.867 277.152C44.2777 277.761 44.483 278.472 44.483 279.286C44.483 279.777 44.395 280.228 44.219 280.639C44.043 281.042 43.8157 281.38 43.537 281.651C43.2583 281.922 42.965 282.098 42.657 282.179C43.0163 282.223 43.3757 282.388 43.735 282.674C44.1017 282.96 44.4097 283.341 44.659 283.818C44.9157 284.295 45.044 284.856 45.044 285.501C45.044 286.425 44.8093 287.246 44.34 287.965C43.878 288.676 43.2437 289.237 42.437 289.648C41.6303 290.059 40.7063 290.264 39.665 290.264C38.587 290.264 37.6703 290.073 36.915 289.692C36.167 289.311 35.5693 288.845 35.122 288.295C34.682 287.745 34.3887 287.213 34.242 286.7L37.256 285.204C37.344 285.519 37.4907 285.849 37.696 286.194C37.9087 286.539 38.18 286.832 38.51 287.074C38.84 287.309 39.2213 287.426 39.654 287.426C40.1013 287.426 40.4827 287.338 40.798 287.162C41.1133 286.986 41.3553 286.748 41.524 286.447C41.7 286.139 41.788 285.787 41.788 285.391C41.788 284.98 41.689 284.639 41.491 284.368C41.3003 284.097 41.0437 283.895 40.721 283.763C40.3983 283.631 40.0427 283.565 39.654 283.565H39.368V281.211H39.742C40.0793 281.211 40.3837 281.145 40.655 281.013C40.9263 280.874 41.139 280.679 41.293 280.43C41.4543 280.173 41.535 279.873 41.535 279.528C41.535 279.066 41.3773 278.674 41.062 278.351C40.7467 278.021 40.2883 277.856 39.687 277.856C39.3203 277.856 38.9977 277.922 38.719 278.054C38.4477 278.179 38.2203 278.34 38.037 278.538C37.8537 278.729 37.707 278.927 37.597 279.132C37.4943 279.33 37.4283 279.502 37.399 279.649L34.737 278.384Z" fill="#6DFCAF"/>
<path d="M64.1562 291V279.688H65.875V284.594H71.5V279.688H73.2188V291H71.5V286.062H65.875V291H64.1562ZM75.3906 291V282.516H77.0625V291H75.3906ZM75.1719 280.219C75.1797 279.672 75.6562 279.234 76.2344 279.234C76.8047 279.234 77.2812 279.672 77.2812 280.219C77.2812 280.766 76.8047 281.211 76.2344 281.203C75.6562 281.211 75.1797 280.766 75.1719 280.219ZM79.0938 291V282.516H80.7031V283.906H80.7969C81.1562 282.961 81.9922 282.406 83.1094 282.406C84.2422 282.406 85.0312 282.961 85.3906 283.906H85.4844C85.8828 282.992 86.8047 282.406 88.0312 282.406C89.5625 282.406 90.6484 283.367 90.6562 285.312V291H88.9844V285.469C88.9844 284.32 88.2656 283.844 87.3906 283.844C86.3203 283.844 85.7031 284.578 85.7031 285.594V291H84.0469V285.375C84.0469 284.445 83.4141 283.844 82.5 283.844C81.5625 283.844 80.7656 284.625 80.7656 285.766V291H79.0938Z" fill="white"/>
<rect x="20" y="534" width="353" height="42" rx="16" fill="white" fill-opacity="0.1"/>
<path d="M34.737 548.384C34.8177 548.091 34.9753 547.761 35.21 547.394C35.4447 547.027 35.7637 546.679 36.167 546.349C36.5777 546.019 37.0763 545.748 37.663 545.535C38.257 545.322 38.9427 545.216 39.72 545.216C40.644 545.216 41.4617 545.388 42.173 545.733C42.8917 546.07 43.4563 546.543 43.867 547.152C44.2777 547.761 44.483 548.472 44.483 549.286C44.483 549.777 44.395 550.228 44.219 550.639C44.043 551.042 43.8157 551.38 43.537 551.651C43.2583 551.922 42.965 552.098 42.657 552.179C43.0163 552.223 43.3757 552.388 43.735 552.674C44.1017 552.96 44.4097 553.341 44.659 553.818C44.9157 554.295 45.044 554.856 45.044 555.501C45.044 556.425 44.8093 557.246 44.34 557.965C43.878 558.676 43.2437 559.237 42.437 559.648C41.6303 560.059 40.7063 560.264 39.665 560.264C38.587 560.264 37.6703 560.073 36.915 559.692C36.167 559.311 35.5693 558.845 35.122 558.295C34.682 557.745 34.3887 557.213 34.242 556.7L37.256 555.204C37.344 555.519 37.4907 555.849 37.696 556.194C37.9087 556.539 38.18 556.832 38.51 557.074C38.84 557.309 39.2213 557.426 39.654 557.426C40.1013 557.426 40.4827 557.338 40.798 557.162C41.1133 556.986 41.3553 556.748 41.524 556.447C41.7 556.139 41.788 555.787 41.788 555.391C41.788 554.98 41.689 554.639 41.491 554.368C41.3003 554.097 41.0437 553.895 40.721 553.763C40.3983 553.631 40.0427 553.565 39.654 553.565H39.368V551.211H39.742C40.0793 551.211 40.3837 551.145 40.655 551.013C40.9263 550.874 41.139 550.679 41.293 550.43C41.4543 550.173 41.535 549.873 41.535 549.528C41.535 549.066 41.3773 548.674 41.062 548.351C40.7467 548.021 40.2883 547.856 39.687 547.856C39.3203 547.856 38.9977 547.922 38.719 548.054C38.4477 548.179 38.2203 548.34 38.037 548.538C37.8537 548.729 37.707 548.927 37.597 549.132C37.4943 549.33 37.4283 549.502 37.399 549.649L34.737 548.384Z" fill="white"/>
<path d="M70.3125 552.672C70.2031 551.617 69.2812 551.016 67.9844 551.016C66.6016 551.016 65.7266 551.727 65.7188 552.688C65.7188 553.758 66.8828 554.18 67.7812 554.391L68.875 554.688C70.3203 555.039 72.1328 555.828 72.1406 557.875C72.1328 559.789 70.6094 561.188 67.9375 561.188C65.4062 561.188 63.8125 559.922 63.7031 557.859H65.4219C65.5234 559.094 66.6172 559.68 67.9375 559.688C69.3828 559.68 70.4297 558.953 70.4375 557.844C70.4297 556.859 69.4922 556.461 68.2969 556.141L66.9531 555.781C65.1328 555.281 64.0078 554.359 64 552.781C64.0078 550.828 65.7422 549.531 68.0312 549.531C70.3281 549.531 71.9297 550.844 71.9844 552.672H70.3125ZM73.4531 558.609C73.4453 556.672 75.0938 556.172 76.625 556.062C77.1875 556.031 78.4609 555.961 78.8516 555.945L78.8438 555.266C78.8516 554.305 78.2578 553.75 77.125 553.75C76.1406 553.75 75.5469 554.203 75.375 554.828H73.7188C73.8672 553.422 75.1797 552.406 77.1875 552.406C78.5391 552.406 80.5078 552.898 80.5156 555.359V561H78.8906V559.844H78.8281C78.5 560.477 77.7188 561.188 76.3125 561.188C74.7031 561.188 73.4453 560.266 73.4531 558.609ZM75.0781 558.625C75.0781 559.438 75.75 559.852 76.6875 559.859C78.0469 559.852 78.8594 558.945 78.8594 557.938L78.8516 557.164C78.4688 557.188 77.2578 557.273 76.8594 557.297C75.7656 557.375 75.0781 557.789 75.0781 558.625ZM82.5312 561V552.516H84.1406V553.859H84.2344C84.5469 552.953 85.3984 552.383 86.3906 552.391C86.5938 552.383 86.9219 552.406 87.0938 552.422V554.016C86.9531 553.984 86.5625 553.914 86.2188 553.922C85.0625 553.914 84.2031 554.719 84.2031 555.828V561H82.5312ZM87.8594 558.609C87.8516 556.672 89.5 556.172 91.0312 556.062C91.5938 556.031 92.8672 555.961 93.2578 555.945L93.25 555.266C93.2578 554.305 92.6641 553.75 91.5312 553.75C90.5469 553.75 89.9531 554.203 89.7812 554.828H88.125C88.2734 553.422 89.5859 552.406 91.5938 552.406C92.9453 552.406 94.9141 552.898 94.9219 555.359V561H93.2969V559.844H93.2344C92.9062 560.477 92.125 561.188 90.7188 561.188C89.1094 561.188 87.8516 560.266 87.8594 558.609ZM89.4844 558.625C89.4844 559.438 90.1562 559.852 91.0938 559.859C92.4531 559.852 93.2656 558.945 93.2656 557.938L93.2578 557.164C92.875 557.188 91.6641 557.273 91.2656 557.297C90.1719 557.375 89.4844 557.789 89.4844 558.625Z" fill="white"/>
<rect x="20" y="318" width="353" height="42" rx="16" fill="white" fill-opacity="0.1"/>
<path d="M43.339 329.48V338.071H45.022V340.942H43.339V344H40.061V340.942H34.077V338.335L39.566 329.48H43.339ZM40.061 338.071V333.693H40.039L37.388 338.071H40.061Z" fill="white"/>
<path d="M66.3906 345L63.25 333.688H65.0625L67.2656 342.438H67.3594L69.6562 333.688H71.4375L73.7344 342.438H73.8281L76.0312 333.688H77.8438L74.7031 345H72.9688L70.5938 336.547H70.5L68.125 345H66.3906ZM88.5 339.344C88.5 342.961 86.3281 345.156 83.4062 345.156C80.4609 345.156 78.2969 342.953 78.2969 339.344C78.2969 335.727 80.4609 333.531 83.4062 333.531C86.3281 333.531 88.5 335.727 88.5 339.344ZM80 339.344C80.0078 342.094 81.4531 343.586 83.4062 343.578C85.3438 343.586 86.7891 342.094 86.7969 339.344C86.7891 336.594 85.3438 335.102 83.4062 335.109C81.4531 335.102 80.0078 336.594 80 339.344ZM99.5625 333.688V345H97.9844L92.25 336.734H92.1562V345H90.4375V333.688H92.0312L97.7656 341.969H97.875V333.688H99.5625ZM101.875 345V333.688H103.594V343.516H108.703V345H101.875ZM112.188 333.688V345H110.469V333.688H112.188ZM114.484 333.688H116.578L120.156 342.453H120.297L123.875 333.688H125.969V345H124.328V336.828H124.219L120.906 344.984H119.547L116.219 336.812H116.125V345H114.484V333.688Z" fill="white"/>
<rect x="20" y="588" width="353" height="42" rx="16" fill="white" fill-opacity="0.1"/>
<path d="M43.339 599.48V608.071H45.022V610.942H43.339V614H40.061V610.942H34.077V608.335L39.566 599.48H43.339ZM40.061 608.071V603.693H40.039L37.388 608.071H40.061Z" fill="white"/>
<path d="M64.1562 603.688H66.25L69.8281 612.453H69.9688L73.5469 603.688H75.6406V615H74V606.828H73.8906L70.5781 614.984H69.2188L65.8906 606.812H65.7969V615H64.1562V603.688ZM79.6719 603.688V615H77.9531V603.688H79.6719ZM83.5 609.969V615H81.8281V606.516H83.4375V607.906H83.5312C83.9297 606.992 84.7656 606.406 86.0312 606.406C87.7734 606.406 88.9297 607.508 88.9219 609.609V615H87.2656V609.812C87.2578 608.578 86.5938 607.844 85.4688 607.844C84.3203 607.844 83.5 608.617 83.5 609.969ZM94.5156 618.359C92.375 618.359 90.9609 617.414 90.8125 615.828H92.5156C92.6797 616.633 93.4297 617.023 94.5312 617.016C95.8594 617.023 96.6953 616.445 96.7031 615.125V613.453H96.5938C96.2969 614 95.6875 614.875 94.125 614.875C92.125 614.875 90.5781 613.383 90.5781 610.672C90.5781 607.961 92.1016 606.406 94.1406 606.406C95.7188 606.406 96.2969 607.359 96.6094 607.891H96.7188V606.516H98.3438V615.188C98.3516 617.367 96.7031 618.359 94.5156 618.359ZM92.2812 610.703C92.2734 612.367 93.0391 613.492 94.5 613.5C95.9219 613.492 96.7188 612.453 96.7188 610.703C96.7188 608.984 95.9375 607.82 94.5 607.828C93.0234 607.82 92.2734 609.078 92.2812 610.703Z" fill="white"/>
<rect x="20" y="372" width="353" height="42" rx="16" fill="white" fill-opacity="0.1"/>
<path d="M37.278 393.908C37.344 394.113 37.4357 394.311 37.553 394.502C37.6703 394.693 37.817 394.865 37.993 395.019C38.169 395.173 38.3817 395.294 38.631 395.382C38.8803 395.47 39.1737 395.514 39.511 395.514C40.193 395.514 40.721 395.298 41.095 394.865C41.4763 394.425 41.6633 393.857 41.656 393.16C41.6487 392.493 41.4653 391.968 41.106 391.587C40.754 391.206 40.27 391.015 39.654 391.015C39.258 391.015 38.917 391.085 38.631 391.224C38.345 391.363 38.1103 391.525 37.927 391.708C37.751 391.891 37.6263 392.06 37.553 392.214L34.836 391.224L36.123 383.48H44.285V386.34H38.884L38.433 389.079C38.4697 389.028 38.5833 388.947 38.774 388.837C38.972 388.727 39.2287 388.628 39.544 388.54C39.8667 388.445 40.2297 388.397 40.633 388.397C41.3517 388.397 42.041 388.555 42.701 388.87C43.361 389.185 43.9037 389.68 44.329 390.355C44.7543 391.03 44.967 391.902 44.967 392.973C44.967 394.044 44.736 394.979 44.274 395.778C43.8193 396.57 43.1923 397.182 42.393 397.615C41.5937 398.048 40.677 398.264 39.643 398.264C38.8583 398.264 38.169 398.172 37.575 397.989C36.9883 397.798 36.486 397.549 36.068 397.241C35.65 396.933 35.309 396.599 35.045 396.24C34.7883 395.873 34.594 395.514 34.462 395.162L37.278 393.908Z" fill="white"/>
<path d="M71.4219 387.688H73.1406V395.125C73.1484 397.5 71.3594 399.188 68.6562 399.188C65.9297 399.188 64.1484 397.5 64.1562 395.125V387.688H65.875V394.984C65.8672 396.516 66.9375 397.617 68.6562 397.625C70.3672 397.617 71.4219 396.516 71.4219 394.984V387.688ZM75.3125 399V390.516H76.9844V399H75.3125ZM75.0938 388.219C75.1016 387.672 75.5781 387.234 76.1562 387.234C76.7266 387.234 77.2031 387.672 77.2031 388.219C77.2031 388.766 76.7266 389.211 76.1562 389.203C75.5781 389.211 75.1016 388.766 75.0938 388.219ZM80.0469 402.188C79.7031 402.18 79.3672 402.172 79.1562 402.141V400.75C79.3438 400.766 79.6719 400.773 79.9062 400.781C80.4219 400.773 80.8516 400.742 81.25 399.672L81.4531 399.109L78.3438 390.516H80.125L82.2656 397.094H82.3594L84.5 390.516H86.2969L82.7969 400.125C82.3047 401.469 81.4453 402.18 80.0469 402.188ZM91.0156 399.172C88.5156 399.172 86.9766 397.445 86.9844 394.812C86.9766 392.203 88.5391 390.406 90.9062 390.406C92.8359 390.406 94.6719 391.602 94.6719 394.672V395.266H88.6406C88.6875 396.883 89.6406 397.797 91.0312 397.797C91.9766 397.797 92.5938 397.391 92.875 396.875H94.5625C94.1875 398.25 92.8828 399.172 91.0156 399.172ZM88.6484 394.016H93.0312C93.0312 392.727 92.1953 391.773 90.9219 391.781C89.5859 391.773 88.7188 392.82 88.6484 394.016ZM99.9219 399.172C97.5156 399.172 95.9453 397.422 95.9531 394.797C95.9453 392.156 97.5156 390.406 99.9219 390.406C102.312 390.406 103.875 392.156 103.875 394.797C103.875 397.422 102.312 399.172 99.9219 399.172ZM97.625 394.797C97.625 396.414 98.3672 397.781 99.9219 397.781C101.453 397.781 102.188 396.414 102.188 394.797C102.188 393.172 101.453 391.789 99.9219 391.781C98.3672 391.789 97.625 393.172 97.625 394.797ZM107.188 393.969V399H105.516V390.516H107.125V391.906H107.219C107.617 390.992 108.453 390.406 109.719 390.406C111.461 390.406 112.617 391.508 112.609 393.609V399H110.953V393.812C110.945 392.578 110.281 391.844 109.156 391.844C108.008 391.844 107.188 392.617 107.188 393.969Z" fill="white"/>
<rect x="20" y="642" width="353" height="42" rx="16" fill="white" fill-opacity="0.1"/>
<path d="M37.278 663.908C37.344 664.113 37.4357 664.311 37.553 664.502C37.6703 664.693 37.817 664.865 37.993 665.019C38.169 665.173 38.3817 665.294 38.631 665.382C38.8803 665.47 39.1737 665.514 39.511 665.514C40.193 665.514 40.721 665.298 41.095 664.865C41.4763 664.425 41.6633 663.857 41.656 663.16C41.6487 662.493 41.4653 661.968 41.106 661.587C40.754 661.206 40.27 661.015 39.654 661.015C39.258 661.015 38.917 661.085 38.631 661.224C38.345 661.363 38.1103 661.525 37.927 661.708C37.751 661.891 37.6263 662.06 37.553 662.214L34.836 661.224L36.123 653.48H44.285V656.34H38.884L38.433 659.079C38.4697 659.028 38.5833 658.947 38.774 658.837C38.972 658.727 39.2287 658.628 39.544 658.54C39.8667 658.445 40.2297 658.397 40.633 658.397C41.3517 658.397 42.041 658.555 42.701 658.87C43.361 659.185 43.9037 659.68 44.329 660.355C44.7543 661.03 44.967 661.902 44.967 662.973C44.967 664.044 44.736 664.979 44.274 665.778C43.8193 666.57 43.1923 667.182 42.393 667.615C41.5937 668.048 40.677 668.264 39.643 668.264C38.8583 668.264 38.169 668.172 37.575 667.989C36.9883 667.798 36.486 667.549 36.068 667.241C35.65 666.933 35.309 666.599 35.045 666.24C34.7883 665.873 34.594 665.514 34.462 665.162L37.278 663.908Z" fill="white"/>
<path d="M65.125 669H63.2969L67.3594 657.688H69.3438L73.4219 669H71.5938L70.5625 666.016H66.1562L65.125 669ZM66.6484 664.578H70.0625L68.3906 659.75H68.3125L66.6484 664.578ZM74.7969 669V660.516H76.4688V669H74.7969ZM74.5781 658.219C74.5859 657.672 75.0625 657.234 75.6406 657.234C76.2109 657.234 76.6875 657.672 76.6875 658.219C76.6875 658.766 76.2109 659.211 75.6406 659.203C75.0625 659.211 74.5859 658.766 74.5781 658.219ZM78.5 669V660.516H80.1094V661.859H80.2031C80.5156 660.953 81.3672 660.383 82.3594 660.391C82.5625 660.383 82.8906 660.406 83.0625 660.422V662.016C82.9219 661.984 82.5312 661.914 82.1875 661.922C81.0312 661.914 80.1719 662.719 80.1719 663.828V669H78.5ZM83.8281 666.609C83.8203 664.672 85.4688 664.172 87 664.062C87.5625 664.031 88.8359 663.961 89.2266 663.945L89.2188 663.266C89.2266 662.305 88.6328 661.75 87.5 661.75C86.5156 661.75 85.9219 662.203 85.75 662.828H84.0938C84.2422 661.422 85.5547 660.406 87.5625 660.406C88.9141 660.406 90.8828 660.898 90.8906 663.359V669H89.2656V667.844H89.2031C88.875 668.477 88.0938 669.188 86.6875 669.188C85.0781 669.188 83.8203 668.266 83.8281 666.609ZM85.4531 666.625C85.4531 667.438 86.125 667.852 87.0625 667.859C88.4219 667.852 89.2344 666.945 89.2344 665.938L89.2266 665.164C88.8438 665.188 87.6328 665.273 87.2344 665.297C86.1406 665.375 85.4531 665.789 85.4531 666.625Z" fill="white"/>
<circle cx="196.5" cy="707.5" r="3.5" fill="#D9D9D9"/>
<circle cx="211.5" cy="707.5" r="3.5" fill="#D9D9D9"/>
<circle cx="181.5" cy="707.5" r="3.5" fill="#6DFCAF"/>
<path d="M288.703 121V119.898L291.703 117.004C292.559 116.148 293.004 115.645 293.004 114.93C293.004 114.139 292.377 113.641 291.551 113.641C290.678 113.641 290.115 114.186 290.121 115.047H288.668C288.662 113.441 289.869 112.398 291.562 112.398C293.297 112.398 294.463 113.436 294.469 114.859C294.463 115.814 294.006 116.588 292.336 118.164L290.824 119.664V119.723H294.598V121H288.703ZM299.062 121.117C297.018 121.117 295.799 119.535 295.805 116.758C295.799 113.992 297.029 112.398 299.062 112.398C301.096 112.398 302.32 113.992 302.32 116.758C302.32 119.541 301.102 121.117 299.062 121.117ZM297.34 116.758C297.34 118.797 297.996 119.834 299.062 119.84C300.123 119.834 300.785 118.797 300.785 116.758C300.779 114.736 300.123 113.67 299.062 113.664C298.002 113.67 297.346 114.736 297.34 116.758ZM303.598 121V119.898L306.598 117.004C307.453 116.148 307.898 115.645 307.898 114.93C307.898 114.139 307.271 113.641 306.445 113.641C305.572 113.641 305.01 114.186 305.016 115.047H303.562C303.557 113.441 304.764 112.398 306.457 112.398C308.191 112.398 309.357 113.436 309.363 114.859C309.357 115.814 308.9 116.588 307.23 118.164L305.719 119.664V119.723H309.492V121H303.598ZM313.91 121.117C312.1 121.117 310.805 120.133 310.77 118.703H312.305C312.346 119.383 313.025 119.834 313.91 119.828C314.842 119.834 315.516 119.318 315.516 118.562C315.516 117.801 314.859 117.256 313.758 117.25H312.996V116.078H313.758C314.66 116.078 315.287 115.574 315.281 114.836C315.287 114.121 314.748 113.641 313.922 113.641C313.125 113.641 312.439 114.086 312.41 114.801H310.945C310.98 113.377 312.275 112.398 313.934 112.398C315.656 112.398 316.77 113.453 316.758 114.754C316.77 115.703 316.137 116.389 315.211 116.582V116.652C316.406 116.811 317.086 117.578 317.074 118.645C317.086 120.08 315.744 121.117 313.91 121.117ZM319.09 121.094C318.586 121.094 318.17 120.684 318.176 120.18C318.17 119.688 318.586 119.283 319.09 119.277C319.576 119.283 319.992 119.688 319.992 120.18C319.992 120.684 319.576 121.094 319.09 121.094ZM324.211 121.117C322.166 121.117 320.947 119.535 320.953 116.758C320.947 113.992 322.178 112.398 324.211 112.398C326.244 112.398 327.469 113.992 327.469 116.758C327.469 119.541 326.25 121.117 324.211 121.117ZM322.488 116.758C322.488 118.797 323.145 119.834 324.211 119.84C325.271 119.834 325.934 118.797 325.934 116.758C325.928 114.736 325.271 113.67 324.211 113.664C323.15 113.67 322.494 114.736 322.488 116.758ZM332.191 112.516V121H330.656V114.004H330.609L328.629 115.27V113.875L330.727 112.516H332.191ZM334.723 121.094C334.219 121.094 333.803 120.684 333.809 120.18C333.803 119.688 334.219 119.283 334.723 119.277C335.209 119.283 335.625 119.688 335.625 120.18C335.625 120.684 335.209 121.094 334.723 121.094ZM339.855 121.117C338.045 121.117 336.75 120.133 336.715 118.703H338.25C338.291 119.383 338.971 119.834 339.855 119.828C340.787 119.834 341.461 119.318 341.461 118.562C341.461 117.801 340.805 117.256 339.703 117.25H338.941V116.078H339.703C340.605 116.078 341.232 115.574 341.227 114.836C341.232 114.121 340.693 113.641 339.867 113.641C339.07 113.641 338.385 114.086 338.355 114.801H336.891C336.926 113.377 338.221 112.398 339.879 112.398C341.602 112.398 342.715 113.453 342.703 114.754C342.715 115.703 342.082 116.389 341.156 116.582V116.652C342.352 116.811 343.031 117.578 343.02 118.645C343.031 120.08 341.689 121.117 339.855 121.117ZM347.801 112.516V121H346.266V114.004H346.219L344.238 115.27V113.875L346.336 112.516H347.801ZM361.207 111.449V122.043H359.895V111.449H361.207ZM352.43 119.125C355.207 117.807 356.484 116.014 356.719 113.605H352.969V112.574H358.043C358.043 115.727 356.818 118.404 353.109 120.168L352.43 119.125ZM371.52 111.93V112.973H368.449C368.566 113.975 369.861 114.924 371.906 115.164L371.414 116.195C369.516 115.967 368.115 115.129 367.547 113.986C366.979 115.123 365.59 115.967 363.691 116.195L363.211 115.164C365.256 114.924 366.533 113.969 366.656 112.973H363.609V111.93H371.52ZM362.719 117.836V116.781H372.398V117.836H368.309V119.77H367.02V117.836H362.719ZM363.891 121.832V118.797H365.191V120.777H371.332V121.832H363.891Z" fill="#707070"/>
<rect y="769" width="393" height="83" fill="#3F3F3F"/>
<path d="M40 794L49 787L58 794V805C58 805.53 57.7893 806.039 57.4142 806.414C57.0391 806.789 56.5304 807 56 807H42C41.4696 807 40.9609 806.789 40.5858 806.414C40.2107 806.039 40 805.53 40 805V794Z" stroke="white" stroke-width="2" stroke-linecap="round" stroke-linejoin="round"/>
<path d="M46 807V797H52V807" stroke="white" stroke-width="2" stroke-linecap="round" stroke-linejoin="round"/>
<path d="M122 796V792M127 796V792M132 787H114V803H119V807L123 803H128L132 799V787Z" stroke="white" stroke-width="2" stroke-linecap="round" stroke-linejoin="round"/>
<path d="M201 806V804C201 802.939 200.579 801.922 199.828 801.172C199.078 800.421 198.061 800 197 800H189C187.939 800 186.922 800.421 186.172 801.172C185.421 801.922 185 802.939 185 804V806" stroke="white" stroke-width="2" stroke-linecap="round" stroke-linejoin="round"/>
<path d="M193 796C195.209 796 197 794.209 197 792C197 789.791 195.209 788 193 788C190.791 788 189 789.791 189 792C189 794.209 190.791 796 193 796Z" stroke="white" stroke-width="2" stroke-linecap="round" stroke-linejoin="round"/>
<path d="M207 806V804C206.999 803.114 206.704 802.253 206.161 801.552C205.618 800.852 204.858 800.352 204 800.13" stroke="white" stroke-width="2" stroke-linecap="round" stroke-linejoin="round"/>
<path d="M200 788.13C200.86 788.35 201.623 788.851 202.168 789.552C202.712 790.254 203.008 791.117 203.008 792.005C203.008 792.893 202.712 793.756 202.168 794.458C201.623 795.159 200.86 795.66 200 795.88" stroke="white" stroke-width="2" stroke-linecap="round" stroke-linejoin="round"/>
<path d="M278 796.5C278.003 797.82 277.695 799.122 277.1 800.3C276.394 801.712 275.31 802.899 273.967 803.729C272.625 804.559 271.078 804.999 269.5 805C268.18 805.003 266.878 804.695 265.7 804.1L260 806L261.9 800.3C261.305 799.122 260.997 797.82 261 796.5C261.001 794.922 261.441 793.375 262.271 792.033C263.101 790.69 264.288 789.606 265.7 788.9C266.878 788.305 268.18 787.997 269.5 788H270C272.084 788.115 274.053 788.995 275.529 790.471C277.005 791.947 277.885 793.916 278 796V796.5Z" stroke="white" stroke-width="2" stroke-linecap="round" stroke-linejoin="round"/>
<path d="M349 793C349 791.409 348.368 789.883 347.243 788.757C346.117 787.632 344.591 787 343 787C341.409 787 339.883 787.632 338.757 788.757C337.632 789.883 337 791.409 337 793C337 800 334 802 334 802H352C352 802 349 800 349 793Z" stroke="white" stroke-width="2" stroke-linecap="round" stroke-linejoin="round"/>
<path d="M344.73 806C344.554 806.303 344.302 806.555 343.998 806.73C343.695 806.904 343.35 806.996 343 806.996C342.65 806.996 342.305 806.904 342.002 806.73C341.698 806.555 341.446 806.303 341.27 806" stroke="white" stroke-width="2" stroke-linecap="round" stroke-linejoin="round"/>
<defs>
<filter id="filter0_d_1925_3304" x="16" y="156" width="361" height="50" filterUnits="userSpaceOnUse" color-interpolation-filters="sRGB">
<feFlood flood-opacity="0" result="BackgroundImageFix"/>
<feColorMatrix in="SourceAlpha" type="matrix" values="0 0 0 0 0 0 0 0 0 0 0 0 0 0 0 0 0 0 127 0" result="hardAlpha"/>
<feOffset dy="4"/>
<feGaussianBlur stdDeviation="2"/>
<feComposite in2="hardAlpha" operator="out"/>
<feColorMatrix type="matrix" values="0 0 0 0 0 0 0 0 0 0 0 0 0 0 0 0 0 0 0.25 0"/>
<feBlend mode="normal" in2="BackgroundImageFix" result="effect1_dropShadow_1925_3304"/>
<feBlend mode="normal" in="SourceGraphic" in2="effect1_dropShadow_1925_3304" result="shape"/>
</filter>
<filter id="filter1_d_1925_3304" x="16" y="426" width="361" height="50" filterUnits="userSpaceOnUse" color-interpolation-filters="sRGB">
<feFlood flood-opacity="0" result="BackgroundImageFix"/>
<feColorMatrix in="SourceAlpha" type="matrix" values="0 0 0 0 0 0 0 0 0 0 0 0 0 0 0 0 0 0 127 0" result="hardAlpha"/>
<feOffset dy="4"/>
<feGaussianBlur stdDeviation="2"/>
<feComposite in2="hardAlpha" operator="out"/>
<feColorMatrix type="matrix" values="0 0 0 0 0 0 0 0 0 0 0 0 0 0 0 0 0 0 0.25 0"/>
<feBlend mode="normal" in2="BackgroundImageFix" result="effect1_dropShadow_1925_3304"/>
<feBlend mode="normal" in="SourceGraphic" in2="effect1_dropShadow_1925_3304" result="shape"/>
</filter>
</defs>
</svg>
