<svg width="32" height="32" viewBox="0 0 32 32" fill="none" xmlns="http://www.w3.org/2000/svg">
<path d="M8.5 10.9986V6.95855C8.5 6.66855 8.62 6.38855 8.82 6.18855L9.5 5.51855L10.18 6.18855C10.38 6.38855 10.5 6.66855 10.5 6.95855V10.9986H8.5ZM15 10.9986V6.95855C15 6.66855 15.12 6.38855 15.32 6.18855L16 5.51855L16.68 6.18855C16.88 6.38855 17 6.66855 17 6.95855V10.9986H15ZM21.5 6.95855V10.9986H23.5V6.95855C23.5 6.66855 23.39 6.38855 23.18 6.18855L22.5 5.51855L21.82 6.18855C21.62 6.38855 21.5 6.66855 21.5 6.95855Z" fill="#26EAFC"/>
<path d="M10.78 3.72848L9.88002 2.21848C9.83994 2.15224 9.78344 2.09746 9.716 2.05944C9.64856 2.02142 9.57244 2.00145 9.49502 2.00145C9.4176 2.00145 9.34149 2.02142 9.27404 2.05944C9.2066 2.09746 9.1501 2.15224 9.11002 2.21848L8.22002 3.72848C8.05002 4.00848 7.97002 4.33848 8.01002 4.68848C8.09002 5.37848 8.64002 5.92848 9.33002 5.99848C10.23 6.09848 11 5.39848 11 4.50848C10.9899 4.23466 10.9144 3.96724 10.78 3.72848ZM17.28 3.72848L16.39 2.21848C16.3499 2.15224 16.2934 2.09746 16.226 2.05944C16.1586 2.02142 16.0824 2.00145 16.005 2.00145C15.9276 2.00145 15.8515 2.02142 15.784 2.05944C15.7166 2.09746 15.6601 2.15224 15.62 2.21848L14.73 3.72848C14.56 3.99848 14.48 4.33848 14.52 4.68848C14.6 5.36848 15.15 5.91848 15.84 5.99848C16.74 6.09848 17.51 5.39848 17.51 4.50848C17.5 4.22848 17.42 3.95848 17.28 3.72848ZM22.89 2.21848L23.78 3.72848C23.92 3.95848 24 4.22848 24 4.50848C24 5.39848 23.24 6.09848 22.33 5.99848C21.65 5.92848 21.1 5.37848 21.02 4.68848C20.98 4.33848 21.06 3.99848 21.23 3.72848L22.12 2.21848C22.29 1.92848 22.72 1.92848 22.89 2.21848Z" fill="#FCD53F"/>
<path d="M9.50002 3.1377L10.11 3.9177C10.2065 4.0177 10.277 4.13985 10.3152 4.27343C10.3535 4.40701 10.3584 4.54794 10.3294 4.68385C10.3005 4.81976 10.2387 4.9465 10.1494 5.05294C10.06 5.15938 9.94595 5.24226 9.81712 5.29433C9.68829 5.34639 9.54865 5.36603 9.41046 5.35154C9.27226 5.33704 9.13974 5.28885 9.02451 5.21119C8.90929 5.13352 8.81489 5.02877 8.74959 4.90611C8.6843 4.78346 8.65011 4.64665 8.65002 4.5077C8.65002 4.2777 8.74003 4.0777 8.89003 3.9177L9.50002 3.1377ZM16.61 3.9177L16 3.1377L15.39 3.9277C15.293 4.02768 15.222 4.14999 15.1834 4.28384C15.1447 4.4177 15.1396 4.55901 15.1684 4.69532C15.1972 4.83164 15.259 4.95879 15.3485 5.06558C15.438 5.17237 15.5524 5.25552 15.6816 5.30772C15.8107 5.35992 15.9508 5.37957 16.0893 5.36494C16.2279 5.3503 16.3607 5.30183 16.4761 5.22379C16.5915 5.14576 16.686 5.04054 16.7512 4.91742C16.8164 4.79429 16.8503 4.65702 16.85 4.5177C16.85 4.2777 16.76 4.0777 16.61 3.9177ZM23.11 3.9177L22.5 3.1377L21.89 3.9277C21.793 4.02768 21.722 4.14999 21.6834 4.28384C21.6447 4.4177 21.6396 4.55901 21.6684 4.69532C21.6972 4.83164 21.759 4.95879 21.8485 5.06558C21.938 5.17237 22.0524 5.25552 22.1816 5.30772C22.3107 5.35992 22.4508 5.37957 22.5893 5.36494C22.7279 5.3503 22.8607 5.30183 22.9761 5.22379C23.0915 5.14576 23.186 5.04054 23.2512 4.91742C23.3164 4.79429 23.3503 4.65702 23.35 4.5177C23.35 4.2777 23.26 4.0777 23.11 3.9177Z" fill="#FFB02E"/>
<path d="M27.75 29.998H4.25C3.56 29.998 3 29.438 3 28.748V14.998H29V28.748C29 29.438 28.44 29.998 27.75 29.998Z" fill="#D3883E"/>
<path d="M2 12C2 11.2044 2.31607 10.4413 2.87868 9.87868C3.44129 9.31607 4.20435 9 5 9H27.01C27.8056 9 28.5687 9.31607 29.1313 9.87868C29.6939 10.4413 30.01 11.2044 30.01 12V17.557C30.01 18.377 28.97 18.757 28.45 18.117C27.94 17.487 27.02 17.387 26.39 17.887L26.15 18.077C25.4457 18.6261 24.5781 18.9244 23.685 18.9244C22.7919 18.9244 21.9243 18.6261 21.22 18.077L20.76 17.717C20.22 17.297 19.47 17.297 18.93 17.717L18.47 18.077C17.7657 18.6261 16.8981 18.9244 16.005 18.9244C15.1119 18.9244 14.2443 18.6261 13.54 18.077L13.08 17.717C12.54 17.297 11.79 17.297 11.25 17.717L10.79 18.077C10.0857 18.6261 9.21812 18.9244 8.325 18.9244C7.43188 18.9244 6.56434 18.6261 5.86 18.077L5.62 17.887C4.99 17.397 4.07 17.497 3.56 18.117C3.03 18.747 2 18.377 2 17.557V12ZM3 21.997H29V23.997H3V21.997Z" fill="#FFDEA7"/>
<path d="M15.15 11.15C14.95 11.35 14.95 11.66 15.15 11.86L15.89 12.6C16.09 12.8 16.4 12.8 16.6 12.6C16.8 12.4 16.8 12.09 16.6 11.89L15.86 11.15C15.66 10.95 15.34 10.95 15.15 11.15Z" fill="#00A6ED"/>
<path d="M6.85402 11.1466C6.76013 11.0527 6.6328 11 6.50002 11C6.36725 11 6.23991 11.0527 6.14602 11.1466C6.05213 11.2405 5.99939 11.3679 5.99939 11.5006C5.99939 11.6334 6.05213 11.7607 6.14602 11.8546L7.14602 12.8546C7.23991 12.9485 7.36725 13.0013 7.50002 13.0013C7.6328 13.0013 7.76013 12.9485 7.85402 12.8546C7.94791 12.7607 8.00065 12.6334 8.00065 12.5006C8.00065 12.3679 7.94791 12.2405 7.85402 12.1466L6.85402 11.1466ZM19.854 14.1466C19.7601 14.0527 19.6328 14 19.5 14C19.3672 14 19.2399 14.0527 19.146 14.1466C19.0521 14.2405 18.9994 14.3679 18.9994 14.5006C18.9994 14.6334 19.0521 14.7607 19.146 14.8546L20.146 15.8546C20.2399 15.9485 20.3672 16.0013 20.5 16.0013C20.6328 16.0013 20.7601 15.9485 20.854 15.8546C20.9479 15.7607 21.0007 15.6334 21.0007 15.5006C21.0007 15.3679 20.9479 15.2405 20.854 15.1466L19.854 14.1466Z" fill="#FF6DC6"/>
<path d="M25.854 11.8546C25.9479 11.7607 26.0007 11.6334 26.0007 11.5006C26.0007 11.3679 25.9479 11.2405 25.854 11.1466C25.7601 11.0527 25.6328 11 25.5 11C25.3672 11 25.2399 11.0527 25.146 11.1466L24.146 12.1466C24.0521 12.2405 23.9994 12.3679 23.9994 12.5006C23.9994 12.6334 24.0521 12.7607 24.146 12.8546C24.2399 12.9485 24.3672 13.0013 24.5 13.0013C24.6328 13.0013 24.7601 12.9485 24.854 12.8546L25.854 11.8546ZM11.854 14.8546C11.9479 14.7607 12.0007 14.6334 12.0007 14.5006C12.0007 14.3679 11.9479 14.2405 11.854 14.1466C11.7601 14.0527 11.6328 14 11.5 14C11.3672 14 11.2399 14.0527 11.146 14.1466L10.146 15.1466C10.0521 15.2405 9.99939 15.3679 9.99939 15.5006C9.99939 15.6334 10.0521 15.7607 10.146 15.8546C10.2399 15.9485 10.3672 16.0013 10.5 16.0013C10.6328 16.0013 10.7601 15.9485 10.854 15.8546L11.854 14.8546Z" fill="#FF822D"/>
<path d="M15.146 11.1469C15.1925 11.1003 15.2477 11.0634 15.3084 11.0382C15.3692 11.013 15.4343 11 15.5 11C15.5658 11 15.6309 11.013 15.6917 11.0382C15.7524 11.0634 15.8076 11.1003 15.854 11.1469L16.854 12.1469C16.9479 12.2408 17.0007 12.3681 17.0007 12.5009C17.0007 12.6337 16.9479 12.761 16.854 12.8549C16.7602 12.9488 16.6328 13.0015 16.5 13.0015C16.3673 13.0015 16.2399 12.9488 16.146 12.8549L15.146 11.8549C15.0995 11.8084 15.0625 11.7533 15.0373 11.6925C15.0121 11.6318 14.9991 11.5667 14.9991 11.5009C14.9991 11.4351 15.0121 11.37 15.0373 11.3093C15.0625 11.2485 15.0995 11.1933 15.146 11.1469Z" fill="#00A6ED"/>
</svg>
