<svg width="512" height="512" viewBox="0 0 512 512" fill="none" xmlns="http://www.w3.org/2000/svg">
<path d="M511.824 425.007C513.765 419.762 290.908 251.488 290.908 251.488C263.008 230.899 248.334 230.575 220.744 251.488C220.744 251.488 -1.78796 419.626 0.0850391 424.799L0.0400391 424.837C0.0630391 424.882 0.100039 424.913 0.131039 424.954C2.01797 430.098 4.76319 434.885 8.25004 439.111C9.72304 440.897 11.498 442.393 13.205 443.948L13.122 444.012C13.258 444.133 13.439 444.189 13.575 444.31C20.81 450.764 29.934 454.944 40.07 456.137C40.229 456.156 40.357 456.239 40.516 456.258H41.128C42.669 456.405 44.134 456.775 45.712 456.775H466.433C487.15 456.775 504.702 443.747 511.674 425.484C511.757 425.348 511.885 425.25 511.961 425.11L511.824 425.007Z" fill="#96A9B2"/>
<path d="M256.133 232.176L1.21606 423.364V152.515C1.21606 126.115 22.6131 104.718 49.0131 104.718H463.253C489.653 104.718 511.05 126.115 511.05 152.515V423.364L256.133 232.176Z" fill="#B9C5C6"/>
<path d="M4.18896 135.896L221.834 306.845C249.304 327.116 263.752 327.436 290.917 306.845L508.22 136.167C504.45 129.333 498.806 123.934 492.351 119.629L495.34 117.287C488.045 110.646 478.72 106.341 468.369 105.229L43.914 105.244C33.592 106.341 24.252 110.661 16.972 117.287L19.939 119.6C13.559 123.845 7.96696 129.151 4.18896 135.896Z" fill="#EDECE6"/>
<path d="M4.11789 136.254C2.20689 141.419 221.63 307.099 221.63 307.099C249.1 327.37 263.548 327.69 290.713 307.099C290.713 307.099 509.816 141.553 507.971 136.459L508.016 136.422C507.994 136.377 507.957 136.348 507.927 136.307C506.069 131.242 503.366 126.529 499.933 122.368C498.483 120.609 496.735 119.137 495.055 117.605L495.137 117.542C495.003 117.423 494.825 117.367 494.691 117.248C487.567 110.894 478.584 106.778 468.605 105.603C468.449 105.584 468.322 105.503 468.166 105.484H467.564C466.047 105.339 464.604 104.975 463.05 104.975H48.8099C28.4119 104.975 11.1299 117.803 4.26689 135.784C4.18489 135.918 4.05889 136.015 3.98389 136.152L4.11789 136.254Z" fill="#DCE2E2"/>
<path d="M291.401 154.645H252.769C251.137 154.645 249.571 155.293 248.417 156.447C247.263 157.602 246.614 159.167 246.614 160.8V182.522C246.614 184.154 247.263 185.72 248.417 186.874C249.571 188.028 251.137 188.677 252.769 188.677H284.184C285.816 188.677 287.382 189.325 288.536 190.479C289.691 191.634 290.339 193.199 290.339 194.832V206.448C290.339 208.08 289.691 209.646 288.536 210.8C287.382 211.954 285.816 212.603 284.184 212.603H252.769C251.137 212.603 249.571 213.251 248.417 214.405C247.263 215.56 246.614 217.125 246.614 218.758V242.336C246.614 243.968 247.263 245.534 248.417 246.688C249.571 247.842 251.137 248.491 252.769 248.491H294.085C295.717 248.491 297.283 249.139 298.437 250.293C299.592 251.448 300.24 253.013 300.24 254.646V267.087C300.24 268.719 299.592 270.285 298.437 271.439C297.283 272.593 295.717 273.242 294.085 273.242H218.325C216.693 273.242 215.127 272.593 213.973 271.439C212.819 270.285 212.17 268.719 212.17 267.087V136.461C212.17 134.828 212.819 133.263 213.973 132.108C215.127 130.954 216.693 130.306 218.325 130.306H293.135C296.884 130.306 299.762 133.628 299.227 137.339L297.494 149.367C297.283 150.832 296.551 152.172 295.432 153.142C294.313 154.111 292.882 154.645 291.401 154.645Z" fill="#597B91"/>
</svg>
