<svg width="64" height="64" viewBox="0 0 64 64" fill="none" xmlns="http://www.w3.org/2000/svg">
<path d="M50 4.1C50 2.1 47.9 0 45.7 0H18.3C16.1 0 14 2.1 14 4.1V59.8C14 61.9 16.1 63.9 18.3 63.9H45.8C47.9 63.9 50.1 61.8 50.1 59.8V4.1H50Z" fill="#5C6D6D"/>
<path d="M49 59C49 61 47 63 45 63H19C17 63 15 61 15 59V5C15 3 17 1 19 1H45C47 1 49 3 49 5V59Z" fill="#212528"/>
<path d="M43.5 5.5C44.0523 5.5 44.5 5.05228 44.5 4.5C44.5 3.94772 44.0523 3.5 43.5 3.5C42.9477 3.5 42.5 3.94772 42.5 4.5C42.5 5.05228 42.9477 5.5 43.5 5.5Z" fill="#94989B"/>
<path d="M35 4.5C35 4.8 34.9 5 34.7 5H29.3C29.1 5 29 4.8 29 4.5C29 4.3 29.1 4 29.3 4H34.7C34.9 4 35 4.3 35 4.5Z" fill="#94989B"/>
<path d="M17 8H47V56H17V8Z" fill="#3E4347"/>
<path d="M35.7999 60.2004C35.7999 60.6004 35.5 61.0004 35 61.0004H29C28.6 61.0004 28.2 60.7004 28.2 60.2004V58.7004C28.2 58.3004 28.5 57.9004 29 57.9004H35C35.4 57.9004 35.7999 58.2004 35.7999 58.7004V60.2004Z" fill="#94989B"/>
<path d="M24 14.6996C24 15.1996 23.6 15.4996 23.2 15.4996H19.9C19.4 15.4996 19.1 15.0996 19.1 14.6996V11.3996C19.1 10.8996 19.5 10.5996 19.9 10.5996H23.2C23.7 10.5996 24 10.9996 24 11.3996V14.6996Z" fill="#42ADE2"/>
<path d="M31 14.6996C31 15.1996 30.6 15.4996 30.2 15.4996H26.9C26.4 15.4996 26.1 15.0996 26.1 14.6996V11.3996C26.1 10.8996 26.5 10.5996 26.9 10.5996H30.2C30.7 10.5996 31 10.9996 31 11.3996V14.6996Z" fill="#C7E755"/>
<path d="M38 14.6996C38 15.1996 37.6 15.4996 37.2 15.4996H33.9C33.4 15.4996 33.1 15.0996 33.1 14.6996V11.3996C33.1 10.8996 33.5 10.5996 33.9 10.5996H37.2C37.7 10.5996 38 10.9996 38 11.3996V14.6996Z" fill="#F2B200"/>
<path d="M45 14.6996C45 15.1996 44.6 15.4996 44.2 15.4996H40.9C40.4 15.4996 40.1 15.0996 40.1 14.6996V11.3996C40.1 10.8996 40.5 10.5996 40.9 10.5996H44.2C44.7 10.5996 45 10.9996 45 11.3996V14.6996Z" fill="#42ADE2"/>
<path d="M24 53.1996C24 53.6996 23.6 53.9996 23.2 53.9996H19.9C19.4 53.9996 19.1 53.5996 19.1 53.1996V49.8996C19.1 49.3996 19.5 49.0996 19.9 49.0996H23.2C23.7 49.0996 24 49.4996 24 49.8996V53.1996Z" fill="#C7E755"/>
<path d="M31 53.1996C31 53.6996 30.6 53.9996 30.2 53.9996H26.9C26.4 53.9996 26.1 53.5996 26.1 53.1996V49.8996C26.1 49.3996 26.5 49.0996 26.9 49.0996H30.2C30.7 49.0996 31 49.4996 31 49.8996V53.1996Z" fill="#FF435E"/>
<path d="M38 53.1996C38 53.6996 37.6 53.9996 37.2 53.9996H33.9C33.4 53.9996 33.1 53.5996 33.1 53.1996V49.8996C33.1 49.3996 33.5 49.0996 33.9 49.0996H37.2C37.7 49.0996 38 49.4996 38 49.8996V53.1996Z" fill="#42ADE2"/>
<path d="M45 53.1996C45 53.6996 44.6 53.9996 44.2 53.9996H40.9C40.4 53.9996 40.1 53.5996 40.1 53.1996V49.8996C40.1 49.3996 40.5 49.0996 40.9 49.0996H44.2C44.7 49.0996 45 49.4996 45 49.8996V53.1996Z" fill="#C28FEF"/>
<path d="M24 33.8998C24 34.3998 23.6 34.6998 23.2 34.6998H19.9C19.4 34.6998 19.1 34.2998 19.1 33.8998V30.5998C19.1 30.0998 19.5 29.7998 19.9 29.7998H23.2C23.7 29.7998 24 30.1998 24 30.5998V33.8998Z" fill="#C7E755"/>
<path d="M31 33.8998C31 34.3998 30.6 34.6998 30.2 34.6998H26.9C26.4 34.6998 26.1 34.2998 26.1 33.8998V30.5998C26.1 30.0998 26.5 29.7998 26.9 29.7998H30.2C30.7 29.7998 31 30.1998 31 30.5998V33.8998Z" fill="#C28FEF"/>
<path d="M38 33.8998C38 34.3998 37.6 34.6998 37.2 34.6998H33.9C33.4 34.6998 33.1 34.2998 33.1 33.8998V30.5998C33.1 30.0998 33.5 29.7998 33.9 29.7998H37.2C37.7 29.7998 38 30.1998 38 30.5998V33.8998Z" fill="#42ADE2"/>
<path d="M24 27.5004C24 28.0004 23.6 28.3004 23.2 28.3004H19.9C19.4 28.3004 19.1 27.9004 19.1 27.5004V24.2004C19.1 23.7004 19.5 23.4004 19.9 23.4004H23.2C23.7 23.4004 24 23.8004 24 24.2004V27.5004Z" fill="#FF435E"/>
<path d="M31 27.5004C31 28.0004 30.6 28.3004 30.2 28.3004H26.9C26.4 28.3004 26.1 27.9004 26.1 27.5004V24.2004C26.1 23.7004 26.5 23.4004 26.9 23.4004H30.2C30.7 23.4004 31 23.8004 31 24.2004V27.5004Z" fill="#F2B200"/>
<path d="M38 27.5004C38 28.0004 37.6 28.3004 37.2 28.3004H33.9C33.4 28.3004 33.1 27.9004 33.1 27.5004V24.2004C33.1 23.7004 33.5 23.4004 33.9 23.4004H37.2C37.7 23.4004 38 23.8004 38 24.2004V27.5004Z" fill="#C7E755"/>
<path d="M45 27.5004C45 28.0004 44.6 28.3004 44.2 28.3004H40.9C40.4 28.3004 40.1 27.9004 40.1 27.5004V24.2004C40.1 23.7004 40.5 23.4004 40.9 23.4004H44.2C44.7 23.4004 45 23.8004 45 24.2004V27.5004Z" fill="#F2B200"/>
<path d="M24 21.1C24 21.6 23.6 21.9 23.2 21.9H19.9C19.4 21.9 19.1 21.5 19.1 21.1V17.8C19.1 17.3 19.5 17 19.9 17H23.2C23.7 17 24 17.4 24 17.8V21.1Z" fill="#C28FEF"/>
<path d="M31 21.1C31 21.6 30.6 21.9 30.2 21.9H26.9C26.4 21.9 26.1 21.5 26.1 21.1V17.8C26.1 17.3 26.5 17 26.9 17H30.2C30.7 17 31 17.4 31 17.8V21.1Z" fill="#42ADE2"/>
<path d="M38 21.1C38 21.6 37.6 21.9 37.2 21.9H33.9C33.4 21.9 33.1 21.5 33.1 21.1V17.8C33.1 17.3 33.5 17 33.9 17H37.2C37.7 17 38 17.4 38 17.8V21.1Z" fill="#FF435E"/>
<path d="M45 21.1C45 21.6 44.6 21.9 44.2 21.9H40.9C40.4 21.9 40.1 21.5 40.1 21.1V17.8C40.1 17.3 40.5 17 40.9 17H44.2C44.7 17 45 17.4 45 17.8V21.1Z" fill="#C28FEF"/>
</svg>
