<svg width="284" height="284" viewBox="0 0 284 284" fill="none" xmlns="http://www.w3.org/2000/svg">
<g clip-path="url(#clip0_1788_2)">
<path d="M141.646 186.901C141.646 186.901 175.234 187.019 186.842 186.842C222.61 187.255 250.011 141.823 250.011 141.823C250.011 141.823 222.787 96.5684 187.019 96.9809C159.796 96.6273 141.529 96.9809 141.529 96.9809C141.529 96.9809 123.615 69.6394 96.5095 69.6394L96.3327 214.184C123.615 214.007 141.646 186.901 141.646 186.901ZM185.841 125.029C188.031 125.028 190.2 125.459 192.224 126.296C194.247 127.134 196.086 128.362 197.635 129.911C199.184 131.46 200.412 133.299 201.25 135.322C202.087 137.346 202.518 139.515 202.517 141.705C202.515 145.001 201.536 148.222 199.704 150.961C197.872 153.701 195.269 155.836 192.224 157.096C189.179 158.356 185.828 158.685 182.596 158.042C179.364 157.399 176.395 155.812 174.065 153.481C171.734 151.151 170.147 148.182 169.504 144.95C168.861 141.718 169.19 138.367 170.45 135.322C171.71 132.277 173.845 129.674 176.585 127.842C179.324 126.01 182.545 125.031 185.841 125.029ZM35.934 142C47.1487 152.602 61.77 158.869 77.1819 159.678V124.322C59.5042 118.43 35.934 142 35.934 142Z" fill="#EEFFFF"/>
</g>
<defs>
<clipPath id="clip0_1788_2">
<rect width="200" height="200" fill="white" transform="translate(142 0.578644) rotate(45)"/>
</clipPath>
</defs>
</svg>
