<svg width="24" height="24" viewBox="0 0 24 24" fill="none" xmlns="http://www.w3.org/2000/svg">
<path d="M7.8601 3C7.4301 3 7.0111 3.056 6.6141 3.161C6.2651 3.253 6.1821 3.683 6.4371 3.937L8.1601 5.66C8.32426 5.82415 8.45447 6.01903 8.54331 6.23351C8.63215 6.44798 8.67787 6.67785 8.67787 6.91C8.67787 7.14215 8.63215 7.37202 8.54331 7.58649C8.45447 7.80097 8.32426 7.99585 8.1601 8.16C7.99595 8.32415 7.80107 8.45436 7.5866 8.5432C7.37212 8.63204 7.14225 8.67777 6.9101 8.67777C6.67796 8.67777 6.44808 8.63204 6.23361 8.5432C6.01913 8.45436 5.82426 8.32415 5.6601 8.16L3.9381 6.437C3.6831 6.182 3.2531 6.265 3.1611 6.614C2.93352 7.46961 2.94399 8.37114 3.19138 9.22124C3.43877 10.0713 3.91368 10.8377 4.56484 11.4376C5.21599 12.0375 6.01864 12.4481 6.88613 12.6251C7.75361 12.8021 8.65298 12.7388 9.4871 12.442C9.6871 12.371 9.9111 12.411 10.0601 12.56L18.2001 20.7C18.6001 21.1 19.2491 21.1 19.6481 20.7L20.7001 19.648C21.1001 19.248 21.1001 18.601 20.7001 18.201L12.5601 10.061C12.4101 9.911 12.3701 9.687 12.4411 9.488C12.7018 8.7546 12.7826 7.96929 12.6766 7.19817C12.5706 6.42705 12.281 5.69266 11.832 5.05681C11.383 4.42096 10.7879 3.90225 10.0967 3.54432C9.40553 3.18639 8.63848 2.99971 7.8601 3Z" stroke="#EEFFFF" stroke-width="1.5" stroke-linecap="round" stroke-linejoin="round"/>
</svg>
