<svg width="24" height="24" viewBox="0 0 24 24" fill="none" xmlns="http://www.w3.org/2000/svg">
<path fill-rule="evenodd" clip-rule="evenodd" d="M18.624 5.06401C18.8722 5.22951 19.0446 5.48684 19.1031 5.77939C19.1616 6.07195 19.1015 6.37576 18.936 6.62401L11.436 17.874C11.3436 18.0124 11.2217 18.1285 11.0791 18.2141C10.9364 18.2997 10.7765 18.3526 10.611 18.3689C10.4454 18.3853 10.2783 18.3647 10.1216 18.3087C9.96496 18.2527 9.82267 18.1626 9.70501 18.045L5.20501 13.545C5.00629 13.3317 4.89811 13.0497 4.90325 12.7582C4.90839 12.4668 5.02646 12.1887 5.23258 11.9826C5.4387 11.7765 5.71678 11.6584 6.00823 11.6532C6.29968 11.6481 6.58175 11.7563 6.79501 11.955L10.3245 15.4845L17.064 5.37451C17.2298 5.12652 17.4872 4.95451 17.7797 4.89628C18.0723 4.83806 18.3759 4.89839 18.624 5.06401Z" fill="#EEFFFF"/>
</svg>
