<svg width="450" height="450" viewBox="0 0 450 450" fill="none" xmlns="http://www.w3.org/2000/svg">
<rect width="450" height="450" fill="#884798"/>
<g clip-path="url(#clip0_202_16)">
<path d="M222.6 196.182V256.347L217.734 261.629V211.579H208.573L222.6 196.182ZM391.391 187C395.467 187 399.251 187.828 402.744 189.484C406.105 191.048 409.003 192.807 411.44 194.759L411.865 195.106L406.819 208.049C406.359 207.542 405.709 206.961 404.87 206.308L404.392 205.944L403.878 205.566L403.327 205.173C401.774 204.04 399.93 203.081 397.795 202.297C395.656 201.424 393.432 200.984 391.197 200.989C385.116 200.989 382.076 203.299 382.076 207.919C382.076 210.62 383.175 212.538 385.375 213.671L385.876 213.916L386.408 214.165L386.973 214.418L387.569 214.674L388.197 214.935L388.856 215.2C388.969 215.245 389.083 215.29 389.198 215.334L389.905 215.604L390.643 215.88L391.414 216.158L392.215 216.441L393.05 216.728L394.359 217.166L395.272 217.463C399.089 218.77 402.388 220.252 405.17 221.908C407.898 223.495 410.002 225.602 411.482 228.23L411.671 228.576C413.224 231.278 414 234.851 414 239.296C414 244.7 412.965 249.058 410.895 252.371C408.889 255.595 406.237 257.949 402.938 259.431C399.639 260.825 396.081 261.522 392.264 261.522C387.865 261.522 383.499 260.694 379.165 259.038C375.037 257.461 371.349 255.331 368.102 252.647L367.618 252.24L372.858 238.512C373.698 239.645 375.089 240.909 377.03 242.303C379.036 243.698 381.365 244.875 384.016 245.833C386.669 246.793 389.483 247.272 392.459 247.272C398.41 247.272 401.386 245.136 401.386 240.865C401.386 237.989 399.995 235.941 397.213 234.721L396.544 234.404L395.842 234.083L395.106 233.757L394.336 233.425L393.533 233.089L392.697 232.747L392.267 232.575L391.38 232.226L390.459 231.872L389.505 231.513L388.518 231.149L386.974 230.594L386.443 230.406C380.879 228.489 376.739 226.048 374.022 223.085C371.369 220.034 370.044 215.675 370.044 210.01C370.044 204.955 370.981 200.728 372.857 197.329C374.798 193.929 377.386 191.358 380.62 189.615C383.919 187.872 387.51 187 391.391 187ZM301.404 187.13C305.509 187.13 309.257 188.138 312.645 190.153L313.05 190.399C316.543 192.491 319.519 195.324 321.977 198.897C324.5 202.384 326.439 206.35 327.797 210.795C329.155 215.24 329.837 219.772 329.837 224.392C329.837 229.186 329.126 233.805 327.702 238.251C326.279 242.609 324.272 246.531 321.684 250.017C319.161 253.417 316.155 256.118 312.662 258.123C309.169 260.128 305.352 261.13 301.212 261.13C296.942 261.13 293.061 260.128 289.568 258.123C286.074 256.031 283.065 253.243 280.541 249.756C278.019 246.182 276.078 242.173 274.72 237.728C273.363 233.282 272.682 228.706 272.682 224C272.682 219.206 273.394 214.586 274.817 210.141C276.161 205.927 278.085 202.093 280.486 198.841L280.834 198.374C283.422 194.888 286.46 192.142 289.954 190.138C293.447 188.133 297.264 187.131 301.404 187.131M67.2827 187.524L90.862 260.608H78.4422L73.0079 243.48H51.9513L46.5177 260.607H34L57.6758 187.523L67.2827 187.524ZM136.737 187.524L151.681 213.41L166.624 187.523H179.335L157.89 224.523L178.656 260.607H165.945L151.68 235.767L137.514 260.607H124.608L145.471 224.523L123.929 187.523L136.737 187.524ZM231.501 187.188V236.093H240.918L226.642 251.877V191.744L231.501 187.188ZM301.213 201.251C297.655 201.251 294.612 202.384 292.09 204.65C289.631 206.916 287.755 209.792 286.462 213.279C285.167 216.765 284.521 220.383 284.521 224.131C284.521 228.053 285.202 231.801 286.56 235.374C287.917 238.861 289.825 241.694 292.283 243.872C294.807 246.052 297.814 247.141 301.308 247.141C304.866 247.141 307.874 246.008 310.332 243.741C312.792 241.388 314.666 238.468 315.96 234.981C317.254 231.408 317.902 227.748 317.902 224C317.902 220.078 317.223 216.373 315.865 212.887C314.507 209.4 312.566 206.611 310.041 204.519C307.582 202.34 304.641 201.251 301.213 201.251ZM62.5282 206.74L54.5712 229.753H70.1943L62.5282 206.74Z" fill="white"/>
</g>
<defs>
<clipPath id="clip0_202_16">
<rect width="380" height="75" fill="white" transform="translate(34 187)"/>
</clipPath>
</defs>
</svg>
