<svg width="450" height="450" viewBox="0 0 450 450" fill="none" xmlns="http://www.w3.org/2000/svg">
<rect width="450" height="450" fill="#121212"/>
<path d="M204.558 140H196.104C195.604 137.568 194.729 135.432 193.479 133.591C192.251 131.75 190.751 130.205 188.979 128.955C187.229 127.682 185.286 126.727 183.149 126.091C181.013 125.455 178.786 125.136 176.467 125.136C172.24 125.136 168.411 126.205 164.979 128.341C161.57 130.477 158.854 133.625 156.831 137.784C154.831 141.943 153.831 147.045 153.831 153.091C153.831 159.136 154.831 164.239 156.831 168.398C158.854 172.557 161.57 175.705 164.979 177.841C168.411 179.977 172.24 181.045 176.467 181.045C178.786 181.045 181.013 180.727 183.149 180.091C185.286 179.455 187.229 178.511 188.979 177.261C190.751 175.989 192.251 174.432 193.479 172.591C194.729 170.727 195.604 168.591 196.104 166.182H204.558C203.922 169.75 202.763 172.943 201.081 175.761C199.399 178.58 197.308 180.977 194.808 182.955C192.308 184.909 189.501 186.398 186.388 187.42C183.297 188.443 179.99 188.955 176.467 188.955C170.513 188.955 165.217 187.5 160.581 184.591C155.945 181.682 152.297 177.545 149.638 172.182C146.979 166.818 145.649 160.455 145.649 153.091C145.649 145.727 146.979 139.364 149.638 134C152.297 128.636 155.945 124.5 160.581 121.591C165.217 118.682 170.513 117.227 176.467 117.227C179.99 117.227 183.297 117.739 186.388 118.761C189.501 119.784 192.308 121.284 194.808 123.261C197.308 125.216 199.399 127.602 201.081 130.42C202.763 133.216 203.922 136.409 204.558 140ZM254.22 147.364L246.993 149.409C246.538 148.205 245.868 147.034 244.982 145.898C244.118 144.739 242.936 143.784 241.436 143.034C239.936 142.284 238.016 141.909 235.675 141.909C232.47 141.909 229.8 142.648 227.663 144.125C225.55 145.58 224.493 147.432 224.493 149.682C224.493 151.682 225.22 153.261 226.675 154.42C228.129 155.58 230.402 156.545 233.493 157.318L241.266 159.227C245.947 160.364 249.436 162.102 251.732 164.443C254.027 166.761 255.175 169.75 255.175 173.409C255.175 176.409 254.311 179.091 252.584 181.455C250.879 183.818 248.493 185.682 245.425 187.045C242.357 188.409 238.788 189.091 234.72 189.091C229.379 189.091 224.959 187.932 221.459 185.614C217.959 183.295 215.743 179.909 214.811 175.455L222.447 173.545C223.175 176.364 224.55 178.477 226.572 179.886C228.618 181.295 231.288 182 234.584 182C238.334 182 241.311 181.205 243.516 179.614C245.743 178 246.857 176.068 246.857 173.818C246.857 172 246.22 170.477 244.947 169.25C243.675 168 241.72 167.068 239.084 166.455L230.357 164.409C225.561 163.273 222.038 161.511 219.788 159.125C217.561 156.716 216.447 153.705 216.447 150.091C216.447 147.136 217.277 144.523 218.936 142.25C220.618 139.977 222.902 138.193 225.788 136.898C228.697 135.602 231.993 134.955 235.675 134.955C240.857 134.955 244.925 136.091 247.879 138.364C250.857 140.636 252.97 143.636 254.22 147.364ZM304.376 147.364L297.149 149.409C296.695 148.205 296.024 147.034 295.138 145.898C294.274 144.739 293.092 143.784 291.592 143.034C290.092 142.284 288.172 141.909 285.831 141.909C282.626 141.909 279.956 142.648 277.82 144.125C275.706 145.58 274.649 147.432 274.649 149.682C274.649 151.682 275.376 153.261 276.831 154.42C278.286 155.58 280.558 156.545 283.649 157.318L291.422 159.227C296.104 160.364 299.592 162.102 301.888 164.443C304.183 166.761 305.331 169.75 305.331 173.409C305.331 176.409 304.467 179.091 302.74 181.455C301.036 183.818 298.649 185.682 295.581 187.045C292.513 188.409 288.945 189.091 284.876 189.091C279.536 189.091 275.115 187.932 271.615 185.614C268.115 183.295 265.899 179.909 264.967 175.455L272.604 173.545C273.331 176.364 274.706 178.477 276.729 179.886C278.774 181.295 281.445 182 284.74 182C288.49 182 291.467 181.205 293.672 179.614C295.899 178 297.013 176.068 297.013 173.818C297.013 172 296.376 170.477 295.104 169.25C293.831 168 291.876 167.068 289.24 166.455L280.513 164.409C275.717 163.273 272.195 161.511 269.945 159.125C267.717 156.716 266.604 153.705 266.604 150.091C266.604 147.136 267.433 144.523 269.092 142.25C270.774 139.977 273.058 138.193 275.945 136.898C278.854 135.602 282.149 134.955 285.831 134.955C291.013 134.955 295.081 136.091 298.036 138.364C301.013 140.636 303.126 143.636 304.376 147.364ZM40.0014 234.182H50.0923L73.8196 292.136H74.6378L98.3651 234.182H108.456V304H100.547V250.955H99.8651L78.0469 304H70.4105L48.5923 250.955H47.9105V304H40.0014V234.182ZM145.589 305.091C140.862 305.091 136.714 303.966 133.146 301.716C129.601 299.466 126.828 296.318 124.828 292.273C122.851 288.227 121.862 283.5 121.862 278.091C121.862 272.636 122.851 267.875 124.828 263.807C126.828 259.739 129.601 256.58 133.146 254.33C136.714 252.08 140.862 250.955 145.589 250.955C150.317 250.955 154.453 252.08 157.999 254.33C161.567 256.58 164.339 259.739 166.317 263.807C168.317 267.875 169.317 272.636 169.317 278.091C169.317 283.5 168.317 288.227 166.317 292.273C164.339 296.318 161.567 299.466 157.999 301.716C154.453 303.966 150.317 305.091 145.589 305.091ZM145.589 297.864C149.18 297.864 152.135 296.943 154.453 295.102C156.771 293.261 158.487 290.841 159.601 287.841C160.714 284.841 161.271 281.591 161.271 278.091C161.271 274.591 160.714 271.33 159.601 268.307C158.487 265.284 156.771 262.841 154.453 260.977C152.135 259.114 149.18 258.182 145.589 258.182C141.999 258.182 139.044 259.114 136.726 260.977C134.408 262.841 132.692 265.284 131.578 268.307C130.464 271.33 129.908 274.591 129.908 278.091C129.908 281.591 130.464 284.841 131.578 287.841C132.692 290.841 134.408 293.261 136.726 295.102C139.044 296.943 141.999 297.864 145.589 297.864ZM201.371 305.091C197.007 305.091 193.155 303.989 189.814 301.784C186.473 299.557 183.859 296.42 181.973 292.375C180.087 288.307 179.143 283.5 179.143 277.955C179.143 272.455 180.087 267.682 181.973 263.636C183.859 259.591 186.484 256.466 189.848 254.261C193.212 252.057 197.098 250.955 201.507 250.955C204.916 250.955 207.609 251.523 209.587 252.659C211.587 253.773 213.109 255.045 214.155 256.477C215.223 257.886 216.053 259.045 216.643 259.955H217.325V234.182H225.371V304H217.598V295.955H216.643C216.053 296.909 215.212 298.114 214.121 299.568C213.03 301 211.473 302.284 209.45 303.42C207.428 304.534 204.734 305.091 201.371 305.091ZM202.462 297.864C205.689 297.864 208.416 297.023 210.643 295.341C212.871 293.636 214.564 291.284 215.723 288.284C216.882 285.261 217.462 281.773 217.462 277.818C217.462 273.909 216.893 270.489 215.757 267.557C214.621 264.602 212.939 262.307 210.712 260.67C208.484 259.011 205.734 258.182 202.462 258.182C199.053 258.182 196.212 259.057 193.939 260.807C191.689 262.534 189.996 264.886 188.859 267.864C187.746 270.818 187.189 274.136 187.189 277.818C187.189 281.545 187.757 284.932 188.893 287.977C190.053 291 191.757 293.409 194.007 295.205C196.28 296.977 199.098 297.864 202.462 297.864ZM274.223 282.591V251.636H282.268V304H274.223V295.136H273.678C272.45 297.795 270.541 300.057 267.95 301.92C265.359 303.761 262.087 304.682 258.132 304.682C254.859 304.682 251.95 303.966 249.405 302.534C246.859 301.08 244.859 298.898 243.405 295.989C241.95 293.057 241.223 289.364 241.223 284.909V251.636H249.268V284.364C249.268 288.182 250.337 291.227 252.473 293.5C254.632 295.773 257.382 296.909 260.723 296.909C262.723 296.909 264.757 296.398 266.825 295.375C268.916 294.352 270.666 292.784 272.075 290.67C273.507 288.557 274.223 285.864 274.223 282.591ZM305.05 234.182V304H297.004V234.182H305.05ZM341.74 305.091C336.695 305.091 332.342 303.977 328.683 301.75C325.047 299.5 322.24 296.364 320.263 292.341C318.308 288.295 317.331 283.591 317.331 278.227C317.331 272.864 318.308 268.136 320.263 264.045C322.24 259.932 324.99 256.727 328.513 254.432C332.058 252.114 336.195 250.955 340.922 250.955C343.649 250.955 346.342 251.409 349.001 252.318C351.661 253.227 354.081 254.705 356.263 256.75C358.445 258.773 360.183 261.455 361.479 264.795C362.774 268.136 363.422 272.25 363.422 277.136V280.545H323.058V273.591H355.24C355.24 270.636 354.649 268 353.467 265.682C352.308 263.364 350.649 261.534 348.49 260.193C346.354 258.852 343.831 258.182 340.922 258.182C337.717 258.182 334.945 258.977 332.604 260.568C330.286 262.136 328.501 264.182 327.251 266.705C326.001 269.227 325.376 271.932 325.376 274.818V279.455C325.376 283.409 326.058 286.761 327.422 289.511C328.808 292.239 330.729 294.318 333.183 295.75C335.638 297.159 338.49 297.864 341.74 297.864C343.854 297.864 345.763 297.568 347.467 296.977C349.195 296.364 350.683 295.455 351.933 294.25C353.183 293.023 354.149 291.5 354.831 289.682L362.604 291.864C361.786 294.5 360.411 296.818 358.479 298.818C356.547 300.795 354.161 302.341 351.32 303.455C348.479 304.545 345.286 305.091 341.74 305.091ZM412.751 263.364L405.524 265.409C405.07 264.205 404.399 263.034 403.513 261.898C402.649 260.739 401.467 259.784 399.967 259.034C398.467 258.284 396.547 257.909 394.206 257.909C391.001 257.909 388.331 258.648 386.195 260.125C384.081 261.58 383.024 263.432 383.024 265.682C383.024 267.682 383.751 269.261 385.206 270.42C386.661 271.58 388.933 272.545 392.024 273.318L399.797 275.227C404.479 276.364 407.967 278.102 410.263 280.443C412.558 282.761 413.706 285.75 413.706 289.409C413.706 292.409 412.842 295.091 411.115 297.455C409.411 299.818 407.024 301.682 403.956 303.045C400.888 304.409 397.32 305.091 393.251 305.091C387.911 305.091 383.49 303.932 379.99 301.614C376.49 299.295 374.274 295.909 373.342 291.455L380.979 289.545C381.706 292.364 383.081 294.477 385.104 295.886C387.149 297.295 389.82 298 393.115 298C396.865 298 399.842 297.205 402.047 295.614C404.274 294 405.388 292.068 405.388 289.818C405.388 288 404.751 286.477 403.479 285.25C402.206 284 400.251 283.068 397.615 282.455L388.888 280.409C384.092 279.273 380.57 277.511 378.32 275.125C376.092 272.716 374.979 269.705 374.979 266.091C374.979 263.136 375.808 260.523 377.467 258.25C379.149 255.977 381.433 254.193 384.32 252.898C387.229 251.602 390.524 250.955 394.206 250.955C399.388 250.955 403.456 252.091 406.411 254.364C409.388 256.636 411.501 259.636 412.751 263.364Z" fill="#D9D9D9"/>
</svg>
