<svg width="450" height="450" viewBox="0 0 450 450" fill="none" xmlns="http://www.w3.org/2000/svg">
<rect width="450" height="450" fill="#00DC4B"/>
<path d="M58.9805 249.977C53.4792 249.977 48.7103 248.886 44.6738 246.705C40.6699 244.492 37.5938 241.35 35.4453 237.281C33.2969 233.18 32.2227 228.329 32.2227 222.73C32.2227 217.294 33.2969 212.509 35.4453 208.375C37.5938 204.208 40.6374 200.986 44.5762 198.707C48.5475 196.428 53.1536 195.289 58.3945 195.289C63.4076 195.289 67.8346 196.331 71.6758 198.414C75.5495 200.497 78.5605 203.574 80.709 207.643C82.89 211.712 83.9805 216.611 83.9805 222.34V226.539H48.4336V226.832C48.4336 230.25 49.4102 232.984 51.3633 235.035C53.3164 237.053 55.9531 238.062 59.2734 238.062C61.487 238.062 63.3913 237.623 64.9863 236.744C66.6139 235.833 67.7695 234.579 68.4531 232.984H83.7852C83.1341 236.435 81.7181 239.446 79.5371 242.018C77.3561 244.557 74.5078 246.526 70.9922 247.926C67.5091 249.293 63.5052 249.977 58.9805 249.977ZM68.6484 216.871C68.6159 215.016 68.1764 213.355 67.3301 211.891C66.4837 210.426 65.3118 209.286 63.8145 208.473C62.3171 207.626 60.6406 207.203 58.7852 207.203C56.8646 207.203 55.123 207.626 53.5605 208.473C52.0306 209.319 50.8099 210.475 49.8984 211.939C48.987 213.404 48.4987 215.048 48.4336 216.871H68.6484ZM114.645 213.648L123.824 195.973H140.523L125.582 222.438L141.012 249H124.508L114.645 231.227L104.977 249H88.1797L103.707 222.438L88.9609 195.973H105.66L114.645 213.648ZM148.043 195.973H164.352V205.055H164.938C166.077 202.288 167.883 199.977 170.357 198.121C172.831 196.233 176.005 195.289 179.879 195.289C183.753 195.289 187.285 196.298 190.475 198.316C193.697 200.302 196.269 203.346 198.189 207.447C200.11 211.549 201.07 216.578 201.07 222.535C201.07 228.329 200.126 233.277 198.238 237.379C196.383 241.48 193.844 244.573 190.621 246.656C187.431 248.74 183.85 249.781 179.879 249.781C176.07 249.781 172.913 248.902 170.406 247.145C167.9 245.354 166.077 243.108 164.938 240.406H164.547V268.922H148.043V195.973ZM164.156 222.438C164.156 226.865 165.035 230.38 166.793 232.984C168.583 235.589 171.057 236.891 174.215 236.891C177.405 236.891 179.863 235.605 181.588 233.033C183.313 230.429 184.176 226.897 184.176 222.438C184.176 218.076 183.297 214.609 181.539 212.037C179.814 209.465 177.372 208.18 174.215 208.18C171.057 208.18 168.583 209.449 166.793 211.988C165.035 214.527 164.156 218.01 164.156 222.438ZM209.762 195.973H225.777V205.543H226.266C227.21 202.158 228.772 199.586 230.953 197.828C233.167 196.07 235.771 195.191 238.766 195.191C240.068 195.191 241.63 195.387 243.453 195.777V210.133C242.704 209.905 241.695 209.726 240.426 209.596C239.156 209.433 237.984 209.352 236.91 209.352C234.859 209.352 233.02 209.807 231.393 210.719C229.798 211.598 228.544 212.851 227.633 214.479C226.721 216.074 226.266 217.913 226.266 219.996V249H209.762V195.973ZM273.141 249.977C267.639 249.977 262.87 248.886 258.834 246.705C254.83 244.492 251.754 241.35 249.605 237.281C247.457 233.18 246.383 228.329 246.383 222.73C246.383 217.294 247.457 212.509 249.605 208.375C251.754 204.208 254.798 200.986 258.736 198.707C262.708 196.428 267.314 195.289 272.555 195.289C277.568 195.289 281.995 196.331 285.836 198.414C289.71 200.497 292.721 203.574 294.869 207.643C297.05 211.712 298.141 216.611 298.141 222.34V226.539H262.594V226.832C262.594 230.25 263.57 232.984 265.523 235.035C267.477 237.053 270.113 238.062 273.434 238.062C275.647 238.062 277.551 237.623 279.146 236.744C280.774 235.833 281.93 234.579 282.613 232.984H297.945C297.294 236.435 295.878 239.446 293.697 242.018C291.516 244.557 288.668 246.526 285.152 247.926C281.669 249.293 277.665 249.977 273.141 249.977ZM282.809 216.871C282.776 215.016 282.337 213.355 281.49 211.891C280.644 210.426 279.472 209.286 277.975 208.473C276.477 207.626 274.801 207.203 272.945 207.203C271.025 207.203 269.283 207.626 267.721 208.473C266.191 209.319 264.97 210.475 264.059 211.939C263.147 213.404 262.659 215.048 262.594 216.871H282.809ZM337.203 212.379C336.975 210.621 336.129 209.221 334.664 208.18C333.232 207.138 331.409 206.617 329.195 206.617C327.112 206.617 325.37 207.057 323.971 207.936C322.604 208.782 321.936 209.872 321.969 211.207C321.871 213.486 323.889 215.016 328.023 215.797L338.082 217.75C343.355 218.792 347.278 220.484 349.85 222.828C352.454 225.172 353.772 228.264 353.805 232.105C353.772 235.654 352.714 238.779 350.631 241.48C348.58 244.182 345.715 246.282 342.037 247.779C338.359 249.244 334.143 249.977 329.391 249.977C324.41 249.977 320.097 249.277 316.451 247.877C312.838 246.477 309.99 244.475 307.906 241.871C305.855 239.267 304.651 236.207 304.293 232.691H320.699C320.992 234.579 321.904 236.028 323.434 237.037C324.996 238.046 327.014 238.551 329.488 238.551C331.767 238.551 333.59 238.144 334.957 237.33C336.357 236.484 337.073 235.328 337.105 233.863C337.04 232.691 336.471 231.731 335.396 230.982C334.322 230.201 332.646 229.566 330.367 229.078L321.285 227.418C316.077 226.441 312.154 224.667 309.518 222.096C306.881 219.492 305.595 216.155 305.66 212.086C305.628 208.603 306.539 205.608 308.395 203.102C310.283 200.562 312.984 198.626 316.5 197.291C320.016 195.956 324.15 195.289 328.902 195.289C333.622 195.289 337.708 195.989 341.158 197.389C344.641 198.756 347.343 200.725 349.264 203.297C351.217 205.836 352.307 208.863 352.535 212.379H337.203ZM392.477 212.379C392.249 210.621 391.402 209.221 389.938 208.18C388.505 207.138 386.682 206.617 384.469 206.617C382.385 206.617 380.644 207.057 379.244 207.936C377.877 208.782 377.21 209.872 377.242 211.207C377.145 213.486 379.163 215.016 383.297 215.797L393.355 217.75C398.629 218.792 402.551 220.484 405.123 222.828C407.727 225.172 409.046 228.264 409.078 232.105C409.046 235.654 407.988 238.779 405.904 241.48C403.854 244.182 400.989 246.282 397.311 247.779C393.632 249.244 389.417 249.977 384.664 249.977C379.684 249.977 375.37 249.277 371.725 247.877C368.111 246.477 365.263 244.475 363.18 241.871C361.129 239.267 359.924 236.207 359.566 232.691H375.973C376.266 234.579 377.177 236.028 378.707 237.037C380.27 238.046 382.288 238.551 384.762 238.551C387.04 238.551 388.863 238.144 390.23 237.33C391.63 236.484 392.346 235.328 392.379 233.863C392.314 232.691 391.744 231.731 390.67 230.982C389.596 230.201 387.919 229.566 385.641 229.078L376.559 227.418C371.35 226.441 367.428 224.667 364.791 222.096C362.154 219.492 360.868 216.155 360.934 212.086C360.901 208.603 361.812 205.608 363.668 203.102C365.556 200.562 368.258 198.626 371.773 197.291C375.289 195.956 379.423 195.289 384.176 195.289C388.896 195.289 392.981 195.989 396.432 197.389C399.915 198.756 402.617 200.725 404.537 203.297C406.49 205.836 407.581 208.863 407.809 212.379H392.477Z" fill="black"/>
</svg>
