<svg width="24" height="24" viewBox="0 0 24 24" fill="none" xmlns="http://www.w3.org/2000/svg">
<g clip-path="url(#clip0_4388_3493)">
<path d="M12 11.8534C13.4936 11.8534 14.7111 10.5227 14.7111 8.90359C14.7111 7.30287 13.5 6.03516 12 6.03516C10.5129 6.03516 9.28886 7.32173 9.28886 8.91601C9.29486 10.5292 10.5124 11.8534 12 11.8534ZM4.77 11.991C6.06257 11.991 7.12329 10.8296 7.12329 9.40501C7.12329 8.01216 6.07543 6.88844 4.77 6.88844C3.477 6.88844 2.40986 8.03059 2.41629 9.41744C2.42271 10.836 3.477 11.991 4.77 11.991ZM19.2364 11.991C20.523 11.991 21.5837 10.836 21.5837 9.41744C21.5901 8.03059 20.523 6.88844 19.2364 6.88844C17.925 6.88844 16.8767 8.01173 16.8767 9.40501C16.8767 10.8296 17.9374 11.991 19.2364 11.991ZM12 10.9054C11.0837 10.9054 10.299 10.0269 10.299 8.91601C10.299 7.82401 11.0713 6.98316 12.0004 6.98316C12.9351 6.98316 13.701 7.81158 13.701 8.90316C13.701 10.0144 12.9287 10.9054 12 10.9054ZM4.77 11.0563C4.00414 11.0563 3.35143 10.3217 3.35143 9.41787C3.35143 8.5333 3.99771 7.82359 4.77 7.82359C5.56071 7.82359 6.19457 8.52044 6.19457 9.40544C6.19457 10.3217 5.54186 11.0563 4.77 11.0563ZM19.2364 11.0563C18.4581 11.0563 17.8054 10.3217 17.8054 9.40544C17.8054 8.52044 18.4393 7.82401 19.2364 7.82401C20.0083 7.82401 20.6486 8.5333 20.6486 9.4183C20.6486 10.3217 20.0019 11.0563 19.2364 11.0563ZM1.28014 17.7463H6.207C5.90571 17.577 5.67343 17.2003 5.71757 16.8176H1.12329C0.997714 16.8176 0.935143 16.7674 0.935143 16.6483C0.935143 15.0917 2.71114 13.6354 4.76357 13.6354C5.55429 13.6354 6.26357 13.824 6.87214 14.1814C7.07406 13.9256 7.31314 13.7014 7.58143 13.5163C6.77186 12.9827 5.799 12.7067 4.76357 12.7067C2.13386 12.7067 0 14.6147 0 16.7049C0 17.4013 0.426857 17.7463 1.28014 17.7463ZM22.7259 17.7463C23.5731 17.7463 24 17.4013 24 16.7049C24 14.6147 21.8657 12.7067 19.2364 12.7067C18.201 12.7067 17.2341 12.9827 16.4186 13.5167C16.701 13.7109 16.9329 13.9307 17.1343 14.1814C17.7364 13.824 18.4517 13.6354 19.2364 13.6354C21.2889 13.6354 23.0649 15.0917 23.0649 16.6483C23.0649 16.7674 23.0083 16.8176 22.8827 16.8176H18.2884C18.3261 17.2003 18.1003 17.577 17.799 17.7463H22.7259ZM8.05843 17.7463H15.9416C16.983 17.7463 17.4793 17.4326 17.4793 16.7422C17.4793 15.0977 15.4016 12.7192 12 12.7192C8.592 12.7192 6.51429 15.0977 6.51429 16.7422C6.51429 17.4326 7.01057 17.7463 8.05843 17.7463ZM7.75714 16.7992C7.59429 16.7992 7.52529 16.755 7.52529 16.6234C7.52529 15.5936 9.11957 13.6672 12 13.6672C14.8744 13.6672 16.4687 15.5936 16.4687 16.623C16.4687 16.755 16.4057 16.7987 16.2429 16.7987L7.75714 16.7992Z" fill="#EEFFFF"/>
</g>
<defs>
<clipPath id="clip0_4388_3493">
<rect width="24" height="24" fill="white"/>
</clipPath>
</defs>
</svg>
