<svg width="600" height="600" viewBox="0 0 600 600" fill="none" xmlns="http://www.w3.org/2000/svg">
<rect width="600" height="600" fill="#010101"/>
<path d="M372.732 194.715C376.801 175.004 377.674 159.885 375.044 148.907C373.479 142.378 370.619 137.051 366.27 133.209C361.679 129.151 355.874 127.161 349.351 127.161C338.591 127.161 327.279 132.062 315.19 141.374C310.259 145.172 305.142 149.751 299.827 155.111C299.404 154.567 298.926 154.054 298.393 153.58C283.367 140.204 270.717 131.893 259.897 128.689C253.463 126.784 247.423 126.602 241.922 128.451C236.116 130.403 231.49 134.438 228.226 140.09C222.839 149.417 221.419 161.673 223.427 176.805C224.245 182.974 225.645 189.693 227.622 196.973C226.876 197.063 226.128 197.228 225.388 197.473C206.324 203.784 192.824 210.571 184.651 218.327C179.789 222.941 176.613 228.079 175.465 233.766C174.254 239.768 175.435 245.789 178.695 251.436C184.072 260.749 193.958 268.095 208.043 273.913C213.698 276.249 220.097 278.365 227.246 280.268C226.92 281.004 226.666 281.785 226.497 282.605C222.428 302.316 221.554 317.435 224.185 328.413C225.749 334.942 228.609 340.269 232.959 344.112C237.55 348.169 243.355 350.16 249.878 350.16C260.638 350.16 271.95 345.258 284.039 335.946C289.022 332.107 294.196 327.472 299.572 322.038C300.125 322.902 300.804 323.705 301.607 324.42C316.633 337.796 329.283 346.107 340.103 349.311C346.537 351.216 352.577 351.398 358.078 349.549C363.884 347.597 368.51 343.562 371.774 337.91C377.161 328.583 378.581 316.328 376.573 301.195C375.725 294.803 374.253 287.821 372.161 280.236C372.979 280.153 373.8 279.98 374.612 279.711C393.676 273.4 407.176 266.614 415.349 258.858C420.211 254.243 423.387 249.106 424.535 243.419C425.746 237.416 424.565 231.396 421.305 225.748C415.928 216.435 406.042 209.089 391.957 203.271C386.134 200.865 379.521 198.693 372.113 196.747C372.377 196.101 372.586 195.423 372.732 194.715Z" fill="#002C4B"/>
<path fill-rule="evenodd" clip-rule="evenodd" d="M280.785 198.211H319.221C321.578 198.211 323.755 199.471 324.927 201.515L344.18 235.068C345.344 237.096 345.344 239.589 344.18 241.616L324.927 275.169C323.755 277.213 321.578 278.474 319.221 278.474H280.785C278.429 278.474 276.252 277.213 275.079 275.169L255.826 241.616C254.663 239.589 254.663 237.096 255.826 235.068L275.079 201.515C276.252 199.471 278.429 198.211 280.785 198.211ZM314.458 206.469C316.815 206.469 318.993 207.731 320.166 209.777L334.662 235.071C335.823 237.097 335.823 239.587 334.662 241.613L320.166 266.907C318.993 268.953 316.815 270.215 314.458 270.215H285.549C283.191 270.215 281.013 268.953 279.841 266.907L265.345 241.613C264.183 239.587 264.183 237.097 265.345 235.071L279.841 209.777C281.013 207.731 283.191 206.469 285.549 206.469H314.458ZM309.317 215.502H290.69C288.334 215.502 286.159 216.761 284.985 218.804L275.644 235.065C274.478 237.094 274.478 239.59 275.644 241.619L284.985 257.88C286.159 259.923 288.334 261.182 290.69 261.182H309.317C311.672 261.182 313.848 259.923 315.021 257.88L324.363 241.619C325.529 239.59 325.529 237.094 324.363 235.065L315.021 218.804C313.848 216.761 311.672 215.502 309.317 215.502ZM304.367 224.148C306.721 224.148 308.895 225.405 310.069 227.445L314.452 235.061C315.621 237.092 315.621 239.592 314.452 241.624L310.069 249.239C308.895 251.279 306.721 252.537 304.367 252.537H295.639C293.285 252.537 291.111 251.279 289.937 249.239L285.555 241.624C284.385 239.592 284.385 237.092 285.555 235.061L289.937 227.445C291.111 225.405 293.285 224.148 295.639 224.148H304.367ZM300.005 232.664C297.973 232.664 296.098 233.746 295.083 235.503C294.068 237.26 294.068 239.424 295.083 241.181C296.098 242.938 297.973 244.02 300.002 244.02C302.034 244.02 303.909 242.938 304.924 241.181C305.938 239.424 305.938 237.26 304.924 235.503C303.909 233.746 302.034 232.664 300.005 232.664ZM253.947 238.343H264.168Z" fill="#FFD94C"/>
<path fill-rule="evenodd" clip-rule="evenodd" d="M247.184 256.576C248.91 255.59 251.1 256.203 252.076 257.946L252.701 259.057C257.706 267.925 262.92 276.342 268.343 284.309C274.747 293.718 281.95 303.242 289.951 312.883C291.206 314.396 291.033 316.646 289.56 317.945L288.756 318.651C262.298 341.768 245.102 346.385 237.169 332.503C229.408 318.925 232.216 294.241 245.594 258.451C245.891 257.657 246.453 256.994 247.184 256.576ZM359.913 283.791C361.824 283.454 363.652 284.713 364.026 286.624L364.227 287.666C370.766 321.889 366.162 339 350.416 339C335.013 339 315.406 324.407 291.596 295.22C291.068 294.572 290.782 293.76 290.79 292.923C290.807 290.948 292.416 289.361 294.383 289.379L295.638 289.388C305.665 289.442 315.414 289.094 324.883 288.344C336.065 287.458 347.742 285.94 359.913 283.791ZM368.959 211.121C369.648 209.267 371.722 208.294 373.624 208.933L374.661 209.284C408.663 220.866 421.582 233.594 413.419 247.469C405.434 261.041 382.216 270.921 343.765 277.11C342.913 277.247 342.038 277.087 341.293 276.656C339.536 275.64 338.95 273.419 339.985 271.694L340.644 270.593C345.891 261.785 350.633 253.019 354.871 244.295C359.875 233.993 364.571 222.935 368.959 211.121ZM256.235 200.89C257.088 200.753 257.962 200.913 258.707 201.344C260.464 202.36 261.05 204.581 260.015 206.306L259.356 207.407C254.109 216.215 249.367 224.981 245.129 233.705C240.125 244.007 235.429 255.065 231.041 266.879C230.352 268.733 228.278 269.706 226.376 269.067L225.339 268.716C191.337 257.134 178.418 244.406 186.581 230.531C194.566 216.959 217.784 207.078 256.235 200.89ZM311.245 159.349C337.702 136.232 354.898 131.615 362.832 145.497C370.592 159.075 367.784 183.759 354.406 219.549C354.11 220.343 353.547 221.006 352.816 221.424C351.09 222.41 348.9 221.797 347.924 220.054L347.299 218.943C342.294 210.075 337.08 201.658 331.657 193.691C325.253 184.282 318.05 174.758 310.049 165.117C308.794 163.604 308.967 161.354 310.44 160.055L311.245 159.349ZM250.9 137.684C266.303 137.684 285.91 152.278 309.72 181.464C310.248 182.112 310.534 182.925 310.526 183.761C310.509 185.736 308.9 187.323 306.933 187.306L305.678 187.297C295.65 187.242 285.902 187.59 276.433 188.34C265.251 189.226 253.574 190.744 241.402 192.893C239.492 193.23 237.664 191.971 237.29 190.06L237.088 189.018C230.55 154.795 235.154 137.684 250.9 137.684Z" fill="#FF4154"/>
<path d="M60.0284 446V387.818H84.0625C88.4186 387.818 92.178 388.604 95.3409 390.176C98.5227 391.729 100.975 393.964 102.699 396.881C104.422 399.778 105.284 403.216 105.284 407.193C105.284 411.227 104.403 414.655 102.642 417.477C100.881 420.28 98.3807 422.42 95.142 423.898C91.9034 425.356 88.0682 426.085 83.6364 426.085H68.4375V415.006H81.0227C83.1439 415.006 84.9148 414.731 86.3352 414.182C87.7746 413.614 88.8636 412.761 89.6023 411.625C90.3409 410.47 90.7102 408.992 90.7102 407.193C90.7102 405.394 90.3409 403.907 89.6023 402.733C88.8636 401.54 87.7746 400.65 86.3352 400.062C84.8958 399.456 83.125 399.153 81.0227 399.153H74.0909V446H60.0284ZM92.7841 419.409L107.273 446H91.9318L77.7273 419.409H92.7841ZM132.536 446.824C127.971 446.824 124.032 445.924 120.717 444.125C117.422 442.307 114.884 439.722 113.104 436.369C111.342 432.998 110.462 428.992 110.462 424.352C110.462 419.845 111.352 415.905 113.132 412.534C114.912 409.144 117.422 406.511 120.661 404.636C123.899 402.742 127.715 401.795 132.109 401.795C135.215 401.795 138.056 402.278 140.632 403.244C143.208 404.21 145.433 405.64 147.308 407.534C149.183 409.428 150.642 411.767 151.683 414.551C152.725 417.316 153.246 420.489 153.246 424.068V427.534H115.32V419.466H140.32C140.301 417.989 139.95 416.672 139.268 415.517C138.587 414.362 137.649 413.462 136.456 412.818C135.282 412.155 133.928 411.824 132.393 411.824C130.84 411.824 129.448 412.174 128.217 412.875C126.986 413.557 126.011 414.494 125.291 415.688C124.571 416.862 124.193 418.197 124.155 419.693V427.903C124.155 429.684 124.505 431.246 125.206 432.591C125.907 433.917 126.901 434.949 128.189 435.688C129.477 436.426 131.011 436.795 132.791 436.795C134.022 436.795 135.14 436.625 136.143 436.284C137.147 435.943 138.009 435.441 138.729 434.778C139.448 434.116 139.988 433.301 140.348 432.335L153.104 432.705C152.573 435.564 151.409 438.055 149.609 440.176C147.829 442.278 145.49 443.917 142.592 445.091C139.695 446.246 136.342 446.824 132.536 446.824ZM172.642 446.739C169.858 446.739 167.386 446.275 165.227 445.347C163.087 444.4 161.392 442.979 160.142 441.085C158.911 439.172 158.295 436.777 158.295 433.898C158.295 431.473 158.722 429.428 159.574 427.761C160.426 426.095 161.6 424.741 163.097 423.699C164.593 422.657 166.316 421.871 168.267 421.341C170.218 420.792 172.301 420.422 174.517 420.233C176.998 420.006 178.996 419.769 180.511 419.523C182.027 419.258 183.125 418.888 183.807 418.415C184.508 417.922 184.858 417.231 184.858 416.341V416.199C184.858 414.741 184.356 413.614 183.352 412.818C182.348 412.023 180.994 411.625 179.29 411.625C177.453 411.625 175.975 412.023 174.858 412.818C173.741 413.614 173.03 414.712 172.727 416.114L159.915 415.659C160.294 413.008 161.269 410.64 162.841 408.557C164.432 406.455 166.61 404.807 169.375 403.614C172.159 402.402 175.502 401.795 179.403 401.795C182.188 401.795 184.754 402.127 187.102 402.79C189.451 403.434 191.496 404.381 193.239 405.631C194.981 406.862 196.326 408.377 197.273 410.176C198.239 411.975 198.722 414.03 198.722 416.341V446H185.653V439.92H185.312C184.536 441.398 183.542 442.648 182.33 443.67C181.136 444.693 179.725 445.46 178.097 445.972C176.487 446.483 174.669 446.739 172.642 446.739ZM176.932 437.648C178.428 437.648 179.773 437.345 180.966 436.739C182.178 436.133 183.144 435.299 183.864 434.239C184.583 433.159 184.943 431.909 184.943 430.489V426.341C184.545 426.549 184.063 426.739 183.494 426.909C182.945 427.08 182.339 427.241 181.676 427.392C181.013 427.544 180.331 427.676 179.631 427.79C178.93 427.903 178.258 428.008 177.614 428.102C176.307 428.311 175.189 428.633 174.261 429.068C173.352 429.504 172.652 430.072 172.159 430.773C171.686 431.455 171.449 432.269 171.449 433.216C171.449 434.655 171.96 435.754 172.983 436.511C174.025 437.269 175.341 437.648 176.932 437.648ZM227.585 446.824C222.983 446.824 219.034 445.877 215.739 443.983C212.462 442.089 209.943 439.456 208.182 436.085C206.42 432.695 205.54 428.775 205.54 424.324C205.54 419.854 206.42 415.934 208.182 412.562C209.962 409.172 212.491 406.53 215.767 404.636C219.063 402.742 222.992 401.795 227.557 401.795C231.591 401.795 235.104 402.525 238.097 403.983C241.108 405.441 243.456 407.506 245.142 410.176C246.847 412.828 247.746 415.943 247.841 419.523H234.858C234.593 417.288 233.835 415.536 232.585 414.267C231.354 412.998 229.744 412.364 227.756 412.364C226.146 412.364 224.735 412.818 223.523 413.727C222.311 414.617 221.364 415.943 220.682 417.705C220.019 419.447 219.688 421.606 219.688 424.182C219.688 426.758 220.019 428.936 220.682 430.716C221.364 432.477 222.311 433.812 223.523 434.722C224.735 435.612 226.146 436.057 227.756 436.057C229.044 436.057 230.18 435.782 231.165 435.233C232.169 434.684 232.992 433.879 233.636 432.818C234.28 431.739 234.688 430.432 234.858 428.898H247.841C247.708 432.496 246.809 435.64 245.142 438.33C243.494 441.019 241.174 443.112 238.182 444.608C235.208 446.085 231.676 446.824 227.585 446.824ZM279.581 402.364V412.591H252.053V402.364H279.581ZM257.82 391.909H271.712V432.278C271.712 433.131 271.844 433.822 272.109 434.352C272.393 434.864 272.801 435.233 273.331 435.46C273.861 435.669 274.496 435.773 275.234 435.773C275.765 435.773 276.323 435.725 276.911 435.631C277.517 435.517 277.971 435.422 278.274 435.347L280.376 445.375C279.714 445.564 278.776 445.801 277.564 446.085C276.371 446.369 274.941 446.549 273.274 446.625C270.017 446.777 267.223 446.398 264.893 445.489C262.583 444.561 260.812 443.121 259.581 441.17C258.369 439.22 257.782 436.767 257.82 433.812V391.909ZM326.101 425.091H337.464L342.294 431.256L348.629 438.528L358.374 450.545H345.646L338.828 442.392L334.794 436.597L326.101 425.091ZM358.771 416.909C358.771 423.311 357.54 428.737 355.078 433.188C352.616 437.638 349.283 441.019 345.078 443.33C340.893 445.64 336.196 446.795 330.987 446.795C325.76 446.795 321.054 445.631 316.868 443.301C312.682 440.972 309.358 437.591 306.896 433.159C304.453 428.708 303.232 423.292 303.232 416.909C303.232 410.508 304.453 405.081 306.896 400.631C309.358 396.18 312.682 392.799 316.868 390.489C321.054 388.178 325.76 387.023 330.987 387.023C336.196 387.023 340.893 388.178 345.078 390.489C349.283 392.799 352.616 396.18 355.078 400.631C357.54 405.081 358.771 410.508 358.771 416.909ZM344.396 416.909C344.396 413.121 343.857 409.92 342.777 407.307C341.716 404.693 340.182 402.714 338.175 401.369C336.186 400.025 333.79 399.352 330.987 399.352C328.203 399.352 325.807 400.025 323.8 401.369C321.792 402.714 320.249 404.693 319.169 407.307C318.108 409.92 317.578 413.121 317.578 416.909C317.578 420.697 318.108 423.898 319.169 426.511C320.249 429.125 321.792 431.104 323.8 432.449C325.807 433.794 328.203 434.466 330.987 434.466C333.79 434.466 336.186 433.794 338.175 432.449C340.182 431.104 341.716 429.125 342.777 426.511C343.857 423.898 344.396 420.697 344.396 416.909ZM395.213 427.165V402.364H409.077V446H395.838V437.875H395.384C394.418 440.545 392.77 442.667 390.44 444.239C388.13 445.792 385.336 446.568 382.06 446.568C379.086 446.568 376.473 445.886 374.219 444.523C371.965 443.159 370.213 441.256 368.963 438.812C367.713 436.35 367.079 433.472 367.06 430.176V402.364H380.952V427.449C380.971 429.816 381.596 431.682 382.827 433.045C384.058 434.409 385.734 435.091 387.855 435.091C389.238 435.091 390.478 434.788 391.577 434.182C392.694 433.557 393.575 432.657 394.219 431.483C394.882 430.29 395.213 428.85 395.213 427.165ZM438.317 446.824C433.752 446.824 429.813 445.924 426.499 444.125C423.203 442.307 420.665 439.722 418.885 436.369C417.124 432.998 416.243 428.992 416.243 424.352C416.243 419.845 417.133 415.905 418.913 412.534C420.694 409.144 423.203 406.511 426.442 404.636C429.68 402.742 433.497 401.795 437.891 401.795C440.997 401.795 443.838 402.278 446.413 403.244C448.989 404.21 451.214 405.64 453.089 407.534C454.964 409.428 456.423 411.767 457.464 414.551C458.506 417.316 459.027 420.489 459.027 424.068V427.534H421.101V419.466H446.101C446.082 417.989 445.732 416.672 445.05 415.517C444.368 414.362 443.43 413.462 442.237 412.818C441.063 412.155 439.709 411.824 438.175 411.824C436.622 411.824 435.23 412.174 433.999 412.875C432.768 413.557 431.792 414.494 431.072 415.688C430.353 416.862 429.974 418.197 429.936 419.693V427.903C429.936 429.684 430.286 431.246 430.987 432.591C431.688 433.917 432.682 434.949 433.97 435.688C435.258 436.426 436.792 436.795 438.572 436.795C439.804 436.795 440.921 436.625 441.925 436.284C442.929 435.943 443.79 435.441 444.51 434.778C445.23 434.116 445.769 433.301 446.129 432.335L458.885 432.705C458.355 435.564 457.19 438.055 455.391 440.176C453.61 442.278 451.271 443.917 448.374 445.091C445.476 446.246 442.124 446.824 438.317 446.824ZM466.122 446V402.364H479.616V410.318H480.071C480.866 407.439 482.164 405.299 483.963 403.898C485.762 402.477 487.855 401.767 490.241 401.767C490.885 401.767 491.548 401.814 492.23 401.909C492.912 401.985 493.546 402.108 494.134 402.278V414.352C493.471 414.125 492.599 413.945 491.52 413.812C490.459 413.68 489.512 413.614 488.679 413.614C487.031 413.614 485.545 413.983 484.219 414.722C482.912 415.441 481.88 416.455 481.122 417.761C480.384 419.049 480.014 420.564 480.014 422.307V446H466.122ZM509.616 462.364C507.95 462.364 506.378 462.231 504.901 461.966C503.423 461.72 502.154 461.388 501.094 460.972L504.162 450.886C505.526 451.341 506.757 451.606 507.855 451.682C508.973 451.758 509.929 451.578 510.724 451.142C511.539 450.725 512.164 449.977 512.599 448.898L513.139 447.591L497.628 402.364H512.173L520.213 433.5H520.668L528.821 402.364H543.452L527.003 450.176C526.207 452.563 525.08 454.665 523.622 456.483C522.183 458.32 520.317 459.759 518.026 460.801C515.753 461.843 512.95 462.364 509.616 462.364Z" fill="white"/>
</svg>
