<svg width="450" height="450" viewBox="0 0 450 450" fill="none" xmlns="http://www.w3.org/2000/svg">
<rect width="450" height="450" fill="white"/>
<g clip-path="url(#clip0_202_16)">
<path d="M224.935 107.001C178.112 107.001 140.001 145.112 140.001 191.935C140.001 238.758 178.112 276.869 224.935 276.869C271.758 276.869 309.869 238.758 309.869 191.935C309.869 145.112 271.759 107.001 224.935 107.001ZM224.935 121.184C264.093 121.184 295.687 152.777 295.687 191.935C295.687 231.093 264.093 262.687 224.935 262.687C185.777 262.687 154.183 231.095 154.183 191.935C154.183 152.775 185.777 121.184 224.935 121.184Z" fill="#010101"/>
<path fill-rule="evenodd" clip-rule="evenodd" d="M204.268 187.638C222.867 172.445 241.06 156.722 260.064 141.972C250.096 157.289 239.844 172.404 229.877 187.719C221.328 187.759 212.777 187.759 204.268 187.638ZM219.99 196.107C228.581 196.107 237.13 196.107 245.679 196.229C226.959 211.343 208.847 227.186 189.803 241.895C199.771 226.578 210.023 211.424 219.99 196.107Z" fill="#010101"/>
</g>
<path d="M108.614 321.538C108.495 320.236 107.969 319.224 107.033 318.502C106.11 317.768 104.79 317.401 103.074 317.401C101.938 317.401 100.991 317.549 100.233 317.845C99.4755 318.141 98.9073 318.549 98.5285 319.07C98.1497 319.579 97.9544 320.165 97.9426 320.828C97.9189 321.373 98.0254 321.852 98.2622 322.266C98.5107 322.681 98.8659 323.048 99.3275 323.367C99.801 323.675 100.369 323.947 101.032 324.184C101.695 324.421 102.441 324.628 103.269 324.805L106.394 325.516C108.194 325.906 109.78 326.427 111.153 327.078C112.538 327.729 113.698 328.504 114.633 329.404C115.58 330.304 116.296 331.339 116.781 332.511C117.267 333.683 117.515 334.997 117.527 336.453C117.515 338.75 116.935 340.72 115.787 342.366C114.639 344.011 112.988 345.272 110.833 346.148C108.691 347.024 106.104 347.462 103.074 347.462C100.032 347.462 97.3803 347.006 95.1194 346.094C92.8585 345.183 91.1007 343.798 89.846 341.94C88.5912 340.081 87.9461 337.732 87.9106 334.891H96.3268C96.3978 336.062 96.7115 337.039 97.2678 337.82C97.8242 338.602 98.5877 339.193 99.5583 339.596C100.541 339.998 101.677 340.2 102.967 340.2C104.151 340.2 105.157 340.04 105.986 339.72C106.826 339.401 107.471 338.957 107.921 338.388C108.371 337.82 108.602 337.169 108.614 336.435C108.602 335.749 108.389 335.163 107.975 334.678C107.56 334.18 106.921 333.754 106.057 333.399C105.205 333.032 104.116 332.695 102.79 332.387L98.9901 331.499C95.8415 330.777 93.3616 329.611 91.5505 328.001C89.7394 326.38 88.8398 324.19 88.8517 321.432C88.8398 319.183 89.4435 317.212 90.6627 315.519C91.882 313.826 93.5687 312.507 95.7231 311.56C97.8775 310.613 100.334 310.139 103.092 310.139C105.909 310.139 108.353 310.619 110.425 311.577C112.508 312.524 114.124 313.856 115.272 315.572C116.42 317.289 117.006 319.277 117.03 321.538H108.614ZM156.288 328.818C156.288 332.819 155.518 336.21 153.979 338.992C152.441 341.774 150.357 343.887 147.729 345.331C145.113 346.775 142.178 347.497 138.923 347.497C135.656 347.497 132.714 346.769 130.098 345.313C127.482 343.857 125.405 341.744 123.866 338.974C122.339 336.193 121.575 332.807 121.575 328.818C121.575 324.817 122.339 321.426 123.866 318.644C125.405 315.862 127.482 313.75 130.098 312.305C132.714 310.861 135.656 310.139 138.923 310.139C142.178 310.139 145.113 310.861 147.729 312.305C150.357 313.75 152.441 315.862 153.979 318.644C155.518 321.426 156.288 324.817 156.288 328.818ZM147.303 328.818C147.303 326.451 146.966 324.45 146.291 322.817C145.628 321.183 144.67 319.946 143.415 319.106C142.172 318.265 140.675 317.845 138.923 317.845C137.183 317.845 135.685 318.265 134.43 319.106C133.176 319.946 132.211 321.183 131.536 322.817C130.873 324.45 130.542 326.451 130.542 328.818C130.542 331.186 130.873 333.186 131.536 334.82C132.211 336.453 133.176 337.69 134.43 338.531C135.685 339.371 137.183 339.791 138.923 339.791C140.675 339.791 142.172 339.371 143.415 338.531C144.67 337.69 145.628 336.453 146.291 334.82C146.966 333.186 147.303 331.186 147.303 328.818ZM194.427 323.811H185.549C185.431 322.9 185.188 322.077 184.821 321.343C184.454 320.609 183.969 319.982 183.365 319.461C182.761 318.94 182.045 318.544 181.217 318.271C180.4 317.987 179.494 317.845 178.5 317.845C176.736 317.845 175.215 318.277 173.937 319.141C172.67 320.005 171.694 321.254 171.007 322.888C170.332 324.521 169.995 326.498 169.995 328.818C169.995 331.233 170.338 333.257 171.025 334.891C171.723 336.512 172.7 337.737 173.955 338.566C175.221 339.383 176.719 339.791 178.447 339.791C179.417 339.791 180.299 339.667 181.092 339.418C181.897 339.17 182.602 338.809 183.205 338.335C183.821 337.85 184.324 337.264 184.715 336.577C185.117 335.879 185.395 335.092 185.549 334.216L194.427 334.269C194.273 335.879 193.805 337.465 193.024 339.028C192.255 340.59 191.195 342.017 189.846 343.307C188.497 344.585 186.851 345.603 184.91 346.361C182.98 347.118 180.767 347.497 178.269 347.497C174.979 347.497 172.031 346.775 169.427 345.331C166.835 343.875 164.787 341.756 163.283 338.974C161.78 336.193 161.028 332.807 161.028 328.818C161.028 324.817 161.792 321.426 163.319 318.644C164.846 315.862 166.912 313.75 169.516 312.305C172.12 310.861 175.038 310.139 178.269 310.139C180.471 310.139 182.507 310.447 184.377 311.062C186.247 311.666 187.893 312.554 189.313 313.726C190.734 314.886 191.888 316.312 192.776 318.005C193.663 319.698 194.214 321.633 194.427 323.811ZM199.456 347V310.636H208.245V326.013H208.725L220.745 310.636H231.097L218.206 326.865L231.328 347H220.816L211.761 332.707L208.245 337.146V347H199.456ZM234.564 347V310.636H259.919V317.774H243.353V325.232H258.623V332.387H243.353V339.862H259.919V347H234.564ZM264.233 317.774V310.636H294.968V317.774H283.942V347H275.277V317.774H264.233ZM302.435 347.515C301.156 347.515 300.061 347.065 299.15 346.165C298.25 345.266 297.806 344.177 297.818 342.898C297.806 341.644 298.25 340.572 299.15 339.685C300.061 338.785 301.156 338.335 302.435 338.335C303.642 338.335 304.707 338.785 305.631 339.685C306.566 340.572 307.039 341.644 307.051 342.898C307.039 343.751 306.814 344.526 306.377 345.224C305.95 345.923 305.388 346.479 304.69 346.893C304.003 347.308 303.252 347.515 302.435 347.515ZM321.575 310.636V347H312.786V310.636H321.575ZM361.415 328.818C361.415 332.819 360.645 336.21 359.106 338.992C357.568 341.774 355.484 343.887 352.856 345.331C350.24 346.775 347.305 347.497 344.05 347.497C340.783 347.497 337.841 346.769 335.225 345.313C332.609 343.857 330.532 341.744 328.993 338.974C327.466 336.193 326.702 332.807 326.702 328.818C326.702 324.817 327.466 321.426 328.993 318.644C330.532 315.862 332.609 313.75 335.225 312.305C337.841 310.861 340.783 310.139 344.05 310.139C347.305 310.139 350.24 310.861 352.856 312.305C355.484 313.75 357.568 315.862 359.106 318.644C360.645 321.426 361.415 324.817 361.415 328.818ZM352.43 328.818C352.43 326.451 352.093 324.45 351.418 322.817C350.755 321.183 349.797 319.946 348.542 319.106C347.299 318.265 345.802 317.845 344.05 317.845C342.31 317.845 340.812 318.265 339.557 319.106C338.303 319.946 337.338 321.183 336.663 322.817C336 324.45 335.669 326.451 335.669 328.818C335.669 331.186 336 333.186 336.663 334.82C337.338 336.453 338.303 337.69 339.557 338.531C340.812 339.371 342.31 339.791 344.05 339.791C345.802 339.791 347.299 339.371 348.542 338.531C349.797 337.69 350.755 336.453 351.418 334.82C352.093 333.186 352.43 331.186 352.43 328.818Z" fill="black"/>
<defs>
<clipPath id="clip0_202_16">
<rect width="170" height="170" fill="white" transform="translate(140 107)"/>
</clipPath>
</defs>
</svg>
