<svg width="1440" height="1024" viewBox="0 0 1440 1024" fill="none" xmlns="http://www.w3.org/2000/svg">
<rect width="1440" height="1024" fill="white"/>
<rect width="460" height="1024" transform="translate(490)" fill="white"/>
<path d="M543.825 137.545V155H540.245L533.299 144.926H533.188V155H528.969V137.545H532.6L539.469 147.602H539.614V137.545H543.825ZM562.952 146.273C562.952 148.193 562.582 149.821 561.844 151.156C561.105 152.491 560.105 153.506 558.844 154.199C557.588 154.892 556.179 155.239 554.616 155.239C553.048 155.239 551.636 154.889 550.381 154.19C549.125 153.491 548.128 152.477 547.389 151.148C546.656 149.812 546.29 148.187 546.29 146.273C546.29 144.352 546.656 142.724 547.389 141.389C548.128 140.054 549.125 139.04 550.381 138.347C551.636 137.653 553.048 137.307 554.616 137.307C556.179 137.307 557.588 137.653 558.844 138.347C560.105 139.04 561.105 140.054 561.844 141.389C562.582 142.724 562.952 144.352 562.952 146.273ZM558.639 146.273C558.639 145.136 558.477 144.176 558.153 143.392C557.835 142.608 557.375 142.014 556.773 141.611C556.176 141.207 555.457 141.006 554.616 141.006C553.781 141.006 553.063 141.207 552.46 141.611C551.858 142.014 551.395 142.608 551.071 143.392C550.753 144.176 550.594 145.136 550.594 146.273C550.594 147.409 550.753 148.369 551.071 149.153C551.395 149.937 551.858 150.531 552.46 150.935C553.063 151.338 553.781 151.54 554.616 151.54C555.457 151.54 556.176 151.338 556.773 150.935C557.375 150.531 557.835 149.937 558.153 149.153C558.477 148.369 558.639 147.409 558.639 146.273ZM564.047 140.972V137.545H578.8V140.972H573.507V155H569.348V140.972H564.047ZM580.86 155V137.545H593.031V140.972H585.079V144.551H592.408V147.986H585.079V151.574H593.031V155H580.86Z" fill="white"/>
<path d="M536.128 214V230H532.269V217.609H532.175L528.597 219.797V216.453L532.542 214H536.128ZM539.665 230V227.219L545.501 222.109C545.938 221.714 546.311 221.352 546.618 221.023C546.925 220.69 547.16 220.357 547.321 220.023C547.483 219.685 547.563 219.318 547.563 218.922C547.563 218.479 547.467 218.102 547.274 217.789C547.082 217.471 546.816 217.227 546.478 217.055C546.139 216.883 545.751 216.797 545.313 216.797C544.871 216.797 544.483 216.888 544.149 217.07C543.816 217.247 543.556 217.505 543.368 217.844C543.186 218.182 543.095 218.594 543.095 219.078H539.431C539.431 217.99 539.675 217.049 540.165 216.258C540.655 215.466 541.342 214.857 542.228 214.43C543.118 213.997 544.152 213.781 545.329 213.781C546.543 213.781 547.597 213.984 548.493 214.391C549.389 214.797 550.082 215.365 550.571 216.094C551.066 216.818 551.313 217.659 551.313 218.617C551.313 219.227 551.191 219.831 550.946 220.43C550.701 221.029 550.261 221.69 549.626 222.414C548.996 223.138 548.1 224.005 546.938 225.016L545.024 226.781V226.883H551.509V230H539.665ZM561.093 214V230H557.233V217.609H557.14L553.562 219.797V216.453L557.507 214H561.093Z" fill="white"/>
<path d="M525.181 44.3636V88H522.518V44.3636H525.181ZM539.409 44.3636V48.1989C539.409 49.3636 539.196 50.6065 538.77 51.9276C538.358 53.2344 537.747 54.5057 536.937 55.7415C536.142 56.9631 535.176 58.0284 534.039 58.9375L532.612 57.5099C533.862 56.3168 534.885 54.8892 535.68 53.2273C536.49 51.5511 536.895 49.8821 536.895 48.2202V44.3636H539.409ZM547.772 44.3636H550.669L567.48 84.1648H567.779L584.59 44.3636H587.488V88H584.931V50.6918H584.675L568.887 88H566.373L550.584 50.6918H550.328V88H547.772V44.3636Z" fill="black"/>
<circle cx="901" cy="67" r="24" fill="#D9D9D9"/>
<path d="M818.525 58.64H820.265C820.265 63.24 816.965 66.48 811.645 67.9L811.005 66.58C815.705 65.34 818.525 62.72 818.525 59.38V58.64ZM811.945 58.64H819.485V59.98H811.945V58.64ZM823.945 57.48H825.625V67.68H823.945V57.48ZM813.925 68.56H825.625V75.32H813.925V68.56ZM823.985 69.9H815.565V73.96H823.985V69.9ZM831.303 66.86H843.723V68.2H831.303V66.86ZM829.203 71.94H845.583V73.32H829.203V71.94ZM836.543 67.56H838.183V72.58H836.543V67.56ZM831.303 58.94H843.523V60.3H832.983V67.36H831.303V58.94ZM832.443 62.82H843.143V64.16H832.443V62.82ZM860.762 57.48H862.402V75.56H860.762V57.48ZM851.622 59.42H853.162C853.162 63.74 852.142 68 848.902 71.46L847.582 70.48C850.522 67.44 851.622 63.68 851.622 59.6V59.42ZM848.242 59.42H852.242V60.8H848.242V59.42ZM856.662 59.42H858.202C858.202 63.74 857.522 68.76 854.262 72.66L852.882 71.76C855.902 68.22 856.662 63.74 856.662 59.58V59.42ZM853.762 59.42H857.242V60.8H853.762V59.42Z" fill="black"/>
<rect x="524" y="127" width="190" height="120" rx="10" fill="#F4F4F4"/>
<path d="M552.325 144.545V162H548.745L541.799 151.926H541.688V162H537.469V144.545H541.1L547.969 154.602H548.114V144.545H552.325ZM571.452 153.273C571.452 155.193 571.082 156.821 570.344 158.156C569.605 159.491 568.605 160.506 567.344 161.199C566.088 161.892 564.679 162.239 563.116 162.239C561.548 162.239 560.136 161.889 558.881 161.19C557.625 160.491 556.628 159.477 555.889 158.148C555.156 156.812 554.79 155.187 554.79 153.273C554.79 151.352 555.156 149.724 555.889 148.389C556.628 147.054 557.625 146.04 558.881 145.347C560.136 144.653 561.548 144.307 563.116 144.307C564.679 144.307 566.088 144.653 567.344 145.347C568.605 146.04 569.605 147.054 570.344 148.389C571.082 149.724 571.452 151.352 571.452 153.273ZM567.139 153.273C567.139 152.136 566.977 151.176 566.653 150.392C566.335 149.608 565.875 149.014 565.273 148.611C564.676 148.207 563.957 148.006 563.116 148.006C562.281 148.006 561.563 148.207 560.96 148.611C560.358 149.014 559.895 149.608 559.571 150.392C559.253 151.176 559.094 152.136 559.094 153.273C559.094 154.409 559.253 155.369 559.571 156.153C559.895 156.937 560.358 157.531 560.96 157.935C561.563 158.338 562.281 158.54 563.116 158.54C563.957 158.54 564.676 158.338 565.273 157.935C565.875 157.531 566.335 156.937 566.653 156.153C566.977 155.369 567.139 154.409 567.139 153.273ZM572.547 147.972V144.545H587.3V147.972H582.007V162H577.848V147.972H572.547ZM589.36 162V144.545H601.531V147.972H593.579V151.551H600.908V154.986H593.579V158.574H601.531V162H589.36Z" fill="#222222"/>
<path d="M544.628 214V230H540.769V217.609H540.675L537.097 219.797V216.453L541.042 214H544.628ZM548.165 230V227.219L554.001 222.109C554.438 221.714 554.811 221.352 555.118 221.023C555.425 220.69 555.66 220.357 555.821 220.023C555.983 219.685 556.063 219.318 556.063 218.922C556.063 218.479 555.967 218.102 555.774 217.789C555.582 217.471 555.316 217.227 554.978 217.055C554.639 216.883 554.251 216.797 553.813 216.797C553.371 216.797 552.983 216.888 552.649 217.07C552.316 217.247 552.056 217.505 551.868 217.844C551.686 218.182 551.595 218.594 551.595 219.078H547.931C547.931 217.99 548.175 217.049 548.665 216.258C549.155 215.466 549.842 214.857 550.728 214.43C551.618 213.997 552.652 213.781 553.829 213.781C555.043 213.781 556.097 213.984 556.993 214.391C557.889 214.797 558.582 215.365 559.071 216.094C559.566 216.818 559.813 217.659 559.813 218.617C559.813 219.227 559.691 219.831 559.446 220.43C559.201 221.029 558.761 221.69 558.126 222.414C557.496 223.138 556.6 224.005 555.438 225.016L553.524 226.781V226.883H560.009V230H548.165ZM569.593 214V230H565.733V217.609H565.64L562.062 219.797V216.453L566.007 214H569.593Z" fill="#222222"/>
<rect x="728" y="127" width="190" height="120" rx="10" fill="#4839FA"/>
<path d="M745.626 144.545V162H741.407V144.545H745.626ZM748.274 144.545H753.499L757.93 155.352H758.135L762.567 144.545H767.791V162H763.683V151.278H763.538L759.345 161.889H756.72L752.527 151.219H752.382V162H748.274V144.545ZM770.423 162V144.545H777.633C778.94 144.545 780.067 144.801 781.016 145.312C781.971 145.818 782.707 146.526 783.224 147.435C783.741 148.338 783.999 149.389 783.999 150.588C783.999 151.793 783.735 152.847 783.207 153.75C782.684 154.648 781.937 155.344 780.965 155.838C779.994 156.332 778.84 156.58 777.505 156.58H773.056V153.256H776.721C777.357 153.256 777.888 153.145 778.315 152.923C778.746 152.702 779.073 152.392 779.295 151.994C779.516 151.591 779.627 151.122 779.627 150.588C779.627 150.048 779.516 149.582 779.295 149.19C779.073 148.793 778.746 148.486 778.315 148.27C777.883 148.054 777.352 147.946 776.721 147.946H774.641V162H770.423ZM802.553 153.273C802.553 155.193 802.184 156.821 801.445 158.156C800.707 159.491 799.707 160.506 798.445 161.199C797.19 161.892 795.781 162.239 794.218 162.239C792.65 162.239 791.238 161.889 789.982 161.19C788.727 160.491 787.729 159.477 786.991 158.148C786.258 156.812 785.891 155.187 785.891 153.273C785.891 151.352 786.258 149.724 786.991 148.389C787.729 147.054 788.727 146.04 789.982 145.347C791.238 144.653 792.65 144.307 794.218 144.307C795.781 144.307 797.19 144.653 798.445 145.347C799.707 146.04 800.707 147.054 801.445 148.389C802.184 149.724 802.553 151.352 802.553 153.273ZM798.241 153.273C798.241 152.136 798.079 151.176 797.755 150.392C797.437 149.608 796.977 149.014 796.374 148.611C795.778 148.207 795.059 148.006 794.218 148.006C793.383 148.006 792.664 148.207 792.062 148.611C791.46 149.014 790.996 149.608 790.673 150.392C790.354 151.176 790.195 152.136 790.195 153.273C790.195 154.409 790.354 155.369 790.673 156.153C790.996 156.937 791.46 157.531 792.062 157.935C792.664 158.338 793.383 158.54 794.218 158.54C795.059 158.54 795.778 158.338 796.374 157.935C796.977 157.531 797.437 156.937 797.755 156.153C798.079 155.369 798.241 154.409 798.241 153.273ZM805.016 162V144.545H812.227C813.533 144.545 814.661 144.781 815.61 145.253C816.565 145.719 817.3 146.389 817.817 147.264C818.335 148.134 818.593 149.165 818.593 150.358C818.593 151.568 818.329 152.597 817.8 153.443C817.272 154.284 816.522 154.926 815.55 155.369C814.579 155.807 813.428 156.026 812.099 156.026H807.539V152.702H811.315C811.951 152.702 812.482 152.619 812.908 152.455C813.34 152.284 813.667 152.028 813.888 151.688C814.11 151.341 814.221 150.898 814.221 150.358C814.221 149.818 814.11 149.372 813.888 149.02C813.667 148.662 813.34 148.395 812.908 148.219C812.477 148.037 811.945 147.946 811.315 147.946H809.235V162H805.016ZM814.843 154.023L819.19 162H814.587L810.326 154.023H814.843ZM820.336 147.972V144.545H835.089V147.972H829.796V162H825.637V147.972H820.336ZM838.745 162H834.211L840.1 144.545H845.717L851.606 162H847.072L842.972 148.943H842.836L838.745 162ZM838.14 155.131H847.617V158.335H838.14V155.131ZM868.34 144.545V162H864.761L857.815 151.926H857.704V162H853.485V144.545H857.116L863.985 154.602H864.13V144.545H868.34ZM870.422 147.972V144.545H885.175V147.972H879.882V162H875.723V147.972H870.422Z" fill="white"/>
<path d="M741.366 230V227.219L747.202 222.109C747.64 221.714 748.012 221.352 748.319 221.023C748.627 220.69 748.861 220.357 749.022 220.023C749.184 219.685 749.265 219.318 749.265 218.922C749.265 218.479 749.168 218.102 748.976 217.789C748.783 217.471 748.517 217.227 748.179 217.055C747.84 216.883 747.452 216.797 747.015 216.797C746.572 216.797 746.184 216.888 745.851 217.07C745.517 217.247 745.257 217.505 745.069 217.844C744.887 218.182 744.796 218.594 744.796 219.078H741.132C741.132 217.99 741.377 217.049 741.866 216.258C742.356 215.466 743.043 214.857 743.929 214.43C744.819 213.997 745.853 213.781 747.03 213.781C748.244 213.781 749.299 213.984 750.194 214.391C751.09 214.797 751.783 215.365 752.272 216.094C752.767 216.818 753.015 217.659 753.015 218.617C753.015 219.227 752.892 219.831 752.647 220.43C752.403 221.029 751.963 221.69 751.327 222.414C750.697 223.138 749.801 224.005 748.64 225.016L746.726 226.781V226.883H753.21V230H741.366ZM762.013 230.391C760.617 230.391 759.414 230.06 758.403 229.398C757.393 228.732 756.614 227.776 756.067 226.531C755.521 225.281 755.25 223.779 755.255 222.023C755.26 220.268 755.534 218.779 756.075 217.555C756.622 216.326 757.398 215.391 758.403 214.75C759.414 214.104 760.617 213.781 762.013 213.781C763.409 213.781 764.612 214.104 765.622 214.75C766.638 215.391 767.419 216.326 767.966 217.555C768.513 218.784 768.784 220.273 768.778 222.023C768.778 223.784 768.505 225.289 767.958 226.539C767.411 227.789 766.632 228.745 765.622 229.406C764.617 230.062 763.414 230.391 762.013 230.391ZM762.013 227.227C762.846 227.227 763.521 226.802 764.036 225.953C764.552 225.099 764.807 223.789 764.802 222.023C764.802 220.867 764.685 219.914 764.45 219.164C764.216 218.409 763.89 217.846 763.474 217.477C763.057 217.107 762.57 216.922 762.013 216.922C761.185 216.922 760.515 217.341 760.005 218.18C759.494 219.013 759.237 220.294 759.231 222.023C759.226 223.195 759.338 224.167 759.567 224.937C759.802 225.708 760.13 226.284 760.552 226.664C760.974 227.039 761.461 227.227 762.013 227.227Z" fill="white"/>
<path d="M889 293H907" stroke="#4839FA" stroke-width="2" stroke-linecap="round"/>
<path d="M904.79 272C904.354 272 904 272.354 904 272.79V281.63C904 283.491 902.491 285 900.63 285H894.95C893.089 285 891.58 283.491 891.58 281.63V272.79C891.58 272.354 891.226 272 890.79 272C890.354 272 890 272.354 890 272.79V281.63C890.027 284.372 892.258 286.58 895 286.58H900.68C903.403 286.553 905.603 284.353 905.63 281.63V272.79C905.63 272.572 905.54 272.363 905.381 272.213C905.222 272.063 905.008 271.986 904.79 272Z" fill="black"/>
<path fill-rule="evenodd" clip-rule="evenodd" d="M904.79 270.58H890.79C890.354 270.58 890 270.226 890 269.79C890 269.354 890.354 269 890.79 269H893.44L894.62 267.72C895.071 267.261 895.687 267.002 896.33 267H899.25C899.884 267 900.492 267.252 900.94 267.7L902.14 269H904.79C905.226 269 905.58 269.354 905.58 269.79C905.58 270.226 905.226 270.58 904.79 270.58ZM899.25 268.58H896.33C896.13 268.58 895.937 268.655 895.79 268.79L895.6 268.99H899.98L899.79 268.79C899.644 268.653 899.45 268.578 899.25 268.58Z" fill="black"/>
<path d="M894.04 273.79V276.79C894.04 277.204 894.376 277.54 894.79 277.54C895.204 277.54 895.54 277.204 895.54 276.79V273.79C895.54 273.376 895.204 273.04 894.79 273.04C894.376 273.04 894.04 273.376 894.04 273.79Z" fill="black"/>
<path d="M897.04 273.79V281.79C897.04 282.204 897.376 282.54 897.79 282.54C898.204 282.54 898.54 282.204 898.54 281.79V273.79C898.54 273.376 898.204 273.04 897.79 273.04C897.376 273.04 897.04 273.376 897.04 273.79Z" fill="black"/>
<path d="M900.04 273.79V276.79C900.04 277.204 900.376 277.54 900.79 277.54C901.204 277.54 901.54 277.204 901.54 276.79V273.79C901.54 273.376 901.204 273.04 900.79 273.04C900.376 273.04 900.04 273.376 900.04 273.79Z" fill="black"/>
<path d="M776.707 286V268.545H787.173V270.42H778.821V276.318H786.389V278.193H778.821V286H776.707ZM805.521 277.273C805.521 279.114 805.188 280.705 804.523 282.045C803.859 283.386 802.947 284.42 801.788 285.148C800.629 285.875 799.305 286.239 797.816 286.239C796.327 286.239 795.004 285.875 793.844 285.148C792.685 284.42 791.773 283.386 791.109 282.045C790.444 280.705 790.112 279.114 790.112 277.273C790.112 275.432 790.444 273.841 791.109 272.5C791.773 271.159 792.685 270.125 793.844 269.398C795.004 268.67 796.327 268.307 797.816 268.307C799.305 268.307 800.629 268.67 801.788 269.398C802.947 270.125 803.859 271.159 804.523 272.5C805.188 273.841 805.521 275.432 805.521 277.273ZM803.475 277.273C803.475 275.761 803.222 274.486 802.717 273.446C802.217 272.406 801.538 271.619 800.68 271.085C799.827 270.551 798.873 270.284 797.816 270.284C796.759 270.284 795.802 270.551 794.944 271.085C794.092 271.619 793.413 272.406 792.907 273.446C792.407 274.486 792.157 275.761 792.157 277.273C792.157 278.784 792.407 280.06 792.907 281.099C793.413 282.139 794.092 282.926 794.944 283.46C795.802 283.994 796.759 284.261 797.816 284.261C798.873 284.261 799.827 283.994 800.68 283.46C801.538 282.926 802.217 282.139 802.717 281.099C803.222 280.06 803.475 278.784 803.475 277.273ZM809.075 286V268.545H811.188V284.125H819.302V286H809.075ZM827.961 286H822.575V268.545H828.2C829.893 268.545 831.342 268.895 832.546 269.594C833.751 270.287 834.674 271.284 835.316 272.585C835.958 273.881 836.279 275.432 836.279 277.239C836.279 279.057 835.955 280.622 835.308 281.935C834.66 283.241 833.717 284.247 832.478 284.952C831.239 285.651 829.734 286 827.961 286ZM824.688 284.125H827.825C829.268 284.125 830.464 283.847 831.413 283.29C832.362 282.733 833.069 281.94 833.535 280.912C834.001 279.884 834.234 278.659 834.234 277.239C834.234 275.83 834.004 274.616 833.543 273.599C833.083 272.577 832.396 271.793 831.481 271.247C830.566 270.696 829.427 270.42 828.063 270.42H824.688V284.125ZM839.825 286V268.545H850.359V270.42H841.938V276.318H849.813V278.193H841.938V284.125H850.495V286H839.825ZM854.168 286V268.545H860.066C861.43 268.545 862.549 268.778 863.424 269.244C864.299 269.705 864.947 270.338 865.367 271.145C865.788 271.952 865.998 272.869 865.998 273.898C865.998 274.926 865.788 275.838 865.367 276.634C864.947 277.429 864.302 278.054 863.433 278.509C862.563 278.957 861.452 279.182 860.1 279.182H855.327V277.273H860.032C860.964 277.273 861.714 277.136 862.282 276.864C862.856 276.591 863.271 276.205 863.526 275.705C863.788 275.199 863.918 274.597 863.918 273.898C863.918 273.199 863.788 272.588 863.526 272.065C863.265 271.543 862.847 271.139 862.273 270.855C861.7 270.565 860.941 270.42 859.998 270.42H856.282V286H854.168ZM862.384 278.159L866.68 286H864.225L859.998 278.159H862.384Z" fill="black"/>
<path d="M618.419 268.545V286H616.305V268.545H618.419ZM622.657 268.545H625.179L631.111 283.034H631.316L637.248 268.545H639.77V286H637.793V272.739H637.623L632.168 286H630.259L624.804 272.739H624.634V286H622.657V268.545ZM644.008 286V268.545H649.906C651.275 268.545 652.395 268.793 653.264 269.287C654.139 269.776 654.787 270.438 655.207 271.273C655.627 272.108 655.838 273.04 655.838 274.068C655.838 275.097 655.627 276.031 655.207 276.872C654.792 277.713 654.15 278.384 653.281 278.884C652.412 279.378 651.298 279.625 649.94 279.625H645.713V277.75H649.872C650.809 277.75 651.562 277.588 652.13 277.264C652.699 276.94 653.11 276.503 653.366 275.952C653.627 275.395 653.758 274.767 653.758 274.068C653.758 273.369 653.627 272.744 653.366 272.193C653.11 271.642 652.696 271.21 652.122 270.898C651.548 270.58 650.787 270.42 649.838 270.42H646.122V286H644.008ZM673.97 277.273C673.97 279.114 673.637 280.705 672.973 282.045C672.308 283.386 671.396 284.42 670.237 285.148C669.078 285.875 667.754 286.239 666.265 286.239C664.777 286.239 663.453 285.875 662.294 285.148C661.135 284.42 660.223 283.386 659.558 282.045C658.893 280.705 658.561 279.114 658.561 277.273C658.561 275.432 658.893 273.841 659.558 272.5C660.223 271.159 661.135 270.125 662.294 269.398C663.453 268.67 664.777 268.307 666.265 268.307C667.754 268.307 669.078 268.67 670.237 269.398C671.396 270.125 672.308 271.159 672.973 272.5C673.637 273.841 673.97 275.432 673.97 277.273ZM671.924 277.273C671.924 275.761 671.672 274.486 671.166 273.446C670.666 272.406 669.987 271.619 669.129 271.085C668.277 270.551 667.322 270.284 666.265 270.284C665.208 270.284 664.251 270.551 663.393 271.085C662.541 271.619 661.862 272.406 661.356 273.446C660.856 274.486 660.606 275.761 660.606 277.273C660.606 278.784 660.856 280.06 661.356 281.099C661.862 282.139 662.541 282.926 663.393 283.46C664.251 283.994 665.208 284.261 666.265 284.261C667.322 284.261 668.277 283.994 669.129 283.46C669.987 282.926 670.666 282.139 671.166 281.099C671.672 280.06 671.924 278.784 671.924 277.273ZM677.524 286V268.545H683.422C684.785 268.545 685.904 268.778 686.779 269.244C687.654 269.705 688.302 270.338 688.723 271.145C689.143 271.952 689.353 272.869 689.353 273.898C689.353 274.926 689.143 275.838 688.723 276.634C688.302 277.429 687.657 278.054 686.788 278.509C685.919 278.957 684.808 279.182 683.456 279.182H678.683V277.273H683.387C684.319 277.273 685.069 277.136 685.637 276.864C686.211 276.591 686.626 276.205 686.882 275.705C687.143 275.199 687.274 274.597 687.274 273.898C687.274 273.199 687.143 272.588 686.882 272.065C686.62 271.543 686.203 271.139 685.629 270.855C685.055 270.565 684.297 270.42 683.353 270.42H679.637V286H677.524ZM685.74 278.159L690.035 286H687.581L683.353 278.159H685.74ZM691.921 270.42V268.545H705.012V270.42H699.523V286H697.409V270.42H691.921ZM706.951 286H704.735L711.144 268.545H713.326L719.735 286H717.519L712.303 271.307H712.167L706.951 286ZM707.769 279.182H716.701V281.057H707.769V279.182ZM736.294 268.545V286H734.249L724.738 272.295H724.567V286H722.453V268.545H724.499L734.044 282.284H734.215V268.545H736.294ZM739.569 270.42V268.545H752.66V270.42H747.172V286H745.058V270.42H739.569Z" fill="#808080"/>
<path d="M543.892 268.545V286H541.846L532.335 272.295H532.164V286H530.051V268.545H532.096L541.642 282.284H541.812V268.545H543.892ZM562.848 277.273C562.848 279.114 562.516 280.705 561.851 282.045C561.186 283.386 560.274 284.42 559.115 285.148C557.956 285.875 556.632 286.239 555.144 286.239C553.655 286.239 552.331 285.875 551.172 285.148C550.013 284.42 549.101 283.386 548.436 282.045C547.772 280.705 547.439 279.114 547.439 277.273C547.439 275.432 547.772 273.841 548.436 272.5C549.101 271.159 550.013 270.125 551.172 269.398C552.331 268.67 553.655 268.307 555.144 268.307C556.632 268.307 557.956 268.67 559.115 269.398C560.274 270.125 561.186 271.159 561.851 272.5C562.516 273.841 562.848 275.432 562.848 277.273ZM560.803 277.273C560.803 275.761 560.55 274.486 560.044 273.446C559.544 272.406 558.865 271.619 558.007 271.085C557.155 270.551 556.201 270.284 555.144 270.284C554.087 270.284 553.13 270.551 552.272 271.085C551.419 271.619 550.74 272.406 550.235 273.446C549.735 274.486 549.485 275.761 549.485 277.273C549.485 278.784 549.735 280.06 550.235 281.099C550.74 282.139 551.419 282.926 552.272 283.46C553.13 283.994 554.087 284.261 555.144 284.261C556.201 284.261 557.155 283.994 558.007 283.46C558.865 282.926 559.544 282.139 560.044 281.099C560.55 280.06 560.803 278.784 560.803 277.273ZM564.721 270.42V268.545H577.812V270.42H572.323V286H570.21V270.42H564.721ZM581.074 286V268.545H591.608V270.42H583.188V276.318H591.063V278.193H583.188V284.125H591.745V286H581.074Z" fill="#808080"/>
<rect x="527" y="332" width="380" height="80" rx="10" fill="#F8F8F8"/>
<path d="M566.44 346.4H567.8V348.26C567.8 351.68 565.84 354.5 562.8 355.66L561.94 354.32C564.66 353.34 566.44 350.96 566.44 348.26V346.4ZM566.74 346.4H568.08V348.38C568.08 350.82 569.88 353.08 572.48 353.98L571.64 355.3C568.7 354.22 566.74 351.52 566.74 348.38V346.4ZM574.36 345.48H576.02V356.42H574.36V345.48ZM575.56 350.24H578.7V351.64H575.56V350.24ZM564.28 357.32H576.02V363.56H574.36V358.7H564.28V357.32ZM594.138 345.48H595.738V363.56H594.138V345.48ZM587.558 351.96H591.018V353.34H587.558V351.96ZM590.518 345.9H592.078V362.64H590.518V345.9ZM584.078 348.28H585.358V350.58C585.358 354.54 583.838 358.28 581.178 359.96L580.158 358.72C582.678 357.2 584.078 353.9 584.078 350.58V348.28ZM584.418 348.28H585.698V350.58C585.698 353.72 587.058 356.86 589.538 358.3L588.518 359.52C585.878 357.92 584.418 354.36 584.418 350.58V348.28ZM580.658 347.58H588.918V348.96H580.658V347.58ZM616.662 345.48H618.322V363.56H616.662V345.48ZM617.922 352.9H621.282V354.3H617.922V352.9ZM604.322 348.36H614.982V349.72H604.322V348.36ZM609.722 351.22C612.282 351.22 614.122 352.94 614.122 355.38C614.122 357.82 612.282 359.54 609.722 359.54C607.182 359.54 605.322 357.82 605.322 355.38C605.322 352.94 607.182 351.22 609.722 351.22ZM609.722 352.6C608.082 352.6 606.902 353.74 606.902 355.38C606.902 357 608.082 358.16 609.722 358.16C611.362 358.16 612.542 357 612.542 355.38C612.542 353.74 611.362 352.6 609.722 352.6ZM608.862 345.7H610.522V348.98H608.862V345.7ZM636.26 352.68H639.6V354.08H636.26V352.68ZM635.04 345.46H636.72V363.56H635.04V345.46ZM623.52 347.24H625.18V358.44H623.52V347.24ZM623.52 357.58H624.96C627.64 357.58 630.38 357.4 633.36 356.78L633.56 358.16C630.48 358.8 627.7 358.98 624.96 358.98H623.52V357.58Z" fill="black"/>
<path d="M848.026 353V352.361L850.427 349.733C850.709 349.425 850.941 349.158 851.123 348.93C851.305 348.701 851.44 348.485 851.528 348.284C851.618 348.08 851.663 347.867 851.663 347.645C851.663 347.389 851.601 347.168 851.478 346.981C851.357 346.794 851.192 346.649 850.981 346.548C850.77 346.446 850.533 346.395 850.271 346.395C849.991 346.395 849.747 346.453 849.539 346.569C849.333 346.683 849.173 346.842 849.06 347.048C848.948 347.254 848.893 347.496 848.893 347.773H848.055C848.055 347.347 848.153 346.973 848.349 346.651C848.546 346.329 848.813 346.078 849.152 345.898C849.493 345.718 849.875 345.628 850.299 345.628C850.725 345.628 851.103 345.718 851.432 345.898C851.761 346.078 852.019 346.32 852.206 346.626C852.393 346.931 852.487 347.271 852.487 347.645C852.487 347.912 852.438 348.174 852.341 348.43C852.246 348.683 852.08 348.966 851.844 349.278C851.609 349.589 851.284 349.967 850.867 350.415L849.234 352.162V352.219H852.614V353H848.026ZM856.358 345.07C857.708 345.07 858.698 345.89 858.698 347.08C858.698 348.26 857.708 349.08 856.358 349.08C855.018 349.08 854.028 348.26 854.028 347.08C854.028 345.89 855.018 345.07 856.358 345.07ZM856.358 345.75C855.488 345.75 854.828 346.3 854.828 347.08C854.828 347.86 855.488 348.4 856.358 348.4C857.238 348.4 857.888 347.86 857.888 347.08C857.888 346.3 857.238 345.75 856.358 345.75ZM860.398 344.74H861.238V349.37H860.398V344.74ZM855.388 349.81H861.238V352.01H856.218V353.37H855.408V351.39H860.418V350.48H855.388V349.81ZM855.408 353H861.538V353.66H855.408V353ZM867.817 347.23H870.097V347.91H867.817V347.23ZM869.627 344.75H870.457V351.37H869.627V344.75ZM864.687 352.9H870.707V353.58H864.687V352.9ZM864.687 350.79H865.517V353.25H864.687V350.79ZM865.327 345.87H866.007V346.6C866.007 348.24 864.987 349.66 863.477 350.22L863.047 349.56C864.397 349.08 865.327 347.88 865.327 346.6V345.87ZM865.487 345.87H866.157V346.59C866.157 347.76 867.037 348.9 868.347 349.36L867.927 350.01C866.457 349.48 865.487 348.12 865.487 346.59V345.87ZM863.307 345.48H868.137V346.15H863.307V345.48Z" fill="black"/>
<path d="M563.528 379.36H564.84V381.168H571.832V379.36H573.16V385.136H563.528V379.36ZM564.84 382.224V384.064H571.832V382.224H564.84ZM561.784 386.672H574.856V387.76H561.784V386.672ZM567.672 384.512H568.984V387.152H567.672V384.512ZM563.48 391.84H573.416V392.928H563.48V391.84ZM563.48 388.928H564.808V392.208H563.48V388.928ZM576.503 386.176H589.607V387.264H576.503V386.176ZM582.487 386.848H583.815V390.176H582.487V386.848ZM578.183 379.456H587.911V384.544H578.183V379.456ZM586.599 380.528H579.479V383.472H586.599V380.528ZM578.167 391.84H588.151V392.928H578.167V391.84ZM578.167 388.784H579.479V392.224H578.167V388.784ZM606.25 378.784H607.594V386.544H606.25V378.784ZM598.266 387.264H599.578V389.024H606.282V387.264H607.594V393.056H598.266V387.264ZM599.578 390.08V391.984H606.282V390.08H599.578ZM599.834 379.472C602.026 379.472 603.594 380.832 603.594 382.8C603.594 384.784 602.026 386.144 599.834 386.144C597.642 386.144 596.058 384.784 596.058 382.8C596.058 380.832 597.642 379.472 599.834 379.472ZM599.834 380.576C598.394 380.576 597.354 381.488 597.354 382.8C597.354 384.112 598.394 385.024 599.834 385.024C601.274 385.024 602.314 384.112 602.314 382.8C602.314 381.488 601.274 380.576 599.834 380.576ZM611.048 385.952H612.088C614.936 385.952 616.344 385.904 618.072 385.6L618.216 386.672C616.424 386.992 614.984 387.04 612.088 387.04H611.048V385.952ZM611.016 379.648H617.256V383.76H612.36V386.608H611.048V382.72H615.944V380.736H611.016V379.648ZM621.016 378.8H622.344V387.68H621.016V378.8ZM618.216 380.928H621.32V382.016H618.216V380.928ZM618.216 383.92H621.32V385.008H618.216V383.92ZM612.664 388.464H622.344V393.28H621.016V389.552H612.664V388.464ZM635.687 378.784H637.031V386.544H635.687V378.784ZM627.703 387.264H629.015V389.024H635.719V387.264H637.031V393.056H627.703V387.264ZM629.015 390.08V391.984H635.719V390.08H629.015ZM629.271 379.472C631.463 379.472 633.031 380.832 633.031 382.8C633.031 384.784 631.463 386.144 629.271 386.144C627.079 386.144 625.495 384.784 625.495 382.8C625.495 380.832 627.079 379.472 629.271 379.472ZM629.271 380.576C627.831 380.576 626.791 381.488 626.791 382.8C626.791 384.112 627.831 385.024 629.271 385.024C630.711 385.024 631.751 384.112 631.751 382.8C631.751 381.488 630.711 380.576 629.271 380.576ZM650.406 378.784H651.734V393.248H650.406V378.784ZM640.806 380.192H642.118V389.152H640.806V380.192ZM640.806 388.368H641.99C644.182 388.368 646.47 388.208 648.918 387.696L649.078 388.832C646.566 389.344 644.278 389.52 641.99 389.52H640.806V388.368ZM664.389 378.768H665.733V393.264H664.389V378.768ZM665.413 384.48H668.101V385.6H665.413V384.48ZM655.221 388.544H656.357C659.029 388.544 660.901 388.448 663.061 388.048L663.205 389.168C660.981 389.584 659.077 389.664 656.357 389.664H655.221V388.544ZM655.221 380.176H661.941V381.264H656.533V389.04H655.221V380.176ZM673.171 379.888C675.299 379.888 676.803 381.856 676.803 384.928C676.803 388.016 675.299 389.984 673.171 389.984C671.043 389.984 669.539 388.016 669.539 384.928C669.539 381.856 671.043 379.888 673.171 379.888ZM673.171 381.088C671.763 381.088 670.803 382.592 670.803 384.928C670.803 387.28 671.763 388.816 673.171 388.816C674.563 388.816 675.539 387.28 675.539 384.928C675.539 382.592 674.563 381.088 673.171 381.088ZM679.107 378.784H680.451V393.248H679.107V378.784ZM680.131 384.56H682.819V385.68H680.131V384.56ZM685.455 392.091C685.174 392.091 684.934 391.991 684.733 391.79C684.532 391.589 684.432 391.348 684.432 391.068C684.432 390.788 684.532 390.547 684.733 390.347C684.934 390.146 685.174 390.045 685.455 390.045C685.735 390.045 685.975 390.146 686.176 390.347C686.377 390.547 686.477 390.788 686.477 391.068C686.477 391.254 686.43 391.424 686.335 391.58C686.244 391.735 686.121 391.86 685.966 391.955C685.814 392.045 685.644 392.091 685.455 392.091Z" fill="#282828"/>
<rect x="534.946" y="344.947" width="19" height="19" rx="5.5" stroke="#C2C2C2"/>
<rect x="527" y="432" width="380" height="100" rx="10" fill="#F8F8F8"/>
<path d="M566.44 446.4H567.8V448.26C567.8 451.68 565.84 454.5 562.8 455.66L561.94 454.32C564.66 453.34 566.44 450.96 566.44 448.26V446.4ZM566.74 446.4H568.08V448.38C568.08 450.82 569.88 453.08 572.48 453.98L571.64 455.3C568.7 454.22 566.74 451.52 566.74 448.38V446.4ZM574.36 445.48H576.02V456.42H574.36V445.48ZM575.56 450.24H578.7V451.64H575.56V450.24ZM564.28 457.32H576.02V463.56H574.36V458.7H564.28V457.32ZM594.138 445.48H595.738V463.56H594.138V445.48ZM587.558 451.96H591.018V453.34H587.558V451.96ZM590.518 445.9H592.078V462.64H590.518V445.9ZM584.078 448.28H585.358V450.58C585.358 454.54 583.838 458.28 581.178 459.96L580.158 458.72C582.678 457.2 584.078 453.9 584.078 450.58V448.28ZM584.418 448.28H585.698V450.58C585.698 453.72 587.058 456.86 589.538 458.3L588.518 459.52C585.878 457.92 584.418 454.36 584.418 450.58V448.28ZM580.658 447.58H588.918V448.96H580.658V447.58ZM611.762 453.72H613.402V456.96H611.762V453.72ZM606.582 450.28H618.822V451.62H606.582V450.28ZM606.582 446.18H618.622V447.52H608.222V451H606.582V446.18ZM604.402 453.06H620.742V454.42H604.402V453.06ZM606.382 456.18H618.662V460.26H608.062V462.44H606.422V459.04H617.022V457.46H606.382V456.18ZM606.422 462.06H619.202V463.36H606.422V462.06Z" fill="black"/>
<path d="M848.026 453V452.361L850.427 449.733C850.709 449.425 850.941 449.158 851.123 448.93C851.305 448.701 851.44 448.485 851.528 448.284C851.618 448.08 851.663 447.867 851.663 447.645C851.663 447.389 851.601 447.168 851.478 446.981C851.357 446.794 851.192 446.649 850.981 446.548C850.77 446.446 850.533 446.395 850.271 446.395C849.991 446.395 849.747 446.453 849.539 446.569C849.333 446.683 849.173 446.842 849.06 447.048C848.948 447.254 848.893 447.496 848.893 447.773H848.055C848.055 447.347 848.153 446.973 848.349 446.651C848.546 446.329 848.813 446.078 849.152 445.898C849.493 445.718 849.875 445.628 850.299 445.628C850.725 445.628 851.103 445.718 851.432 445.898C851.761 446.078 852.019 446.32 852.206 446.626C852.393 446.931 852.487 447.271 852.487 447.645C852.487 447.912 852.438 448.174 852.341 448.43C852.246 448.683 852.08 448.966 851.844 449.278C851.609 449.589 851.284 449.967 850.867 450.415L849.234 452.162V452.219H852.614V453H848.026ZM856.358 445.07C857.708 445.07 858.698 445.89 858.698 447.08C858.698 448.26 857.708 449.08 856.358 449.08C855.018 449.08 854.028 448.26 854.028 447.08C854.028 445.89 855.018 445.07 856.358 445.07ZM856.358 445.75C855.488 445.75 854.828 446.3 854.828 447.08C854.828 447.86 855.488 448.4 856.358 448.4C857.238 448.4 857.888 447.86 857.888 447.08C857.888 446.3 857.238 445.75 856.358 445.75ZM860.398 444.74H861.238V449.37H860.398V444.74ZM855.388 449.81H861.238V452.01H856.218V453.37H855.408V451.39H860.418V450.48H855.388V449.81ZM855.408 453H861.538V453.66H855.408V453ZM867.817 447.23H870.097V447.91H867.817V447.23ZM869.627 444.75H870.457V451.37H869.627V444.75ZM864.687 452.9H870.707V453.58H864.687V452.9ZM864.687 450.79H865.517V453.25H864.687V450.79ZM865.327 445.87H866.007V446.6C866.007 448.24 864.987 449.66 863.477 450.22L863.047 449.56C864.397 449.08 865.327 447.88 865.327 446.6V445.87ZM865.487 445.87H866.157V446.59C866.157 447.76 867.037 448.9 868.347 449.36L867.927 450.01C866.457 449.48 865.487 448.12 865.487 446.59V445.87ZM863.307 445.48H868.137V446.15H863.307V445.48Z" fill="black"/>
<path d="M572.296 478.768H573.624V493.264H572.296V478.768ZM565.992 479.888C568.136 479.888 569.672 481.856 569.672 484.928C569.672 488.016 568.136 489.984 565.992 489.984C563.864 489.984 562.328 488.016 562.328 484.928C562.328 481.856 563.864 479.888 565.992 479.888ZM565.992 481.088C564.584 481.088 563.592 482.592 563.592 484.928C563.592 487.28 564.584 488.816 565.992 488.816C567.416 488.816 568.392 487.28 568.392 484.928C568.392 482.592 567.416 481.088 565.992 481.088ZM591.579 478.784H592.907V489.552H591.579V478.784ZM581.435 479.952H589.051V481.04H581.435V479.952ZM581.195 487.376L581.051 486.24C583.419 486.24 586.795 486.208 589.499 485.888L589.579 486.88C586.795 487.328 583.547 487.376 581.195 487.376ZM582.875 480.88H584.155V486.432H582.875V480.88ZM586.331 480.88H587.611V486.432H586.331V480.88ZM589.179 481.52H592.283V482.608H589.179V481.52ZM589.179 484.288H592.283V485.376H589.179V484.288ZM583.659 491.84H593.291V492.928H583.659V491.84ZM583.659 488.672H584.987V492.528H583.659V488.672ZM599.562 480.848H600.634V483.2C600.634 486.256 598.794 489.328 596.49 490.464L595.722 489.408C597.818 488.416 599.562 485.696 599.562 483.2V480.848ZM599.818 480.848H600.89V483.2C600.89 485.648 602.634 488.144 604.762 489.056L604.01 490.112C601.674 489.024 599.818 486.208 599.818 483.2V480.848ZM596.202 480.256H604.282V481.376H596.202V480.256ZM606.234 478.784H607.562V493.248H606.234V478.784ZM612.216 483.12H622.04V484.208H612.216V483.12ZM610.44 486.144H623.56V487.232H610.44V486.144ZM612.216 479.312H613.528V483.664H612.216V479.312ZM612.12 491.808H622.12V492.896H612.12V491.808ZM612.12 488.672H613.432V492.096H612.12V488.672ZM636.251 480.864H640.667V481.952H636.251V480.864ZM636.251 484.192H640.667V485.296H636.251V484.192ZM633.611 479.632C635.739 479.632 637.339 481.072 637.339 483.072C637.339 485.088 635.739 486.512 633.611 486.512C631.467 486.512 629.883 485.088 629.883 483.072C629.883 481.072 631.467 479.632 633.611 479.632ZM633.611 480.768C632.203 480.768 631.163 481.712 631.163 483.072C631.163 484.432 632.203 485.376 633.611 485.376C635.019 485.376 636.075 484.432 636.075 483.072C636.075 481.712 635.019 480.768 633.611 480.768ZM640.235 478.784H641.563V487.344H640.235V478.784ZM636.811 487.68C639.787 487.68 641.627 488.704 641.627 490.448C641.627 492.208 639.787 493.216 636.811 493.216C633.819 493.216 631.979 492.208 631.979 490.448C631.979 488.704 633.819 487.68 636.811 487.68ZM636.811 488.736C634.619 488.736 633.291 489.376 633.291 490.448C633.291 491.536 634.619 492.176 636.811 492.176C638.987 492.176 640.315 491.536 640.315 490.448C640.315 489.376 638.987 488.736 636.811 488.736ZM646.058 479.456H655.37V480.544H646.058V479.456ZM644.394 484.64H657.498V485.728H644.394V484.64ZM650.266 485.376H651.578V488.784H650.266V485.376ZM654.506 479.456H655.802V480.528C655.802 481.728 655.802 483.184 655.322 485.168L654.026 485.008C654.506 483.072 654.506 481.696 654.506 480.528V479.456ZM645.754 488.352H655.898V493.248H654.57V489.44H645.754V488.352ZM664.969 484.4H667.705V485.504H664.969V484.4ZM670.121 478.784H671.401V493.248H670.121V478.784ZM667.257 479.088H668.521V492.528H667.257V479.088ZM662.361 479.984C664.233 479.984 665.449 481.92 665.449 485.024C665.449 488.128 664.233 490.064 662.361 490.064C660.489 490.064 659.289 488.128 659.289 485.024C659.289 481.92 660.489 479.984 662.361 479.984ZM662.361 481.216C661.225 481.216 660.505 482.688 660.505 485.024C660.505 487.36 661.225 488.832 662.361 488.832C663.513 488.832 664.233 487.36 664.233 485.024C664.233 482.688 663.513 481.216 662.361 481.216ZM681.047 483.68H685.079V484.768H681.047V483.68ZM677.559 480.032H678.647V482.608C678.647 485.856 676.935 488.96 674.647 490.192L673.799 489.136C675.927 488.08 677.559 485.296 677.559 482.608V480.032ZM677.815 480.032H678.887V482.608C678.887 485.248 680.519 487.872 682.615 488.864L681.831 489.936C679.495 488.752 677.815 485.776 677.815 482.608V480.032ZM684.423 478.768H685.735V493.264H684.423V478.768ZM688.534 487.344H701.654V488.432H688.534V487.344ZM694.39 487.856H695.702V493.248H694.39V487.856ZM690.182 479.36H691.51V481.344H698.662V479.36H699.974V485.616H690.182V479.36ZM691.51 482.416V484.544H698.662V482.416H691.51ZM713.861 478.768H715.173V493.264H713.861V478.768ZM710.853 484.224H714.053V485.328H710.853V484.224ZM703.925 488.688H705.029C707.749 488.688 709.461 488.64 711.493 488.256L711.621 489.344C709.541 489.712 707.781 489.792 705.029 489.792H703.925V488.688ZM703.925 480.096H710.613V481.2H705.237V489.072H703.925V480.096ZM704.901 484.16H709.989V485.232H704.901V484.16ZM726.296 480.032H727.384V482.624C727.384 485.952 725.592 489.04 723.224 490.24L722.408 489.152C724.552 488.128 726.296 485.36 726.296 482.624V480.032ZM726.52 480.032H727.608V482.624C727.608 485.264 729.336 487.92 731.48 488.912L730.68 489.968C728.328 488.816 726.52 485.84 726.52 482.624V480.032ZM732.984 478.768H734.312V493.264H732.984V478.768ZM740.758 480.272H741.846V481.44C741.846 484.096 740.246 486.304 737.83 487.168L737.126 486.128C739.318 485.36 740.758 483.504 740.758 481.44V480.272ZM740.998 480.272H742.086V481.424C742.086 483.344 743.478 485.12 745.606 485.84L744.918 486.88C742.534 486.048 740.998 483.92 740.998 481.424V480.272ZM737.542 479.792H745.27V480.88H737.542V479.792ZM747.094 478.784H748.422V487.488H747.094V478.784ZM748.054 482.592H750.566V483.696H748.054V482.592ZM739.03 488.256H748.422V493.248H747.094V489.36H739.03V488.256ZM761.717 478.784H763.045V493.248H761.717V478.784ZM762.725 484.72H765.413V485.84H762.725V484.72ZM751.845 481.088H760.373V482.176H751.845V481.088ZM756.165 483.376C758.213 483.376 759.685 484.752 759.685 486.704C759.685 488.656 758.213 490.032 756.165 490.032C754.133 490.032 752.645 488.656 752.645 486.704C752.645 484.752 754.133 483.376 756.165 483.376ZM756.165 484.48C754.853 484.48 753.909 485.392 753.909 486.704C753.909 488 754.853 488.928 756.165 488.928C757.477 488.928 758.421 488 758.421 486.704C758.421 485.392 757.477 484.48 756.165 484.48ZM755.477 478.96H756.805V481.584H755.477V478.96ZM773.156 482H777.524V483.104H773.156V482ZM773.156 486.576H777.524V487.68H773.156V486.576ZM770.5 479.888C772.596 479.888 774.1 481.856 774.1 484.928C774.1 488.016 772.596 489.984 770.5 489.984C768.388 489.984 766.9 488.016 766.9 484.928C766.9 481.856 768.388 479.888 770.5 479.888ZM770.5 481.088C769.108 481.088 768.148 482.592 768.148 484.928C768.148 487.28 769.108 488.816 770.5 488.816C771.892 488.816 772.852 487.28 772.852 484.928C772.852 482.592 771.892 481.088 770.5 481.088ZM777.236 478.768H778.548V493.264H777.236V478.768ZM787.975 482.224H796.999V489.776H787.975V482.224ZM795.687 483.312H789.286V488.704H795.687V483.312ZM802.693 482.224H811.717V489.776H802.693V482.224ZM810.405 483.312H804.005V488.704H810.405V483.312ZM817.412 482.224H826.436V489.776H817.412V482.224ZM825.124 483.312H818.724V488.704H825.124V483.312ZM563.912 501.224H572.936V508.776H563.912V501.224ZM571.624 502.312H565.224V507.704H571.624V502.312ZM578.631 501.224H587.655V508.776H578.631V501.224ZM586.343 502.312H579.943V507.704H586.343V502.312ZM593.35 501.224H602.374V508.776H593.35V501.224ZM601.062 502.312H594.661V507.704H601.062V502.312ZM608.068 501.224H617.092V508.776H608.068V501.224ZM615.78 502.312H609.38V507.704H615.78V502.312ZM622.787 501.224H631.811V508.776H622.787V501.224ZM630.499 502.312H624.099V507.704H630.499V502.312ZM637.506 501.224H646.53V508.776H637.506V501.224ZM645.218 502.312H638.818V507.704H645.218V502.312ZM652.225 501.224H661.249V508.776H652.225V501.224ZM659.937 502.312H653.536V507.704H659.937V502.312ZM666.943 501.224H675.967V508.776H666.943V501.224ZM674.655 502.312H668.255V507.704H674.655V502.312ZM681.662 501.224H690.686V508.776H681.662V501.224ZM689.374 502.312H682.974V507.704H689.374V502.312ZM696.381 501.224H705.405V508.776H696.381V501.224ZM704.093 502.312H697.693V507.704H704.093V502.312ZM711.1 501.224H720.124V508.776H711.1V501.224ZM718.812 502.312H712.411V507.704H718.812V502.312ZM725.818 501.224H734.842V508.776H725.818V501.224ZM733.53 502.312H727.13V507.704H733.53V502.312ZM740.537 501.224H749.561V508.776H740.537V501.224ZM748.249 502.312H741.849V507.704H748.249V502.312ZM755.256 501.224H764.28V508.776H755.256V501.224ZM762.968 502.312H756.568V507.704H762.968V502.312ZM769.975 501.224H778.999V508.776H769.975V501.224ZM777.687 502.312H771.286V507.704H777.687V502.312ZM784.693 501.224H793.717V508.776H784.693V501.224ZM792.405 502.312H786.005V507.704H792.405V502.312ZM799.412 501.224H808.436V508.776H799.412V501.224ZM807.124 502.312H800.724V507.704H807.124V502.312ZM814.131 501.224H823.155V508.776H814.131V501.224ZM821.843 502.312H815.443V507.704H821.843V502.312Z" fill="#282828"/>
<rect x="534.946" y="444.947" width="19" height="19" rx="5.5" stroke="#C2C2C2"/>
<rect x="533" y="552" width="380" height="116" rx="10" fill="#F8F8F8"/>
<path d="M572.44 566.4H573.8V568.26C573.8 571.68 571.84 574.5 568.8 575.66L567.94 574.32C570.66 573.34 572.44 570.96 572.44 568.26V566.4ZM572.74 566.4H574.08V568.38C574.08 570.82 575.88 573.08 578.48 573.98L577.64 575.3C574.7 574.22 572.74 571.52 572.74 568.38V566.4ZM580.36 565.48H582.02V576.42H580.36V565.48ZM581.56 570.24H584.7V571.64H581.56V570.24ZM570.28 577.32H582.02V583.56H580.36V578.7H570.28V577.32ZM600.138 565.48H601.738V583.56H600.138V565.48ZM593.558 571.96H597.018V573.34H593.558V571.96ZM596.518 565.9H598.078V582.64H596.518V565.9ZM590.078 568.28H591.358V570.58C591.358 574.54 589.838 578.28 587.178 579.96L586.158 578.72C588.678 577.2 590.078 573.9 590.078 570.58V568.28ZM590.418 568.28H591.698V570.58C591.698 573.72 593.058 576.86 595.538 578.3L594.518 579.52C591.878 577.92 590.418 574.36 590.418 570.58V568.28ZM586.658 567.58H594.918V568.96H586.658V567.58ZM617.722 569.6H621.142V570.98H617.722V569.6ZM624.062 565.48H625.642V577.8H624.062V565.48ZM620.522 565.86H622.102V576.16H620.522V565.86ZM618.882 576.94H620.302V577.5C620.302 580.66 617.022 582.88 613.382 583.5L612.742 582.18C615.942 581.72 618.882 579.82 618.882 577.5V576.94ZM619.122 576.94H620.542V577.5C620.542 579.82 623.502 581.72 626.682 582.18L626.062 583.5C622.422 582.88 619.122 580.66 619.122 577.5V576.94ZM614.162 566.56H615.482V568.92C615.482 571.64 613.942 574.5 611.322 575.68L610.422 574.4C612.762 573.34 614.162 570.98 614.162 568.92V566.56ZM614.462 566.56H615.762V568.92C615.762 571 617.062 573.08 619.302 574.06L618.402 575.34C615.862 574.2 614.462 571.64 614.462 568.92V566.56Z" fill="black"/>
<path d="M854.026 573V572.361L856.427 569.733C856.709 569.425 856.941 569.158 857.123 568.93C857.305 568.701 857.44 568.485 857.528 568.284C857.618 568.08 857.663 567.867 857.663 567.645C857.663 567.389 857.601 567.168 857.478 566.981C857.357 566.794 857.192 566.649 856.981 566.548C856.77 566.446 856.533 566.395 856.271 566.395C855.991 566.395 855.747 566.453 855.539 566.569C855.333 566.683 855.173 566.842 855.06 567.048C854.948 567.254 854.893 567.496 854.893 567.773H854.055C854.055 567.347 854.153 566.973 854.349 566.651C854.546 566.329 854.813 566.078 855.152 565.898C855.493 565.718 855.875 565.628 856.299 565.628C856.725 565.628 857.103 565.718 857.432 565.898C857.761 566.078 858.019 566.32 858.206 566.626C858.393 566.931 858.487 567.271 858.487 567.645C858.487 567.912 858.438 568.174 858.341 568.43C858.246 568.683 858.08 568.966 857.844 569.278C857.609 569.589 857.284 569.967 856.867 570.415L855.234 572.162V572.219H858.614V573H854.026ZM862.358 565.07C863.708 565.07 864.698 565.89 864.698 567.08C864.698 568.26 863.708 569.08 862.358 569.08C861.018 569.08 860.028 568.26 860.028 567.08C860.028 565.89 861.018 565.07 862.358 565.07ZM862.358 565.75C861.488 565.75 860.828 566.3 860.828 567.08C860.828 567.86 861.488 568.4 862.358 568.4C863.238 568.4 863.888 567.86 863.888 567.08C863.888 566.3 863.238 565.75 862.358 565.75ZM866.398 564.74H867.238V569.37H866.398V564.74ZM861.388 569.81H867.238V572.01H862.218V573.37H861.408V571.39H866.418V570.48H861.388V569.81ZM861.408 573H867.538V573.66H861.408V573ZM873.817 567.23H876.097V567.91H873.817V567.23ZM875.627 564.75H876.457V571.37H875.627V564.75ZM870.687 572.9H876.707V573.58H870.687V572.9ZM870.687 570.79H871.517V573.25H870.687V570.79ZM871.327 565.87H872.007V566.6C872.007 568.24 870.987 569.66 869.477 570.22L869.047 569.56C870.397 569.08 871.327 567.88 871.327 566.6V565.87ZM871.487 565.87H872.157V566.59C872.157 567.76 873.037 568.9 874.347 569.36L873.927 570.01C872.457 569.48 871.487 568.12 871.487 566.59V565.87ZM869.307 565.48H874.137V566.15H869.307V565.48Z" fill="black"/>
<path d="M578.296 598.768H579.624V613.264H578.296V598.768ZM571.992 599.888C574.136 599.888 575.672 601.856 575.672 604.928C575.672 608.016 574.136 609.984 571.992 609.984C569.864 609.984 568.328 608.016 568.328 604.928C568.328 601.856 569.864 599.888 571.992 599.888ZM571.992 601.088C570.584 601.088 569.592 602.592 569.592 604.928C569.592 607.28 570.584 608.816 571.992 608.816C573.416 608.816 574.392 607.28 574.392 604.928C574.392 602.592 573.416 601.088 571.992 601.088ZM597.579 598.784H598.907V609.552H597.579V598.784ZM587.435 599.952H595.051V601.04H587.435V599.952ZM587.195 607.376L587.051 606.24C589.419 606.24 592.795 606.208 595.499 605.888L595.579 606.88C592.795 607.328 589.547 607.376 587.195 607.376ZM588.875 600.88H590.155V606.432H588.875V600.88ZM592.331 600.88H593.611V606.432H592.331V600.88ZM595.179 601.52H598.283V602.608H595.179V601.52ZM595.179 604.288H598.283V605.376H595.179V604.288ZM589.659 611.84H599.291V612.928H589.659V611.84ZM589.659 608.672H590.987V612.528H589.659V608.672ZM605.562 600.848H606.634V603.2C606.634 606.256 604.794 609.328 602.49 610.464L601.722 609.408C603.818 608.416 605.562 605.696 605.562 603.2V600.848ZM605.818 600.848H606.89V603.2C606.89 605.648 608.634 608.144 610.762 609.056L610.01 610.112C607.674 609.024 605.818 606.208 605.818 603.2V600.848ZM602.202 600.256H610.282V601.376H602.202V600.256ZM612.234 598.784H613.562V613.248H612.234V598.784ZM618.216 603.12H628.04V604.208H618.216V603.12ZM616.44 606.144H629.56V607.232H616.44V606.144ZM618.216 599.312H619.528V603.664H618.216V599.312ZM618.12 611.808H628.12V612.896H618.12V611.808ZM618.12 608.672H619.432V612.096H618.12V608.672ZM642.251 600.864H646.667V601.952H642.251V600.864ZM642.251 604.192H646.667V605.296H642.251V604.192ZM639.611 599.632C641.739 599.632 643.339 601.072 643.339 603.072C643.339 605.088 641.739 606.512 639.611 606.512C637.467 606.512 635.883 605.088 635.883 603.072C635.883 601.072 637.467 599.632 639.611 599.632ZM639.611 600.768C638.203 600.768 637.163 601.712 637.163 603.072C637.163 604.432 638.203 605.376 639.611 605.376C641.019 605.376 642.075 604.432 642.075 603.072C642.075 601.712 641.019 600.768 639.611 600.768ZM646.235 598.784H647.563V607.344H646.235V598.784ZM642.811 607.68C645.787 607.68 647.627 608.704 647.627 610.448C647.627 612.208 645.787 613.216 642.811 613.216C639.819 613.216 637.979 612.208 637.979 610.448C637.979 608.704 639.819 607.68 642.811 607.68ZM642.811 608.736C640.619 608.736 639.291 609.376 639.291 610.448C639.291 611.536 640.619 612.176 642.811 612.176C644.987 612.176 646.315 611.536 646.315 610.448C646.315 609.376 644.987 608.736 642.811 608.736ZM652.058 599.456H661.37V600.544H652.058V599.456ZM650.394 604.64H663.498V605.728H650.394V604.64ZM656.266 605.376H657.578V608.784H656.266V605.376ZM660.506 599.456H661.802V600.528C661.802 601.728 661.802 603.184 661.322 605.168L660.026 605.008C660.506 603.072 660.506 601.696 660.506 600.528V599.456ZM651.754 608.352H661.898V613.248H660.57V609.44H651.754V608.352ZM670.969 604.4H673.705V605.504H670.969V604.4ZM676.121 598.784H677.401V613.248H676.121V598.784ZM673.257 599.088H674.521V612.528H673.257V599.088ZM668.361 599.984C670.233 599.984 671.449 601.92 671.449 605.024C671.449 608.128 670.233 610.064 668.361 610.064C666.489 610.064 665.289 608.128 665.289 605.024C665.289 601.92 666.489 599.984 668.361 599.984ZM668.361 601.216C667.225 601.216 666.505 602.688 666.505 605.024C666.505 607.36 667.225 608.832 668.361 608.832C669.513 608.832 670.233 607.36 670.233 605.024C670.233 602.688 669.513 601.216 668.361 601.216ZM687.047 603.68H691.079V604.768H687.047V603.68ZM683.559 600.032H684.647V602.608C684.647 605.856 682.935 608.96 680.647 610.192L679.799 609.136C681.927 608.08 683.559 605.296 683.559 602.608V600.032ZM683.815 600.032H684.887V602.608C684.887 605.248 686.519 607.872 688.615 608.864L687.831 609.936C685.495 608.752 683.815 605.776 683.815 602.608V600.032ZM690.423 598.768H691.735V613.264H690.423V598.768ZM694.534 607.344H707.654V608.432H694.534V607.344ZM700.39 607.856H701.702V613.248H700.39V607.856ZM696.182 599.36H697.51V601.344H704.662V599.36H705.974V605.616H696.182V599.36ZM697.51 602.416V604.544H704.662V602.416H697.51ZM719.861 598.768H721.173V613.264H719.861V598.768ZM716.853 604.224H720.053V605.328H716.853V604.224ZM709.925 608.688H711.029C713.749 608.688 715.461 608.64 717.493 608.256L717.621 609.344C715.541 609.712 713.781 609.792 711.029 609.792H709.925V608.688ZM709.925 600.096H716.613V601.2H711.237V609.072H709.925V600.096ZM710.901 604.16H715.989V605.232H710.901V604.16ZM732.296 600.032H733.384V602.624C733.384 605.952 731.592 609.04 729.224 610.24L728.408 609.152C730.552 608.128 732.296 605.36 732.296 602.624V600.032ZM732.52 600.032H733.608V602.624C733.608 605.264 735.336 607.92 737.48 608.912L736.68 609.968C734.328 608.816 732.52 605.84 732.52 602.624V600.032ZM738.984 598.768H740.312V613.264H738.984V598.768ZM746.758 600.272H747.846V601.44C747.846 604.096 746.246 606.304 743.83 607.168L743.126 606.128C745.318 605.36 746.758 603.504 746.758 601.44V600.272ZM746.998 600.272H748.086V601.424C748.086 603.344 749.478 605.12 751.606 605.84L750.918 606.88C748.534 606.048 746.998 603.92 746.998 601.424V600.272ZM743.542 599.792H751.27V600.88H743.542V599.792ZM753.094 598.784H754.422V607.488H753.094V598.784ZM754.054 602.592H756.566V603.696H754.054V602.592ZM745.03 608.256H754.422V613.248H753.094V609.36H745.03V608.256ZM767.717 598.784H769.045V613.248H767.717V598.784ZM768.725 604.72H771.413V605.84H768.725V604.72ZM757.845 601.088H766.373V602.176H757.845V601.088ZM762.165 603.376C764.213 603.376 765.685 604.752 765.685 606.704C765.685 608.656 764.213 610.032 762.165 610.032C760.133 610.032 758.645 608.656 758.645 606.704C758.645 604.752 760.133 603.376 762.165 603.376ZM762.165 604.48C760.853 604.48 759.909 605.392 759.909 606.704C759.909 608 760.853 608.928 762.165 608.928C763.477 608.928 764.421 608 764.421 606.704C764.421 605.392 763.477 604.48 762.165 604.48ZM761.477 598.96H762.805V601.584H761.477V598.96ZM779.156 602H783.524V603.104H779.156V602ZM779.156 606.576H783.524V607.68H779.156V606.576ZM776.5 599.888C778.596 599.888 780.1 601.856 780.1 604.928C780.1 608.016 778.596 609.984 776.5 609.984C774.388 609.984 772.9 608.016 772.9 604.928C772.9 601.856 774.388 599.888 776.5 599.888ZM776.5 601.088C775.108 601.088 774.148 602.592 774.148 604.928C774.148 607.28 775.108 608.816 776.5 608.816C777.892 608.816 778.852 607.28 778.852 604.928C778.852 602.592 777.892 601.088 776.5 601.088ZM783.236 598.768H784.548V613.264H783.236V598.768ZM793.975 602.224H802.999V609.776H793.975V602.224ZM801.687 603.312H795.286V608.704H801.687V603.312ZM808.693 602.224H817.717V609.776H808.693V602.224ZM816.405 603.312H810.005V608.704H816.405V603.312ZM823.412 602.224H832.436V609.776H823.412V602.224ZM831.124 603.312H824.724V608.704H831.124V603.312ZM569.912 621.224H578.936V628.776H569.912V621.224ZM577.624 622.312H571.224V627.704H577.624V622.312ZM584.631 621.224H593.655V628.776H584.631V621.224ZM592.343 622.312H585.943V627.704H592.343V622.312ZM599.35 621.224H608.374V628.776H599.35V621.224ZM607.062 622.312H600.661V627.704H607.062V622.312ZM614.068 621.224H623.092V628.776H614.068V621.224ZM621.78 622.312H615.38V627.704H621.78V622.312ZM628.787 621.224H637.811V628.776H628.787V621.224ZM636.499 622.312H630.099V627.704H636.499V622.312ZM643.506 621.224H652.53V628.776H643.506V621.224ZM651.218 622.312H644.818V627.704H651.218V622.312ZM658.225 621.224H667.249V628.776H658.225V621.224ZM665.937 622.312H659.536V627.704H665.937V622.312ZM672.943 621.224H681.967V628.776H672.943V621.224ZM680.655 622.312H674.255V627.704H680.655V622.312ZM687.662 621.224H696.686V628.776H687.662V621.224ZM695.374 622.312H688.974V627.704H695.374V622.312ZM702.381 621.224H711.405V628.776H702.381V621.224ZM710.093 622.312H703.693V627.704H710.093V622.312ZM717.1 621.224H726.124V628.776H717.1V621.224ZM724.812 622.312H718.411V627.704H724.812V622.312ZM731.818 621.224H740.842V628.776H731.818V621.224ZM739.53 622.312H733.13V627.704H739.53V622.312ZM746.537 621.224H755.561V628.776H746.537V621.224ZM754.249 622.312H747.849V627.704H754.249V622.312ZM761.256 621.224H770.28V628.776H761.256V621.224ZM768.968 622.312H762.568V627.704H768.968V622.312ZM775.975 621.224H784.999V628.776H775.975V621.224ZM783.687 622.312H777.286V627.704H783.687V622.312ZM790.693 621.224H799.717V628.776H790.693V621.224ZM798.405 622.312H792.005V627.704H798.405V622.312ZM805.412 621.224H814.436V628.776H805.412V621.224ZM813.124 622.312H806.724V627.704H813.124V622.312ZM820.131 621.224H829.155V628.776H820.131V621.224ZM827.843 622.312H821.443V627.704H827.843V622.312ZM569.912 640.224H578.936V647.776H569.912V640.224ZM577.624 641.312H571.224V646.704H577.624V641.312ZM584.631 640.224H593.655V647.776H584.631V640.224ZM592.343 641.312H585.943V646.704H592.343V641.312ZM599.35 640.224H608.374V647.776H599.35V640.224ZM607.062 641.312H600.661V646.704H607.062V641.312ZM614.068 640.224H623.092V647.776H614.068V640.224ZM621.78 641.312H615.38V646.704H621.78V641.312ZM628.787 640.224H637.811V647.776H628.787V640.224ZM636.499 641.312H630.099V646.704H636.499V641.312ZM643.506 640.224H652.53V647.776H643.506V640.224ZM651.218 641.312H644.818V646.704H651.218V641.312ZM658.225 640.224H667.249V647.776H658.225V640.224ZM665.937 641.312H659.536V646.704H665.937V641.312ZM672.943 640.224H681.967V647.776H672.943V640.224ZM680.655 641.312H674.255V646.704H680.655V641.312ZM687.662 640.224H696.686V647.776H687.662V640.224ZM695.374 641.312H688.974V646.704H695.374V641.312ZM702.381 640.224H711.405V647.776H702.381V640.224ZM710.093 641.312H703.693V646.704H710.093V641.312ZM717.1 640.224H726.124V647.776H717.1V640.224ZM724.812 641.312H718.411V646.704H724.812V641.312ZM731.818 640.224H740.842V647.776H731.818V640.224ZM739.53 641.312H733.13V646.704H739.53V641.312Z" fill="#282828"/>
<rect x="540.946" y="564.947" width="19" height="19" rx="5.5" stroke="#C2C2C2"/>
<path d="M830.56 312.68H842.278V314.178H830.56V312.68ZM835.474 311.028H837.336V313.002H835.474V311.028ZM831.862 315.06H840.864V319.246H839.002V316.53H831.862V315.06ZM832.058 306.604H833.892V307.752H838.946V306.604H840.794V311.616H832.058V306.604ZM833.892 309.138V310.16H838.946V309.138H833.892ZM846.813 312.932H848.675V315.774H846.813V312.932ZM852.497 306.282H854.359V316.096H852.497V306.282ZM845.021 317.538H854.639V319.022H845.021V317.538ZM845.021 315.172H846.883V317.93H845.021V315.172ZM843.621 313.492L843.397 312.008C845.763 312.008 848.927 311.98 851.643 311.63L851.755 312.96C848.997 313.422 845.959 313.492 843.621 313.492ZM850.047 313.814H852.903V315.088H850.047V313.814ZM847.569 306.73C849.459 306.73 850.789 307.668 850.789 309.04C850.789 310.426 849.459 311.35 847.569 311.35C845.665 311.35 844.335 310.426 844.335 309.04C844.335 307.668 845.665 306.73 847.569 306.73ZM847.569 308.088C846.701 308.088 846.099 308.41 846.099 309.04C846.099 309.67 846.701 309.992 847.569 309.992C848.423 309.992 849.025 309.67 849.025 309.04C849.025 308.41 848.423 308.088 847.569 308.088Z" fill="black" fill-opacity="0.1"/>
<path d="M870.472 306.954H871.984V308.13C871.984 310.622 870.864 312.806 868.358 313.632L867.42 312.148C869.576 311.462 870.472 309.81 870.472 308.13V306.954ZM870.85 306.954H872.348V308.298C872.348 309.852 873.216 311.364 875.26 312.008L874.35 313.464C871.942 312.694 870.85 310.636 870.85 308.298V306.954ZM875.904 306.282H877.766V314.108H875.904V306.282ZM877.248 309.432H879.488V310.972H877.248V309.432ZM869.114 314.654H877.766V319.246H875.904V316.152H869.114V314.654ZM889.805 306.282H891.569V319.246H889.805V306.282ZM885.535 310.706H887.677V312.218H885.535V310.706ZM887.187 306.492H888.923V318.658H887.187V306.492ZM882.735 308.396H884.135V309.726C884.135 312.638 883.337 315.536 881.279 316.824L880.173 315.452C882.077 314.262 882.735 311.938 882.735 309.726V308.396ZM883.155 308.396H884.541V309.726C884.541 311.882 885.185 314.066 887.061 315.158L885.969 316.516C883.911 315.298 883.155 312.582 883.155 309.726V308.396ZM880.663 307.584H886.445V309.082H880.663V307.584Z" fill="#4839FA" fill-opacity="0.1"/>
<path d="M543.504 309.628H546.528V311.126H543.504V309.628ZM545.548 306.296H547.41V315.746H545.548V306.296ZM538.856 317.538H547.704V319.022H538.856V317.538ZM538.856 314.948H540.718V318.42H538.856V314.948ZM539.556 307.99H541.068V308.802C541.068 311.238 539.92 313.492 537.428 314.318L536.49 312.834C538.632 312.134 539.556 310.44 539.556 308.802V307.99ZM539.948 307.99H541.446V308.802C541.446 310.314 542.328 311.924 544.372 312.61L543.462 314.066C541.054 313.268 539.948 311.112 539.948 308.802V307.99ZM536.994 307.164H543.966V308.634H536.994V307.164ZM554.717 311.196H556.775V312.694H554.717V311.196ZM551.707 309.88H553.107V310.216C553.107 312.918 552.323 315.62 550.251 316.81L549.201 315.41C551.049 314.332 551.707 312.204 551.707 310.216V309.88ZM552.071 309.88H553.471V310.216C553.471 312.176 554.143 314.15 555.977 315.13L554.969 316.502C552.869 315.41 552.071 312.876 552.071 310.216V309.88ZM549.691 308.452H555.473V309.95H549.691V308.452ZM551.707 306.716H553.471V309.67H551.707V306.716ZM558.805 306.282H560.569V319.246H558.805V306.282ZM556.187 306.492H557.923V318.658H556.187V306.492ZM568.47 306.954H569.982V308.13C569.982 310.622 568.862 312.806 566.356 313.632L565.418 312.148C567.574 311.462 568.47 309.81 568.47 308.13V306.954ZM568.848 306.954H570.346V308.298C570.346 309.852 571.214 311.364 573.258 312.008L572.348 313.464C569.94 312.694 568.848 310.636 568.848 308.298V306.954ZM573.902 306.282H575.764V314.108H573.902V306.282ZM575.246 309.432H577.486V310.972H575.246V309.432ZM567.112 314.654H575.764V319.246H573.902V316.152H567.112V314.654ZM587.803 306.282H589.567V319.246H587.803V306.282ZM583.533 310.706H585.675V312.218H583.533V310.706ZM585.185 306.492H586.921V318.658H585.185V306.492ZM580.733 308.396H582.133V309.726C582.133 312.638 581.335 315.536 579.277 316.824L578.171 315.452C580.075 314.262 580.733 311.938 580.733 309.726V308.396ZM581.153 308.396H582.539V309.726C582.539 311.882 583.183 314.066 585.059 315.158L583.967 316.516C581.909 315.298 581.153 312.582 581.153 309.726V308.396ZM578.661 307.584H584.443V309.082H578.661V307.584Z" fill="#FF2222" fill-opacity="0.1"/>
</svg>
