<svg width="1440" height="1024" viewBox="0 0 1440 1024" fill="none" xmlns="http://www.w3.org/2000/svg">
<rect width="1440" height="1024" fill="white"/>
<rect width="460" height="1024" transform="translate(490)" fill="white"/>
<path d="M543.825 137.545V155H540.245L533.299 144.926H533.188V155H528.969V137.545H532.6L539.469 147.602H539.614V137.545H543.825ZM562.952 146.273C562.952 148.193 562.582 149.821 561.844 151.156C561.105 152.491 560.105 153.506 558.844 154.199C557.588 154.892 556.179 155.239 554.616 155.239C553.048 155.239 551.636 154.889 550.381 154.19C549.125 153.491 548.128 152.477 547.389 151.148C546.656 149.812 546.29 148.187 546.29 146.273C546.29 144.352 546.656 142.724 547.389 141.389C548.128 140.054 549.125 139.04 550.381 138.347C551.636 137.653 553.048 137.307 554.616 137.307C556.179 137.307 557.588 137.653 558.844 138.347C560.105 139.04 561.105 140.054 561.844 141.389C562.582 142.724 562.952 144.352 562.952 146.273ZM558.639 146.273C558.639 145.136 558.477 144.176 558.153 143.392C557.835 142.608 557.375 142.014 556.773 141.611C556.176 141.207 555.457 141.006 554.616 141.006C553.781 141.006 553.063 141.207 552.46 141.611C551.858 142.014 551.395 142.608 551.071 143.392C550.753 144.176 550.594 145.136 550.594 146.273C550.594 147.409 550.753 148.369 551.071 149.153C551.395 149.937 551.858 150.531 552.46 150.935C553.063 151.338 553.781 151.54 554.616 151.54C555.457 151.54 556.176 151.338 556.773 150.935C557.375 150.531 557.835 149.937 558.153 149.153C558.477 148.369 558.639 147.409 558.639 146.273ZM564.047 140.972V137.545H578.8V140.972H573.507V155H569.348V140.972H564.047ZM580.86 155V137.545H593.031V140.972H585.079V144.551H592.408V147.986H585.079V151.574H593.031V155H580.86Z" fill="white"/>
<path d="M536.128 214V230H532.269V217.609H532.175L528.597 219.797V216.453L532.542 214H536.128ZM539.665 230V227.219L545.501 222.109C545.938 221.714 546.311 221.352 546.618 221.023C546.925 220.69 547.16 220.357 547.321 220.023C547.483 219.685 547.563 219.318 547.563 218.922C547.563 218.479 547.467 218.102 547.274 217.789C547.082 217.471 546.816 217.227 546.478 217.055C546.139 216.883 545.751 216.797 545.313 216.797C544.871 216.797 544.483 216.888 544.149 217.07C543.816 217.247 543.556 217.505 543.368 217.844C543.186 218.182 543.095 218.594 543.095 219.078H539.431C539.431 217.99 539.675 217.049 540.165 216.258C540.655 215.466 541.342 214.857 542.228 214.43C543.118 213.997 544.152 213.781 545.329 213.781C546.543 213.781 547.597 213.984 548.493 214.391C549.389 214.797 550.082 215.365 550.571 216.094C551.066 216.818 551.313 217.659 551.313 218.617C551.313 219.227 551.191 219.831 550.946 220.43C550.701 221.029 550.261 221.69 549.626 222.414C548.996 223.138 548.1 224.005 546.938 225.016L545.024 226.781V226.883H551.509V230H539.665ZM561.093 214V230H557.233V217.609H557.14L553.562 219.797V216.453L557.507 214H561.093Z" fill="white"/>
<path d="M525.181 44.3636V88H522.518V44.3636H525.181ZM539.409 44.3636V48.1989C539.409 49.3636 539.196 50.6065 538.77 51.9276C538.358 53.2344 537.747 54.5057 536.937 55.7415C536.142 56.9631 535.176 58.0284 534.039 58.9375L532.612 57.5099C533.862 56.3168 534.885 54.8892 535.68 53.2273C536.49 51.5511 536.895 49.8821 536.895 48.2202V44.3636H539.409ZM547.772 44.3636H550.669L567.48 84.1648H567.779L584.59 44.3636H587.488V88H584.931V50.6918H584.675L568.887 88H566.373L550.584 50.6918H550.328V88H547.772V44.3636Z" fill="black"/>
<circle cx="901" cy="67" r="24" fill="#D9D9D9"/>
<path d="M818.525 58.64H820.265C820.265 63.24 816.965 66.48 811.645 67.9L811.005 66.58C815.705 65.34 818.525 62.72 818.525 59.38V58.64ZM811.945 58.64H819.485V59.98H811.945V58.64ZM823.945 57.48H825.625V67.68H823.945V57.48ZM813.925 68.56H825.625V75.32H813.925V68.56ZM823.985 69.9H815.565V73.96H823.985V69.9ZM831.303 66.86H843.723V68.2H831.303V66.86ZM829.203 71.94H845.583V73.32H829.203V71.94ZM836.543 67.56H838.183V72.58H836.543V67.56ZM831.303 58.94H843.523V60.3H832.983V67.36H831.303V58.94ZM832.443 62.82H843.143V64.16H832.443V62.82ZM860.762 57.48H862.402V75.56H860.762V57.48ZM851.622 59.42H853.162C853.162 63.74 852.142 68 848.902 71.46L847.582 70.48C850.522 67.44 851.622 63.68 851.622 59.6V59.42ZM848.242 59.42H852.242V60.8H848.242V59.42ZM856.662 59.42H858.202C858.202 63.74 857.522 68.76 854.262 72.66L852.882 71.76C855.902 68.22 856.662 63.74 856.662 59.58V59.42ZM853.762 59.42H857.242V60.8H853.762V59.42Z" fill="black"/>
<rect x="524" y="127" width="190" height="120" rx="10" fill="#F4F4F4"/>
<path d="M552.325 144.545V162H548.745L541.799 151.926H541.688V162H537.469V144.545H541.1L547.969 154.602H548.114V144.545H552.325ZM571.452 153.273C571.452 155.193 571.082 156.821 570.344 158.156C569.605 159.491 568.605 160.506 567.344 161.199C566.088 161.892 564.679 162.239 563.116 162.239C561.548 162.239 560.136 161.889 558.881 161.19C557.625 160.491 556.628 159.477 555.889 158.148C555.156 156.812 554.79 155.187 554.79 153.273C554.79 151.352 555.156 149.724 555.889 148.389C556.628 147.054 557.625 146.04 558.881 145.347C560.136 144.653 561.548 144.307 563.116 144.307C564.679 144.307 566.088 144.653 567.344 145.347C568.605 146.04 569.605 147.054 570.344 148.389C571.082 149.724 571.452 151.352 571.452 153.273ZM567.139 153.273C567.139 152.136 566.977 151.176 566.653 150.392C566.335 149.608 565.875 149.014 565.273 148.611C564.676 148.207 563.957 148.006 563.116 148.006C562.281 148.006 561.563 148.207 560.96 148.611C560.358 149.014 559.895 149.608 559.571 150.392C559.253 151.176 559.094 152.136 559.094 153.273C559.094 154.409 559.253 155.369 559.571 156.153C559.895 156.937 560.358 157.531 560.96 157.935C561.563 158.338 562.281 158.54 563.116 158.54C563.957 158.54 564.676 158.338 565.273 157.935C565.875 157.531 566.335 156.937 566.653 156.153C566.977 155.369 567.139 154.409 567.139 153.273ZM572.547 147.972V144.545H587.3V147.972H582.007V162H577.848V147.972H572.547ZM589.36 162V144.545H601.531V147.972H593.579V151.551H600.908V154.986H593.579V158.574H601.531V162H589.36Z" fill="#222222"/>
<path d="M544.628 214V230H540.769V217.609H540.675L537.097 219.797V216.453L541.042 214H544.628ZM548.165 230V227.219L554.001 222.109C554.438 221.714 554.811 221.352 555.118 221.023C555.425 220.69 555.66 220.357 555.821 220.023C555.983 219.685 556.063 219.318 556.063 218.922C556.063 218.479 555.967 218.102 555.774 217.789C555.582 217.471 555.316 217.227 554.978 217.055C554.639 216.883 554.251 216.797 553.813 216.797C553.371 216.797 552.983 216.888 552.649 217.07C552.316 217.247 552.056 217.505 551.868 217.844C551.686 218.182 551.595 218.594 551.595 219.078H547.931C547.931 217.99 548.175 217.049 548.665 216.258C549.155 215.466 549.842 214.857 550.728 214.43C551.618 213.997 552.652 213.781 553.829 213.781C555.043 213.781 556.097 213.984 556.993 214.391C557.889 214.797 558.582 215.365 559.071 216.094C559.566 216.818 559.813 217.659 559.813 218.617C559.813 219.227 559.691 219.831 559.446 220.43C559.201 221.029 558.761 221.69 558.126 222.414C557.496 223.138 556.6 224.005 555.438 225.016L553.524 226.781V226.883H560.009V230H548.165ZM569.593 214V230H565.733V217.609H565.64L562.062 219.797V216.453L566.007 214H569.593Z" fill="#222222"/>
<rect x="728" y="127" width="190" height="120" rx="10" fill="#4839FA"/>
<path d="M745.626 144.545V162H741.407V144.545H745.626ZM748.274 144.545H753.499L757.93 155.352H758.135L762.567 144.545H767.791V162H763.683V151.278H763.538L759.345 161.889H756.72L752.527 151.219H752.382V162H748.274V144.545ZM770.423 162V144.545H777.633C778.94 144.545 780.067 144.801 781.016 145.312C781.971 145.818 782.707 146.526 783.224 147.435C783.741 148.338 783.999 149.389 783.999 150.588C783.999 151.793 783.735 152.847 783.207 153.75C782.684 154.648 781.937 155.344 780.965 155.838C779.994 156.332 778.84 156.58 777.505 156.58H773.056V153.256H776.721C777.357 153.256 777.888 153.145 778.315 152.923C778.746 152.702 779.073 152.392 779.295 151.994C779.516 151.591 779.627 151.122 779.627 150.588C779.627 150.048 779.516 149.582 779.295 149.19C779.073 148.793 778.746 148.486 778.315 148.27C777.883 148.054 777.352 147.946 776.721 147.946H774.641V162H770.423ZM802.553 153.273C802.553 155.193 802.184 156.821 801.445 158.156C800.707 159.491 799.707 160.506 798.445 161.199C797.19 161.892 795.781 162.239 794.218 162.239C792.65 162.239 791.238 161.889 789.982 161.19C788.727 160.491 787.729 159.477 786.991 158.148C786.258 156.812 785.891 155.187 785.891 153.273C785.891 151.352 786.258 149.724 786.991 148.389C787.729 147.054 788.727 146.04 789.982 145.347C791.238 144.653 792.65 144.307 794.218 144.307C795.781 144.307 797.19 144.653 798.445 145.347C799.707 146.04 800.707 147.054 801.445 148.389C802.184 149.724 802.553 151.352 802.553 153.273ZM798.241 153.273C798.241 152.136 798.079 151.176 797.755 150.392C797.437 149.608 796.977 149.014 796.374 148.611C795.778 148.207 795.059 148.006 794.218 148.006C793.383 148.006 792.664 148.207 792.062 148.611C791.46 149.014 790.996 149.608 790.673 150.392C790.354 151.176 790.195 152.136 790.195 153.273C790.195 154.409 790.354 155.369 790.673 156.153C790.996 156.937 791.46 157.531 792.062 157.935C792.664 158.338 793.383 158.54 794.218 158.54C795.059 158.54 795.778 158.338 796.374 157.935C796.977 157.531 797.437 156.937 797.755 156.153C798.079 155.369 798.241 154.409 798.241 153.273ZM805.016 162V144.545H812.227C813.533 144.545 814.661 144.781 815.61 145.253C816.565 145.719 817.3 146.389 817.817 147.264C818.335 148.134 818.593 149.165 818.593 150.358C818.593 151.568 818.329 152.597 817.8 153.443C817.272 154.284 816.522 154.926 815.55 155.369C814.579 155.807 813.428 156.026 812.099 156.026H807.539V152.702H811.315C811.951 152.702 812.482 152.619 812.908 152.455C813.34 152.284 813.667 152.028 813.888 151.688C814.11 151.341 814.221 150.898 814.221 150.358C814.221 149.818 814.11 149.372 813.888 149.02C813.667 148.662 813.34 148.395 812.908 148.219C812.477 148.037 811.945 147.946 811.315 147.946H809.235V162H805.016ZM814.843 154.023L819.19 162H814.587L810.326 154.023H814.843ZM820.336 147.972V144.545H835.089V147.972H829.796V162H825.637V147.972H820.336ZM838.745 162H834.211L840.1 144.545H845.717L851.606 162H847.072L842.972 148.943H842.836L838.745 162ZM838.14 155.131H847.617V158.335H838.14V155.131ZM868.34 144.545V162H864.761L857.815 151.926H857.704V162H853.485V144.545H857.116L863.985 154.602H864.13V144.545H868.34ZM870.422 147.972V144.545H885.175V147.972H879.882V162H875.723V147.972H870.422Z" fill="white"/>
<path d="M741.366 230V227.219L747.202 222.109C747.64 221.714 748.012 221.352 748.319 221.023C748.627 220.69 748.861 220.357 749.022 220.023C749.184 219.685 749.265 219.318 749.265 218.922C749.265 218.479 749.168 218.102 748.976 217.789C748.783 217.471 748.517 217.227 748.179 217.055C747.84 216.883 747.452 216.797 747.015 216.797C746.572 216.797 746.184 216.888 745.851 217.07C745.517 217.247 745.257 217.505 745.069 217.844C744.887 218.182 744.796 218.594 744.796 219.078H741.132C741.132 217.99 741.377 217.049 741.866 216.258C742.356 215.466 743.043 214.857 743.929 214.43C744.819 213.997 745.853 213.781 747.03 213.781C748.244 213.781 749.299 213.984 750.194 214.391C751.09 214.797 751.783 215.365 752.272 216.094C752.767 216.818 753.015 217.659 753.015 218.617C753.015 219.227 752.892 219.831 752.647 220.43C752.403 221.029 751.963 221.69 751.327 222.414C750.697 223.138 749.801 224.005 748.64 225.016L746.726 226.781V226.883H753.21V230H741.366ZM762.013 230.391C760.617 230.391 759.414 230.06 758.403 229.398C757.393 228.732 756.614 227.776 756.067 226.531C755.521 225.281 755.25 223.779 755.255 222.023C755.26 220.268 755.534 218.779 756.075 217.555C756.622 216.326 757.398 215.391 758.403 214.75C759.414 214.104 760.617 213.781 762.013 213.781C763.409 213.781 764.612 214.104 765.622 214.75C766.638 215.391 767.419 216.326 767.966 217.555C768.513 218.784 768.784 220.273 768.778 222.023C768.778 223.784 768.505 225.289 767.958 226.539C767.411 227.789 766.632 228.745 765.622 229.406C764.617 230.062 763.414 230.391 762.013 230.391ZM762.013 227.227C762.846 227.227 763.521 226.802 764.036 225.953C764.552 225.099 764.807 223.789 764.802 222.023C764.802 220.867 764.685 219.914 764.45 219.164C764.216 218.409 763.89 217.846 763.474 217.477C763.057 217.107 762.57 216.922 762.013 216.922C761.185 216.922 760.515 217.341 760.005 218.18C759.494 219.013 759.237 220.294 759.231 222.023C759.226 223.195 759.338 224.167 759.567 224.937C759.802 225.708 760.13 226.284 760.552 226.664C760.974 227.039 761.461 227.227 762.013 227.227Z" fill="white"/>
<path d="M904.79 272C904.354 272 904 272.354 904 272.79V281.63C904 283.491 902.491 285 900.63 285H894.95C893.089 285 891.58 283.491 891.58 281.63V272.79C891.58 272.354 891.226 272 890.79 272C890.354 272 890 272.354 890 272.79V281.63C890.027 284.372 892.258 286.58 895 286.58H900.68C903.403 286.553 905.603 284.353 905.63 281.63V272.79C905.63 272.572 905.54 272.363 905.381 272.213C905.222 272.063 905.008 271.986 904.79 272Z" fill="black"/>
<path fill-rule="evenodd" clip-rule="evenodd" d="M904.79 270.58H890.79C890.354 270.58 890 270.226 890 269.79C890 269.354 890.354 269 890.79 269H893.44L894.62 267.72C895.071 267.261 895.687 267.002 896.33 267H899.25C899.884 267 900.492 267.252 900.94 267.7L902.14 269H904.79C905.226 269 905.58 269.354 905.58 269.79C905.58 270.226 905.226 270.58 904.79 270.58ZM899.25 268.58H896.33C896.13 268.58 895.937 268.655 895.79 268.79L895.6 268.99H899.98L899.79 268.79C899.644 268.653 899.45 268.578 899.25 268.58Z" fill="black"/>
<path d="M894.04 273.79V276.79C894.04 277.204 894.376 277.54 894.79 277.54C895.204 277.54 895.54 277.204 895.54 276.79V273.79C895.54 273.376 895.204 273.04 894.79 273.04C894.376 273.04 894.04 273.376 894.04 273.79Z" fill="black"/>
<path d="M897.04 273.79V281.79C897.04 282.204 897.376 282.54 897.79 282.54C898.204 282.54 898.54 282.204 898.54 281.79V273.79C898.54 273.376 898.204 273.04 897.79 273.04C897.376 273.04 897.04 273.376 897.04 273.79Z" fill="black"/>
<path d="M900.04 273.79V276.79C900.04 277.204 900.376 277.54 900.79 277.54C901.204 277.54 901.54 277.204 901.54 276.79V273.79C901.54 273.376 901.204 273.04 900.79 273.04C900.376 273.04 900.04 273.376 900.04 273.79Z" fill="black"/>
<path d="M775 293H851" stroke="#4839FA" stroke-width="2" stroke-linecap="round"/>
<path d="M862.493 293H868" stroke="#4839FA" stroke-width="2" stroke-linecap="round"/>
<path d="M776.707 286V268.545H787.173V270.42H778.821V276.318H786.389V278.193H778.821V286H776.707ZM805.521 277.273C805.521 279.114 805.188 280.705 804.523 282.045C803.859 283.386 802.947 284.42 801.788 285.148C800.629 285.875 799.305 286.239 797.816 286.239C796.327 286.239 795.004 285.875 793.844 285.148C792.685 284.42 791.773 283.386 791.109 282.045C790.444 280.705 790.112 279.114 790.112 277.273C790.112 275.432 790.444 273.841 791.109 272.5C791.773 271.159 792.685 270.125 793.844 269.398C795.004 268.67 796.327 268.307 797.816 268.307C799.305 268.307 800.629 268.67 801.788 269.398C802.947 270.125 803.859 271.159 804.523 272.5C805.188 273.841 805.521 275.432 805.521 277.273ZM803.475 277.273C803.475 275.761 803.222 274.486 802.717 273.446C802.217 272.406 801.538 271.619 800.68 271.085C799.827 270.551 798.873 270.284 797.816 270.284C796.759 270.284 795.802 270.551 794.944 271.085C794.092 271.619 793.413 272.406 792.907 273.446C792.407 274.486 792.157 275.761 792.157 277.273C792.157 278.784 792.407 280.06 792.907 281.099C793.413 282.139 794.092 282.926 794.944 283.46C795.802 283.994 796.759 284.261 797.816 284.261C798.873 284.261 799.827 283.994 800.68 283.46C801.538 282.926 802.217 282.139 802.717 281.099C803.222 280.06 803.475 278.784 803.475 277.273ZM809.075 286V268.545H811.188V284.125H819.302V286H809.075ZM827.961 286H822.575V268.545H828.2C829.893 268.545 831.342 268.895 832.546 269.594C833.751 270.287 834.674 271.284 835.316 272.585C835.958 273.881 836.279 275.432 836.279 277.239C836.279 279.057 835.955 280.622 835.308 281.935C834.66 283.241 833.717 284.247 832.478 284.952C831.239 285.651 829.734 286 827.961 286ZM824.688 284.125H827.825C829.268 284.125 830.464 283.847 831.413 283.29C832.362 282.733 833.069 281.94 833.535 280.912C834.001 279.884 834.234 278.659 834.234 277.239C834.234 275.83 834.004 274.616 833.543 273.599C833.083 272.577 832.396 271.793 831.481 271.247C830.566 270.696 829.427 270.42 828.063 270.42H824.688V284.125ZM839.825 286V268.545H850.359V270.42H841.938V276.318H849.813V278.193H841.938V284.125H850.495V286H839.825ZM854.168 286V268.545H860.066C861.43 268.545 862.549 268.778 863.424 269.244C864.299 269.705 864.947 270.338 865.367 271.145C865.788 271.952 865.998 272.869 865.998 273.898C865.998 274.926 865.788 275.838 865.367 276.634C864.947 277.429 864.302 278.054 863.433 278.509C862.563 278.957 861.452 279.182 860.1 279.182H855.327V277.273H860.032C860.964 277.273 861.714 277.136 862.282 276.864C862.856 276.591 863.271 276.205 863.526 275.705C863.788 275.199 863.918 274.597 863.918 273.898C863.918 273.199 863.788 272.588 863.526 272.065C863.265 271.543 862.847 271.139 862.273 270.855C861.7 270.565 860.941 270.42 859.998 270.42H856.282V286H854.168ZM862.384 278.159L866.68 286H864.225L859.998 278.159H862.384Z" fill="black"/>
<path d="M618.419 268.545V286H616.305V268.545H618.419ZM622.657 268.545H625.179L631.111 283.034H631.316L637.248 268.545H639.77V286H637.793V272.739H637.623L632.168 286H630.259L624.804 272.739H624.634V286H622.657V268.545ZM644.008 286V268.545H649.906C651.275 268.545 652.395 268.793 653.264 269.287C654.139 269.776 654.787 270.438 655.207 271.273C655.627 272.108 655.838 273.04 655.838 274.068C655.838 275.097 655.627 276.031 655.207 276.872C654.792 277.713 654.15 278.384 653.281 278.884C652.412 279.378 651.298 279.625 649.94 279.625H645.713V277.75H649.872C650.809 277.75 651.562 277.588 652.13 277.264C652.699 276.94 653.11 276.503 653.366 275.952C653.627 275.395 653.758 274.767 653.758 274.068C653.758 273.369 653.627 272.744 653.366 272.193C653.11 271.642 652.696 271.21 652.122 270.898C651.548 270.58 650.787 270.42 649.838 270.42H646.122V286H644.008ZM673.97 277.273C673.97 279.114 673.637 280.705 672.973 282.045C672.308 283.386 671.396 284.42 670.237 285.148C669.078 285.875 667.754 286.239 666.265 286.239C664.777 286.239 663.453 285.875 662.294 285.148C661.135 284.42 660.223 283.386 659.558 282.045C658.893 280.705 658.561 279.114 658.561 277.273C658.561 275.432 658.893 273.841 659.558 272.5C660.223 271.159 661.135 270.125 662.294 269.398C663.453 268.67 664.777 268.307 666.265 268.307C667.754 268.307 669.078 268.67 670.237 269.398C671.396 270.125 672.308 271.159 672.973 272.5C673.637 273.841 673.97 275.432 673.97 277.273ZM671.924 277.273C671.924 275.761 671.672 274.486 671.166 273.446C670.666 272.406 669.987 271.619 669.129 271.085C668.277 270.551 667.322 270.284 666.265 270.284C665.208 270.284 664.251 270.551 663.393 271.085C662.541 271.619 661.862 272.406 661.356 273.446C660.856 274.486 660.606 275.761 660.606 277.273C660.606 278.784 660.856 280.06 661.356 281.099C661.862 282.139 662.541 282.926 663.393 283.46C664.251 283.994 665.208 284.261 666.265 284.261C667.322 284.261 668.277 283.994 669.129 283.46C669.987 282.926 670.666 282.139 671.166 281.099C671.672 280.06 671.924 278.784 671.924 277.273ZM677.524 286V268.545H683.422C684.785 268.545 685.904 268.778 686.779 269.244C687.654 269.705 688.302 270.338 688.723 271.145C689.143 271.952 689.353 272.869 689.353 273.898C689.353 274.926 689.143 275.838 688.723 276.634C688.302 277.429 687.657 278.054 686.788 278.509C685.919 278.957 684.808 279.182 683.456 279.182H678.683V277.273H683.387C684.319 277.273 685.069 277.136 685.637 276.864C686.211 276.591 686.626 276.205 686.882 275.705C687.143 275.199 687.274 274.597 687.274 273.898C687.274 273.199 687.143 272.588 686.882 272.065C686.62 271.543 686.203 271.139 685.629 270.855C685.055 270.565 684.297 270.42 683.353 270.42H679.637V286H677.524ZM685.74 278.159L690.035 286H687.581L683.353 278.159H685.74ZM691.921 270.42V268.545H705.012V270.42H699.523V286H697.409V270.42H691.921ZM706.951 286H704.735L711.144 268.545H713.326L719.735 286H717.519L712.303 271.307H712.167L706.951 286ZM707.769 279.182H716.701V281.057H707.769V279.182ZM736.294 268.545V286H734.249L724.738 272.295H724.567V286H722.453V268.545H724.499L734.044 282.284H734.215V268.545H736.294ZM739.569 270.42V268.545H752.66V270.42H747.172V286H745.058V270.42H739.569Z" fill="#808080"/>
<path d="M543.892 268.545V286H541.846L532.335 272.295H532.164V286H530.051V268.545H532.096L541.642 282.284H541.812V268.545H543.892ZM562.848 277.273C562.848 279.114 562.516 280.705 561.851 282.045C561.186 283.386 560.274 284.42 559.115 285.148C557.956 285.875 556.632 286.239 555.144 286.239C553.655 286.239 552.331 285.875 551.172 285.148C550.013 284.42 549.101 283.386 548.436 282.045C547.772 280.705 547.439 279.114 547.439 277.273C547.439 275.432 547.772 273.841 548.436 272.5C549.101 271.159 550.013 270.125 551.172 269.398C552.331 268.67 553.655 268.307 555.144 268.307C556.632 268.307 557.956 268.67 559.115 269.398C560.274 270.125 561.186 271.159 561.851 272.5C562.516 273.841 562.848 275.432 562.848 277.273ZM560.803 277.273C560.803 275.761 560.55 274.486 560.044 273.446C559.544 272.406 558.865 271.619 558.007 271.085C557.155 270.551 556.201 270.284 555.144 270.284C554.087 270.284 553.13 270.551 552.272 271.085C551.419 271.619 550.74 272.406 550.235 273.446C549.735 274.486 549.485 275.761 549.485 277.273C549.485 278.784 549.735 280.06 550.235 281.099C550.74 282.139 551.419 282.926 552.272 283.46C553.13 283.994 554.087 284.261 555.144 284.261C556.201 284.261 557.155 283.994 558.007 283.46C558.865 282.926 559.544 282.139 560.044 281.099C560.55 280.06 560.803 278.784 560.803 277.273ZM564.721 270.42V268.545H577.812V270.42H572.323V286H570.21V270.42H564.721ZM581.074 286V268.545H591.608V270.42H583.188V276.318H591.063V278.193H583.188V284.125H591.745V286H581.074Z" fill="#808080"/>
<rect x="530" y="382" width="380" height="80" rx="10" fill="#F8F8F8"/>
<path d="M572.5 402.32H575.9V403.7H572.5V402.32ZM565.66 407.86H566.82C569.6 407.86 571.26 407.8 573.26 407.4L573.42 408.76C571.36 409.16 569.64 409.22 566.82 409.22H565.66V407.86ZM565.66 397.66H572.36V399H567.24V408.32H565.66V397.66ZM566.76 402.54H571.54V403.86H566.76V402.54ZM578.74 395.48H580.34V413.56H578.74V395.48ZM575.1 395.9H576.68V412.64H575.1V395.9ZM590.638 396.72H592.078V398.1C592.078 402.04 588.418 405.1 584.798 405.92L584.058 404.54C587.238 403.94 590.638 401.18 590.638 398.1V396.72ZM590.938 396.72H592.378V398.1C592.378 401.2 595.798 403.94 598.958 404.54L598.218 405.92C594.618 405.1 590.938 402.06 590.938 398.1V396.72ZM583.398 409.76H599.778V411.12H583.398V409.76ZM603.897 405.22H616.317V406.56H603.897V405.22ZM601.797 409.86H618.177V411.24H601.797V409.86ZM603.897 397.02H616.117V398.38H605.577V405.64H603.897V397.02ZM605.037 401.06H615.737V402.38H605.037V401.06ZM638.06 395.48H639.72V413.56H638.06V395.48ZM639.32 402.9H642.68V404.3H639.32V402.9ZM625.72 398.36H636.38V399.72H625.72V398.36ZM631.12 401.22C633.68 401.22 635.52 402.94 635.52 405.38C635.52 407.82 633.68 409.54 631.12 409.54C628.58 409.54 626.72 407.82 626.72 405.38C626.72 402.94 628.58 401.22 631.12 401.22ZM631.12 402.6C629.48 402.6 628.3 403.74 628.3 405.38C628.3 407 629.48 408.16 631.12 408.16C632.76 408.16 633.94 407 633.94 405.38C633.94 403.74 632.76 402.6 631.12 402.6ZM630.26 395.7H631.92V398.98H630.26V395.7ZM657.659 402.68H660.999V404.08H657.659V402.68ZM656.439 395.46H658.119V413.56H656.439V395.46ZM644.919 397.24H646.579V408.44H644.919V397.24ZM644.919 407.58H646.359C649.039 407.58 651.779 407.4 654.759 406.78L654.959 408.16C651.879 408.8 649.099 408.98 646.359 408.98H644.919V407.58Z" fill="black"/>
<path d="M853.786 395.727V403H852.906V396.651H852.863L851.087 397.83V396.935L852.906 395.727H853.786ZM858.155 395.07C859.505 395.07 860.495 395.89 860.495 397.08C860.495 398.26 859.505 399.08 858.155 399.08C856.815 399.08 855.825 398.26 855.825 397.08C855.825 395.89 856.815 395.07 858.155 395.07ZM858.155 395.75C857.285 395.75 856.625 396.3 856.625 397.08C856.625 397.86 857.285 398.4 858.155 398.4C859.035 398.4 859.685 397.86 859.685 397.08C859.685 396.3 859.035 395.75 858.155 395.75ZM862.195 394.74H863.035V399.37H862.195V394.74ZM857.185 399.81H863.035V402.01H858.015V403.37H857.205V401.39H862.215V400.48H857.185V399.81ZM857.205 403H863.335V403.66H857.205V403ZM869.614 397.23H871.894V397.91H869.614V397.23ZM871.424 394.75H872.254V401.37H871.424V394.75ZM866.484 402.9H872.504V403.58H866.484V402.9ZM866.484 400.79H867.314V403.25H866.484V400.79ZM867.124 395.87H867.804V396.6C867.804 398.24 866.784 399.66 865.274 400.22L864.844 399.56C866.194 399.08 867.124 397.88 867.124 396.6V395.87ZM867.284 395.87H867.954V396.59C867.954 397.76 868.834 398.9 870.144 399.36L869.724 400.01C868.254 399.48 867.284 398.12 867.284 396.59V395.87ZM865.104 395.48H869.934V396.15H865.104V395.48Z" fill="black"/>
<path d="M566.528 429.36H567.84V431.168H574.832V429.36H576.16V435.136H566.528V429.36ZM567.84 432.224V434.064H574.832V432.224H567.84ZM564.784 436.672H577.856V437.76H564.784V436.672ZM570.672 434.512H571.984V437.152H570.672V434.512ZM566.48 441.84H576.416V442.928H566.48V441.84ZM566.48 438.928H567.808V442.208H566.48V438.928ZM579.503 436.176H592.607V437.264H579.503V436.176ZM585.487 436.848H586.815V440.176H585.487V436.848ZM581.183 429.456H590.911V434.544H581.183V429.456ZM589.599 430.528H582.479V433.472H589.599V430.528ZM581.167 441.84H591.151V442.928H581.167V441.84ZM581.167 438.784H582.479V442.224H581.167V438.784ZM609.25 428.784H610.594V436.544H609.25V428.784ZM601.266 437.264H602.578V439.024H609.282V437.264H610.594V443.056H601.266V437.264ZM602.578 440.08V441.984H609.282V440.08H602.578ZM602.834 429.472C605.026 429.472 606.594 430.832 606.594 432.8C606.594 434.784 605.026 436.144 602.834 436.144C600.642 436.144 599.058 434.784 599.058 432.8C599.058 430.832 600.642 429.472 602.834 429.472ZM602.834 430.576C601.394 430.576 600.354 431.488 600.354 432.8C600.354 434.112 601.394 435.024 602.834 435.024C604.274 435.024 605.314 434.112 605.314 432.8C605.314 431.488 604.274 430.576 602.834 430.576ZM614.048 435.952H615.088C617.936 435.952 619.344 435.904 621.072 435.6L621.216 436.672C619.424 436.992 617.984 437.04 615.088 437.04H614.048V435.952ZM614.016 429.648H620.256V433.76H615.36V436.608H614.048V432.72H618.944V430.736H614.016V429.648ZM624.016 428.8H625.344V437.68H624.016V428.8ZM621.216 430.928H624.32V432.016H621.216V430.928ZM621.216 433.92H624.32V435.008H621.216V433.92ZM615.664 438.464H625.344V443.28H624.016V439.552H615.664V438.464ZM638.687 428.784H640.031V436.544H638.687V428.784ZM630.703 437.264H632.015V439.024H638.719V437.264H640.031V443.056H630.703V437.264ZM632.015 440.08V441.984H638.719V440.08H632.015ZM632.271 429.472C634.463 429.472 636.031 430.832 636.031 432.8C636.031 434.784 634.463 436.144 632.271 436.144C630.079 436.144 628.495 434.784 628.495 432.8C628.495 430.832 630.079 429.472 632.271 429.472ZM632.271 430.576C630.831 430.576 629.791 431.488 629.791 432.8C629.791 434.112 630.831 435.024 632.271 435.024C633.711 435.024 634.751 434.112 634.751 432.8C634.751 431.488 633.711 430.576 632.271 430.576ZM653.406 428.784H654.734V443.248H653.406V428.784ZM643.806 430.192H645.118V439.152H643.806V430.192ZM643.806 438.368H644.99C647.182 438.368 649.47 438.208 651.918 437.696L652.078 438.832C649.566 439.344 647.278 439.52 644.99 439.52H643.806V438.368ZM667.389 428.768H668.733V443.264H667.389V428.768ZM668.413 434.48H671.101V435.6H668.413V434.48ZM658.221 438.544H659.357C662.029 438.544 663.901 438.448 666.061 438.048L666.205 439.168C663.981 439.584 662.077 439.664 659.357 439.664H658.221V438.544ZM658.221 430.176H664.941V431.264H659.533V439.04H658.221V430.176ZM676.171 429.888C678.299 429.888 679.803 431.856 679.803 434.928C679.803 438.016 678.299 439.984 676.171 439.984C674.043 439.984 672.539 438.016 672.539 434.928C672.539 431.856 674.043 429.888 676.171 429.888ZM676.171 431.088C674.763 431.088 673.803 432.592 673.803 434.928C673.803 437.28 674.763 438.816 676.171 438.816C677.563 438.816 678.539 437.28 678.539 434.928C678.539 432.592 677.563 431.088 676.171 431.088ZM682.107 428.784H683.451V443.248H682.107V428.784ZM683.131 434.56H685.819V435.68H683.131V434.56ZM688.455 442.091C688.174 442.091 687.934 441.991 687.733 441.79C687.532 441.589 687.432 441.348 687.432 441.068C687.432 440.788 687.532 440.547 687.733 440.347C687.934 440.146 688.174 440.045 688.455 440.045C688.735 440.045 688.975 440.146 689.176 440.347C689.377 440.547 689.477 440.788 689.477 441.068C689.477 441.254 689.43 441.424 689.335 441.58C689.244 441.735 689.121 441.86 688.966 441.955C688.814 442.045 688.644 442.091 688.455 442.091Z" fill="#282828"/>
<rect x="537.946" y="394.947" width="19" height="19" rx="5.5" stroke="#C2C2C2"/>
<rect x="530" y="482" width="380" height="100" rx="10" fill="#F8F8F8"/>
<path d="M554.177 494H540.123C539.295 494.001 538.501 494.33 537.916 494.916C537.33 495.501 537.001 496.295 537 497.123V511.177C537.001 512.005 537.33 512.799 537.916 513.384C538.501 513.97 539.295 514.299 540.123 514.3H554.177C555.005 514.299 555.799 513.97 556.384 513.384C556.97 512.799 557.299 512.005 557.3 511.177V497.123C557.299 496.295 556.97 495.501 556.384 494.916C555.799 494.33 555.005 494.001 554.177 494ZM552.432 500.748L545.874 508.556C545.802 508.642 545.712 508.711 545.611 508.759C545.51 508.807 545.4 508.833 545.288 508.835H545.275C545.166 508.835 545.058 508.812 544.958 508.767C544.858 508.722 544.768 508.657 544.695 508.576L541.884 505.453C541.813 505.377 541.757 505.288 541.721 505.191C541.684 505.093 541.668 504.989 541.672 504.885C541.676 504.781 541.701 504.679 541.746 504.585C541.79 504.491 541.853 504.407 541.93 504.337C542.007 504.267 542.098 504.214 542.196 504.18C542.294 504.146 542.399 504.131 542.502 504.138C542.606 504.145 542.708 504.172 542.801 504.219C542.894 504.265 542.977 504.33 543.045 504.409L545.255 506.864L551.237 499.744C551.371 499.589 551.561 499.493 551.765 499.476C551.97 499.46 552.172 499.525 552.33 499.657C552.487 499.789 552.585 499.977 552.605 500.182C552.624 500.386 552.562 500.589 552.432 500.748Z" fill="#1DDB69"/>
<path d="M572.5 502.32H575.9V503.7H572.5V502.32ZM565.66 507.86H566.82C569.6 507.86 571.26 507.8 573.26 507.4L573.42 508.76C571.36 509.16 569.64 509.22 566.82 509.22H565.66V507.86ZM565.66 497.66H572.36V499H567.24V508.32H565.66V497.66ZM566.76 502.54H571.54V503.86H566.76V502.54ZM578.74 495.48H580.34V513.56H578.74V495.48ZM575.1 495.9H576.68V512.64H575.1V495.9ZM590.638 496.72H592.078V498.1C592.078 502.04 588.418 505.1 584.798 505.92L584.058 504.54C587.238 503.94 590.638 501.18 590.638 498.1V496.72ZM590.938 496.72H592.378V498.1C592.378 501.2 595.798 503.94 598.958 504.54L598.218 505.92C594.618 505.1 590.938 502.06 590.938 498.1V496.72ZM583.398 509.76H599.778V511.12H583.398V509.76ZM603.897 505.22H616.317V506.56H603.897V505.22ZM601.797 509.86H618.177V511.24H601.797V509.86ZM603.897 497.02H616.117V498.38H605.577V505.64H603.897V497.02ZM605.037 501.06H615.737V502.38H605.037V501.06ZM633.16 503.72H634.8V506.96H633.16V503.72ZM627.98 500.28H640.22V501.62H627.98V500.28ZM627.98 496.18H640.02V497.52H629.62V501H627.98V496.18ZM625.8 503.06H642.14V504.42H625.8V503.06ZM627.78 506.18H640.06V510.26H629.46V512.44H627.82V509.04H638.42V507.46H627.78V506.18ZM627.82 512.06H640.6V513.36H627.82V512.06Z" fill="black"/>
<path d="M851.026 503V502.361L853.427 499.733C853.709 499.425 853.941 499.158 854.123 498.93C854.305 498.701 854.44 498.485 854.528 498.284C854.618 498.08 854.663 497.867 854.663 497.645C854.663 497.389 854.601 497.168 854.478 496.981C854.357 496.794 854.192 496.649 853.981 496.548C853.77 496.446 853.533 496.395 853.271 496.395C852.991 496.395 852.747 496.453 852.539 496.569C852.333 496.683 852.173 496.842 852.06 497.048C851.948 497.254 851.893 497.496 851.893 497.773H851.055C851.055 497.347 851.153 496.973 851.349 496.651C851.546 496.329 851.813 496.078 852.152 495.898C852.493 495.718 852.875 495.628 853.299 495.628C853.725 495.628 854.103 495.718 854.432 495.898C854.761 496.078 855.019 496.32 855.206 496.626C855.393 496.931 855.487 497.271 855.487 497.645C855.487 497.912 855.438 498.174 855.341 498.43C855.246 498.683 855.08 498.966 854.844 499.278C854.609 499.589 854.284 499.967 853.867 500.415L852.234 502.162V502.219H855.614V503H851.026ZM859.358 495.07C860.708 495.07 861.698 495.89 861.698 497.08C861.698 498.26 860.708 499.08 859.358 499.08C858.018 499.08 857.028 498.26 857.028 497.08C857.028 495.89 858.018 495.07 859.358 495.07ZM859.358 495.75C858.488 495.75 857.828 496.3 857.828 497.08C857.828 497.86 858.488 498.4 859.358 498.4C860.238 498.4 860.888 497.86 860.888 497.08C860.888 496.3 860.238 495.75 859.358 495.75ZM863.398 494.74H864.238V499.37H863.398V494.74ZM858.388 499.81H864.238V502.01H859.218V503.37H858.408V501.39H863.418V500.48H858.388V499.81ZM858.408 503H864.538V503.66H858.408V503ZM870.817 497.23H873.097V497.91H870.817V497.23ZM872.627 494.75H873.457V501.37H872.627V494.75ZM867.687 502.9H873.707V503.58H867.687V502.9ZM867.687 500.79H868.517V503.25H867.687V500.79ZM868.327 495.87H869.007V496.6C869.007 498.24 867.987 499.66 866.477 500.22L866.047 499.56C867.397 499.08 868.327 497.88 868.327 496.6V495.87ZM868.487 495.87H869.157V496.59C869.157 497.76 870.037 498.9 871.347 499.36L870.927 500.01C869.457 499.48 868.487 498.12 868.487 496.59V495.87ZM866.307 495.48H871.137V496.15H866.307V495.48Z" fill="black"/>
<path d="M575.296 528.768H576.624V543.264H575.296V528.768ZM568.992 529.888C571.136 529.888 572.672 531.856 572.672 534.928C572.672 538.016 571.136 539.984 568.992 539.984C566.864 539.984 565.328 538.016 565.328 534.928C565.328 531.856 566.864 529.888 568.992 529.888ZM568.992 531.088C567.584 531.088 566.592 532.592 566.592 534.928C566.592 537.28 567.584 538.816 568.992 538.816C570.416 538.816 571.392 537.28 571.392 534.928C571.392 532.592 570.416 531.088 568.992 531.088ZM594.579 528.784H595.907V539.552H594.579V528.784ZM584.435 529.952H592.051V531.04H584.435V529.952ZM584.195 537.376L584.051 536.24C586.419 536.24 589.795 536.208 592.499 535.888L592.579 536.88C589.795 537.328 586.547 537.376 584.195 537.376ZM585.875 530.88H587.155V536.432H585.875V530.88ZM589.331 530.88H590.611V536.432H589.331V530.88ZM592.179 531.52H595.283V532.608H592.179V531.52ZM592.179 534.288H595.283V535.376H592.179V534.288ZM586.659 541.84H596.291V542.928H586.659V541.84ZM586.659 538.672H587.987V542.528H586.659V538.672ZM602.562 530.848H603.634V533.2C603.634 536.256 601.794 539.328 599.49 540.464L598.722 539.408C600.818 538.416 602.562 535.696 602.562 533.2V530.848ZM602.818 530.848H603.89V533.2C603.89 535.648 605.634 538.144 607.762 539.056L607.01 540.112C604.674 539.024 602.818 536.208 602.818 533.2V530.848ZM599.202 530.256H607.282V531.376H599.202V530.256ZM609.234 528.784H610.562V543.248H609.234V528.784ZM615.216 533.12H625.04V534.208H615.216V533.12ZM613.44 536.144H626.56V537.232H613.44V536.144ZM615.216 529.312H616.528V533.664H615.216V529.312ZM615.12 541.808H625.12V542.896H615.12V541.808ZM615.12 538.672H616.432V542.096H615.12V538.672ZM639.251 530.864H643.667V531.952H639.251V530.864ZM639.251 534.192H643.667V535.296H639.251V534.192ZM636.611 529.632C638.739 529.632 640.339 531.072 640.339 533.072C640.339 535.088 638.739 536.512 636.611 536.512C634.467 536.512 632.883 535.088 632.883 533.072C632.883 531.072 634.467 529.632 636.611 529.632ZM636.611 530.768C635.203 530.768 634.163 531.712 634.163 533.072C634.163 534.432 635.203 535.376 636.611 535.376C638.019 535.376 639.075 534.432 639.075 533.072C639.075 531.712 638.019 530.768 636.611 530.768ZM643.235 528.784H644.563V537.344H643.235V528.784ZM639.811 537.68C642.787 537.68 644.627 538.704 644.627 540.448C644.627 542.208 642.787 543.216 639.811 543.216C636.819 543.216 634.979 542.208 634.979 540.448C634.979 538.704 636.819 537.68 639.811 537.68ZM639.811 538.736C637.619 538.736 636.291 539.376 636.291 540.448C636.291 541.536 637.619 542.176 639.811 542.176C641.987 542.176 643.315 541.536 643.315 540.448C643.315 539.376 641.987 538.736 639.811 538.736ZM649.058 529.456H658.37V530.544H649.058V529.456ZM647.394 534.64H660.498V535.728H647.394V534.64ZM653.266 535.376H654.578V538.784H653.266V535.376ZM657.506 529.456H658.802V530.528C658.802 531.728 658.802 533.184 658.322 535.168L657.026 535.008C657.506 533.072 657.506 531.696 657.506 530.528V529.456ZM648.754 538.352H658.898V543.248H657.57V539.44H648.754V538.352ZM667.969 534.4H670.705V535.504H667.969V534.4ZM673.121 528.784H674.401V543.248H673.121V528.784ZM670.257 529.088H671.521V542.528H670.257V529.088ZM665.361 529.984C667.233 529.984 668.449 531.92 668.449 535.024C668.449 538.128 667.233 540.064 665.361 540.064C663.489 540.064 662.289 538.128 662.289 535.024C662.289 531.92 663.489 529.984 665.361 529.984ZM665.361 531.216C664.225 531.216 663.505 532.688 663.505 535.024C663.505 537.36 664.225 538.832 665.361 538.832C666.513 538.832 667.233 537.36 667.233 535.024C667.233 532.688 666.513 531.216 665.361 531.216ZM684.047 533.68H688.079V534.768H684.047V533.68ZM680.559 530.032H681.647V532.608C681.647 535.856 679.935 538.96 677.647 540.192L676.799 539.136C678.927 538.08 680.559 535.296 680.559 532.608V530.032ZM680.815 530.032H681.887V532.608C681.887 535.248 683.519 537.872 685.615 538.864L684.831 539.936C682.495 538.752 680.815 535.776 680.815 532.608V530.032ZM687.423 528.768H688.735V543.264H687.423V528.768ZM691.534 537.344H704.654V538.432H691.534V537.344ZM697.39 537.856H698.702V543.248H697.39V537.856ZM693.182 529.36H694.51V531.344H701.662V529.36H702.974V535.616H693.182V529.36ZM694.51 532.416V534.544H701.662V532.416H694.51ZM716.861 528.768H718.173V543.264H716.861V528.768ZM713.853 534.224H717.053V535.328H713.853V534.224ZM706.925 538.688H708.029C710.749 538.688 712.461 538.64 714.493 538.256L714.621 539.344C712.541 539.712 710.781 539.792 708.029 539.792H706.925V538.688ZM706.925 530.096H713.613V531.2H708.237V539.072H706.925V530.096ZM707.901 534.16H712.989V535.232H707.901V534.16ZM729.296 530.032H730.384V532.624C730.384 535.952 728.592 539.04 726.224 540.24L725.408 539.152C727.552 538.128 729.296 535.36 729.296 532.624V530.032ZM729.52 530.032H730.608V532.624C730.608 535.264 732.336 537.92 734.48 538.912L733.68 539.968C731.328 538.816 729.52 535.84 729.52 532.624V530.032ZM735.984 528.768H737.312V543.264H735.984V528.768ZM743.758 530.272H744.846V531.44C744.846 534.096 743.246 536.304 740.83 537.168L740.126 536.128C742.318 535.36 743.758 533.504 743.758 531.44V530.272ZM743.998 530.272H745.086V531.424C745.086 533.344 746.478 535.12 748.606 535.84L747.918 536.88C745.534 536.048 743.998 533.92 743.998 531.424V530.272ZM740.542 529.792H748.27V530.88H740.542V529.792ZM750.094 528.784H751.422V537.488H750.094V528.784ZM751.054 532.592H753.566V533.696H751.054V532.592ZM742.03 538.256H751.422V543.248H750.094V539.36H742.03V538.256ZM764.717 528.784H766.045V543.248H764.717V528.784ZM765.725 534.72H768.413V535.84H765.725V534.72ZM754.845 531.088H763.373V532.176H754.845V531.088ZM759.165 533.376C761.213 533.376 762.685 534.752 762.685 536.704C762.685 538.656 761.213 540.032 759.165 540.032C757.133 540.032 755.645 538.656 755.645 536.704C755.645 534.752 757.133 533.376 759.165 533.376ZM759.165 534.48C757.853 534.48 756.909 535.392 756.909 536.704C756.909 538 757.853 538.928 759.165 538.928C760.477 538.928 761.421 538 761.421 536.704C761.421 535.392 760.477 534.48 759.165 534.48ZM758.477 528.96H759.805V531.584H758.477V528.96ZM776.156 532H780.524V533.104H776.156V532ZM776.156 536.576H780.524V537.68H776.156V536.576ZM773.5 529.888C775.596 529.888 777.1 531.856 777.1 534.928C777.1 538.016 775.596 539.984 773.5 539.984C771.388 539.984 769.9 538.016 769.9 534.928C769.9 531.856 771.388 529.888 773.5 529.888ZM773.5 531.088C772.108 531.088 771.148 532.592 771.148 534.928C771.148 537.28 772.108 538.816 773.5 538.816C774.892 538.816 775.852 537.28 775.852 534.928C775.852 532.592 774.892 531.088 773.5 531.088ZM780.236 528.768H781.548V543.264H780.236V528.768ZM790.975 532.224H799.999V539.776H790.975V532.224ZM798.687 533.312H792.286V538.704H798.687V533.312ZM805.693 532.224H814.717V539.776H805.693V532.224ZM813.405 533.312H807.005V538.704H813.405V533.312ZM820.412 532.224H829.436V539.776H820.412V532.224ZM828.124 533.312H821.724V538.704H828.124V533.312ZM566.912 551.224H575.936V558.776H566.912V551.224ZM574.624 552.312H568.224V557.704H574.624V552.312ZM581.631 551.224H590.655V558.776H581.631V551.224ZM589.343 552.312H582.943V557.704H589.343V552.312ZM596.35 551.224H605.374V558.776H596.35V551.224ZM604.062 552.312H597.661V557.704H604.062V552.312ZM611.068 551.224H620.092V558.776H611.068V551.224ZM618.78 552.312H612.38V557.704H618.78V552.312ZM625.787 551.224H634.811V558.776H625.787V551.224ZM633.499 552.312H627.099V557.704H633.499V552.312ZM640.506 551.224H649.53V558.776H640.506V551.224ZM648.218 552.312H641.818V557.704H648.218V552.312ZM655.225 551.224H664.249V558.776H655.225V551.224ZM662.937 552.312H656.536V557.704H662.937V552.312ZM669.943 551.224H678.967V558.776H669.943V551.224ZM677.655 552.312H671.255V557.704H677.655V552.312ZM684.662 551.224H693.686V558.776H684.662V551.224ZM692.374 552.312H685.974V557.704H692.374V552.312ZM699.381 551.224H708.405V558.776H699.381V551.224ZM707.093 552.312H700.693V557.704H707.093V552.312ZM714.1 551.224H723.124V558.776H714.1V551.224ZM721.812 552.312H715.411V557.704H721.812V552.312ZM728.818 551.224H737.842V558.776H728.818V551.224ZM736.53 552.312H730.13V557.704H736.53V552.312ZM743.537 551.224H752.561V558.776H743.537V551.224ZM751.249 552.312H744.849V557.704H751.249V552.312ZM758.256 551.224H767.28V558.776H758.256V551.224ZM765.968 552.312H759.568V557.704H765.968V552.312ZM772.975 551.224H781.999V558.776H772.975V551.224ZM780.687 552.312H774.286V557.704H780.687V552.312ZM787.693 551.224H796.717V558.776H787.693V551.224ZM795.405 552.312H789.005V557.704H795.405V552.312ZM802.412 551.224H811.436V558.776H802.412V551.224ZM810.124 552.312H803.724V557.704H810.124V552.312ZM817.131 551.224H826.155V558.776H817.131V551.224ZM824.843 552.312H818.443V557.704H824.843V552.312Z" fill="#282828"/>
<g filter="url(#filter0_d_110_696)">
<circle cx="900" cy="979" r="16" fill="white"/>
</g>
<rect width="380" height="42" transform="translate(530 318)" fill="white"/>
<path d="M551 347.75C550.801 347.751 550.61 347.671 550.47 347.53L542.47 339.53C542.177 339.237 542.177 338.763 542.47 338.47L550.47 330.47C550.765 330.194 551.226 330.203 551.511 330.488C551.797 330.774 551.805 331.234 551.53 331.53L544.06 339L551.53 346.47C551.822 346.763 551.822 347.237 551.53 347.53C551.39 347.671 551.199 347.751 551 347.75Z" fill="#4839FA"/>
<path d="M714.395 335.768H718.043V336.856H714.395V335.768ZM717.291 331.8H718.619V342.392H717.291V331.8ZM709.387 344.84H719.019V345.928H709.387V344.84ZM709.387 341.464H710.715V345.4H709.387V341.464ZM710.411 333.592H711.499V334.76C711.499 337.384 709.867 339.656 707.451 340.552L706.763 339.496C708.923 338.728 710.411 336.808 710.411 334.76V333.592ZM710.667 333.592H711.739V334.744C711.739 336.616 713.147 338.44 715.243 339.176L714.571 340.216C712.219 339.368 710.667 337.192 710.667 334.744V333.592ZM707.179 332.968H714.907V334.04H707.179V332.968ZM727.038 337.496H729.774V338.584H727.038V337.496ZM724.094 335.48H725.118V336.232C725.118 339.112 723.918 342.024 721.806 343.288L721.022 342.28C722.974 341.144 724.094 338.6 724.094 336.232V335.48ZM724.334 335.48H725.358V336.232C725.358 338.536 726.51 340.92 728.462 341.976L727.71 342.968C725.582 341.784 724.334 339.048 724.334 336.232V335.48ZM721.422 334.44H728.03V335.544H721.422V334.44ZM724.094 332.296H725.374V335.288H724.094V332.296ZM732.142 331.784H733.422V346.248H732.142V331.784ZM729.246 332.12H730.494V345.512H729.246V332.12Z" fill="black"/>
<path fill-rule="evenodd" clip-rule="evenodd" d="M854.79 342.27L855.52 338.86C855.626 338.386 855.866 337.952 856.21 337.61L862.88 331C863.556 330.311 864.475 329.913 865.44 329.89C866.168 329.879 866.87 330.16 867.39 330.67C868.526 332.012 868.38 334.017 867.06 335.18L860.39 341.85C860.048 342.194 859.614 342.434 859.14 342.54L855.73 343.27H855.54C855.291 343.279 855.053 343.166 854.903 342.966C854.753 342.767 854.711 342.507 854.79 342.27ZM857.27 338.68C857.13 338.816 857.033 338.99 856.99 339.18L856.5 341.51L858.83 341.01C859.02 340.967 859.194 340.87 859.33 340.73L866 334.06C866.731 333.475 866.876 332.42 866.33 331.66C866.091 331.432 865.77 331.309 865.44 331.32C864.871 331.343 864.333 331.587 863.94 332L857.27 338.68Z" fill="black"/>
<path d="M866.91 337.93C866.498 337.935 866.165 338.268 866.16 338.68V344.37C866.173 345.174 865.863 345.95 865.299 346.524C864.735 347.097 863.964 347.42 863.16 347.42H853.63C851.967 347.387 850.635 346.033 850.63 344.37V334.88C850.657 333.215 852.015 331.88 853.68 331.88H859.37C859.784 331.88 860.12 331.544 860.12 331.13C860.12 330.716 859.784 330.38 859.37 330.38H853.63C851.137 330.38 849.107 332.387 849.08 334.88V344.37C849.08 346.883 851.117 348.92 853.63 348.92H863.12C865.629 348.914 867.66 346.879 867.66 344.37V338.68C867.655 338.268 867.322 337.935 866.91 337.93Z" fill="black"/>
<path d="M888.904 347.577H894.855C895.289 347.577 895.641 347.929 895.641 348.363C895.641 348.797 895.289 349.149 894.855 349.149H888.904C886.2 349.149 884.006 346.96 884 344.256V333.914C884 331.204 886.194 329.006 888.904 329H892.948C894.47 329 895.704 330.234 895.704 331.756C895.704 332.07 895.828 332.371 896.05 332.593C896.273 332.815 896.574 332.94 896.888 332.94H900.932C903.636 332.945 905.825 335.139 905.825 337.843C905.826 338.283 905.478 338.644 905.039 338.661C904.836 338.669 904.637 338.595 904.489 338.455C904.341 338.314 904.256 338.12 904.254 337.917C904.268 337.024 903.925 336.162 903.301 335.523C902.678 334.884 901.825 334.52 900.932 334.511H896.888C895.366 334.511 894.132 333.278 894.132 331.756C894.121 331.108 893.596 330.588 892.948 330.582H888.904C887.066 330.588 885.577 332.076 885.572 333.914V344.256C885.577 346.092 887.068 347.577 888.904 347.577Z" fill="#4839FA"/>
<path d="M902.158 343.417H899.706C899.272 343.417 898.92 343.769 898.92 344.203C898.92 344.637 899.272 344.989 899.706 344.989H902.158C902.592 344.989 902.944 344.637 902.944 344.203C902.944 343.769 902.592 343.417 902.158 343.417Z" fill="#4839FA"/>
<path fill-rule="evenodd" clip-rule="evenodd" d="M895.976 342.108C895.976 340.524 897.253 339.238 898.837 339.226H903.028C903.795 339.221 904.534 339.522 905.079 340.063C905.624 340.604 905.93 341.34 905.93 342.108V346.299C905.93 347.063 905.626 347.796 905.086 348.336C904.546 348.877 903.813 349.18 903.049 349.18H898.857C898.093 349.18 897.36 348.877 896.82 348.336C896.28 347.796 895.976 347.063 895.976 346.299V342.108ZM898.857 347.608H903.049C903.772 347.608 904.358 347.022 904.358 346.299V342.108C904.358 341.76 904.22 341.427 903.975 341.182C903.729 340.936 903.396 340.798 903.049 340.798H898.857C898.134 340.798 897.548 341.384 897.548 342.108V346.299C897.548 347.022 898.134 347.608 898.857 347.608Z" fill="#4839FA"/>
<path d="M897.209 984.56C897.042 984.568 896.876 984.518 896.739 984.42L892.249 980.71C891.96 980.454 891.917 980.019 892.149 979.71C892.405 979.422 892.837 979.375 893.149 979.6L897.149 982.86L907.649 973.15C907.96 972.917 908.397 972.96 908.657 973.248C908.917 973.537 908.914 973.976 908.649 974.26L897.719 984.36C897.58 984.488 897.398 984.559 897.209 984.56Z" fill="#4839FA"/>
<defs>
<filter id="filter0_d_110_696" x="874" y="957" width="52" height="52" filterUnits="userSpaceOnUse" color-interpolation-filters="sRGB">
<feFlood flood-opacity="0" result="BackgroundImageFix"/>
<feColorMatrix in="SourceAlpha" type="matrix" values="0 0 0 0 0 0 0 0 0 0 0 0 0 0 0 0 0 0 127 0" result="hardAlpha"/>
<feOffset dy="4"/>
<feGaussianBlur stdDeviation="5"/>
<feComposite in2="hardAlpha" operator="out"/>
<feColorMatrix type="matrix" values="0 0 0 0 0 0 0 0 0 0 0 0 0 0 0 0 0 0 0.25 0"/>
<feBlend mode="normal" in2="BackgroundImageFix" result="effect1_dropShadow_110_696"/>
<feBlend mode="normal" in="SourceGraphic" in2="effect1_dropShadow_110_696" result="shape"/>
</filter>
</defs>
</svg>
